<svg xmlns="http://www.w3.org/2000/svg" xmlns:xlink="http://www.w3.org/1999/xlink" viewBox="0 0 160 600"><defs><clipPath id="clip-path"><rect x="19.57" y="329.5" width="102" height="25.83" fill="none"/></clipPath><clipPath id="clip-path-2"><rect x="19.57" y="329.5" width="102" height="25.83" fill="none"/></clipPath></defs><g id="Layer_2" data-name="Layer 2"><g id="content"><rect width="160" height="600"/><path d="M1.49,599.52c-.06-4.93-.05-7,0-10.76.68-48.09,35.12-80.7,78.45-80.7s78.6,36.13,78.6,80.7c0,3.65-.09,6.83,0,10.76" fill="#e52823"/><g id="white_logo" data-name="white logo"><g clip-path="url(#clip-path)"><g clip-path="url(#clip-path-2)"><path d="M31.1,333.59c15.37-4.7,23.12,7.07,23.12,7.07s-4.87-16.42-23.12-7.07" fill="#fff"/><path d="M60.8,334.19c0-.06,0-.49,0-.55a11.46,11.46,0,0,0-6.06,8.81s2.09-4.86,7-6.33a3,3,0,0,1-1-1.93" fill="#fff"/><path d="M41.21,341.05s0,2.32,0,3.5c-.59,0-3.14-.16-4.26-.2,0,.62,0,1.27,0,1.89,1.35,0,2.74.19,4.08.17,0,1.13,0,2.1,0,3.23-1.35,0-2.69-.11-4-.14l0,2.05c1.44,0,2.89.16,4.33.13,0,0,0,3.43,0,3.43-2.85,0-6.24-.22-9.45-.49L32,340.34c1.35.16,5.55.6,9.2.71" fill="#fff"/><path d="M42.42,341.09l-.05,3.72c1.35.07,2.56.08,2.56.08l0,10.34a31.85,31.85,0,0,0,5.16-.07L50,344.91s2.28-.1,2.63-.13c0-1.37,0-2.44,0-3.81a90.7,90.7,0,0,1-10.17.12" fill="#fff"/><path d="M111.35,338.81c0,1.48,0,2.85,0,4.33.87.05,1.86.22,2.74.3,0,3.61-.09,6.34-.1,9.95,2.43.29,4.16.57,4.82.69,0-3.61.14-6.45.15-10.06,0,0,2.57.4,2.61.44,0-1.49,0-3,0-4.45a79.26,79.26,0,0,0-10.22-1.2" fill="#fff"/><path d="M24.59,345.77l-.45,0c0-1,0-2,0-2.94l.43,0a1.49,1.49,0,0,1,1.49,1.57c0,1.21-.75,1.44-1.49,1.36m1.13-6.9-6.12-1.11,0,15c1.56.31,3,.57,4.52.74l0-4.33,1.65.18c2.65.25,5.33-.75,5.36-5.09,0-3.84-2.53-4.95-5.36-5.37" fill="#fff"/><path d="M76.74,352.79c.69-1.79,1.37-3.46,2.06-5.24.11,1.71.17,3.25.28,5,1.71-.19,3.08-.29,4.8-.39-.45-4.55-.83-9.43-1.27-14-1.47.12-2.94.26-4.41.4-.82,2.15-1.64,4.76-2.47,6.91-.79-2-1.59-4.33-2.38-6.31-1.49.21-4.14.67-4.41.68-.51,4.63-1.09,9.79-1.6,14.43,1.17-.21,4-.66,4.9-.78.13-1.73.26-3.58.39-5.31l2,5,2.13-.33" fill="#fff"/><path d="M103.88,344.94l-.45,0,0-2.89.44,0a1.43,1.43,0,0,1,1.49,1.52,1.24,1.24,0,0,1-1.51,1.37m4.25,3.08c1.3-.58,2.25-1.85,2.28-4.36,0-3.79-2.63-5.41-5.33-5.61-2-.17-4.1-.27-6.16-.33-.06,4.81-.09,9.22-.15,14,1.53,0,3.21.16,4.55.27,0-1.35,0-2.36.06-3.71.88,1.41,1.59,2.58,2.47,4,1.89.17,3.82.41,5.7.69-1.18-1.76-2.24-3.27-3.42-5" fill="#fff"/><path d="M90.22,347.09c.32-1.19.64-2.45,1-3.65.36,1.2.73,2.4,1.09,3.6a19.63,19.63,0,0,1-2,0m3.35-9.47c-1.83,0-3.32,0-4.87.1-1.26,4.66-2.73,9.65-4,14.34,1.4,0,2.81-.12,4.2-.12l.41-1.56,2.13-.05s1.87-.06,1.87-.06c.06.18.23.67.47,1.49,1.39,0,2.79,0,4.18,0-1.51-4.94-3-9.69-4.4-14.17" fill="#fff"/><path d="M54.23,353.91a12.6,12.6,0,0,0,5.66,1.43c3.2,0,6.55-1.92,6.62-5.5,0-2.56-1.57-3.77-3.84-4.28l-1.21-.27c-.41-.1-1.08-.18-1.07-.74s.71-.79,1.18-.8a8.63,8.63,0,0,1,3.26.69c.46-1.2.91-2.4,1.36-3.6a10.57,10.57,0,0,0-4.66-1.11c-3.22,0-6.45,1.95-6.52,5.52,0,2.35,1.69,3.64,3.78,4l1.08.2c.49.11,1.19.17,1.18.84s-.85.76-1.38.76A6.26,6.26,0,0,1,56,349.85c-.56,1.26-1.22,2.81-1.77,4.06" fill="#fff"/><path d="M65.81,329.5a3.61,3.61,0,1,0,3.55,3.65,3.61,3.61,0,0,0-3.55-3.65m1.3,1.33a4.32,4.32,0,0,0-3.86,2.26.13.13,0,0,0,0,.06,2.64,2.64,0,0,1,.08-1,2.46,2.46,0,0,1,3-1.75,2.4,2.4,0,0,1,.85.45l-.06,0" fill="#fff"/></g></g></g><path d="M16.28,24.92H26.81a6.49,6.49,0,0,1,3.13.7,4.86,4.86,0,0,1,2,1.86A5,5,0,0,1,32.57,30a4.72,4.72,0,0,1-1,3.06,4.06,4.06,0,0,1-2.46,1.53,4.22,4.22,0,0,1,2.73,1.65A5.18,5.18,0,0,1,33,39.52a5.27,5.27,0,0,1-1.53,3.88,5.8,5.8,0,0,1-4.29,1.52H16.28Zm9.6,8a2.34,2.34,0,0,0,1.71-.61,2.14,2.14,0,0,0,.63-1.61,2.11,2.11,0,0,0-.65-1.56,2.31,2.31,0,0,0-1.69-.63H20.54V33ZM26,41.29a2.66,2.66,0,0,0,1.89-.64,2.43,2.43,0,0,0,0-3.39A2.59,2.59,0,0,0,26,36.58H20.54v4.71Z" fill="#fff"/><path d="M37.11,44.31a4,4,0,0,1-1-3V24.92h3.81V40.33a1.77,1.77,0,0,0,.36,1.14,1.17,1.17,0,0,0,1,.45A2.45,2.45,0,0,0,42,41.8a1,1,0,0,0,.51-.3l.81,2.88a4.63,4.63,0,0,1-3.15.93A4.22,4.22,0,0,1,37.11,44.31Z" fill="#fff"/><path d="M55,43.06a5.91,5.91,0,0,1-2,1.67,5.38,5.38,0,0,1-2.47.58,6.19,6.19,0,0,1-3.3-.9,6.06,6.06,0,0,1-2.3-2.61,9.36,9.36,0,0,1-.82-4.09,9.28,9.28,0,0,1,.82-4A6.22,6.22,0,0,1,47.19,31a6,6,0,0,1,3.32-.94A5.7,5.7,0,0,1,55,32.29V30.43h3.84V44.92H55Zm0-7.91A3.56,3.56,0,0,0,53.57,34a4.19,4.19,0,0,0-1.89-.47A3.36,3.36,0,0,0,49,34.65a4.49,4.49,0,0,0-1,3.06,4.47,4.47,0,0,0,1,3,3.34,3.34,0,0,0,2.64,1.17,4.18,4.18,0,0,0,1.89-.46A3.56,3.56,0,0,0,55,40.27Z" fill="#fff"/><path d="M62.66,33.76a7,7,0,0,1,2.73-2.71,8,8,0,0,1,4-1,7.58,7.58,0,0,1,3.48.74,6.07,6.07,0,0,1,2.25,1.87L72.59,35a3.48,3.48,0,0,0-3.06-1.56,3.75,3.75,0,0,0-2.84,1.16,4.29,4.29,0,0,0-1.09,3.06,4.32,4.32,0,0,0,1.09,3.07,3.81,3.81,0,0,0,5.9-.39l2.49,2.31a6.16,6.16,0,0,1-2.24,1.89,7.41,7.41,0,0,1-3.49.75,8,8,0,0,1-4-1,7,7,0,0,1-2.73-2.71,8.32,8.32,0,0,1,0-7.87Z" fill="#fff"/><path d="M83.12,39.34,81.38,41.2v3.72H77.57v-20h3.81v12l5.49-6.45h4.68L85.82,37l5.91,7.92H87Z" fill="#fff"/><path d="M16.28,54.92H30.44v3.65h-9.9v4.35h9.69v3.66H20.54v8.34H16.28Z" fill="#fff"/><path d="M33.32,60.43h3.81v2a6.28,6.28,0,0,1,2-1.67,5.41,5.41,0,0,1,2.58-.68v3.72a5.54,5.54,0,0,0-1-.12,5.06,5.06,0,0,0-2,.49,3.41,3.41,0,0,0-1.53,1.17v9.59H33.32Z" fill="#fff"/><path d="M44.4,57.63a2.26,2.26,0,0,1,0-3.21A2.21,2.21,0,0,1,46,53.74a2.24,2.24,0,0,1,1.62.66,2.31,2.31,0,0,1,0,3.23A2.17,2.17,0,0,1,46,58.3,2.2,2.2,0,0,1,44.4,57.63Zm-.28,2.8h3.81V74.92H44.12Z" fill="#fff"/><path d="M61.67,73.06a5.91,5.91,0,0,1-2,1.67,5.38,5.38,0,0,1-2.47.58,6.19,6.19,0,0,1-3.3-.9,6.06,6.06,0,0,1-2.3-2.61,10.49,10.49,0,0,1,0-8.13A6.22,6.22,0,0,1,53.88,61a6,6,0,0,1,3.32-.94,5.7,5.7,0,0,1,4.47,2.22V54.92h3.84v20H61.67Zm0-7.94a3.56,3.56,0,0,0-1.41-1.19,4.19,4.19,0,0,0-1.89-.47,3.35,3.35,0,0,0-2.64,1.18,5.08,5.08,0,0,0,0,6.11,3.34,3.34,0,0,0,2.64,1.17,4.18,4.18,0,0,0,1.89-.46,3.56,3.56,0,0,0,1.41-1.19Z" fill="#fff"/><path d="M79.25,73.06a5.91,5.91,0,0,1-2,1.67,5.38,5.38,0,0,1-2.47.58,6.19,6.19,0,0,1-3.3-.9,6.06,6.06,0,0,1-2.3-2.61,10.49,10.49,0,0,1,0-8.13A6.22,6.22,0,0,1,71.46,61a6,6,0,0,1,3.32-.94,5.7,5.7,0,0,1,4.47,2.22V60.43h3.84V74.92H79.25Zm0-7.91A3.56,3.56,0,0,0,77.84,64,4.19,4.19,0,0,0,76,63.49a3.36,3.36,0,0,0-2.64,1.16,5.07,5.07,0,0,0,0,6.1A3.34,3.34,0,0,0,76,71.92a4.18,4.18,0,0,0,1.89-.46,3.56,3.56,0,0,0,1.41-1.19Z" fill="#fff"/><path d="M88.4,75.88a4.59,4.59,0,0,0,1.92,1.35,6.71,6.71,0,0,0,2.43.45,4,4,0,0,0,2.88-1,3.59,3.59,0,0,0,1-2.76v-1.5A6.89,6.89,0,0,1,94.5,74a6.69,6.69,0,0,1-3,.63A4.69,4.69,0,0,1,88,73.45a4.59,4.59,0,0,1-1.17-3.36V60.43h3.81v8.16a2.65,2.65,0,0,0,.69,2.06,2.88,2.88,0,0,0,2,.61,3.85,3.85,0,0,0,1.89-.48,4.29,4.29,0,0,0,1.41-1.17V60.43h3.81V73.78A6.56,6.56,0,0,1,98.37,79a8.17,8.17,0,0,1-5.62,1.84,8.9,8.9,0,0,1-6.06-2.15Z" fill="#fff"/><path d="M26.15,103.06a5.91,5.91,0,0,1-2,1.67,5.38,5.38,0,0,1-2.47.58,6.19,6.19,0,0,1-3.3-.9,6.06,6.06,0,0,1-2.3-2.61,10.49,10.49,0,0,1,0-8.13A6.22,6.22,0,0,1,18.36,91a6,6,0,0,1,3.32-.94,5.7,5.7,0,0,1,4.47,2.22V84.92H30v20H26.15Zm0-7.94a3.56,3.56,0,0,0-1.41-1.19,4.19,4.19,0,0,0-1.89-.47,3.35,3.35,0,0,0-2.64,1.18,5.08,5.08,0,0,0,0,6.11,3.34,3.34,0,0,0,2.64,1.17,4.18,4.18,0,0,0,1.89-.46,3.56,3.56,0,0,0,1.41-1.19Z" fill="#fff"/><path d="M33.8,93.85a7.27,7.27,0,0,1,2.67-2.75,7.41,7.41,0,0,1,3.87-1,7.12,7.12,0,0,1,3.78,1,6.8,6.8,0,0,1,2.56,2.82,9.09,9.09,0,0,1,.92,4.15v.85H36.83a3.75,3.75,0,0,0,1.29,2.42,4.25,4.25,0,0,0,2.88,1,6.32,6.32,0,0,0,2.11-.38,4.87,4.87,0,0,0,1.76-1.06l1.68,2.46a7.06,7.06,0,0,1-2.64,1.49,10.55,10.55,0,0,1-3.33.52,8.27,8.27,0,0,1-4-.94,7,7,0,0,1-2.78-2.68,8.33,8.33,0,0,1,0-7.84Zm4,.23a3.9,3.9,0,0,0-1,2.23h7.14a3.7,3.7,0,0,0-1-2.22,3.29,3.29,0,0,0-2.59-1A3.26,3.26,0,0,0,37.82,94.08Z" fill="#fff"/><path d="M60.32,103.06a5.91,5.91,0,0,1-2,1.67,5.38,5.38,0,0,1-2.47.58,6.19,6.19,0,0,1-3.3-.9,6.06,6.06,0,0,1-2.3-2.61,10.49,10.49,0,0,1,0-8.13A6.22,6.22,0,0,1,52.53,91a6,6,0,0,1,3.32-.94,5.7,5.7,0,0,1,4.47,2.22V90.43h3.84v14.49H60.32Zm0-7.91A3.56,3.56,0,0,0,58.91,94,4.19,4.19,0,0,0,57,93.49a3.36,3.36,0,0,0-2.64,1.16,5.07,5.07,0,0,0,0,6.1A3.34,3.34,0,0,0,57,101.92a4.18,4.18,0,0,0,1.89-.46,3.56,3.56,0,0,0,1.41-1.19Z" fill="#fff"/><path d="M69,104.31a4,4,0,0,1-1-3V84.92h3.81v15.41a1.77,1.77,0,0,0,.36,1.14,1.17,1.17,0,0,0,1,.45,2.45,2.45,0,0,0,.78-.12,1,1,0,0,0,.51-.3l.81,2.88a4.63,4.63,0,0,1-3.15.93A4.22,4.22,0,0,1,69,104.31Z" fill="#fff"/><path d="M77.27,100.4a7.44,7.44,0,0,0,2.28,1.37,7,7,0,0,0,2.73.61,3.4,3.4,0,0,0,1.81-.4,1.23,1.23,0,0,0,.62-1.09A1.15,1.15,0,0,0,84,99.83a9.36,9.36,0,0,0-2.19-.66,21.3,21.3,0,0,1-2.88-.73,4.63,4.63,0,0,1-2-1.3,3.56,3.56,0,0,1-.84-2.51,4,4,0,0,1,.7-2.28,4.79,4.79,0,0,1,2.06-1.66A7.61,7.61,0,0,1,82,90.07a9.12,9.12,0,0,1,5.85,2l-1.53,2.62a5.4,5.4,0,0,0-1.85-1.21A6.47,6.47,0,0,0,82.07,93a3.31,3.31,0,0,0-1.67.36,1.11,1.11,0,0,0-.61,1,1,1,0,0,0,.67,1,10.39,10.39,0,0,0,2.09.62,19.56,19.56,0,0,1,2.91.75,5,5,0,0,1,2,1.38,3.77,3.77,0,0,1,.87,2.62,4.12,4.12,0,0,1-.74,2.39,4.74,4.74,0,0,1-2.16,1.67,8.64,8.64,0,0,1-3.37.6,11,11,0,0,1-3.62-.6,7.92,7.92,0,0,1-2.86-1.65Z" fill="#fff"/><path d="M16.58,130.4a7.44,7.44,0,0,0,2.28,1.37,7,7,0,0,0,2.73.61,3.4,3.4,0,0,0,1.81-.4,1.23,1.23,0,0,0,.62-1.09,1.15,1.15,0,0,0-.72-1.06,9.36,9.36,0,0,0-2.19-.66,21.3,21.3,0,0,1-2.88-.73,4.63,4.63,0,0,1-2-1.3,3.56,3.56,0,0,1-.84-2.51,4,4,0,0,1,.7-2.28,4.79,4.79,0,0,1,2.06-1.66,7.61,7.61,0,0,1,3.18-.62,9.12,9.12,0,0,1,5.85,2l-1.53,2.62a5.4,5.4,0,0,0-1.85-1.21,6.47,6.47,0,0,0-2.44-.48,3.31,3.31,0,0,0-1.67.36,1.11,1.11,0,0,0-.61,1,1,1,0,0,0,.67,1,10.39,10.39,0,0,0,2.09.62,19.56,19.56,0,0,1,2.91.75,5,5,0,0,1,2,1.38,3.77,3.77,0,0,1,.87,2.62,4.12,4.12,0,0,1-.74,2.39,4.74,4.74,0,0,1-2.16,1.67,8.64,8.64,0,0,1-3.37.6,11,11,0,0,1-3.62-.6,7.92,7.92,0,0,1-2.86-1.65Z" fill="#fff"/><path d="M32.3,134.29a3.92,3.92,0,0,1-1-2.95v-7.58h-2.4v-3.33h2.4v-4h3.84v4H38v3.33H35.09v6.57a1.77,1.77,0,0,0,.36,1.14,1.17,1.17,0,0,0,1,.45,2.45,2.45,0,0,0,.78-.12,1.25,1.25,0,0,0,.54-.3l.81,2.88a4.68,4.68,0,0,1-3.18.93A4.22,4.22,0,0,1,32.3,134.29Z" fill="#fff"/><path d="M50.6,133.06a5.91,5.91,0,0,1-2,1.67,5.38,5.38,0,0,1-2.47.58,6.19,6.19,0,0,1-3.3-.9,6.06,6.06,0,0,1-2.3-2.61,10.49,10.49,0,0,1,0-8.13A6.22,6.22,0,0,1,42.81,121a6,6,0,0,1,3.32-.94,5.7,5.7,0,0,1,4.47,2.22v-1.86h3.84v14.49H50.6Zm0-7.91A3.56,3.56,0,0,0,49.19,124a4.19,4.19,0,0,0-1.89-.47,3.36,3.36,0,0,0-2.64,1.16,5.07,5.07,0,0,0,0,6.1,3.34,3.34,0,0,0,2.64,1.17,4.18,4.18,0,0,0,1.89-.46,3.56,3.56,0,0,0,1.41-1.19Z" fill="#fff"/><path d="M58.22,120.43H62v2a6.28,6.28,0,0,1,2-1.67,5.41,5.41,0,0,1,2.58-.68v3.72a5.54,5.54,0,0,0-1.05-.12,5.06,5.06,0,0,0-2,.49A3.41,3.41,0,0,0,62,125.33v9.59H58.22Z" fill="#fff"/><path d="M70.82,134.29a3.92,3.92,0,0,1-1-2.95v-7.58h-2.4v-3.33h2.4v-4h3.84v4h2.94v3.33H73.61v6.57a1.77,1.77,0,0,0,.36,1.14,1.17,1.17,0,0,0,1,.45,2.45,2.45,0,0,0,.78-.12,1.25,1.25,0,0,0,.54-.3l.81,2.88a4.68,4.68,0,0,1-3.18.93A4.22,4.22,0,0,1,70.82,134.29Z" fill="#fff"/><path d="M18,164.29a3.92,3.92,0,0,1-1-2.95v-7.58h-2.4v-3.33h2.4v-4h3.84v4h2.94v3.33H20.78v6.57a1.77,1.77,0,0,0,.36,1.14,1.17,1.17,0,0,0,1,.45,2.45,2.45,0,0,0,.78-.12,1.25,1.25,0,0,0,.54-.3l.81,2.88a4.68,4.68,0,0,1-3.18.93A4.22,4.22,0,0,1,18,164.29Z" fill="#fff"/><path d="M36.14,156.1a2.62,2.62,0,0,0-.69-2,3,3,0,0,0-2-.6,3.76,3.76,0,0,0-1.89.5,4.52,4.52,0,0,0-1.41,1.21v9.75H26.33v-20h3.81v7.4a6.54,6.54,0,0,1,2.11-1.59,6.66,6.66,0,0,1,3-.66,4.78,4.78,0,0,1,3.52,1.2A4.59,4.59,0,0,1,40,154.63v10.29H36.14Z" fill="#fff"/><path d="M44,147.63a2.26,2.26,0,0,1,0-3.21,2.21,2.21,0,0,1,1.61-.68,2.24,2.24,0,0,1,1.62.66,2.31,2.31,0,0,1,0,3.23,2.17,2.17,0,0,1-1.62.67A2.2,2.2,0,0,1,44,147.63Zm-.28,2.8h3.81v14.49H43.73Z" fill="#fff"/><path d="M51.71,160.4A7.44,7.44,0,0,0,54,161.77a7,7,0,0,0,2.73.61,3.4,3.4,0,0,0,1.81-.4,1.23,1.23,0,0,0,.62-1.09,1.15,1.15,0,0,0-.72-1.06,9.36,9.36,0,0,0-2.19-.66,21.3,21.3,0,0,1-2.88-.73,4.63,4.63,0,0,1-2-1.3,3.56,3.56,0,0,1-.84-2.51,4,4,0,0,1,.7-2.28,4.79,4.79,0,0,1,2.06-1.66,7.61,7.61,0,0,1,3.18-.62,9.12,9.12,0,0,1,5.85,2l-1.53,2.62A5.4,5.4,0,0,0,59,153.46a6.47,6.47,0,0,0-2.44-.48,3.31,3.31,0,0,0-1.67.36,1.11,1.11,0,0,0-.61,1,1,1,0,0,0,.67.95,10.39,10.39,0,0,0,2.09.62,19.56,19.56,0,0,1,2.91.75,5,5,0,0,1,2,1.38,3.77,3.77,0,0,1,.87,2.62,4.12,4.12,0,0,1-.74,2.39,4.74,4.74,0,0,1-2.16,1.67,8.64,8.64,0,0,1-3.37.6,11,11,0,0,1-3.62-.6,7.92,7.92,0,0,1-2.86-1.65Z" fill="#fff"/><path d="M25.85,185.05l-3.06,9.87H18.71L14.3,180.43h4l2.7,9.75,3.18-9.75h3.39l3.18,9.75,2.7-9.75h4L33,194.92H28.91Z" fill="#fff"/><path d="M39.29,183.85A7.27,7.27,0,0,1,42,181.1a7.41,7.41,0,0,1,3.87-1,7.12,7.12,0,0,1,3.78,1,6.8,6.8,0,0,1,2.56,2.82,9.09,9.09,0,0,1,.92,4.15v.85H42.32a3.75,3.75,0,0,0,1.29,2.42,4.25,4.25,0,0,0,2.88,1,6.32,6.32,0,0,0,2.11-.38,4.87,4.87,0,0,0,1.76-1.06L52,193.3a7.06,7.06,0,0,1-2.64,1.49,10.55,10.55,0,0,1-3.33.52,8.27,8.27,0,0,1-4-.94,7,7,0,0,1-2.78-2.68,8.33,8.33,0,0,1,0-7.84Zm4,.23a3.9,3.9,0,0,0-1.05,2.23H49.4a3.7,3.7,0,0,0-1-2.22,3.81,3.81,0,0,0-5.11,0Z" fill="#fff"/><path d="M55.88,183.85a7.27,7.27,0,0,1,2.67-2.75,7.41,7.41,0,0,1,3.87-1,7.12,7.12,0,0,1,3.78,1,6.8,6.8,0,0,1,2.56,2.82,9.09,9.09,0,0,1,.92,4.15v.85H58.91a3.75,3.75,0,0,0,1.29,2.42,4.25,4.25,0,0,0,2.88,1,6.32,6.32,0,0,0,2.11-.38A4.87,4.87,0,0,0,67,190.84l1.68,2.46A7.06,7.06,0,0,1,66,194.79a10.55,10.55,0,0,1-3.33.52,8.27,8.27,0,0,1-4-.94,7,7,0,0,1-2.78-2.68,8.33,8.33,0,0,1,0-7.84Zm4,.23a3.9,3.9,0,0,0-1,2.23H66a3.7,3.7,0,0,0-1-2.22,3.81,3.81,0,0,0-5.11,0Z" fill="#fff"/><path d="M78,189.34l-1.74,1.86v3.72H72.44v-20h3.81v12l5.49-6.45h4.68L80.69,187l5.91,7.92H81.83Z" fill="#fff"/><path d="M87.89,183.85a7.27,7.27,0,0,1,2.67-2.75,7.41,7.41,0,0,1,3.87-1,7.12,7.12,0,0,1,3.78,1,6.8,6.8,0,0,1,2.56,2.82,9.09,9.09,0,0,1,.92,4.15v.85H90.92a3.75,3.75,0,0,0,1.29,2.42,4.25,4.25,0,0,0,2.88,1,6.32,6.32,0,0,0,2.11-.38A4.87,4.87,0,0,0,99,190.84l1.68,2.46A7.06,7.06,0,0,1,98,194.79a10.55,10.55,0,0,1-3.33.52,8.27,8.27,0,0,1-4-.94,7,7,0,0,1-2.78-2.68,8.33,8.33,0,0,1,0-7.84Zm4,.23a3.9,3.9,0,0,0-1,2.23H98a3.7,3.7,0,0,0-1-2.22,3.81,3.81,0,0,0-5.11,0Z" fill="#fff"/><path d="M114.23,186.17a2.7,2.7,0,0,0-.69-2.08,2.84,2.84,0,0,0-2-.63,3.75,3.75,0,0,0-1.91.5,4.55,4.55,0,0,0-1.39,1.21v9.75h-3.81V180.43h3.81v1.89a6.66,6.66,0,0,1,5.07-2.25,4.22,4.22,0,0,1,4.71,4.62v10.23h-3.81Z" fill="#fff"/><path d="M131.78,193.06a5.91,5.91,0,0,1-2,1.67,5.38,5.38,0,0,1-2.47.58,6.19,6.19,0,0,1-3.3-.9,6.06,6.06,0,0,1-2.3-2.61,10.49,10.49,0,0,1,0-8.13A6.22,6.22,0,0,1,124,181a6,6,0,0,1,3.32-.94,5.7,5.7,0,0,1,4.47,2.22v-7.37h3.84v20h-3.84Zm0-7.94a3.56,3.56,0,0,0-1.41-1.19,4.19,4.19,0,0,0-1.89-.47,3.35,3.35,0,0,0-2.64,1.18,5.08,5.08,0,0,0,0,6.11,3.34,3.34,0,0,0,2.64,1.17,4.18,4.18,0,0,0,1.89-.46,3.56,3.56,0,0,0,1.41-1.19Z" fill="#fff"/><path d="M139.65,191.11a2.29,2.29,0,0,1,1.7-.71,2.33,2.33,0,0,1,1.71.71,2.35,2.35,0,0,1,.72,1.71,2.29,2.29,0,0,1-.72,1.68,2.34,2.34,0,0,1-1.71.72,2.42,2.42,0,0,1-2.4-2.4A2.37,2.37,0,0,1,139.65,191.11ZM139,174.92h4.59l-.6,13.5h-3.36Z" fill="#fff"/></g><g id="REC"><rect width="160" height="600" fill="none"/></g></g></svg>