<svg xmlns="http://www.w3.org/2000/svg" viewBox="0 0 160 600"><g id="Layer_2" data-name="Layer 2"><g id="REC"><rect width="160" height="600" fill="none"/></g><g id="sbhd"><path d="M22.16,225.06a6.64,6.64,0,0,1-2.72-.51,5.67,5.67,0,0,1-1.9-1.3l1.12-1.54a5.29,5.29,0,0,0,1.49,1.1,4.38,4.38,0,0,0,2.09.48,3.56,3.56,0,0,0,1.05-.14,2,2,0,0,0,.7-.36,1.45,1.45,0,0,0,.39-.5,1.4,1.4,0,0,0,.13-.57,1,1,0,0,0-.49-.91,4.8,4.8,0,0,0-1.22-.53c-.5-.15-1-.29-1.59-.43a7.29,7.29,0,0,1-1.59-.56,3.39,3.39,0,0,1-1.23-1,2.61,2.61,0,0,1-.48-1.65,2.91,2.91,0,0,1,.3-1.32,3.22,3.22,0,0,1,.83-1.05,4,4,0,0,1,1.3-.71,5.37,5.37,0,0,1,1.7-.25,6.48,6.48,0,0,1,2.39.41,5.43,5.43,0,0,1,1.84,1.18l-1.12,1.48a4.16,4.16,0,0,0-1.54-1,5.07,5.07,0,0,0-1.76-.32,2.24,2.24,0,0,0-1.38.39,1.22,1.22,0,0,0-.52,1,.9.9,0,0,0,.48.82,5.08,5.08,0,0,0,1.23.49q.73.21,1.59.42a7.75,7.75,0,0,1,1.59.59,3.68,3.68,0,0,1,1.22,1,2.77,2.77,0,0,1,.49,1.7,3.64,3.64,0,0,1-.26,1.35A3,3,0,0,1,25.5,224a3.76,3.76,0,0,1-1.37.76A6.06,6.06,0,0,1,22.16,225.06Z" fill="#e32d27"/><path d="M33.87,224.85v-5.17a1.58,1.58,0,0,0-.44-1.31,1.86,1.86,0,0,0-1.21-.35,2.32,2.32,0,0,0-1.25.34,3,3,0,0,0-.85.74v5.75H28.33V213.51h1.79v4.24a3.3,3.3,0,0,1,.5-.48,4.41,4.41,0,0,1,.66-.43,3.78,3.78,0,0,1,.8-.29,3.49,3.49,0,0,1,.93-.11,2.69,2.69,0,0,1,2,.66,2.6,2.6,0,0,1,.67,1.94v5.81Z" fill="#e32d27"/><path d="M41.69,225.06a4.4,4.4,0,0,1-1.77-.35,4.11,4.11,0,0,1-1.32-.94,4.06,4.06,0,0,1-.83-1.37,4.57,4.57,0,0,1-.29-1.66,4.62,4.62,0,0,1,.29-1.67,4.06,4.06,0,0,1,.83-1.37,3.78,3.78,0,0,1,1.32-.92,4.4,4.4,0,0,1,1.77-.34,4.33,4.33,0,0,1,1.77.34,3.91,3.91,0,0,1,1.33.92,4.06,4.06,0,0,1,.83,1.37,4.84,4.84,0,0,1,.29,1.67,4.79,4.79,0,0,1-.29,1.66,4.06,4.06,0,0,1-.83,1.37,4.27,4.27,0,0,1-1.33.94A4.33,4.33,0,0,1,41.69,225.06Zm0-1.59a2.19,2.19,0,0,0,1-.22,2,2,0,0,0,.74-.59,2.53,2.53,0,0,0,.45-.88,3.59,3.59,0,0,0,.16-1,3.54,3.54,0,0,0-.16-1,2.57,2.57,0,0,0-.45-.87,2.15,2.15,0,0,0-.74-.59,2.19,2.19,0,0,0-1-.22,2.16,2.16,0,0,0-1,.22,2.29,2.29,0,0,0-.75.59,2.59,2.59,0,0,0-.46.87,3.53,3.53,0,0,0-.15,1,3.58,3.58,0,0,0,.15,1,2.54,2.54,0,0,0,.46.88,2.22,2.22,0,0,0,1.75.81Z" fill="#e32d27"/><path d="M52.15,225.06a3.18,3.18,0,0,1-1.46-.35,3.84,3.84,0,0,1-1.18-1V228H47.73V216.64h1.78v1.12a3.43,3.43,0,0,1,1.14-1,3.25,3.25,0,0,1,1.5-.35,3.49,3.49,0,0,1,1.46.29,3.25,3.25,0,0,1,1.15.84,4,4,0,0,1,.75,1.35,6.06,6.06,0,0,1,0,3.64,4,4,0,0,1-.75,1.35,3.41,3.41,0,0,1-1.15.85A3.5,3.5,0,0,1,52.15,225.06Zm-.53-1.59a2.09,2.09,0,0,0,1.7-.76,3.4,3.4,0,0,0,0-3.94,2.11,2.11,0,0,0-1.7-.75,2.57,2.57,0,0,0-1.22.31,2.51,2.51,0,0,0-.89.77v3.25a1.79,1.79,0,0,0,.39.44,2.54,2.54,0,0,0,.5.36,3.13,3.13,0,0,0,.6.24A2.25,2.25,0,0,0,51.62,223.47Z" fill="#e32d27"/><path d="M62,224.85V213.51h1.78v4.27a3.24,3.24,0,0,1,2.64-1.34,3.74,3.74,0,0,1,1.47.29,3.34,3.34,0,0,1,1.15.86,4,4,0,0,1,.76,1.36,5.56,5.56,0,0,1,.27,1.79,5.71,5.71,0,0,1-.27,1.82,4,4,0,0,1-.77,1.36,3.26,3.26,0,0,1-1.16.85,3.68,3.68,0,0,1-1.45.29,3.09,3.09,0,0,1-1.48-.36,3.5,3.5,0,0,1-1.16-1v1.12Zm1.78-2.46a2.43,2.43,0,0,0,.89.77,2.59,2.59,0,0,0,1.24.31,2.07,2.07,0,0,0,1.69-.76,3.05,3.05,0,0,0,.62-2,3.84,3.84,0,0,0-.16-1.1,2.64,2.64,0,0,0-.47-.86,2.34,2.34,0,0,0-.73-.56,2.13,2.13,0,0,0-.95-.2,2.49,2.49,0,0,0-1.24.32,2.54,2.54,0,0,0-.89.78Z" fill="#e32d27"/><path d="M72.73,215.64a1.11,1.11,0,0,1-1.1-1.11,1.11,1.11,0,1,1,2.21,0,1.11,1.11,0,0,1-1.11,1.11Zm-.9,9.21v-8.21h1.79v8.21Z" fill="#e32d27"/><path d="M79.28,228.18a6,6,0,0,1-1.87-.26,4.42,4.42,0,0,1-1.58-1l.83-1.29a2.92,2.92,0,0,0,1.16.81,4.14,4.14,0,0,0,1.46.24,3.64,3.64,0,0,0,.87-.11,2.14,2.14,0,0,0,.79-.38,2,2,0,0,0,.56-.71,2.49,2.49,0,0,0,.21-1.09v-.94a3.54,3.54,0,0,1-1.15,1,3,3,0,0,1-1.49.38,3.86,3.86,0,0,1-1.45-.28,3.15,3.15,0,0,1-1.15-.82,3.64,3.64,0,0,1-.76-1.32,5.5,5.5,0,0,1-.27-1.8,5.41,5.41,0,0,1,.27-1.78,3.77,3.77,0,0,1,.76-1.33,3.08,3.08,0,0,1,1.14-.82,3.65,3.65,0,0,1,1.46-.28,3.21,3.21,0,0,1,1.47.34,3.26,3.26,0,0,1,1.17,1v-1.14H83.5v7.79a4,4,0,0,1-.38,1.83,3.1,3.1,0,0,1-1,1.16,3.7,3.7,0,0,1-1.36.59A6.39,6.39,0,0,1,79.28,228.18Zm.32-4.91a2.56,2.56,0,0,0,1.22-.32,2.52,2.52,0,0,0,.89-.77V219.1a2.61,2.61,0,0,0-.89-.76A2.45,2.45,0,0,0,79.6,218a2.15,2.15,0,0,0-1.7.72,3.21,3.21,0,0,0,0,3.82A2.17,2.17,0,0,0,79.6,223.27Z" fill="#e32d27"/><path d="M24,243.85v-1.12a3.57,3.57,0,0,1-1.15,1,3.13,3.13,0,0,1-1.49.36,3.64,3.64,0,0,1-1.45-.29,3.26,3.26,0,0,1-1.16-.85,4.37,4.37,0,0,1-.76-1.36,5.71,5.71,0,0,1-.27-1.82A5.56,5.56,0,0,1,18,238a4.37,4.37,0,0,1,.76-1.36,3.34,3.34,0,0,1,1.15-.86,3.66,3.66,0,0,1,1.46-.29,3.17,3.17,0,0,1,1.46.34,3.21,3.21,0,0,1,1.18,1v-4.27h1.78v11.34Zm-2.11-1.38a2.25,2.25,0,0,0,.62-.08,2.81,2.81,0,0,0,.59-.24,2.7,2.7,0,0,0,.51-.35,2,2,0,0,0,.39-.43v-3.25a2.53,2.53,0,0,0-.39-.42,2.34,2.34,0,0,0-.51-.36,2.81,2.81,0,0,0-.59-.24,2.7,2.7,0,0,0-.62-.08,2.13,2.13,0,0,0-1,.2,2.23,2.23,0,0,0-.73.56,2.47,2.47,0,0,0-.47.86,3.52,3.52,0,0,0-.16,1.1,3.46,3.46,0,0,0,.16,1.09,2.43,2.43,0,0,0,.47.87,2.26,2.26,0,0,0,.73.57A2.13,2.13,0,0,0,21.89,242.47Z" fill="#e32d27"/><path d="M29,234.64a1.11,1.11,0,0,1-1.1-1.11,1.11,1.11,0,1,1,2.21,0A1.11,1.11,0,0,1,29,234.64Zm-.9,9.21v-8.21h1.79v8.21Z" fill="#e32d27"/><path d="M35,244.06a5.7,5.7,0,0,1-2-.34,4.32,4.32,0,0,1-1.55-1l.82-1.27a2.89,2.89,0,0,0,.53.42,4,4,0,0,0,.68.37,3.85,3.85,0,0,0,.77.25,3.11,3.11,0,0,0,.79.1,2.05,2.05,0,0,0,1.22-.3.91.91,0,0,0,.41-.79.65.65,0,0,0-.36-.61,3.62,3.62,0,0,0-.92-.34l-1.2-.28a5.13,5.13,0,0,1-1.2-.4,2.76,2.76,0,0,1-.92-.73,2,2,0,0,1-.36-1.26,2.23,2.23,0,0,1,.83-1.75,3,3,0,0,1,1-.54,4.54,4.54,0,0,1,1.39-.19,4.73,4.73,0,0,1,1.84.32,4.46,4.46,0,0,1,1.34.82l-.75,1.25a3.1,3.1,0,0,0-1-.69,3.31,3.31,0,0,0-1.42-.29,1.84,1.84,0,0,0-1.12.29.87.87,0,0,0-.4.73.6.6,0,0,0,.37.54,3.92,3.92,0,0,0,.92.32L36,239a5.16,5.16,0,0,1,1.2.42,2.6,2.6,0,0,1,.91.77,2.05,2.05,0,0,1,.37,1.3,2.53,2.53,0,0,1-.22,1,2.15,2.15,0,0,1-.66.81,3.16,3.16,0,0,1-1.07.54A5,5,0,0,1,35,244.06Z" fill="#e32d27"/><path d="M44,244.06a4.26,4.26,0,0,1-1.7-.33,3.77,3.77,0,0,1-1.34-.9,4,4,0,0,1-.87-1.37A4.78,4.78,0,0,1,40,238a4.11,4.11,0,0,1,.87-1.36,3.77,3.77,0,0,1,1.34-.9,4.26,4.26,0,0,1,1.7-.32,4.57,4.57,0,0,1,1.1.12,3.33,3.33,0,0,1,.87.32,3,3,0,0,1,.67.47,4.38,4.38,0,0,1,.51.55L45.93,238A2.19,2.19,0,0,0,44,237a2.3,2.3,0,0,0-1.8.75,2.81,2.81,0,0,0-.68,2,3.2,3.2,0,0,0,.18,1.09,2.23,2.23,0,0,0,.51.87,2.46,2.46,0,0,0,.78.57,2.34,2.34,0,0,0,1,.2,2.2,2.2,0,0,0,1.89-1l1.17,1.1a4,4,0,0,1-1.19,1A3.77,3.77,0,0,1,44,244.06Z" fill="#e32d27"/><path d="M52.4,244.06a4.4,4.4,0,0,1-1.77-.35,4.11,4.11,0,0,1-1.32-.94,4.06,4.06,0,0,1-.83-1.37,4.57,4.57,0,0,1-.29-1.66,4.62,4.62,0,0,1,.29-1.67,4.06,4.06,0,0,1,.83-1.37,3.78,3.78,0,0,1,1.32-.92,4.4,4.4,0,0,1,1.77-.34,4.33,4.33,0,0,1,1.77.34,3.91,3.91,0,0,1,1.33.92,4.06,4.06,0,0,1,.83,1.37,4.84,4.84,0,0,1,.29,1.67,4.79,4.79,0,0,1-.29,1.66,4.06,4.06,0,0,1-.83,1.37,4.27,4.27,0,0,1-1.33.94A4.33,4.33,0,0,1,52.4,244.06Zm0-1.59a2.19,2.19,0,0,0,1-.22,2,2,0,0,0,.74-.59,2.53,2.53,0,0,0,.45-.88,3.59,3.59,0,0,0,.16-1,3.54,3.54,0,0,0-.16-1,2.57,2.57,0,0,0-.45-.87,2.15,2.15,0,0,0-.74-.59,2.19,2.19,0,0,0-1-.22,2.16,2.16,0,0,0-1,.22,2.29,2.29,0,0,0-.75.59,2.59,2.59,0,0,0-.46.87,3.53,3.53,0,0,0-.15,1,3.58,3.58,0,0,0,.15,1,2.54,2.54,0,0,0,.46.88,2.22,2.22,0,0,0,1.75.81Z" fill="#e32d27"/><path d="M64,243.85v-1.09a4.52,4.52,0,0,1-1.18.9,3.63,3.63,0,0,1-1.71.4,2.68,2.68,0,0,1-2-.68,2.63,2.63,0,0,1-.66-1.93v-5.81h1.78v5.15a1.61,1.61,0,0,0,.45,1.32,1.91,1.91,0,0,0,1.22.36,2.36,2.36,0,0,0,1.23-.33,2.76,2.76,0,0,0,.86-.74v-5.76h1.78v8.21Z" fill="#e32d27"/><path d="M73.63,243.85v-5.13a1.66,1.66,0,0,0-.45-1.34A1.88,1.88,0,0,0,72,237a2.26,2.26,0,0,0-1.23.34,3.28,3.28,0,0,0-.88.74v5.75H68.08v-8.21h1.78v1.11a3.85,3.85,0,0,1,.5-.48,3.66,3.66,0,0,1,1.48-.72,3.49,3.49,0,0,1,.93-.11,2.36,2.36,0,0,1,2.65,2.63v5.78Z" fill="#e32d27"/><path d="M80.21,244.06a2.12,2.12,0,0,1-1.58-.55,2.18,2.18,0,0,1-.52-1.58v-4.74H76.75v-1.55h1.36V233.4h1.78v2.24h1.67v1.55H79.89v4.3a1.18,1.18,0,0,0,.2.7.65.65,0,0,0,.58.28,1.19,1.19,0,0,0,.47-.09.89.89,0,0,0,.32-.21l.42,1.36a1.82,1.82,0,0,1-.65.37A3,3,0,0,1,80.21,244.06Z" fill="#e32d27"/><path d="M86,244.06a5.75,5.75,0,0,1-2-.34,4.28,4.28,0,0,1-1.54-1l.81-1.27a3.27,3.27,0,0,0,.53.42,4,4,0,0,0,.68.37,4.32,4.32,0,0,0,.77.25,3.11,3.11,0,0,0,.79.1,2.06,2.06,0,0,0,1.23-.3.94.94,0,0,0,.41-.79.66.66,0,0,0-.37-.61,3.48,3.48,0,0,0-.92-.34l-1.2-.28a4.9,4.9,0,0,1-1.19-.4,2.66,2.66,0,0,1-.92-.73,2,2,0,0,1-.37-1.26,2.24,2.24,0,0,1,.21-1,2.27,2.27,0,0,1,.63-.79,3,3,0,0,1,1-.54,4.47,4.47,0,0,1,1.38-.19,4.78,4.78,0,0,1,1.85.32,4.4,4.4,0,0,1,1.33.82l-.75,1.25a3,3,0,0,0-1-.69,3.28,3.28,0,0,0-1.42-.29,1.83,1.83,0,0,0-1.11.29.85.85,0,0,0-.4.73.59.59,0,0,0,.36.54,4.09,4.09,0,0,0,.92.32l1.2.27a5.16,5.16,0,0,1,1.2.42,2.64,2.64,0,0,1,.92.77,2.11,2.11,0,0,1,.36,1.3,2.37,2.37,0,0,1-.22,1,2,2,0,0,1-.65.81,3.26,3.26,0,0,1-1.07.54A5.07,5.07,0,0,1,86,244.06Z" fill="#e32d27"/><path d="M26.17,262.85l-5.91-8.11v8.11h-2V251.51h2l5.79,7.86v-7.86h2v11.34Z" fill="#e32d27"/><path d="M34.18,263.06a4.33,4.33,0,0,1-1.77-.35,4.27,4.27,0,0,1-1.33-.94,4.06,4.06,0,0,1-.83-1.37,4.79,4.79,0,0,1-.29-1.66,4.84,4.84,0,0,1,.29-1.67,4.06,4.06,0,0,1,.83-1.37,3.91,3.91,0,0,1,1.33-.92,4.78,4.78,0,0,1,3.54,0,3.78,3.78,0,0,1,1.32.92,4.25,4.25,0,0,1,.84,1.37,4.84,4.84,0,0,1,.28,1.67,4.78,4.78,0,0,1-.28,1.66,4.25,4.25,0,0,1-.84,1.37,4.11,4.11,0,0,1-1.32.94A4.37,4.37,0,0,1,34.18,263.06Zm0-1.59a2.25,2.25,0,0,0,1-.22,2.13,2.13,0,0,0,.74-.59,2.53,2.53,0,0,0,.45-.88,3.58,3.58,0,0,0,.15-1,3.53,3.53,0,0,0-.15-1,2.57,2.57,0,0,0-.45-.87,2.18,2.18,0,0,0-1.76-.81,2.14,2.14,0,0,0-1,.22,2.19,2.19,0,0,0-.75.59,2.42,2.42,0,0,0-.46.87,3.53,3.53,0,0,0-.15,1,3.58,3.58,0,0,0,.15,1,2.39,2.39,0,0,0,.46.88,2.07,2.07,0,0,0,.75.59A2.14,2.14,0,0,0,34.18,261.47Z" fill="#e32d27"/><path d="M42.37,262.85,39,254.64h1.92l2.4,6.15,2.4-6.15h1.9l-3.35,8.21Z" fill="#e32d27"/><path d="M54.05,262.85l4.28-9.57H52.45v-1.77h8.18v1.38l-4.39,10Z" fill="#e32d27"/><path d="M61.55,259.5V258h4.08v1.53Z" fill="#e32d27"/><path d="M71.2,263.06a6.32,6.32,0,0,1-1.65-.21,4.8,4.8,0,0,1-1.4-.59,3,3,0,0,1-1-1,2.61,2.61,0,0,1-.35-1.35,2.42,2.42,0,0,1,.21-1,2.73,2.73,0,0,1,.55-.83,4.05,4.05,0,0,1,.81-.65,6.18,6.18,0,0,1,1-.45,4.89,4.89,0,0,1-.91-.39,3.09,3.09,0,0,1-.75-.57,2.38,2.38,0,0,1-.51-.75,2.33,2.33,0,0,1-.19-1A2.47,2.47,0,0,1,67.4,253a3,3,0,0,1,1-.93,4.75,4.75,0,0,1,1.35-.53,6.88,6.88,0,0,1,1.49-.17,7,7,0,0,1,1.5.17A4.58,4.58,0,0,1,74,252a2.85,2.85,0,0,1,1,.93,2.4,2.4,0,0,1,.37,1.35,2.33,2.33,0,0,1-.19,1,2.38,2.38,0,0,1-.51.75,3.15,3.15,0,0,1-.76.57,4.8,4.8,0,0,1-.9.39,5.7,5.7,0,0,1,1,.45,4.12,4.12,0,0,1,.82.65,2.73,2.73,0,0,1,.55.83,2.42,2.42,0,0,1,.21,1,2.52,2.52,0,0,1-.36,1.35,3.17,3.17,0,0,1-1,1,4.74,4.74,0,0,1-1.39.59A6.45,6.45,0,0,1,71.2,263.06Zm0-1.77a3.7,3.7,0,0,0,.9-.11,2.61,2.61,0,0,0,.74-.33,1.77,1.77,0,0,0,.51-.51,1.24,1.24,0,0,0,.18-.67,1.16,1.16,0,0,0-.26-.75,2.59,2.59,0,0,0-.64-.54,3.48,3.48,0,0,0-.77-.34,4.14,4.14,0,0,0-.66-.15,4,4,0,0,0-.67.15,3.22,3.22,0,0,0-.76.34,2.37,2.37,0,0,0-.63.54,1.11,1.11,0,0,0-.27.75,1.24,1.24,0,0,0,.18.67,1.62,1.62,0,0,0,.5.51,2.61,2.61,0,0,0,.74.33A3.72,3.72,0,0,0,71.2,261.29Zm0-5.09q.26,0,.63-.15a2.94,2.94,0,0,0,.71-.29,2,2,0,0,0,.57-.47,1,1,0,0,0,.24-.67,1.26,1.26,0,0,0-.62-1.12,2.76,2.76,0,0,0-1.53-.39,2.8,2.8,0,0,0-1.53.39,1.27,1.27,0,0,0-.61,1.12,1,1,0,0,0,.24.67,1.91,1.91,0,0,0,.58.47,3,3,0,0,0,.7.29C70.83,256.12,71,256.17,71.2,256.2Z" fill="#e32d27"/></g></g></svg>