<svg xmlns="http://www.w3.org/2000/svg" viewBox="0 0 160 600"><g id="Layer_2" data-name="Layer 2"><g id="REC"><rect width="160" height="600" fill="none"/></g><g id="CTA"><path id="bg" d="M116.32,305.56H22.72a11.17,11.17,0,0,1-11.34-11v-1.14a11.17,11.17,0,0,1,11.34-11h93.6a11.17,11.17,0,0,1,11.34,11v1.14a11.17,11.17,0,0,1-11.34,11" fill="#e32d27"/><g id="txt"><path d="M28.17,295.65a3.89,3.89,0,0,0,1.25.87,3.75,3.75,0,0,0,1.61.34,2.18,2.18,0,0,0,1.37-.36,1.07,1.07,0,0,0,.46-.84.78.78,0,0,0-.27-.61,1.89,1.89,0,0,0-.67-.38c-.27-.09-.65-.2-1.13-.32a14,14,0,0,1-1.66-.49,3,3,0,0,1-1.1-.77,2,2,0,0,1-.46-1.38,2.27,2.27,0,0,1,.41-1.32,2.79,2.79,0,0,1,1.17-.92,4.09,4.09,0,0,1,1.72-.34,4.75,4.75,0,0,1,3.4,1.23l-.91,1.14a3.57,3.57,0,0,0-1.2-.75,4.09,4.09,0,0,0-1.42-.25,1.89,1.89,0,0,0-1.13.3,1,1,0,0,0-.41.8.67.67,0,0,0,.26.53,2,2,0,0,0,.64.34c.26.09.63.19,1.1.31a14.61,14.61,0,0,1,1.68.51,3,3,0,0,1,1.12.8,2,2,0,0,1,.47,1.42,2.52,2.52,0,0,1-.38,1.38,2.56,2.56,0,0,1-1.17,1,4.65,4.65,0,0,1-2,.36,5.59,5.59,0,0,1-2.13-.37,4.43,4.43,0,0,1-1.56-1Z" fill="#fff"/><path d="M35.92,293.2A3.21,3.21,0,0,1,37.11,292a3.31,3.31,0,0,1,1.71-.45,3.17,3.17,0,0,1,1.7.45,3.07,3.07,0,0,1,1.14,1.23,4,4,0,0,1,.4,1.78v.33H37a1.84,1.84,0,0,0,.64,1.26,2.05,2.05,0,0,0,1.45.51,2.78,2.78,0,0,0,1-.19,2.25,2.25,0,0,0,.85-.51l.65.91a3.27,3.27,0,0,1-1.18.68,4.46,4.46,0,0,1-1.48.24,3.66,3.66,0,0,1-1.76-.42,3,3,0,0,1-1.23-1.18,3.38,3.38,0,0,1-.45-1.75A3.28,3.28,0,0,1,35.92,293.2Zm1.58,0a2,2,0,0,0-.53,1.18h3.7a1.82,1.82,0,0,0-.22-.8,1.62,1.62,0,0,0-.61-.64,2,2,0,0,0-1-.25A1.73,1.73,0,0,0,37.5,293.18Z" fill="#fff"/><path d="M43.49,293.2A3.21,3.21,0,0,1,44.68,292a3.31,3.31,0,0,1,1.71-.45,3.17,3.17,0,0,1,1.7.45,3.07,3.07,0,0,1,1.14,1.23,4,4,0,0,1,.4,1.78v.33H44.56a1.84,1.84,0,0,0,.64,1.26,2.05,2.05,0,0,0,1.45.51,2.78,2.78,0,0,0,1-.19,2.25,2.25,0,0,0,.85-.51l.66.91A3.4,3.4,0,0,1,48,298a4.46,4.46,0,0,1-1.48.24,3.66,3.66,0,0,1-1.76-.42,3,3,0,0,1-1.23-1.18,3.56,3.56,0,0,1,0-3.43Zm1.58,0a2,2,0,0,0-.53,1.18h3.7a1.82,1.82,0,0,0-.22-.8,1.62,1.62,0,0,0-.61-.64,2,2,0,0,0-1-.25A1.73,1.73,0,0,0,45.07,293.18Z" fill="#fff"/><path d="M55.25,297.81a1.62,1.62,0,0,1-.43-1.22v-3.68H53.73V291.7h1.09V290h1.43v1.74h1.33v1.21H56.25v3.34a.86.86,0,0,0,.16.55.55.55,0,0,0,.46.21,1.16,1.16,0,0,0,.37-.07.57.57,0,0,0,.27-.16l.34,1a2,2,0,0,1-1.35.41A1.7,1.7,0,0,1,55.25,297.81Z" fill="#fff"/><path d="M63.31,294.06a1.26,1.26,0,0,0-.34-1,1.46,1.46,0,0,0-1-.29A1.9,1.9,0,0,0,61,293a2.42,2.42,0,0,0-.73.6v4.44H58.87v-8.78H60.3v3.29a3.18,3.18,0,0,1,1-.73,3,3,0,0,1,1.34-.3,2.15,2.15,0,0,1,1.58.52,2,2,0,0,1,.54,1.5v4.5H63.31Z" fill="#fff"/><path d="M66.61,293.2A3.14,3.14,0,0,1,67.8,292a3.31,3.31,0,0,1,1.71-.45,3.2,3.2,0,0,1,1.7.45,3,3,0,0,1,1.13,1.23,3.83,3.83,0,0,1,.41,1.78v.33H67.68a1.87,1.87,0,0,0,.63,1.26,2.1,2.1,0,0,0,1.46.51,2.82,2.82,0,0,0,1-.19,2.33,2.33,0,0,0,.85-.51l.65.91a3.27,3.27,0,0,1-1.18.68,4.5,4.5,0,0,1-1.48.24,3.66,3.66,0,0,1-1.76-.42,3,3,0,0,1-1.23-1.18,3.38,3.38,0,0,1-.45-1.75A3.28,3.28,0,0,1,66.61,293.2Zm1.58,0a2,2,0,0,0-.53,1.18h3.7a1.82,1.82,0,0,0-.22-.8,1.62,1.62,0,0,0-.61-.64,2,2,0,0,0-1-.25A1.73,1.73,0,0,0,68.19,293.18Z" fill="#fff"/><path d="M77.69,289.28h3.37a5.21,5.21,0,0,1,2.48.56,4.12,4.12,0,0,1,1.67,1.56,4.61,4.61,0,0,1,0,4.55,4.17,4.17,0,0,1-1.67,1.55,5.33,5.33,0,0,1-2.48.56H77.69Zm3.37,7.42a3.27,3.27,0,0,0,1.66-.4,2.76,2.76,0,0,0,1.08-1.09,3.17,3.17,0,0,0,.38-1.54,3.27,3.27,0,0,0-.36-1.54,2.7,2.7,0,0,0-1.07-1.1,3.43,3.43,0,0,0-1.69-.4H79.28v6.07Z" fill="#fff"/><path d="M87.32,293.2A3.21,3.21,0,0,1,88.51,292a3.31,3.31,0,0,1,1.71-.45,3.17,3.17,0,0,1,1.7.45,3.07,3.07,0,0,1,1.14,1.23,3.82,3.82,0,0,1,.4,1.78v.33H88.39a1.88,1.88,0,0,0,.64,1.26,2.05,2.05,0,0,0,1.45.51,2.83,2.83,0,0,0,1-.19,2.2,2.2,0,0,0,.84-.51l.66.91a3.31,3.31,0,0,1-1.19.68,4.46,4.46,0,0,1-1.48.24,3.66,3.66,0,0,1-1.76-.42,3,3,0,0,1-1.23-1.18,3.56,3.56,0,0,1,0-3.43Zm1.59,0a1.86,1.86,0,0,0-.53,1.18h3.69a1.94,1.94,0,0,0-.21-.8,1.65,1.65,0,0,0-.62-.64,2,2,0,0,0-1-.25A1.69,1.69,0,0,0,88.91,293.18Z" fill="#fff"/><path d="M99.49,297.19a2.64,2.64,0,0,1-.93.76,2.49,2.49,0,0,1-1.17.28,2.82,2.82,0,0,1-1.51-.4,2.73,2.73,0,0,1-1-1.16,4.34,4.34,0,0,1,0-3.55,2.7,2.7,0,0,1,1-1.17,2.82,2.82,0,0,1,1.51-.41,2.7,2.7,0,0,1,1.17.27,2.57,2.57,0,0,1,.93.77v-.88h1.43v6.36H99.49Zm0-3.55a1.85,1.85,0,0,0-.72-.62,2.12,2.12,0,0,0-1-.24,1.67,1.67,0,0,0-1.34.59,2.58,2.58,0,0,0,0,3.05,1.67,1.67,0,0,0,1.34.59,2.12,2.12,0,0,0,1-.24,1.75,1.75,0,0,0,.72-.61Z" fill="#fff"/><path d="M103.2,297.81a1.61,1.61,0,0,1-.43-1.21v-7.32h1.43v7a.86.86,0,0,0,.16.55.55.55,0,0,0,.46.21,1.16,1.16,0,0,0,.37-.07.64.64,0,0,0,.26-.16l.34,1a2,2,0,0,1-1.34.41A1.7,1.7,0,0,1,103.2,297.81Z" fill="#fff"/><path d="M106.72,296.24a3,3,0,0,0,1,.63,3.07,3.07,0,0,0,1.23.27,1.8,1.8,0,0,0,1-.21.65.65,0,0,0,.33-.58.6.6,0,0,0-.38-.57,4.41,4.41,0,0,0-1.11-.35,9.71,9.71,0,0,1-1.27-.34,2.06,2.06,0,0,1-.85-.57,1.46,1.46,0,0,1-.35-1,1.68,1.68,0,0,1,.3-1,2.11,2.11,0,0,1,.89-.7,3.28,3.28,0,0,1,1.39-.27,3.77,3.77,0,0,1,2.55.9l-.6,1a2.15,2.15,0,0,0-.82-.55,3,3,0,0,0-1.12-.21,1.77,1.77,0,0,0-.9.19.59.59,0,0,0-.32.52.55.55,0,0,0,.35.5,5.69,5.69,0,0,0,1.08.33,8.36,8.36,0,0,1,1.29.35,2.23,2.23,0,0,1,.88.6,1.62,1.62,0,0,1,.37,1.11,1.71,1.71,0,0,1-.72,1.42,3.24,3.24,0,0,1-2,.56,4.74,4.74,0,0,1-1.57-.26,3.4,3.4,0,0,1-1.24-.73Z" fill="#fff"/></g></g></g></svg>