<svg xmlns="http://www.w3.org/2000/svg" xmlns:xlink="http://www.w3.org/1999/xlink" viewBox="0 0 160 600"><defs><clipPath id="clip-path" transform="translate(-5.17)"><rect id="SVGID" y="287.78" width="150.63" height="116.39" fill="none"/></clipPath></defs><g id="Layer_2" data-name="Layer 2"><g id="content"><rect width="160" height="600"/><path d="M6.67,600c-.07-4.93,0-7,0-10.76.67-48.09,35.12-80.7,78.44-80.7s78.6,36.13,78.6,80.7c0,3.65-.08,6.83,0,10.76" transform="translate(-5.17)" fill="#e52823"/><path d="M21.45,24.92H32a6.53,6.53,0,0,1,3.14.7,4.83,4.83,0,0,1,2,1.86A5,5,0,0,1,37.74,30a4.72,4.72,0,0,1-1,3.06,4.06,4.06,0,0,1-2.46,1.53A4.22,4.22,0,0,1,37,36.25a5.18,5.18,0,0,1,1.11,3.27A5.27,5.27,0,0,1,36.6,43.4a5.8,5.8,0,0,1-4.29,1.52H21.45Zm9.6,8a2.34,2.34,0,0,0,1.71-.61,2.14,2.14,0,0,0,.63-1.61,2.1,2.1,0,0,0-.64-1.56,2.33,2.33,0,0,0-1.7-.63H25.71V33Zm.15,8.34a2.66,2.66,0,0,0,1.89-.64,2.43,2.43,0,0,0,0-3.39,2.59,2.59,0,0,0-1.89-.68H25.71v4.71Z" transform="translate(-5.17)" fill="#fff"/><path d="M42.29,44.31a4,4,0,0,1-1-3V24.92h3.81V40.33a1.77,1.77,0,0,0,.36,1.14,1.17,1.17,0,0,0,1,.45,2.45,2.45,0,0,0,.78-.12,1,1,0,0,0,.51-.3l.81,2.88a4.63,4.63,0,0,1-3.15.93A4.19,4.19,0,0,1,42.29,44.31Z" transform="translate(-5.17)" fill="#fff"/><path d="M60.15,43.06a5.87,5.87,0,0,1-2,1.67,5.42,5.42,0,0,1-2.48.58,6.19,6.19,0,0,1-3.3-.9,6,6,0,0,1-2.29-2.61,9.35,9.35,0,0,1-.83-4.09,9.28,9.28,0,0,1,.83-4A6.22,6.22,0,0,1,52.37,31a6,6,0,0,1,3.31-.94,5.7,5.7,0,0,1,4.47,2.22V30.43H64V44.92H60.15Zm0-7.91A3.56,3.56,0,0,0,58.74,34a4.19,4.19,0,0,0-1.89-.47,3.36,3.36,0,0,0-2.64,1.16,4.49,4.49,0,0,0-1,3.06,4.47,4.47,0,0,0,1,3,3.34,3.34,0,0,0,2.64,1.17,4.18,4.18,0,0,0,1.89-.46,3.56,3.56,0,0,0,1.41-1.19Z" transform="translate(-5.17)" fill="#fff"/><path d="M67.83,33.76a7,7,0,0,1,2.73-2.71,8,8,0,0,1,4-1,7.58,7.58,0,0,1,3.48.74,6.07,6.07,0,0,1,2.25,1.87L77.76,35a3.48,3.48,0,0,0-3.06-1.56,3.72,3.72,0,0,0-2.83,1.16,4.82,4.82,0,0,0,0,6.13,4,4,0,0,0,4.57.77,3.75,3.75,0,0,0,1.32-1.16l2.49,2.31A6.13,6.13,0,0,1,78,44.56a7.45,7.45,0,0,1-3.5.75,8,8,0,0,1-4-1,7,7,0,0,1-2.73-2.71,8.32,8.32,0,0,1,0-7.87Z" transform="translate(-5.17)" fill="#fff"/><path d="M88.29,39.34,86.55,41.2v3.72H82.74v-20h3.81v12L92,30.43h4.68L91,37l5.91,7.92H92.13Z" transform="translate(-5.17)" fill="#fff"/><path d="M21.45,54.92H35.61v3.65h-9.9v4.35H35.4v3.66H25.71v8.34H21.45Z" transform="translate(-5.17)" fill="#fff"/><path d="M38.49,60.43H42.3v2a6.28,6.28,0,0,1,2-1.67,5.41,5.41,0,0,1,2.58-.68v3.72a5.54,5.54,0,0,0-1.05-.12,5.06,5.06,0,0,0-2,.49,3.41,3.41,0,0,0-1.53,1.17v9.59H38.49Z" transform="translate(-5.17)" fill="#fff"/><path d="M49.58,57.63a2.29,2.29,0,0,1,1.6-3.89,2.24,2.24,0,0,1,1.62.66,2.31,2.31,0,0,1,0,3.23,2.27,2.27,0,0,1-3.22,0Zm-.29,2.8H53.1V74.92H49.29Z" transform="translate(-5.17)" fill="#fff"/><path d="M66.84,73.06a5.87,5.87,0,0,1-2,1.67,5.42,5.42,0,0,1-2.48.58,6.19,6.19,0,0,1-3.3-.9,6,6,0,0,1-2.29-2.61,10.37,10.37,0,0,1,0-8.13A6.22,6.22,0,0,1,59.06,61a6,6,0,0,1,3.31-.94,5.7,5.7,0,0,1,4.47,2.22V54.92h3.84v20H66.84Zm0-7.94a3.56,3.56,0,0,0-1.41-1.19,4.19,4.19,0,0,0-1.89-.47,3.35,3.35,0,0,0-2.64,1.18,5.08,5.08,0,0,0,0,6.11,3.34,3.34,0,0,0,2.64,1.17,4.18,4.18,0,0,0,1.89-.46,3.56,3.56,0,0,0,1.41-1.19Z" transform="translate(-5.17)" fill="#fff"/><path d="M84.42,73.06a5.87,5.87,0,0,1-2,1.67,5.42,5.42,0,0,1-2.48.58,6.19,6.19,0,0,1-3.3-.9,6,6,0,0,1-2.29-2.61,10.37,10.37,0,0,1,0-8.13A6.22,6.22,0,0,1,76.64,61,6,6,0,0,1,80,60.07a5.7,5.7,0,0,1,4.47,2.22V60.43h3.84V74.92H84.42Zm0-7.91A3.56,3.56,0,0,0,83,64a4.19,4.19,0,0,0-1.89-.47,3.36,3.36,0,0,0-2.64,1.16,5.07,5.07,0,0,0,0,6.1,3.34,3.34,0,0,0,2.64,1.17A4.18,4.18,0,0,0,83,71.46a3.56,3.56,0,0,0,1.41-1.19Z" transform="translate(-5.17)" fill="#fff"/><path d="M93.57,75.88a4.59,4.59,0,0,0,1.92,1.35,6.71,6.71,0,0,0,2.43.45,4,4,0,0,0,2.88-1,3.59,3.59,0,0,0,1-2.76v-1.5A6.85,6.85,0,0,1,99.68,74a6.73,6.73,0,0,1-3,.63,4.69,4.69,0,0,1-3.51-1.2A4.59,4.59,0,0,1,92,70.09V60.43h3.81v8.16a2.65,2.65,0,0,0,.69,2.06,2.88,2.88,0,0,0,2,.61,3.85,3.85,0,0,0,1.89-.48,4.29,4.29,0,0,0,1.41-1.17V60.43h3.81V73.78A6.56,6.56,0,0,1,103.55,79a8.19,8.19,0,0,1-5.63,1.84,8.9,8.9,0,0,1-6.06-2.15Z" transform="translate(-5.17)" fill="#fff"/><path d="M31.32,103.06a5.87,5.87,0,0,1-2,1.67,5.42,5.42,0,0,1-2.48.58,6.19,6.19,0,0,1-3.3-.9,6,6,0,0,1-2.29-2.61,10.37,10.37,0,0,1,0-8.13A6.22,6.22,0,0,1,23.54,91a6,6,0,0,1,3.31-.94,5.7,5.7,0,0,1,4.47,2.22V84.92h3.84v20H31.32Zm0-7.94a3.56,3.56,0,0,0-1.41-1.19A4.19,4.19,0,0,0,28,93.46a3.35,3.35,0,0,0-2.64,1.18,5.08,5.08,0,0,0,0,6.11A3.34,3.34,0,0,0,28,101.92a4.18,4.18,0,0,0,1.89-.46,3.56,3.56,0,0,0,1.41-1.19Z" transform="translate(-5.17)" fill="#fff"/><path d="M39,93.85a7.27,7.27,0,0,1,2.67-2.75,7.41,7.41,0,0,1,3.87-1,7.12,7.12,0,0,1,3.78,1,6.82,6.82,0,0,1,2.57,2.82,9.08,9.08,0,0,1,.91,4.15v.85H42a3.75,3.75,0,0,0,1.29,2.42,4.25,4.25,0,0,0,2.88,1,6.37,6.37,0,0,0,2.12-.38A4.82,4.82,0,0,0,50,100.84l1.68,2.46a7.06,7.06,0,0,1-2.64,1.49,10.55,10.55,0,0,1-3.33.52,8.27,8.27,0,0,1-4-.94A6.94,6.94,0,0,1,39,101.69a7.83,7.83,0,0,1-1-4A7.75,7.75,0,0,1,39,93.85Zm4,.23a3.9,3.9,0,0,0-1.05,2.23h7.14a3.69,3.69,0,0,0-1-2.22,3.31,3.31,0,0,0-2.6-1A3.26,3.26,0,0,0,43,94.08Z" transform="translate(-5.17)" fill="#fff"/><path d="M65.49,103.06a5.87,5.87,0,0,1-2,1.67,5.42,5.42,0,0,1-2.48.58,6.19,6.19,0,0,1-3.3-.9,6,6,0,0,1-2.29-2.61,10.37,10.37,0,0,1,0-8.13A6.22,6.22,0,0,1,57.71,91,6,6,0,0,1,61,90.07a5.7,5.7,0,0,1,4.47,2.22V90.43h3.84v14.49H65.49Zm0-7.91A3.56,3.56,0,0,0,64.08,94a4.19,4.19,0,0,0-1.89-.47,3.36,3.36,0,0,0-2.64,1.16,5.07,5.07,0,0,0,0,6.1,3.34,3.34,0,0,0,2.64,1.17,4.18,4.18,0,0,0,1.89-.46,3.56,3.56,0,0,0,1.41-1.19Z" transform="translate(-5.17)" fill="#fff"/><path d="M74.15,104.31a4,4,0,0,1-1-3V84.92h3.81v15.41a1.77,1.77,0,0,0,.36,1.14,1.17,1.17,0,0,0,1,.45,2.45,2.45,0,0,0,.78-.12,1,1,0,0,0,.51-.3l.81,2.88a4.63,4.63,0,0,1-3.15.93A4.19,4.19,0,0,1,74.15,104.31Z" transform="translate(-5.17)" fill="#fff"/><path d="M82.44,100.4a7.44,7.44,0,0,0,2.28,1.37,7,7,0,0,0,2.73.61,3.43,3.43,0,0,0,1.82-.4,1.22,1.22,0,0,0,.61-1.09,1.15,1.15,0,0,0-.72-1.06A9.36,9.36,0,0,0,87,99.17a21.3,21.3,0,0,1-2.88-.73,4.63,4.63,0,0,1-2-1.3,3.56,3.56,0,0,1-.84-2.51A4,4,0,0,1,82,92.35a4.76,4.76,0,0,1,2-1.66,7.61,7.61,0,0,1,3.18-.62,9.12,9.12,0,0,1,5.85,2l-1.53,2.62a5.36,5.36,0,0,0-1.84-1.21A6.52,6.52,0,0,0,87.24,93a3.27,3.27,0,0,0-1.66.36,1.12,1.12,0,0,0-.62,1,1,1,0,0,0,.68,1,10.26,10.26,0,0,0,2.08.62,19.56,19.56,0,0,1,2.91.75,5,5,0,0,1,2,1.38,3.77,3.77,0,0,1,.87,2.62,4.11,4.11,0,0,1-.73,2.39,4.74,4.74,0,0,1-2.16,1.67,8.69,8.69,0,0,1-3.38.6,10.9,10.9,0,0,1-3.61-.6,8,8,0,0,1-2.87-1.65Z" transform="translate(-5.17)" fill="#fff"/><path d="M21.75,130.4A7.44,7.44,0,0,0,24,131.77a7,7,0,0,0,2.73.61,3.43,3.43,0,0,0,1.82-.4,1.22,1.22,0,0,0,.61-1.09,1.15,1.15,0,0,0-.72-1.06,9.36,9.36,0,0,0-2.19-.66,21.3,21.3,0,0,1-2.88-.73,4.63,4.63,0,0,1-2-1.3,3.56,3.56,0,0,1-.84-2.51,4,4,0,0,1,.71-2.28,4.76,4.76,0,0,1,2.05-1.66,7.61,7.61,0,0,1,3.18-.62,9.12,9.12,0,0,1,5.85,2l-1.53,2.62A5.36,5.36,0,0,0,29,123.46a6.52,6.52,0,0,0-2.45-.48,3.27,3.27,0,0,0-1.66.36,1.12,1.12,0,0,0-.62,1,1,1,0,0,0,.68,1,10.26,10.26,0,0,0,2.08.62,19.56,19.56,0,0,1,2.91.75A5,5,0,0,1,32,128a3.77,3.77,0,0,1,.87,2.62,4.11,4.11,0,0,1-.73,2.39A4.74,4.74,0,0,1,30,134.71a8.69,8.69,0,0,1-3.38.6,10.9,10.9,0,0,1-3.61-.6,8,8,0,0,1-2.87-1.65Z" transform="translate(-5.17)" fill="#fff"/><path d="M37.47,134.29a3.92,3.92,0,0,1-1-2.95v-7.58H34v-3.33h2.4v-4h3.84v4H43.2v3.33H40.26v6.57a1.77,1.77,0,0,0,.36,1.14,1.17,1.17,0,0,0,1,.45,2.45,2.45,0,0,0,.78-.12,1.25,1.25,0,0,0,.54-.3l.81,2.88a4.68,4.68,0,0,1-3.18.93A4.22,4.22,0,0,1,37.47,134.29Z" transform="translate(-5.17)" fill="#fff"/><path d="M55.77,133.06a5.87,5.87,0,0,1-2,1.67,5.42,5.42,0,0,1-2.48.58,6.19,6.19,0,0,1-3.3-.9,6,6,0,0,1-2.29-2.61,10.37,10.37,0,0,1,0-8.13A6.22,6.22,0,0,1,48,121a6,6,0,0,1,3.31-.94,5.7,5.7,0,0,1,4.47,2.22v-1.86h3.84v14.49H55.77Zm0-7.91A3.56,3.56,0,0,0,54.36,124a4.19,4.19,0,0,0-1.89-.47,3.36,3.36,0,0,0-2.64,1.16,5.07,5.07,0,0,0,0,6.1,3.34,3.34,0,0,0,2.64,1.17,4.18,4.18,0,0,0,1.89-.46,3.56,3.56,0,0,0,1.41-1.19Z" transform="translate(-5.17)" fill="#fff"/><path d="M63.39,120.43H67.2v2a6.28,6.28,0,0,1,2-1.67,5.41,5.41,0,0,1,2.58-.68v3.72a5.54,5.54,0,0,0-1-.12,5.06,5.06,0,0,0-2,.49,3.41,3.41,0,0,0-1.53,1.17v9.59H63.39Z" transform="translate(-5.17)" fill="#fff"/><path d="M76,134.29a3.92,3.92,0,0,1-1-2.95v-7.58h-2.4v-3.33h2.4v-4h3.84v4h2.94v3.33H78.78v6.57a1.77,1.77,0,0,0,.36,1.14,1.17,1.17,0,0,0,1,.45,2.45,2.45,0,0,0,.78-.12,1.25,1.25,0,0,0,.54-.3l.81,2.88a4.68,4.68,0,0,1-3.18.93A4.22,4.22,0,0,1,76,134.29Z" transform="translate(-5.17)" fill="#fff"/><path d="M23.16,164.29a3.92,3.92,0,0,1-1.05-2.95v-7.58h-2.4v-3.33h2.4v-4H26v4h2.94v3.33H26v6.57a1.77,1.77,0,0,0,.36,1.14,1.17,1.17,0,0,0,1,.45,2.45,2.45,0,0,0,.78-.12,1.25,1.25,0,0,0,.54-.3l.81,2.88a4.68,4.68,0,0,1-3.18.93A4.22,4.22,0,0,1,23.16,164.29Z" transform="translate(-5.17)" fill="#fff"/><path d="M41.31,156.1a2.62,2.62,0,0,0-.69-2,3,3,0,0,0-2-.6,3.76,3.76,0,0,0-1.89.5,4.52,4.52,0,0,0-1.41,1.21v9.75H31.5v-20h3.81v7.4a6.75,6.75,0,0,1,5.1-2.25,4.8,4.8,0,0,1,3.53,1.2,4.59,4.59,0,0,1,1.18,3.36v10.29H41.31Z" transform="translate(-5.17)" fill="#fff"/><path d="M49.19,147.63a2.29,2.29,0,0,1,1.6-3.89,2.24,2.24,0,0,1,1.62.66,2.31,2.31,0,0,1,0,3.23,2.27,2.27,0,0,1-3.22,0Zm-.29,2.8h3.81v14.49H48.9Z" transform="translate(-5.17)" fill="#fff"/><path d="M56.88,160.4a7.44,7.44,0,0,0,2.28,1.37,7,7,0,0,0,2.73.61,3.43,3.43,0,0,0,1.82-.4,1.22,1.22,0,0,0,.61-1.09,1.15,1.15,0,0,0-.72-1.06,9.36,9.36,0,0,0-2.19-.66,21.3,21.3,0,0,1-2.88-.73,4.63,4.63,0,0,1-2-1.3,3.56,3.56,0,0,1-.84-2.51,4,4,0,0,1,.71-2.28,4.76,4.76,0,0,1,2-1.66,7.61,7.61,0,0,1,3.18-.62,9.12,9.12,0,0,1,5.85,2L66,154.67a5.36,5.36,0,0,0-1.84-1.21,6.52,6.52,0,0,0-2.45-.48,3.27,3.27,0,0,0-1.66.36,1.12,1.12,0,0,0-.62,1,1,1,0,0,0,.68.95,10.26,10.26,0,0,0,2.08.62,19.56,19.56,0,0,1,2.91.75,5,5,0,0,1,2,1.38,3.77,3.77,0,0,1,.87,2.62,4.11,4.11,0,0,1-.73,2.39,4.74,4.74,0,0,1-2.16,1.67,8.69,8.69,0,0,1-3.38.6,10.9,10.9,0,0,1-3.61-.6,8,8,0,0,1-2.87-1.65Z" transform="translate(-5.17)" fill="#fff"/><path d="M31,185.05,28,194.92H23.88l-4.41-14.49h4l2.7,9.75,3.18-9.75H32.7l3.18,9.75,2.7-9.75h4l-4.41,14.49H34.08Z" transform="translate(-5.17)" fill="#fff"/><path d="M44.46,183.85a7.27,7.27,0,0,1,2.67-2.75,7.41,7.41,0,0,1,3.87-1,7.12,7.12,0,0,1,3.78,1,6.82,6.82,0,0,1,2.57,2.82,9.08,9.08,0,0,1,.91,4.15v.85H47.49a3.75,3.75,0,0,0,1.29,2.42,4.25,4.25,0,0,0,2.88,1,6.37,6.37,0,0,0,2.12-.38,4.82,4.82,0,0,0,1.75-1.06l1.68,2.46a7.06,7.06,0,0,1-2.64,1.49,10.55,10.55,0,0,1-3.33.52,8.27,8.27,0,0,1-4-.94,6.94,6.94,0,0,1-2.77-2.68,7.83,7.83,0,0,1-1-4A7.75,7.75,0,0,1,44.46,183.85Zm4,.23a3.9,3.9,0,0,0-1,2.23h7.14a3.69,3.69,0,0,0-1-2.22,3.31,3.31,0,0,0-2.6-1A3.26,3.26,0,0,0,48.48,184.08Z" transform="translate(-5.17)" fill="#fff"/><path d="M61.05,183.85a7.27,7.27,0,0,1,2.67-2.75,7.41,7.41,0,0,1,3.87-1,7.12,7.12,0,0,1,3.78,1,6.82,6.82,0,0,1,2.57,2.82,9.08,9.08,0,0,1,.91,4.15v.85H64.08a3.75,3.75,0,0,0,1.29,2.42,4.25,4.25,0,0,0,2.88,1,6.37,6.37,0,0,0,2.12-.38,4.82,4.82,0,0,0,1.75-1.06l1.68,2.46a7.06,7.06,0,0,1-2.64,1.49,10.55,10.55,0,0,1-3.33.52,8.27,8.27,0,0,1-4-.94,6.94,6.94,0,0,1-2.77-2.68,7.83,7.83,0,0,1-1-4A7.75,7.75,0,0,1,61.05,183.85Zm4,.23a3.9,3.9,0,0,0-1,2.23h7.14a3.69,3.69,0,0,0-1-2.22,3.31,3.31,0,0,0-2.6-1A3.26,3.26,0,0,0,65.07,184.08Z" transform="translate(-5.17)" fill="#fff"/><path d="M83.16,189.34l-1.74,1.86v3.72H77.61v-20h3.81v12l5.49-6.45h4.68L85.86,187l5.91,7.92H87Z" transform="translate(-5.17)" fill="#fff"/><path d="M93.06,183.85a7.27,7.27,0,0,1,2.67-2.75,7.41,7.41,0,0,1,3.87-1,7.12,7.12,0,0,1,3.78,1A6.82,6.82,0,0,1,106,183.9a9.08,9.08,0,0,1,.91,4.15v.85H96.09a3.75,3.75,0,0,0,1.29,2.42,4.25,4.25,0,0,0,2.88,1,6.37,6.37,0,0,0,2.12-.38,4.82,4.82,0,0,0,1.75-1.06l1.68,2.46a7.06,7.06,0,0,1-2.64,1.49,10.55,10.55,0,0,1-3.33.52,8.27,8.27,0,0,1-4-.94,6.94,6.94,0,0,1-2.77-2.68,7.83,7.83,0,0,1-1-4A7.75,7.75,0,0,1,93.06,183.85Zm4,.23a3.9,3.9,0,0,0-1,2.23h7.14a3.69,3.69,0,0,0-1-2.22,3.31,3.31,0,0,0-2.6-1A3.26,3.26,0,0,0,97.08,184.08Z" transform="translate(-5.17)" fill="#fff"/><path d="M119.4,186.17a2.7,2.7,0,0,0-.69-2.08,2.84,2.84,0,0,0-2-.63,3.72,3.72,0,0,0-1.9.5,4.6,4.6,0,0,0-1.4,1.21v9.75h-3.81V180.43h3.81v1.89a6.66,6.66,0,0,1,5.07-2.25,4.21,4.21,0,0,1,4.71,4.62v10.23H119.4Z" transform="translate(-5.17)" fill="#fff"/><path d="M137,193.06a5.87,5.87,0,0,1-2,1.67,5.42,5.42,0,0,1-2.48.58,6.19,6.19,0,0,1-3.3-.9,6,6,0,0,1-2.29-2.61,10.37,10.37,0,0,1,0-8.13,6.22,6.22,0,0,1,2.28-2.66,6,6,0,0,1,3.31-.94,5.7,5.7,0,0,1,4.47,2.22v-7.37h3.84v20H137Zm0-7.94a3.56,3.56,0,0,0-1.41-1.19,4.19,4.19,0,0,0-1.89-.47,3.35,3.35,0,0,0-2.64,1.18,5.08,5.08,0,0,0,0,6.11,3.34,3.34,0,0,0,2.64,1.17,4.18,4.18,0,0,0,1.89-.46,3.56,3.56,0,0,0,1.41-1.19Z" transform="translate(-5.17)" fill="#fff"/><path d="M144.83,191.11a2.27,2.27,0,0,1,1.69-.71,2.33,2.33,0,0,1,1.71.71,2.35,2.35,0,0,1,.72,1.71,2.29,2.29,0,0,1-.72,1.68,2.34,2.34,0,0,1-1.71.72,2.28,2.28,0,0,1-1.69-.72,2.31,2.31,0,0,1-.71-1.68A2.38,2.38,0,0,1,144.83,191.11Zm-.62-16.19h4.59l-.6,13.5h-3.36Z" transform="translate(-5.17)" fill="#fff"/><g clip-path="url(#clip-path)"><g clip-path="url(#clip-path)"><path d="M36.18,333.27c15.28-4.67,23,7,23,7s-4.85-16.33-23-7" transform="translate(-5.17)" fill="#fff"/><path d="M65.72,333.87c0-.06,0-.49,0-.55a11.41,11.41,0,0,0-6,8.77s2.08-4.84,7-6.3a3,3,0,0,1-.94-1.92" transform="translate(-5.17)" fill="#fff"/><path d="M46.23,340.7s0,2.3,0,3.47c-.59,0-3.13-.16-4.24-.2,0,.62,0,1.26,0,1.89,1.33,0,2.72.18,4.06.17,0,1.12,0,2.08,0,3.2-1.33,0-2.67-.1-4-.13,0,.68,0,1.36,0,2,1.44,0,2.88.15,4.31.13,0,0,0,3.41,0,3.41-2.85,0-6.22-.22-9.41-.49l.22-14.2c1.35.15,5.52.6,9.15.71" transform="translate(-5.17)" fill="#fff"/><path d="M47.44,340.73l-.06,3.71c1.34.06,2.55.07,2.55.07V354.8a31.36,31.36,0,0,0,5.12-.07L55,344.54s2.27-.11,2.63-.14c0-1.36,0-2.43,0-3.79a89.84,89.84,0,0,1-10.12.12" transform="translate(-5.17)" fill="#fff"/><path d="M116,338.47v4.3c.87.05,1.85.23,2.72.3,0,3.59-.09,6.31-.09,9.89,2.41.3,4.13.57,4.79.69,0-3.58.14-6.42.14-10,0,0,2.56.39,2.61.43v-4.42A78.28,78.28,0,0,0,116,338.47" transform="translate(-5.17)" fill="#fff"/><path d="M30.82,338.52l-6.08-1.1,0,14.91c1.56.3,3,.56,4.5.72l0-4.3,1.65.18c2.63.25,5.29-.75,5.33-5.06,0-3.82-2.52-4.93-5.34-5.35m-1.12,6.87-.45-.05c0-1,0-1.94,0-2.92l.43.05A1.48,1.48,0,0,1,31.18,344c0,1.21-.75,1.44-1.48,1.36" transform="translate(-5.17)" fill="#fff"/><path d="M81.58,352.37c.68-1.78,1.36-3.44,2-5.21.1,1.7.17,3.23.28,4.93,1.69-.19,3.06-.28,4.77-.39-.44-4.53-.82-9.38-1.27-13.91l-4.38.4c-.82,2.14-1.64,4.74-2.46,6.88-.79-2-1.58-4.31-2.37-6.28-1.48.21-4.11.67-4.38.67-.51,4.62-1.08,9.75-1.59,14.36,1.16-.2,4-.66,4.87-.77.13-1.72.26-3.56.39-5.28q1,2.46,2,4.93l2.12-.33" transform="translate(-5.17)" fill="#fff"/><path d="M112.8,347.63c1.3-.59,2.24-1.85,2.27-4.34.05-3.77-2.61-5.38-5.3-5.58-2-.17-4.08-.27-6.12-.33-.07,4.79-.09,9.17-.16,13.95,1.53.05,3.2.16,4.53.28,0-1.35,0-2.35.06-3.7l2.46,4c1.87.16,3.79.41,5.67.68-1.17-1.75-2.23-3.25-3.41-5m-4.22-3.07-.46,0c0-1,0-1.92,0-2.88l.44,0a1.44,1.44,0,0,1,1.48,1.52,1.23,1.23,0,0,1-1.5,1.36" transform="translate(-5.17)" fill="#fff"/><path d="M98.32,337.28c-1.82,0-3.3,0-4.85.1-1.24,4.64-2.71,9.6-4,14.27,1.39,0,2.79-.12,4.18-.13.12-.49.27-1.06.4-1.54l2.12-.06s1.86-.06,1.86-.06c.06.18.23.67.47,1.48,1.39,0,2.77,0,4.16,0-1.5-4.92-3-9.64-4.38-14.1M95,346.7l1-3.63c.36,1.2.73,2.39,1.09,3.58a19.32,19.32,0,0,1-2,.05" transform="translate(-5.17)" fill="#fff"/><path d="M124.51,352.33a.76.76,0,1,1-.76.76.76.76,0,0,1,.76-.76Zm0,.12a.64.64,0,1,0,.61.64.62.62,0,0,0-.61-.64Zm-.14,1.08h-.14v-.85l.24,0a.44.44,0,0,1,.27.07.18.18,0,0,1,.07.17.22.22,0,0,1-.16.21h0c.07,0,.12.08.14.2a1,1,0,0,0,0,.21h-.14a.68.68,0,0,1-.06-.22.15.15,0,0,0-.18-.14h-.09Zm0-.47h.1c.11,0,.2,0,.2-.14s0-.15-.2-.15h-.1Z" transform="translate(-5.17)" fill="#fff"/><path d="M59.18,353.48a12.46,12.46,0,0,0,5.63,1.42c3.19,0,6.52-1.9,6.59-5.47,0-2.54-1.56-3.74-3.82-4.25l-1.2-.27c-.41-.1-1.07-.18-1.06-.73s.7-.8,1.17-.8a8.53,8.53,0,0,1,3.24.69c.45-1.2.91-2.39,1.36-3.58a10.52,10.52,0,0,0-4.64-1.11c-3.2,0-6.42,1.94-6.49,5.49-.05,2.34,1.68,3.62,3.76,4l1.07.2c.49.1,1.19.16,1.18.84s-.85.75-1.37.75a6.32,6.32,0,0,1-3.66-1.21c-.55,1.25-1.2,2.79-1.76,4" transform="translate(-5.17)" fill="#fff"/><path d="M70.7,329.2a3.59,3.59,0,1,0,3.54,3.64,3.6,3.6,0,0,0-3.54-3.64m1.3,1.33a4.28,4.28,0,0,0-3.85,2.25s0,0,0,.05a2.59,2.59,0,0,1,.09-1,2.43,2.43,0,0,1,3-1.74,2.14,2.14,0,0,1,.84.45l0,0" transform="translate(-5.17)" fill="#fff"/></g></g></g><g id="REC"><rect width="160" height="600" fill="none"/></g></g></svg>