<svg xmlns="http://www.w3.org/2000/svg" viewBox="0 0 160 600"><g id="Layer_2" data-name="Layer 2"><g id="REC"><rect width="160" height="600" fill="none"/></g><g id="subhed"><path d="M20.81,222.31a6.61,6.61,0,0,1-2.72-.5,5.72,5.72,0,0,1-1.91-1.3L17.3,219a5.82,5.82,0,0,0,1.49,1.1,4.45,4.45,0,0,0,2.1.48,3.56,3.56,0,0,0,1.05-.14,1.87,1.87,0,0,0,.69-.36,1.24,1.24,0,0,0,.39-.5,1.28,1.28,0,0,0,.13-.57,1,1,0,0,0-.48-.91,4.55,4.55,0,0,0-1.23-.53c-.49-.15-1-.29-1.59-.43a7.68,7.68,0,0,1-1.59-.56,3.35,3.35,0,0,1-1.22-1,2.61,2.61,0,0,1-.48-1.65,3,3,0,0,1,.29-1.32,3.4,3.4,0,0,1,.84-1.06,3.85,3.85,0,0,1,1.3-.7,5.32,5.32,0,0,1,1.7-.26,6.48,6.48,0,0,1,2.39.42,5.53,5.53,0,0,1,1.84,1.18l-1.12,1.48a4.32,4.32,0,0,0-1.54-1,5.07,5.07,0,0,0-1.76-.32,2.27,2.27,0,0,0-1.39.39,1.22,1.22,0,0,0-.51,1,.91.91,0,0,0,.48.82,4.83,4.83,0,0,0,1.22.49l1.59.42a7.34,7.34,0,0,1,1.59.59,3.72,3.72,0,0,1,1.23,1,2.76,2.76,0,0,1,.48,1.7,3.63,3.63,0,0,1-.25,1.35,3.1,3.1,0,0,1-.79,1.12,3.84,3.84,0,0,1-1.37.76A6.12,6.12,0,0,1,20.81,222.31Z" fill="#e32d27"/><path d="M32.52,222.11v-5.17a1.65,1.65,0,0,0-.44-1.32,1.93,1.93,0,0,0-1.21-.34,2.32,2.32,0,0,0-1.25.34,3,3,0,0,0-.86.74v5.75H27V210.77h1.78V215a5.81,5.81,0,0,1,.5-.47,4.05,4.05,0,0,1,.67-.43,3.78,3.78,0,0,1,.8-.29,3.36,3.36,0,0,1,.92-.11,2.7,2.7,0,0,1,2,.66,2.64,2.64,0,0,1,.66,1.94v5.81Z" fill="#e32d27"/><path d="M40.34,222.31a4.33,4.33,0,0,1-1.77-.34,4.11,4.11,0,0,1-1.32-.94,3.93,3.93,0,0,1-.84-1.37,4.79,4.79,0,0,1-.29-1.66,4.84,4.84,0,0,1,.29-1.67,3.93,3.93,0,0,1,.84-1.37,3.78,3.78,0,0,1,1.32-.92,4.78,4.78,0,0,1,3.54,0,3.78,3.78,0,0,1,1.32.92,4.08,4.08,0,0,1,.84,1.37,4.84,4.84,0,0,1,.29,1.67,4.79,4.79,0,0,1-.29,1.66A4,4,0,0,1,42.11,222,4.33,4.33,0,0,1,40.34,222.31Zm0-1.58a2.25,2.25,0,0,0,1-.22,2.13,2.13,0,0,0,.74-.59,2.53,2.53,0,0,0,.45-.88,3.58,3.58,0,0,0,.15-1,3.53,3.53,0,0,0-.15-1,2.57,2.57,0,0,0-.45-.87,2.13,2.13,0,0,0-.74-.59,2.25,2.25,0,0,0-1-.22,2.14,2.14,0,0,0-1,.22,2.07,2.07,0,0,0-.75.59,2.42,2.42,0,0,0-.46.87,3.53,3.53,0,0,0-.15,1,3.58,3.58,0,0,0,.15,1,2.39,2.39,0,0,0,.46.88,2.07,2.07,0,0,0,.75.59A2.14,2.14,0,0,0,40.34,220.73Z" fill="#e32d27"/><path d="M50.79,222.31a3.13,3.13,0,0,1-1.45-.34,3.73,3.73,0,0,1-1.18-1v4.27H46.37V213.9h1.79V215a3.25,3.25,0,0,1,1.14-1,3.12,3.12,0,0,1,1.49-.35,3.7,3.7,0,0,1,1.47.28,3.28,3.28,0,0,1,1.14.85,3.69,3.69,0,0,1,.76,1.35,6.27,6.27,0,0,1,0,3.64,3.86,3.86,0,0,1-.76,1.35,3.28,3.28,0,0,1-1.14.85A3.71,3.71,0,0,1,50.79,222.31Zm-.52-1.58A2.09,2.09,0,0,0,52,220,3.4,3.4,0,0,0,52,216a2.11,2.11,0,0,0-1.7-.75,2.54,2.54,0,0,0-1.22.31,2.43,2.43,0,0,0-.89.77v3.25a2,2,0,0,0,.38.44,2.34,2.34,0,0,0,.51.36,3.13,3.13,0,0,0,.6.24A2.2,2.2,0,0,0,50.27,220.73Z" fill="#e32d27"/><path d="M60.6,222.11V210.77h1.79V215A3.24,3.24,0,0,1,65,213.7a3.57,3.57,0,0,1,1.47.29,3.29,3.29,0,0,1,1.16.86,4.37,4.37,0,0,1,.76,1.36,5.56,5.56,0,0,1,.27,1.79,5.71,5.71,0,0,1-.27,1.82,4.19,4.19,0,0,1-.77,1.36,3.45,3.45,0,0,1-1.16.85,3.72,3.72,0,0,1-1.46.28,3.13,3.13,0,0,1-1.48-.35,3.47,3.47,0,0,1-1.15-1v1.12Zm1.79-2.46a2.43,2.43,0,0,0,.89.77,2.55,2.55,0,0,0,1.23.31A2,2,0,0,0,66.2,220a3,3,0,0,0,.62-2,3.48,3.48,0,0,0-.16-1.1,2.45,2.45,0,0,0-.46-.86,2.27,2.27,0,0,0-.74-.56,2.1,2.1,0,0,0-.95-.2,2.66,2.66,0,0,0-2.12,1.1Z" fill="#e32d27"/><path d="M71.38,212.9a1.11,1.11,0,1,1,.78-1.89,1.05,1.05,0,0,1,.33.78,1.13,1.13,0,0,1-1.11,1.11Zm-.9,9.21V213.9h1.78v8.21Z" fill="#e32d27"/><path d="M77.93,225.44a6.21,6.21,0,0,1-1.87-.26,4.46,4.46,0,0,1-1.59-1l.84-1.29a2.89,2.89,0,0,0,1.15.81,4.2,4.2,0,0,0,1.47.24,3.7,3.7,0,0,0,.87-.11,2,2,0,0,0,.78-.38,2,2,0,0,0,.56-.71,2.35,2.35,0,0,0,.22-1.09v-.94a3.66,3.66,0,0,1-1.15,1,3,3,0,0,1-1.49.38,3.86,3.86,0,0,1-1.45-.28,3.27,3.27,0,0,1-1.16-.82,3.86,3.86,0,0,1-.75-1.32,5.23,5.23,0,0,1-.28-1.8,5.16,5.16,0,0,1,.28-1.78,3.82,3.82,0,0,1,.75-1.33,3.2,3.2,0,0,1,1.15-.82,3.65,3.65,0,0,1,1.46-.28,3.17,3.17,0,0,1,1.46.34,3.21,3.21,0,0,1,1.18,1V213.9h1.78v7.79a4,4,0,0,1-.37,1.83,3.2,3.2,0,0,1-1,1.16,3.78,3.78,0,0,1-1.36.59A6.45,6.45,0,0,1,77.93,225.44Zm.32-4.91a2.52,2.52,0,0,0,1.21-.32,2.66,2.66,0,0,0,.9-.77v-3.08a2.64,2.64,0,0,0-.9-.76,2.41,2.41,0,0,0-1.21-.32,2.13,2.13,0,0,0-1.7.72,3.21,3.21,0,0,0,0,3.82A2.16,2.16,0,0,0,78.25,220.53Z" fill="#e32d27"/><path d="M22.64,243.11V242a3.57,3.57,0,0,1-1.15,1,3.05,3.05,0,0,1-1.48.35,3.72,3.72,0,0,1-1.46-.28,3.32,3.32,0,0,1-1.15-.85,4,4,0,0,1-.76-1.36,5.71,5.71,0,0,1-.27-1.82,5.56,5.56,0,0,1,.27-1.79,4,4,0,0,1,.76-1.36,3.31,3.31,0,0,1,1.14-.86A3.54,3.54,0,0,1,20,234.7a3.17,3.17,0,0,1,1.46.34,3.26,3.26,0,0,1,1.17,1v-4.27h1.79v11.34Zm-2.11-1.38a2.2,2.2,0,0,0,.62-.08,3.13,3.13,0,0,0,.6-.24,2.7,2.7,0,0,0,.51-.35,1.92,1.92,0,0,0,.38-.43v-3.25a2.13,2.13,0,0,0-.38-.42,2.34,2.34,0,0,0-.51-.36,3.13,3.13,0,0,0-.6-.24,2.45,2.45,0,0,0-1.59.12,2.34,2.34,0,0,0-.73.56,2.45,2.45,0,0,0-.46.86,3.83,3.83,0,0,0,0,2.19,2.41,2.41,0,0,0,.46.87,2.37,2.37,0,0,0,.73.57A2.19,2.19,0,0,0,20.53,241.73Z" fill="#e32d27"/><path d="M27.64,233.9a1.11,1.11,0,1,1,.78-1.89,1.05,1.05,0,0,1,.33.78,1.13,1.13,0,0,1-1.11,1.11Zm-.9,9.21V234.9h1.78v8.21Z" fill="#e32d27"/><path d="M33.66,243.31a5.66,5.66,0,0,1-2-.33,4.32,4.32,0,0,1-1.55-1l.82-1.27a3.28,3.28,0,0,0,.52.42,4.4,4.4,0,0,0,.68.37,4.17,4.17,0,0,0,.78.25,3.06,3.06,0,0,0,.79.1,2.05,2.05,0,0,0,1.22-.3.94.94,0,0,0,.41-.79.65.65,0,0,0-.37-.61,3.48,3.48,0,0,0-.92-.34l-1.19-.28a5.13,5.13,0,0,1-1.2-.4,2.66,2.66,0,0,1-.92-.73,2,2,0,0,1-.37-1.26,2.11,2.11,0,0,1,.22-1,2.24,2.24,0,0,1,.62-.79,3,3,0,0,1,1-.54,4.47,4.47,0,0,1,1.38-.19,4.78,4.78,0,0,1,1.85.32,4.46,4.46,0,0,1,1.33.81l-.74,1.26a3,3,0,0,0-1-.69,3.25,3.25,0,0,0-1.42-.29,1.83,1.83,0,0,0-1.11.29.85.85,0,0,0-.4.73.58.58,0,0,0,.37.54,3.58,3.58,0,0,0,.91.31l1.2.28a4.74,4.74,0,0,1,1.2.42,2.55,2.55,0,0,1,.92.77,2.11,2.11,0,0,1,.37,1.3,2.38,2.38,0,0,1-.23,1,2.11,2.11,0,0,1-.65.81,3.26,3.26,0,0,1-1.07.54A5.09,5.09,0,0,1,33.66,243.31Z" fill="#e32d27"/><path d="M42.6,243.31a4.34,4.34,0,0,1-1.71-.32,3.82,3.82,0,0,1-1.33-.9,4,4,0,0,1-.88-1.37,4.61,4.61,0,0,1-.31-1.72,4.54,4.54,0,0,1,.31-1.72,4,4,0,0,1,.88-1.36,3.82,3.82,0,0,1,1.33-.9,4.34,4.34,0,0,1,1.71-.32,5.25,5.25,0,0,1,1.1.11,3.5,3.5,0,0,1,.86.33,3,3,0,0,1,.67.46,3.88,3.88,0,0,1,.52.56l-1.18,1.07a2.17,2.17,0,0,0-1.88-.95,2.34,2.34,0,0,0-1.81.75,2.86,2.86,0,0,0-.68,2,3.2,3.2,0,0,0,.18,1.09,2.5,2.5,0,0,0,.51.87,2.46,2.46,0,0,0,.78.57,2.38,2.38,0,0,0,1,.2,2.19,2.19,0,0,0,1.88-1l1.18,1.1a4.13,4.13,0,0,1-1.19,1A3.79,3.79,0,0,1,42.6,243.31Z" fill="#e32d27"/><path d="M51.05,243.31a4.33,4.33,0,0,1-1.77-.34A4.11,4.11,0,0,1,48,242a3.93,3.93,0,0,1-.84-1.37,4.79,4.79,0,0,1-.29-1.66,4.84,4.84,0,0,1,.29-1.67A3.93,3.93,0,0,1,48,236a3.78,3.78,0,0,1,1.32-.92,4.78,4.78,0,0,1,3.54,0,3.78,3.78,0,0,1,1.32.92,4.08,4.08,0,0,1,.84,1.37,4.84,4.84,0,0,1,.29,1.67,4.79,4.79,0,0,1-.29,1.66A4,4,0,0,1,52.82,243,4.33,4.33,0,0,1,51.05,243.31Zm0-1.58a2.25,2.25,0,0,0,1-.22,2.13,2.13,0,0,0,.74-.59,2.53,2.53,0,0,0,.45-.88,3.58,3.58,0,0,0,.15-1,3.53,3.53,0,0,0-.15-1,2.57,2.57,0,0,0-.45-.87,2.13,2.13,0,0,0-.74-.59,2.25,2.25,0,0,0-1-.22,2.14,2.14,0,0,0-1,.22,2.07,2.07,0,0,0-.75.59,2.42,2.42,0,0,0-.46.87,3.53,3.53,0,0,0-.15,1,3.58,3.58,0,0,0,.15,1,2.39,2.39,0,0,0,.46.88,2.07,2.07,0,0,0,.75.59A2.14,2.14,0,0,0,51.05,241.73Z" fill="#e32d27"/><path d="M62.63,243.11V242a4.42,4.42,0,0,1-1.19.9,3.58,3.58,0,0,1-1.7.39,2.66,2.66,0,0,1-2-.67,2.59,2.59,0,0,1-.67-1.93V234.9h1.79v5.15a1.63,1.63,0,0,0,.45,1.32,1.88,1.88,0,0,0,1.21.36,2.37,2.37,0,0,0,1.24-.33,3,3,0,0,0,.86-.74V234.9h1.78v8.21Z" fill="#e32d27"/><path d="M72.28,243.11V238a1.66,1.66,0,0,0-.45-1.34,1.88,1.88,0,0,0-1.21-.36,2.29,2.29,0,0,0-1.24.34,3.08,3.08,0,0,0-.87.74v5.75H66.72V234.9h1.79V236a3.85,3.85,0,0,1,.5-.47,3.66,3.66,0,0,1,1.48-.72,3.46,3.46,0,0,1,.92-.11,2.37,2.37,0,0,1,2.66,2.63v5.78Z" fill="#e32d27"/><path d="M78.86,243.31a2.12,2.12,0,0,1-1.58-.54,2.19,2.19,0,0,1-.53-1.58v-4.74H75.39V234.9h1.36v-2.24h1.79v2.24H80.2v1.55H78.54v4.3a1.18,1.18,0,0,0,.19.7.67.67,0,0,0,.59.28,1.19,1.19,0,0,0,.47-.09.84.84,0,0,0,.31-.21l.43,1.36a2.1,2.1,0,0,1-.65.37A3,3,0,0,1,78.86,243.31Z" fill="#e32d27"/><path d="M84.62,243.31a5.7,5.7,0,0,1-2-.33,4.32,4.32,0,0,1-1.55-1l.82-1.27a3.38,3.38,0,0,0,.53.42,4,4,0,0,0,.68.37,4.08,4.08,0,0,0,.77.25,3.11,3.11,0,0,0,.79.1,2.11,2.11,0,0,0,1.23-.3.93.93,0,0,0,.4-.79.65.65,0,0,0-.36-.61,3.62,3.62,0,0,0-.92-.34l-1.2-.28a5.13,5.13,0,0,1-1.2-.4,2.76,2.76,0,0,1-.92-.73,2,2,0,0,1-.36-1.26,2.23,2.23,0,0,1,.83-1.75,3,3,0,0,1,1-.54,4.58,4.58,0,0,1,1.39-.19,4.73,4.73,0,0,1,1.84.32,4.51,4.51,0,0,1,1.34.81L87,237.09a3.1,3.1,0,0,0-1-.69,3.31,3.31,0,0,0-1.42-.29,1.79,1.79,0,0,0-1.11.29.85.85,0,0,0-.4.73.59.59,0,0,0,.36.54,3.53,3.53,0,0,0,.92.31l1.2.28a4.74,4.74,0,0,1,1.2.42,2.6,2.6,0,0,1,.91.77,2.05,2.05,0,0,1,.37,1.3,2.37,2.37,0,0,1-.22,1,2.23,2.23,0,0,1-.66.81,3.07,3.07,0,0,1-1.07.54A5,5,0,0,1,84.62,243.31Z" fill="#e32d27"/><path d="M22.22,264.31a6,6,0,0,1-2.34-.44,5.37,5.37,0,0,1-3-3.07,6.64,6.64,0,0,1,0-4.7,5.37,5.37,0,0,1,3-3.07,6,6,0,0,1,2.34-.45,5.87,5.87,0,0,1,2.33.45,5.39,5.39,0,0,1,1.83,1.22,5.68,5.68,0,0,1,1.2,1.85,6.64,6.64,0,0,1,0,4.7,5.68,5.68,0,0,1-1.2,1.85,5.39,5.39,0,0,1-1.83,1.22A5.86,5.86,0,0,1,22.22,264.31Zm0-1.76a3.69,3.69,0,0,0,1.54-.32,3.43,3.43,0,0,0,1.19-.86,3.72,3.72,0,0,0,.76-1.3,5.21,5.21,0,0,0,0-3.25,3.77,3.77,0,0,0-.76-1.29,3.43,3.43,0,0,0-1.19-.86,3.91,3.91,0,0,0-3.1,0,3.49,3.49,0,0,0-1.18.86,3.77,3.77,0,0,0-.76,1.29,5.21,5.21,0,0,0,0,3.25,3.72,3.72,0,0,0,.76,1.3,3.49,3.49,0,0,0,1.18.86A3.72,3.72,0,0,0,22.22,262.55Z" fill="#e32d27"/><path d="M33.61,264.31A4.27,4.27,0,0,1,31.9,264a3.86,3.86,0,0,1-1.34-.9,4.11,4.11,0,0,1-.87-1.37,4.62,4.62,0,0,1-.32-1.72,4.54,4.54,0,0,1,.32-1.72,4.17,4.17,0,0,1,.87-1.36,3.86,3.86,0,0,1,1.34-.9,4.27,4.27,0,0,1,1.71-.32,5.08,5.08,0,0,1,1.09.11,3.43,3.43,0,0,1,.87.33,3,3,0,0,1,.67.46,4.45,4.45,0,0,1,.51.56l-1.17,1.07a2.17,2.17,0,0,0-1.89-1,2.3,2.3,0,0,0-1.8.75,2.86,2.86,0,0,0-.68,2,3.2,3.2,0,0,0,.18,1.09,2.5,2.5,0,0,0,.51.87,2.46,2.46,0,0,0,.78.57,2.37,2.37,0,0,0,1,.2,2.22,2.22,0,0,0,1.89-1l1.17,1.1a3.88,3.88,0,0,1-1.19,1A3.76,3.76,0,0,1,33.61,264.31Z" fill="#e32d27"/><path d="M40.81,264.31a2.12,2.12,0,0,1-1.58-.54,2.18,2.18,0,0,1-.52-1.58v-4.74H37.35V255.9h1.36v-2.24h1.78v2.24h1.67v1.55H40.49v4.3a1.18,1.18,0,0,0,.2.7.65.65,0,0,0,.58.28,1.19,1.19,0,0,0,.47-.09.89.89,0,0,0,.32-.21l.42,1.36a2,2,0,0,1-.65.37A3,3,0,0,1,40.81,264.31Z" fill="#e32d27"/><path d="M47.84,264.11v-1.58c1.09-.83,2-1.55,2.81-2.18a24.29,24.29,0,0,0,1.9-1.67,5.9,5.9,0,0,0,1.08-1.36,2.52,2.52,0,0,0,.34-1.23,1.57,1.57,0,0,0-.18-.77,1.68,1.68,0,0,0-.46-.53,2,2,0,0,0-.67-.32,2.78,2.78,0,0,0-.76-.1,4,4,0,0,0-1.76.36,4.09,4.09,0,0,0-1.3,1l-1.16-1.29a4.75,4.75,0,0,1,1.88-1.37,6.14,6.14,0,0,1,2.32-.45,5.42,5.42,0,0,1,1.57.23,4,4,0,0,1,1.3.67,3.17,3.17,0,0,1,.9,1.09,3.21,3.21,0,0,1,.33,1.49,3.61,3.61,0,0,1-.35,1.54,6.52,6.52,0,0,1-1,1.51,15.28,15.28,0,0,1-1.56,1.56c-.61.52-1.29,1.08-2,1.65h5v1.77Z" fill="#e32d27"/><path d="M63,264.11v-2.57h-5.4V260l4.65-7.18H65v7h1.51v1.76H65v2.57Zm0-9.55-3.45,5.22H63Z" fill="#e32d27"/><path d="M67.47,260.76v-1.53h4.08v1.53Z" fill="#e32d27"/><path d="M72.91,264.11v-1.58c1.1-.83,2-1.55,2.81-2.18a24.65,24.65,0,0,0,1.91-1.67,6.5,6.5,0,0,0,1.08-1.36,2.63,2.63,0,0,0,.34-1.23,1.57,1.57,0,0,0-.18-.77,1.71,1.71,0,0,0-.47-.53,1.84,1.84,0,0,0-.66-.32,2.86,2.86,0,0,0-.77-.1,4.07,4.07,0,0,0-1.76.36,4.33,4.33,0,0,0-1.3,1l-1.15-1.29a4.68,4.68,0,0,1,1.88-1.37A6.11,6.11,0,0,1,77,252.6a5.4,5.4,0,0,1,1.56.23,4.06,4.06,0,0,1,1.31.67,3.26,3.26,0,0,1,.89,1.09,3.21,3.21,0,0,1,.33,1.49,3.47,3.47,0,0,1-.35,1.54,6.52,6.52,0,0,1-1,1.51,14.33,14.33,0,0,1-1.56,1.56c-.6.52-1.29,1.08-2,1.65h5v1.77Z" fill="#e32d27"/><path d="M87.34,264.31a6,6,0,0,1-2.48-.46,4.9,4.9,0,0,1-1.72-1.29l1.14-1.37a3.83,3.83,0,0,0,3,1.36A2.41,2.41,0,0,0,89,262a2,2,0,0,0,0-2.89,2.43,2.43,0,0,0-1.66-.55,3.83,3.83,0,0,0-1.33.23,3.67,3.67,0,0,0-1.16.74l-1.41-.4v-6.33h7.43v1.77H85.47v3.25a3.83,3.83,0,0,1,1.09-.68,3.56,3.56,0,0,1,1.48-.29,4.09,4.09,0,0,1,1.38.24,3.54,3.54,0,0,1,1.16.72,3.3,3.3,0,0,1,.8,1.15,3.74,3.74,0,0,1,.3,1.54,3.71,3.71,0,0,1-.33,1.59,3.55,3.55,0,0,1-.89,1.21,4,4,0,0,1-1.37.77A5.4,5.4,0,0,1,87.34,264.31Z" fill="#e32d27"/></g></g></svg>