<svg xmlns="http://www.w3.org/2000/svg" viewBox="0 0 300 250"><g id="Layer_2" data-name="Layer 2"><g id="cta"><path d="M115.15,138.36h-88A10.66,10.66,0,0,1,16.48,127.7v-1.11a10.67,10.67,0,0,1,10.66-10.67h88a10.67,10.67,0,0,1,10.66,10.67v1.11A10.67,10.67,0,0,1,115.15,138.36Z" fill="#e52a26"/><path d="M32.25,128.74a3.75,3.75,0,0,0,1.18.85,3.48,3.48,0,0,0,1.52.32,2,2,0,0,0,1.28-.35,1,1,0,0,0,.43-.82.76.76,0,0,0-.25-.59,2.07,2.07,0,0,0-.64-.37c-.25-.09-.6-.19-1.06-.31a12.43,12.43,0,0,1-1.55-.47,2.75,2.75,0,0,1-1-.75,2,2,0,0,1-.43-1.33,2.17,2.17,0,0,1,.39-1.27,2.56,2.56,0,0,1,1.09-.9,3.81,3.81,0,0,1,1.62-.32,4.44,4.44,0,0,1,3.2,1.19l-.86,1.11A3.08,3.08,0,0,0,36,124a3.56,3.56,0,0,0-1.33-.24,1.74,1.74,0,0,0-1,.28.93.93,0,0,0-.39.78.65.65,0,0,0,.24.51,1.88,1.88,0,0,0,.61.33,10.25,10.25,0,0,0,1,.3,12,12,0,0,1,1.58.5,2.76,2.76,0,0,1,1.06.77,2.07,2.07,0,0,1,.44,1.37,2.42,2.42,0,0,1-1.46,2.29,4.17,4.17,0,0,1-1.84.35,5.14,5.14,0,0,1-2-.36,4.31,4.31,0,0,1-1.47-1Z" fill="#fff"/><path d="M39.55,126.36a3.22,3.22,0,0,1,1.12-1.17,3.13,3.13,0,0,1,1.61-.43,3,3,0,0,1,1.59.43,3,3,0,0,1,1.07,1.2,3.89,3.89,0,0,1,.38,1.73v.33H40.56a1.83,1.83,0,0,0,.6,1.22,1.89,1.89,0,0,0,1.36.49,2.69,2.69,0,0,0,.95-.17,2.32,2.32,0,0,0,.8-.5l.62.88a3.22,3.22,0,0,1-1.12.67,4.22,4.22,0,0,1-1.39.23,3.4,3.4,0,0,1-1.66-.41,3,3,0,0,1-1.16-1.14,3.41,3.41,0,0,1-.42-1.71A3.48,3.48,0,0,1,39.55,126.36Zm1.49,0a1.85,1.85,0,0,0-.5,1.14H44a1.81,1.81,0,0,0-.2-.78,1.59,1.59,0,0,0-.57-.61,1.75,1.75,0,0,0-1-.24A1.57,1.57,0,0,0,41,126.35Z" fill="#fff"/><path d="M46.67,126.36a3,3,0,0,1,2.72-1.6,2.85,2.85,0,0,1,2.67,1.63,3.89,3.89,0,0,1,.37,1.73v.33H47.67a1.92,1.92,0,0,0,.6,1.22,1.89,1.89,0,0,0,1.36.49,2.61,2.61,0,0,0,.95-.17,2.23,2.23,0,0,0,.8-.5l.62.88a3.17,3.17,0,0,1-1.11.67,4.33,4.33,0,0,1-1.4.23,3.36,3.36,0,0,1-1.65-.41,3,3,0,0,1-1.17-1.14,3.52,3.52,0,0,1-.42-1.71A3.6,3.6,0,0,1,46.67,126.36Zm1.49,0a1.91,1.91,0,0,0-.5,1.14h3.47a1.68,1.68,0,0,0-.2-.78,1.59,1.59,0,0,0-.57-.61,1.75,1.75,0,0,0-1-.24A1.57,1.57,0,0,0,48.16,126.35Z" fill="#fff"/><path d="M57.72,130.84a1.63,1.63,0,0,1-.4-1.18v-3.57h-1v-1.18h1v-1.69h1.34v1.69h1.26v1.18H58.66v3.24a.91.91,0,0,0,.16.54.52.52,0,0,0,.43.2.84.84,0,0,0,.35-.07.59.59,0,0,0,.25-.15l.32,1a1.73,1.73,0,0,1-1.26.4A1.67,1.67,0,0,1,57.72,130.84Z" fill="#fff"/><path d="M65.31,127.19a1.25,1.25,0,0,0-.32-1,1.34,1.34,0,0,0-.94-.29,1.78,1.78,0,0,0-.89.24,2.5,2.5,0,0,0-.69.59v4.3H61.12v-8.52h1.35v3.2a2.62,2.62,0,0,1,.93-.7,2.72,2.72,0,0,1,1.26-.3,2.09,2.09,0,0,1,1.5.5,2,2,0,0,1,.5,1.46v4.36H65.32v-3.88Z" fill="#fff"/><path d="M68.4,126.36a3.22,3.22,0,0,1,1.12-1.17,3.13,3.13,0,0,1,1.61-.43,3,3,0,0,1,1.6.43,2.94,2.94,0,0,1,1.06,1.2,3.89,3.89,0,0,1,.38,1.73v.33H69.41a1.87,1.87,0,0,0,2,1.71,2.65,2.65,0,0,0,.95-.17,2.32,2.32,0,0,0,.8-.5l.62.88a3.13,3.13,0,0,1-1.12.67,4.22,4.22,0,0,1-1.39.23,3.43,3.43,0,0,1-1.66-.41,3.09,3.09,0,0,1-1.16-1.14A3.52,3.52,0,0,1,68,128,3.73,3.73,0,0,1,68.4,126.36Zm1.5,0a1.91,1.91,0,0,0-.5,1.14h3.47a1.81,1.81,0,0,0-.2-.78,1.59,1.59,0,0,0-.57-.61,1.75,1.75,0,0,0-1-.24A1.57,1.57,0,0,0,69.9,126.35Z" fill="#fff"/><path d="M78.83,122.56H82a4.84,4.84,0,0,1,2.32.54,3.94,3.94,0,0,1,1.57,1.51,4.32,4.32,0,0,1,.57,2.22,4.27,4.27,0,0,1-.57,2.2,4,4,0,0,1-1.57,1.51,4.73,4.73,0,0,1-2.32.54H78.83Zm3.18,7.2a3,3,0,0,0,1.55-.38,2.66,2.66,0,0,0,1-1.06,3.21,3.21,0,0,0,.35-1.49,3.26,3.26,0,0,0-.34-1.51,2.64,2.64,0,0,0-1-1.06,3.16,3.16,0,0,0-1.58-.38H80.32v5.88Z" fill="#fff"/><path d="M87.88,126.36A3.22,3.22,0,0,1,89,125.19a3.13,3.13,0,0,1,1.61-.43,2.85,2.85,0,0,1,2.67,1.63,4,4,0,0,1,.37,1.73v.33H88.89a1.87,1.87,0,0,0,2,1.71,2.65,2.65,0,0,0,1-.17,2.32,2.32,0,0,0,.8-.5l.62.88a3.13,3.13,0,0,1-1.12.67,4.22,4.22,0,0,1-1.39.23,3.43,3.43,0,0,1-1.66-.41,3.09,3.09,0,0,1-1.16-1.14,3.52,3.52,0,0,1-.42-1.71A3.73,3.73,0,0,1,87.88,126.36Zm1.5,0a1.91,1.91,0,0,0-.5,1.14h3.47a1.81,1.81,0,0,0-.2-.78,1.59,1.59,0,0,0-.57-.61,1.75,1.75,0,0,0-1-.24A1.57,1.57,0,0,0,89.38,126.35Z" fill="#fff"/><path d="M99.33,130.24a2.49,2.49,0,0,1-.88.74,2.35,2.35,0,0,1-1.1.27,2.61,2.61,0,0,1-1.42-.39,2.56,2.56,0,0,1-1-1.12,4.45,4.45,0,0,1,0-3.46,2.65,2.65,0,0,1,1-1.13,2.53,2.53,0,0,1,1.42-.4,2.43,2.43,0,0,1,1.09.26,2.47,2.47,0,0,1,.89.75v-.86h1.34v6.17H99.33Zm0-3.45a1.82,1.82,0,0,0-.68-.6,1.94,1.94,0,0,0-.92-.24,1.57,1.57,0,0,0-1.27.57A2.28,2.28,0,0,0,96,128a2.31,2.31,0,0,0,.47,1.49,1.57,1.57,0,0,0,1.27.57,2,2,0,0,0,.92-.23,1.88,1.88,0,0,0,.68-.59Z" fill="#fff"/><path d="M102.81,130.84a1.63,1.63,0,0,1-.4-1.18v-7.1h1.34v6.77a.91.91,0,0,0,.16.54.52.52,0,0,0,.43.2.87.87,0,0,0,.35-.07.5.5,0,0,0,.24-.15l.32,1a1.74,1.74,0,0,1-1.25.4A1.67,1.67,0,0,1,102.81,130.84Z" fill="#fff"/><path d="M106.13,129.32a3,3,0,0,0,.93.62,2.75,2.75,0,0,0,1.16.26,1.69,1.69,0,0,0,.9-.2.63.63,0,0,0,.32-.57.6.6,0,0,0-.36-.56,4.61,4.61,0,0,0-1-.34,9.09,9.09,0,0,1-1.2-.32,1.85,1.85,0,0,1-.8-.56,1.46,1.46,0,0,1-.33-1,1.67,1.67,0,0,1,.28-.94,2.06,2.06,0,0,1,.84-.68,3.09,3.09,0,0,1,1.31-.26,3.47,3.47,0,0,1,2.4.87l-.56,1a2.17,2.17,0,0,0-.78-.54,2.59,2.59,0,0,0-1-.2,1.7,1.7,0,0,0-.85.18.58.58,0,0,0-.3.51.53.53,0,0,0,.33.49,4.64,4.64,0,0,0,1,.32,7.13,7.13,0,0,1,1.22.34,2.09,2.09,0,0,1,.83.58,1.61,1.61,0,0,1,.34,1.08,1.7,1.7,0,0,1-.68,1.38,3,3,0,0,1-1.89.54,4.57,4.57,0,0,1-1.49-.25,3.38,3.38,0,0,1-1.16-.71Z" fill="#fff"/><rect width="300" height="250" fill="none"/></g><g id="rec"><rect width="300" height="250" fill="none"/></g></g></svg>