<svg xmlns="http://www.w3.org/2000/svg" viewBox="0 0 300 250"><g id="Layer_2" data-name="Layer 2"><g id="SUBHED"><path d="M20.92,99.51A7.05,7.05,0,0,1,18,99a6.09,6.09,0,0,1-2-1.38L17.21,96a6,6,0,0,0,1.58,1.17,4.78,4.78,0,0,0,2.22.5,4,4,0,0,0,1.11-.14,2.33,2.33,0,0,0,.74-.38,1.58,1.58,0,0,0,.41-.53,1.47,1.47,0,0,0,.14-.61,1.06,1.06,0,0,0-.52-1,5.19,5.19,0,0,0-1.29-.57c-.52-.15-1.09-.3-1.68-.45a8,8,0,0,1-1.69-.59,3.64,3.64,0,0,1-1.29-1,2.75,2.75,0,0,1-.52-1.76,3.09,3.09,0,0,1,.32-1.39,3.39,3.39,0,0,1,.88-1.12A4.16,4.16,0,0,1,19,87.36a5.67,5.67,0,0,1,1.8-.27,7,7,0,0,1,2.53.44,5.83,5.83,0,0,1,2,1.25l-1.19,1.57a4.39,4.39,0,0,0-1.63-1A5.41,5.41,0,0,0,20.6,89a2.37,2.37,0,0,0-1.47.42,1.29,1.29,0,0,0-.55,1.08.94.94,0,0,0,.52.86,4.87,4.87,0,0,0,1.29.52q.78.22,1.68.45a7.75,7.75,0,0,1,1.69.63A3.77,3.77,0,0,1,25.05,94a2.82,2.82,0,0,1,.52,1.79,3.83,3.83,0,0,1-.27,1.43,3.24,3.24,0,0,1-.84,1.19,4.12,4.12,0,0,1-1.45.81A6.8,6.8,0,0,1,20.92,99.51Z" fill="#e52823"/><path d="M33.32,99.3V93.82a1.71,1.71,0,0,0-.46-1.39,2,2,0,0,0-1.28-.37,2.47,2.47,0,0,0-1.32.36,3.12,3.12,0,0,0-.91.79V99.3H27.46v-12h1.89v4.48a3.68,3.68,0,0,1,.53-.5,3.81,3.81,0,0,1,.7-.45,4.28,4.28,0,0,1,.85-.32,4.32,4.32,0,0,1,1-.11,2.85,2.85,0,0,1,2.1.7,2.77,2.77,0,0,1,.7,2V99.3Z" fill="#e52823"/><path d="M41.6,99.51a4.49,4.49,0,0,1-1.87-.37,4.19,4.19,0,0,1-2.28-2.44,5.15,5.15,0,0,1,0-3.52,4.14,4.14,0,0,1,2.28-2.43,4.65,4.65,0,0,1,1.87-.36,4.7,4.7,0,0,1,1.88.36,4,4,0,0,1,1.4,1,4.18,4.18,0,0,1,.88,1.45,5.15,5.15,0,0,1,0,3.52,4.18,4.18,0,0,1-.88,1.45,4,4,0,0,1-1.4,1A4.54,4.54,0,0,1,41.6,99.51Zm0-1.67a2.32,2.32,0,0,0,1.08-.24,2.13,2.13,0,0,0,.79-.63,2.59,2.59,0,0,0,.47-.92,3.78,3.78,0,0,0,.17-1.11,3.67,3.67,0,0,0-.17-1.1,2.67,2.67,0,0,0-.47-.92,2.35,2.35,0,0,0-.79-.63,2.45,2.45,0,0,0-1.08-.23,2.43,2.43,0,0,0-1.06.23,2.56,2.56,0,0,0-.79.63,2.71,2.71,0,0,0-.49.92,4,4,0,0,0-.16,1.1,4.14,4.14,0,0,0,.16,1.11,2.62,2.62,0,0,0,.49.92,2.35,2.35,0,0,0,1.85.87Z" fill="#e52823"/><path d="M52.67,99.51a3.2,3.2,0,0,1-1.53-.37,3.69,3.69,0,0,1-1.26-1v4.52H48v-12h1.89v1.19a3.76,3.76,0,0,1,1.21-1,3.37,3.37,0,0,1,1.58-.37,3.9,3.9,0,0,1,1.55.3,3.47,3.47,0,0,1,1.22.89,4.22,4.22,0,0,1,.8,1.43,6.57,6.57,0,0,1,0,3.86,4.22,4.22,0,0,1-.8,1.43,3.49,3.49,0,0,1-1.22.9A3.73,3.73,0,0,1,52.67,99.51Zm-.55-1.67a2.22,2.22,0,0,0,1.8-.81,3.62,3.62,0,0,0,0-4.17,2.25,2.25,0,0,0-1.8-.8,2.69,2.69,0,0,0-1.29.33,2.76,2.76,0,0,0-.95.82v3.44a2.56,2.56,0,0,0,.41.47,3.06,3.06,0,0,0,.54.38,3.45,3.45,0,0,0,.63.25A2.5,2.5,0,0,0,52.12,97.84Z" fill="#e52823"/><path d="M63.06,99.3v-12H65v4.52a3.5,3.5,0,0,1,1.25-1.06,3.45,3.45,0,0,1,1.54-.36,3.85,3.85,0,0,1,1.56.31,3.4,3.4,0,0,1,1.22.91,4.37,4.37,0,0,1,.8,1.44,5.86,5.86,0,0,1,.29,1.89,6.07,6.07,0,0,1-.29,1.93,4.21,4.21,0,0,1-.81,1.44,3.62,3.62,0,0,1-1.23.9,3.92,3.92,0,0,1-1.54.3,3.25,3.25,0,0,1-1.57-.38,3.74,3.74,0,0,1-1.22-1V99.3ZM65,96.69a2.67,2.67,0,0,0,1,.82,2.7,2.7,0,0,0,1.3.33A2.18,2.18,0,0,0,69,97a3.21,3.21,0,0,0,.66-2.09,3.87,3.87,0,0,0-.17-1.16,2.67,2.67,0,0,0-.5-.91,2.3,2.3,0,0,0-1.78-.81,2.6,2.6,0,0,0-1.3.34,2.69,2.69,0,0,0-1,.83Z" fill="#e52823"/><path d="M74.47,89.54a1.13,1.13,0,0,1-.83-.34,1.18,1.18,0,0,1,0-1.66,1.13,1.13,0,0,1,.83-.34,1.12,1.12,0,0,1,.83.34,1.18,1.18,0,0,1,0,1.66A1.12,1.12,0,0,1,74.47,89.54Zm-1,9.76V90.6h1.89v8.7Z" fill="#e52823"/><path d="M81.4,102.82a6.68,6.68,0,0,1-2-.27,4.74,4.74,0,0,1-1.67-1l.88-1.37a2.94,2.94,0,0,0,1.22.86,4.46,4.46,0,0,0,1.55.26,3.71,3.71,0,0,0,.93-.12A2.15,2.15,0,0,0,83.75,100,2.66,2.66,0,0,0,84,98.85v-1a4,4,0,0,1-1.22,1.06,3.21,3.21,0,0,1-1.57.39A3.88,3.88,0,0,1,79.65,99a3.45,3.45,0,0,1-1.23-.87,4,4,0,0,1-.8-1.39,5.85,5.85,0,0,1-.29-1.91A5.77,5.77,0,0,1,77.62,93a4.07,4.07,0,0,1,.8-1.4,3.4,3.4,0,0,1,1.22-.88,4.08,4.08,0,0,1,1.55-.29,3.39,3.39,0,0,1,1.54.36A3.5,3.5,0,0,1,84,91.81V90.6h1.89v8.25a4.29,4.29,0,0,1-.4,1.94,3.26,3.26,0,0,1-1,1.22,4.06,4.06,0,0,1-1.44.63A7.34,7.34,0,0,1,81.4,102.82Zm.34-5.2A2.59,2.59,0,0,0,83,97.28a2.75,2.75,0,0,0,1-.81V93.21a2.75,2.75,0,0,0-1-.81,2.59,2.59,0,0,0-1.29-.34,2.29,2.29,0,0,0-1.8.77,3.42,3.42,0,0,0,0,4A2.3,2.3,0,0,0,81.74,97.62Z" fill="#e52823"/><path d="M99.08,99.3V98.11a3.74,3.74,0,0,1-1.22,1,3.2,3.2,0,0,1-1.57.38,3.92,3.92,0,0,1-1.54-.3,3.49,3.49,0,0,1-1.22-.9,4.39,4.39,0,0,1-.81-1.44,6.08,6.08,0,0,1-.28-1.93,5.87,5.87,0,0,1,.28-1.89,4.39,4.39,0,0,1,.81-1.44,3.37,3.37,0,0,1,1.21-.91,3.73,3.73,0,0,1,1.55-.31,3.43,3.43,0,0,1,1.55.36,3.47,3.47,0,0,1,1.24,1.06V87.29H101v12Zm-2.23-1.46a2.48,2.48,0,0,0,.65-.09,3,3,0,0,0,.63-.25,3,3,0,0,0,.54-.37,2,2,0,0,0,.41-.46V93.23a2.15,2.15,0,0,0-.41-.45,3.06,3.06,0,0,0-.54-.38,2.51,2.51,0,0,0-.63-.25,2.48,2.48,0,0,0-.65-.09,2.26,2.26,0,0,0-1,.22,2.23,2.23,0,0,0-.77.59,2.67,2.67,0,0,0-.5.91,4,4,0,0,0,0,2.32,2.72,2.72,0,0,0,.5.92,2.15,2.15,0,0,0,.77.6A2.26,2.26,0,0,0,96.85,97.84Z" fill="#e52823"/><path d="M104.37,89.54a1.16,1.16,0,1,1,.83-.34A1.13,1.13,0,0,1,104.37,89.54Zm-1,9.76V90.6h1.89v8.7Z" fill="#e52823"/><path d="M110.74,99.51a5.92,5.92,0,0,1-2.09-.35,4.42,4.42,0,0,1-1.63-1l.86-1.35a3.24,3.24,0,0,0,.56.45,3.51,3.51,0,0,0,.72.39,3.94,3.94,0,0,0,.82.27,3.42,3.42,0,0,0,.83.1,2.21,2.21,0,0,0,1.3-.31,1,1,0,0,0,.43-.84.7.7,0,0,0-.38-.65,4.4,4.4,0,0,0-1-.36c-.39-.1-.81-.19-1.27-.29a5.2,5.2,0,0,1-1.26-.43,2.87,2.87,0,0,1-1-.77,2.16,2.16,0,0,1-.38-1.34,2.33,2.33,0,0,1,.22-1,2.41,2.41,0,0,1,.66-.84,3.2,3.2,0,0,1,1.07-.57,5,5,0,0,1,1.47-.2,5.11,5.11,0,0,1,2,.34,4.66,4.66,0,0,1,1.41.86l-.79,1.33a3.25,3.25,0,0,0-1.07-.73,3.5,3.5,0,0,0-1.5-.31,1.93,1.93,0,0,0-1.18.31.92.92,0,0,0-.43.77.64.64,0,0,0,.39.58,4.38,4.38,0,0,0,1,.33l1.27.29a5.16,5.16,0,0,1,1.27.45,2.83,2.83,0,0,1,1,.81,2.21,2.21,0,0,1,.39,1.37,2.58,2.58,0,0,1-.23,1.08,2.35,2.35,0,0,1-.7.87,3.42,3.42,0,0,1-1.13.57A5.63,5.63,0,0,1,110.74,99.51Z" fill="#e52823"/><path d="M120.21,99.51a4.63,4.63,0,0,1-1.81-.34,4.22,4.22,0,0,1-1.41-1,4.3,4.3,0,0,1-.93-1.45,5,5,0,0,1-.33-1.83,4.87,4.87,0,0,1,.33-1.82,4.35,4.35,0,0,1,.93-1.44,4.08,4.08,0,0,1,1.41-1,4.63,4.63,0,0,1,1.81-.34,5.11,5.11,0,0,1,1.16.12,4.51,4.51,0,0,1,.92.34,3.45,3.45,0,0,1,.71.5,5.81,5.81,0,0,1,.54.58l-1.24,1.14a2.33,2.33,0,0,0-2-1,2.46,2.46,0,0,0-1.91.8,3,3,0,0,0-.72,2.08,3.32,3.32,0,0,0,.19,1.16,2.8,2.8,0,0,0,.54.92,2.36,2.36,0,0,0,.83.6,2.47,2.47,0,0,0,1.07.22,2.32,2.32,0,0,0,2-1L123.54,98A4.22,4.22,0,0,1,122.28,99,4,4,0,0,1,120.21,99.51Z" fill="#e52823"/><path d="M129.16,99.51a4.54,4.54,0,0,1-1.88-.37,4,4,0,0,1-1.4-1A4.18,4.18,0,0,1,125,96.7a5.15,5.15,0,0,1,0-3.52,4.18,4.18,0,0,1,.88-1.45,4,4,0,0,1,1.4-1,4.7,4.7,0,0,1,1.88-.36,4.65,4.65,0,0,1,1.87.36,4.14,4.14,0,0,1,2.28,2.43,5.15,5.15,0,0,1,0,3.52A4.19,4.19,0,0,1,131,99.14,4.49,4.49,0,0,1,129.16,99.51Zm0-1.67a2.38,2.38,0,0,0,1.08-.24A2.17,2.17,0,0,0,131,97a2.78,2.78,0,0,0,.48-.92,4.14,4.14,0,0,0,.16-1.11,4,4,0,0,0-.16-1.1,2.88,2.88,0,0,0-.48-.92,2.41,2.41,0,0,0-.78-.63,2.52,2.52,0,0,0-1.08-.23,2.47,2.47,0,0,0-1.07.23,2.56,2.56,0,0,0-.79.63,2.69,2.69,0,0,0-.48.92,3.67,3.67,0,0,0-.17,1.1,3.78,3.78,0,0,0,.17,1.11,2.6,2.6,0,0,0,.48.92,2.3,2.3,0,0,0,.79.63A2.34,2.34,0,0,0,129.16,97.84Z" fill="#e52823"/><path d="M141.41,99.3V98.14a4.51,4.51,0,0,1-1.25,1,3.75,3.75,0,0,1-1.81.42,2.81,2.81,0,0,1-2.1-.71,2.76,2.76,0,0,1-.7-2V90.6h1.89v5.46a1.7,1.7,0,0,0,.47,1.39,2,2,0,0,0,1.29.39,2.51,2.51,0,0,0,1.3-.35,3.12,3.12,0,0,0,.91-.79V90.6h1.89v8.7Z" fill="#e52823"/><path d="M151.64,99.3V93.86a1.74,1.74,0,0,0-.48-1.41,2,2,0,0,0-1.29-.39,2.42,2.42,0,0,0-1.3.36,3.52,3.52,0,0,0-.93.79V99.3h-1.89V90.6h1.89v1.17a4.3,4.3,0,0,1,.53-.5,3.9,3.9,0,0,1,.71-.45,4.63,4.63,0,0,1,.86-.32,4.32,4.32,0,0,1,1-.11,2.82,2.82,0,0,1,2.11.72,2.88,2.88,0,0,1,.7,2.07V99.3Z" fill="#e52823"/><path d="M158.6,99.51a2.24,2.24,0,0,1-1.67-.57,2.35,2.35,0,0,1-.56-1.68v-5h-1.44V90.6h1.44V88.23h1.89V90.6H160v1.64h-1.77v4.55a1.28,1.28,0,0,0,.21.75.7.7,0,0,0,.62.3,1.13,1.13,0,0,0,.49-.1.92.92,0,0,0,.34-.23l.45,1.44a2.06,2.06,0,0,1-.69.4A3,3,0,0,1,158.6,99.51Z" fill="#e52823"/><path d="M164.71,99.51a5.84,5.84,0,0,1-2.09-.35,4.46,4.46,0,0,1-1.64-1l.86-1.35a3.67,3.67,0,0,0,.56.45,4.13,4.13,0,0,0,.72.39,3.94,3.94,0,0,0,.82.27,3.44,3.44,0,0,0,.84.1,2.17,2.17,0,0,0,1.29-.31,1,1,0,0,0,.43-.84.69.69,0,0,0-.38-.65,4.3,4.3,0,0,0-1-.36c-.39-.1-.82-.19-1.27-.29a5.13,5.13,0,0,1-1.27-.43,2.74,2.74,0,0,1-1-.77,2.1,2.1,0,0,1-.39-1.34,2.33,2.33,0,0,1,.22-1,2.41,2.41,0,0,1,.66-.84,3.3,3.3,0,0,1,1.07-.57,5.65,5.65,0,0,1,3.42.14,4.85,4.85,0,0,1,1.42.86l-.8,1.33a3.25,3.25,0,0,0-1.07-.73,3.5,3.5,0,0,0-1.5-.31,2,2,0,0,0-1.18.31.91.91,0,0,0-.42.77.64.64,0,0,0,.38.58,4.48,4.48,0,0,0,1,.33l1.27.29a5.24,5.24,0,0,1,1.26.45,2.86,2.86,0,0,1,1,.81,2.27,2.27,0,0,1,.38,1.37,2.42,2.42,0,0,1-.92,1.95,3.58,3.58,0,0,1-1.14.57A5.6,5.6,0,0,1,164.71,99.51Z" fill="#e52823"/><path d="M180.53,99.51a6.26,6.26,0,0,1-2.48-.47,5.74,5.74,0,0,1-3.21-3.25,6.72,6.72,0,0,1-.45-2.49,6.63,6.63,0,0,1,.45-2.48,5.8,5.8,0,0,1,3.21-3.26,6.75,6.75,0,0,1,4.95,0,5.66,5.66,0,0,1,1.94,1.3,6,6,0,0,1,1.27,2,6.63,6.63,0,0,1,.46,2.48,6.73,6.73,0,0,1-.46,2.49,6.08,6.08,0,0,1-1.27,2A5.78,5.78,0,0,1,183,99,6.21,6.21,0,0,1,180.53,99.51Zm0-1.87a4,4,0,0,0,1.64-.33,3.7,3.7,0,0,0,1.25-.91,4,4,0,0,0,.81-1.38,5.65,5.65,0,0,0,0-3.45,4,4,0,0,0-.81-1.36,3.57,3.57,0,0,0-1.25-.91,4.15,4.15,0,0,0-3.29,0,3.67,3.67,0,0,0-1.25.91,3.86,3.86,0,0,0-.8,1.36,5.45,5.45,0,0,0,0,3.45,3.86,3.86,0,0,0,.8,1.38,3.8,3.8,0,0,0,1.25.91A4,4,0,0,0,180.53,97.64Z" fill="#e52823"/><path d="M192.59,99.51a4.6,4.6,0,0,1-1.81-.34,4.37,4.37,0,0,1-1.42-1,4.43,4.43,0,0,1-.92-1.45,4.77,4.77,0,0,1-.34-1.83,4.68,4.68,0,0,1,.34-1.82,4.49,4.49,0,0,1,.92-1.44,4.22,4.22,0,0,1,1.42-1,4.6,4.6,0,0,1,1.81-.34,5.11,5.11,0,0,1,1.16.12,4.51,4.51,0,0,1,.92.34,3.75,3.75,0,0,1,.71.5,5.81,5.81,0,0,1,.54.58l-1.25,1.14a2.31,2.31,0,0,0-2-1,2.45,2.45,0,0,0-1.91.8,3,3,0,0,0-.72,2.08,3.32,3.32,0,0,0,.19,1.16,2.49,2.49,0,0,0,.54.92,2.36,2.36,0,0,0,.83.6,2.44,2.44,0,0,0,1.07.22,2.3,2.3,0,0,0,2-1L195.92,98A4.49,4.49,0,0,1,194.66,99,4,4,0,0,1,192.59,99.51Z" fill="#e52823"/><path d="M200.22,99.51a2.26,2.26,0,0,1-1.68-.57,2.35,2.35,0,0,1-.55-1.68v-5h-1.44V90.6H198V88.23h1.89V90.6h1.76v1.64h-1.76v4.55a1.35,1.35,0,0,0,.2.75.71.71,0,0,0,.62.3,1.18,1.18,0,0,0,.5-.1.87.87,0,0,0,.33-.23L202,99a2,2,0,0,1-.68.4A3.08,3.08,0,0,1,200.22,99.51Z" fill="#e52823"/><path d="M211.72,99.51A6.24,6.24,0,0,1,209,99a5,5,0,0,1-1.79-1.38l1.16-1.39a3.82,3.82,0,0,0,1.45,1.07,4.56,4.56,0,0,0,1.86.39,3,3,0,0,0,1.84-.5,1.6,1.6,0,0,0,.66-1.34,1.4,1.4,0,0,0-.68-1.3,4,4,0,0,0-2-.41h-.81l-.56,0V92.2h1.37a5.06,5.06,0,0,0,1-.09,2.48,2.48,0,0,0,.78-.28,1.47,1.47,0,0,0,.52-.5,1.22,1.22,0,0,0,.19-.7,1.35,1.35,0,0,0-.19-.73,1.52,1.52,0,0,0-.52-.52,2.82,2.82,0,0,0-.77-.31,4.12,4.12,0,0,0-1-.11,4.21,4.21,0,0,0-3.11,1.33L207.35,89a5.41,5.41,0,0,1,1.79-1.36,5.91,5.91,0,0,1,2.6-.53,6.41,6.41,0,0,1,1.76.23,4.16,4.16,0,0,1,1.36.63,2.93,2.93,0,0,1,.88,1,2.83,2.83,0,0,1,.32,1.35,2.35,2.35,0,0,1-.24,1.08,2.6,2.6,0,0,1-.6.82,3,3,0,0,1-.84.56,3.69,3.69,0,0,1-.91.29,3.47,3.47,0,0,1,.91.25,3.2,3.2,0,0,1,.91.56,2.76,2.76,0,0,1,.7.88,2.65,2.65,0,0,1,.27,1.23A3.14,3.14,0,0,1,215,98.52a4.28,4.28,0,0,1-1.43.73A6.1,6.1,0,0,1,211.72,99.51Z" fill="#e52823"/><path d="M222.65,99.51a4.09,4.09,0,0,1-2.19-.55A4.53,4.53,0,0,1,219,97.53a6.47,6.47,0,0,1-.85-2,8.87,8.87,0,0,1-.28-2.24,9,9,0,0,1,.28-2.24,6.47,6.47,0,0,1,.85-2,4.5,4.5,0,0,1,1.49-1.42,4.67,4.67,0,0,1,4.36,0,4.47,4.47,0,0,1,1.48,1.42,6.74,6.74,0,0,1,.86,2,9.47,9.47,0,0,1,.27,2.24,9.34,9.34,0,0,1-.27,2.24,6.74,6.74,0,0,1-.86,2A4.5,4.5,0,0,1,224.82,99,4.09,4.09,0,0,1,222.65,99.51Zm0-1.87a2.08,2.08,0,0,0,1.23-.36,2.71,2.71,0,0,0,.82-1,5.32,5.32,0,0,0,.45-1.38,10.09,10.09,0,0,0,0-3.29,4.48,4.48,0,0,0-.45-1.38,2.72,2.72,0,0,0-.82-1,2.39,2.39,0,0,0-2.49,0,2.72,2.72,0,0,0-.82,1,4.76,4.76,0,0,0-.45,1.38,9.1,9.1,0,0,0,0,3.29,5,5,0,0,0,.45,1.38,2.81,2.81,0,0,0,.82,1A2.1,2.1,0,0,0,222.65,97.64Z" fill="#e52823"/><path d="M228.73,95.75V94.13h4.32v1.62Z" fill="#e52823"/><path d="M243.24,99.3,237,90.71V99.3h-2.1v-12H237l6.14,8.32V87.29h2.1v12Z" fill="#e52823"/><path d="M251.71,99.51a4.49,4.49,0,0,1-1.87-.37,4.19,4.19,0,0,1-2.28-2.44,5.15,5.15,0,0,1,0-3.52,4.14,4.14,0,0,1,2.28-2.43,5.06,5.06,0,0,1,3.75,0,4.14,4.14,0,0,1,2.28,2.43,5.15,5.15,0,0,1,0,3.52,4.19,4.19,0,0,1-2.28,2.44A4.51,4.51,0,0,1,251.71,99.51Zm0-1.67a2.32,2.32,0,0,0,1.08-.24,2.13,2.13,0,0,0,.79-.63,2.59,2.59,0,0,0,.47-.92,3.78,3.78,0,0,0,.17-1.11,3.67,3.67,0,0,0-.17-1.1,2.67,2.67,0,0,0-.47-.92,2.35,2.35,0,0,0-.79-.63,2.45,2.45,0,0,0-1.08-.23,2.43,2.43,0,0,0-1.06.23,2.56,2.56,0,0,0-.79.63,2.53,2.53,0,0,0-.48.92,3.67,3.67,0,0,0-.17,1.1,3.78,3.78,0,0,0,.17,1.11,2.45,2.45,0,0,0,.48.92,2.35,2.35,0,0,0,1.85.87Z" fill="#e52823"/><path d="M260.39,99.3l-3.55-8.7h2l2.54,6.52L264,90.6h2l-3.55,8.7Z" fill="#e52823"/><path d="M274,99.3V90l-2,2-1.22-1.28,3.45-3.49h1.84v12Z" fill="#e52823"/></g><g id="rec"><rect width="300" height="250" fill="none"/></g></g></svg>