<svg xmlns="http://www.w3.org/2000/svg" xmlns:xlink="http://www.w3.org/1999/xlink" viewBox="0 0 301.84 600"><defs><clipPath id="clip-path" transform="translate(-2.19)"><rect id="SVGID" y="236.47" width="191.95" height="148.32" fill="none"/></clipPath></defs><g id="Layer_2" data-name="Layer 2"><g id="content"><rect x="1.81" width="300" height="600"/><rect y="0.13" width="300" height="599.75" fill="none"/><path d="M25.86,21.73H40.6a9.1,9.1,0,0,1,4.39,1,6.78,6.78,0,0,1,2.75,2.6,7.09,7.09,0,0,1,.92,3.55,6.6,6.6,0,0,1-1.38,4.28,5.85,5.85,0,0,1-3.45,2.15,5.8,5.8,0,0,1,3.82,2.31,7.15,7.15,0,0,1,1.56,4.57,7.37,7.37,0,0,1-2.14,5.42,8.12,8.12,0,0,1-6,2.14H25.86ZM39.3,33a3.3,3.3,0,0,0,2.39-.86,3,3,0,0,0,.88-2.25,3,3,0,0,0-.9-2.19,3.27,3.27,0,0,0-2.37-.88H31.82V33Zm.21,11.67a3.71,3.71,0,0,0,2.64-.9,3.39,3.39,0,0,0,0-4.75,3.6,3.6,0,0,0-2.64-.94H31.82v6.59Z" transform="translate(-2.19)" fill="#fff"/><path d="M55,48.88a5.54,5.54,0,0,1-1.44-4.14v-23h5.33V43.31a2.51,2.51,0,0,0,.5,1.6,1.65,1.65,0,0,0,1.35.63,3.5,3.5,0,0,0,1.09-.16,1.57,1.57,0,0,0,.71-.42l1.14,4a6.47,6.47,0,0,1-4.41,1.3A5.9,5.9,0,0,1,55,48.88Z" transform="translate(-2.19)" fill="#fff"/><path d="M80,47.14a8.19,8.19,0,0,1-2.8,2.33,7.5,7.5,0,0,1-3.46.82A8.66,8.66,0,0,1,69.16,49a8.49,8.49,0,0,1-3.22-3.66,13.1,13.1,0,0,1-1.15-5.73A13,13,0,0,1,65.94,34a8.8,8.8,0,0,1,3.2-3.72A8.39,8.39,0,0,1,73.78,29a7.78,7.78,0,0,1,3.44.8A8,8,0,0,1,80,32.06v-2.6h5.37V49.74H80Zm0-11.08a5,5,0,0,0-2-1.66,5.8,5.8,0,0,0-2.64-.66,4.67,4.67,0,0,0-3.7,1.63,6.23,6.23,0,0,0-1.43,4.27,6.27,6.27,0,0,0,1.43,4.26,4.65,4.65,0,0,0,3.7,1.64,5.78,5.78,0,0,0,2.64-.65,5,5,0,0,0,2-1.66Z" transform="translate(-2.19)" fill="#fff"/><path d="M90.79,34.11a9.87,9.87,0,0,1,3.82-3.79A11.13,11.13,0,0,1,100.15,29,10.65,10.65,0,0,1,105,30a8.53,8.53,0,0,1,3.16,2.63l-3.49,3.27a4.85,4.85,0,0,0-4.28-2.18,5.21,5.21,0,0,0-4,1.62A6,6,0,0,0,94.9,39.6a6,6,0,0,0,1.54,4.3,5.6,5.6,0,0,0,6.4,1.08,5.21,5.21,0,0,0,1.85-1.62l3.49,3.23a8.73,8.73,0,0,1-3.13,2.65,10.44,10.44,0,0,1-4.9,1,11.13,11.13,0,0,1-5.54-1.37,9.84,9.84,0,0,1-3.82-3.78A10.91,10.91,0,0,1,89.4,39.6,10.77,10.77,0,0,1,90.79,34.11Z" transform="translate(-2.19)" fill="#fff"/><path d="M119.43,41.93,117,44.54v5.2h-5.33v-28H117V38.49l7.69-9h6.55l-8,9.2,8.27,11.08h-6.67Z" transform="translate(-2.19)" fill="#fff"/><path d="M145,21.73h19.82v5.12H151v6.09h13.57v5.13H151V49.74h-6Z" transform="translate(-2.19)" fill="#fff"/><path d="M168.87,29.46h5.33v2.77a9.07,9.07,0,0,1,2.85-2.33,7.59,7.59,0,0,1,3.62-.95v5.21a6.38,6.38,0,0,0-4.33.51,4.74,4.74,0,0,0-2.14,1.64V49.74h-5.33Z" transform="translate(-2.19)" fill="#fff"/><path d="M184.38,25.53a3.19,3.19,0,1,1,5.44-2.25,3.13,3.13,0,0,1-.92,2.25,3.16,3.16,0,0,1-4.52,0Zm-.4,3.93h5.34V49.74H184Z" transform="translate(-2.19)" fill="#fff"/><path d="M208.55,47.14a8.07,8.07,0,0,1-2.79,2.33,7.5,7.5,0,0,1-3.46.82A8.66,8.66,0,0,1,197.68,49a8.43,8.43,0,0,1-3.22-3.66,13.1,13.1,0,0,1-1.15-5.73A13,13,0,0,1,194.46,34a8.8,8.8,0,0,1,3.2-3.72A8.39,8.39,0,0,1,202.3,29a7.78,7.78,0,0,1,3.44.8,7.88,7.88,0,0,1,2.81,2.31V21.73h5.38v28h-5.38Zm0-11.12a4.9,4.9,0,0,0-2-1.67,5.92,5.92,0,0,0-2.65-.65,4.67,4.67,0,0,0-3.69,1.64,6.34,6.34,0,0,0-1.43,4.3,6.27,6.27,0,0,0,1.43,4.26,4.64,4.64,0,0,0,3.69,1.64,5.79,5.79,0,0,0,2.65-.65,4.88,4.88,0,0,0,2-1.66Z" transform="translate(-2.19)" fill="#fff"/><path d="M233.17,47.14a8.19,8.19,0,0,1-2.8,2.33,7.5,7.5,0,0,1-3.46.82A8.66,8.66,0,0,1,222.29,49a8.41,8.41,0,0,1-3.21-3.66,13,13,0,0,1-1.16-5.73A12.89,12.89,0,0,1,219.08,34a8.71,8.71,0,0,1,3.19-3.72A8.39,8.39,0,0,1,226.91,29a7.78,7.78,0,0,1,3.44.8,8,8,0,0,1,2.82,2.31v-2.6h5.37V49.74h-5.37Zm0-11.08a5,5,0,0,0-2-1.66,5.8,5.8,0,0,0-2.64-.66,4.67,4.67,0,0,0-3.7,1.63,6.23,6.23,0,0,0-1.43,4.27,6.27,6.27,0,0,0,1.43,4.26,4.65,4.65,0,0,0,3.7,1.64,5.78,5.78,0,0,0,2.64-.65,5,5,0,0,0,2-1.66Z" transform="translate(-2.19)" fill="#fff"/><path d="M246,51.09A6.42,6.42,0,0,0,248.66,53a9.46,9.46,0,0,0,3.41.63,5.64,5.64,0,0,0,4-1.35,5,5,0,0,0,1.43-3.86V46.3a9.53,9.53,0,0,1-3,2.18,9.32,9.32,0,0,1-4.13.89,6.57,6.57,0,0,1-4.92-1.68A6.47,6.47,0,0,1,243.83,43V29.46h5.34V40.88a3.7,3.7,0,0,0,1,2.88,4.08,4.08,0,0,0,2.78.86,5.34,5.34,0,0,0,2.64-.67,6.44,6.44,0,0,0,2-1.64V29.46h5.33V48.15a9.14,9.14,0,0,1-2.92,7.24A11.4,11.4,0,0,1,252.07,58a12.41,12.41,0,0,1-8.49-3Z" transform="translate(-2.19)" fill="#fff"/><path d="M39.67,93.14a8.07,8.07,0,0,1-2.79,2.33,7.5,7.5,0,0,1-3.46.82A8.66,8.66,0,0,1,28.8,95a8.43,8.43,0,0,1-3.22-3.66,14.68,14.68,0,0,1,0-11.39,8.85,8.85,0,0,1,3.19-3.72A8.45,8.45,0,0,1,33.42,75a7.78,7.78,0,0,1,3.44.8,7.88,7.88,0,0,1,2.81,2.31V67.73h5.38v28H39.67Zm0-11.12a4.9,4.9,0,0,0-2-1.67,5.92,5.92,0,0,0-2.65-.65,4.67,4.67,0,0,0-3.69,1.64,6.34,6.34,0,0,0-1.43,4.3,6.27,6.27,0,0,0,1.43,4.26,4.64,4.64,0,0,0,3.69,1.64,5.79,5.79,0,0,0,2.65-.65,4.88,4.88,0,0,0,2-1.66Z" transform="translate(-2.19)" fill="#fff"/><path d="M50.38,80.24a10.17,10.17,0,0,1,3.74-3.85A10.31,10.31,0,0,1,59.54,75a9.94,9.94,0,0,1,5.29,1.41,9.54,9.54,0,0,1,3.59,4,12.66,12.66,0,0,1,1.28,5.82V87.3H54.63a5.17,5.17,0,0,0,1.8,3.39,5.89,5.89,0,0,0,4,1.36,8.41,8.41,0,0,0,3-.55A6.77,6.77,0,0,0,65.88,90l2.35,3.45a10.16,10.16,0,0,1-3.69,2.08,14.8,14.8,0,0,1-4.66.73A11.5,11.5,0,0,1,54.33,95a9.63,9.63,0,0,1-3.88-3.74,11.65,11.65,0,0,1-.07-11Zm5.63.32a5.47,5.47,0,0,0-1.47,3.13h10a5.17,5.17,0,0,0-1.37-3.11,4.61,4.61,0,0,0-3.63-1.38A4.57,4.57,0,0,0,56,80.56Z" transform="translate(-2.19)" fill="#fff"/><path d="M87.51,93.14a8.07,8.07,0,0,1-2.79,2.33,7.51,7.51,0,0,1-3.47.82A8.69,8.69,0,0,1,76.63,95a8.47,8.47,0,0,1-3.21-3.66,14.68,14.68,0,0,1,0-11.39,8.78,8.78,0,0,1,3.19-3.72A8.44,8.44,0,0,1,81.25,75a7.8,7.8,0,0,1,3.45.8,7.88,7.88,0,0,1,2.81,2.31v-2.6h5.38V95.74H87.51Zm0-11.08a5,5,0,0,0-2-1.66,5.8,5.8,0,0,0-2.65-.66,4.66,4.66,0,0,0-3.69,1.63,7.08,7.08,0,0,0,0,8.53,4.64,4.64,0,0,0,3.69,1.64,5.79,5.79,0,0,0,2.65-.65,5,5,0,0,0,2-1.66Z" transform="translate(-2.19)" fill="#fff"/><path d="M99.63,94.88a5.51,5.51,0,0,1-1.45-4.14v-23h5.33V89.31a2.45,2.45,0,0,0,.51,1.6,1.62,1.62,0,0,0,1.34.63,3.46,3.46,0,0,0,1.09-.16,1.61,1.61,0,0,0,.72-.42l1.13,4a6.47,6.47,0,0,1-4.41,1.3A5.87,5.87,0,0,1,99.63,94.88Z" transform="translate(-2.19)" fill="#fff"/><path d="M111.24,89.4a10.66,10.66,0,0,0,3.19,1.93,9.8,9.8,0,0,0,3.82.84,4.78,4.78,0,0,0,2.55-.55,1.71,1.71,0,0,0,.86-1.52,1.62,1.62,0,0,0-1-1.49,12.92,12.92,0,0,0-3.07-.93,29.37,29.37,0,0,1-4-1,6.61,6.61,0,0,1-2.77-1.82,5,5,0,0,1-1.18-3.51,5.59,5.59,0,0,1,1-3.19,6.69,6.69,0,0,1,2.88-2.33,10.55,10.55,0,0,1,4.45-.87,12.79,12.79,0,0,1,8.19,2.78L124,81.38a7.64,7.64,0,0,0-2.59-1.68A8.76,8.76,0,0,0,118,79a4.66,4.66,0,0,0-2.33.5,1.56,1.56,0,0,0-.86,1.39,1.4,1.4,0,0,0,.94,1.32,14.29,14.29,0,0,0,2.92.86,26.72,26.72,0,0,1,4.08,1.06,7,7,0,0,1,2.85,1.93,5.28,5.28,0,0,1,1.22,3.67,5.75,5.75,0,0,1-1,3.35,6.65,6.65,0,0,1-3,2.34,12.15,12.15,0,0,1-4.73.84,15.31,15.31,0,0,1-5.06-.84,11.28,11.28,0,0,1-4-2.31Z" transform="translate(-2.19)" fill="#fff"/><path d="M142,89.4a10.53,10.53,0,0,0,3.19,1.93,9.76,9.76,0,0,0,3.82.84,4.72,4.72,0,0,0,2.54-.55,1.69,1.69,0,0,0,.86-1.52,1.6,1.6,0,0,0-1-1.49,12.81,12.81,0,0,0-3.06-.93,29,29,0,0,1-4-1,6.64,6.64,0,0,1-2.78-1.82,5,5,0,0,1-1.17-3.51,5.59,5.59,0,0,1,1-3.19,6.6,6.6,0,0,1,2.87-2.33A10.58,10.58,0,0,1,148.7,75a12.75,12.75,0,0,1,8.19,2.78l-2.14,3.65a7.5,7.5,0,0,0-2.58-1.68,8.8,8.8,0,0,0-3.42-.67,4.66,4.66,0,0,0-2.33.5,1.55,1.55,0,0,0-.87,1.39,1.41,1.41,0,0,0,.95,1.32,14.09,14.09,0,0,0,2.92.86,26.56,26.56,0,0,1,4.07,1.06,7.05,7.05,0,0,1,2.86,1.93,5.28,5.28,0,0,1,1.22,3.67,5.82,5.82,0,0,1-1,3.35,6.73,6.73,0,0,1-3,2.34,12.1,12.1,0,0,1-4.72.84,15.26,15.26,0,0,1-5.06-.84,11.28,11.28,0,0,1-4-2.31Z" transform="translate(-2.19)" fill="#fff"/><path d="M164,94.86a5.5,5.5,0,0,1-1.47-4.13V80.12H159.2V75.46h3.36V69.91h5.38v5.55h4.12v4.66h-4.12v9.19a2.51,2.51,0,0,0,.5,1.6,1.65,1.65,0,0,0,1.35.63,3.5,3.5,0,0,0,1.09-.16,2,2,0,0,0,.76-.42l1.13,4a6.53,6.53,0,0,1-4.45,1.3A5.93,5.93,0,0,1,164,94.86Z" transform="translate(-2.19)" fill="#fff"/><path d="M189.65,93.14a8.07,8.07,0,0,1-2.79,2.33,7.5,7.5,0,0,1-3.46.82A8.66,8.66,0,0,1,178.78,95a8.43,8.43,0,0,1-3.22-3.66,14.68,14.68,0,0,1,0-11.39,8.8,8.8,0,0,1,3.2-3.72A8.39,8.39,0,0,1,183.4,75a7.78,7.78,0,0,1,3.44.8,7.88,7.88,0,0,1,2.81,2.31v-2.6H195V95.74h-5.38Zm0-11.08a4.88,4.88,0,0,0-2-1.66,5.8,5.8,0,0,0-2.65-.66,4.66,4.66,0,0,0-3.69,1.63,7.08,7.08,0,0,0,0,8.53A4.64,4.64,0,0,0,185,91.54a5.79,5.79,0,0,0,2.65-.65,4.88,4.88,0,0,0,2-1.66Z" transform="translate(-2.19)" fill="#fff"/><path d="M200.32,75.46h5.34v2.77a9,9,0,0,1,2.85-2.33,7.58,7.58,0,0,1,3.61-1v5.21a6.84,6.84,0,0,0-1.47-.17,7,7,0,0,0-2.85.68,4.74,4.74,0,0,0-2.14,1.64V95.74h-5.34Z" transform="translate(-2.19)" fill="#fff"/><path d="M218,94.86a5.5,5.5,0,0,1-1.47-4.13V80.12h-3.36V75.46h3.36V69.91h5.38v5.55H226v4.66h-4.11v9.19a2.51,2.51,0,0,0,.5,1.6,1.65,1.65,0,0,0,1.35.63,3.5,3.5,0,0,0,1.09-.16,2,2,0,0,0,.75-.42l1.14,4a6.55,6.55,0,0,1-4.45,1.3A5.93,5.93,0,0,1,218,94.86Z" transform="translate(-2.19)" fill="#fff"/><path d="M28.25,140.86a5.51,5.51,0,0,1-1.47-4.13V126.12H23.42v-4.66h3.36v-5.55h5.38v5.55h4.11v4.66H32.16v9.19a2.45,2.45,0,0,0,.5,1.6,1.63,1.63,0,0,0,1.34.63,3.52,3.52,0,0,0,1.1-.16,2,2,0,0,0,.75-.42L37,141a6.56,6.56,0,0,1-4.46,1.3A5.92,5.92,0,0,1,28.25,140.86Z" transform="translate(-2.19)" fill="#fff"/><path d="M53.66,129.4a3.6,3.6,0,0,0-1-2.86,4.16,4.16,0,0,0-2.81-.84,5.32,5.32,0,0,0-2.65.69,6.44,6.44,0,0,0-2,1.7v13.65H39.93v-28h5.33V124.1a9,9,0,0,1,3-2.22A9.27,9.27,0,0,1,52.4,121a6.67,6.67,0,0,1,4.93,1.68A6.4,6.4,0,0,1,59,127.34v14.4H53.66Z" transform="translate(-2.19)" fill="#fff"/><path d="M64.68,117.53a3.19,3.19,0,1,1,5.44-2.25,3.13,3.13,0,0,1-.92,2.25,3.16,3.16,0,0,1-4.52,0Zm-.39,3.93h5.33v20.28H64.29Z" transform="translate(-2.19)" fill="#fff"/><path d="M75.46,135.4a10.53,10.53,0,0,0,3.19,1.93,9.76,9.76,0,0,0,3.82.84,4.72,4.72,0,0,0,2.54-.55,1.69,1.69,0,0,0,.86-1.52,1.6,1.6,0,0,0-1-1.49,12.81,12.81,0,0,0-3.06-.93,29,29,0,0,1-4-1A6.64,6.64,0,0,1,75,130.85a5,5,0,0,1-1.17-3.51,5.59,5.59,0,0,1,1-3.19,6.6,6.6,0,0,1,2.87-2.33,10.58,10.58,0,0,1,4.45-.87,12.75,12.75,0,0,1,8.19,2.78l-2.14,3.65a7.5,7.5,0,0,0-2.58-1.68,8.8,8.8,0,0,0-3.42-.67,4.66,4.66,0,0,0-2.33.5,1.55,1.55,0,0,0-.87,1.39,1.41,1.41,0,0,0,1,1.32,14.09,14.09,0,0,0,2.92.86,26.56,26.56,0,0,1,4.07,1.06,7.05,7.05,0,0,1,2.86,1.93A5.28,5.28,0,0,1,91,135.76a5.82,5.82,0,0,1-1,3.35,6.73,6.73,0,0,1-3,2.34,12.1,12.1,0,0,1-4.72.84,15.26,15.26,0,0,1-5.06-.84,11.28,11.28,0,0,1-4-2.31Z" transform="translate(-2.19)" fill="#fff"/><path d="M119.22,127.93l-4.28,13.81h-5.72l-6.17-20.28h5.54l3.78,13.65,4.46-13.65h4.74L126,135.11l3.78-13.65h5.55l-6.18,20.28H123.5Z" transform="translate(-2.19)" fill="#fff"/><path d="M138,126.24a10.07,10.07,0,0,1,3.73-3.85,10.34,10.34,0,0,1,5.42-1.44,9.94,9.94,0,0,1,5.29,1.41,9.63,9.63,0,0,1,3.6,4,12.78,12.78,0,0,1,1.28,5.82v1.17H142.28a5.22,5.22,0,0,0,1.8,3.39,5.9,5.9,0,0,0,4,1.36,8.45,8.45,0,0,0,3-.55,6.81,6.81,0,0,0,2.45-1.47l2.36,3.45a10.21,10.21,0,0,1-3.7,2.08,14.76,14.76,0,0,1-4.66.73A11.63,11.63,0,0,1,142,141a9.79,9.79,0,0,1-3.88-3.75,11,11,0,0,1-1.41-5.62A10.8,10.8,0,0,1,138,126.24Zm5.62.32a5.47,5.47,0,0,0-1.47,3.13h10a5.15,5.15,0,0,0-1.36-3.11,4.65,4.65,0,0,0-3.64-1.38A4.57,4.57,0,0,0,143.66,126.56Z" transform="translate(-2.19)" fill="#fff"/><path d="M161.26,126.24a10.09,10.09,0,0,1,3.74-3.85,10.31,10.31,0,0,1,5.42-1.44,9.94,9.94,0,0,1,5.29,1.41,9.54,9.54,0,0,1,3.59,4,12.66,12.66,0,0,1,1.28,5.82v1.17H165.5a5.19,5.19,0,0,0,1.81,3.39,5.89,5.89,0,0,0,4,1.36,8.41,8.41,0,0,0,3-.55,6.77,6.77,0,0,0,2.46-1.47l2.35,3.45a10.16,10.16,0,0,1-3.69,2.08,14.82,14.82,0,0,1-4.67.73,11.59,11.59,0,0,1-5.54-1.32,9.72,9.72,0,0,1-3.88-3.75,11.65,11.65,0,0,1-.07-11Zm5.63.32a5.47,5.47,0,0,0-1.47,3.13h10a5.17,5.17,0,0,0-1.37-3.11,4.64,4.64,0,0,0-3.63-1.38A4.57,4.57,0,0,0,166.89,126.56Z" transform="translate(-2.19)" fill="#fff"/><path d="M192.22,133.93l-2.44,2.61v5.2h-5.33v-28h5.33v16.76l7.69-9H204l-8,9.2,8.27,11.08h-6.68Z" transform="translate(-2.19)" fill="#fff"/><path d="M206.08,126.24a10.07,10.07,0,0,1,3.73-3.85,10.34,10.34,0,0,1,5.42-1.44,9.94,9.94,0,0,1,5.29,1.41,9.54,9.54,0,0,1,3.59,4,12.66,12.66,0,0,1,1.29,5.82v1.17H210.32a5.22,5.22,0,0,0,1.8,3.39,5.9,5.9,0,0,0,4,1.36,8.45,8.45,0,0,0,3-.55,6.81,6.81,0,0,0,2.45-1.47l2.36,3.45a10.21,10.21,0,0,1-3.7,2.08,14.76,14.76,0,0,1-4.66.73A11.63,11.63,0,0,1,210,141a9.79,9.79,0,0,1-3.88-3.75,11,11,0,0,1-1.41-5.62A10.8,10.8,0,0,1,206.08,126.24Zm5.62.32a5.47,5.47,0,0,0-1.47,3.13h10a5.11,5.11,0,0,0-1.37-3.11,5.36,5.36,0,0,0-7.16,0Z" transform="translate(-2.19)" fill="#fff"/><path d="M243,129.48a3.79,3.79,0,0,0-1-2.9,4,4,0,0,0-2.78-.88,5.2,5.2,0,0,0-2.66.69,6.64,6.64,0,0,0-2,1.7v13.65h-5.33V121.46h5.33v2.64a9.38,9.38,0,0,1,7.1-3.15,5.91,5.91,0,0,1,6.6,6.47v14.32H243Z" transform="translate(-2.19)" fill="#fff"/><path d="M267.52,139.14a8.07,8.07,0,0,1-2.79,2.33,7.54,7.54,0,0,1-3.47.82,8.66,8.66,0,0,1-4.62-1.26,8.47,8.47,0,0,1-3.21-3.66,14.56,14.56,0,0,1,0-11.39,8.78,8.78,0,0,1,3.19-3.72,8.44,8.44,0,0,1,4.64-1.31,7.87,7.87,0,0,1,6.26,3.11V113.73h5.38v28h-5.38Zm0-11.12a5,5,0,0,0-2-1.67,5.92,5.92,0,0,0-2.65-.65,4.67,4.67,0,0,0-3.69,1.64,6.29,6.29,0,0,0-1.43,4.3,6.2,6.2,0,0,0,1.43,4.26,4.64,4.64,0,0,0,3.69,1.64,5.79,5.79,0,0,0,2.65-.65,5,5,0,0,0,2-1.66Z" transform="translate(-2.19)" fill="#fff"/><path d="M278.55,136.41a3.2,3.2,0,0,1,2.37-1,3.27,3.27,0,0,1,2.39,1,3.38,3.38,0,0,1-2.39,5.75,3.19,3.19,0,0,1-2.37-1,3.34,3.34,0,0,1,0-4.75Zm-.87-22.68h6.43l-.84,18.9h-4.7Z" transform="translate(-2.19)" fill="#fff"/><path d="M3.82,599.19c1.29-91.93,67.14-154.26,150-154.26S304,514,304,599.19" transform="translate(-2.19)" fill="#e52823"/><g clip-path="url(#clip-path)"><g clip-path="url(#clip-path)"><path d="M46.1,294.44c19.48-5.95,29.31,9,29.31,9s-6.17-20.82-29.31-9" transform="translate(-2.19)" fill="#fff"/><path d="M83.75,295.2c0-.08,0-.62,0-.7a14.55,14.55,0,0,0-7.68,11.18s2.65-6.17,8.88-8a3.74,3.74,0,0,1-1.2-2.45" transform="translate(-2.19)" fill="#fff"/><path d="M58.91,303.9s0,2.94,0,4.43c-.74,0-4-.2-5.4-.26,0,.8,0,1.61,0,2.41,1.7,0,3.47.23,5.17.22,0,1.42,0,2.65,0,4.08-1.7,0-3.41-.13-5.11-.17,0,.87,0,1.73,0,2.6,1.83,0,3.67.19,5.5.17,0-.07,0,4.34,0,4.34-3.63,0-7.92-.28-12-.62l.29-18.1c1.71.2,7,.76,11.65.9" transform="translate(-2.19)" fill="#fff"/><path d="M60.45,303.94l-.07,4.73c1.71.08,3.25.09,3.25.09l0,13.12a42,42,0,0,0,6.53-.09l-.07-13s2.89-.13,3.34-.17c0-1.73,0-3.09-.06-4.83a113.21,113.21,0,0,1-12.9.15" transform="translate(-2.19)" fill="#fff"/><path d="M147.82,301.06v5.49c1.1.06,2.36.28,3.47.38,0,4.57-.12,8-.12,12.61,3.08.37,5.26.72,6.11.87,0-4.57.18-8.18.18-12.75,0,0,3.26.51,3.32.56,0-1.88,0-3.76,0-5.64a98.59,98.59,0,0,0-13-1.52" transform="translate(-2.19)" fill="#fff"/><path d="M39.28,301.13l-7.75-1.4-.05,19c2,.39,3.8.72,5.73.93l0-5.48,2.09.23c3.36.31,6.75-1,6.8-6.46,0-4.87-3.21-6.28-6.8-6.81m-1.44,8.76-.57-.07,0-3.72.55.06a1.9,1.9,0,0,1,1.89,2c0,1.54-1,1.84-1.9,1.74" transform="translate(-2.19)" fill="#fff"/><path d="M104,318.78c.87-2.27,1.74-4.38,2.6-6.64.14,2.16.23,4.12.36,6.29,2.17-.25,3.91-.37,6.09-.51-.57-5.76-1.05-11.95-1.62-17.72l-5.58.51c-1,2.73-2.09,6-3.13,8.76-1-2.52-2-5.48-3-8-1.88.27-5.24.86-5.58.86-.65,5.88-1.38,12.42-2,18.29,1.49-.25,5.11-.83,6.21-1,.16-2.19.33-4.53.5-6.73.84,2.09,1.67,4.19,2.51,6.28.47-.06,2.14-.32,2.7-.41" transform="translate(-2.19)" fill="#fff"/><path d="M143.75,312.73c1.65-.74,2.85-2.35,2.89-5.53.06-4.8-3.33-6.85-6.76-7.11-2.6-.21-5.2-.34-7.8-.41-.08,6.1-.12,11.68-.2,17.78,1.94.05,4.08.2,5.78.34,0-1.71,0-3,.07-4.7,1.11,1.79,2,3.27,3.13,5.09,2.39.21,4.84.52,7.23.87-1.5-2.24-2.85-4.15-4.34-6.33m-5.39-3.9-.57,0c0-1.22,0-2.45,0-3.67l.56,0a1.82,1.82,0,0,1,1.88,1.93,1.58,1.58,0,0,1-1.91,1.74" transform="translate(-2.19)" fill="#fff"/><path d="M125.28,299.55c-2.3,0-4.19,0-6.17.12-1.59,5.92-3.46,12.24-5,18.18,1.77,0,3.56-.15,5.33-.15.16-.63.35-1.35.51-2l2.7-.07c-.06,0,2.38-.08,2.38-.08.06.23.28.86.59,1.89,1.77,0,3.53,0,5.3,0-1.91-6.27-3.84-12.29-5.59-18m-4.23,12c.4-1.51.81-3.11,1.21-4.62.46,1.52.93,3,1.39,4.56a23.29,23.29,0,0,1-2.6.06" transform="translate(-2.19)" fill="#fff"/><path d="M158.67,318.72a1,1,0,0,1,0,1.95,1,1,0,0,1,0-1.95Zm0,.15a.83.83,0,1,0,.78.83.8.8,0,0,0-.78-.83Zm-.18,1.39h-.17v-1.08a1.35,1.35,0,0,1,.31,0,.53.53,0,0,1,.33.08.25.25,0,0,1,.1.23.27.27,0,0,1-.21.26h0c.1,0,.16.1.18.26a1,1,0,0,0,.07.27h-.18a.78.78,0,0,1-.07-.28.21.21,0,0,0-.24-.19h-.12Zm0-.6h.13c.14,0,.26-.05.26-.19s-.07-.19-.26-.19h-.13Z" transform="translate(-2.19)" fill="#fff"/><path d="M75.42,320.19A15.79,15.79,0,0,0,82.59,322c4.06,0,8.3-2.43,8.39-7,.07-3.24-2-4.78-4.86-5.42l-1.53-.35c-.53-.12-1.37-.22-1.36-.93s.9-1,1.49-1a10.91,10.91,0,0,1,4.14.88c.58-1.52,1.15-3.05,1.73-4.57a13.54,13.54,0,0,0-5.91-1.41c-4.08,0-8.19,2.47-8.28,7-.06,3,2.15,4.61,4.8,5.1l1.36.26c.63.13,1.52.2,1.5,1.06s-1.07,1-1.74,1a8.12,8.12,0,0,1-4.66-1.54c-.71,1.59-1.54,3.55-2.24,5.13" transform="translate(-2.19)" fill="#fff"/><path d="M90.1,289.26a4.57,4.57,0,1,0,4.5,4.63,4.56,4.56,0,0,0-4.5-4.63m1.65,1.68a5.46,5.46,0,0,0-4.9,2.87.17.17,0,0,0,0,.07,3.21,3.21,0,0,1,3.9-3.49,3,3,0,0,1,1.08.58l-.07,0" transform="translate(-2.19)" fill="#fff"/></g></g></g><g id="REC"><rect x="1.81" width="300" height="600" fill="none"/></g></g></svg>