<svg xmlns="http://www.w3.org/2000/svg" viewBox="0 0 300 600"><defs><style>.cls-1{fill:#fff;}.cls-2{fill:#e32d27;}.cls-3{fill:#e52a26;}.cls-4{fill:#0075a8;}.cls-5{fill:#ec1c2b;}.cls-6{fill:none;}</style></defs><g id="Layer_2" data-name="Layer 2"><g id="content"><rect class="cls-1" width="300" height="600"/><path class="cls-2" d="M20.08,21H36.23A10,10,0,0,1,41,22.07a7.48,7.48,0,0,1,3,2.85,7.78,7.78,0,0,1,1,3.89,7.18,7.18,0,0,1-1.52,4.69,6.37,6.37,0,0,1-3.77,2.35A6.44,6.44,0,0,1,44,38.38a7.89,7.89,0,0,1,1.7,5,8,8,0,0,1-2.35,5.94,8.88,8.88,0,0,1-6.57,2.34H20.08ZM34.8,33.32a3.6,3.6,0,0,0,2.63-.94,3.3,3.3,0,0,0,1-2.46,3.24,3.24,0,0,0-1-2.4,3.57,3.57,0,0,0-2.6-1H26.62v6.76ZM35,46.11a4.06,4.06,0,0,0,2.9-1,3.72,3.72,0,0,0,0-5.2,4,4,0,0,0-2.9-1H26.62v7.22Z"/><path class="cls-2" d="M52,50.73a6,6,0,0,1-1.59-4.54V21h5.85V44.63a2.69,2.69,0,0,0,.55,1.75,1.79,1.79,0,0,0,1.47.69,3.87,3.87,0,0,0,1.2-.18,1.79,1.79,0,0,0,.78-.46l1.24,4.42a7.09,7.09,0,0,1-4.83,1.42A6.43,6.43,0,0,1,52,50.73Z"/><path class="cls-2" d="M79.42,48.82a9,9,0,0,1-3.06,2.56,8.35,8.35,0,0,1-3.79.89,9.49,9.49,0,0,1-5.06-1.38,9.28,9.28,0,0,1-3.52-4,14.37,14.37,0,0,1-1.27-6.27A14.33,14.33,0,0,1,64,34.41a9.62,9.62,0,0,1,3.5-4.08,9.22,9.22,0,0,1,5.08-1.43,8.65,8.65,0,0,1,6.85,3.41V29.46h5.89V51.67H79.42Zm0-12.13a5.47,5.47,0,0,0-2.16-1.83,6.49,6.49,0,0,0-2.9-.71,5.15,5.15,0,0,0-4,1.78,6.82,6.82,0,0,0-1.56,4.68,6.85,6.85,0,0,0,1.56,4.66,5.14,5.14,0,0,0,4,1.8,6.36,6.36,0,0,0,2.9-.71,5.47,5.47,0,0,0,2.16-1.83Z"/><path class="cls-2" d="M91.2,34.55a10.89,10.89,0,0,1,4.18-4.15,12.21,12.21,0,0,1,6.08-1.5A11.62,11.62,0,0,1,106.79,30a9.24,9.24,0,0,1,3.45,2.88l-3.82,3.58a5.3,5.3,0,0,0-4.69-2.39,5.66,5.66,0,0,0-4.34,1.78,6.53,6.53,0,0,0-1.68,4.68,6.63,6.63,0,0,0,1.68,4.71,5.84,5.84,0,0,0,9-.59l3.82,3.54a9.43,9.43,0,0,1-3.42,2.9,11.39,11.39,0,0,1-5.36,1.15,12.21,12.21,0,0,1-6.08-1.5,10.87,10.87,0,0,1-4.18-4.14,12,12,0,0,1-1.52-6.07A11.9,11.9,0,0,1,91.2,34.55Z"/><path class="cls-2" d="M122.57,43.12,119.9,46v5.7h-5.84V21h5.84V39.35l8.42-9.89h7.18l-8.79,10.07,9.06,12.14h-7.31Z"/><path class="cls-2" d="M150.58,21H172.3V26.6H157.12v6.67H172v5.62H157.12V51.67h-6.54Z"/><path class="cls-2" d="M176.71,29.46h5.84v3a9.84,9.84,0,0,1,3.13-2.55,8.31,8.31,0,0,1,4-1v5.71a7.59,7.59,0,0,0-1.61-.19,7.74,7.74,0,0,0-3.13.74,5.24,5.24,0,0,0-2.35,1.8V51.67h-5.84Z"/><path class="cls-2" d="M193.71,25.16a3.4,3.4,0,0,1-1-2.47,3.5,3.5,0,1,1,7,0,3.42,3.42,0,0,1-1,2.47,3.36,3.36,0,0,1-2.48,1A3.39,3.39,0,0,1,193.71,25.16Zm-.44,4.3h5.84V51.67h-5.84Z"/><path class="cls-2" d="M220.18,48.82a9,9,0,0,1-3.06,2.56,8.35,8.35,0,0,1-3.79.89,9.49,9.49,0,0,1-5.06-1.38,9.22,9.22,0,0,1-3.52-4,14.23,14.23,0,0,1-1.27-6.27,14.18,14.18,0,0,1,1.27-6.2,9.67,9.67,0,0,1,3.49-4.08,9.25,9.25,0,0,1,5.09-1.43,8.58,8.58,0,0,1,3.77.88,8.67,8.67,0,0,1,3.08,2.53V21h5.89V51.67h-5.89Zm0-12.18A5.37,5.37,0,0,0,218,34.82a6.38,6.38,0,0,0-2.9-.72,5.12,5.12,0,0,0-4.05,1.8,6.94,6.94,0,0,0-1.56,4.71,6.85,6.85,0,0,0,1.56,4.66,5.12,5.12,0,0,0,4.05,1.8,6.36,6.36,0,0,0,2.9-.71,5.47,5.47,0,0,0,2.16-1.83Z"/><path class="cls-2" d="M247.14,48.82a9,9,0,0,1-3.06,2.56,8.39,8.39,0,0,1-3.8.89,9.49,9.49,0,0,1-5.06-1.38,9.35,9.35,0,0,1-3.52-4,14.37,14.37,0,0,1-1.26-6.27,14.33,14.33,0,0,1,1.26-6.2,9.69,9.69,0,0,1,3.5-4.08,9.24,9.24,0,0,1,5.08-1.43,8.52,8.52,0,0,1,3.77.88,8.62,8.62,0,0,1,3.09,2.53V29.46H253V51.67h-5.88Zm0-12.13A5.5,5.5,0,0,0,245,34.86a6.45,6.45,0,0,0-2.89-.71A5.12,5.12,0,0,0,238,35.93a6.82,6.82,0,0,0-1.57,4.68A6.86,6.86,0,0,0,238,45.27a5.11,5.11,0,0,0,4.05,1.8,6.32,6.32,0,0,0,2.89-.71,5.5,5.5,0,0,0,2.17-1.83Z"/><path class="cls-2" d="M261.17,53.15a7,7,0,0,0,2.94,2.07,10.32,10.32,0,0,0,3.73.69,6.14,6.14,0,0,0,4.41-1.48,5.54,5.54,0,0,0,1.57-4.23V47.9a10.54,10.54,0,0,1-3.29,2.39,10.24,10.24,0,0,1-4.53,1q-3.6,0-5.38-1.84a7.05,7.05,0,0,1-1.8-5.15V29.46h5.84V42a4,4,0,0,0,1.06,3.15,4.43,4.43,0,0,0,3,.94,6,6,0,0,0,2.9-.73,7.11,7.11,0,0,0,2.16-1.8V29.46h5.84V49.93a10,10,0,0,1-3.2,7.93q-3.19,2.84-8.62,2.83a13.6,13.6,0,0,1-9.3-3.31Z"/><path class="cls-2" d="M35.22,92.82a9,9,0,0,1-3.06,2.56,8.39,8.39,0,0,1-3.8.89,9.52,9.52,0,0,1-5.06-1.38,9.26,9.26,0,0,1-3.51-4,15.94,15.94,0,0,1,0-12.47,9.6,9.6,0,0,1,3.49-4.08,9.24,9.24,0,0,1,5.08-1.43,8.65,8.65,0,0,1,6.86,3.41V65h5.89V95.67H35.22Zm0-12.18a5.37,5.37,0,0,0-2.16-1.82,6.41,6.41,0,0,0-2.9-.72,5.11,5.11,0,0,0-4.05,1.8,6.94,6.94,0,0,0-1.56,4.71,6.85,6.85,0,0,0,1.56,4.66,5.11,5.11,0,0,0,4.05,1.8,6.39,6.39,0,0,0,2.9-.71,5.47,5.47,0,0,0,2.16-1.83Z"/><path class="cls-2" d="M47,78.69A11.12,11.12,0,0,1,51,74.47,11.41,11.41,0,0,1,57,72.9a10.9,10.9,0,0,1,5.79,1.55,10.38,10.38,0,0,1,3.94,4.32,14,14,0,0,1,1.4,6.37v1.29H51.59a5.76,5.76,0,0,0,2,3.71A6.5,6.5,0,0,0,58,91.63a9.36,9.36,0,0,0,3.24-.6,7.65,7.65,0,0,0,2.69-1.61l2.58,3.77a11.13,11.13,0,0,1-4,2.28,16.41,16.41,0,0,1-5.11.8,12.66,12.66,0,0,1-6.07-1.45A10.62,10.62,0,0,1,47,90.72a12.77,12.77,0,0,1-.07-12Zm6.16.35a6.05,6.05,0,0,0-1.61,3.43h11A5.61,5.61,0,0,0,61,79.07a5.09,5.09,0,0,0-4-1.52A5,5,0,0,0,53.11,79Z"/><path class="cls-2" d="M87.61,92.82a9,9,0,0,1-3.06,2.56,8.35,8.35,0,0,1-3.79.89,9.49,9.49,0,0,1-5.06-1.38,9.22,9.22,0,0,1-3.52-4,15.94,15.94,0,0,1,0-12.47,9.67,9.67,0,0,1,3.49-4.08,9.28,9.28,0,0,1,5.09-1.43,8.65,8.65,0,0,1,6.85,3.41V73.46H93.5V95.67H87.61Zm0-12.13a5.47,5.47,0,0,0-2.16-1.83,6.49,6.49,0,0,0-2.9-.71,5.15,5.15,0,0,0-4,1.78,7.77,7.77,0,0,0,0,9.34,5.14,5.14,0,0,0,4,1.8,6.36,6.36,0,0,0,2.9-.71,5.47,5.47,0,0,0,2.16-1.83Z"/><path class="cls-2" d="M100.88,94.73a6,6,0,0,1-1.58-4.54V65h5.84V88.63a2.69,2.69,0,0,0,.55,1.75,1.79,1.79,0,0,0,1.47.69,3.87,3.87,0,0,0,1.2-.18,1.68,1.68,0,0,0,.78-.46l1.24,4.42a7.09,7.09,0,0,1-4.83,1.42A6.45,6.45,0,0,1,100.88,94.73Z"/><path class="cls-2" d="M113.6,88.73a11.55,11.55,0,0,0,3.5,2.11,10.73,10.73,0,0,0,4.18.92,5.26,5.26,0,0,0,2.79-.6,1.9,1.9,0,0,0,.94-1.67,1.77,1.77,0,0,0-1.11-1.63,14.22,14.22,0,0,0-3.35-1,33.38,33.38,0,0,1-4.42-1.1,7.31,7.31,0,0,1-3-2,5.51,5.51,0,0,1-1.28-3.84,6.15,6.15,0,0,1,1.08-3.5A7.36,7.36,0,0,1,116,73.85a11.62,11.62,0,0,1,4.87-.95,14,14,0,0,1,9,3l-2.34,4a8.36,8.36,0,0,0-2.83-1.84,9.68,9.68,0,0,0-3.75-.73,5,5,0,0,0-2.55.55,1.69,1.69,0,0,0-1,1.52,1.54,1.54,0,0,0,1,1.44,15.4,15.4,0,0,0,3.2,1A30.63,30.63,0,0,1,126.16,83a7.75,7.75,0,0,1,3.13,2.12,5.79,5.79,0,0,1,1.33,4,6.34,6.34,0,0,1-1.13,3.67,7.37,7.37,0,0,1-3.31,2.56,13.34,13.34,0,0,1-5.17.92,16.87,16.87,0,0,1-5.55-.92,12.31,12.31,0,0,1-4.39-2.53Z"/><path class="cls-2" d="M147.32,88.73a11.61,11.61,0,0,0,3.49,2.11,10.82,10.82,0,0,0,4.19.92,5.22,5.22,0,0,0,2.78-.6,1.89,1.89,0,0,0,.95-1.67,1.77,1.77,0,0,0-1.11-1.63,14.18,14.18,0,0,0-3.36-1,32.79,32.79,0,0,1-4.41-1.1,7.31,7.31,0,0,1-3-2,5.47,5.47,0,0,1-1.29-3.84,6.15,6.15,0,0,1,1.08-3.5,7.42,7.42,0,0,1,3.15-2.55,11.7,11.7,0,0,1,4.88-.95,14,14,0,0,1,9,3l-2.35,4a8.22,8.22,0,0,0-2.82-1.84,9.68,9.68,0,0,0-3.75-.73,5,5,0,0,0-2.56.55,1.7,1.7,0,0,0-.94,1.52,1.54,1.54,0,0,0,1,1.44,15.47,15.47,0,0,0,3.19,1A30.46,30.46,0,0,1,159.88,83,7.72,7.72,0,0,1,163,85.1a5.79,5.79,0,0,1,1.34,4,6.34,6.34,0,0,1-1.13,3.67,7.43,7.43,0,0,1-3.31,2.56,13.36,13.36,0,0,1-5.18.92,16.81,16.81,0,0,1-5.54-.92,12.22,12.22,0,0,1-4.39-2.53Z"/><path class="cls-2" d="M171.42,94.7a6,6,0,0,1-1.61-4.52V78.56h-3.68v-5.1h3.68V67.38h5.89v6.08h4.51v5.1H175.7V88.63a2.71,2.71,0,0,0,.55,1.75,1.79,1.79,0,0,0,1.47.69,3.87,3.87,0,0,0,1.2-.18,2.15,2.15,0,0,0,.83-.46L181,94.85a7.18,7.18,0,0,1-4.88,1.42A6.44,6.44,0,0,1,171.42,94.7Z"/><path class="cls-2" d="M199.48,92.82a9,9,0,0,1-3.06,2.56,8.35,8.35,0,0,1-3.79.89,9.49,9.49,0,0,1-5.06-1.38,9.22,9.22,0,0,1-3.52-4,15.94,15.94,0,0,1,0-12.47,9.67,9.67,0,0,1,3.49-4.08,9.25,9.25,0,0,1,5.09-1.43,8.58,8.58,0,0,1,3.77.88,8.67,8.67,0,0,1,3.08,2.53V73.46h5.89V95.67h-5.89Zm0-12.13a5.47,5.47,0,0,0-2.16-1.83,6.49,6.49,0,0,0-2.9-.71,5.14,5.14,0,0,0-4,1.78,7.77,7.77,0,0,0,0,9.34,5.12,5.12,0,0,0,4,1.8,6.36,6.36,0,0,0,2.9-.71,5.47,5.47,0,0,0,2.16-1.83Z"/><path class="cls-2" d="M211.17,73.46H217v3a9.8,9.8,0,0,1,3.12-2.55,8.31,8.31,0,0,1,4-1v5.71a7.59,7.59,0,0,0-1.61-.19,7.78,7.78,0,0,0-3.13.74A5.21,5.21,0,0,0,217,81V95.67h-5.84Z"/><path class="cls-2" d="M230.48,94.7a6,6,0,0,1-1.61-4.52V78.56h-3.68v-5.1h3.68V67.38h5.89v6.08h4.51v5.1h-4.51V88.63a2.77,2.77,0,0,0,.55,1.75,1.8,1.8,0,0,0,1.48.69,3.85,3.85,0,0,0,1.19-.18,2.08,2.08,0,0,0,.83-.46l1.24,4.42a7.17,7.17,0,0,1-4.87,1.42A6.46,6.46,0,0,1,230.48,94.7Z"/><path class="cls-2" d="M22.71,138.7a6,6,0,0,1-1.61-4.52V122.56H17.42v-5.1H21.1v-6.08H27v6.08h4.51v5.1H27v10.07a2.72,2.72,0,0,0,.56,1.75,1.77,1.77,0,0,0,1.47.69,3.76,3.76,0,0,0,1.19-.18,2.08,2.08,0,0,0,.83-.46l1.24,4.42a7.15,7.15,0,0,1-4.87,1.42A6.42,6.42,0,0,1,22.71,138.7Z"/><path class="cls-2" d="M50.54,126.15A4,4,0,0,0,49.48,123a4.59,4.59,0,0,0-3.08-.92,5.71,5.71,0,0,0-2.9.76,7,7,0,0,0-2.16,1.86v14.95H35.49V109h5.85v11.36a9.64,9.64,0,0,1,3.24-2.43,10.11,10.11,0,0,1,4.58-1,7.29,7.29,0,0,1,5.4,1.84,7,7,0,0,1,1.82,5.16v15.77H50.54Z"/><path class="cls-2" d="M62.61,113.16a3.39,3.39,0,0,1-1-2.47,3.52,3.52,0,0,1,3.49-3.49,3.42,3.42,0,0,1,2.49,1,3.38,3.38,0,0,1,1,2.48,3.45,3.45,0,0,1-1,2.47,3.49,3.49,0,0,1-5,0Zm-.44,4.3H68v22.21H62.17Z"/><path class="cls-2" d="M74.41,132.73a11.55,11.55,0,0,0,3.5,2.11,10.73,10.73,0,0,0,4.18.92,5.19,5.19,0,0,0,2.78-.6,1.89,1.89,0,0,0,.95-1.67,1.77,1.77,0,0,0-1.11-1.63,14.22,14.22,0,0,0-3.35-1,33,33,0,0,1-4.42-1.1,7.31,7.31,0,0,1-3-2,5.47,5.47,0,0,1-1.28-3.84,6.15,6.15,0,0,1,1.08-3.5,7.36,7.36,0,0,1,3.15-2.55,11.62,11.62,0,0,1,4.87-.95,14,14,0,0,1,9,3l-2.34,4a8.36,8.36,0,0,0-2.83-1.84,9.68,9.68,0,0,0-3.75-.73,5,5,0,0,0-2.55.55,1.69,1.69,0,0,0-1,1.52,1.54,1.54,0,0,0,1,1.44,15.47,15.47,0,0,0,3.19,1A30.46,30.46,0,0,1,87,127a7.66,7.66,0,0,1,3.12,2.12,5.79,5.79,0,0,1,1.34,4,6.34,6.34,0,0,1-1.13,3.67A7.37,7.37,0,0,1,87,139.35a13.34,13.34,0,0,1-5.17.92,16.87,16.87,0,0,1-5.55-.92,12.22,12.22,0,0,1-4.39-2.53Z"/><path class="cls-2" d="M26.62,163.07v20.6H20.08V153H26.8L41,172.86V153h6.54v30.68H41.24Z"/><path class="cls-2" d="M57.57,182.71a10.64,10.64,0,0,1-4.09-4.25,12.78,12.78,0,0,1,0-11.75,10.68,10.68,0,0,1,4.09-4.24,13.17,13.17,0,0,1,12.47,0,10.68,10.68,0,0,1,4.09,4.24,12.78,12.78,0,0,1,0,11.75A10.64,10.64,0,0,1,70,182.71a13.24,13.24,0,0,1-12.47,0ZM68,177.2A7.68,7.68,0,0,0,68,168a5.12,5.12,0,0,0-4.17-1.87A5.06,5.06,0,0,0,59.64,168a7.77,7.77,0,0,0,0,9.23,5.06,5.06,0,0,0,4.14,1.87A5.12,5.12,0,0,0,68,177.2Z"/><path class="cls-2" d="M76.71,161.46H83l5.8,15.45,5.8-15.45h6.3l-8.93,22.21h-6.3Z"/><path class="cls-2" d="M103.53,166.69a11.12,11.12,0,0,1,4.09-4.22,11.4,11.4,0,0,1,5.93-1.57,10.92,10.92,0,0,1,5.8,1.55,10.29,10.29,0,0,1,3.93,4.32,13.89,13.89,0,0,1,1.41,6.37v1.29H108.17a5.72,5.72,0,0,0,2,3.71,6.48,6.48,0,0,0,4.42,1.49,9.36,9.36,0,0,0,3.24-.6,7.74,7.74,0,0,0,2.69-1.61l2.58,3.77a11.21,11.21,0,0,1-4,2.28,16.41,16.41,0,0,1-5.11.8,12.63,12.63,0,0,1-6.07-1.45,10.71,10.71,0,0,1-4.26-4.1,12.11,12.11,0,0,1-1.54-6.16A11.8,11.8,0,0,1,103.53,166.69Zm6.16.35a6,6,0,0,0-1.61,3.43h11a5.57,5.57,0,0,0-1.5-3.4,5.86,5.86,0,0,0-7.84,0Z"/><path class="cls-2" d="M156.47,169.64a3.92,3.92,0,0,0-.8-2.6,3.16,3.16,0,0,0-2.51-.94,4.85,4.85,0,0,0-2.65.78,7.22,7.22,0,0,0-1.95,1.8v15h-5.89v-14a3.92,3.92,0,0,0-.8-2.6,3.16,3.16,0,0,0-2.51-.94,4.85,4.85,0,0,0-2.62.78,6.9,6.9,0,0,0-2,1.84v14.95h-5.84V161.46h5.84v2.89a8.34,8.34,0,0,1,2.9-2.32A9,9,0,0,1,142,160.9,6.94,6.94,0,0,1,146,162a5.62,5.62,0,0,1,2.21,3,9.47,9.47,0,0,1,7.64-4,6.6,6.6,0,0,1,4.83,1.68,6.81,6.81,0,0,1,1.7,5v16h-5.89Z"/><path class="cls-2" d="M168.11,153H174v11.32a8.67,8.67,0,0,1,3.08-2.53,8.58,8.58,0,0,1,3.77-.88,9.25,9.25,0,0,1,5.09,1.43,9.6,9.6,0,0,1,3.49,4.08,15.94,15.94,0,0,1,0,12.47,9.26,9.26,0,0,1-3.51,4,9.55,9.55,0,0,1-5.07,1.38,8.38,8.38,0,0,1-3.79-.89,9,9,0,0,1-3.06-2.56v2.85h-5.84Zm8,25.37a6.26,6.26,0,0,0,2.85.71,5.21,5.21,0,0,0,4.1-1.77,6.86,6.86,0,0,0,1.56-4.69,6.94,6.94,0,0,0-1.56-4.71,5.17,5.17,0,0,0-4.1-1.8,6.18,6.18,0,0,0-2.85.74,5.59,5.59,0,0,0-2.16,1.85v7.89A5.63,5.63,0,0,0,176.11,178.36Z"/><path class="cls-2" d="M195.11,166.69a11.15,11.15,0,0,1,4.1-4.22,11.35,11.35,0,0,1,5.93-1.57,10.86,10.86,0,0,1,5.79,1.55,10.38,10.38,0,0,1,3.94,4.32,14,14,0,0,1,1.4,6.37v1.29H199.76a5.67,5.67,0,0,0,2,3.71,6.45,6.45,0,0,0,4.41,1.49,9.36,9.36,0,0,0,3.24-.6,7.65,7.65,0,0,0,2.69-1.61l2.58,3.77a11,11,0,0,1-4,2.28,16.3,16.3,0,0,1-5.1.8,12.67,12.67,0,0,1-6.08-1.45,10.68,10.68,0,0,1-4.25-4.1,12.77,12.77,0,0,1-.07-12Zm6.17.35a6,6,0,0,0-1.61,3.43h10.94a5.61,5.61,0,0,0-1.49-3.4,5.08,5.08,0,0,0-4-1.52A5,5,0,0,0,201.28,167Z"/><path class="cls-2" d="M220.5,161.46h5.84v3a9.84,9.84,0,0,1,3.13-2.55,8.31,8.31,0,0,1,4-1v5.71a7.59,7.59,0,0,0-1.61-.19,7.74,7.74,0,0,0-3.13.74,5.24,5.24,0,0,0-2.35,1.8v14.71H220.5Z"/><path class="cls-2" d="M233.43,177.92a3.66,3.66,0,1,1-1.11,2.63A3.59,3.59,0,0,1,233.43,177.92Z"/><rect class="cls-3" x="15.53" y="216.14" width="189.05" height="38.8" rx="18.44"/><path class="cls-1" d="M51.32,239.13a3.41,3.41,0,0,0,2.52,1.22,2.5,2.5,0,0,0,1.89-.73,2.7,2.7,0,0,0,.7-2v-10H59v10.09a4.7,4.7,0,0,1-1.37,3.68,5.77,5.77,0,0,1-7.51-.29Z"/><path class="cls-1" d="M64,241.89a5.13,5.13,0,0,1-1.92-2,6,6,0,0,1-.68-2.84,6,6,0,0,1,.68-2.81,5.16,5.16,0,0,1,1.92-2,5.47,5.47,0,0,1,2.88-.75,5.53,5.53,0,0,1,2.91.75,5.2,5.2,0,0,1,1.92,2,5.94,5.94,0,0,1,.68,2.82,6,6,0,0,1-.68,2.84,5.13,5.13,0,0,1-1.92,2,5.53,5.53,0,0,1-2.91.75A5.47,5.47,0,0,1,64,241.89Zm5.15-2.33A3.94,3.94,0,0,0,70,237a3.87,3.87,0,0,0-.83-2.51,2.74,2.74,0,0,0-2.27-1,2.71,2.71,0,0,0-2.24,1,3.87,3.87,0,0,0-.83,2.51,3.94,3.94,0,0,0,.83,2.54,2.71,2.71,0,0,0,2.24,1A2.74,2.74,0,0,0,69.17,239.56Z"/><path class="cls-1" d="M74.89,229.5a1.42,1.42,0,0,1,0-2,1.4,1.4,0,0,1,1-.42,1.44,1.44,0,0,1,0,2.88A1.4,1.4,0,0,1,74.89,229.5Zm-.14,2.19h2.32v10.67H74.75Z"/><path class="cls-1" d="M87.28,235.68a1.89,1.89,0,0,0-2.15-2.2,3.2,3.2,0,0,0-1.57.41,3.88,3.88,0,0,0-1.17,1v7.45H80.07V231.69h2.32v1.45A5.14,5.14,0,0,1,84,231.93a4.72,4.72,0,0,1,2.17-.51,3.08,3.08,0,0,1,3.45,3.43v7.51H87.28Z"/><path class="cls-1" d="M106.74,231.49l-2.85,10.87h-2.76l-4.22-14.74H99.8L102.68,239l3-11.36h2l3,11.36,2.85-11.36h2.9l-4.2,14.74h-2.76Z"/><path class="cls-1" d="M124.86,240.9a4.43,4.43,0,0,1-1.51,1.28,4.08,4.08,0,0,1-1.91.46,4.42,4.42,0,0,1-4.15-2.61,7.7,7.7,0,0,1,0-6,4.59,4.59,0,0,1,1.69-2,4.49,4.49,0,0,1,2.46-.69,4.2,4.2,0,0,1,3.42,1.75v-1.48h2.32v10.67h-2.32Zm0-6a2.9,2.9,0,0,0-1.17-1,3.25,3.25,0,0,0-1.59-.41,2.73,2.73,0,0,0-2.19,1,4.45,4.45,0,0,0,0,5.12,2.71,2.71,0,0,0,2.19,1,3.35,3.35,0,0,0,1.59-.4,2.8,2.8,0,0,0,1.17-1Z"/><path class="cls-1" d="M130.33,229.5a1.42,1.42,0,0,1,0-2,1.4,1.4,0,0,1,1-.42,1.44,1.44,0,0,1,0,2.88A1.4,1.4,0,0,1,130.33,229.5Zm-.14,2.19h2.32v10.67h-2.32Z"/><path class="cls-1" d="M136.67,241.94a2.83,2.83,0,0,1-.69-2v-6.18h-1.77v-2H136v-2.92h2.32v2.92h2.16v2H138.3v5.61a1.52,1.52,0,0,0,.26.92.9.9,0,0,0,.75.34,1.83,1.83,0,0,0,.61-.11.94.94,0,0,0,.43-.27l.56,1.75a3.09,3.09,0,0,1-2.19.68A2.77,2.77,0,0,1,136.67,241.94Z"/><path class="cls-1" d="M143.26,241.94a2.76,2.76,0,0,1-.7-2V227.62h2.32v11.71a1.46,1.46,0,0,0,.27.92.87.87,0,0,0,.75.34,1.77,1.77,0,0,0,.6-.11,1,1,0,0,0,.42-.27l.55,1.75a3.05,3.05,0,0,1-2.17.68A2.73,2.73,0,0,1,143.26,241.94Z"/><path class="cls-1" d="M149,229.5a1.42,1.42,0,0,1,0-2,1.44,1.44,0,0,1,2,0,1.45,1.45,0,0,1,0,2,1.44,1.44,0,0,1-2,0Zm-.14,2.19h2.32v10.67h-2.32Z"/><path class="cls-1" d="M154.32,239.31a5,5,0,0,0,1.61,1.06,5.11,5.11,0,0,0,2,.44,2.91,2.91,0,0,0,1.56-.34,1.1,1.1,0,0,0,.54-1,1,1,0,0,0-.62-1,7.48,7.48,0,0,0-1.81-.59,17.26,17.26,0,0,1-2.07-.56,3.53,3.53,0,0,1-1.38-.95,2.59,2.59,0,0,1-.57-1.76,2.82,2.82,0,0,1,.5-1.63,3.48,3.48,0,0,1,1.44-1.18,5.42,5.42,0,0,1,2.26-.44,6.05,6.05,0,0,1,4.15,1.5l-1,1.64a3.65,3.65,0,0,0-1.35-.93,4.53,4.53,0,0,0-1.81-.35,2.75,2.75,0,0,0-1.46.32,1,1,0,0,0-.53.87.9.9,0,0,0,.58.84,8.35,8.35,0,0,0,1.74.55,13.79,13.79,0,0,1,2.1.59,3.53,3.53,0,0,1,1.44,1,2.78,2.78,0,0,1,.59,1.86,2.92,2.92,0,0,1-1.17,2.39,5.13,5.13,0,0,1-3.27.93,7.4,7.4,0,0,1-2.56-.43,5.35,5.35,0,0,1-2-1.22Z"/><path class="cls-1" d="M165.78,241.94a2.79,2.79,0,0,1-.7-2v-6.18h-1.77v-2h1.77v-2.92h2.32v2.92h2.16v2H167.4v5.61a1.52,1.52,0,0,0,.26.92.9.9,0,0,0,.75.34,1.83,1.83,0,0,0,.61-.11.89.89,0,0,0,.43-.27L170,242a3.09,3.09,0,0,1-2.19.68A2.73,2.73,0,0,1,165.78,241.94Z"/><path class="cls-4" d="M34.54,280.17c22-6.72,33.11,10.13,33.11,10.13S60.67,266.78,34.54,280.17Z"/><path class="cls-4" d="M77.07,281c0-.1,0-.7,0-.8a16.45,16.45,0,0,0-8.68,12.63s3-7,10-9.07A4.25,4.25,0,0,1,77.07,281Z"/><path class="cls-5" d="M49,290.86s-.06,3.33,0,5c-.84,0-4.49-.23-6.1-.29,0,.89,0,1.82,0,2.71,1.92,0,3.92.27,5.84.25,0,1.61,0,3,0,4.62-1.92,0-3.85-.16-5.77-.2l0,2.94c2.07.05,4.14.22,6.21.19,0-.07,0,4.91,0,4.91-4.09,0-8.94-.32-13.54-.71l.32-20.45C37.78,290.07,43.78,290.71,49,290.86Z"/><path class="cls-5" d="M50.75,290.91l-.08,5.34c1.93.1,3.67.1,3.67.1l0,14.82a45.59,45.59,0,0,0,7.38-.1l-.09-14.68s3.27-.15,3.78-.19c0-2-.06-3.5-.07-5.46A128.65,128.65,0,0,1,50.75,290.91Z"/><path class="cls-4" d="M149.46,287.65c0,2.13,0,4.08,0,6.2,1.25.07,2.67.32,3.92.43,0,5.17-.12,9.08-.13,14.25,3.48.42,5.94.82,6.9,1,0-5.17.2-9.24.21-14.41,0,0,3.68.57,3.75.63v-6.37A112.32,112.32,0,0,0,149.46,287.65Z"/><path class="cls-5" d="M26.83,287.74l-8.76-1.59L18,307.61c2.25.44,4.3.81,6.49,1.05l0-6.2c.77.09,1.59.19,2.36.26,3.8.35,7.63-1.08,7.68-7.29C34.56,289.93,30.89,288.34,26.83,287.74Zm-1.62,9.89-.65-.07c0-1.41,0-2.81,0-4.21l.61.07a2.14,2.14,0,0,1,2.14,2.25C27.34,297.4,26.27,297.74,25.21,297.63Z"/><path class="cls-4" d="M99.9,307.67c1-2.56,2-4.95,2.95-7.5.15,2.45.25,4.66.4,7.1,2.45-.27,4.41-.41,6.88-.56-.64-6.52-1.19-13.51-1.83-20l-6.3.57c-1.18,3.08-2.36,6.82-3.54,9.89-1.14-2.84-2.28-6.19-3.42-9-2.13.3-5.92,1-6.31,1-.73,6.64-1.56,14-2.29,20.67,1.68-.29,5.77-.95,7-1.11.19-2.48.38-5.13.56-7.61l2.85,7.1C97.39,308.07,99.27,307.77,99.9,307.67Z"/><path class="cls-4" d="M144.85,300.84c1.87-.84,3.22-2.65,3.27-6.24.08-5.43-3.76-7.75-7.64-8-2.93-.24-5.87-.39-8.81-.47-.09,6.89-.13,13.2-.22,20.09,2.19.06,4.6.23,6.52.39,0-1.94.06-3.38.08-5.32,1.26,2,2.28,3.7,3.54,5.75,2.7.25,5.47.59,8.17,1C148.07,305.46,146.54,303.31,144.85,300.84Zm-6.08-4.41-.65,0c0-1.38,0-2.77,0-4.15l.63,0a2.06,2.06,0,0,1,2.13,2.18A1.78,1.78,0,0,1,138.77,296.43Z"/><path class="cls-4" d="M124,285.94c-2.61,0-4.75.05-7,.14-1.79,6.69-3.91,13.84-5.7,20.55,2,0,4-.18,6-.18.19-.7.4-1.52.58-2.23l3-.07c-.06,0,2.69-.09,2.69-.09.07.26.32,1,.67,2.13,2,.05,4-.05,6,.06C128.15,299.17,126,292.36,124,285.94Zm-4.79,13.57c.45-1.71.92-3.52,1.37-5.22q.78,2.56,1.57,5.15C119.15,299.55,119.14,299.51,119.21,299.51Z"/><path class="cls-4" d="M161.71,307.61a1.1,1.1,0,1,1-1.09,1.09,1.08,1.08,0,0,1,1.09-1.09Zm0,.17a.93.93,0,0,0,0,1.85.88.88,0,0,0,.88-.92.9.9,0,0,0-.88-.93Zm-.21,1.56h-.19v-1.22a2.86,2.86,0,0,1,.34,0,.65.65,0,0,1,.38.09.3.3,0,0,1,.12.26.3.3,0,0,1-.24.29h0c.1,0,.18.12.2.3a1,1,0,0,0,.08.3H162a1.56,1.56,0,0,1-.08-.31.23.23,0,0,0-.26-.21h-.14Zm0-.67h.14c.16,0,.3-.06.3-.21s-.08-.22-.3-.22h-.14Z"/><path class="cls-4" d="M67.66,309.27a18,18,0,0,0,8.1,2.05c4.59,0,9.38-2.74,9.49-7.88.07-3.66-2.26-5.39-5.5-6.12L78,296.93c-.59-.14-1.55-.25-1.53-1.06s1-1.14,1.68-1.14a12.36,12.36,0,0,1,4.68,1l2-5.16A15.28,15.28,0,0,0,78.12,289c-4.61,0-9.25,2.79-9.35,7.9-.06,3.37,2.43,5.21,5.42,5.77l1.54.29c.7.14,1.71.22,1.69,1.2s-1.21,1.08-2,1.07a9.07,9.07,0,0,1-5.26-1.73C69.39,305.26,68.46,307.48,67.66,309.27Z"/><path class="cls-5" d="M84.24,274.32a5.16,5.16,0,1,0,5.09,5.23A5.17,5.17,0,0,0,84.24,274.32Zm1.87,1.9a6.2,6.2,0,0,0-5.54,3.24s0,.06,0,.09a3.93,3.93,0,0,1,.12-1.44,3.41,3.41,0,0,1,5.51-1.86S86.14,276.23,86.11,276.22Z"/></g><g id="REC"><rect class="cls-6" width="300" height="600"/></g></g></svg>