<svg xmlns="http://www.w3.org/2000/svg" viewBox="0 0 300 600"><g id="Layer_2" data-name="Layer 2"><g id="REC"><rect width="300" height="600" fill="none"/></g><g id="sbhd"><path d="M25.41,187.49a10.71,10.71,0,0,1-4.32-.8,9.33,9.33,0,0,1-3-2.06l1.78-2.46a8.58,8.58,0,0,0,2.36,1.75,7,7,0,0,0,3.34.76,5.43,5.43,0,0,0,1.66-.22,3.15,3.15,0,0,0,1.1-.56,2.23,2.23,0,0,0,.62-.8,2.11,2.11,0,0,0,.21-.9,1.63,1.63,0,0,0-.77-1.45,7.91,7.91,0,0,0-1.95-.85c-.78-.23-1.62-.46-2.52-.67a12.84,12.84,0,0,1-2.53-.9,5.28,5.28,0,0,1-1.94-1.55,4.16,4.16,0,0,1-.77-2.63,4.71,4.71,0,0,1,.47-2.09,5.24,5.24,0,0,1,1.33-1.68,6.26,6.26,0,0,1,2.06-1.12,8.51,8.51,0,0,1,2.7-.4,10.37,10.37,0,0,1,3.8.66,8.58,8.58,0,0,1,2.92,1.88l-1.78,2.35a6.62,6.62,0,0,0-2.44-1.58,7.92,7.92,0,0,0-2.8-.5,3.54,3.54,0,0,0-2.2.62,1.92,1.92,0,0,0-.82,1.62,1.42,1.42,0,0,0,.77,1.29,7.89,7.89,0,0,0,1.94.79l2.53.66a11.49,11.49,0,0,1,2.52.94,5.82,5.82,0,0,1,1.95,1.62,4.36,4.36,0,0,1,.77,2.69,5.75,5.75,0,0,1-.41,2.15,4.93,4.93,0,0,1-1.25,1.78A6.09,6.09,0,0,1,28.54,187,9.71,9.71,0,0,1,25.41,187.49Z" fill="#e32d27"/><path d="M44,187.16V179a2.56,2.56,0,0,0-.7-2.1,3,3,0,0,0-1.92-.55,3.7,3.7,0,0,0-2,.54A4.89,4.89,0,0,0,38.05,178v9.12H35.21v-18h2.84v6.72a5.78,5.78,0,0,1,.79-.76,6.59,6.59,0,0,1,1.06-.67,6,6,0,0,1,1.27-.48,6.18,6.18,0,0,1,1.47-.17,4.32,4.32,0,0,1,3.16,1,4.18,4.18,0,0,1,1.05,3.08v9.23Z" fill="#e32d27"/><path d="M56.43,187.49a6.76,6.76,0,0,1-2.8-.56,6.25,6.25,0,0,1-3.43-3.65,7.86,7.86,0,0,1,0-5.3,6.33,6.33,0,0,1,1.32-2.17,6.25,6.25,0,0,1,2.11-1.47,7.56,7.56,0,0,1,5.61,0,6.25,6.25,0,0,1,2.11,1.47A6.66,6.66,0,0,1,62.67,178a7.86,7.86,0,0,1,0,5.3,6.66,6.66,0,0,1-1.32,2.17,6.28,6.28,0,0,1-2.11,1.48A6.81,6.81,0,0,1,56.43,187.49Zm0-2.51a3.58,3.58,0,0,0,1.62-.35,3.54,3.54,0,0,0,1.18-.95,4.15,4.15,0,0,0,.71-1.39,5.38,5.38,0,0,0,.25-1.66,5.32,5.32,0,0,0-.25-1.65,4.15,4.15,0,0,0-.71-1.37,3.54,3.54,0,0,0-1.18-1,3.85,3.85,0,0,0-3.21,0,3.68,3.68,0,0,0-1.19,1,4.19,4.19,0,0,0-.73,1.37,5.63,5.63,0,0,0-.24,1.65,5.7,5.7,0,0,0,.24,1.66,4.19,4.19,0,0,0,.73,1.39,3.68,3.68,0,0,0,1.19.95A3.57,3.57,0,0,0,56.43,185Z" fill="#e32d27"/><path d="M73,187.49a4.93,4.93,0,0,1-2.31-.56,5.62,5.62,0,0,1-1.88-1.58v6.78H66v-18h2.83v1.79a5.26,5.26,0,0,1,1.81-1.54A5,5,0,0,1,73,173.8a5.69,5.69,0,0,1,2.32.46,5.07,5.07,0,0,1,1.82,1.33,6.15,6.15,0,0,1,1.2,2.15,9.71,9.71,0,0,1,0,5.78,6.07,6.07,0,0,1-1.2,2.15A5.38,5.38,0,0,1,75.36,187,5.69,5.69,0,0,1,73,187.49ZM72.2,185a3.33,3.33,0,0,0,2.7-1.22,5.38,5.38,0,0,0,0-6.25,3.34,3.34,0,0,0-2.7-1.2,4.08,4.08,0,0,0-1.93.5A3.84,3.84,0,0,0,68.85,178v5.15a3.7,3.7,0,0,0,.61.71,4.31,4.31,0,0,0,.81.56,3.93,3.93,0,0,0,1,.38A3.74,3.74,0,0,0,72.2,185Z" fill="#e32d27"/><path d="M88.62,187.16v-18h2.83v6.77a5.17,5.17,0,0,1,4.19-2.13,5.77,5.77,0,0,1,2.33.47,5.16,5.16,0,0,1,1.84,1.37,6.49,6.49,0,0,1,1.2,2.15,8.77,8.77,0,0,1,.43,2.84,8.91,8.91,0,0,1-.43,2.89,6.24,6.24,0,0,1-1.22,2.16A5.2,5.2,0,0,1,98,187a6,6,0,0,1-2.31.46,5,5,0,0,1-2.35-.57,5.68,5.68,0,0,1-1.84-1.54v1.78Zm2.83-3.91a4,4,0,0,0,1.42,1.23,4.11,4.11,0,0,0,2,.5,3.26,3.26,0,0,0,2.68-1.22,4.79,4.79,0,0,0,1-3.13,5.67,5.67,0,0,0-.26-1.74,4,4,0,0,0-.74-1.37,3.63,3.63,0,0,0-1.16-.89,3.55,3.55,0,0,0-1.51-.32,4,4,0,0,0-2,.51,4.15,4.15,0,0,0-1.42,1.24Z" fill="#e32d27"/><path d="M105.73,172.53a1.76,1.76,0,1,1,0-3.51,1.76,1.76,0,1,1,0,3.51Zm-1.43,14.63v-13h2.84v13Z" fill="#e32d27"/><path d="M116.13,192.46a9.59,9.59,0,0,1-3-.42,6.94,6.94,0,0,1-2.51-1.53l1.32-2a4.61,4.61,0,0,0,1.84,1.3,6.72,6.72,0,0,0,2.32.37,5.45,5.45,0,0,0,1.39-.17,3.35,3.35,0,0,0,1.24-.61,3.1,3.1,0,0,0,.89-1.12,3.88,3.88,0,0,0,.34-1.74V185a5.8,5.8,0,0,1-1.82,1.6,4.83,4.83,0,0,1-2.36.59,6.05,6.05,0,0,1-2.31-.44,5.1,5.1,0,0,1-1.84-1.3,6.1,6.1,0,0,1-1.2-2.09,9.66,9.66,0,0,1,0-5.7,6.29,6.29,0,0,1,1.2-2.11,5.14,5.14,0,0,1,1.82-1.31,6.08,6.08,0,0,1,2.33-.44,5.14,5.14,0,0,1,2.32.54,5.21,5.21,0,0,1,1.86,1.59v-1.81h2.84v12.37a6.35,6.35,0,0,1-.6,2.92,4.89,4.89,0,0,1-1.55,1.83,6,6,0,0,1-2.16.95A10.88,10.88,0,0,1,116.13,192.46Zm.51-7.81a4,4,0,0,0,1.93-.51,4.1,4.1,0,0,0,1.42-1.21V178a4.12,4.12,0,0,0-1.42-1.22,4,4,0,0,0-1.93-.51,3.39,3.39,0,0,0-2.7,1.15,4.49,4.49,0,0,0-1,3,4.44,4.44,0,0,0,1,3A3.44,3.44,0,0,0,116.64,184.65Z" fill="#e32d27"/><path d="M142.64,187.16v-1.78a5.61,5.61,0,0,1-1.82,1.54,4.93,4.93,0,0,1-2.36.57,5.88,5.88,0,0,1-2.31-.46,5.2,5.2,0,0,1-1.84-1.35,6.54,6.54,0,0,1-1.2-2.16,8.91,8.91,0,0,1-.43-2.89,8.77,8.77,0,0,1,.43-2.84,6.49,6.49,0,0,1,1.2-2.15,5.22,5.22,0,0,1,1.83-1.37,5.66,5.66,0,0,1,2.32-.47,5.11,5.11,0,0,1,2.32.54,5.21,5.21,0,0,1,1.86,1.59v-6.77h2.84v18ZM139.3,185a3.74,3.74,0,0,0,1-.14,4.1,4.1,0,0,0,.95-.38,5,5,0,0,0,.81-.55,3.23,3.23,0,0,0,.6-.69v-5.16a4.08,4.08,0,0,0-.6-.67,4.55,4.55,0,0,0-.81-.57,5.23,5.23,0,0,0-.95-.38,3.72,3.72,0,0,0-1-.13,3.59,3.59,0,0,0-1.54.32,3.63,3.63,0,0,0-1.16.89,3.87,3.87,0,0,0-.75,1.37,6.18,6.18,0,0,0,0,3.48,4,4,0,0,0,.75,1.38,3.28,3.28,0,0,0,1.16.9A3.45,3.45,0,0,0,139.3,185Z" fill="#e32d27"/><path d="M150.58,172.53a1.75,1.75,0,1,1,1.76-1.76,1.76,1.76,0,0,1-1.76,1.76Zm-1.43,14.63v-13H152v13Z" fill="#e32d27"/><path d="M160.14,187.49A9,9,0,0,1,157,187a6.86,6.86,0,0,1-2.46-1.52l1.3-2a5.3,5.3,0,0,0,.83.68,7.88,7.88,0,0,0,1.08.58,7.68,7.68,0,0,0,1.23.4,5.49,5.49,0,0,0,1.26.15,3.32,3.32,0,0,0,1.94-.47,1.5,1.5,0,0,0,.65-1.26,1,1,0,0,0-.58-1,5.59,5.59,0,0,0-1.46-.54c-.58-.14-1.22-.29-1.9-.43a8.26,8.26,0,0,1-1.91-.65,4.14,4.14,0,0,1-1.45-1.16,3.11,3.11,0,0,1-.58-2,3.55,3.55,0,0,1,.33-1.52,3.74,3.74,0,0,1,1-1.26,4.87,4.87,0,0,1,1.6-.85,7.11,7.11,0,0,1,2.21-.31,7.69,7.69,0,0,1,2.92.51,7,7,0,0,1,2.12,1.3l-1.18,2a4.93,4.93,0,0,0-1.61-1.11,5.33,5.33,0,0,0-2.25-.46,2.93,2.93,0,0,0-1.77.46,1.37,1.37,0,0,0-.64,1.16.93.93,0,0,0,.58.86,6.2,6.2,0,0,0,1.46.5l1.9.44a7.85,7.85,0,0,1,1.91.67,4.21,4.21,0,0,1,1.46,1.22,3.38,3.38,0,0,1,.58,2.06,3.83,3.83,0,0,1-.35,1.62,3.63,3.63,0,0,1-1,1.3,5.26,5.26,0,0,1-1.71.85A8.17,8.17,0,0,1,160.14,187.49Z" fill="#e32d27"/><path d="M174.34,187.49a7,7,0,0,1-2.71-.51,6.27,6.27,0,0,1-2.12-1.44,6.36,6.36,0,0,1-1.39-2.17,7.22,7.22,0,0,1-.5-2.74,7.13,7.13,0,0,1,.5-2.73,6.52,6.52,0,0,1,1.39-2.16,6.25,6.25,0,0,1,2.12-1.43,7,7,0,0,1,2.71-.51,7.08,7.08,0,0,1,1.74.19,5.9,5.9,0,0,1,1.38.51,5.63,5.63,0,0,1,1.07.74,8.27,8.27,0,0,1,.81.88l-1.87,1.7a3.47,3.47,0,0,0-3-1.51,3.68,3.68,0,0,0-2.87,1.2,4.49,4.49,0,0,0-1.08,3.12,5.12,5.12,0,0,0,.29,1.74,4.12,4.12,0,0,0,.81,1.38,3.57,3.57,0,0,0,1.24.9,3.8,3.8,0,0,0,1.61.33,3.45,3.45,0,0,0,3-1.57l1.87,1.76a6.61,6.61,0,0,1-1.89,1.62A6.17,6.17,0,0,1,174.34,187.49Z" fill="#e32d27"/><path d="M187.76,187.49a6.84,6.84,0,0,1-2.81-.56,6.14,6.14,0,0,1-2.1-1.48,6.51,6.51,0,0,1-1.33-2.17,7.86,7.86,0,0,1,0-5.3,6.51,6.51,0,0,1,1.33-2.17,6.11,6.11,0,0,1,2.1-1.47,7.58,7.58,0,0,1,5.62,0,6.11,6.11,0,0,1,2.1,1.47A6.51,6.51,0,0,1,194,178a7.86,7.86,0,0,1,0,5.3,6.51,6.51,0,0,1-1.33,2.17,6.14,6.14,0,0,1-2.1,1.48A6.84,6.84,0,0,1,187.76,187.49Zm0-2.51a3.64,3.64,0,0,0,1.62-.35,3.41,3.41,0,0,0,1.17-.95,4,4,0,0,0,.72-1.39,5.7,5.7,0,0,0,.24-1.66,5.63,5.63,0,0,0-.24-1.65,4,4,0,0,0-.72-1.37,3.41,3.41,0,0,0-1.17-1,3.64,3.64,0,0,0-1.62-.35,3.48,3.48,0,0,0-2.78,1.3,4,4,0,0,0-.73,1.37,5.63,5.63,0,0,0-.24,1.65,5.7,5.7,0,0,0,.24,1.66,4,4,0,0,0,.73,1.39,3.48,3.48,0,0,0,2.78,1.3Z" fill="#e32d27"/><path d="M206.15,187.16v-1.72a7,7,0,0,1-1.88,1.41,5.54,5.54,0,0,1-2.71.64,4.25,4.25,0,0,1-3.16-1.07,4.18,4.18,0,0,1-1.06-3.06v-9.24h2.84v8.18a2.58,2.58,0,0,0,.72,2.1,3,3,0,0,0,1.93.58,3.73,3.73,0,0,0,1.95-.53,4.74,4.74,0,0,0,1.37-1.17v-9.16H209v13Z" fill="#e32d27"/><path d="M221.48,187.16V179a2.63,2.63,0,0,0-.71-2.12,3,3,0,0,0-1.93-.58,3.66,3.66,0,0,0-2,.54,5.2,5.2,0,0,0-1.39,1.19v9.12h-2.84v-13h2.84v1.76a5.78,5.78,0,0,1,.79-.76,6.69,6.69,0,0,1,1.07-.67,6.51,6.51,0,0,1,1.28-.48,6.33,6.33,0,0,1,1.48-.17,3.75,3.75,0,0,1,4.21,4.18v9.18Z" fill="#e32d27"/><path d="M231.93,187.49a3.33,3.33,0,0,1-2.51-.87,3.44,3.44,0,0,1-.84-2.51v-7.53h-2.16v-2.46h2.16v-3.56h2.84v3.56h2.64v2.46h-2.64v6.83a1.9,1.9,0,0,0,.31,1.12,1.06,1.06,0,0,0,.93.45,1.78,1.78,0,0,0,.74-.15,1.32,1.32,0,0,0,.5-.34l.68,2.16a3.15,3.15,0,0,1-1,.6A4.69,4.69,0,0,1,231.93,187.49Z" fill="#e32d27"/><path d="M241.08,187.49A9.06,9.06,0,0,1,238,187a6.9,6.9,0,0,1-2.45-1.52l1.29-2a5,5,0,0,0,.84.68,6.86,6.86,0,0,0,1.08.58,7.08,7.08,0,0,0,1.23.4,5.4,5.4,0,0,0,1.25.15,3.36,3.36,0,0,0,1.95-.47,1.49,1.49,0,0,0,.64-1.26,1,1,0,0,0-.58-1,5.51,5.51,0,0,0-1.45-.54c-.59-.14-1.22-.29-1.91-.43a8.18,8.18,0,0,1-1.9-.65,4.18,4.18,0,0,1-1.46-1.16,3.11,3.11,0,0,1-.58-2,3.42,3.42,0,0,1,.34-1.52,3.59,3.59,0,0,1,1-1.26,4.92,4.92,0,0,1,1.61-.85,7,7,0,0,1,2.2-.31,7.75,7.75,0,0,1,2.93.51,7.17,7.17,0,0,1,2.12,1.3l-1.19,2a4.73,4.73,0,0,0-1.61-1.11A5.29,5.29,0,0,0,241,176a2.93,2.93,0,0,0-1.77.46,1.39,1.39,0,0,0-.63,1.16.91.91,0,0,0,.58.86,5.9,5.9,0,0,0,1.46.5l1.9.44a7.77,7.77,0,0,1,1.9.67,4.12,4.12,0,0,1,1.46,1.22,3.31,3.31,0,0,1,.58,2.06,3.83,3.83,0,0,1-.35,1.62,3.43,3.43,0,0,1-1,1.3,5.31,5.31,0,0,1-1.7.85A8.24,8.24,0,0,1,241.08,187.49Z" fill="#e32d27"/><path d="M27.65,216.49a9.69,9.69,0,0,1-3.71-.7A8.8,8.8,0,0,1,21,213.84a8.71,8.71,0,0,1-1.9-2.94,10.54,10.54,0,0,1,0-7.45A8.66,8.66,0,0,1,21,200.5a8.93,8.93,0,0,1,2.92-1.94,10.18,10.18,0,0,1,7.42,0,8.78,8.78,0,0,1,2.91,1.94,9,9,0,0,1,1.9,2.95,10.4,10.4,0,0,1,0,7.45,9,9,0,0,1-1.9,2.94,8.66,8.66,0,0,1-2.91,1.95A9.69,9.69,0,0,1,27.65,216.49Zm0-2.81a6,6,0,0,0,2.46-.5A5.65,5.65,0,0,0,32,211.82a6.06,6.06,0,0,0,1.2-2.07,8.17,8.17,0,0,0,0-5.17,6.06,6.06,0,0,0-1.2-2.05,5.51,5.51,0,0,0-1.89-1.36,6.33,6.33,0,0,0-4.93,0,5.67,5.67,0,0,0-1.88,1.36,6.06,6.06,0,0,0-1.2,2.05,8.17,8.17,0,0,0,0,5.17,6.06,6.06,0,0,0,1.2,2.07,5.82,5.82,0,0,0,1.88,1.36A5.92,5.92,0,0,0,27.65,213.68Z" fill="#e32d27"/><path d="M45.74,216.49A7,7,0,0,1,43,216a6.27,6.27,0,0,1-2.12-1.44,6.36,6.36,0,0,1-1.39-2.17,7.22,7.22,0,0,1-.5-2.74,7.13,7.13,0,0,1,.5-2.73,6.52,6.52,0,0,1,1.39-2.16A6.25,6.25,0,0,1,43,203.31a7,7,0,0,1,2.71-.51,7.08,7.08,0,0,1,1.74.19,5.9,5.9,0,0,1,1.38.51,5.63,5.63,0,0,1,1.07.74,8.27,8.27,0,0,1,.81.88l-1.87,1.7a3.47,3.47,0,0,0-3-1.51,3.68,3.68,0,0,0-2.87,1.2,4.49,4.49,0,0,0-1.08,3.12,5.12,5.12,0,0,0,.29,1.74,4.12,4.12,0,0,0,.81,1.38,3.57,3.57,0,0,0,1.24.9,3.8,3.8,0,0,0,1.61.33,3.45,3.45,0,0,0,3-1.57l1.87,1.76a6.61,6.61,0,0,1-1.89,1.62A6.17,6.17,0,0,1,45.74,216.49Z" fill="#e32d27"/><path d="M57.19,216.49a3.33,3.33,0,0,1-2.51-.87,3.44,3.44,0,0,1-.84-2.51v-7.53H51.68v-2.46h2.16v-3.56h2.84v3.56h2.64v2.46H56.68v6.83a1.9,1.9,0,0,0,.31,1.12,1,1,0,0,0,.93.45,1.78,1.78,0,0,0,.74-.15,1.32,1.32,0,0,0,.5-.34l.67,2.16a3.09,3.09,0,0,1-1,.6A4.69,4.69,0,0,1,57.19,216.49Z" fill="#e32d27"/><path d="M74.44,216.49a9.36,9.36,0,0,1-4.13-.85,7.56,7.56,0,0,1-2.67-2.07l1.73-2.08a5.83,5.83,0,0,0,2.18,1.61,6.79,6.79,0,0,0,2.78.58,4.43,4.43,0,0,0,2.77-.76,2.38,2.38,0,0,0,1-2,2.11,2.11,0,0,0-1-2,5.83,5.83,0,0,0-3-.61h-1.2c-.42,0-.71,0-.85,0v-2.89h2a7.65,7.65,0,0,0,1.49-.13,3.6,3.6,0,0,0,1.17-.43,2.31,2.31,0,0,0,.78-.74,1.91,1.91,0,0,0,.29-1.06,2.09,2.09,0,0,0-.29-1.09,2.42,2.42,0,0,0-.78-.78,4.2,4.2,0,0,0-1.16-.47,6.36,6.36,0,0,0-1.42-.16,6.29,6.29,0,0,0-4.67,2l-1.62-2a8.09,8.09,0,0,1,2.69-2,8.84,8.84,0,0,1,3.9-.79,9.83,9.83,0,0,1,2.64.33,6.43,6.43,0,0,1,2,1,4.46,4.46,0,0,1,1.33,1.51,4.3,4.3,0,0,1,.47,2,3.69,3.69,0,0,1-.35,1.63,4.19,4.19,0,0,1-.91,1.23,4.62,4.62,0,0,1-1.25.83,5.09,5.09,0,0,1-1.38.43,5.74,5.74,0,0,1,1.38.38,5.11,5.11,0,0,1,1.36.84,4.3,4.3,0,0,1,1,1.33,3.92,3.92,0,0,1,.41,1.83,4.7,4.7,0,0,1-.48,2.13A4.79,4.79,0,0,1,79.41,215a6.7,6.7,0,0,1-2.15,1.1A9.42,9.42,0,0,1,74.44,216.49Z" fill="#e32d27"/><path d="M90.83,216.49a6.22,6.22,0,0,1-3.28-.83,6.81,6.81,0,0,1-2.23-2.14,9.94,9.94,0,0,1-1.28-3,13.65,13.65,0,0,1,0-6.72,9.88,9.88,0,0,1,1.28-3,6.81,6.81,0,0,1,2.23-2.14,7.06,7.06,0,0,1,6.53,0,6.81,6.81,0,0,1,2.23,2.14,9.63,9.63,0,0,1,1.28,3,13.65,13.65,0,0,1,0,6.72,9.69,9.69,0,0,1-1.28,3,6.81,6.81,0,0,1-2.23,2.14A6.16,6.16,0,0,1,90.83,216.49Zm0-2.81a3.13,3.13,0,0,0,1.85-.54,4,4,0,0,0,1.23-1.43,7.4,7.4,0,0,0,.67-2.07,13,13,0,0,0,.22-2.47,15.16,15.16,0,0,0-.2-2.47,6.84,6.84,0,0,0-.68-2.06,3.79,3.79,0,0,0-1.23-1.42,3.53,3.53,0,0,0-3.72,0,3.79,3.79,0,0,0-1.23,1.42,6.84,6.84,0,0,0-.69,2.06,14.1,14.1,0,0,0-.22,2.47,13.92,13.92,0,0,0,.22,2.47,6.81,6.81,0,0,0,.69,2.07A4,4,0,0,0,89,213.14,3.1,3.1,0,0,0,90.83,213.68Z" fill="#e32d27"/><path d="M100,210.85v-2.43h6.48v2.43Z" fill="#e32d27"/><path d="M121.72,216.16l-9.4-12.87v12.87h-3.16v-18h3.24l9.21,12.47V198.16h3.16v18Z" fill="#e32d27"/><path d="M134.43,216.49a6.76,6.76,0,0,1-2.8-.56,6.25,6.25,0,0,1-3.43-3.65,7.86,7.86,0,0,1,0-5.3,6.33,6.33,0,0,1,1.32-2.17,6.25,6.25,0,0,1,2.11-1.47,7.56,7.56,0,0,1,5.61,0,6.25,6.25,0,0,1,2.11,1.47,6.66,6.66,0,0,1,1.32,2.17,7.86,7.86,0,0,1,0,5.3,6.66,6.66,0,0,1-1.32,2.17,6.28,6.28,0,0,1-2.11,1.48A6.81,6.81,0,0,1,134.43,216.49Zm0-2.51a3.58,3.58,0,0,0,1.62-.35,3.54,3.54,0,0,0,1.18-.95,4.15,4.15,0,0,0,.71-1.39,5.38,5.38,0,0,0,.25-1.66,5.32,5.32,0,0,0-.25-1.65,4.15,4.15,0,0,0-.71-1.37,3.54,3.54,0,0,0-1.18-1,3.85,3.85,0,0,0-3.21,0,3.68,3.68,0,0,0-1.19,1,4.19,4.19,0,0,0-.73,1.37,5.63,5.63,0,0,0-.24,1.65,5.7,5.7,0,0,0,.24,1.66,4.19,4.19,0,0,0,.73,1.39,3.68,3.68,0,0,0,1.19.95A3.57,3.57,0,0,0,134.43,214Z" fill="#e32d27"/><path d="M147.45,216.16l-5.32-13h3.05L149,212.9l3.8-9.78h3l-5.32,13Z" fill="#e32d27"/><path d="M167.91,216.16V202.23L165,205.31l-1.84-1.92,5.19-5.23h2.75v18Z" fill="#e32d27"/></g></g></svg>