<svg xmlns="http://www.w3.org/2000/svg" viewBox="0 0 728 90"><g id="Layer_2" data-name="Layer 2"><g id="REC"><rect width="728" height="90" fill="none"/></g><g id="subhed"><path d="M299.46,29.53a8.78,8.78,0,0,1-3.52-.65,7.58,7.58,0,0,1-2.46-1.69l1.45-2a6.78,6.78,0,0,0,1.93,1.43,5.76,5.76,0,0,0,2.71.62,4.53,4.53,0,0,0,1.36-.18,2.54,2.54,0,0,0,.9-.46,1.81,1.81,0,0,0,.5-.65,1.77,1.77,0,0,0,.17-.73,1.31,1.31,0,0,0-.63-1.18,6.14,6.14,0,0,0-1.58-.69c-.64-.2-1.33-.38-2.06-.55a10.46,10.46,0,0,1-2.06-.73,4.46,4.46,0,0,1-1.58-1.27,3.36,3.36,0,0,1-.63-2.14,3.8,3.8,0,0,1,.39-1.71,4,4,0,0,1,1.08-1.36,5,5,0,0,1,1.68-.91,6.91,6.91,0,0,1,2.2-.33,8.42,8.42,0,0,1,3.09.54,7.1,7.1,0,0,1,2.39,1.53l-1.46,1.91a5.34,5.34,0,0,0-2-1.29,6.58,6.58,0,0,0-2.27-.4,2.91,2.91,0,0,0-1.8.5,1.6,1.6,0,0,0-.67,1.32,1.17,1.17,0,0,0,.63,1.06,6.34,6.34,0,0,0,1.58.63c.64.18,1.33.36,2.06.54a9.94,9.94,0,0,1,2.06.77,4.62,4.62,0,0,1,1.58,1.32,3.52,3.52,0,0,1,.63,2.19,4.66,4.66,0,0,1-.33,1.75,3.84,3.84,0,0,1-1,1.45,5,5,0,0,1-1.78,1A7.71,7.71,0,0,1,299.46,29.53Z" fill="#e52823"/><path d="M314.62,29.26V22.57a2.08,2.08,0,0,0-.57-1.7,2.45,2.45,0,0,0-1.56-.45,3.07,3.07,0,0,0-1.62.44,3.83,3.83,0,0,0-1.11,1v7.43h-2.31V14.59h2.31v5.48a4.33,4.33,0,0,1,.65-.62,4.87,4.87,0,0,1,.86-.55,4.66,4.66,0,0,1,1-.38,4.59,4.59,0,0,1,1.2-.15,3.5,3.5,0,0,1,2.57.86,3.41,3.41,0,0,1,.86,2.51v7.52Z" fill="#e52823"/><path d="M324.74,29.53a5.6,5.6,0,0,1-2.29-.45,5.15,5.15,0,0,1-2.79-3,6.33,6.33,0,0,1,0-4.32A5.34,5.34,0,0,1,320.74,20a5.27,5.27,0,0,1,1.71-1.2,6.18,6.18,0,0,1,4.58,0,5.27,5.27,0,0,1,1.71,1.2,5.34,5.34,0,0,1,1.08,1.77,6.33,6.33,0,0,1,0,4.32,5.15,5.15,0,0,1-2.79,3A5.6,5.6,0,0,1,324.74,29.53Zm0-2.05a2.79,2.79,0,0,0,1.32-.29,2.87,2.87,0,0,0,1-.76,3.5,3.5,0,0,0,.58-1.14,4.64,4.64,0,0,0,.2-1.35,4.52,4.52,0,0,0-.2-1.34,3.4,3.4,0,0,0-.58-1.12,2.77,2.77,0,0,0-1-.77,3,3,0,0,0-3.59.77,3.24,3.24,0,0,0-.59,1.12,4.52,4.52,0,0,0-.2,1.34,4.64,4.64,0,0,0,.2,1.35,3.34,3.34,0,0,0,.59,1.14,3,3,0,0,0,1,.76A2.76,2.76,0,0,0,324.74,27.48Z" fill="#e52823"/><path d="M338.27,29.53a4,4,0,0,1-1.88-.45,4.67,4.67,0,0,1-1.53-1.29v5.52h-2.31V18.64h2.31v1.45a4.31,4.31,0,0,1,1.47-1.25,4.12,4.12,0,0,1,1.94-.47,4.66,4.66,0,0,1,1.89.38,4.19,4.19,0,0,1,1.49,1.09,5.11,5.11,0,0,1,1,1.75,8.06,8.06,0,0,1,0,4.7,5.11,5.11,0,0,1-1,1.75,4.22,4.22,0,0,1-1.49,1.1A4.5,4.5,0,0,1,338.27,29.53Zm-.68-2.05a2.7,2.7,0,0,0,2.2-1,3.9,3.9,0,0,0,.81-2.55,3.85,3.85,0,0,0-.81-2.54,2.72,2.72,0,0,0-2.2-1,3.28,3.28,0,0,0-1.57.41,3,3,0,0,0-1.16,1V26a2.91,2.91,0,0,0,.49.57,3.18,3.18,0,0,0,.67.46,3.27,3.27,0,0,0,.77.31A3.15,3.15,0,0,0,337.59,27.48Z" fill="#e52823"/><path d="M351,29.26V14.59h2.31v5.52a4.4,4.4,0,0,1,1.53-1.3,4.25,4.25,0,0,1,1.88-.44,4.63,4.63,0,0,1,1.91.39,4.28,4.28,0,0,1,1.49,1.11,5.09,5.09,0,0,1,1,1.76,7,7,0,0,1,.35,2.31,7.12,7.12,0,0,1-.35,2.35,5,5,0,0,1-1,1.76,4.09,4.09,0,0,1-1.51,1.1,4.64,4.64,0,0,1-1.88.38,4,4,0,0,1-1.91-.47,4.41,4.41,0,0,1-1.5-1.25v1.45Zm2.31-3.19a3.11,3.11,0,0,0,1.16,1,3.22,3.22,0,0,0,1.59.41,2.65,2.65,0,0,0,2.19-1,3.9,3.9,0,0,0,.81-2.55,4.6,4.6,0,0,0-.21-1.42,3.14,3.14,0,0,0-.61-1.11,2.73,2.73,0,0,0-2.18-1,3.5,3.5,0,0,0-2.75,1.43Z" fill="#e52823"/><path d="M364.91,17.34a1.38,1.38,0,0,1-1-.42,1.42,1.42,0,0,1,0-2,1.38,1.38,0,0,1,1-.42,1.43,1.43,0,0,1,0,2.86Zm-1.16,11.92V18.64h2.31V29.26Z" fill="#e52823"/><path d="M373.38,33.57a7.82,7.82,0,0,1-2.42-.34,5.55,5.55,0,0,1-2-1.24L370,30.32a3.73,3.73,0,0,0,1.5,1.06,5.59,5.59,0,0,0,1.89.3,4.32,4.32,0,0,0,1.13-.14,2.84,2.84,0,0,0,1-.49,2.55,2.55,0,0,0,.72-.92,3.1,3.1,0,0,0,.28-1.42V27.5A4.63,4.63,0,0,1,375,28.8a3.92,3.92,0,0,1-1.92.49,4.85,4.85,0,0,1-1.88-.37,4.16,4.16,0,0,1-1.5-1.05,5,5,0,0,1-1-1.71,7.18,7.18,0,0,1-.35-2.33,7.1,7.1,0,0,1,.35-2.31,5.16,5.16,0,0,1,1-1.72,4,4,0,0,1,1.49-1.06,4.65,4.65,0,0,1,1.89-.37,4.23,4.23,0,0,1,1.89.44,4.37,4.37,0,0,1,1.52,1.3V18.64h2.31V28.71a5.09,5.09,0,0,1-.49,2.38,4.05,4.05,0,0,1-1.26,1.5,4.88,4.88,0,0,1-1.76.76A8.64,8.64,0,0,1,373.38,33.57Zm.42-6.35a3.19,3.19,0,0,0,1.57-.42,3.38,3.38,0,0,0,1.16-1v-4a3.38,3.38,0,0,0-1.16-1,3.19,3.19,0,0,0-1.57-.42,2.78,2.78,0,0,0-2.2.93,3.67,3.67,0,0,0-.81,2.48,3.58,3.58,0,0,0,.81,2.46A2.78,2.78,0,0,0,373.8,27.22Z" fill="#e52823"/><path d="M301.84,51.66V50.21a4.62,4.62,0,0,1-1.49,1.26,4.12,4.12,0,0,1-1.92.46,4.68,4.68,0,0,1-1.88-.38,4.06,4.06,0,0,1-1.5-1.1,5.26,5.26,0,0,1-1-1.76,7.4,7.4,0,0,1-.35-2.35,7.27,7.27,0,0,1,.35-2.31,5.26,5.26,0,0,1,1-1.76,4.28,4.28,0,0,1,1.49-1.11,4.5,4.5,0,0,1,1.89-.39,4.23,4.23,0,0,1,1.89.44,4.37,4.37,0,0,1,1.52,1.3V37h2.31V51.66Zm-2.73-1.78a2.76,2.76,0,0,0,.8-.11,2.89,2.89,0,0,0,.77-.31,3.19,3.19,0,0,0,.66-.45,2.4,2.4,0,0,0,.5-.56v-4.2a3.15,3.15,0,0,0-.5-.55,2.88,2.88,0,0,0-.66-.46,3.27,3.27,0,0,0-.77-.31,3.15,3.15,0,0,0-.8-.11,2.91,2.91,0,0,0-1.25.26,2.84,2.84,0,0,0-.95.73,3.13,3.13,0,0,0-.6,1.11,4.91,4.91,0,0,0,0,2.84,3.17,3.17,0,0,0,.6,1.12,2.75,2.75,0,0,0,.95.74A2.91,2.91,0,0,0,299.11,49.88Z" fill="#e52823"/><path d="M308.31,39.74a1.43,1.43,0,1,1,1-2.44,1.42,1.42,0,0,1,0,2A1.38,1.38,0,0,1,308.31,39.74Zm-1.17,11.92V41h2.31V51.66Z" fill="#e52823"/><path d="M316.09,51.93a7.26,7.26,0,0,1-2.55-.43,5.68,5.68,0,0,1-2-1.24l1.06-1.65a4.39,4.39,0,0,0,.68.55,6.07,6.07,0,0,0,.88.47,5.58,5.58,0,0,0,1,.33,4.44,4.44,0,0,0,1,.12,2.76,2.76,0,0,0,1.59-.38,1.21,1.21,0,0,0,.52-1,.85.85,0,0,0-.47-.79,4.65,4.65,0,0,0-1.19-.44c-.47-.12-1-.23-1.55-.35a6.9,6.9,0,0,1-1.55-.53,3.36,3.36,0,0,1-1.19-1,2.54,2.54,0,0,1-.47-1.62,2.82,2.82,0,0,1,.28-1.25,2.9,2.9,0,0,1,.8-1,4,4,0,0,1,1.31-.69,5.77,5.77,0,0,1,1.79-.26,6.26,6.26,0,0,1,2.39.42,5.76,5.76,0,0,1,1.72,1.06l-1,1.63a4,4,0,0,0-1.31-.91,4.42,4.42,0,0,0-1.84-.37,2.4,2.4,0,0,0-1.44.37,1.13,1.13,0,0,0-.52,1,.75.75,0,0,0,.48.7,5.2,5.2,0,0,0,1.18.41l1.55.35a7,7,0,0,1,1.56.55,3.33,3.33,0,0,1,1.18,1,2.71,2.71,0,0,1,.48,1.69,3.1,3.1,0,0,1-.29,1.32,2.77,2.77,0,0,1-.85,1,3.89,3.89,0,0,1-1.38.69A6.49,6.49,0,0,1,316.09,51.93Z" fill="#e52823"/><path d="M327.67,51.93a5.62,5.62,0,0,1-2.21-.42,5.09,5.09,0,0,1-1.73-1.17,5.16,5.16,0,0,1-1.13-1.77,5.79,5.79,0,0,1-.41-2.23,5.7,5.7,0,0,1,.41-2.22,5.22,5.22,0,0,1,1.13-1.76,5.09,5.09,0,0,1,1.73-1.17,5.62,5.62,0,0,1,2.21-.42,5.52,5.52,0,0,1,1.41.16,4.57,4.57,0,0,1,1.13.42,3.94,3.94,0,0,1,.87.6,5.52,5.52,0,0,1,.66.72l-1.52,1.38a2.84,2.84,0,0,0-2.44-1.23,3,3,0,0,0-2.34,1,3.68,3.68,0,0,0-.88,2.54,4.31,4.31,0,0,0,.23,1.42,3.31,3.31,0,0,0,.67,1.12,3,3,0,0,0,1,.74,3.22,3.22,0,0,0,1.31.26,2.84,2.84,0,0,0,2.44-1.27L331.74,50a5.61,5.61,0,0,1-1.54,1.32A5,5,0,0,1,327.67,51.93Z" fill="#e52823"/><path d="M338.6,51.93a5.6,5.6,0,0,1-2.29-.45,5.19,5.19,0,0,1-1.71-1.21,5.34,5.34,0,0,1-1.08-1.77,6.33,6.33,0,0,1,0-4.32,5.34,5.34,0,0,1,1.08-1.77,5.17,5.17,0,0,1,1.71-1.2,6.18,6.18,0,0,1,4.58,0,5.27,5.27,0,0,1,1.71,1.2,5.34,5.34,0,0,1,1.08,1.77,6.33,6.33,0,0,1,0,4.32,5.15,5.15,0,0,1-2.79,3A5.6,5.6,0,0,1,338.6,51.93Zm0-2a2.79,2.79,0,0,0,2.28-1.05,3.5,3.5,0,0,0,.58-1.14,4.64,4.64,0,0,0,.2-1.35,4.52,4.52,0,0,0-.2-1.34,3.4,3.4,0,0,0-.58-1.12,2.77,2.77,0,0,0-1-.77,3,3,0,0,0-3.59.77,3.24,3.24,0,0,0-.59,1.12,4.52,4.52,0,0,0-.2,1.34,4.64,4.64,0,0,0,.2,1.35,3.34,3.34,0,0,0,.59,1.14,3,3,0,0,0,1,.77A2.89,2.89,0,0,0,338.6,49.88Z" fill="#e52823"/><path d="M353.58,51.66v-1.4a5.57,5.57,0,0,1-1.53,1.15,4.51,4.51,0,0,1-2.21.52,3.46,3.46,0,0,1-2.57-.87,3.42,3.42,0,0,1-.86-2.5V41h2.31V47.7a2.1,2.1,0,0,0,.58,1.71,2.48,2.48,0,0,0,1.58.47,3,3,0,0,0,1.59-.43,3.65,3.65,0,0,0,1.11-1V41h2.31V51.66Z" fill="#e52823"/><path d="M366.08,51.66V45a2.13,2.13,0,0,0-.59-1.73,2.43,2.43,0,0,0-1.57-.47,3,3,0,0,0-1.59.44,4.28,4.28,0,0,0-1.14,1v7.43h-2.31V41h2.31v1.43a5.57,5.57,0,0,1,.65-.62,5.37,5.37,0,0,1,.87-.55,4.83,4.83,0,0,1,1.05-.38,4.59,4.59,0,0,1,1.2-.15,3.06,3.06,0,0,1,3.43,3.41v7.48Z" fill="#e52823"/><path d="M374.59,51.93a2.7,2.7,0,0,1-2-.71,2.8,2.8,0,0,1-.69-2V43H370.1V41h1.76V38.13h2.31V41h2.16v2h-2.16v5.57a1.55,1.55,0,0,0,.26.91.86.86,0,0,0,.76.36,1.46,1.46,0,0,0,.6-.12,1.21,1.21,0,0,0,.41-.27l.55,1.76a2.58,2.58,0,0,1-.84.48A3.82,3.82,0,0,1,374.59,51.93Z" fill="#e52823"/><path d="M382.05,51.93a7.18,7.18,0,0,1-2.55-.43,5.59,5.59,0,0,1-2-1.24l1.05-1.65a4.92,4.92,0,0,0,.68.55,6.64,6.64,0,0,0,.88.47,6.16,6.16,0,0,0,1,.33,4.59,4.59,0,0,0,1,.12,2.73,2.73,0,0,0,1.58-.38,1.22,1.22,0,0,0,.53-1,.86.86,0,0,0-.47-.79,5,5,0,0,0-1.19-.44c-.48-.12-1-.23-1.55-.35a6.74,6.74,0,0,1-1.55-.53,3.28,3.28,0,0,1-1.19-1,2.48,2.48,0,0,1-.48-1.62,3,3,0,0,1,.28-1.25,2.9,2.9,0,0,1,.8-1,4,4,0,0,1,1.31-.69,5.77,5.77,0,0,1,1.79-.26,6.26,6.26,0,0,1,2.39.42,5.81,5.81,0,0,1,1.73,1.06l-1,1.63a3.86,3.86,0,0,0-1.31-.91A4.38,4.38,0,0,0,382,42.6a2.44,2.44,0,0,0-1.44.37,1.14,1.14,0,0,0-.51,1,.74.74,0,0,0,.47.7,5.13,5.13,0,0,0,1.19.41l1.55.35a6.94,6.94,0,0,1,1.55.55,3.36,3.36,0,0,1,1.19,1,2.78,2.78,0,0,1,.47,1.69,3.1,3.1,0,0,1-.28,1.32,3,3,0,0,1-.85,1,4,4,0,0,1-1.39.69A6.42,6.42,0,0,1,382.05,51.93Z" fill="#e52823"/><path d="M304.65,74.06,297,63.57V74.06h-2.58V59.39h2.64l7.51,10.16V59.39h2.57V74.06Z" fill="#e52823"/><path d="M315,74.33a5.57,5.57,0,0,1-2.29-.45A5.23,5.23,0,0,1,311,72.67a5.34,5.34,0,0,1-1.08-1.77,6.49,6.49,0,0,1,0-4.32A5.34,5.34,0,0,1,311,64.81a5.21,5.21,0,0,1,1.72-1.2,6.15,6.15,0,0,1,4.57,0,5.21,5.21,0,0,1,1.72,1.2,5.34,5.34,0,0,1,1.08,1.77,6.49,6.49,0,0,1,0,4.32A5.34,5.34,0,0,1,319,72.67a5.23,5.23,0,0,1-1.72,1.21A5.52,5.52,0,0,1,315,74.33Zm0-2a2.91,2.91,0,0,0,1.32-.28,2.88,2.88,0,0,0,1-.77,3.52,3.52,0,0,0,.59-1.14,4.64,4.64,0,0,0,.19-1.35,4.52,4.52,0,0,0-.19-1.34,3.42,3.42,0,0,0-.59-1.12,2.65,2.65,0,0,0-1-.77,2.92,2.92,0,0,0-1.32-.29,2.86,2.86,0,0,0-1.3.29,2.81,2.81,0,0,0-1,.77,3.24,3.24,0,0,0-.59,1.12,4.22,4.22,0,0,0-.2,1.34,4.33,4.33,0,0,0,.2,1.35,3.34,3.34,0,0,0,.59,1.14,3.06,3.06,0,0,0,1,.77A2.86,2.86,0,0,0,315,72.28Z" fill="#e52823"/><path d="M325.62,74.06l-4.33-10.62h2.48l3.1,8,3.11-8h2.46l-4.33,10.62Z" fill="#e52823"/><path d="M340.73,74.06l5.55-12.38h-7.61V59.39h10.58v1.78l-5.68,12.89Z" fill="#e52823"/><path d="M350.44,69.73v-2h5.28v2Z" fill="#e52823"/><path d="M362.93,74.33a8.31,8.31,0,0,1-2.14-.27,5.82,5.82,0,0,1-1.81-.77A3.79,3.79,0,0,1,357.75,72a3.38,3.38,0,0,1-.45-1.75,3.34,3.34,0,0,1,.26-1.29,3.92,3.92,0,0,1,.72-1.08,5.13,5.13,0,0,1,1.05-.83,6.3,6.3,0,0,1,1.27-.58,7.25,7.25,0,0,1-1.18-.51,4.28,4.28,0,0,1-1-.74,3.52,3.52,0,0,1-.66-1,3.06,3.06,0,0,1-.24-1.25,3.12,3.12,0,0,1,.48-1.75,3.66,3.66,0,0,1,1.24-1.2,5.85,5.85,0,0,1,1.74-.68,8.47,8.47,0,0,1,1.93-.22,8.55,8.55,0,0,1,1.94.22,6.07,6.07,0,0,1,1.74.68,3.84,3.84,0,0,1,1.24,1.2,3.2,3.2,0,0,1,.47,1.75,3.06,3.06,0,0,1-.24,1.25,3.13,3.13,0,0,1-.66,1,4.28,4.28,0,0,1-1,.74,6.89,6.89,0,0,1-1.18.51,6.06,6.06,0,0,1,1.27.58,5.13,5.13,0,0,1,1.05.83A3.71,3.71,0,0,1,368.3,69a3.17,3.17,0,0,1,.26,1.29A3.29,3.29,0,0,1,368.1,72a4,4,0,0,1-1.23,1.26,5.7,5.7,0,0,1-1.79.77A8.39,8.39,0,0,1,362.93,74.33Zm0-2.29a4.79,4.79,0,0,0,1.16-.14,3.3,3.3,0,0,0,1-.42,2.19,2.19,0,0,0,.66-.66A1.55,1.55,0,0,0,366,70a1.47,1.47,0,0,0-.35-1,3.07,3.07,0,0,0-.82-.69,4.42,4.42,0,0,0-1-.44,6.53,6.53,0,0,0-.85-.2,6.35,6.35,0,0,0-.87.2,4.35,4.35,0,0,0-1,.44,3.37,3.37,0,0,0-.81.69,1.46,1.46,0,0,0-.34,1,1.71,1.71,0,0,0,.23.87,2,2,0,0,0,.65.66,3.56,3.56,0,0,0,.95.42A4.89,4.89,0,0,0,362.93,72Zm0-6.58c.22,0,.49-.11.82-.2a3.78,3.78,0,0,0,.91-.37,2.71,2.71,0,0,0,.74-.61,1.31,1.31,0,0,0,.3-.86,1.63,1.63,0,0,0-.79-1.46,4.17,4.17,0,0,0-4,0,1.63,1.63,0,0,0-.79,1.46,1.26,1.26,0,0,0,.31.86,2.37,2.37,0,0,0,.75.61,3.78,3.78,0,0,0,.91.37C362.44,65.35,362.71,65.42,362.93,65.46Z" fill="#e52823"/></g></g></svg>