<svg xmlns="http://www.w3.org/2000/svg" xmlns:xlink="http://www.w3.org/1999/xlink" viewBox="0 0 729 91"><defs><clipPath id="clip-path"><rect id="SVGID" x="577.57" y="10.22" width="151.54" height="117.1" fill="none"/></clipPath></defs><g id="Layer_2" data-name="Layer 2"><g id="CONTENT"><rect x="0.5" y="0.5" width="728" height="90" stroke="#231f20" stroke-miterlimit="10" stroke-width="1"/><path d="M13.44,17.58H24a6.49,6.49,0,0,1,3.13.7,4.86,4.86,0,0,1,2,1.86,5,5,0,0,1,.66,2.54,4.72,4.72,0,0,1-1,3.06,4.15,4.15,0,0,1-2.46,1.53A4.18,4.18,0,0,1,29,28.92a5.14,5.14,0,0,1,1.11,3.27,5.25,5.25,0,0,1-1.53,3.87,5.8,5.8,0,0,1-4.29,1.53H13.44Zm9.6,8A2.35,2.35,0,0,0,24.75,25a2.13,2.13,0,0,0,.63-1.6,2.1,2.1,0,0,0-.65-1.56A2.31,2.31,0,0,0,23,21.21H17.7v4.41ZM23.19,34a2.66,2.66,0,0,0,1.89-.65,2.43,2.43,0,0,0,0-3.39,2.58,2.58,0,0,0-1.89-.67H17.7V34Z" fill="#fff"/><path d="M34.27,37a4,4,0,0,1-1-3V17.58h3.81V33a1.77,1.77,0,0,0,.36,1.14,1.15,1.15,0,0,0,1,.46,2.45,2.45,0,0,0,.78-.12,1.11,1.11,0,0,0,.51-.3l.81,2.88a4.68,4.68,0,0,1-3.15.93A4.22,4.22,0,0,1,34.27,37Z" fill="#fff"/><path d="M52.14,35.73a5.87,5.87,0,0,1-2,1.66,5.39,5.39,0,0,1-2.47.59,6.2,6.2,0,0,1-3.3-.91,6.06,6.06,0,0,1-2.3-2.61,9.36,9.36,0,0,1-.82-4.09,9.28,9.28,0,0,1,.82-4,6.28,6.28,0,0,1,2.28-2.66,6,6,0,0,1,3.32-.93,5.55,5.55,0,0,1,2.46.57,5.68,5.68,0,0,1,2,1.65V23.1H56V37.59H52.14Zm0-7.92a3.56,3.56,0,0,0-1.41-1.19,4.18,4.18,0,0,0-1.89-.46,3.35,3.35,0,0,0-2.64,1.15,4.49,4.49,0,0,0-1,3.06,4.47,4.47,0,0,0,1,3,3.35,3.35,0,0,0,2.64,1.18,4.19,4.19,0,0,0,1.89-.47,3.56,3.56,0,0,0,1.41-1.19Z" fill="#fff"/><path d="M59.82,26.42a7.11,7.11,0,0,1,2.73-2.71,8,8,0,0,1,4-1,7.58,7.58,0,0,1,3.48.73,6.09,6.09,0,0,1,2.25,1.88l-2.49,2.34a3.46,3.46,0,0,0-3.06-1.56,3.74,3.74,0,0,0-2.84,1.15,4.29,4.29,0,0,0-1.09,3.06,4.32,4.32,0,0,0,1.09,3.07,3.83,3.83,0,0,0,5.9-.38l2.49,2.31A6.26,6.26,0,0,1,70,37.23a7.53,7.53,0,0,1-3.49.75,8,8,0,0,1-4-1,7,7,0,0,1-2.73-2.71,8.32,8.32,0,0,1,0-7.87Z" fill="#fff"/><path d="M80.28,32l-1.74,1.86v3.72H74.73v-20h3.81v12L84,23.1h4.68L83,29.67l5.91,7.92H84.12Z" fill="#fff"/><path d="M98.55,17.58h14.16v3.66h-9.9v4.35h9.69v3.66h-9.69v8.34H98.55Z" fill="#fff"/><path d="M115.59,23.1h3.81v2a6.41,6.41,0,0,1,2-1.67,5.4,5.4,0,0,1,2.58-.67v3.72a4.83,4.83,0,0,0-1-.12,5,5,0,0,0-2,.48A3.41,3.41,0,0,0,119.4,28v9.6h-3.81Z" fill="#fff"/><path d="M126.67,20.29a2.18,2.18,0,0,1-.67-1.6,2.31,2.31,0,1,1,.67,1.6Zm-.28,2.81h3.81V37.59h-3.81Z" fill="#fff"/><path d="M143.94,35.73a5.87,5.87,0,0,1-2,1.66,5.39,5.39,0,0,1-2.47.59,6.2,6.2,0,0,1-3.3-.91,6.06,6.06,0,0,1-2.3-2.61,9.36,9.36,0,0,1-.82-4.09,9.28,9.28,0,0,1,.82-4,6.28,6.28,0,0,1,2.28-2.66,6,6,0,0,1,3.32-.93,5.55,5.55,0,0,1,2.46.57,5.68,5.68,0,0,1,2,1.65V17.58h3.84v20h-3.84Zm0-7.95a3.56,3.56,0,0,0-1.41-1.19,4.18,4.18,0,0,0-1.89-.46A3.34,3.34,0,0,0,138,27.3a4.52,4.52,0,0,0-1,3.07,4.47,4.47,0,0,0,1,3,3.35,3.35,0,0,0,2.64,1.18,4.19,4.19,0,0,0,1.89-.47,3.56,3.56,0,0,0,1.41-1.19Z" fill="#fff"/><path d="M161.52,35.73a5.87,5.87,0,0,1-2,1.66,5.39,5.39,0,0,1-2.47.59,6.2,6.2,0,0,1-3.3-.91,6.06,6.06,0,0,1-2.3-2.61,9.36,9.36,0,0,1-.82-4.09,9.28,9.28,0,0,1,.82-4,6.28,6.28,0,0,1,2.28-2.66,6,6,0,0,1,3.32-.93,5.55,5.55,0,0,1,2.46.57,5.68,5.68,0,0,1,2,1.65V23.1h3.84V37.59h-3.84Zm0-7.92a3.56,3.56,0,0,0-1.41-1.19,4.18,4.18,0,0,0-1.89-.46,3.35,3.35,0,0,0-2.64,1.15,4.49,4.49,0,0,0-1,3.06,4.47,4.47,0,0,0,1,3,3.35,3.35,0,0,0,2.64,1.18,4.19,4.19,0,0,0,1.89-.47,3.56,3.56,0,0,0,1.41-1.19Z" fill="#fff"/><path d="M170.67,38.55a4.59,4.59,0,0,0,1.92,1.35,6.71,6.71,0,0,0,2.43.45,4,4,0,0,0,2.88-1,3.62,3.62,0,0,0,1-2.76v-1.5a6.89,6.89,0,0,1-2.15,1.56,6.69,6.69,0,0,1-3,.63,4.69,4.69,0,0,1-3.51-1.2,4.61,4.61,0,0,1-1.17-3.36V23.1H173v8.16a2.63,2.63,0,0,0,.69,2.05,2.88,2.88,0,0,0,2,.62,3.85,3.85,0,0,0,1.89-.48,4.55,4.55,0,0,0,1.41-1.17V23.1h3.81V36.45a6.54,6.54,0,0,1-2.09,5.17A8.17,8.17,0,0,1,175,43.47,8.86,8.86,0,0,1,169,41.31Z" fill="#fff"/><path d="M204.15,35.73a5.87,5.87,0,0,1-2,1.66,5.39,5.39,0,0,1-2.47.59,6.2,6.2,0,0,1-3.3-.91,6.06,6.06,0,0,1-2.3-2.61,9.36,9.36,0,0,1-.82-4.09,9.28,9.28,0,0,1,.82-4,6.28,6.28,0,0,1,2.28-2.66,6,6,0,0,1,3.32-.93,5.58,5.58,0,0,1,2.46.57,5.68,5.68,0,0,1,2,1.65V17.58H208v20h-3.84Zm0-7.95a3.56,3.56,0,0,0-1.41-1.19,4.18,4.18,0,0,0-1.89-.46,3.34,3.34,0,0,0-2.64,1.17,4.52,4.52,0,0,0-1,3.07,4.47,4.47,0,0,0,1,3,3.35,3.35,0,0,0,2.64,1.18,4.19,4.19,0,0,0,1.89-.47,3.56,3.56,0,0,0,1.41-1.19Z" fill="#fff"/><path d="M211.8,26.51a7.27,7.27,0,0,1,2.67-2.75,7.41,7.41,0,0,1,3.87-1,7.12,7.12,0,0,1,3.78,1,6.8,6.8,0,0,1,2.56,2.82,9.13,9.13,0,0,1,.92,4.16v.84H214.83A3.75,3.75,0,0,0,216.12,34,4.25,4.25,0,0,0,219,35a6.09,6.09,0,0,0,2.11-.39,5,5,0,0,0,1.76-1.05L224.55,36a7.19,7.19,0,0,1-2.64,1.48,10.55,10.55,0,0,1-3.33.53,8.28,8.28,0,0,1-4-.95,6.9,6.9,0,0,1-2.78-2.68,8.33,8.33,0,0,1,0-7.84Zm4,.23a3.92,3.92,0,0,0-1,2.24h7.14a3.67,3.67,0,0,0-1-2.22,3.29,3.29,0,0,0-2.59-1A3.26,3.26,0,0,0,215.82,26.74Z" fill="#fff"/><path d="M238.32,35.73a5.87,5.87,0,0,1-2,1.66,5.39,5.39,0,0,1-2.47.59,6.2,6.2,0,0,1-3.3-.91,6.06,6.06,0,0,1-2.3-2.61,9.36,9.36,0,0,1-.82-4.09,9.28,9.28,0,0,1,.82-4,6.28,6.28,0,0,1,2.28-2.66,6,6,0,0,1,3.32-.93,5.58,5.58,0,0,1,2.46.57,5.68,5.68,0,0,1,2,1.65V23.1h3.84V37.59h-3.84Zm0-7.92a3.56,3.56,0,0,0-1.41-1.19,4.18,4.18,0,0,0-1.89-.46,3.35,3.35,0,0,0-2.64,1.15,4.49,4.49,0,0,0-1,3.06,4.47,4.47,0,0,0,1,3A3.35,3.35,0,0,0,235,34.59a4.19,4.19,0,0,0,1.89-.47,3.56,3.56,0,0,0,1.41-1.19Z" fill="#fff"/><path d="M247,37a4,4,0,0,1-1-3V17.58h3.81V33a1.77,1.77,0,0,0,.36,1.14,1.15,1.15,0,0,0,1,.46,2.45,2.45,0,0,0,.78-.12,1.11,1.11,0,0,0,.51-.3l.81,2.88A4.68,4.68,0,0,1,250,38,4.22,4.22,0,0,1,247,37Z" fill="#fff"/><path d="M255.27,33.06a7.59,7.59,0,0,0,2.27,1.38,7.11,7.11,0,0,0,2.74.6,3.4,3.4,0,0,0,1.81-.4,1.22,1.22,0,0,0,.61-1.09,1.14,1.14,0,0,0-.71-1.06,9.47,9.47,0,0,0-2.2-.66,21.46,21.46,0,0,1-2.88-.72,4.71,4.71,0,0,1-2-1.31,3.5,3.5,0,0,1-.84-2.5,4,4,0,0,1,.7-2.28,4.75,4.75,0,0,1,2.06-1.67,7.57,7.57,0,0,1,3.17-.61,9.15,9.15,0,0,1,5.86,2l-1.53,2.61a5.39,5.39,0,0,0-1.85-1.2,6.32,6.32,0,0,0-2.44-.48,3.31,3.31,0,0,0-1.67.36,1.11,1.11,0,0,0-.62,1,1,1,0,0,0,.68.94,10.47,10.47,0,0,0,2.08.62,19.24,19.24,0,0,1,2.91.75,4.94,4.94,0,0,1,2,1.38,3.72,3.72,0,0,1,.88,2.62,4.12,4.12,0,0,1-.74,2.39,4.74,4.74,0,0,1-2.16,1.67,8.63,8.63,0,0,1-3.37.61,10.91,10.91,0,0,1-3.62-.6,8,8,0,0,1-2.86-1.65Z" fill="#fff"/><path d="M13.74,63.05A7.26,7.26,0,0,0,16,64.43a7,7,0,0,0,2.73.61,3.4,3.4,0,0,0,1.81-.4,1.23,1.23,0,0,0,.62-1.09,1.15,1.15,0,0,0-.72-1.06,9.36,9.36,0,0,0-2.19-.66,19.9,19.9,0,0,1-2.88-.73,4.63,4.63,0,0,1-2-1.3,3.55,3.55,0,0,1-.84-2.5,4.06,4.06,0,0,1,.7-2.29,4.86,4.86,0,0,1,2.06-1.66,7.61,7.61,0,0,1,3.18-.61,9.06,9.06,0,0,1,5.85,2l-1.53,2.61A5.39,5.39,0,0,0,21,56.13a6.29,6.29,0,0,0-2.44-.49,3.21,3.21,0,0,0-1.67.37,1.1,1.1,0,0,0-.61,1,1,1,0,0,0,.67.94,9.87,9.87,0,0,0,2.09.61,20.74,20.74,0,0,1,2.91.76,5,5,0,0,1,2,1.38,3.77,3.77,0,0,1,.87,2.62,4.12,4.12,0,0,1-.74,2.39,4.74,4.74,0,0,1-2.16,1.67,8.64,8.64,0,0,1-3.37.6A11.21,11.21,0,0,1,15,67.38a7.93,7.93,0,0,1-2.86-1.66Z" fill="#fff"/><path d="M29.46,67A3.91,3.91,0,0,1,28.41,64V56.43H26V53.1h2.4v-4h3.84v4h2.94v3.33H32.25V63a1.77,1.77,0,0,0,.36,1.14,1.18,1.18,0,0,0,1,.46,2.45,2.45,0,0,0,.78-.12,1.37,1.37,0,0,0,.54-.3l.81,2.88a4.68,4.68,0,0,1-3.18.92A4.22,4.22,0,0,1,29.46,67Z" fill="#fff"/><path d="M47.76,65.72a5.79,5.79,0,0,1-2,1.67,5.38,5.38,0,0,1-2.47.58,6.19,6.19,0,0,1-3.3-.9,6.06,6.06,0,0,1-2.3-2.61,10.49,10.49,0,0,1,0-8.13A6.28,6.28,0,0,1,40,53.67a6,6,0,0,1,3.32-.93,5.68,5.68,0,0,1,2.46.56,5.81,5.81,0,0,1,2,1.66V53.1H51.6V67.59H47.76Zm0-7.91a3.56,3.56,0,0,0-1.41-1.19,4.18,4.18,0,0,0-1.89-.46,3.35,3.35,0,0,0-2.64,1.15,5.07,5.07,0,0,0,0,6.1,3.35,3.35,0,0,0,2.64,1.18,4.19,4.19,0,0,0,1.89-.47,3.56,3.56,0,0,0,1.41-1.19Z" fill="#fff"/><path d="M55.38,53.1h3.81v2a6.41,6.41,0,0,1,2-1.67,5.4,5.4,0,0,1,2.58-.67v3.72a4.83,4.83,0,0,0-1.05-.12,5,5,0,0,0-2,.48A3.41,3.41,0,0,0,59.19,58v9.6H55.38Z" fill="#fff"/><path d="M68,67a3.91,3.91,0,0,1-1-2.94V56.43h-2.4V53.1h2.4v-4h3.84v4h2.94v3.33H70.77V63a1.77,1.77,0,0,0,.36,1.14,1.18,1.18,0,0,0,1,.46,2.45,2.45,0,0,0,.78-.12,1.37,1.37,0,0,0,.54-.3l.81,2.88A4.68,4.68,0,0,1,71,68,4.22,4.22,0,0,1,68,67Z" fill="#fff"/><path d="M85.8,67a3.91,3.91,0,0,1-1-2.94V56.43h-2.4V53.1h2.4v-4h3.84v4h2.94v3.33H88.59V63A1.77,1.77,0,0,0,89,64.13a1.18,1.18,0,0,0,1,.46,2.45,2.45,0,0,0,.78-.12,1.37,1.37,0,0,0,.54-.3L92,67.05a4.68,4.68,0,0,1-3.18.92A4.22,4.22,0,0,1,85.8,67Z" fill="#fff"/><path d="M104,58.76a2.6,2.6,0,0,0-.69-2,3,3,0,0,0-2-.59,3.75,3.75,0,0,0-1.89.49A4.42,4.42,0,0,0,98,57.84v9.75H94.14v-20H98V55a6.56,6.56,0,0,1,2.11-1.6,6.8,6.8,0,0,1,3-.65,4.77,4.77,0,0,1,3.52,1.19,4.6,4.6,0,0,1,1.19,3.37V67.59H104Z" fill="#fff"/><path d="M111.82,50.29a2.26,2.26,0,1,1,1.61.68A2.2,2.2,0,0,1,111.82,50.29Zm-.29,2.81h3.82V67.59h-3.82Z" fill="#fff"/><path d="M119.52,63.05a7.21,7.21,0,0,0,2.27,1.38,7,7,0,0,0,2.74.61,3.4,3.4,0,0,0,1.81-.4,1.22,1.22,0,0,0,.61-1.09,1.14,1.14,0,0,0-.71-1.06,9.47,9.47,0,0,0-2.2-.66,19.9,19.9,0,0,1-2.88-.73,4.6,4.6,0,0,1-2-1.3,3.5,3.5,0,0,1-.84-2.5,4.06,4.06,0,0,1,.7-2.29,4.8,4.8,0,0,1,2.06-1.66,7.57,7.57,0,0,1,3.17-.61,9.09,9.09,0,0,1,5.86,2l-1.53,2.61a5.39,5.39,0,0,0-1.85-1.2,6.33,6.33,0,0,0-2.44-.49,3.21,3.21,0,0,0-1.67.37,1.11,1.11,0,0,0-.62,1,1,1,0,0,0,.68.94,9.93,9.93,0,0,0,2.08.61,20.38,20.38,0,0,1,2.91.76,4.94,4.94,0,0,1,2,1.38,3.72,3.72,0,0,1,.88,2.62,4.12,4.12,0,0,1-.74,2.39,4.74,4.74,0,0,1-2.16,1.67,8.64,8.64,0,0,1-3.37.6,11.17,11.17,0,0,1-3.62-.59,7.85,7.85,0,0,1-2.86-1.66Z" fill="#fff"/><path d="M150.77,57.72l-3.06,9.87h-4.08L139.22,53.1h4l2.7,9.75,3.18-9.75h3.39l3.18,9.75,2.7-9.75h4l-4.41,14.49h-4Z" fill="#fff"/><path d="M164.21,56.51a7.27,7.27,0,0,1,2.67-2.75,7.43,7.43,0,0,1,3.87-1,7.12,7.12,0,0,1,3.78,1,6.82,6.82,0,0,1,2.57,2.82,9.13,9.13,0,0,1,.91,4.16v.83H167.24A3.79,3.79,0,0,0,168.53,64a4.25,4.25,0,0,0,2.88,1,5.9,5.9,0,0,0,2.12-.4,4.79,4.79,0,0,0,1.75-1L177,66a7.22,7.22,0,0,1-2.63,1.48A10.66,10.66,0,0,1,171,68a8.27,8.27,0,0,1-4-.94,6.87,6.87,0,0,1-2.77-2.68,7.83,7.83,0,0,1-1-4A7.75,7.75,0,0,1,164.21,56.51Zm4,.23A3.88,3.88,0,0,0,167.18,59h7.15a3.73,3.73,0,0,0-1-2.21,3.32,3.32,0,0,0-2.6-1A3.22,3.22,0,0,0,168.24,56.74Z" fill="#fff"/><path d="M180.8,56.51a7.27,7.27,0,0,1,2.67-2.75,7.43,7.43,0,0,1,3.87-1,7.12,7.12,0,0,1,3.78,1,6.82,6.82,0,0,1,2.57,2.82,9.13,9.13,0,0,1,.91,4.16v.83H183.83A3.75,3.75,0,0,0,185.12,64,4.25,4.25,0,0,0,188,65a5.94,5.94,0,0,0,2.12-.4,4.79,4.79,0,0,0,1.75-1L193.55,66a7.19,7.19,0,0,1-2.64,1.48,10.55,10.55,0,0,1-3.33.52,8.27,8.27,0,0,1-4-.94,6.87,6.87,0,0,1-2.77-2.68,7.83,7.83,0,0,1-1-4A7.75,7.75,0,0,1,180.8,56.51Zm4,.23A3.88,3.88,0,0,0,183.77,59h7.14a3.66,3.66,0,0,0-1-2.21,3.32,3.32,0,0,0-2.6-1A3.22,3.22,0,0,0,184.83,56.74Z" fill="#fff"/><path d="M202.91,62l-1.74,1.86v3.72h-3.81v-20h3.81v12l5.49-6.45h4.68l-5.73,6.57,5.91,7.92h-4.77Z" fill="#fff"/><path d="M212.81,56.51a7.27,7.27,0,0,1,2.67-2.75,7.41,7.41,0,0,1,3.87-1,7.12,7.12,0,0,1,3.78,1,6.82,6.82,0,0,1,2.57,2.82,9.13,9.13,0,0,1,.91,4.16v.83H215.84A3.75,3.75,0,0,0,217.13,64,4.25,4.25,0,0,0,220,65a5.94,5.94,0,0,0,2.12-.4,4.79,4.79,0,0,0,1.75-1L225.56,66a7.19,7.19,0,0,1-2.64,1.48,10.55,10.55,0,0,1-3.33.52,8.27,8.27,0,0,1-4-.94,6.87,6.87,0,0,1-2.77-2.68,7.83,7.83,0,0,1-1-4A7.75,7.75,0,0,1,212.81,56.51Zm4,.23A3.93,3.93,0,0,0,215.78,59h7.14a3.66,3.66,0,0,0-1-2.21,3.32,3.32,0,0,0-2.6-1A3.26,3.26,0,0,0,216.83,56.74Z" fill="#fff"/><path d="M239.15,58.83a2.69,2.69,0,0,0-.69-2.07,2.84,2.84,0,0,0-2-.63,3.71,3.71,0,0,0-1.9.49,4.49,4.49,0,0,0-1.4,1.22v9.75h-3.81V53.1h3.81V55a6.57,6.57,0,0,1,5.07-2.25A4.21,4.21,0,0,1,243,57.35V67.59h-3.81Z" fill="#fff"/><path d="M256.7,65.72a5.76,5.76,0,0,1-2,1.67,5.42,5.42,0,0,1-2.48.58,6.19,6.19,0,0,1-3.3-.9,6,6,0,0,1-2.29-2.61,10.37,10.37,0,0,1,0-8.13,6.28,6.28,0,0,1,2.28-2.66,6,6,0,0,1,3.31-.93,5.68,5.68,0,0,1,2.46.56,5.81,5.81,0,0,1,2,1.66V47.58h3.84v20H256.7Zm0-7.94a3.56,3.56,0,0,0-1.41-1.19,4.18,4.18,0,0,0-1.89-.46,3.34,3.34,0,0,0-2.64,1.17,5.08,5.08,0,0,0,0,6.11,3.35,3.35,0,0,0,2.64,1.18,4.19,4.19,0,0,0,1.89-.47,3.56,3.56,0,0,0,1.41-1.19Z" fill="#fff"/><path d="M264.58,63.78a2.29,2.29,0,0,1,1.69-.73,2.48,2.48,0,0,1,2.43,2.44,2.32,2.32,0,0,1-.72,1.68,2.38,2.38,0,0,1-1.71.72,2.31,2.31,0,0,1-1.69-.72,2.38,2.38,0,0,1,0-3.39ZM264,47.58h4.59l-.6,13.5h-3.36Z" fill="#fff"/><path d="M410.26,90.5c9.81-34.77,39.92-56.95,76.15-56.95,35.68,0,66,23.85,76.09,56.7" fill="#e52823"/><g clip-path="url(#clip-path)"><g clip-path="url(#clip-path)"><path d="M614,56c15.37-4.69,23.14,7.08,23.14,7.08S632.23,46.62,614,56" fill="#fff"/><path d="M643.69,56.59c0-.07,0-.49,0-.56a11.48,11.48,0,0,0-6.06,8.82s2.09-4.86,7-6.33a3,3,0,0,1-.95-1.93" fill="#fff"/><path d="M624.08,63.45s0,2.33,0,3.5c-.59,0-3.14-.16-4.26-.2,0,.62,0,1.27,0,1.9,1.34,0,2.73.18,4.08.17,0,1.13,0,2.1,0,3.22-1.34,0-2.69-.1-4-.13,0,.68,0,1.37,0,2,1.44,0,2.89.15,4.34.13,0,0,0,3.43,0,3.43-2.86,0-6.25-.22-9.46-.49l.22-14.29c1.35.16,5.55.6,9.2.71" fill="#fff"/><path d="M625.3,63.49l-.06,3.73c1.35.06,2.56.07,2.56.07V77.65a34.3,34.3,0,0,0,5.16-.07l-.06-10.26s2.28-.11,2.64-.14c0-1.37,0-2.44,0-3.81a90.91,90.91,0,0,1-10.18.12" fill="#fff"/><path d="M694.28,61.21c0,1.49,0,2.85,0,4.33.87,0,1.87.23,2.74.3,0,3.61-.09,6.35-.09,10,2.43.29,4.15.57,4.82.69,0-3.61.14-6.46.14-10.07,0,0,2.58.4,2.62.44,0-1.48,0-3,0-4.45a79.21,79.21,0,0,0-10.23-1.2" fill="#fff"/><path d="M608.58,61.27l-6.12-1.11,0,15c1.57.31,3,.57,4.53.74l0-4.33,1.66.18c2.65.25,5.32-.75,5.36-5.1,0-3.84-2.53-5-5.37-5.37m-1.13,6.91-.45-.05c0-1,0-2,0-2.94l.43,0a1.5,1.5,0,0,1,1.5,1.57c0,1.21-.76,1.45-1.5,1.37" fill="#fff"/><path d="M659.65,75.2c.68-1.79,1.37-3.46,2.05-5.24.11,1.71.18,3.25.29,5,1.7-.19,3.08-.29,4.8-.39-.45-4.56-.83-9.44-1.27-14-1.47.12-2.94.26-4.41.4-.83,2.15-1.65,4.76-2.48,6.91-.79-2-1.59-4.33-2.38-6.31-1.49.21-4.14.67-4.41.68-.51,4.64-1.09,9.8-1.6,14.44,1.17-.21,4-.66,4.89-.78.14-1.73.27-3.58.4-5.31l2,5,2.13-.33" fill="#fff"/><path d="M691.06,70.43c1.3-.59,2.25-1.86,2.28-4.37,0-3.79-2.63-5.41-5.34-5.61-2-.17-4.1-.27-6.16-.33-.06,4.81-.09,9.22-.15,14,1.53,0,3.22.16,4.56.27,0-1.36,0-2.36,0-3.72l2.48,4c1.88.17,3.82.41,5.7.69-1.18-1.76-2.24-3.27-3.42-5m-4.26-3.08-.45,0c0-1,0-1.93,0-2.89l.43,0a1.44,1.44,0,0,1,1.5,1.52,1.25,1.25,0,0,1-1.52,1.38" fill="#fff"/><path d="M676.48,60c-1.82,0-3.31,0-4.87.09-1.25,4.67-2.73,9.67-4,14.36,1.4,0,2.81-.12,4.21-.12.12-.5.27-1.07.4-1.56l2.13-.05c-.05,0,1.88-.06,1.88-.06,0,.18.22.67.47,1.49,1.39,0,2.79,0,4.18,0-1.51-4.94-3-9.7-4.41-14.18m-3.35,9.47c.32-1.19.65-2.45,1-3.64.37,1.2.73,2.4,1.1,3.6a19.56,19.56,0,0,1-2.06,0" fill="#fff"/><path d="M702.84,75.16a.77.77,0,0,1,0,1.53.77.77,0,0,1,0-1.53Zm0,.11a.65.65,0,0,0,0,1.3.65.65,0,0,0,0-1.3Zm-.14,1.1h-.14v-.86l.25,0a.4.4,0,0,1,.26.07.19.19,0,0,1,.08.17.21.21,0,0,1-.17.21h0q.12,0,.15.21a1,1,0,0,0,0,.21H703a.77.77,0,0,1-.06-.22.16.16,0,0,0-.18-.15h-.1Zm0-.48h.1c.11,0,.21,0,.21-.14s-.06-.15-.21-.15h-.1Z" fill="#fff"/><path d="M637.11,76.32a12.64,12.64,0,0,0,5.67,1.43c3.2,0,6.55-1.92,6.62-5.51.05-2.55-1.57-3.77-3.84-4.27l-1.21-.28c-.41-.1-1.08-.17-1.07-.73s.71-.8,1.18-.8a8.35,8.35,0,0,1,3.27.69l1.36-3.61a10.61,10.61,0,0,0-4.67-1.11c-3.22,0-6.46,1.95-6.53,5.52,0,2.35,1.7,3.64,3.79,4l1.08.2c.49.1,1.19.16,1.18.84s-.85.76-1.38.76a6.39,6.39,0,0,1-3.68-1.22c-.55,1.26-1.21,2.81-1.77,4.06" fill="#fff"/><path d="M648.7,51.89a3.61,3.61,0,1,0,3.56,3.66,3.61,3.61,0,0,0-3.56-3.66M650,53.22a4.32,4.32,0,0,0-3.87,2.27.13.13,0,0,0,0,.06,2.5,2.5,0,0,1,.09-1,2.45,2.45,0,0,1,3-1.75,2.19,2.19,0,0,1,.85.46l0,0" fill="#fff"/></g></g></g><g id="REC"><rect x="0.5" y="0.5" width="728" height="90" fill="none"/></g></g></svg>