<svg xmlns="http://www.w3.org/2000/svg" xmlns:xlink="http://www.w3.org/1999/xlink" viewBox="0 0 728 90"><defs><clipPath id="clip-path"><rect x="593.12" y="51.46" width="107.9" height="27.33" fill="none"/></clipPath></defs><title>START 728X90</title><g id="Layer_2" data-name="Layer 2"><g id="CONTENT"><rect width="728" height="90" fill="#fff"/><path d="M14.16,20.07H24.69a6.49,6.49,0,0,1,3.13.71,4.86,4.86,0,0,1,2,1.86,5,5,0,0,1,.66,2.53,4.72,4.72,0,0,1-1,3.06A4.15,4.15,0,0,1,27,29.76a4.18,4.18,0,0,1,2.73,1.65,5.14,5.14,0,0,1,1.11,3.27,5.25,5.25,0,0,1-1.53,3.87A5.8,5.8,0,0,1,25,40.08H14.16Zm9.6,8a2.34,2.34,0,0,0,1.71-.61,2.15,2.15,0,0,0,.63-1.61,2.1,2.1,0,0,0-.65-1.56,2.31,2.31,0,0,0-1.69-.63H18.42v4.41Zm.15,8.34a2.66,2.66,0,0,0,1.89-.64,2.26,2.26,0,0,0,.69-1.73,2.23,2.23,0,0,0-.69-1.66,2.59,2.59,0,0,0-1.89-.68H18.42v4.71Z" fill="#e52823"/><path d="M35,39.47a4,4,0,0,1-1-3V20.07h3.81V35.49a1.77,1.77,0,0,0,.36,1.14,1.17,1.17,0,0,0,1,.45,2.45,2.45,0,0,0,.78-.12,1.11,1.11,0,0,0,.51-.3l.81,2.88a4.63,4.63,0,0,1-3.15.93A4.22,4.22,0,0,1,35,39.47Z" fill="#e52823"/><path d="M52.86,38.22a5.91,5.91,0,0,1-2,1.67,5.38,5.38,0,0,1-2.47.58,6.19,6.19,0,0,1-3.3-.9A6.06,6.06,0,0,1,42.79,37,9.39,9.39,0,0,1,42,32.87a9.28,9.28,0,0,1,.82-4,6.22,6.22,0,0,1,2.28-2.66,6,6,0,0,1,3.32-.94,5.55,5.55,0,0,1,2.46.57,5.68,5.68,0,0,1,2,1.65V25.59H56.7V40.08H52.86Zm0-7.91a3.56,3.56,0,0,0-1.41-1.19,4.19,4.19,0,0,0-1.89-.47,3.36,3.36,0,0,0-2.64,1.16,4.47,4.47,0,0,0-1,3.06,4.47,4.47,0,0,0,1,3,3.34,3.34,0,0,0,2.64,1.17,4.18,4.18,0,0,0,1.89-.46,3.56,3.56,0,0,0,1.41-1.19Z" fill="#e52823"/><path d="M60.54,28.92a7,7,0,0,1,2.73-2.71,8,8,0,0,1,4-1,7.58,7.58,0,0,1,3.48.74A6.07,6.07,0,0,1,73,27.84l-2.49,2.34a3.46,3.46,0,0,0-3.06-1.56,3.75,3.75,0,0,0-2.84,1.16,4.28,4.28,0,0,0-1.09,3.06,4.32,4.32,0,0,0,1.09,3.07,3.81,3.81,0,0,0,5.9-.39L73,37.83a6.26,6.26,0,0,1-2.24,1.89,7.41,7.41,0,0,1-3.49.75,8,8,0,0,1-4-1,7.11,7.11,0,0,1-2.73-2.71,8.32,8.32,0,0,1,0-7.87Z" fill="#e52823"/><path d="M81,34.5l-1.74,1.86v3.72H75.45v-20h3.81V32l5.49-6.45h4.68L83.7,32.16l5.91,7.92H84.84Z" fill="#e52823"/><path d="M99.27,20.07h14.16v3.66h-9.9v4.35h9.69v3.66h-9.69v8.34H99.27Z" fill="#e52823"/><path d="M116.31,25.59h3.81v2a6.38,6.38,0,0,1,2-1.66,5.41,5.41,0,0,1,2.58-.68V29a4.83,4.83,0,0,0-1-.12,4.9,4.9,0,0,0-2,.49,3.41,3.41,0,0,0-1.53,1.17v9.59h-3.81Z" fill="#e52823"/><path d="M127.39,22.79a2.2,2.2,0,0,1-.67-1.61,2.18,2.18,0,0,1,.67-1.6,2.28,2.28,0,0,1,3.23,3.21,2.17,2.17,0,0,1-1.62.67A2.2,2.2,0,0,1,127.39,22.79Zm-.28,2.8h3.81V40.08h-3.81Z" fill="#e52823"/><path d="M144.66,38.22a5.91,5.91,0,0,1-2,1.67,5.38,5.38,0,0,1-2.47.58,6.19,6.19,0,0,1-3.3-.9,6.06,6.06,0,0,1-2.3-2.61,9.39,9.39,0,0,1-.82-4.09,9.28,9.28,0,0,1,.82-4,6.22,6.22,0,0,1,2.28-2.66,6,6,0,0,1,3.32-.94,5.55,5.55,0,0,1,2.46.57,5.68,5.68,0,0,1,2,1.65V20.07h3.84v20h-3.84Zm0-7.94a3.56,3.56,0,0,0-1.41-1.19,4.19,4.19,0,0,0-1.89-.47,3.35,3.35,0,0,0-2.64,1.18,4.5,4.5,0,0,0-1,3.07,4.47,4.47,0,0,0,1,3,3.34,3.34,0,0,0,2.64,1.17,4.18,4.18,0,0,0,1.89-.46,3.56,3.56,0,0,0,1.41-1.19Z" fill="#e52823"/><path d="M162.24,38.22a5.91,5.91,0,0,1-2,1.67,5.38,5.38,0,0,1-2.47.58,6.19,6.19,0,0,1-3.3-.9,6.06,6.06,0,0,1-2.3-2.61,9.39,9.39,0,0,1-.82-4.09,9.28,9.28,0,0,1,.82-4,6.22,6.22,0,0,1,2.28-2.66,6,6,0,0,1,3.32-.94,5.55,5.55,0,0,1,2.46.57,5.68,5.68,0,0,1,2,1.65V25.59h3.84V40.08h-3.84Zm0-7.91a3.56,3.56,0,0,0-1.41-1.19,4.19,4.19,0,0,0-1.89-.47,3.36,3.36,0,0,0-2.64,1.16,4.47,4.47,0,0,0-1,3.06,4.47,4.47,0,0,0,1,3,3.34,3.34,0,0,0,2.64,1.17,4.18,4.18,0,0,0,1.89-.46,3.56,3.56,0,0,0,1.41-1.19Z" fill="#e52823"/><path d="M171.39,41a4.59,4.59,0,0,0,1.92,1.35,6.71,6.71,0,0,0,2.43.45,4,4,0,0,0,2.88-1,3.61,3.61,0,0,0,1-2.76v-1.5a6.89,6.89,0,0,1-2.15,1.56,6.69,6.69,0,0,1-3,.63,4.69,4.69,0,0,1-3.51-1.2,4.61,4.61,0,0,1-1.17-3.36V25.59h3.81v8.16a2.65,2.65,0,0,0,.69,2.06,2.88,2.88,0,0,0,2,.61,3.85,3.85,0,0,0,1.89-.48,4.55,4.55,0,0,0,1.41-1.17V25.59h3.81V38.94a6.56,6.56,0,0,1-2.09,5.18A8.17,8.17,0,0,1,175.74,46a8.86,8.86,0,0,1-6.06-2.16Z" fill="#e52823"/><path d="M204.87,38.22a5.91,5.91,0,0,1-2,1.67,5.38,5.38,0,0,1-2.47.58,6.19,6.19,0,0,1-3.3-.9A6.06,6.06,0,0,1,194.8,37a9.39,9.39,0,0,1-.82-4.09,9.28,9.28,0,0,1,.82-4,6.22,6.22,0,0,1,2.28-2.66,6,6,0,0,1,3.32-.94,5.55,5.55,0,0,1,2.46.57,5.68,5.68,0,0,1,2,1.65V20.07h3.84v20h-3.84Zm0-7.94a3.56,3.56,0,0,0-1.41-1.19,4.19,4.19,0,0,0-1.89-.47,3.35,3.35,0,0,0-2.64,1.18,4.5,4.5,0,0,0-1,3.07,4.47,4.47,0,0,0,1,3,3.34,3.34,0,0,0,2.64,1.17,4.18,4.18,0,0,0,1.89-.46,3.56,3.56,0,0,0,1.41-1.19Z" fill="#e52823"/><path d="M212.52,29a7.2,7.2,0,0,1,2.67-2.75,7.32,7.32,0,0,1,3.87-1,7.12,7.12,0,0,1,3.78,1,6.8,6.8,0,0,1,2.56,2.82,9.09,9.09,0,0,1,.92,4.15v.84H215.55a3.75,3.75,0,0,0,1.29,2.43,4.25,4.25,0,0,0,2.88,1,6.09,6.09,0,0,0,2.11-.39,5,5,0,0,0,1.76-1l1.68,2.46A7.2,7.2,0,0,1,222.63,40a10.55,10.55,0,0,1-3.33.52,8.27,8.27,0,0,1-4-.94,7,7,0,0,1-2.78-2.68,8.33,8.33,0,0,1,0-7.84Zm4,.23a3.9,3.9,0,0,0-1,2.23h7.14a3.67,3.67,0,0,0-1-2.22,3.81,3.81,0,0,0-5.11,0Z" fill="#e52823"/><path d="M239,38.22a5.91,5.91,0,0,1-2,1.67,5.38,5.38,0,0,1-2.47.58,6.19,6.19,0,0,1-3.3-.9A6.06,6.06,0,0,1,229,37a9.39,9.39,0,0,1-.82-4.09,9.28,9.28,0,0,1,.82-4,6.22,6.22,0,0,1,2.28-2.66,6,6,0,0,1,3.32-.94,5.55,5.55,0,0,1,2.46.57,5.68,5.68,0,0,1,2,1.65V25.59h3.84V40.08H239Zm0-7.91a3.56,3.56,0,0,0-1.41-1.19,4.19,4.19,0,0,0-1.89-.47,3.36,3.36,0,0,0-2.64,1.16,4.47,4.47,0,0,0-1,3.06,4.47,4.47,0,0,0,1,3,3.34,3.34,0,0,0,2.64,1.17,4.18,4.18,0,0,0,1.89-.46A3.56,3.56,0,0,0,239,35.43Z" fill="#e52823"/><path d="M247.69,39.47a4,4,0,0,1-1-3V20.07h3.81V35.49a1.77,1.77,0,0,0,.36,1.14,1.17,1.17,0,0,0,1,.45,2.45,2.45,0,0,0,.78-.12,1.11,1.11,0,0,0,.51-.3l.81,2.88a4.63,4.63,0,0,1-3.15.93A4.22,4.22,0,0,1,247.69,39.47Z" fill="#e52823"/><path d="M256,35.55a7.65,7.65,0,0,0,2.28,1.38,7.11,7.11,0,0,0,2.73.6,3.4,3.4,0,0,0,1.81-.39,1.24,1.24,0,0,0,.62-1.09,1.15,1.15,0,0,0-.72-1.06,9.79,9.79,0,0,0-2.19-.67,21.46,21.46,0,0,1-2.88-.72,4.72,4.72,0,0,1-2-1.3,3.58,3.58,0,0,1-.84-2.51,4,4,0,0,1,.7-2.28,4.79,4.79,0,0,1,2.06-1.66,7.61,7.61,0,0,1,3.18-.62,9.12,9.12,0,0,1,5.85,2l-1.53,2.61a5.39,5.39,0,0,0-1.85-1.2,6.28,6.28,0,0,0-2.44-.48,3.31,3.31,0,0,0-1.67.36,1.1,1.1,0,0,0-.61,1,1,1,0,0,0,.67,1,10.51,10.51,0,0,0,2.09.61,19.45,19.45,0,0,1,2.91.76,5,5,0,0,1,2,1.38,3.77,3.77,0,0,1,.87,2.62,4.12,4.12,0,0,1-.74,2.39,4.81,4.81,0,0,1-2.16,1.67,8.64,8.64,0,0,1-3.37.6,11,11,0,0,1-3.62-.6,8.06,8.06,0,0,1-2.86-1.65Z" fill="#e52823"/><path d="M14.46,65.55a7.65,7.65,0,0,0,2.28,1.38,7.11,7.11,0,0,0,2.73.6,3.4,3.4,0,0,0,1.81-.39,1.24,1.24,0,0,0,.62-1.09A1.15,1.15,0,0,0,21.18,65,9.79,9.79,0,0,0,19,64.32a21.46,21.46,0,0,1-2.88-.72,4.72,4.72,0,0,1-2-1.3,3.58,3.58,0,0,1-.84-2.51,4,4,0,0,1,.7-2.28,4.79,4.79,0,0,1,2.06-1.66,7.61,7.61,0,0,1,3.18-.62,9.12,9.12,0,0,1,5.85,2l-1.53,2.61a5.39,5.39,0,0,0-1.85-1.2,6.28,6.28,0,0,0-2.44-.48,3.31,3.31,0,0,0-1.67.36,1.1,1.1,0,0,0-.61,1,1,1,0,0,0,.67.95,10.51,10.51,0,0,0,2.09.61,19.45,19.45,0,0,1,2.91.76,5,5,0,0,1,2,1.38,3.77,3.77,0,0,1,.87,2.62,4.12,4.12,0,0,1-.74,2.39,4.81,4.81,0,0,1-2.16,1.67,8.64,8.64,0,0,1-3.37.6,11,11,0,0,1-3.62-.6,8.06,8.06,0,0,1-2.86-1.65Z" fill="#e52823"/><path d="M30.18,69.45a3.92,3.92,0,0,1-1.05-3V58.92h-2.4V55.59h2.4v-4H33v4h2.94v3.33H33v6.57a1.77,1.77,0,0,0,.36,1.14,1.17,1.17,0,0,0,1,.45,2.45,2.45,0,0,0,.78-.12,1.37,1.37,0,0,0,.54-.3l.81,2.88a4.68,4.68,0,0,1-3.18.93A4.22,4.22,0,0,1,30.18,69.45Z" fill="#e52823"/><path d="M48.48,68.22a5.91,5.91,0,0,1-2,1.67,5.38,5.38,0,0,1-2.47.58,6.19,6.19,0,0,1-3.3-.9A6.06,6.06,0,0,1,38.41,67a10.49,10.49,0,0,1,0-8.13,6.22,6.22,0,0,1,2.28-2.66A6,6,0,0,1,44,55.23a5.55,5.55,0,0,1,2.46.57,5.68,5.68,0,0,1,2,1.65V55.59h3.84V70.08H48.48Zm0-7.91a3.56,3.56,0,0,0-1.41-1.19,4.19,4.19,0,0,0-1.89-.47,3.36,3.36,0,0,0-2.64,1.16,5.07,5.07,0,0,0,0,6.1,3.34,3.34,0,0,0,2.64,1.17,4.18,4.18,0,0,0,1.89-.46,3.56,3.56,0,0,0,1.41-1.19Z" fill="#e52823"/><path d="M56.1,55.59h3.81v2a6.38,6.38,0,0,1,2-1.66,5.41,5.41,0,0,1,2.58-.68V59a4.83,4.83,0,0,0-1.05-.12,5.06,5.06,0,0,0-2,.49,3.41,3.41,0,0,0-1.53,1.17v9.59H56.1Z" fill="#e52823"/><path d="M68.7,69.45a3.92,3.92,0,0,1-1-3V58.92h-2.4V55.59h2.4v-4h3.84v4h2.94v3.33H71.49v6.57a1.77,1.77,0,0,0,.36,1.14,1.17,1.17,0,0,0,1,.45,2.45,2.45,0,0,0,.78-.12,1.37,1.37,0,0,0,.54-.3l.81,2.88a4.68,4.68,0,0,1-3.18.93A4.22,4.22,0,0,1,68.7,69.45Z" fill="#e52823"/><path d="M86.52,69.45a3.92,3.92,0,0,1-1-3V58.92h-2.4V55.59h2.4v-4h3.84v4h2.94v3.33H89.31v6.57a1.77,1.77,0,0,0,.36,1.14,1.17,1.17,0,0,0,1,.45,2.45,2.45,0,0,0,.78-.12,1.37,1.37,0,0,0,.54-.3l.81,2.88a4.68,4.68,0,0,1-3.18.93A4.22,4.22,0,0,1,86.52,69.45Z" fill="#e52823"/><path d="M104.67,61.26a2.59,2.59,0,0,0-.69-2,3,3,0,0,0-2-.6,3.76,3.76,0,0,0-1.89.5,4.52,4.52,0,0,0-1.41,1.21v9.75H94.86v-20h3.81v7.41a6.4,6.4,0,0,1,2.11-1.59,6.66,6.66,0,0,1,3-.66,4.73,4.73,0,0,1,3.52,1.2,4.58,4.58,0,0,1,1.19,3.36V70.08h-3.81Z" fill="#e52823"/><path d="M112.54,52.79a2.2,2.2,0,0,1-.67-1.61,2.18,2.18,0,0,1,.67-1.6,2.28,2.28,0,0,1,3.23,3.21,2.17,2.17,0,0,1-1.62.67A2.2,2.2,0,0,1,112.54,52.79Zm-.28,2.8h3.81V70.08h-3.81Z" fill="#e52823"/><path d="M120.24,65.55a7.65,7.65,0,0,0,2.28,1.38,7.11,7.11,0,0,0,2.73.6,3.4,3.4,0,0,0,1.81-.39,1.24,1.24,0,0,0,.62-1.09A1.15,1.15,0,0,0,127,65a9.79,9.79,0,0,0-2.19-.67,21.46,21.46,0,0,1-2.88-.72,4.72,4.72,0,0,1-2-1.3,3.58,3.58,0,0,1-.84-2.51,4,4,0,0,1,.7-2.28,4.79,4.79,0,0,1,2.06-1.66,7.61,7.61,0,0,1,3.18-.62,9.12,9.12,0,0,1,5.85,2l-1.53,2.61a5.39,5.39,0,0,0-1.85-1.2,6.28,6.28,0,0,0-2.44-.48,3.31,3.31,0,0,0-1.67.36,1.1,1.1,0,0,0-.61,1,1,1,0,0,0,.67.95,10.51,10.51,0,0,0,2.09.61,19.45,19.45,0,0,1,2.91.76,5,5,0,0,1,2,1.38,3.77,3.77,0,0,1,.87,2.62,4.12,4.12,0,0,1-.74,2.39,4.81,4.81,0,0,1-2.16,1.67,8.64,8.64,0,0,1-3.37.6,11,11,0,0,1-3.62-.6,8.06,8.06,0,0,1-2.86-1.65Z" fill="#e52823"/><path d="M146.19,56.64V70.08h-4.26v-20h4.38l9.27,13v-13h4.25v20h-4.1Z" fill="#e52823"/><path d="M166.38,69.45a6.88,6.88,0,0,1-2.67-2.76,8,8,0,0,1-.93-3.85,7.88,7.88,0,0,1,.93-3.82,6.88,6.88,0,0,1,2.67-2.76,7.84,7.84,0,0,1,4.05-1,7.93,7.93,0,0,1,4.08,1A6.94,6.94,0,0,1,177.18,59a8.11,8.11,0,0,1,.93,3.82,8.2,8.2,0,0,1-.93,3.85,6.94,6.94,0,0,1-2.67,2.76,7.92,7.92,0,0,1-4.08,1A7.84,7.84,0,0,1,166.38,69.45Zm6.76-3.58a5,5,0,0,0,0-6,3.61,3.61,0,0,0-5.41,0,5.09,5.09,0,0,0,0,6,3.63,3.63,0,0,0,5.41,0Z" fill="#e52823"/><path d="M178.86,55.59h4.08l3.77,10.08,3.79-10.08h4.11l-5.82,14.49h-4.12Z" fill="#e52823"/><path d="M196.34,59A7.27,7.27,0,0,1,199,56.26a7.44,7.44,0,0,1,3.87-1,7.18,7.18,0,0,1,3.79,1,6.86,6.86,0,0,1,2.56,2.82,9.08,9.08,0,0,1,.91,4.15v.84H199.38a3.7,3.7,0,0,0,1.29,2.43,4.2,4.2,0,0,0,2.87,1,6.1,6.1,0,0,0,2.12-.39,5.09,5.09,0,0,0,1.76-1l1.67,2.46A7.24,7.24,0,0,1,206.46,70a10.66,10.66,0,0,1-3.34.52,8.23,8.23,0,0,1-4-.94,6.9,6.9,0,0,1-2.78-2.68,7.83,7.83,0,0,1-1-4A7.75,7.75,0,0,1,196.34,59Zm4,.23a3.91,3.91,0,0,0-1.06,2.23h7.15a3.73,3.73,0,0,0-1-2.22,3.31,3.31,0,0,0-2.6-1A3.22,3.22,0,0,0,200.37,59.24Z" fill="#e52823"/><path d="M230.88,60.93a2.52,2.52,0,0,0-.53-1.69,2,2,0,0,0-1.64-.62,3.12,3.12,0,0,0-1.72.51,4.69,4.69,0,0,0-1.28,1.17v9.78h-3.83V60.93a2.52,2.52,0,0,0-.53-1.69,2,2,0,0,0-1.64-.62,3.16,3.16,0,0,0-1.71.51,4.39,4.39,0,0,0-1.29,1.2v9.75H212.9V55.59h3.81v1.89A5.49,5.49,0,0,1,218.6,56a5.89,5.89,0,0,1,2.86-.74,4.5,4.5,0,0,1,2.57.69,3.68,3.68,0,0,1,1.44,1.95,6.18,6.18,0,0,1,5-2.64,4.29,4.29,0,0,1,3.14,1.1,4.41,4.41,0,0,1,1.11,3.28V70.08h-3.83Z" fill="#e52823"/><path d="M238.46,50.07h3.81v7.38a5.68,5.68,0,0,1,2-1.65,5.55,5.55,0,0,1,2.46-.57,6,6,0,0,1,3.32.94,6.22,6.22,0,0,1,2.28,2.66,10.49,10.49,0,0,1,0,8.13,6.06,6.06,0,0,1-2.3,2.61,6.19,6.19,0,0,1-3.3.9,5.38,5.38,0,0,1-2.47-.58,5.91,5.91,0,0,1-2-1.67v1.86h-3.81Zm5.22,16.55a4.12,4.12,0,0,0,1.86.46,3.36,3.36,0,0,0,2.67-1.16,4.44,4.44,0,0,0,1-3.05,4.5,4.5,0,0,0-1-3.07,3.38,3.38,0,0,0-2.67-1.18,4,4,0,0,0-1.86.49,3.66,3.66,0,0,0-1.41,1.2v5.15A3.67,3.67,0,0,0,243.68,66.62Z" fill="#e52823"/><path d="M256.07,59a7.2,7.2,0,0,1,2.67-2.75,7.41,7.41,0,0,1,3.87-1,7.12,7.12,0,0,1,3.78,1A6.82,6.82,0,0,1,269,59.06a9.08,9.08,0,0,1,.91,4.15v.84H259.1a3.75,3.75,0,0,0,1.29,2.43,4.25,4.25,0,0,0,2.88,1,6.15,6.15,0,0,0,2.12-.39,5,5,0,0,0,1.75-1l1.68,2.46A7.2,7.2,0,0,1,266.18,70a10.55,10.55,0,0,1-3.33.52,8.27,8.27,0,0,1-4-.94,6.94,6.94,0,0,1-2.77-2.68,7.83,7.83,0,0,1-1-4A7.75,7.75,0,0,1,256.07,59Zm4,.23a3.9,3.9,0,0,0-1,2.23h7.14a3.66,3.66,0,0,0-1-2.22,3.31,3.31,0,0,0-2.6-1A3.26,3.26,0,0,0,260.09,59.24Z" fill="#e52823"/><path d="M272.63,55.59h3.81v2a6.38,6.38,0,0,1,2-1.66,5.41,5.41,0,0,1,2.58-.68V59a4.83,4.83,0,0,0-1.05-.12,5.06,5.06,0,0,0-2,.49,3.41,3.41,0,0,0-1.53,1.17v9.59h-3.81Z" fill="#e52823"/><path d="M281.06,66.33a2.39,2.39,0,1,1-.72,1.71A2.34,2.34,0,0,1,281.06,66.33Z" fill="#e52823"/><g clip-path="url(#clip-path)"><path d="M605.33,55.79c16.25-5,24.45,7.48,24.45,7.48s-5.15-17.38-24.45-7.48Z" fill="#0075a9"/></g><path d="M636.74,56.43c0-.07,0-.52,0-.59a12.13,12.13,0,0,0-6.41,9.32s2.21-5.14,7.41-6.7a3.12,3.12,0,0,1-1-2Z" fill="#0075a9"/><g clip-path="url(#clip-path)"><path d="M616,63.68s0,2.46,0,3.7c-.62,0-3.32-.17-4.51-.21,0,.66,0,1.34,0,2,1.42,0,2.89.2,4.31.18,0,1.19,0,2.22,0,3.41-1.42,0-2.84-.11-4.26-.14,0,.72,0,1.45,0,2.17,1.53,0,3.06.16,4.59.14,0-.05,0,3.62,0,3.62-3,0-6.6-.23-10-.51l.24-15.11c1.43.17,5.86.64,9.72.75Z" fill="#ed1c2b"/><path d="M617.3,63.72l-.06,3.94c1.43.07,2.71.08,2.71.08l0,10.94a33.28,33.28,0,0,0,5.46-.07l-.07-10.84s2.42-.11,2.79-.15c0-1.44,0-2.58-.05-4a94.14,94.14,0,0,1-10.76.13Z" fill="#ed1c2b"/></g><path d="M690.21,61.31c0,1.57,0,3,0,4.58.92,0,2,.24,2.9.32,0,3.81-.1,6.7-.1,10.52,2.57.31,4.39.61,5.1.73,0-3.81.14-6.82.15-10.64,0,0,2.72.42,2.77.46v-4.7a84.68,84.68,0,0,0-10.81-1.27Z" fill="#0075a9"/><path d="M598.43,68.68l-.48-.05,0-3.11.46,0A1.58,1.58,0,0,1,600,67.23c0,1.28-.8,1.53-1.58,1.45Zm1.2-7.31-6.47-1.17,0,15.85c1.66.33,3.17.6,4.79.78l0-4.58c.57.06,1.17.14,1.74.19,2.81.26,5.64-.8,5.67-5.38,0-4.07-2.67-5.24-5.67-5.69Z" fill="#ed1c2b"/><path d="M653.61,76.1c.72-1.89,1.44-3.66,2.17-5.54.11,1.8.18,3.44.3,5.24,1.8-.2,3.25-.3,5.07-.41-.47-4.82-.87-10-1.34-14.79l-4.66.42c-.87,2.27-1.74,5-2.62,7.31-.84-2.1-1.68-4.57-2.52-6.67-1.57.22-4.37.71-4.66.71-.54,4.91-1.15,10.36-1.69,15.27,1.24-.22,4.26-.7,5.18-.82.14-1.83.27-3.79.41-5.62l2.1,5.24,2.26-.34Z" fill="#0075a9"/><path d="M682.31,67.8l-.48,0c0-1,0-2,0-3.06l.46,0a1.53,1.53,0,0,1,1.58,1.61,1.32,1.32,0,0,1-1.6,1.46Zm4.49,3.25c1.39-.62,2.38-2,2.42-4.61,0-4-2.78-5.72-5.64-5.94q-3.26-.26-6.51-.34c-.07,5.09-.1,9.75-.17,14.84,1.62,0,3.41.17,4.82.28,0-1.43,0-2.49.06-3.92.93,1.49,1.69,2.73,2.61,4.24,2,.18,4,.44,6,.73-1.25-1.86-2.38-3.46-3.63-5.28Z" fill="#0075a9"/><path d="M667.86,70.07c.34-1.26.68-2.6,1-3.86.38,1.27.77,2.54,1.15,3.81-2.21.08-2.22,0-2.17,0Zm3.54-10c-1.93,0-3.5,0-5.15.1-1.33,4.94-2.89,10.22-4.21,15.18,1.47,0,3-.13,4.44-.13.13-.52.29-1.13.43-1.65l2.25-.06s2-.06,2-.06c.06.19.24.71.5,1.58,1.47,0,3,0,4.42,0-1.59-5.22-3.2-10.25-4.66-15Z" fill="#0075a9"/><g clip-path="url(#clip-path)"><path d="M699.1,76.83h.11c.11,0,.22,0,.22-.15s-.06-.16-.22-.16h-.11v.3Zm0,.5H699v-.9l.25,0a.45.45,0,0,1,.28.07.2.2,0,0,1,.09.18.23.23,0,0,1-.18.22h0c.08,0,.13.09.15.22a.53.53,0,0,0,.06.22h-.15a.55.55,0,0,1-.06-.23.18.18,0,0,0-.2-.16h-.1v.39Zm.15-1.15a.69.69,0,1,0,.65.68.66.66,0,0,0-.65-.68Zm0-.13a.81.81,0,1,1-.81.81.8.8,0,0,1,.8-.81Z" fill="#0075a9"/><path d="M629.79,77.28a13.28,13.28,0,0,0,6,1.51c3.39,0,6.93-2,7-5.82.05-2.7-1.67-4-4.06-4.52l-1.28-.29c-.44-.1-1.14-.18-1.13-.78s.75-.84,1.24-.84a9.1,9.1,0,0,1,3.46.73l1.44-3.81a11.42,11.42,0,0,0-4.94-1.18c-3.4,0-6.83,2.06-6.9,5.84-.05,2.49,1.79,3.85,4,4.26l1.14.21c.52.11,1.26.17,1.25.89s-.9.8-1.46.8A6.69,6.69,0,0,1,631.66,73c-.59,1.33-1.28,3-1.87,4.29Z" fill="#0075a9"/><path d="M643.42,52.87a4.56,4.56,0,0,0-4.09,2.39.13.13,0,0,0,0,.06,2.7,2.7,0,0,1,.09-1,2.6,2.6,0,0,1,3.16-1.86,2.51,2.51,0,0,1,.9.48l-.05,0ZM642,51.46a3.82,3.82,0,1,0,3.76,3.87A3.83,3.83,0,0,0,642,51.46Z" fill="#ed1c2b"/></g><rect x="584.62" y="16.76" width="124.91" height="25.64" rx="12.18" fill="#e52a26"/><path d="M608.26,32a2.21,2.21,0,0,0,1.66.81,1.66,1.66,0,0,0,1.25-.49,1.77,1.77,0,0,0,.46-1.29V24.34h1.71V31a3.13,3.13,0,0,1-.91,2.44,3.82,3.82,0,0,1-5-.2Z" fill="#fff"/><path d="M616.65,33.78a3.37,3.37,0,0,1-1.27-1.35,3.94,3.94,0,0,1-.45-1.87,3.88,3.88,0,0,1,.45-1.86,3.37,3.37,0,0,1,1.27-1.35,3.61,3.61,0,0,1,1.9-.49,3.66,3.66,0,0,1,1.92.49,3.48,3.48,0,0,1,1.27,1.34,4.11,4.11,0,0,1,0,3.74,3.43,3.43,0,0,1-1.27,1.35,3.66,3.66,0,0,1-1.92.49A3.61,3.61,0,0,1,616.65,33.78Zm3.4-1.55a2.81,2.81,0,0,0,0-3.34,1.84,1.84,0,0,0-1.5-.68,1.81,1.81,0,0,0-1.48.68,2.81,2.81,0,0,0,0,3.34,1.79,1.79,0,0,0,1.48.69A1.82,1.82,0,0,0,620.05,32.23Z" fill="#fff"/><path d="M623.83,25.59a.93.93,0,0,1,0-1.35.94.94,0,0,1,.66-.28,1,1,0,1,1,0,1.9A.93.93,0,0,1,623.83,25.59Zm-.1,1.44h1.54v7h-1.54Z" fill="#fff"/><path d="M632,29.67a1.48,1.48,0,0,0-.36-1.12,1.54,1.54,0,0,0-1-.34,2.1,2.1,0,0,0-1,.28,2.54,2.54,0,0,0-.77.67v4.92h-1.54V27h1.54v1a3.26,3.26,0,0,1,1.05-.81,3.1,3.1,0,0,1,1.43-.33,2,2,0,0,1,2.27,2.26v5H632Z" fill="#fff"/><path d="M644.87,26.9,643,34.08h-1.82l-2.79-9.74h1.91l1.9,7.51,2-7.51h1.36l2,7.51,1.89-7.51h1.91l-2.77,9.74h-1.83Z" fill="#fff"/><path d="M656.85,33.12a3.13,3.13,0,0,1-1,.85,2.79,2.79,0,0,1-1.27.3,3.07,3.07,0,0,1-1.62-.44,3,3,0,0,1-1.11-1.28,5,5,0,0,1,0-3.95A2.93,2.93,0,0,1,653,27.31a3,3,0,0,1,1.62-.45,2.78,2.78,0,0,1,1.26.3,2.74,2.74,0,0,1,1,.85V27h1.53v7h-1.53Zm0-3.94a2.09,2.09,0,0,0-.78-.68,2.22,2.22,0,0,0-1.05-.27,1.77,1.77,0,0,0-1.44.65,2.91,2.91,0,0,0,0,3.38,1.75,1.75,0,0,0,1.44.66,2.22,2.22,0,0,0,1.05-.27,2,2,0,0,0,.78-.67Z" fill="#fff"/><path d="M660.46,25.59a.93.93,0,0,1,0-1.35.94.94,0,0,1,.66-.28,1,1,0,0,1,.68.28,1,1,0,0,1-1.34,1.35Zm-.1,1.44h1.54v7h-1.54Z" fill="#fff"/><path d="M664.65,33.8a1.82,1.82,0,0,1-.46-1.34V28.37H663V27h1.17V25.1h1.53V27h1.43v1.34h-1.43v3.71a1,1,0,0,0,.18.61.58.58,0,0,0,.49.23,1.19,1.19,0,0,0,.41-.08.67.67,0,0,0,.28-.17l.37,1.15a2.08,2.08,0,0,1-1.45.45A1.79,1.79,0,0,1,664.65,33.8Z" fill="#fff"/><path d="M669,33.8a1.8,1.8,0,0,1-.46-1.34V24.34h1.53v7.74a.94.94,0,0,0,.18.61.58.58,0,0,0,.49.23,1.1,1.1,0,0,0,.4-.08.67.67,0,0,0,.28-.17l.36,1.15a2,2,0,0,1-1.43.45A1.79,1.79,0,0,1,669,33.8Z" fill="#fff"/><path d="M672.8,25.59a.93.93,0,0,1,0-1.35.94.94,0,0,1,.66-.28.93.93,0,0,1,.67.28,1,1,0,0,1,0,1.35.92.92,0,0,1-.67.27A.93.93,0,0,1,672.8,25.59ZM672.7,27h1.53v7H672.7Z" fill="#fff"/><path d="M676.31,32.07a3.59,3.59,0,0,0,2.39,1,1.85,1.85,0,0,0,1-.23.71.71,0,0,0,.36-.64.7.7,0,0,0-.41-.64,5.25,5.25,0,0,0-1.2-.39,9.14,9.14,0,0,1-1.36-.37,2.14,2.14,0,0,1-.91-.63,1.64,1.64,0,0,1-.38-1.16,1.87,1.87,0,0,1,.32-1.07,2.21,2.21,0,0,1,1-.78,3.42,3.42,0,0,1,1.49-.29,4,4,0,0,1,2.74,1l-.64,1.08a2.35,2.35,0,0,0-.89-.61,3,3,0,0,0-1.2-.24,1.87,1.87,0,0,0-1,.21.67.67,0,0,0-.35.58.62.62,0,0,0,.38.56,6.1,6.1,0,0,0,1.15.36,9.77,9.77,0,0,1,1.39.39,2.26,2.26,0,0,1,.95.67,1.81,1.81,0,0,1,.39,1.23,1.92,1.92,0,0,1-.77,1.58,3.4,3.4,0,0,1-2.16.61,5,5,0,0,1-1.7-.28,3.67,3.67,0,0,1-1.32-.81Z" fill="#fff"/><path d="M683.88,33.8a1.82,1.82,0,0,1-.46-1.34V28.37h-1.17V27h1.17V25.1H685V27h1.43v1.34H685v3.71a1,1,0,0,0,.18.61.58.58,0,0,0,.49.23,1.1,1.1,0,0,0,.4-.08.72.72,0,0,0,.29-.17l.36,1.15a2,2,0,0,1-1.44.45A1.76,1.76,0,0,1,683.88,33.8Z" fill="#fff"/></g><g id="REC"><rect width="728" height="90" fill="none"/></g></g></svg>