<svg xmlns="http://www.w3.org/2000/svg" viewBox="0 0 728 90"><g id="Layer_2" data-name="Layer 2"><g id="REC"><rect width="728" height="90" fill="none"/></g><g id="subhed"><path d="M302.84,27.09a7.65,7.65,0,0,1-3.14-.58,6.6,6.6,0,0,1-2.2-1.5l1.3-1.78a6,6,0,0,0,1.71,1.27,5.11,5.11,0,0,0,2.42.55,4.25,4.25,0,0,0,1.21-.15,2.41,2.41,0,0,0,.8-.42,1.5,1.5,0,0,0,.45-.57,1.58,1.58,0,0,0,.15-.66A1.18,1.18,0,0,0,305,22.2a5.47,5.47,0,0,0-1.41-.62c-.57-.17-1.18-.33-1.83-.49a8.59,8.59,0,0,1-1.83-.64,4,4,0,0,1-1.42-1.13,3,3,0,0,1-.55-1.91,3.36,3.36,0,0,1,.34-1.52,3.87,3.87,0,0,1,1-1.22,4.67,4.67,0,0,1,1.5-.81,6.07,6.07,0,0,1,2-.29,7.45,7.45,0,0,1,2.75.48,6.22,6.22,0,0,1,2.13,1.36l-1.29,1.7A4.93,4.93,0,0,0,304.51,16a5.87,5.87,0,0,0-2-.36,2.57,2.57,0,0,0-1.59.45,1.4,1.4,0,0,0-.6,1.17,1,1,0,0,0,.56.94,5.89,5.89,0,0,0,1.41.57q.86.24,1.83.48a8.53,8.53,0,0,1,1.83.69,4,4,0,0,1,1.41,1.17,3.09,3.09,0,0,1,.56,2,4.28,4.28,0,0,1-.29,1.56,3.61,3.61,0,0,1-.91,1.3,4.52,4.52,0,0,1-1.58.88A7.31,7.31,0,0,1,302.84,27.09Z" fill="#e52823"/><path d="M316.34,26.86v-6a1.85,1.85,0,0,0-.51-1.52,2.17,2.17,0,0,0-1.39-.4,2.68,2.68,0,0,0-1.44.39,3.41,3.41,0,0,0-1,.86v6.63H310V13.78H312v4.88a4.58,4.58,0,0,1,1.34-1,5,5,0,0,1,.92-.34,4.61,4.61,0,0,1,1.07-.13,3.13,3.13,0,0,1,2.3.77,3.06,3.06,0,0,1,.76,2.23v6.71Z" fill="#e52823"/><path d="M325.36,27.09a4.92,4.92,0,0,1-2-.4,4.71,4.71,0,0,1-1.53-1.08,4.63,4.63,0,0,1-1-1.58,5.75,5.75,0,0,1,0-3.84,4.63,4.63,0,0,1,1-1.58,4.51,4.51,0,0,1,1.53-1.06,5.4,5.4,0,0,1,4.08,0,4.51,4.51,0,0,1,1.53,1.06,5,5,0,0,1,1,1.58,5.75,5.75,0,0,1,0,3.84,5,5,0,0,1-1,1.58,4.71,4.71,0,0,1-1.53,1.08A4.92,4.92,0,0,1,325.36,27.09Zm0-1.82a2.58,2.58,0,0,0,1.17-.26,2.5,2.5,0,0,0,.86-.68,3.12,3.12,0,0,0,.52-1,4.42,4.42,0,0,0,.17-1.21,4.23,4.23,0,0,0-.17-1.19,3,3,0,0,0-.52-1,2.53,2.53,0,0,0-.86-.69,2.84,2.84,0,0,0-2.33,0,2.53,2.53,0,0,0-.86.69,2.82,2.82,0,0,0-.53,1,3.9,3.9,0,0,0-.18,1.19,4.07,4.07,0,0,0,.18,1.21,3,3,0,0,0,.53,1,2.5,2.5,0,0,0,.86.68A2.57,2.57,0,0,0,325.36,25.27Z" fill="#e52823"/><path d="M337.41,27.09a3.52,3.52,0,0,1-1.67-.4,4.26,4.26,0,0,1-1.37-1.15v4.92h-2.05V17.39h2.05v1.29a4.07,4.07,0,0,1,1.32-1.12,3.7,3.7,0,0,1,1.72-.41,4.05,4.05,0,0,1,1.69.34,3.59,3.59,0,0,1,1.32,1,4.36,4.36,0,0,1,.87,1.56,7,7,0,0,1,0,4.19,4.54,4.54,0,0,1-.87,1.56,3.86,3.86,0,0,1-1.32,1A4.05,4.05,0,0,1,337.41,27.09Zm-.6-1.82a2.44,2.44,0,0,0,2-.88,3.5,3.5,0,0,0,.72-2.28,3.44,3.44,0,0,0-.72-2.26,2.43,2.43,0,0,0-2-.87,3,3,0,0,0-1.41.36,2.84,2.84,0,0,0-1,.89V24a2.17,2.17,0,0,0,.45.51,3.07,3.07,0,0,0,.58.42,3.41,3.41,0,0,0,.69.27A2.55,2.55,0,0,0,336.81,25.27Z" fill="#e52823"/><path d="M348.72,26.86V13.78h2.06V18.7a3.73,3.73,0,0,1,1.36-1.15,3.65,3.65,0,0,1,1.68-.4,4.09,4.09,0,0,1,1.69.35,3.75,3.75,0,0,1,1.34,1,4.71,4.71,0,0,1,.87,1.56,7.13,7.13,0,0,1,0,4.16,4.61,4.61,0,0,1-.88,1.57,3.78,3.78,0,0,1-1.34,1,4.27,4.27,0,0,1-1.68.33,3.69,3.69,0,0,1-1.71-.41,4.08,4.08,0,0,1-1.33-1.12v1.3ZM350.78,24a2.86,2.86,0,0,0,1,.9,3,3,0,0,0,1.42.36,2.41,2.41,0,0,0,1.95-.88,3.5,3.5,0,0,0,.72-2.28,3.92,3.92,0,0,0-.19-1.26,2.63,2.63,0,0,0-.54-1,2.44,2.44,0,0,0-.84-.65,2.46,2.46,0,0,0-1.1-.23,2.87,2.87,0,0,0-1.42.37,3,3,0,0,0-1,.9Z" fill="#e52823"/><path d="M361.15,16.23A1.26,1.26,0,0,1,359.88,15a1.21,1.21,0,0,1,.37-.9,1.26,1.26,0,0,1,1.8,0,1.21,1.21,0,0,1,.37.9,1.26,1.26,0,0,1-1.27,1.27Zm-1,10.63V17.39h2.06v9.47Z" fill="#e52823"/><path d="M368.7,30.7a6.83,6.83,0,0,1-2.16-.31,5,5,0,0,1-1.82-1.1l1-1.49a3.42,3.42,0,0,0,1.33.94,5,5,0,0,0,1.69.27,3.89,3.89,0,0,0,1-.13,2.36,2.36,0,0,0,.9-.44,2.28,2.28,0,0,0,.65-.81,2.89,2.89,0,0,0,.24-1.26V25.29a4.25,4.25,0,0,1-1.32,1.15,3.47,3.47,0,0,1-1.72.44,4.18,4.18,0,0,1-1.67-.33,3.7,3.7,0,0,1-1.34-.94,4.42,4.42,0,0,1-.87-1.52,6.28,6.28,0,0,1-.31-2.08,6.18,6.18,0,0,1,.31-2.05,4.57,4.57,0,0,1,.87-1.53,3.66,3.66,0,0,1,1.33-.95,4.2,4.2,0,0,1,1.68-.33,3.63,3.63,0,0,1,1.69.4,3.78,3.78,0,0,1,1.35,1.15V17.39h2.06v9a4.69,4.69,0,0,1-.43,2.11A3.73,3.73,0,0,1,372,29.82a4.44,4.44,0,0,1-1.57.68A7.92,7.92,0,0,1,368.7,30.7Zm.37-5.67a2.85,2.85,0,0,0,1.4-.37,2.92,2.92,0,0,0,1-.88V20.23a2.92,2.92,0,0,0-1-.88,2.85,2.85,0,0,0-1.4-.37,2.45,2.45,0,0,0-2,.83,3.24,3.24,0,0,0-.73,2.2,3.23,3.23,0,0,0,.73,2.2A2.47,2.47,0,0,0,369.07,25Z" fill="#e52823"/><path d="M305,51.07V49.78a3.92,3.92,0,0,1-1.32,1.11,3.56,3.56,0,0,1-1.72.42,4.19,4.19,0,0,1-1.67-.34,3.57,3.57,0,0,1-1.33-1,4.52,4.52,0,0,1-.88-1.57,6.42,6.42,0,0,1-.31-2.09,6.32,6.32,0,0,1,.31-2.06,4.52,4.52,0,0,1,.88-1.57,3.76,3.76,0,0,1,1.32-1,4,4,0,0,1,1.68-.34,3.72,3.72,0,0,1,1.69.39A3.81,3.81,0,0,1,305,42.92V38H307V51.07Zm-2.43-1.59a2.55,2.55,0,0,0,.72-.1,2.68,2.68,0,0,0,.68-.27,3.21,3.21,0,0,0,.59-.4,2.06,2.06,0,0,0,.44-.5V44.46a2.78,2.78,0,0,0-.44-.49,3.24,3.24,0,0,0-.59-.41,3.11,3.11,0,0,0-.68-.27,2.55,2.55,0,0,0-.72-.1,2.52,2.52,0,0,0-1.12.24,2.61,2.61,0,0,0-.84.64,3.15,3.15,0,0,0-.54,1,4.28,4.28,0,0,0-.18,1.27,4.22,4.22,0,0,0,.18,1.26,3.09,3.09,0,0,0,.54,1,2.41,2.41,0,0,0,2,.89Z" fill="#e52823"/><path d="M310.72,40.45a1.28,1.28,0,0,1-1.28-1.28,1.26,1.26,0,0,1,.37-.9,1.28,1.28,0,0,1,2.18.9,1.21,1.21,0,0,1-.37.9A1.23,1.23,0,0,1,310.72,40.45Zm-1,10.62V41.6h2.05v9.47Z" fill="#e52823"/><path d="M317.65,51.31a6.4,6.4,0,0,1-2.27-.39,4.91,4.91,0,0,1-1.78-1.1l.94-1.47a4,4,0,0,0,.61.49,5.68,5.68,0,0,0,.78.42,5.45,5.45,0,0,0,.89.29,4.11,4.11,0,0,0,.91.11,2.44,2.44,0,0,0,1.41-.34,1.08,1.08,0,0,0,.48-.92.77.77,0,0,0-.43-.7,4,4,0,0,0-1.05-.39c-.43-.11-.89-.21-1.39-.32a5.76,5.76,0,0,1-1.38-.47,3.14,3.14,0,0,1-1.06-.84,2.27,2.27,0,0,1-.42-1.45,2.5,2.5,0,0,1,.25-1.11,2.68,2.68,0,0,1,.71-.91,3.51,3.51,0,0,1,1.17-.62,5.16,5.16,0,0,1,1.6-.22,5.5,5.5,0,0,1,2.12.37,5.2,5.2,0,0,1,1.54.94l-.86,1.45a3.6,3.6,0,0,0-1.17-.8,3.93,3.93,0,0,0-1.63-.34,2.2,2.2,0,0,0-1.29.34,1,1,0,0,0-.46.84.69.69,0,0,0,.42.63,5,5,0,0,0,1.06.36l1.38.31a6.42,6.42,0,0,1,1.38.49,3,3,0,0,1,1.06.89,2.43,2.43,0,0,1,.42,1.5,2.73,2.73,0,0,1-.25,1.17,2.53,2.53,0,0,1-.75.94,3.89,3.89,0,0,1-1.24.62A5.78,5.78,0,0,1,317.65,51.31Z" fill="#e52823"/><path d="M328,51.31a5,5,0,0,1-2-.38,4.33,4.33,0,0,1-1.54-1,4.76,4.76,0,0,1-1-1.57,5.38,5.38,0,0,1-.37-2,5.29,5.29,0,0,1,.37-2,4.76,4.76,0,0,1,1-1.57,4.46,4.46,0,0,1,1.54-1,5,5,0,0,1,2-.37,5.36,5.36,0,0,1,1.26.13,4.52,4.52,0,0,1,1,.38,3.32,3.32,0,0,1,.77.54,4.33,4.33,0,0,1,.59.63l-1.35,1.24a2.53,2.53,0,0,0-2.18-1.1,2.64,2.64,0,0,0-2.07.87,3.24,3.24,0,0,0-.79,2.27,3.66,3.66,0,0,0,.21,1.26,2.83,2.83,0,0,0,1.49,1.66,2.86,2.86,0,0,0,1.16.23,2.55,2.55,0,0,0,2.18-1.13l1.35,1.27a4.86,4.86,0,0,1-1.37,1.18A4.41,4.41,0,0,1,328,51.31Z" fill="#e52823"/><path d="M337.71,51.31a4.92,4.92,0,0,1-2-.41,4.54,4.54,0,0,1-1.53-1.07,4.72,4.72,0,0,1-1-1.58,5.75,5.75,0,0,1,0-3.84,4.51,4.51,0,0,1,2.49-2.65,5.53,5.53,0,0,1,4.08,0,4.54,4.54,0,0,1,1.53,1.07,4.85,4.85,0,0,1,1,1.58,5.75,5.75,0,0,1,0,3.84,5.07,5.07,0,0,1-1,1.58,4.54,4.54,0,0,1-1.53,1.07A5,5,0,0,1,337.71,51.31Zm0-1.83a2.58,2.58,0,0,0,1.17-.25,2.53,2.53,0,0,0,.86-.69,3.22,3.22,0,0,0,.52-1,4.32,4.32,0,0,0,0-2.4,3.27,3.27,0,0,0-.52-1,2.5,2.5,0,0,0-.86-.68,2.74,2.74,0,0,0-2.33,0,2.5,2.5,0,0,0-.86.68,2.91,2.91,0,0,0-.53,1,4.09,4.09,0,0,0,0,2.4,2.87,2.87,0,0,0,.53,1,2.53,2.53,0,0,0,.86.69A2.57,2.57,0,0,0,337.71,49.48Z" fill="#e52823"/><path d="M351.06,51.07V49.82a5.06,5.06,0,0,1-1.37,1,4.12,4.12,0,0,1-2,.46,3.07,3.07,0,0,1-2.29-.78,3,3,0,0,1-.76-2.22V41.6h2.05v5.94a1.89,1.89,0,0,0,.52,1.52,2.19,2.19,0,0,0,1.41.42,2.68,2.68,0,0,0,1.42-.38,3.51,3.51,0,0,0,1-.85V41.6h2.05v9.47Z" fill="#e52823"/><path d="M362.19,51.07V45.15a1.89,1.89,0,0,0-.52-1.54,2.16,2.16,0,0,0-1.4-.42,2.66,2.66,0,0,0-1.42.39,3.81,3.81,0,0,0-1,.86v6.63h-2.06V41.6h2.06v1.28a3.85,3.85,0,0,1,.58-.55,3.9,3.9,0,0,1,.77-.49,4.7,4.7,0,0,1,.93-.35,4.55,4.55,0,0,1,1.07-.12,3.07,3.07,0,0,1,2.29.78,3.11,3.11,0,0,1,.77,2.26v6.66Z" fill="#e52823"/><path d="M369.78,51.31a2.43,2.43,0,0,1-1.83-.63,2.55,2.55,0,0,1-.61-1.82V43.39h-1.56V41.6h1.56V39h2.06V41.6h1.92v1.79H369.4v5a1.41,1.41,0,0,0,.23.81.77.77,0,0,0,.67.32,1.19,1.19,0,0,0,.54-.11,1,1,0,0,0,.37-.24l.49,1.57a2.31,2.31,0,0,1-.75.43A3.27,3.27,0,0,1,369.78,51.31Z" fill="#e52823"/><path d="M376.42,51.31a6.4,6.4,0,0,1-2.27-.39,5,5,0,0,1-1.79-1.1l.94-1.47a4.5,4.5,0,0,0,.61.49,6.49,6.49,0,0,0,.79.42,5.15,5.15,0,0,0,.89.29,4,4,0,0,0,.91.11,2.44,2.44,0,0,0,1.41-.34,1.1,1.1,0,0,0,.47-.92.76.76,0,0,0-.42-.7,4.06,4.06,0,0,0-1.06-.39c-.42-.11-.89-.21-1.38-.32a5.47,5.47,0,0,1-1.38-.47,3,3,0,0,1-1.06-.84,2.27,2.27,0,0,1-.42-1.45,2.64,2.64,0,0,1,.24-1.11,2.59,2.59,0,0,1,.72-.91,3.46,3.46,0,0,1,1.16-.62,5.25,5.25,0,0,1,1.6-.22,5.59,5.59,0,0,1,2.13.37,5.33,5.33,0,0,1,1.54.94l-.87,1.45a3.45,3.45,0,0,0-1.16-.8,4,4,0,0,0-1.64-.34,2.14,2.14,0,0,0-1.28.34,1,1,0,0,0-.46.84.69.69,0,0,0,.42.63,4.83,4.83,0,0,0,1.06.36l1.38.31a6.62,6.62,0,0,1,1.38.49,3,3,0,0,1,1.06.89,2.43,2.43,0,0,1,.42,1.5,2.74,2.74,0,0,1-.26,1.17,2.53,2.53,0,0,1-.75.94,3.74,3.74,0,0,1-1.23.62A5.83,5.83,0,0,1,376.42,51.31Z" fill="#e52823"/><path d="M304.46,75.52a6.9,6.9,0,0,1-2.69-.51,6.24,6.24,0,0,1-3.5-3.55,7.17,7.17,0,0,1-.49-2.7,7.26,7.26,0,0,1,.49-2.71,6.42,6.42,0,0,1,1.38-2.13,6.23,6.23,0,0,1,2.12-1.42,6.9,6.9,0,0,1,2.69-.51,7,7,0,0,1,2.7.51,6.14,6.14,0,0,1,2.1,1.42,6.6,6.6,0,0,1,1.39,2.13,7.26,7.26,0,0,1,.5,2.71,7.17,7.17,0,0,1-.5,2.7,6.54,6.54,0,0,1-1.39,2.14,6.26,6.26,0,0,1-2.1,1.41A7,7,0,0,1,304.46,75.52Zm0-2a4.34,4.34,0,0,0,1.79-.36,4.12,4.12,0,0,0,1.37-1,4.29,4.29,0,0,0,.87-1.5,5.73,5.73,0,0,0,.3-1.87,5.66,5.66,0,0,0-.3-1.88,4.33,4.33,0,0,0-5.82-2.48,4.08,4.08,0,0,0-1.36,1,4.33,4.33,0,0,0-.88,1.49,5.66,5.66,0,0,0-.3,1.88,5.73,5.73,0,0,0,.3,1.87,4.47,4.47,0,0,0,.88,1.5,4.08,4.08,0,0,0,1.36,1A4.3,4.3,0,0,0,304.46,73.48Z" fill="#e52823"/><path d="M317.6,75.52a5,5,0,0,1-2-.37,4.6,4.6,0,0,1-1.54-1,4.81,4.81,0,0,1-1-1.58,5.38,5.38,0,0,1-.37-2,5.29,5.29,0,0,1,.37-2,4.87,4.87,0,0,1,1-1.57,4.6,4.6,0,0,1,1.54-1,5.2,5.2,0,0,1,2-.37,5.34,5.34,0,0,1,1.26.14,3.91,3.91,0,0,1,1.77.91,4.39,4.39,0,0,1,.59.64l-1.35,1.23a2.53,2.53,0,0,0-2.18-1.1,2.65,2.65,0,0,0-2.07.88,3.21,3.21,0,0,0-.79,2.26,3.72,3.72,0,0,0,.21,1.27,2.88,2.88,0,0,0,.59,1,2.54,2.54,0,0,0,.9.65,2.7,2.7,0,0,0,1.16.24,2.53,2.53,0,0,0,2.18-1.14l1.35,1.27A4.7,4.7,0,0,1,319.85,75,4.41,4.41,0,0,1,317.6,75.52Z" fill="#e52823"/><path d="M325.91,75.52a2.45,2.45,0,0,1-1.83-.63,2.53,2.53,0,0,1-.6-1.82V67.6h-1.57V65.82h1.57V63.23h2v2.59h1.93V67.6h-1.93v5a1.36,1.36,0,0,0,.23.81.77.77,0,0,0,.68.33,1.41,1.41,0,0,0,.54-.11.92.92,0,0,0,.36-.25l.49,1.57a2.15,2.15,0,0,1-.75.43A3.27,3.27,0,0,1,325.91,75.52Z" fill="#e52823"/><path d="M334,75.28V73.46c1.27-.95,2.35-1.79,3.25-2.51A28.48,28.48,0,0,0,339.44,69a7.48,7.48,0,0,0,1.25-1.57,2.93,2.93,0,0,0,.39-1.42,1.76,1.76,0,0,0-.21-.88,1.79,1.79,0,0,0-.54-.62,2.32,2.32,0,0,0-.76-.36,3.28,3.28,0,0,0-.88-.12,4.63,4.63,0,0,0-2,.42,4.94,4.94,0,0,0-1.5,1.13l-1.33-1.49A5.49,5.49,0,0,1,336,62.53a7.22,7.22,0,0,1,2.68-.52,6,6,0,0,1,1.8.27,4.4,4.4,0,0,1,1.51.77,3.9,3.9,0,0,1,1,1.25,3.8,3.8,0,0,1,.38,1.73,4.16,4.16,0,0,1-.4,1.78,8,8,0,0,1-1.15,1.74,16.76,16.76,0,0,1-1.79,1.79c-.7.6-1.49,1.24-2.36,1.91h5.78v2Z" fill="#e52823"/><path d="M351.47,75.28v-3h-6.24V70.48l5.37-8.27h3.16v8.08h1.74v2h-1.74v3Zm0-11-4,6h4Z" fill="#e52823"/><path d="M356.64,71.42V69.66h4.71v1.76Z" fill="#e52823"/><path d="M362.91,75.28V73.46c1.27-.95,2.35-1.79,3.25-2.51A26.69,26.69,0,0,0,368.35,69a7.17,7.17,0,0,0,1.25-1.57A2.93,2.93,0,0,0,370,66a1.76,1.76,0,0,0-.21-.88,1.86,1.86,0,0,0-.53-.62,2.48,2.48,0,0,0-.77-.36,3.28,3.28,0,0,0-.88-.12,4.63,4.63,0,0,0-2,.42,4.94,4.94,0,0,0-1.5,1.13l-1.33-1.49a5.56,5.56,0,0,1,2.16-1.58,7.22,7.22,0,0,1,2.68-.52,5.94,5.94,0,0,1,1.8.27,4.4,4.4,0,0,1,1.51.77,3.78,3.78,0,0,1,1,1.25A3.68,3.68,0,0,1,372.3,66a4.16,4.16,0,0,1-.4,1.78,8,8,0,0,1-1.15,1.74A16.76,16.76,0,0,1,369,71.34c-.7.6-1.49,1.24-2.36,1.91h5.78v2Z" fill="#e52823"/><path d="M379.56,75.52a6.87,6.87,0,0,1-2.87-.54,5.73,5.73,0,0,1-2-1.48L376,71.91a4.37,4.37,0,0,0,3.51,1.57,2.77,2.77,0,0,0,2-.67,2.32,2.32,0,0,0,0-3.33,2.8,2.8,0,0,0-1.93-.62,4.22,4.22,0,0,0-1.52.26,4,4,0,0,0-1.34.85l-1.62-.47V62.21h8.56v2H377.4V68a4.45,4.45,0,0,1,1.25-.78,4.27,4.27,0,0,1,1.71-.33,4.51,4.51,0,0,1,1.59.28,4,4,0,0,1,1.34.82,3.86,3.86,0,0,1,.92,1.33,4.77,4.77,0,0,1,0,3.61,4,4,0,0,1-1,1.39,4.53,4.53,0,0,1-1.58.9A6.14,6.14,0,0,1,379.56,75.52Z" fill="#e52823"/></g></g></svg>