<svg xmlns="http://www.w3.org/2000/svg" viewBox="0 0 300 250"><defs><style>.cls-1{fill:none;}.cls-2{fill:#e52823;}</style></defs><g id="Layer_2" data-name="Layer 2"><g id="rec"><rect class="cls-1" width="300" height="250"/></g><g id="subhd"><path class="cls-2" d="M21.31,99.48a6.61,6.61,0,0,1-2.72-.5,5.87,5.87,0,0,1-1.91-1.3l1.13-1.55a5.41,5.41,0,0,0,1.48,1.11,4.45,4.45,0,0,0,2.1.47,3.58,3.58,0,0,0,1.05-.13,2,2,0,0,0,.7-.36,1.54,1.54,0,0,0,.39-.5,1.46,1.46,0,0,0,.12-.57,1,1,0,0,0-.48-.91A4.47,4.47,0,0,0,22,94.71c-.5-.15-1-.29-1.59-.43a7.29,7.29,0,0,1-1.59-.56,3.39,3.39,0,0,1-1.23-1,2.62,2.62,0,0,1-.48-1.66,2.9,2.9,0,0,1,.3-1.31,3.13,3.13,0,0,1,.83-1.06,4,4,0,0,1,1.3-.7,5.37,5.37,0,0,1,1.7-.26,6.48,6.48,0,0,1,2.39.42,5.43,5.43,0,0,1,1.84,1.18L24.3,90.83a4.11,4.11,0,0,0-1.54-1A5.07,5.07,0,0,0,21,89.52a2.22,2.22,0,0,0-1.38.39,1.21,1.21,0,0,0-.52,1,.91.91,0,0,0,.48.82,5.33,5.33,0,0,0,1.23.49q.74.21,1.59.42a7.75,7.75,0,0,1,1.59.59,3.68,3.68,0,0,1,1.22,1A2.75,2.75,0,0,1,25.69,96a3.65,3.65,0,0,1-.25,1.36,3.06,3.06,0,0,1-.79,1.12,3.84,3.84,0,0,1-1.37.76A6.12,6.12,0,0,1,21.31,99.48Z"/><path class="cls-2" d="M33,99.28V94.11a1.63,1.63,0,0,0-.44-1.32,1.93,1.93,0,0,0-1.21-.35,2.41,2.41,0,0,0-1.25.34,3.22,3.22,0,0,0-.86.75v5.75H27.48V87.94h1.78v4.23a3.94,3.94,0,0,1,.51-.47,3.58,3.58,0,0,1,.66-.43,4.43,4.43,0,0,1,.8-.3,3.93,3.93,0,0,1,.92-.11,2.66,2.66,0,0,1,2,.67,2.61,2.61,0,0,1,.67,1.93v5.82Z"/><path class="cls-2" d="M40.84,99.48a4.18,4.18,0,0,1-1.77-.35,3.94,3.94,0,0,1-1.32-.93,4.08,4.08,0,0,1-.84-1.37,4.92,4.92,0,0,1,0-3.33,4.08,4.08,0,0,1,.84-1.37,3.94,3.94,0,0,1,1.32-.93,4.78,4.78,0,0,1,3.54,0,3.91,3.91,0,0,1,2.16,2.3,4.92,4.92,0,0,1,0,3.33,3.91,3.91,0,0,1-2.16,2.3A4.18,4.18,0,0,1,40.84,99.48Zm0-1.58a2.19,2.19,0,0,0,1-.22,2.15,2.15,0,0,0,.74-.59,2.62,2.62,0,0,0,.45-.88,3.58,3.58,0,0,0,.15-1,3.53,3.53,0,0,0-.15-1,2.57,2.57,0,0,0-.45-.87,2,2,0,0,0-.74-.59,2.19,2.19,0,0,0-1-.23,2.17,2.17,0,0,0-1,.23,2.07,2.07,0,0,0-.75.59,2.59,2.59,0,0,0-.46.87,3.53,3.53,0,0,0-.15,1,3.58,3.58,0,0,0,.15,1,2.64,2.64,0,0,0,.46.88,2.19,2.19,0,0,0,.75.59A2.16,2.16,0,0,0,40.84,97.9Z"/><path class="cls-2" d="M51.3,99.48a3,3,0,0,1-1.46-.35,3.57,3.57,0,0,1-1.18-1v4.27H46.88V91.07h1.78v1.12a3.43,3.43,0,0,1,1.14-1,3.14,3.14,0,0,1,1.5-.36,3.66,3.66,0,0,1,1.46.29,3.52,3.52,0,0,1,1.15.84,4,4,0,0,1,.75,1.36,6.24,6.24,0,0,1,0,3.63,4,4,0,0,1-.75,1.36,3.55,3.55,0,0,1-1.15.85A3.66,3.66,0,0,1,51.3,99.48Zm-.53-1.58a2.09,2.09,0,0,0,1.7-.76,3.4,3.4,0,0,0,0-3.94,2.12,2.12,0,0,0-1.7-.76,2.56,2.56,0,0,0-1.22.32,2.43,2.43,0,0,0-.89.77v3.25a2,2,0,0,0,.38.44,3,3,0,0,0,.51.36,3.13,3.13,0,0,0,.6.24A2.64,2.64,0,0,0,50.77,97.9Z"/><path class="cls-2" d="M61.1,99.28V87.94h1.79v4.27a3.24,3.24,0,0,1,1.18-1,3.32,3.32,0,0,1,1.45-.34,3.51,3.51,0,0,1,1.47.3,3.29,3.29,0,0,1,1.16.86,4.07,4.07,0,0,1,.76,1.36,5.56,5.56,0,0,1,.27,1.79A5.64,5.64,0,0,1,68.91,97a3.83,3.83,0,0,1-.77,1.36,3.12,3.12,0,0,1-1.16.85,3.53,3.53,0,0,1-1.46.29,3.19,3.19,0,0,1-1.47-.35,3.63,3.63,0,0,1-1.16-1v1.12Zm1.79-2.47a2.36,2.36,0,0,0,.89.78A2.55,2.55,0,0,0,65,97.9a2.07,2.07,0,0,0,1.7-.76,3.05,3.05,0,0,0,.62-2,3.48,3.48,0,0,0-.17-1.1,2.37,2.37,0,0,0-.46-.86,2.2,2.2,0,0,0-.73-.56,2.15,2.15,0,0,0-1-.21,2.47,2.47,0,0,0-1.23.33,2.36,2.36,0,0,0-.89.78Z"/><path class="cls-2" d="M71.88,90.06a1.06,1.06,0,0,1-.78-.32,1.11,1.11,0,0,1,0-1.56,1.07,1.07,0,0,1,.78-.33,1.11,1.11,0,1,1,0,2.21ZM71,99.28V91.07h1.79v8.21Z"/><path class="cls-2" d="M78.43,102.61a6.21,6.21,0,0,1-1.87-.26,4.42,4.42,0,0,1-1.58-1l.83-1.3a2.78,2.78,0,0,0,1.16.82,4.14,4.14,0,0,0,1.46.24,3.7,3.7,0,0,0,.87-.11,2.18,2.18,0,0,0,.78-.38,2.11,2.11,0,0,0,.57-.71,2.51,2.51,0,0,0,.21-1.1v-.93a3.66,3.66,0,0,1-1.15,1,3,3,0,0,1-1.49.38A3.86,3.86,0,0,1,76.77,99a3.27,3.27,0,0,1-1.16-.82,3.86,3.86,0,0,1-.75-1.32,6.1,6.1,0,0,1,0-3.59A3.86,3.86,0,0,1,75.61,92a3.35,3.35,0,0,1,1.15-.83,3.84,3.84,0,0,1,1.46-.28,3.37,3.37,0,0,1,1.47.34,3.29,3.29,0,0,1,1.17,1V91.07h1.78v7.78a4,4,0,0,1-.37,1.84,3.2,3.2,0,0,1-1,1.16,3.7,3.7,0,0,1-1.36.59A7,7,0,0,1,78.43,102.61Zm.32-4.91A2.58,2.58,0,0,0,80,97.38a2.73,2.73,0,0,0,.89-.77V93.53a2.59,2.59,0,0,0-.89-.76,2.49,2.49,0,0,0-1.22-.33,2.16,2.16,0,0,0-1.7.73,2.8,2.8,0,0,0-.63,1.91,2.76,2.76,0,0,0,.63,1.9A2.15,2.15,0,0,0,78.75,97.7Z"/><path class="cls-2" d="M95.12,99.28V98.16a3.7,3.7,0,0,1-1.15,1,3.17,3.17,0,0,1-1.48.35A3.53,3.53,0,0,1,91,99.19a3,3,0,0,1-1.15-.85A3.82,3.82,0,0,1,89.12,97a5.64,5.64,0,0,1-.27-1.81,5.56,5.56,0,0,1,.27-1.79A3.91,3.91,0,0,1,89.88,92,3.31,3.31,0,0,1,91,91.16a3.54,3.54,0,0,1,1.47-.3A3.33,3.33,0,0,1,94,91.2a3.29,3.29,0,0,1,1.17,1V87.94h1.79V99.28ZM93,97.9a2.64,2.64,0,0,0,.62-.08,3.13,3.13,0,0,0,.6-.24,2.7,2.7,0,0,0,.51-.35,1.92,1.92,0,0,0,.38-.43V93.55a2.5,2.5,0,0,0-.38-.43,2.7,2.7,0,0,0-.51-.35,3.13,3.13,0,0,0-.6-.24,2.21,2.21,0,0,0-.62-.09,2.19,2.19,0,0,0-1.7.77,2.37,2.37,0,0,0-.46.86,3.61,3.61,0,0,0,0,2.19,2.5,2.5,0,0,0,.46.87,2.37,2.37,0,0,0,.73.57A2.34,2.34,0,0,0,93,97.9Z"/><path class="cls-2" d="M100.12,90.06a1.11,1.11,0,0,1,0-2.21,1.05,1.05,0,0,1,.78.33,1.11,1.11,0,0,1,0,1.56A1,1,0,0,1,100.12,90.06Zm-.9,9.22V91.07H101v8.21Z"/><path class="cls-2" d="M106.14,99.48a5.66,5.66,0,0,1-2-.33,4.23,4.23,0,0,1-1.55-1l.81-1.27a4.91,4.91,0,0,0,.53.42,4.4,4.4,0,0,0,.68.37,5.32,5.32,0,0,0,.77.25,3.63,3.63,0,0,0,.8.09,2.06,2.06,0,0,0,1.22-.29.94.94,0,0,0,.41-.79.66.66,0,0,0-.37-.62,4.36,4.36,0,0,0-.92-.34l-1.2-.27a4.52,4.52,0,0,1-1.19-.41,2.55,2.55,0,0,1-.92-.73,1.9,1.9,0,0,1-.37-1.25,2.11,2.11,0,0,1,.22-1,2.17,2.17,0,0,1,.62-.8,3.11,3.11,0,0,1,1-.53,4.46,4.46,0,0,1,1.38-.2,4.78,4.78,0,0,1,1.85.33,4.38,4.38,0,0,1,1.33.81l-.75,1.26a3.16,3.16,0,0,0-1-.7,3.43,3.43,0,0,0-1.42-.29,1.9,1.9,0,0,0-1.11.29.88.88,0,0,0-.4.73.59.59,0,0,0,.37.55,4,4,0,0,0,.91.31l1.2.28a4.74,4.74,0,0,1,1.2.42,2.64,2.64,0,0,1,.92.77,2.11,2.11,0,0,1,.36,1.3,2.37,2.37,0,0,1-.22,1,2.11,2.11,0,0,1-.65.81,3.26,3.26,0,0,1-1.07.54A5.09,5.09,0,0,1,106.14,99.48Z"/><path class="cls-2" d="M115.08,99.48a4.34,4.34,0,0,1-1.71-.32,4,4,0,0,1-1.33-.9,4.08,4.08,0,0,1-.88-1.37,4.61,4.61,0,0,1-.31-1.72,4.54,4.54,0,0,1,.31-1.72,4,4,0,0,1,.88-1.36,3.73,3.73,0,0,1,1.33-.9,4.34,4.34,0,0,1,1.71-.33,4.63,4.63,0,0,1,1.1.12,3.5,3.5,0,0,1,.86.33,3,3,0,0,1,.67.46,3.32,3.32,0,0,1,.51.56l-1.17,1.07a2.18,2.18,0,0,0-1.89-1,2.34,2.34,0,0,0-1.8.76,2.86,2.86,0,0,0-.68,2,3.2,3.2,0,0,0,.18,1.09,2.6,2.6,0,0,0,.51.87,2.46,2.46,0,0,0,.78.57,2.53,2.53,0,0,0,1,.2,2.2,2.2,0,0,0,1.89-1l1.17,1.1A3.88,3.88,0,0,1,117,99,3.73,3.73,0,0,1,115.08,99.48Z"/><path class="cls-2" d="M123.53,99.48a4.18,4.18,0,0,1-1.77-.35,3.91,3.91,0,0,1-2.16-2.3,4.92,4.92,0,0,1,0-3.33,3.91,3.91,0,0,1,2.16-2.3,4.78,4.78,0,0,1,3.54,0,3.94,3.94,0,0,1,1.32.93,4.25,4.25,0,0,1,.84,1.37,5.09,5.09,0,0,1,0,3.33,4.25,4.25,0,0,1-.84,1.37,3.94,3.94,0,0,1-1.32.93A4.21,4.21,0,0,1,123.53,99.48Zm0-1.58a2.18,2.18,0,0,0,1.76-.81,2.62,2.62,0,0,0,.45-.88,3.58,3.58,0,0,0,.15-1,3.53,3.53,0,0,0-.15-1,2.57,2.57,0,0,0-.45-.87,2.13,2.13,0,0,0-.74-.59,2.25,2.25,0,0,0-1-.23,2.21,2.21,0,0,0-1,.23,2.13,2.13,0,0,0-.74.59,2.42,2.42,0,0,0-.46.87,3.53,3.53,0,0,0-.15,1,3.58,3.58,0,0,0,.15,1,2.47,2.47,0,0,0,.46.88,2.25,2.25,0,0,0,.74.59A2.21,2.21,0,0,0,123.53,97.9Z"/><path class="cls-2" d="M135.1,99.28V98.19a4,4,0,0,1-1.18.89,3.48,3.48,0,0,1-1.71.4,2.65,2.65,0,0,1-2-.67,2.6,2.6,0,0,1-.67-1.93V91.07h1.79v5.15a1.64,1.64,0,0,0,.45,1.32,1.88,1.88,0,0,0,1.21.36,2.37,2.37,0,0,0,1.24-.33,3,3,0,0,0,.85-.74V91.07h1.79v8.21Z"/><path class="cls-2" d="M144.76,99.28V94.15a1.65,1.65,0,0,0-.45-1.34,1.91,1.91,0,0,0-1.22-.37,2.37,2.37,0,0,0-1.23.34,3.28,3.28,0,0,0-.87.75v5.75H139.2V91.07H141v1.1a3.27,3.27,0,0,1,.5-.47,4.05,4.05,0,0,1,.67-.43A4.85,4.85,0,0,1,143,91a3.87,3.87,0,0,1,.92-.11,2.66,2.66,0,0,1,2,.68,2.72,2.72,0,0,1,.67,2v5.78Z"/><path class="cls-2" d="M151.34,99.48a2.12,2.12,0,0,1-1.58-.54,2.19,2.19,0,0,1-.53-1.58V92.61h-1.36V91.07h1.36V88.82H151v2.25h1.66v1.54H151v4.31a1.2,1.2,0,0,0,.19.7.67.67,0,0,0,.59.28,1.23,1.23,0,0,0,.47-.09.84.84,0,0,0,.31-.21L153,99a1.93,1.93,0,0,1-.64.37A3,3,0,0,1,151.34,99.48Z"/><path class="cls-2" d="M157.1,99.48a5.7,5.7,0,0,1-2-.33,4.32,4.32,0,0,1-1.55-1l.82-1.27a4.09,4.09,0,0,0,.53.42,4,4,0,0,0,.68.37,4.63,4.63,0,0,0,.77.25,3.61,3.61,0,0,0,.79.09,2.06,2.06,0,0,0,1.22-.29.91.91,0,0,0,.41-.79.67.67,0,0,0-.36-.62,4.58,4.58,0,0,0-.92-.34l-1.2-.27a4.72,4.72,0,0,1-1.2-.41,2.64,2.64,0,0,1-.92-.73,2,2,0,0,1-.36-1.25,2.24,2.24,0,0,1,.21-1,2.28,2.28,0,0,1,.62-.8,3.11,3.11,0,0,1,1-.53,4.52,4.52,0,0,1,1.39-.2,4.72,4.72,0,0,1,1.84.33,4.44,4.44,0,0,1,1.34.81l-.75,1.26a3.28,3.28,0,0,0-1-.7,3.47,3.47,0,0,0-1.42-.29,1.91,1.91,0,0,0-1.12.29.9.9,0,0,0-.4.73.61.61,0,0,0,.37.55,3.94,3.94,0,0,0,.92.31l1.2.28a4.74,4.74,0,0,1,1.2.42,2.6,2.6,0,0,1,.91.77,2.05,2.05,0,0,1,.37,1.3,2.37,2.37,0,0,1-.22,1,2.23,2.23,0,0,1-.66.81,3.16,3.16,0,0,1-1.07.54A5,5,0,0,1,157.1,99.48Z"/><path class="cls-2" d="M172,99.48a5.9,5.9,0,0,1-2.33-.44,5.53,5.53,0,0,1-1.84-1.22,5.62,5.62,0,0,1-1.2-1.86,6.32,6.32,0,0,1-.42-2.34,6.42,6.42,0,0,1,.42-2.35,5.48,5.48,0,0,1,3-3.08,6.42,6.42,0,0,1,4.67,0,5.56,5.56,0,0,1,1.83,1.23,5.68,5.68,0,0,1,1.2,1.85,6.22,6.22,0,0,1,.43,2.35,6.13,6.13,0,0,1-.43,2.34,5.62,5.62,0,0,1-1.2,1.86A5.39,5.39,0,0,1,174.38,99,6,6,0,0,1,172,99.48Zm0-1.77a3.7,3.7,0,0,0,1.55-.31,3.57,3.57,0,0,0,1.19-.86,3.72,3.72,0,0,0,.76-1.3,5.21,5.21,0,0,0,0-3.25,3.91,3.91,0,0,0-.76-1.3,3.41,3.41,0,0,0-1.19-.85,3.91,3.91,0,0,0-3.1,0,3.46,3.46,0,0,0-1.18.85,3.91,3.91,0,0,0-.76,1.3,5.21,5.21,0,0,0,0,3.25,3.72,3.72,0,0,0,.76,1.3,3.63,3.63,0,0,0,1.18.86A3.7,3.7,0,0,0,172,97.71Z"/><path class="cls-2" d="M183.43,99.48a4.26,4.26,0,0,1-1.7-.32,4.16,4.16,0,0,1-1.34-.9,4.22,4.22,0,0,1-.87-1.37,4.62,4.62,0,0,1-.32-1.72,4.54,4.54,0,0,1,.32-1.72,4.17,4.17,0,0,1,.87-1.36,3.86,3.86,0,0,1,1.34-.9,4.26,4.26,0,0,1,1.7-.33,4.57,4.57,0,0,1,1.1.12,3.74,3.74,0,0,1,.87.33,3.3,3.3,0,0,1,.67.46,4.45,4.45,0,0,1,.51.56l-1.17,1.07a2.2,2.2,0,0,0-1.89-1,2.31,2.31,0,0,0-1.8.76,2.81,2.81,0,0,0-.68,2,3.2,3.2,0,0,0,.18,1.09,2.3,2.3,0,0,0,.51.87,2.46,2.46,0,0,0,.78.57,2.53,2.53,0,0,0,1,.2,2.22,2.22,0,0,0,1.89-1l1.17,1.1a4,4,0,0,1-1.19,1A3.77,3.77,0,0,1,183.43,99.48Z"/><path class="cls-2" d="M190.64,99.48a2.12,2.12,0,0,1-1.58-.54,2.19,2.19,0,0,1-.53-1.58V92.61h-1.36V91.07h1.36V88.82h1.79v2.25H192v1.54h-1.67v4.31a1.2,1.2,0,0,0,.19.7.67.67,0,0,0,.59.28,1.19,1.19,0,0,0,.47-.09.76.76,0,0,0,.31-.21l.43,1.36a2.1,2.1,0,0,1-.65.37A3,3,0,0,1,190.64,99.48Z"/><path class="cls-2" d="M200.08,99.28V90.51l-1.86,1.93-1.15-1.2,3.26-3.3h1.74V99.28Z"/><path class="cls-2" d="M208.53,99.48a3.88,3.88,0,0,1-2.07-.52,4.2,4.2,0,0,1-1.4-1.35,6.26,6.26,0,0,1-.81-1.88,8.73,8.73,0,0,1,0-4.23,6.37,6.37,0,0,1,.81-1.88,4.27,4.27,0,0,1,1.4-1.34,4,4,0,0,1,2.07-.51,3.91,3.91,0,0,1,2,.51A4.3,4.3,0,0,1,212,89.62a6.1,6.1,0,0,1,.8,1.88,8.42,8.42,0,0,1,0,4.23,6,6,0,0,1-.8,1.88A4.23,4.23,0,0,1,210.57,99,3.82,3.82,0,0,1,208.53,99.48Zm0-1.77a2,2,0,0,0,1.16-.33,2.45,2.45,0,0,0,.77-.91,4.32,4.32,0,0,0,.43-1.3,8.61,8.61,0,0,0,.13-1.55,9.77,9.77,0,0,0-.12-1.56,4.52,4.52,0,0,0-.43-1.3,2.48,2.48,0,0,0-.77-.89,2.26,2.26,0,0,0-2.35,0,2.58,2.58,0,0,0-.77.89,4.52,4.52,0,0,0-.43,1.3,7.87,7.87,0,0,0-.14,1.56,7.77,7.77,0,0,0,.14,1.55,4.32,4.32,0,0,0,.43,1.3,2.65,2.65,0,0,0,.77.91A2,2,0,0,0,208.53,97.71Z"/><path class="cls-2" d="M214.27,95.93V94.4h4.08v1.53Z"/><path class="cls-2" d="M222.12,99.28V90.51l-1.85,1.93-1.15-1.2,3.26-3.3h1.73V99.28Z"/><path class="cls-2" d="M228.58,99.28V90.51l-1.85,1.93-1.15-1.2,3.26-3.3h1.73V99.28Z"/></g></g></svg>