<svg xmlns="http://www.w3.org/2000/svg" viewBox="0 0 300.47 600"><defs><style>.cls-1{fill:none;}.cls-2{fill:#fff;}.cls-3{fill:#e52823;}.cls-4{fill:#e32d27;}</style></defs><g id="Layer_2" data-name="Layer 2"><g id="content"><rect width="300" height="600"/><rect class="cls-1" width="300" height="599.75"/><path class="cls-2" d="M133.3,301.34c0,1.84,0,3.53,0,5.37,1.08.06,2.31.28,3.39.37,0,4.47-.11,7.86-.11,12.34,3,.36,5.15.71,6,.86,0-4.48.17-8,.18-12.48,0,0,3.19.5,3.25.54v-5.51a97.8,97.8,0,0,0-12.68-1.49Z"/><path class="cls-2" d="M33.74,294.86c19.06-5.82,28.68,8.77,28.68,8.77s-6-20.36-28.68-8.77Z"/><path class="cls-2" d="M70.58,295.61c0-.08,0-.6,0-.68a14.23,14.23,0,0,0-7.52,10.93s2.6-6,8.7-7.86a3.68,3.68,0,0,1-1.18-2.39Z"/><path class="cls-2" d="M46.27,304.12s-.05,2.88,0,4.33c-.73,0-3.89-.2-5.28-.25,0,.78-.05,1.58,0,2.36,1.66,0,3.39.23,5.06.21,0,1.4,0,2.6,0,4-1.67,0-3.34-.14-5-.17,0,.85,0,1.7,0,2.54,1.79,0,3.59.19,5.38.17,0-.07,0,4.25,0,4.25-3.55,0-7.75-.28-11.73-.61l.28-17.71c1.67.19,6.87.75,11.4.88Z"/><path class="cls-2" d="M47.78,304.16l-.07,4.62c1.67.09,3.18.09,3.18.09l0,12.84a40.36,40.36,0,0,0,6.4-.09l-.08-12.71s2.83-.13,3.27-.17c0-1.7-.05-3-.06-4.72a113,113,0,0,1-12.62.14Z"/><path class="cls-2" d="M25.65,310l-.56-.06,0-3.64.54.05a1.86,1.86,0,0,1,1.85,1.95c0,1.5-.94,1.79-1.86,1.7Zm1.4-8.57L19.47,300l0,18.58c1.94.38,3.72.7,5.62.91l0-5.36c.67.07,1.38.16,2,.22,3.29.31,6.61-.93,6.65-6.31,0-4.77-3.14-6.15-6.66-6.67Z"/><path class="cls-2" d="M90.36,318.68c.85-2.22,1.7-4.29,2.55-6.5.14,2.12.22,4,.35,6.15,2.12-.23,3.82-.36,6-.49-.55-5.64-1-11.69-1.58-17.34l-5.47.5c-1,2.67-2,5.9-3.06,8.57-1-2.47-2-5.36-3-7.82-1.84.26-5.13.83-5.47.84-.63,5.75-1.35,12.14-2,17.89,1.45-.25,5-.81,6.07-1l.49-6.58,2.46,6.14,2.64-.4Z"/><path class="cls-2" d="M124,308.94l-.56,0c0-1.2,0-2.4,0-3.6l.54,0a1.79,1.79,0,0,1,1.85,1.89,1.54,1.54,0,0,1-1.88,1.7Zm5.27,3.82c1.63-.72,2.79-2.29,2.84-5.41.06-4.7-3.26-6.7-6.62-7-2.55-.2-5.09-.33-7.64-.4-.08,6-.11,11.43-.19,17.4,1.9.05,4,.19,5.65.33,0-1.68,0-2.92.07-4.6,1.09,1.75,2,3.2,3.07,5,2.34.21,4.73.51,7.07.85-1.46-2.18-2.78-4.05-4.25-6.19Z"/><path class="cls-2" d="M107.09,311.61c.39-1.48.79-3,1.18-4.52.46,1.48.91,3,1.36,4.46-2.6.09-2.6.06-2.54.06Zm4.15-11.75c-2.26,0-4.11,0-6,.12-1.56,5.79-3.39,12-5,17.79,1.73,0,3.48-.15,5.21-.15l.5-1.93,2.64-.07s2.33-.07,2.33-.07c.07.23.28.83.58,1.85,1.73,0,3.46,0,5.19,0-1.87-6.13-3.76-12-5.46-17.58Z"/><path class="cls-2" d="M62.43,320.06a15.55,15.55,0,0,0,7,1.78c4,0,8.13-2.38,8.21-6.83.07-3.16-2-4.67-4.76-5.29l-1.5-.34c-.51-.13-1.34-.22-1.32-.92s.87-1,1.46-1a10.67,10.67,0,0,1,4,.86q.84-2.24,1.69-4.47a13.27,13.27,0,0,0-5.79-1.38c-4,0-8,2.42-8.1,6.84,0,2.92,2.1,4.52,4.7,5l1.33.25c.61.12,1.48.2,1.47,1s-1,.93-1.71.93a7.87,7.87,0,0,1-4.56-1.5c-.69,1.55-1.5,3.47-2.19,5Z"/><path class="cls-2" d="M76.8,289.8a4.47,4.47,0,1,0,4.41,4.52A4.48,4.48,0,0,0,76.8,289.8Zm1.61,1.65a5.31,5.31,0,0,0-4.79,2.8s0,.05,0,.07a3.31,3.31,0,0,1,.11-1.24,3,3,0,0,1,3.72-2.17,2.88,2.88,0,0,1,1,.56Z"/><path class="cls-2" d="M21.86,21.73H36.6a9.1,9.1,0,0,1,4.39,1,6.78,6.78,0,0,1,2.75,2.6,7.09,7.09,0,0,1,.92,3.55,6.6,6.6,0,0,1-1.38,4.28,5.85,5.85,0,0,1-3.45,2.15,5.8,5.8,0,0,1,3.82,2.31,7.15,7.15,0,0,1,1.56,4.57,7.37,7.37,0,0,1-2.14,5.42,8.12,8.12,0,0,1-6,2.14H21.86ZM35.3,33a3.3,3.3,0,0,0,2.39-.86,3,3,0,0,0,.88-2.25,3,3,0,0,0-.9-2.19,3.27,3.27,0,0,0-2.37-.88H27.82V33Zm.21,11.67a3.71,3.71,0,0,0,2.64-.9,3.39,3.39,0,0,0,0-4.75,3.6,3.6,0,0,0-2.64-.94H27.82v6.59Z"/><path class="cls-2" d="M51,48.88a5.54,5.54,0,0,1-1.44-4.14v-23h5.33V43.31a2.51,2.51,0,0,0,.5,1.6,1.65,1.65,0,0,0,1.35.63,3.5,3.5,0,0,0,1.09-.16,1.57,1.57,0,0,0,.71-.42l1.14,4a6.47,6.47,0,0,1-4.41,1.3A5.9,5.9,0,0,1,51,48.88Z"/><path class="cls-2" d="M76,47.14a8.19,8.19,0,0,1-2.8,2.33,7.5,7.5,0,0,1-3.46.82A8.66,8.66,0,0,1,65.16,49a8.49,8.49,0,0,1-3.22-3.66,13.1,13.1,0,0,1-1.15-5.73A13,13,0,0,1,61.94,34a8.8,8.8,0,0,1,3.2-3.72A8.39,8.39,0,0,1,69.78,29a7.78,7.78,0,0,1,3.44.8A8,8,0,0,1,76,32.06v-2.6h5.37V49.74H76Zm0-11.08a5,5,0,0,0-2-1.66,5.8,5.8,0,0,0-2.64-.66,4.67,4.67,0,0,0-3.7,1.63,6.23,6.23,0,0,0-1.43,4.27,6.27,6.27,0,0,0,1.43,4.26,4.65,4.65,0,0,0,3.7,1.64,5.78,5.78,0,0,0,2.64-.65,5,5,0,0,0,2-1.66Z"/><path class="cls-2" d="M86.79,34.11a9.87,9.87,0,0,1,3.82-3.79A11.13,11.13,0,0,1,96.15,29,10.65,10.65,0,0,1,101,30a8.53,8.53,0,0,1,3.16,2.63l-3.49,3.27a4.85,4.85,0,0,0-4.28-2.18,5.21,5.21,0,0,0-4,1.62A6,6,0,0,0,90.9,39.6a6,6,0,0,0,1.54,4.3A5.6,5.6,0,0,0,98.84,45a5.21,5.21,0,0,0,1.85-1.62l3.49,3.23a8.73,8.73,0,0,1-3.13,2.65,10.44,10.44,0,0,1-4.9,1,11.13,11.13,0,0,1-5.54-1.37,9.84,9.84,0,0,1-3.82-3.78A10.91,10.91,0,0,1,85.4,39.6,10.77,10.77,0,0,1,86.79,34.11Z"/><path class="cls-2" d="M115.43,41.93,113,44.54v5.2h-5.33v-28H113V38.49l7.69-9h6.55l-8,9.2,8.27,11.08h-6.67Z"/><path class="cls-2" d="M141,21.73h19.82v5.12H147v6.09h13.57v5.13H147V49.74h-6Z"/><path class="cls-2" d="M164.87,29.46h5.33v2.77a9.07,9.07,0,0,1,2.85-2.33,7.59,7.59,0,0,1,3.62-.95v5.21a6.38,6.38,0,0,0-4.33.51,4.74,4.74,0,0,0-2.14,1.64V49.74h-5.33Z"/><path class="cls-2" d="M180.38,25.53a3.19,3.19,0,1,1,5.44-2.25,3.13,3.13,0,0,1-.92,2.25,3.16,3.16,0,0,1-4.52,0Zm-.4,3.93h5.34V49.74H180Z"/><path class="cls-2" d="M204.55,47.14a8.07,8.07,0,0,1-2.79,2.33,7.5,7.5,0,0,1-3.46.82A8.66,8.66,0,0,1,193.68,49a8.43,8.43,0,0,1-3.22-3.66,13.1,13.1,0,0,1-1.15-5.73A13,13,0,0,1,190.46,34a8.8,8.8,0,0,1,3.2-3.72A8.39,8.39,0,0,1,198.3,29a7.78,7.78,0,0,1,3.44.8,7.88,7.88,0,0,1,2.81,2.31V21.73h5.38v28h-5.38Zm0-11.12a4.9,4.9,0,0,0-2-1.67,5.92,5.92,0,0,0-2.65-.65,4.67,4.67,0,0,0-3.69,1.64,6.34,6.34,0,0,0-1.43,4.3,6.27,6.27,0,0,0,1.43,4.26,4.64,4.64,0,0,0,3.69,1.64,5.79,5.79,0,0,0,2.65-.65,4.88,4.88,0,0,0,2-1.66Z"/><path class="cls-2" d="M229.17,47.14a8.19,8.19,0,0,1-2.8,2.33,7.5,7.5,0,0,1-3.46.82A8.66,8.66,0,0,1,218.29,49a8.41,8.41,0,0,1-3.21-3.66,13,13,0,0,1-1.16-5.73A12.89,12.89,0,0,1,215.08,34a8.71,8.71,0,0,1,3.19-3.72A8.39,8.39,0,0,1,222.91,29a7.78,7.78,0,0,1,3.44.8,8,8,0,0,1,2.82,2.31v-2.6h5.37V49.74h-5.37Zm0-11.08a5,5,0,0,0-2-1.66,5.8,5.8,0,0,0-2.64-.66,4.67,4.67,0,0,0-3.7,1.63,6.23,6.23,0,0,0-1.43,4.27,6.27,6.27,0,0,0,1.43,4.26,4.65,4.65,0,0,0,3.7,1.64,5.78,5.78,0,0,0,2.64-.65,5,5,0,0,0,2-1.66Z"/><path class="cls-2" d="M242,51.09A6.42,6.42,0,0,0,244.66,53a9.46,9.46,0,0,0,3.41.63,5.64,5.64,0,0,0,4-1.35,5,5,0,0,0,1.43-3.86V46.3a9.53,9.53,0,0,1-3,2.18,9.32,9.32,0,0,1-4.13.89,6.57,6.57,0,0,1-4.92-1.68A6.47,6.47,0,0,1,239.83,43V29.46h5.34V40.88a3.7,3.7,0,0,0,1,2.88,4.08,4.08,0,0,0,2.78.86,5.34,5.34,0,0,0,2.64-.67,6.44,6.44,0,0,0,2-1.64V29.46h5.33V48.15a9.14,9.14,0,0,1-2.92,7.24A11.4,11.4,0,0,1,248.07,58a12.41,12.41,0,0,1-8.49-3Z"/><path class="cls-2" d="M35.67,93.14a8.07,8.07,0,0,1-2.79,2.33,7.5,7.5,0,0,1-3.46.82A8.66,8.66,0,0,1,24.8,95a8.43,8.43,0,0,1-3.22-3.66,14.68,14.68,0,0,1,0-11.39,8.85,8.85,0,0,1,3.19-3.72A8.45,8.45,0,0,1,29.42,75a7.78,7.78,0,0,1,3.44.8,7.88,7.88,0,0,1,2.81,2.31V67.73h5.38v28H35.67Zm0-11.12a4.9,4.9,0,0,0-2-1.67,5.92,5.92,0,0,0-2.65-.65,4.67,4.67,0,0,0-3.69,1.64,6.34,6.34,0,0,0-1.43,4.3,6.27,6.27,0,0,0,1.43,4.26,4.64,4.64,0,0,0,3.69,1.64,5.79,5.79,0,0,0,2.65-.65,4.88,4.88,0,0,0,2-1.66Z"/><path class="cls-2" d="M46.38,80.24a10.17,10.17,0,0,1,3.74-3.85A10.31,10.31,0,0,1,55.54,75a9.94,9.94,0,0,1,5.29,1.41,9.54,9.54,0,0,1,3.59,4,12.66,12.66,0,0,1,1.28,5.82V87.3H50.63a5.17,5.17,0,0,0,1.8,3.39,5.89,5.89,0,0,0,4,1.36,8.41,8.41,0,0,0,3-.55A6.77,6.77,0,0,0,61.88,90l2.35,3.45a10.16,10.16,0,0,1-3.69,2.08,14.8,14.8,0,0,1-4.66.73A11.5,11.5,0,0,1,50.33,95a9.63,9.63,0,0,1-3.88-3.74,11.65,11.65,0,0,1-.07-11Zm5.63.32a5.47,5.47,0,0,0-1.47,3.13h10a5.17,5.17,0,0,0-1.37-3.11,4.61,4.61,0,0,0-3.63-1.38A4.57,4.57,0,0,0,52,80.56Z"/><path class="cls-2" d="M83.51,93.14a8.07,8.07,0,0,1-2.79,2.33,7.51,7.51,0,0,1-3.47.82A8.69,8.69,0,0,1,72.63,95a8.47,8.47,0,0,1-3.21-3.66,14.68,14.68,0,0,1,0-11.39,8.78,8.78,0,0,1,3.19-3.72A8.44,8.44,0,0,1,77.25,75a7.8,7.8,0,0,1,3.45.8,7.88,7.88,0,0,1,2.81,2.31v-2.6h5.38V95.74H83.51Zm0-11.08a5,5,0,0,0-2-1.66,5.8,5.8,0,0,0-2.65-.66,4.66,4.66,0,0,0-3.69,1.63,7.08,7.08,0,0,0,0,8.53,4.64,4.64,0,0,0,3.69,1.64,5.79,5.79,0,0,0,2.65-.65,5,5,0,0,0,2-1.66Z"/><path class="cls-2" d="M95.63,94.88a5.51,5.51,0,0,1-1.45-4.14v-23h5.33V89.31a2.45,2.45,0,0,0,.51,1.6,1.62,1.62,0,0,0,1.34.63,3.46,3.46,0,0,0,1.09-.16,1.61,1.61,0,0,0,.72-.42l1.13,4a6.47,6.47,0,0,1-4.41,1.3A5.87,5.87,0,0,1,95.63,94.88Z"/><path class="cls-2" d="M107.24,89.4a10.66,10.66,0,0,0,3.19,1.93,9.8,9.8,0,0,0,3.82.84,4.78,4.78,0,0,0,2.55-.55,1.71,1.71,0,0,0,.86-1.52,1.62,1.62,0,0,0-1-1.49,12.92,12.92,0,0,0-3.07-.93,29.37,29.37,0,0,1-4-1,6.61,6.61,0,0,1-2.77-1.82,5,5,0,0,1-1.18-3.51,5.59,5.59,0,0,1,1-3.19,6.69,6.69,0,0,1,2.88-2.33,10.55,10.55,0,0,1,4.45-.87,12.79,12.79,0,0,1,8.19,2.78L120,81.38a7.64,7.64,0,0,0-2.59-1.68A8.76,8.76,0,0,0,114,79a4.66,4.66,0,0,0-2.33.5,1.56,1.56,0,0,0-.86,1.39,1.4,1.4,0,0,0,.94,1.32,14.29,14.29,0,0,0,2.92.86,26.72,26.72,0,0,1,4.08,1.06,7,7,0,0,1,2.85,1.93,5.28,5.28,0,0,1,1.22,3.67,5.75,5.75,0,0,1-1,3.35,6.65,6.65,0,0,1-3,2.34,12.15,12.15,0,0,1-4.73.84,15.31,15.31,0,0,1-5.06-.84,11.28,11.28,0,0,1-4-2.31Z"/><path class="cls-2" d="M138,89.4a10.53,10.53,0,0,0,3.19,1.93,9.76,9.76,0,0,0,3.82.84,4.72,4.72,0,0,0,2.54-.55,1.69,1.69,0,0,0,.86-1.52,1.6,1.6,0,0,0-1-1.49,12.81,12.81,0,0,0-3.06-.93,29,29,0,0,1-4-1,6.64,6.64,0,0,1-2.78-1.82,5,5,0,0,1-1.17-3.51,5.59,5.59,0,0,1,1-3.19,6.6,6.6,0,0,1,2.87-2.33A10.58,10.58,0,0,1,144.7,75a12.75,12.75,0,0,1,8.19,2.78l-2.14,3.65a7.5,7.5,0,0,0-2.58-1.68,8.8,8.8,0,0,0-3.42-.67,4.66,4.66,0,0,0-2.33.5,1.55,1.55,0,0,0-.87,1.39,1.41,1.41,0,0,0,.95,1.32,14.09,14.09,0,0,0,2.92.86,26.56,26.56,0,0,1,4.07,1.06,7.05,7.05,0,0,1,2.86,1.93,5.28,5.28,0,0,1,1.22,3.67,5.82,5.82,0,0,1-1,3.35,6.73,6.73,0,0,1-3,2.34,12.1,12.1,0,0,1-4.72.84,15.26,15.26,0,0,1-5.06-.84,11.28,11.28,0,0,1-4-2.31Z"/><path class="cls-2" d="M160,94.86a5.5,5.5,0,0,1-1.47-4.13V80.12H155.2V75.46h3.36V69.91h5.38v5.55h4.12v4.66h-4.12v9.19a2.51,2.51,0,0,0,.5,1.6,1.65,1.65,0,0,0,1.35.63,3.5,3.5,0,0,0,1.09-.16,2,2,0,0,0,.76-.42l1.13,4a6.53,6.53,0,0,1-4.45,1.3A5.93,5.93,0,0,1,160,94.86Z"/><path class="cls-2" d="M185.65,93.14a8.07,8.07,0,0,1-2.79,2.33,7.5,7.5,0,0,1-3.46.82A8.66,8.66,0,0,1,174.78,95a8.43,8.43,0,0,1-3.22-3.66,14.68,14.68,0,0,1,0-11.39,8.8,8.8,0,0,1,3.2-3.72A8.39,8.39,0,0,1,179.4,75a7.78,7.78,0,0,1,3.44.8,7.88,7.88,0,0,1,2.81,2.31v-2.6H191V95.74h-5.38Zm0-11.08a4.88,4.88,0,0,0-2-1.66,5.8,5.8,0,0,0-2.65-.66,4.66,4.66,0,0,0-3.69,1.63,7.08,7.08,0,0,0,0,8.53A4.64,4.64,0,0,0,181,91.54a5.79,5.79,0,0,0,2.65-.65,4.88,4.88,0,0,0,2-1.66Z"/><path class="cls-2" d="M196.32,75.46h5.34v2.77a9,9,0,0,1,2.85-2.33,7.58,7.58,0,0,1,3.61-1v5.21a6.84,6.84,0,0,0-1.47-.17,7,7,0,0,0-2.85.68,4.74,4.74,0,0,0-2.14,1.64V95.74h-5.34Z"/><path class="cls-2" d="M214,94.86a5.5,5.5,0,0,1-1.47-4.13V80.12h-3.36V75.46h3.36V69.91h5.38v5.55H222v4.66h-4.11v9.19a2.51,2.51,0,0,0,.5,1.6,1.65,1.65,0,0,0,1.35.63,3.5,3.5,0,0,0,1.09-.16,2,2,0,0,0,.75-.42l1.14,4a6.55,6.55,0,0,1-4.45,1.3A5.93,5.93,0,0,1,214,94.86Z"/><path class="cls-2" d="M24.25,140.86a5.51,5.51,0,0,1-1.47-4.13V126.12H19.42v-4.66h3.36v-5.55h5.38v5.55h4.11v4.66H28.16v9.19a2.45,2.45,0,0,0,.5,1.6,1.63,1.63,0,0,0,1.34.63,3.52,3.52,0,0,0,1.1-.16,2,2,0,0,0,.75-.42L33,141a6.56,6.56,0,0,1-4.46,1.3A5.92,5.92,0,0,1,24.25,140.86Z"/><path class="cls-2" d="M49.66,129.4a3.6,3.6,0,0,0-1-2.86,4.16,4.16,0,0,0-2.81-.84,5.32,5.32,0,0,0-2.65.69,6.44,6.44,0,0,0-2,1.7v13.65H35.93v-28h5.33V124.1a9,9,0,0,1,3-2.22A9.27,9.27,0,0,1,48.4,121a6.67,6.67,0,0,1,4.93,1.68A6.4,6.4,0,0,1,55,127.34v14.4H49.66Z"/><path class="cls-2" d="M60.68,117.53a3.19,3.19,0,1,1,5.44-2.25,3.13,3.13,0,0,1-.92,2.25,3.16,3.16,0,0,1-4.52,0Zm-.39,3.93h5.33v20.28H60.29Z"/><path class="cls-2" d="M71.46,135.4a10.53,10.53,0,0,0,3.19,1.93,9.76,9.76,0,0,0,3.82.84,4.72,4.72,0,0,0,2.54-.55,1.69,1.69,0,0,0,.86-1.52,1.6,1.6,0,0,0-1-1.49,12.81,12.81,0,0,0-3.06-.93,29,29,0,0,1-4-1A6.64,6.64,0,0,1,71,130.85a5,5,0,0,1-1.17-3.51,5.59,5.59,0,0,1,1-3.19,6.6,6.6,0,0,1,2.87-2.33,10.58,10.58,0,0,1,4.45-.87,12.75,12.75,0,0,1,8.19,2.78l-2.14,3.65a7.5,7.5,0,0,0-2.58-1.68,8.8,8.8,0,0,0-3.42-.67,4.66,4.66,0,0,0-2.33.5,1.55,1.55,0,0,0-.87,1.39,1.41,1.41,0,0,0,1,1.32,14.09,14.09,0,0,0,2.92.86,26.56,26.56,0,0,1,4.07,1.06,7.05,7.05,0,0,1,2.86,1.93A5.28,5.28,0,0,1,87,135.76a5.82,5.82,0,0,1-1,3.35,6.73,6.73,0,0,1-3,2.34,12.1,12.1,0,0,1-4.72.84,15.26,15.26,0,0,1-5.06-.84,11.28,11.28,0,0,1-4-2.31Z"/><path class="cls-2" d="M115.22,127.93l-4.28,13.81h-5.72l-6.17-20.28h5.54l3.78,13.65,4.46-13.65h4.74L122,135.11l3.78-13.65h5.55l-6.18,20.28H119.5Z"/><path class="cls-2" d="M134,126.24a10.07,10.07,0,0,1,3.73-3.85,10.34,10.34,0,0,1,5.42-1.44,9.94,9.94,0,0,1,5.29,1.41,9.63,9.63,0,0,1,3.6,4,12.78,12.78,0,0,1,1.28,5.82v1.17H138.28a5.22,5.22,0,0,0,1.8,3.39,5.9,5.9,0,0,0,4,1.36,8.45,8.45,0,0,0,3-.55,6.81,6.81,0,0,0,2.45-1.47l2.36,3.45a10.21,10.21,0,0,1-3.7,2.08,14.76,14.76,0,0,1-4.66.73A11.63,11.63,0,0,1,138,141a9.79,9.79,0,0,1-3.88-3.75,11,11,0,0,1-1.41-5.62A10.8,10.8,0,0,1,134,126.24Zm5.62.32a5.47,5.47,0,0,0-1.47,3.13h10a5.15,5.15,0,0,0-1.36-3.11,4.65,4.65,0,0,0-3.64-1.38A4.57,4.57,0,0,0,139.66,126.56Z"/><path class="cls-2" d="M157.26,126.24a10.09,10.09,0,0,1,3.74-3.85,10.31,10.31,0,0,1,5.42-1.44,9.94,9.94,0,0,1,5.29,1.41,9.54,9.54,0,0,1,3.59,4,12.66,12.66,0,0,1,1.28,5.82v1.17H161.5a5.19,5.19,0,0,0,1.81,3.39,5.89,5.89,0,0,0,4,1.36,8.41,8.41,0,0,0,3-.55,6.77,6.77,0,0,0,2.46-1.47l2.35,3.45a10.16,10.16,0,0,1-3.69,2.08,14.82,14.82,0,0,1-4.67.73,11.59,11.59,0,0,1-5.54-1.32,9.72,9.72,0,0,1-3.88-3.75,11.65,11.65,0,0,1-.07-11Zm5.63.32a5.47,5.47,0,0,0-1.47,3.13h10a5.17,5.17,0,0,0-1.37-3.11,4.64,4.64,0,0,0-3.63-1.38A4.57,4.57,0,0,0,162.89,126.56Z"/><path class="cls-2" d="M188.22,133.93l-2.44,2.61v5.2h-5.33v-28h5.33v16.76l7.69-9H200l-8,9.2,8.27,11.08h-6.68Z"/><path class="cls-2" d="M202.08,126.24a10.07,10.07,0,0,1,3.73-3.85,10.34,10.34,0,0,1,5.42-1.44,9.94,9.94,0,0,1,5.29,1.41,9.54,9.54,0,0,1,3.59,4,12.66,12.66,0,0,1,1.29,5.82v1.17H206.32a5.22,5.22,0,0,0,1.8,3.39,5.9,5.9,0,0,0,4,1.36,8.45,8.45,0,0,0,3-.55,6.81,6.81,0,0,0,2.45-1.47l2.36,3.45a10.21,10.21,0,0,1-3.7,2.08,14.76,14.76,0,0,1-4.66.73A11.63,11.63,0,0,1,206,141a9.79,9.79,0,0,1-3.88-3.75,11,11,0,0,1-1.41-5.62A10.8,10.8,0,0,1,202.08,126.24Zm5.62.32a5.47,5.47,0,0,0-1.47,3.13h10a5.11,5.11,0,0,0-1.37-3.11,5.36,5.36,0,0,0-7.16,0Z"/><path class="cls-2" d="M239,129.48a3.79,3.79,0,0,0-1-2.9,4,4,0,0,0-2.78-.88,5.2,5.2,0,0,0-2.66.69,6.64,6.64,0,0,0-2,1.7v13.65h-5.33V121.46h5.33v2.64a9.38,9.38,0,0,1,7.1-3.15,5.91,5.91,0,0,1,6.6,6.47v14.32H239Z"/><path class="cls-2" d="M263.52,139.14a8.07,8.07,0,0,1-2.79,2.33,7.54,7.54,0,0,1-3.47.82,8.66,8.66,0,0,1-4.62-1.26,8.47,8.47,0,0,1-3.21-3.66,14.56,14.56,0,0,1,0-11.39,8.78,8.78,0,0,1,3.19-3.72,8.44,8.44,0,0,1,4.64-1.31,7.87,7.87,0,0,1,6.26,3.11V113.73h5.38v28h-5.38Zm0-11.12a5,5,0,0,0-2-1.67,5.92,5.92,0,0,0-2.65-.65,4.67,4.67,0,0,0-3.69,1.64,6.29,6.29,0,0,0-1.43,4.3,6.2,6.2,0,0,0,1.43,4.26,4.64,4.64,0,0,0,3.69,1.64,5.79,5.79,0,0,0,2.65-.65,5,5,0,0,0,2-1.66Z"/><path class="cls-2" d="M274.55,136.41a3.2,3.2,0,0,1,2.37-1,3.27,3.27,0,0,1,2.39,1,3.38,3.38,0,0,1-2.39,5.75,3.19,3.19,0,0,1-2.37-1,3.34,3.34,0,0,1,0-4.75Zm-.87-22.68h6.43l-.84,18.9h-4.7Z"/><path class="cls-3" d="M26.69,187.53a10.52,10.52,0,0,1-4.28-.79,9.26,9.26,0,0,1-3-2l1.76-2.43A8.79,8.79,0,0,0,23.52,184a7,7,0,0,0,3.3.75,5.59,5.59,0,0,0,1.64-.21,3.33,3.33,0,0,0,1.1-.56,2.25,2.25,0,0,0,.61-.79,2.07,2.07,0,0,0,.2-.9,1.6,1.6,0,0,0-.76-1.43,7.32,7.32,0,0,0-1.92-.84c-.78-.23-1.61-.45-2.5-.67a11.93,11.93,0,0,1-2.5-.88,5.27,5.27,0,0,1-1.92-1.54,4.08,4.08,0,0,1-.76-2.6,4.5,4.5,0,0,1,.47-2.07,5.07,5.07,0,0,1,1.3-1.66,6.39,6.39,0,0,1,2-1.11,8.6,8.6,0,0,1,2.67-.4,10.1,10.1,0,0,1,3.75.66,8.42,8.42,0,0,1,2.9,1.85l-1.76,2.33A6.62,6.62,0,0,0,29,172.37a8,8,0,0,0-2.76-.5,3.53,3.53,0,0,0-2.18.62,1.92,1.92,0,0,0-.82,1.6,1.42,1.42,0,0,0,.77,1.28,8,8,0,0,0,1.92.78c.77.21,1.61.43,2.5.65a11.51,11.51,0,0,1,2.5.94,5.64,5.64,0,0,1,1.92,1.6,4.26,4.26,0,0,1,.76,2.66,5.59,5.59,0,0,1-.4,2.12,4.79,4.79,0,0,1-1.24,1.77,6.25,6.25,0,0,1-2.15,1.2A9.9,9.9,0,0,1,26.69,187.53Z"/><path class="cls-3" d="M45.1,187.21v-8.12a2.52,2.52,0,0,0-.7-2.07,2.94,2.94,0,0,0-1.9-.55,3.71,3.71,0,0,0-2,.53,4.81,4.81,0,0,0-1.35,1.18v9h-2.8V169.39h2.8V176A6.23,6.23,0,0,1,41,174.62a5.86,5.86,0,0,1,1.26-.46,5.65,5.65,0,0,1,1.45-.18,4.28,4.28,0,0,1,3.13,1,4.16,4.16,0,0,1,1,3v9.14Z"/><path class="cls-3" d="M57.39,187.53a6.67,6.67,0,0,1-2.78-.55,6.17,6.17,0,0,1-2.09-1.47,6.44,6.44,0,0,1-1.31-2.15,7.85,7.85,0,0,1,0-5.24A6.54,6.54,0,0,1,52.52,176a6.12,6.12,0,0,1,2.09-1.45,7.43,7.43,0,0,1,5.56,0A6.18,6.18,0,0,1,62.25,176a6.38,6.38,0,0,1,1.31,2.15,7.85,7.85,0,0,1,0,5.24A6.24,6.24,0,0,1,60.17,187,6.7,6.7,0,0,1,57.39,187.53Zm0-2.49a3.55,3.55,0,0,0,1.6-.34,3.44,3.44,0,0,0,1.16-.94,4.15,4.15,0,0,0,.71-1.37,5.68,5.68,0,0,0,.24-1.65,5.5,5.5,0,0,0-.24-1.63,4.2,4.2,0,0,0-.71-1.36,3.35,3.35,0,0,0-2.76-1.28,3.5,3.5,0,0,0-1.58.34,3.71,3.71,0,0,0-1.17.94,3.88,3.88,0,0,0-.73,1.36,5.5,5.5,0,0,0-.24,1.63,5.68,5.68,0,0,0,.24,1.65,3.84,3.84,0,0,0,.73,1.37,3.57,3.57,0,0,0,1.17.94A3.5,3.5,0,0,0,57.39,185Z"/><path class="cls-3" d="M73.82,187.53a4.87,4.87,0,0,1-2.29-.55,5.57,5.57,0,0,1-1.85-1.56v6.7H66.87V174.3h2.81v1.77a5.29,5.29,0,0,1,1.79-1.53,5,5,0,0,1,2.35-.56,5.59,5.59,0,0,1,2.3.46,5.06,5.06,0,0,1,1.8,1.32,6.32,6.32,0,0,1,1.19,2.12,9.73,9.73,0,0,1,0,5.72,6.27,6.27,0,0,1-1.19,2.13,5.34,5.34,0,0,1-1.8,1.33A5.6,5.6,0,0,1,73.82,187.53ZM73,185a3.28,3.28,0,0,0,2.67-1.2,4.71,4.71,0,0,0,1-3.1,4.65,4.65,0,0,0-1-3.08A3.27,3.27,0,0,0,73,176.47a4,4,0,0,0-1.91.49,3.83,3.83,0,0,0-1.4,1.22v5.1a3.54,3.54,0,0,0,.6.7,4.58,4.58,0,0,0,.8.56,4.28,4.28,0,0,0,.94.37A3.6,3.6,0,0,0,73,185Z"/><path class="cls-3" d="M89.24,187.21V169.39H92v6.7a5.15,5.15,0,0,1,1.86-1.57,5,5,0,0,1,2.28-.54,5.64,5.64,0,0,1,2.31.47,5,5,0,0,1,1.82,1.35,6.42,6.42,0,0,1,1.19,2.14,8.75,8.75,0,0,1,.43,2.8,9,9,0,0,1-.43,2.86,6.44,6.44,0,0,1-1.2,2.14,5.07,5.07,0,0,1-1.83,1.33,5.65,5.65,0,0,1-2.29.46,5,5,0,0,1-2.32-.56A5.57,5.57,0,0,1,92,185.45v1.76Zm2.8-3.88a3.75,3.75,0,0,0,1.4,1.22,4.05,4.05,0,0,0,1.94.49,3.25,3.25,0,0,0,2.66-1.2,4.75,4.75,0,0,0,1-3.1,5.54,5.54,0,0,0-.25-1.72,3.81,3.81,0,0,0-.73-1.35,3.53,3.53,0,0,0-1.15-.88,3.36,3.36,0,0,0-1.5-.32,4,4,0,0,0-1.94.51A3.83,3.83,0,0,0,92,178.2Z"/><path class="cls-3" d="M106.18,172.73a1.64,1.64,0,0,1-1.23-.51,1.74,1.74,0,0,1,0-2.46,1.73,1.73,0,0,1,2.45,0,1.74,1.74,0,0,1,0,2.46A1.64,1.64,0,0,1,106.18,172.73Zm-1.42,14.48V174.3h2.8v12.91Z"/><path class="cls-3" d="M116.46,192.45a9.48,9.48,0,0,1-2.94-.42,6.91,6.91,0,0,1-2.48-1.51l1.31-2a4.44,4.44,0,0,0,1.81,1.28,6.64,6.64,0,0,0,2.3.38,5.45,5.45,0,0,0,1.38-.18,3.21,3.21,0,0,0,1.23-.6,3.06,3.06,0,0,0,.88-1.11,3.91,3.91,0,0,0,.33-1.72v-1.47a5.77,5.77,0,0,1-1.8,1.58,4.76,4.76,0,0,1-2.34.59,5.73,5.73,0,0,1-2.28-.45,5,5,0,0,1-1.82-1.28,6,6,0,0,1-1.19-2.07,9.46,9.46,0,0,1,0-5.64,6.13,6.13,0,0,1,1.19-2.08,5.13,5.13,0,0,1,1.8-1.3,5.93,5.93,0,0,1,2.3-.44,5,5,0,0,1,2.3.54,5.09,5.09,0,0,1,1.84,1.57V174.3h2.81v12.24a6.35,6.35,0,0,1-.59,2.89,4.8,4.8,0,0,1-1.54,1.81,5.86,5.86,0,0,1-2.13.94A10.7,10.7,0,0,1,116.46,192.45Zm.51-7.73a4.22,4.22,0,0,0,3.31-1.71v-4.83a4.3,4.3,0,0,0-3.31-1.71,3.38,3.38,0,0,0-2.67,1.13,4.42,4.42,0,0,0-1,3,4.35,4.35,0,0,0,1,3A3.37,3.37,0,0,0,117,184.72Z"/><path class="cls-3" d="M142.7,187.21v-1.76a5.71,5.71,0,0,1-1.8,1.52,5,5,0,0,1-2.34.56,5.65,5.65,0,0,1-2.29-.46,4.84,4.84,0,0,1-1.81-1.33,6.25,6.25,0,0,1-1.19-2.14,8.73,8.73,0,0,1-.43-2.86,8.48,8.48,0,0,1,.43-2.8,6.25,6.25,0,0,1,1.19-2.14,5.06,5.06,0,0,1,1.8-1.35,5.56,5.56,0,0,1,2.3-.47,5.05,5.05,0,0,1,2.3.54,5.17,5.17,0,0,1,1.84,1.57v-6.7h2.8v17.82ZM139.39,185a3.65,3.65,0,0,0,1-.13,4.48,4.48,0,0,0,.94-.37,5.14,5.14,0,0,0,.8-.55,3.19,3.19,0,0,0,.6-.68V178.2a3.66,3.66,0,0,0-.6-.66,4.1,4.1,0,0,0-.8-.56,4,4,0,0,0-.94-.38,3.65,3.65,0,0,0-1-.13,3.44,3.44,0,0,0-1.53.32,3.53,3.53,0,0,0-1.15.88A3.81,3.81,0,0,0,136,179a5.54,5.54,0,0,0-.26,1.72,5.6,5.6,0,0,0,.26,1.73,4,4,0,0,0,.73,1.36,3.36,3.36,0,0,0,2.68,1.21Z"/><path class="cls-3" d="M150.55,172.73a1.68,1.68,0,0,1-1.23-.51,1.76,1.76,0,0,1,0-2.46,1.74,1.74,0,1,1,1.23,3Zm-1.41,14.48V174.3h2.8v12.91Z"/><path class="cls-3" d="M160,187.53a8.89,8.89,0,0,1-3.1-.52,6.89,6.89,0,0,1-2.43-1.51l1.28-2a5.16,5.16,0,0,0,.83.67,6.4,6.4,0,0,0,1.07.58,7.26,7.26,0,0,0,1.22.4,5.24,5.24,0,0,0,1.24.14,3.26,3.26,0,0,0,1.92-.46,1.46,1.46,0,0,0,.64-1.25,1,1,0,0,0-.57-1,5.81,5.81,0,0,0-1.44-.53c-.58-.14-1.21-.29-1.89-.43a8.17,8.17,0,0,1-1.88-.64,4.19,4.19,0,0,1-1.44-1.15,3.05,3.05,0,0,1-.58-2,3.44,3.44,0,0,1,.34-1.51,3.59,3.59,0,0,1,1-1.24,4.8,4.8,0,0,1,1.59-.84A7.21,7.21,0,0,1,160,174a7.62,7.62,0,0,1,2.9.51,7.37,7.37,0,0,1,2.1,1.28l-1.18,2a4.86,4.86,0,0,0-1.59-1.1,5.39,5.39,0,0,0-2.23-.45,3,3,0,0,0-1.75.45,1.38,1.38,0,0,0-.63,1.15.92.92,0,0,0,.58.86,6.34,6.34,0,0,0,1.44.49l1.88.43a7.7,7.7,0,0,1,1.89.67,4.08,4.08,0,0,1,1.44,1.2,3.34,3.34,0,0,1,.57,2,3.81,3.81,0,0,1-.34,1.61,3.63,3.63,0,0,1-1,1.28,5,5,0,0,1-1.69.84A7.69,7.69,0,0,1,160,187.53Z"/><path class="cls-3" d="M174.07,187.53a6.9,6.9,0,0,1-2.69-.51,6.36,6.36,0,0,1-2.1-1.41,6.69,6.69,0,0,1-1.37-2.16,7.57,7.57,0,0,1,0-5.41,6.55,6.55,0,0,1,1.37-2.13,6.24,6.24,0,0,1,2.1-1.42,6.9,6.9,0,0,1,2.69-.51,7.48,7.48,0,0,1,1.72.19,5.34,5.34,0,0,1,1.36.51,5.51,5.51,0,0,1,1.06.73,7.17,7.17,0,0,1,.8.87L177.16,178a3.45,3.45,0,0,0-3-1.49,3.59,3.59,0,0,0-2.83,1.19,4.39,4.39,0,0,0-1.07,3.08,5.06,5.06,0,0,0,.28,1.73,4,4,0,0,0,.8,1.36A3.7,3.7,0,0,0,174.2,185a3.42,3.42,0,0,0,3-1.55l1.85,1.74a6.32,6.32,0,0,1-1.87,1.6A5.94,5.94,0,0,1,174.07,187.53Z"/><path class="cls-3" d="M187.35,187.53a6.67,6.67,0,0,1-2.78-.55,6.17,6.17,0,0,1-2.09-1.47,6.44,6.44,0,0,1-1.31-2.15,7.85,7.85,0,0,1,0-5.24,6.54,6.54,0,0,1,1.31-2.15,6.12,6.12,0,0,1,2.09-1.45,7.4,7.4,0,0,1,5.55,0,6.12,6.12,0,0,1,2.09,1.45,6.54,6.54,0,0,1,1.31,2.15,7.85,7.85,0,0,1,0,5.24,6.44,6.44,0,0,1-1.31,2.15,6.17,6.17,0,0,1-2.09,1.47A6.65,6.65,0,0,1,187.35,187.53Zm0-2.49a3.58,3.58,0,0,0,1.6-.34,3.44,3.44,0,0,0,1.16-.94,4.15,4.15,0,0,0,.71-1.37,5.68,5.68,0,0,0,.24-1.65,5.5,5.5,0,0,0-.24-1.63,4.2,4.2,0,0,0-.71-1.36,3.35,3.35,0,0,0-2.76-1.28,3.5,3.5,0,0,0-1.58.34,3.75,3.75,0,0,0-1.18.94,4,4,0,0,0-.72,1.36,5.5,5.5,0,0,0-.24,1.63,5.68,5.68,0,0,0,.24,1.65,4,4,0,0,0,.72,1.37,3.61,3.61,0,0,0,1.18.94A3.5,3.5,0,0,0,187.35,185Z"/><path class="cls-3" d="M205.54,187.21V185.5a6.66,6.66,0,0,1-1.86,1.4,5.53,5.53,0,0,1-2.68.63,4.21,4.21,0,0,1-3.13-1.06,4.14,4.14,0,0,1-1-3V174.3h2.81v8.1a2.54,2.54,0,0,0,.7,2.07,3,3,0,0,0,1.91.57,3.66,3.66,0,0,0,1.94-.52,4.47,4.47,0,0,0,1.35-1.16V174.3h2.81v12.91Z"/><path class="cls-3" d="M220.72,187.21v-8.07A2.6,2.6,0,0,0,220,177a3,3,0,0,0-1.91-.57,3.67,3.67,0,0,0-1.94.53,5.28,5.28,0,0,0-1.38,1.18v9H212V174.3h2.8V176a6.38,6.38,0,0,1,.79-.75,6,6,0,0,1,2.33-1.13,5.65,5.65,0,0,1,1.45-.18,3.71,3.71,0,0,1,4.17,4.14v9.09Z"/><path class="cls-3" d="M231.06,187.53a3.31,3.31,0,0,1-2.49-.86,3.42,3.42,0,0,1-.83-2.48v-7.46h-2.13V174.3h2.13v-3.52h2.81v3.52h2.62v2.43h-2.62v6.76a1.84,1.84,0,0,0,.31,1.11,1,1,0,0,0,.92.44,1.76,1.76,0,0,0,.73-.14,1.41,1.41,0,0,0,.5-.34l.66,2.14a3,3,0,0,1-1,.59A4.61,4.61,0,0,1,231.06,187.53Z"/><path class="cls-3" d="M240.11,187.53A8.89,8.89,0,0,1,237,187a6.89,6.89,0,0,1-2.43-1.51l1.28-2a5.16,5.16,0,0,0,.83.67,6.4,6.4,0,0,0,1.07.58,7.26,7.26,0,0,0,1.22.4,5.3,5.3,0,0,0,1.24.14,3.26,3.26,0,0,0,1.92-.46,1.46,1.46,0,0,0,.64-1.25,1,1,0,0,0-.57-1,5.81,5.81,0,0,0-1.44-.53c-.58-.14-1.21-.29-1.89-.43A8.17,8.17,0,0,1,237,181a4.19,4.19,0,0,1-1.44-1.15,3.05,3.05,0,0,1-.58-2,3.44,3.44,0,0,1,.34-1.51,3.59,3.59,0,0,1,1-1.24,4.8,4.8,0,0,1,1.59-.84,7.21,7.21,0,0,1,2.18-.31,7.62,7.62,0,0,1,2.9.51,7.23,7.23,0,0,1,2.1,1.28l-1.18,2a4.86,4.86,0,0,0-1.59-1.1,5.39,5.39,0,0,0-2.23-.45,3,3,0,0,0-1.75.45,1.38,1.38,0,0,0-.63,1.15.92.92,0,0,0,.58.86,6.34,6.34,0,0,0,1.44.49l1.88.43a7.7,7.7,0,0,1,1.89.67,4.08,4.08,0,0,1,1.44,1.2,3.34,3.34,0,0,1,.57,2,3.81,3.81,0,0,1-.34,1.61,3.63,3.63,0,0,1-1,1.28,5,5,0,0,1-1.69.84A7.64,7.64,0,0,1,240.11,187.53Z"/><path class="cls-3" d="M28.91,217.19a9.54,9.54,0,0,1-3.68-.7,8.66,8.66,0,0,1-2.88-1.92,8.56,8.56,0,0,1-1.89-2.91,10.5,10.5,0,0,1,0-7.38,8.56,8.56,0,0,1,1.89-2.91,8.66,8.66,0,0,1,2.88-1.92,10,10,0,0,1,7.35,0,8.51,8.51,0,0,1,2.87,1.92,9,9,0,0,1,1.89,2.91,10.35,10.35,0,0,1,0,7.38,9,9,0,0,1-1.89,2.91,8.51,8.51,0,0,1-2.87,1.92A9.52,9.52,0,0,1,28.91,217.19Zm0-2.78a5.83,5.83,0,0,0,2.43-.5,5.64,5.64,0,0,0,1.87-1.35,6.06,6.06,0,0,0,1.19-2,8.2,8.2,0,0,0,0-5.12,6.11,6.11,0,0,0-1.19-2A5.64,5.64,0,0,0,31.34,202a6.32,6.32,0,0,0-4.88,0,5.71,5.71,0,0,0-1.86,1.35,6.11,6.11,0,0,0-1.19,2,8.2,8.2,0,0,0,0,5.12,6.06,6.06,0,0,0,1.19,2,5.71,5.71,0,0,0,1.86,1.35A5.83,5.83,0,0,0,28.91,214.41Z"/><path class="cls-3" d="M46.81,217.19a6.9,6.9,0,0,1-2.69-.51,6.24,6.24,0,0,1-2.1-1.42,6.54,6.54,0,0,1-1.37-2.15,7.26,7.26,0,0,1-.5-2.71,7.17,7.17,0,0,1,.5-2.7A6.71,6.71,0,0,1,42,205.56a6.36,6.36,0,0,1,2.1-1.41,6.9,6.9,0,0,1,2.69-.51,7,7,0,0,1,1.72.19,5.73,5.73,0,0,1,1.36.5,5.25,5.25,0,0,1,1.06.74,7.17,7.17,0,0,1,.8.87l-1.84,1.68a3.46,3.46,0,0,0-3-1.5,3.62,3.62,0,0,0-2.83,1.19A4.48,4.48,0,0,0,43,210.4a5,5,0,0,0,.28,1.72,4.06,4.06,0,0,0,.8,1.37,3.73,3.73,0,0,0,1.23.89,3.86,3.86,0,0,0,1.59.32,3.44,3.44,0,0,0,3-1.55l1.84,1.74a6.47,6.47,0,0,1-1.87,1.6A6,6,0,0,1,46.81,217.19Z"/><path class="cls-3" d="M58.14,217.19a3.31,3.31,0,0,1-2.49-.86,3.44,3.44,0,0,1-.83-2.48v-7.46H52.69V204h2.13v-3.53h2.81V204h2.62v2.43H57.63v6.76a1.84,1.84,0,0,0,.31,1.11,1,1,0,0,0,.92.44,1.77,1.77,0,0,0,.73-.15,1.28,1.28,0,0,0,.5-.33l.66,2.14a3,3,0,0,1-1,.59A4.61,4.61,0,0,1,58.14,217.19Z"/><path class="cls-3" d="M75.21,217.19a9,9,0,0,1-4.09-.85,7.51,7.51,0,0,1-2.65-2l1.71-2.06a5.83,5.83,0,0,0,2.17,1.59,6.65,6.65,0,0,0,2.75.58,4.4,4.4,0,0,0,2.74-.75,2.37,2.37,0,0,0,1-2,2.06,2.06,0,0,0-1-1.93,5.75,5.75,0,0,0-2.94-.61l-1.19,0c-.42,0-.7,0-.84,0v-2.86h.35l.52,0h1.16a7.49,7.49,0,0,0,1.47-.14,3.88,3.88,0,0,0,1.16-.42,2.39,2.39,0,0,0,.78-.73,2,2,0,0,0,.28-1.05,2.12,2.12,0,0,0-.28-1.08,2.3,2.3,0,0,0-.78-.77,3.84,3.84,0,0,0-1.15-.46,5.66,5.66,0,0,0-1.4-.16,6.23,6.23,0,0,0-4.62,2l-1.61-1.95a8.09,8.09,0,0,1,2.66-2,8.69,8.69,0,0,1,3.86-.79,9.63,9.63,0,0,1,2.62.33,6.2,6.2,0,0,1,2,.95,4.43,4.43,0,0,1,1.31,1.49,4.25,4.25,0,0,1,.47,2,3.64,3.64,0,0,1-.35,1.62,4,4,0,0,1-.9,1.21,4.64,4.64,0,0,1-1.24.83,5.3,5.3,0,0,1-1.36.42,5.49,5.49,0,0,1,1.36.38,4.78,4.78,0,0,1,1.35.83,4.19,4.19,0,0,1,1,1.31,3.88,3.88,0,0,1,.4,1.82,4.61,4.61,0,0,1-1.82,3.74A6.34,6.34,0,0,1,78,216.8,9.31,9.31,0,0,1,75.21,217.19Z"/><path class="cls-3" d="M84,211.6v-2.4H98.21v2.4Z"/><path class="cls-3" d="M109.33,216.87v-4h-8.5v-2.51L108.15,199h4.3v11h2.38v2.78h-2.38v4Zm0-15-5.43,8.2h5.43Z"/><path class="cls-4" d="M.26,599.19c1.29-91.93,67.14-154.26,150-154.26S300.47,514,300.47,599.19"/></g></g></svg>