<svg xmlns="http://www.w3.org/2000/svg" viewBox="0 0 300 600"><g id="Layer_2" data-name="Layer 2"><g id="REC"><rect width="300" height="600" fill="none"/></g><g id="sbhd"><path d="M26.66,187.4a10.71,10.71,0,0,1-4.32-.8,9.33,9.33,0,0,1-3-2.06l1.78-2.46a8.6,8.6,0,0,0,2.36,1.76,7.15,7.15,0,0,0,3.34.75,5.78,5.78,0,0,0,1.66-.21,3.34,3.34,0,0,0,1.1-.57,2.14,2.14,0,0,0,.62-.8,2.08,2.08,0,0,0,.21-.9,1.64,1.64,0,0,0-.77-1.45,7.91,7.91,0,0,0-1.95-.85c-.78-.23-1.62-.46-2.52-.67a13.5,13.5,0,0,1-2.53-.89,5.4,5.4,0,0,1-1.94-1.56,4.16,4.16,0,0,1-.77-2.63,4.74,4.74,0,0,1,.47-2.09,5.1,5.1,0,0,1,1.33-1.67,6.08,6.08,0,0,1,2.06-1.12,8.5,8.5,0,0,1,2.7-.41,10.37,10.37,0,0,1,3.8.66,8.58,8.58,0,0,1,2.92,1.88l-1.78,2.35A6.62,6.62,0,0,0,29,172.08a7.92,7.92,0,0,0-2.8-.5,3.61,3.61,0,0,0-2.2.62,1.92,1.92,0,0,0-.82,1.62,1.45,1.45,0,0,0,.77,1.3,8.31,8.31,0,0,0,1.94.78l2.53.66a12,12,0,0,1,2.52.94,5.82,5.82,0,0,1,1.95,1.62,4.38,4.38,0,0,1,.77,2.69,5.75,5.75,0,0,1-.41,2.15A4.85,4.85,0,0,1,32,185.74,6.09,6.09,0,0,1,29.79,187,9.71,9.71,0,0,1,26.66,187.4Z" fill="#e32d27"/><path d="M45.26,187.08v-8.21a2.54,2.54,0,0,0-.7-2.09,3,3,0,0,0-1.92-.56,3.7,3.7,0,0,0-2,.54A4.75,4.75,0,0,0,39.3,178v9.13H36.46v-18H39.3v6.72a6.44,6.44,0,0,1,.79-.76,6.59,6.59,0,0,1,1.06-.67,5.56,5.56,0,0,1,1.26-.47,5.83,5.83,0,0,1,1.48-.18,4.28,4.28,0,0,1,3.15,1,4.16,4.16,0,0,1,1.06,3.08v9.24Z" fill="#e32d27"/><path d="M57.68,187.4a6.76,6.76,0,0,1-2.8-.55,6.34,6.34,0,0,1-2.11-1.49,6.24,6.24,0,0,1-1.32-2.17,7.83,7.83,0,0,1,0-5.29,6.28,6.28,0,0,1,1.32-2.18,6.16,6.16,0,0,1,2.11-1.47,7.56,7.56,0,0,1,5.61,0,6.25,6.25,0,0,1,2.11,1.47,6.6,6.6,0,0,1,1.32,2.18,7.83,7.83,0,0,1,0,5.29,6.55,6.55,0,0,1-1.32,2.17,6.45,6.45,0,0,1-2.11,1.49A6.81,6.81,0,0,1,57.68,187.4Zm0-2.51a3.64,3.64,0,0,0,1.62-.35,3.54,3.54,0,0,0,1.18-.95,4.15,4.15,0,0,0,.71-1.39,5.7,5.7,0,0,0,.25-1.66,5.57,5.57,0,0,0-.25-1.64,4.1,4.1,0,0,0-.71-1.38,3.54,3.54,0,0,0-1.18-1,3.64,3.64,0,0,0-1.62-.35,3.57,3.57,0,0,0-1.59.35,3.68,3.68,0,0,0-1.19,1,4,4,0,0,0-.73,1.38,5.56,5.56,0,0,0-.24,1.64,5.7,5.7,0,0,0,.24,1.66,4,4,0,0,0,.73,1.39,3.68,3.68,0,0,0,1.19.95A3.57,3.57,0,0,0,57.68,184.89Z" fill="#e32d27"/><path d="M74.29,187.4a4.92,4.92,0,0,1-2.31-.55,5.86,5.86,0,0,1-1.88-1.58V192H67.27V174H70.1v1.78a5.37,5.37,0,0,1,1.81-1.54,5,5,0,0,1,2.38-.57,5.69,5.69,0,0,1,2.32.46,5.1,5.1,0,0,1,1.82,1.34,6,6,0,0,1,1.2,2.14,9.71,9.71,0,0,1,0,5.78,6.07,6.07,0,0,1-1.2,2.15,5.38,5.38,0,0,1-1.82,1.35A5.69,5.69,0,0,1,74.29,187.4Zm-.84-2.51a3.33,3.33,0,0,0,2.7-1.22,5.38,5.38,0,0,0,0-6.25,3.34,3.34,0,0,0-2.7-1.2,4.05,4.05,0,0,0-1.93.5A3.93,3.93,0,0,0,70.1,178v5.16a3.6,3.6,0,0,0,.61.7,4.17,4.17,0,0,0,1.76.94A3.74,3.74,0,0,0,73.45,184.89Z" fill="#e32d27"/><path d="M89.87,187.08v-18H92.7v6.77a5.17,5.17,0,0,1,4.19-2.13,5.77,5.77,0,0,1,2.33.47,5.25,5.25,0,0,1,1.84,1.37,6.44,6.44,0,0,1,1.2,2.16,8.67,8.67,0,0,1,.43,2.83,8.87,8.87,0,0,1-.43,2.89,6.15,6.15,0,0,1-1.22,2.16,4.92,4.92,0,0,1-1.85,1.35,5.69,5.69,0,0,1-2.3.46,5,5,0,0,1-2.35-.57,5.56,5.56,0,0,1-1.84-1.54v1.79Zm2.83-3.92a3.84,3.84,0,0,0,1.42,1.23,4.11,4.11,0,0,0,2,.5,3.26,3.26,0,0,0,2.68-1.22,4.79,4.79,0,0,0,1-3.13,5.67,5.67,0,0,0-.26-1.74,3.87,3.87,0,0,0-.74-1.36,3.37,3.37,0,0,0-1.16-.89,3.41,3.41,0,0,0-1.51-.33A4.3,4.3,0,0,0,92.7,178Z" fill="#e32d27"/><path d="M107,172.44a1.75,1.75,0,0,1-1.24-3,1.67,1.67,0,0,1,1.24-.52,1.76,1.76,0,0,1,1.25,3A1.72,1.72,0,0,1,107,172.44Zm-1.43,14.64V174h2.84v13Z" fill="#e32d27"/><path d="M117.38,192.37a9.59,9.59,0,0,1-3-.42,6.86,6.86,0,0,1-2.51-1.53l1.32-2a4.51,4.51,0,0,0,1.84,1.3,6.72,6.72,0,0,0,2.32.38,5.47,5.47,0,0,0,1.39-.18,3.35,3.35,0,0,0,1.24-.61,3,3,0,0,0,.89-1.12,3.88,3.88,0,0,0,.34-1.74v-1.48a5.89,5.89,0,0,1-1.82,1.59,4.73,4.73,0,0,1-2.36.59,6.05,6.05,0,0,1-2.31-.44,5.1,5.1,0,0,1-1.84-1.3,6.1,6.1,0,0,1-1.2-2.09,9.66,9.66,0,0,1,0-5.7,6.15,6.15,0,0,1,1.2-2.1,4.9,4.9,0,0,1,1.82-1.31,5.9,5.9,0,0,1,2.33-.45,5.14,5.14,0,0,1,2.32.54,5.21,5.21,0,0,1,1.86,1.59V174h2.84V186.4a6.35,6.35,0,0,1-.6,2.92,5,5,0,0,1-1.55,1.83,6,6,0,0,1-2.16.95A10.88,10.88,0,0,1,117.38,192.37Zm.51-7.81a4,4,0,0,0,1.93-.51,4,4,0,0,0,1.42-1.21V178a4,4,0,0,0-1.42-1.21,3.86,3.86,0,0,0-1.93-.52,3.39,3.39,0,0,0-2.7,1.15,4.49,4.49,0,0,0-1,3,4.42,4.42,0,0,0,1,3A3.41,3.41,0,0,0,117.89,184.56Z" fill="#e32d27"/><path d="M143.89,187.08v-1.79a5.49,5.49,0,0,1-1.82,1.54,4.93,4.93,0,0,1-2.36.57,5.71,5.71,0,0,1-2.31-.46,5,5,0,0,1-1.84-1.35,6.44,6.44,0,0,1-1.2-2.16,8.87,8.87,0,0,1-.43-2.89,8.67,8.67,0,0,1,.43-2.83,6.44,6.44,0,0,1,1.2-2.16,5.22,5.22,0,0,1,1.83-1.37,5.66,5.66,0,0,1,2.32-.47,5.11,5.11,0,0,1,2.32.54,5.21,5.21,0,0,1,1.86,1.59v-6.77h2.84v18Zm-3.35-2.19a3.76,3.76,0,0,0,1-.14,4.57,4.57,0,0,0,.95-.37,5.82,5.82,0,0,0,.81-.56,2.81,2.81,0,0,0,.6-.69V178a3.75,3.75,0,0,0-.6-.68,5.07,5.07,0,0,0-.81-.56,4.1,4.1,0,0,0-.95-.38,3.76,3.76,0,0,0-1-.14,3.44,3.44,0,0,0-1.53.33,3.5,3.5,0,0,0-1.17.89,3.87,3.87,0,0,0-.74,1.36,6.18,6.18,0,0,0,0,3.48,4.16,4.16,0,0,0,.74,1.38,3.46,3.46,0,0,0,2.7,1.23Z" fill="#e32d27"/><path d="M151.83,172.44a1.75,1.75,0,0,1-1.24-3,1.74,1.74,0,0,1,2.48,0,1.75,1.75,0,0,1-1.24,3Zm-1.43,14.64V174h2.83v13Z" fill="#e32d27"/><path d="M161.39,187.4a9,9,0,0,1-3.13-.53,6.86,6.86,0,0,1-2.46-1.52l1.3-2a5.3,5.3,0,0,0,.83.68,7.88,7.88,0,0,0,1.08.58,7.68,7.68,0,0,0,1.23.4,5.42,5.42,0,0,0,1.26.15,3.32,3.32,0,0,0,1.94-.47,1.49,1.49,0,0,0,.65-1.26,1.06,1.06,0,0,0-.58-1,6.6,6.6,0,0,0-1.46-.54c-.59-.14-1.22-.29-1.9-.43a7.82,7.82,0,0,1-1.91-.65,4.14,4.14,0,0,1-1.45-1.16,3.1,3.1,0,0,1-.59-2,3.56,3.56,0,0,1,.34-1.52,3.74,3.74,0,0,1,1-1.26,4.87,4.87,0,0,1,1.6-.85,7.09,7.09,0,0,1,2.2-.31,7.71,7.71,0,0,1,2.93.51,7.25,7.25,0,0,1,2.12,1.3l-1.18,2a5.09,5.09,0,0,0-1.61-1.11,5.53,5.53,0,0,0-2.26-.46,3,3,0,0,0-1.76.46,1.37,1.37,0,0,0-.64,1.16.94.94,0,0,0,.58.87,7.05,7.05,0,0,0,1.46.5l1.9.43a8.29,8.29,0,0,1,1.91.67,4.21,4.21,0,0,1,1.46,1.22,3.38,3.38,0,0,1,.58,2.06,3.69,3.69,0,0,1-.36,1.62,3.43,3.43,0,0,1-1,1.3,5.11,5.11,0,0,1-1.7.85A7.83,7.83,0,0,1,161.39,187.4Z" fill="#e32d27"/><path d="M175.59,187.4a7,7,0,0,1-2.71-.51,6.25,6.25,0,0,1-2.12-1.43,6.5,6.5,0,0,1-1.39-2.18,7.73,7.73,0,0,1,0-5.47,6.48,6.48,0,0,1,1.39-2.15,6.27,6.27,0,0,1,2.12-1.44,7,7,0,0,1,2.71-.51,7.08,7.08,0,0,1,1.74.19,6.59,6.59,0,0,1,1.38.51,5.66,5.66,0,0,1,1.07.75,7.17,7.17,0,0,1,.8.87l-1.86,1.7a3.49,3.49,0,0,0-3-1.51,3.68,3.68,0,0,0-2.87,1.2,4.49,4.49,0,0,0-1.08,3.12,5.12,5.12,0,0,0,.29,1.74,4.12,4.12,0,0,0,.81,1.38,3.57,3.57,0,0,0,1.24.9,3.8,3.8,0,0,0,1.61.33,3.46,3.46,0,0,0,3-1.57l1.86,1.76a6.43,6.43,0,0,1-1.88,1.62A6.07,6.07,0,0,1,175.59,187.4Z" fill="#e32d27"/><path d="M189,187.4a6.81,6.81,0,0,1-2.81-.55,6.45,6.45,0,0,1-2.11-1.49,6.55,6.55,0,0,1-1.32-2.17,7.83,7.83,0,0,1,0-5.29,6.6,6.6,0,0,1,1.32-2.18,6.25,6.25,0,0,1,2.11-1.47,7.58,7.58,0,0,1,5.62,0,6.21,6.21,0,0,1,2.1,1.47,6.46,6.46,0,0,1,1.33,2.18,7.83,7.83,0,0,1,0,5.29,6.38,6.38,0,0,1-3.43,3.66A6.84,6.84,0,0,1,189,187.4Zm0-2.51a3.64,3.64,0,0,0,1.62-.35,3.41,3.41,0,0,0,1.17-.95,4,4,0,0,0,.72-1.39,5.7,5.7,0,0,0,.24-1.66,5.56,5.56,0,0,0-.24-1.64,4,4,0,0,0-.72-1.38,3.41,3.41,0,0,0-1.17-1,3.64,3.64,0,0,0-1.62-.35,3.48,3.48,0,0,0-2.78,1.3,3.8,3.8,0,0,0-.73,1.38,5.56,5.56,0,0,0-.24,1.64,5.7,5.7,0,0,0,.24,1.66,3.85,3.85,0,0,0,.73,1.39,3.48,3.48,0,0,0,2.78,1.3Z" fill="#e32d27"/><path d="M207.4,187.08v-1.73a7.18,7.18,0,0,1-1.88,1.42,5.65,5.65,0,0,1-2.71.63,4.25,4.25,0,0,1-3.16-1.07,4.14,4.14,0,0,1-1.06-3.06V174h2.84v8.18a2.6,2.6,0,0,0,.71,2.09,3,3,0,0,0,1.93.58,3.74,3.74,0,0,0,2-.53,4.74,4.74,0,0,0,1.37-1.17V174h2.83v13Z" fill="#e32d27"/><path d="M222.73,187.08v-8.16a2.65,2.65,0,0,0-.71-2.12,3,3,0,0,0-1.94-.58,3.65,3.65,0,0,0-2,.54,5.2,5.2,0,0,0-1.39,1.19v9.13H213.9V174h2.84v1.75a6.44,6.44,0,0,1,.79-.76,6.27,6.27,0,0,1,1.07-.67,5.91,5.91,0,0,1,1.28-.47,5.8,5.8,0,0,1,1.47-.18,4.22,4.22,0,0,1,3.16,1.08,4.29,4.29,0,0,1,1.06,3.11v9.18Z" fill="#e32d27"/><path d="M233.18,187.4a3.36,3.36,0,0,1-2.51-.86,3.48,3.48,0,0,1-.84-2.51v-7.54h-2.16V174h2.16v-3.57h2.84V174h2.64v2.45h-2.64v6.83a1.88,1.88,0,0,0,.31,1.12,1.05,1.05,0,0,0,.93.45,1.78,1.78,0,0,0,.74-.15,1.32,1.32,0,0,0,.5-.34l.68,2.16a3.08,3.08,0,0,1-1,.6A4.69,4.69,0,0,1,233.18,187.4Z" fill="#e32d27"/><path d="M242.33,187.4a9,9,0,0,1-3.13-.53,7,7,0,0,1-2.46-1.52l1.3-2a5,5,0,0,0,.84.68,6.86,6.86,0,0,0,1.08.58,7.08,7.08,0,0,0,1.23.4,5.4,5.4,0,0,0,1.25.15,3.32,3.32,0,0,0,1.94-.47,1.47,1.47,0,0,0,.65-1.26,1,1,0,0,0-.58-1,6.24,6.24,0,0,0-1.46-.54c-.58-.14-1.22-.29-1.9-.43a7.74,7.74,0,0,1-1.9-.65,4.18,4.18,0,0,1-1.46-1.16,3.09,3.09,0,0,1-.58-2,3.42,3.42,0,0,1,.34-1.52,3.59,3.59,0,0,1,1-1.26,4.82,4.82,0,0,1,1.61-.85,7,7,0,0,1,2.2-.31,7.78,7.78,0,0,1,2.93.51,7.52,7.52,0,0,1,2.12,1.3l-1.19,2a5,5,0,0,0-1.61-1.11,5.45,5.45,0,0,0-2.25-.46,3,3,0,0,0-1.77.46,1.39,1.39,0,0,0-.63,1.16.94.94,0,0,0,.58.87,6.94,6.94,0,0,0,1.45.5l1.91.43a8.21,8.21,0,0,1,1.9.67,4.12,4.12,0,0,1,1.46,1.22,3.31,3.31,0,0,1,.58,2.06,3.83,3.83,0,0,1-.35,1.62,3.53,3.53,0,0,1-1,1.3,5.31,5.31,0,0,1-1.7.85A7.94,7.94,0,0,1,242.33,187.4Z" fill="#e32d27"/><path d="M33,216.08,23.64,203.2v12.88H20.48v-18h3.24l9.2,12.47V198.07h3.16v18Z" fill="#e32d27"/><path d="M45.75,216.4a6.84,6.84,0,0,1-2.81-.55,6.45,6.45,0,0,1-2.11-1.49,6.55,6.55,0,0,1-1.32-2.17,7.83,7.83,0,0,1,0-5.29,6.6,6.6,0,0,1,1.32-2.18,6.25,6.25,0,0,1,2.11-1.47,7.58,7.58,0,0,1,5.62,0,6.21,6.21,0,0,1,2.1,1.47A6.46,6.46,0,0,1,52,206.9a8,8,0,0,1,0,5.29,6.38,6.38,0,0,1-3.43,3.66A6.84,6.84,0,0,1,45.75,216.4Zm0-2.51a3.64,3.64,0,0,0,1.62-.35,3.41,3.41,0,0,0,1.17-.95,4,4,0,0,0,.72-1.39,5.7,5.7,0,0,0,.24-1.66,5.56,5.56,0,0,0-.24-1.64,4,4,0,0,0-.72-1.38,3.41,3.41,0,0,0-1.17-1,3.64,3.64,0,0,0-1.62-.35,3.51,3.51,0,0,0-1.59.35,3.58,3.58,0,0,0-1.19,1,3.8,3.8,0,0,0-.73,1.38,5.56,5.56,0,0,0-.24,1.64,5.7,5.7,0,0,0,.24,1.66,3.85,3.85,0,0,0,.73,1.39,3.58,3.58,0,0,0,1.19.95A3.51,3.51,0,0,0,45.75,213.89Z" fill="#e32d27"/><path d="M58.76,216.08l-5.32-13h3.05l3.81,9.77L64.11,203h3l-5.32,13Z" fill="#e32d27"/><path d="M77.31,216.08l6.8-15.2H74.77v-2.81h13v2.18l-7,15.83Z" fill="#e32d27"/><path d="M89.22,210.76v-2.43H95.7v2.43Z" fill="#e32d27"/><path d="M104.55,216.4a10.83,10.83,0,0,1-2.63-.32,7.38,7.38,0,0,1-2.21-1,4.69,4.69,0,0,1-1.52-1.55,4.22,4.22,0,0,1-.55-2.15,3.86,3.86,0,0,1,.33-1.58,4.45,4.45,0,0,1,.87-1.32,6.09,6.09,0,0,1,1.3-1,8,8,0,0,1,1.55-.71,8.34,8.34,0,0,1-1.44-.62,5,5,0,0,1-1.2-.91,3.78,3.78,0,0,1-1.11-2.74,3.83,3.83,0,0,1,.58-2.14A4.58,4.58,0,0,1,100,198.9a7.51,7.51,0,0,1,2.14-.83,10.58,10.58,0,0,1,4.75,0,7.45,7.45,0,0,1,2.13.83,4.61,4.61,0,0,1,1.53,1.48,3.91,3.91,0,0,1,.58,2.14,3.74,3.74,0,0,1-.3,1.54,4.09,4.09,0,0,1-.81,1.2,5,5,0,0,1-1.2.91,8.34,8.34,0,0,1-1.44.62,8.33,8.33,0,0,1,1.55.71,6.28,6.28,0,0,1,1.29,1,4.48,4.48,0,0,1,.88,1.32,3.86,3.86,0,0,1,.33,1.58,4,4,0,0,1-.57,2.15,4.85,4.85,0,0,1-1.51,1.55,7.32,7.32,0,0,1-2.2,1A10.85,10.85,0,0,1,104.55,216.4Zm0-2.81a5.82,5.82,0,0,0,1.42-.17,4.07,4.07,0,0,0,1.18-.52,2.61,2.61,0,0,0,.81-.81,2,2,0,0,0,.29-1.06,1.79,1.79,0,0,0-.42-1.2,3.63,3.63,0,0,0-1-.85,4.8,4.8,0,0,0-1.23-.54,7.18,7.18,0,0,0-1-.25,7.06,7.06,0,0,0-1.06.25,4.74,4.74,0,0,0-1.22.54,3.73,3.73,0,0,0-1,.85,1.79,1.79,0,0,0-.42,1.2,2,2,0,0,0,.29,1.06,2.44,2.44,0,0,0,.79.81,4.07,4.07,0,0,0,1.18.52A5.92,5.92,0,0,0,104.55,213.59Zm0-8.07c.27-.05.61-.14,1-.24a4.8,4.8,0,0,0,1.12-.46,3.32,3.32,0,0,0,.91-.75A1.58,1.58,0,0,0,108,203a2,2,0,0,0-1-1.78,4.34,4.34,0,0,0-2.43-.63,4.39,4.39,0,0,0-2.43.63,2,2,0,0,0-1,1.78,1.58,1.58,0,0,0,.38,1.06,3.22,3.22,0,0,0,.92.75,5.18,5.18,0,0,0,1.12.46C104,205.38,104.28,205.47,104.55,205.52Z" fill="#e32d27"/></g></g></svg>