<svg xmlns="http://www.w3.org/2000/svg" viewBox="0 0 301.08 600"><title>END 300X600</title><g id="Layer_2" data-name="Layer 2"><g id="content"><rect width="300" height="600"/><rect width="300" height="599.75" fill="none"/><path d="M5.17,599.52c12.77-74.12,74.68-122.21,146-122.21,70.65,0,129.76,52.25,144.68,122.21" fill="#ec6c68"/><path d="M37.85,599.52C49.21,545,95.7,509.9,149.05,509.9c52.78,0,97.16,38,110,89.62" fill="#e32d27"/><path d="M147.84,312.46c0,2.1,0,4,0,6.14,1.24.06,2.64.31,3.88.42,0,5.11-.13,9-.13,14.09,3.44.42,5.88.81,6.83,1,0-5.11.2-9.14.2-14.25,0,0,3.65.57,3.71.62q0-3.15,0-6.3a111.74,111.74,0,0,0-14.49-1.7Z" fill="#fff"/><path d="M34.11,305.06c21.77-6.65,32.77,10,32.77,10s-6.91-23.27-32.77-10Z" fill="#fff"/><path d="M76.2,305.92c0-.09,0-.69,0-.79a16.25,16.25,0,0,0-8.59,12.49s3-6.89,9.93-9a4.2,4.2,0,0,1-1.34-2.73Z" fill="#fff"/><path d="M48.43,315.64s-.06,3.29,0,4.95c-.84,0-4.45-.23-6-.29,0,.89-.05,1.8-.05,2.69,1.91,0,3.88.26,5.78.24,0,1.6,0,3,0,4.57-1.9,0-3.81-.15-5.71-.19,0,1,0,1.94,0,2.9,2,.05,4.1.22,6.15.19,0-.07,0,4.86,0,4.86-4,0-8.85-.32-13.4-.7l.32-20.23c1.92.22,7.86.85,13,1Z" fill="#fff"/><path d="M50.15,315.68,50.08,321c1.91.1,3.62.11,3.62.11l0,14.66a47.09,47.09,0,0,0,7.31-.1l-.09-14.52s3.24-.15,3.74-.19c0-1.94,0-3.46-.07-5.4a128.35,128.35,0,0,1-14.42.16Z" fill="#fff"/><path d="M24.88,322.33l-.64-.07,0-4.16.61.07A2.11,2.11,0,0,1,27,320.39c0,1.72-1.08,2.05-2.12,1.94Zm1.6-9.78L17.81,311l0,21.23c2.22.44,4.25.8,6.41,1l0-6.13c.77.09,1.58.19,2.35.26,3.75.35,7.54-1.07,7.59-7.22.05-5.44-3.58-7-7.6-7.6Z" fill="#fff"/><path d="M98.8,332.26c1-2.53,1.94-4.89,2.91-7.42.15,2.42.25,4.61.4,7,2.42-.27,4.37-.41,6.8-.56-.63-6.44-1.17-13.36-1.8-19.8l-6.24.57c-1.17,3-2.34,6.74-3.51,9.78-1.12-2.82-2.25-6.12-3.38-8.94-2.1.3-5.86,1-6.24,1-.72,6.57-1.54,13.87-2.27,20.44,1.66-.29,5.72-.93,6.94-1.1.18-2.45.37-5.07.56-7.52l2.81,7c.52-.07,2.39-.37,3-.47Z" fill="#fff"/><path d="M137.26,321.15l-.64,0c0-1.36,0-2.73,0-4.1l.62,0a2,2,0,0,1,2.11,2.16,1.77,1.77,0,0,1-2.14,1.95Zm6,4.36c1.85-.83,3.19-2.63,3.23-6.18.08-5.37-3.72-7.66-7.56-7.95q-4.35-.35-8.72-.46c-.09,6.81-.12,13.05-.22,19.87,2.18.06,4.56.23,6.46.39,0-1.92.05-3.35.08-5.27,1.24,2,2.26,3.66,3.5,5.69,2.67.24,5.41.59,8.08,1-1.67-2.5-3.18-4.63-4.85-7.07Z" fill="#fff"/><path d="M117.9,324.19c.45-1.69.91-3.48,1.36-5.16q.76,2.54,1.55,5.09c-3,.11-3,.07-2.91.07Zm4.74-13.42c-2.58,0-4.69.05-6.9.14-1.78,6.61-3.87,13.68-5.65,20.32,2,0,4-.17,6-.17.18-.7.38-1.51.57-2.21l3-.07c-.06,0,2.66-.09,2.66-.09.08.26.32,1,.67,2.11,2,.05,4-.05,5.93.05-2.14-7-4.3-13.73-6.25-20.08Z" fill="#fff"/><path d="M66.89,333.85a17.85,17.85,0,0,0,8,2c4.53,0,9.28-2.71,9.38-7.79.07-3.62-2.23-5.33-5.44-6.05l-1.71-.39c-.59-.14-1.53-.25-1.51-1.05s1-1.12,1.66-1.13a12.33,12.33,0,0,1,4.63,1q1-2.55,1.93-5.1a15.11,15.11,0,0,0-6.61-1.58c-4.56,0-9.15,2.76-9.25,7.82-.07,3.33,2.4,5.16,5.36,5.7l1.53.29c.69.14,1.69.23,1.67,1.19s-1.2,1.07-2,1.07a9,9,0,0,1-5.21-1.72c-.79,1.77-1.72,4-2.5,5.74Z" fill="#fff"/><path d="M83.3,299.27a5.11,5.11,0,1,0,5,5.18A5.12,5.12,0,0,0,83.3,299.27Zm1.85,1.89a6.09,6.09,0,0,0-5.48,3.2s0,.06,0,.08a3.58,3.58,0,0,1,.13-1.41A3.48,3.48,0,0,1,84,300.54a3.25,3.25,0,0,1,1.2.65Z" fill="#fff"/><path d="M21.86,24.73H36.6a9.1,9.1,0,0,1,4.39,1,6.78,6.78,0,0,1,2.75,2.6,7.09,7.09,0,0,1,.92,3.55,6.6,6.6,0,0,1-1.38,4.28,5.85,5.85,0,0,1-3.45,2.15,5.8,5.8,0,0,1,3.82,2.31,7.15,7.15,0,0,1,1.56,4.57,7.37,7.37,0,0,1-2.14,5.42,8.12,8.12,0,0,1-6,2.14H21.86ZM35.3,36a3.3,3.3,0,0,0,2.39-.86,3,3,0,0,0,.88-2.25,3,3,0,0,0-.9-2.19,3.27,3.27,0,0,0-2.37-.88H27.82V36Zm.21,11.67a3.71,3.71,0,0,0,2.64-.9,3.39,3.39,0,0,0,0-4.75,3.6,3.6,0,0,0-2.64-.94H27.82v6.59Z" fill="#fff"/><path d="M51,51.88a5.54,5.54,0,0,1-1.44-4.14v-23h5.33V46.31a2.51,2.51,0,0,0,.5,1.6,1.65,1.65,0,0,0,1.35.63,3.5,3.5,0,0,0,1.09-.16,1.57,1.57,0,0,0,.71-.42l1.14,4a6.47,6.47,0,0,1-4.41,1.3A5.9,5.9,0,0,1,51,51.88Z" fill="#fff"/><path d="M76,50.14a8.19,8.19,0,0,1-2.8,2.33,7.5,7.5,0,0,1-3.46.82A8.66,8.66,0,0,1,65.16,52a8.49,8.49,0,0,1-3.22-3.66,13.1,13.1,0,0,1-1.15-5.73A13,13,0,0,1,61.94,37a8.8,8.8,0,0,1,3.2-3.72A8.39,8.39,0,0,1,69.78,32a7.78,7.78,0,0,1,3.44.8A8,8,0,0,1,76,35.06v-2.6h5.37V52.74H76Zm0-11.08a5,5,0,0,0-2-1.66,5.8,5.8,0,0,0-2.64-.66,4.67,4.67,0,0,0-3.7,1.63,6.23,6.23,0,0,0-1.43,4.27,6.27,6.27,0,0,0,1.43,4.26,4.65,4.65,0,0,0,3.7,1.64,5.78,5.78,0,0,0,2.64-.65,5,5,0,0,0,2-1.66Z" fill="#fff"/><path d="M86.79,37.11a9.87,9.87,0,0,1,3.82-3.79A11.13,11.13,0,0,1,96.15,32,10.65,10.65,0,0,1,101,33a8.53,8.53,0,0,1,3.16,2.63l-3.49,3.27a4.85,4.85,0,0,0-4.28-2.18,5.21,5.21,0,0,0-4,1.62A6,6,0,0,0,90.9,42.6a6,6,0,0,0,1.54,4.3A5.6,5.6,0,0,0,98.84,48a5.21,5.21,0,0,0,1.85-1.62l3.49,3.23a8.73,8.73,0,0,1-3.13,2.65,10.44,10.44,0,0,1-4.9,1,11.13,11.13,0,0,1-5.54-1.37,9.84,9.84,0,0,1-3.82-3.78A10.91,10.91,0,0,1,85.4,42.6,10.77,10.77,0,0,1,86.79,37.11Z" fill="#fff"/><path d="M115.43,44.93,113,47.54v5.2h-5.33v-28H113V41.49l7.69-9h6.55l-8,9.2,8.27,11.08h-6.67Z" fill="#fff"/><path d="M141,24.73h19.82v5.12H147v6.09h13.57v5.13H147V52.74h-6Z" fill="#fff"/><path d="M164.87,32.46h5.33v2.77a9.07,9.07,0,0,1,2.85-2.33,7.59,7.59,0,0,1,3.62-.95v5.21a6.38,6.38,0,0,0-4.33.51,4.74,4.74,0,0,0-2.14,1.64V52.74h-5.33Z" fill="#fff"/><path d="M180.38,28.53a3.19,3.19,0,1,1,5.44-2.25,3.13,3.13,0,0,1-.92,2.25,3.16,3.16,0,0,1-4.52,0Zm-.4,3.93h5.34V52.74H180Z" fill="#fff"/><path d="M204.55,50.14a8.07,8.07,0,0,1-2.79,2.33,7.5,7.5,0,0,1-3.46.82A8.66,8.66,0,0,1,193.68,52a8.43,8.43,0,0,1-3.22-3.66,13.1,13.1,0,0,1-1.15-5.73A13,13,0,0,1,190.46,37a8.8,8.8,0,0,1,3.2-3.72A8.39,8.39,0,0,1,198.3,32a7.78,7.78,0,0,1,3.44.8,7.88,7.88,0,0,1,2.81,2.31V24.73h5.38v28h-5.38Zm0-11.12a4.9,4.9,0,0,0-2-1.67,5.92,5.92,0,0,0-2.65-.65,4.67,4.67,0,0,0-3.69,1.64,6.34,6.34,0,0,0-1.43,4.3,6.27,6.27,0,0,0,1.43,4.26,4.64,4.64,0,0,0,3.69,1.64,5.79,5.79,0,0,0,2.65-.65,4.88,4.88,0,0,0,2-1.66Z" fill="#fff"/><path d="M229.17,50.14a8.19,8.19,0,0,1-2.8,2.33,7.5,7.5,0,0,1-3.46.82A8.66,8.66,0,0,1,218.29,52a8.41,8.41,0,0,1-3.21-3.66,13,13,0,0,1-1.16-5.73A12.89,12.89,0,0,1,215.08,37a8.71,8.71,0,0,1,3.19-3.72A8.39,8.39,0,0,1,222.91,32a7.78,7.78,0,0,1,3.44.8,8,8,0,0,1,2.82,2.31v-2.6h5.37V52.74h-5.37Zm0-11.08a5,5,0,0,0-2-1.66,5.8,5.8,0,0,0-2.64-.66,4.67,4.67,0,0,0-3.7,1.63,6.23,6.23,0,0,0-1.43,4.27,6.27,6.27,0,0,0,1.43,4.26,4.65,4.65,0,0,0,3.7,1.64,5.78,5.78,0,0,0,2.64-.65,5,5,0,0,0,2-1.66Z" fill="#fff"/><path d="M242,54.09A6.42,6.42,0,0,0,244.66,56a9.46,9.46,0,0,0,3.41.63,5.64,5.64,0,0,0,4-1.35,5,5,0,0,0,1.43-3.86V49.3a9.53,9.53,0,0,1-3,2.18,9.32,9.32,0,0,1-4.13.89,6.57,6.57,0,0,1-4.92-1.68A6.47,6.47,0,0,1,239.83,46V32.46h5.34V43.88a3.7,3.7,0,0,0,1,2.88,4.08,4.08,0,0,0,2.78.86,5.34,5.34,0,0,0,2.64-.67,6.44,6.44,0,0,0,2-1.64V32.46h5.33V51.15a9.14,9.14,0,0,1-2.92,7.24A11.4,11.4,0,0,1,248.07,61a12.41,12.41,0,0,1-8.49-3Z" fill="#fff"/><path d="M35.67,96.14a8.07,8.07,0,0,1-2.79,2.33,7.5,7.5,0,0,1-3.46.82A8.66,8.66,0,0,1,24.8,98a8.43,8.43,0,0,1-3.22-3.66,14.68,14.68,0,0,1,0-11.39,8.85,8.85,0,0,1,3.19-3.72A8.45,8.45,0,0,1,29.42,78a7.78,7.78,0,0,1,3.44.8,7.88,7.88,0,0,1,2.81,2.31V70.73h5.38v28H35.67Zm0-11.12a4.9,4.9,0,0,0-2-1.67,5.92,5.92,0,0,0-2.65-.65,4.67,4.67,0,0,0-3.69,1.64,6.34,6.34,0,0,0-1.43,4.3,6.27,6.27,0,0,0,1.43,4.26,4.64,4.64,0,0,0,3.69,1.64,5.79,5.79,0,0,0,2.65-.65,4.88,4.88,0,0,0,2-1.66Z" fill="#fff"/><path d="M46.38,83.24a10.17,10.17,0,0,1,3.74-3.85A10.31,10.31,0,0,1,55.54,78a9.94,9.94,0,0,1,5.29,1.41,9.54,9.54,0,0,1,3.59,4,12.66,12.66,0,0,1,1.28,5.82V90.3H50.63a5.17,5.17,0,0,0,1.8,3.39,5.89,5.89,0,0,0,4,1.36,8.41,8.41,0,0,0,3-.55A6.77,6.77,0,0,0,61.88,93l2.35,3.45a10.16,10.16,0,0,1-3.69,2.08,14.8,14.8,0,0,1-4.66.73A11.5,11.5,0,0,1,50.33,98a9.63,9.63,0,0,1-3.88-3.74,11.65,11.65,0,0,1-.07-11Zm5.63.32a5.47,5.47,0,0,0-1.47,3.13h10a5.17,5.17,0,0,0-1.37-3.11,4.61,4.61,0,0,0-3.63-1.38A4.57,4.57,0,0,0,52,83.56Z" fill="#fff"/><path d="M83.51,96.14a8.07,8.07,0,0,1-2.79,2.33,7.51,7.51,0,0,1-3.47.82A8.69,8.69,0,0,1,72.63,98a8.47,8.47,0,0,1-3.21-3.66,14.68,14.68,0,0,1,0-11.39,8.78,8.78,0,0,1,3.19-3.72A8.44,8.44,0,0,1,77.25,78a7.8,7.8,0,0,1,3.45.8,7.88,7.88,0,0,1,2.81,2.31v-2.6h5.38V98.74H83.51Zm0-11.08a5,5,0,0,0-2-1.66,5.8,5.8,0,0,0-2.65-.66,4.66,4.66,0,0,0-3.69,1.63,7.08,7.08,0,0,0,0,8.53,4.64,4.64,0,0,0,3.69,1.64,5.79,5.79,0,0,0,2.65-.65,5,5,0,0,0,2-1.66Z" fill="#fff"/><path d="M95.63,97.88a5.51,5.51,0,0,1-1.45-4.14v-23h5.33V92.31a2.45,2.45,0,0,0,.51,1.6,1.62,1.62,0,0,0,1.34.63,3.46,3.46,0,0,0,1.09-.16,1.61,1.61,0,0,0,.72-.42l1.13,4a6.47,6.47,0,0,1-4.41,1.3A5.87,5.87,0,0,1,95.63,97.88Z" fill="#fff"/><path d="M107.24,92.4a10.66,10.66,0,0,0,3.19,1.93,9.8,9.8,0,0,0,3.82.84,4.78,4.78,0,0,0,2.55-.55,1.71,1.71,0,0,0,.86-1.52,1.62,1.62,0,0,0-1-1.49,12.92,12.92,0,0,0-3.07-.93,29.37,29.37,0,0,1-4-1,6.61,6.61,0,0,1-2.77-1.82,5,5,0,0,1-1.18-3.51,5.59,5.59,0,0,1,1-3.19,6.69,6.69,0,0,1,2.88-2.33,10.55,10.55,0,0,1,4.45-.87,12.79,12.79,0,0,1,8.19,2.78L120,84.38a7.64,7.64,0,0,0-2.59-1.68A8.76,8.76,0,0,0,114,82a4.66,4.66,0,0,0-2.33.5,1.56,1.56,0,0,0-.86,1.39,1.4,1.4,0,0,0,.94,1.32,14.29,14.29,0,0,0,2.92.86,26.72,26.72,0,0,1,4.08,1.06,7,7,0,0,1,2.85,1.93,5.28,5.28,0,0,1,1.22,3.67,5.75,5.75,0,0,1-1,3.35,6.65,6.65,0,0,1-3,2.34,12.15,12.15,0,0,1-4.73.84,15.31,15.31,0,0,1-5.06-.84,11.28,11.28,0,0,1-4-2.31Z" fill="#fff"/><path d="M138,92.4a10.53,10.53,0,0,0,3.19,1.93,9.76,9.76,0,0,0,3.82.84,4.72,4.72,0,0,0,2.54-.55,1.69,1.69,0,0,0,.86-1.52,1.6,1.6,0,0,0-1-1.49,12.81,12.81,0,0,0-3.06-.93,29,29,0,0,1-4-1,6.64,6.64,0,0,1-2.78-1.82,5,5,0,0,1-1.17-3.51,5.59,5.59,0,0,1,1-3.19,6.6,6.6,0,0,1,2.87-2.33A10.58,10.58,0,0,1,144.7,78a12.75,12.75,0,0,1,8.19,2.78l-2.14,3.65a7.5,7.5,0,0,0-2.58-1.68,8.8,8.8,0,0,0-3.42-.67,4.66,4.66,0,0,0-2.33.5,1.55,1.55,0,0,0-.87,1.39,1.41,1.41,0,0,0,.95,1.32,14.09,14.09,0,0,0,2.92.86,26.56,26.56,0,0,1,4.07,1.06,7.05,7.05,0,0,1,2.86,1.93,5.28,5.28,0,0,1,1.22,3.67,5.82,5.82,0,0,1-1,3.35,6.73,6.73,0,0,1-3,2.34,12.1,12.1,0,0,1-4.72.84,15.26,15.26,0,0,1-5.06-.84,11.28,11.28,0,0,1-4-2.31Z" fill="#fff"/><path d="M160,97.86a5.5,5.5,0,0,1-1.47-4.13V83.12H155.2V78.46h3.36V72.91h5.38v5.55h4.12v4.66h-4.12v9.19a2.51,2.51,0,0,0,.5,1.6,1.65,1.65,0,0,0,1.35.63,3.5,3.5,0,0,0,1.09-.16,2,2,0,0,0,.76-.42l1.13,4a6.53,6.53,0,0,1-4.45,1.3A5.93,5.93,0,0,1,160,97.86Z" fill="#fff"/><path d="M185.65,96.14a8.07,8.07,0,0,1-2.79,2.33,7.5,7.5,0,0,1-3.46.82A8.66,8.66,0,0,1,174.78,98a8.43,8.43,0,0,1-3.22-3.66,14.68,14.68,0,0,1,0-11.39,8.8,8.8,0,0,1,3.2-3.72A8.39,8.39,0,0,1,179.4,78a7.78,7.78,0,0,1,3.44.8,7.88,7.88,0,0,1,2.81,2.31v-2.6H191V98.74h-5.38Zm0-11.08a4.88,4.88,0,0,0-2-1.66,5.8,5.8,0,0,0-2.65-.66,4.66,4.66,0,0,0-3.69,1.63,7.08,7.08,0,0,0,0,8.53A4.64,4.64,0,0,0,181,94.54a5.79,5.79,0,0,0,2.65-.65,4.88,4.88,0,0,0,2-1.66Z" fill="#fff"/><path d="M196.32,78.46h5.34v2.77a9,9,0,0,1,2.85-2.33,7.58,7.58,0,0,1,3.61-1v5.21a6.84,6.84,0,0,0-1.47-.17,7,7,0,0,0-2.85.68,4.74,4.74,0,0,0-2.14,1.64V98.74h-5.34Z" fill="#fff"/><path d="M214,97.86a5.5,5.5,0,0,1-1.47-4.13V83.12h-3.36V78.46h3.36V72.91h5.38v5.55H222v4.66h-4.11v9.19a2.51,2.51,0,0,0,.5,1.6,1.65,1.65,0,0,0,1.35.63,3.5,3.5,0,0,0,1.09-.16,2,2,0,0,0,.75-.42l1.14,4a6.55,6.55,0,0,1-4.45,1.3A5.93,5.93,0,0,1,214,97.86Z" fill="#fff"/><path d="M24.25,143.86a5.51,5.51,0,0,1-1.47-4.13V129.12H19.42v-4.66h3.36v-5.55h5.38v5.55h4.11v4.66H28.16v9.19a2.45,2.45,0,0,0,.5,1.6,1.63,1.63,0,0,0,1.34.63,3.52,3.52,0,0,0,1.1-.16,2,2,0,0,0,.75-.42L33,144a6.56,6.56,0,0,1-4.46,1.3A5.92,5.92,0,0,1,24.25,143.86Z" fill="#fff"/><path d="M49.66,132.4a3.6,3.6,0,0,0-1-2.86,4.16,4.16,0,0,0-2.81-.84,5.32,5.32,0,0,0-2.65.69,6.44,6.44,0,0,0-2,1.7v13.65H35.93v-28h5.33V127.1a9,9,0,0,1,3-2.22A9.27,9.27,0,0,1,48.4,124a6.67,6.67,0,0,1,4.93,1.68A6.4,6.4,0,0,1,55,130.34v14.4H49.66Z" fill="#fff"/><path d="M60.68,120.53a3.19,3.19,0,1,1,5.44-2.25,3.13,3.13,0,0,1-.92,2.25,3.16,3.16,0,0,1-4.52,0Zm-.39,3.93h5.33v20.28H60.29Z" fill="#fff"/><path d="M71.46,138.4a10.53,10.53,0,0,0,3.19,1.93,9.76,9.76,0,0,0,3.82.84,4.72,4.72,0,0,0,2.54-.55,1.69,1.69,0,0,0,.86-1.52,1.6,1.6,0,0,0-1-1.49,12.81,12.81,0,0,0-3.06-.93,29,29,0,0,1-4-1A6.64,6.64,0,0,1,71,133.85a5,5,0,0,1-1.17-3.51,5.59,5.59,0,0,1,1-3.19,6.6,6.6,0,0,1,2.87-2.33,10.58,10.58,0,0,1,4.45-.87,12.75,12.75,0,0,1,8.19,2.78l-2.14,3.65a7.5,7.5,0,0,0-2.58-1.68,8.8,8.8,0,0,0-3.42-.67,4.66,4.66,0,0,0-2.33.5,1.55,1.55,0,0,0-.87,1.39,1.41,1.41,0,0,0,1,1.32,14.09,14.09,0,0,0,2.92.86,26.56,26.56,0,0,1,4.07,1.06,7.05,7.05,0,0,1,2.86,1.93A5.28,5.28,0,0,1,87,138.76a5.82,5.82,0,0,1-1,3.35,6.73,6.73,0,0,1-3,2.34,12.1,12.1,0,0,1-4.72.84,15.26,15.26,0,0,1-5.06-.84,11.28,11.28,0,0,1-4-2.31Z" fill="#fff"/><path d="M115.22,130.93l-4.28,13.81h-5.72l-6.17-20.28h5.54l3.78,13.65,4.46-13.65h4.74L122,138.11l3.78-13.65h5.55l-6.18,20.28H119.5Z" fill="#fff"/><path d="M134,129.24a10.07,10.07,0,0,1,3.73-3.85,10.34,10.34,0,0,1,5.42-1.44,9.94,9.94,0,0,1,5.29,1.41,9.63,9.63,0,0,1,3.6,4,12.78,12.78,0,0,1,1.28,5.82v1.17H138.28a5.22,5.22,0,0,0,1.8,3.39,5.9,5.9,0,0,0,4,1.36,8.45,8.45,0,0,0,3-.55,6.81,6.81,0,0,0,2.45-1.47l2.36,3.45a10.21,10.21,0,0,1-3.7,2.08,14.76,14.76,0,0,1-4.66.73A11.63,11.63,0,0,1,138,144a9.79,9.79,0,0,1-3.88-3.75,11,11,0,0,1-1.41-5.62A10.8,10.8,0,0,1,134,129.24Zm5.62.32a5.47,5.47,0,0,0-1.47,3.13h10a5.15,5.15,0,0,0-1.36-3.11,4.65,4.65,0,0,0-3.64-1.38A4.57,4.57,0,0,0,139.66,129.56Z" fill="#fff"/><path d="M157.26,129.24a10.09,10.09,0,0,1,3.74-3.85,10.31,10.31,0,0,1,5.42-1.44,9.94,9.94,0,0,1,5.29,1.41,9.54,9.54,0,0,1,3.59,4,12.66,12.66,0,0,1,1.28,5.82v1.17H161.5a5.19,5.19,0,0,0,1.81,3.39,5.89,5.89,0,0,0,4,1.36,8.41,8.41,0,0,0,3-.55,6.77,6.77,0,0,0,2.46-1.47l2.35,3.45a10.16,10.16,0,0,1-3.69,2.08,14.82,14.82,0,0,1-4.67.73,11.59,11.59,0,0,1-5.54-1.32,9.72,9.72,0,0,1-3.88-3.75,11.65,11.65,0,0,1-.07-11Zm5.63.32a5.47,5.47,0,0,0-1.47,3.13h10a5.17,5.17,0,0,0-1.37-3.11,4.64,4.64,0,0,0-3.63-1.38A4.57,4.57,0,0,0,162.89,129.56Z" fill="#fff"/><path d="M188.22,136.93l-2.44,2.61v5.2h-5.33v-28h5.33v16.76l7.69-9H200l-8,9.2,8.27,11.08h-6.68Z" fill="#fff"/><path d="M202.08,129.24a10.07,10.07,0,0,1,3.73-3.85,10.34,10.34,0,0,1,5.42-1.44,9.94,9.94,0,0,1,5.29,1.41,9.54,9.54,0,0,1,3.59,4,12.66,12.66,0,0,1,1.29,5.82v1.17H206.32a5.22,5.22,0,0,0,1.8,3.39,5.9,5.9,0,0,0,4,1.36,8.45,8.45,0,0,0,3-.55,6.81,6.81,0,0,0,2.45-1.47l2.36,3.45a10.21,10.21,0,0,1-3.7,2.08,14.76,14.76,0,0,1-4.66.73A11.63,11.63,0,0,1,206,144a9.79,9.79,0,0,1-3.88-3.75,11,11,0,0,1-1.41-5.62A10.8,10.8,0,0,1,202.08,129.24Zm5.62.32a5.47,5.47,0,0,0-1.47,3.13h10a5.11,5.11,0,0,0-1.37-3.11,5.36,5.36,0,0,0-7.16,0Z" fill="#fff"/><path d="M239,132.48a3.79,3.79,0,0,0-1-2.9,4,4,0,0,0-2.78-.88,5.2,5.2,0,0,0-2.66.69,6.64,6.64,0,0,0-2,1.7v13.65h-5.33V124.46h5.33v2.64a9.38,9.38,0,0,1,7.1-3.15,5.91,5.91,0,0,1,6.6,6.47v14.32H239Z" fill="#fff"/><path d="M263.52,142.14a8.07,8.07,0,0,1-2.79,2.33,7.54,7.54,0,0,1-3.47.82,8.66,8.66,0,0,1-4.62-1.26,8.47,8.47,0,0,1-3.21-3.66,14.56,14.56,0,0,1,0-11.39,8.78,8.78,0,0,1,3.19-3.72,8.44,8.44,0,0,1,4.64-1.31,7.87,7.87,0,0,1,6.26,3.11V116.73h5.38v28h-5.38Zm0-11.12a5,5,0,0,0-2-1.67,5.92,5.92,0,0,0-2.65-.65,4.67,4.67,0,0,0-3.69,1.64,6.29,6.29,0,0,0-1.43,4.3,6.2,6.2,0,0,0,1.43,4.26,4.64,4.64,0,0,0,3.69,1.64,5.79,5.79,0,0,0,2.65-.65,5,5,0,0,0,2-1.66Z" fill="#fff"/><path d="M274.55,139.41a3.2,3.2,0,0,1,2.37-1,3.27,3.27,0,0,1,2.39,1,3.38,3.38,0,0,1-2.39,5.75,3.19,3.19,0,0,1-2.37-1,3.34,3.34,0,0,1,0-4.75Zm-.87-22.68h6.43l-.84,18.9h-4.7Z" fill="#fff"/><path d="M23.31,186.2a12.1,12.1,0,0,1-4.89-.9A10.72,10.72,0,0,1,15,183l2-2.78a9.67,9.67,0,0,0,2.67,2,8,8,0,0,0,3.77.86,6,6,0,0,0,1.87-.25,3.55,3.55,0,0,0,1.26-.64,2.5,2.5,0,0,0,.7-.9,2.45,2.45,0,0,0,.23-1,1.82,1.82,0,0,0-.87-1.63,8.35,8.35,0,0,0-2.2-1c-.88-.27-1.84-.52-2.85-.77a13.82,13.82,0,0,1-2.86-1,6.11,6.11,0,0,1-2.2-1.75,4.75,4.75,0,0,1-.86-3,5.21,5.21,0,0,1,.53-2.36,5.79,5.79,0,0,1,1.5-1.89A7,7,0,0,1,20,165.6a9.48,9.48,0,0,1,3.05-.46,11.63,11.63,0,0,1,4.29.75A9.84,9.84,0,0,1,30.69,168l-2,2.66a7.63,7.63,0,0,0-2.76-1.79,9.08,9.08,0,0,0-3.16-.56,4,4,0,0,0-2.49.7,2.19,2.19,0,0,0-.93,1.83,1.61,1.61,0,0,0,.87,1.46,8.59,8.59,0,0,0,2.2.89l2.85.75A12.61,12.61,0,0,1,28.11,175a6.23,6.23,0,0,1,2.2,1.83,4.87,4.87,0,0,1,.87,3,6.37,6.37,0,0,1-.46,2.43,5.36,5.36,0,0,1-1.42,2,7,7,0,0,1-2.45,1.38A11.32,11.32,0,0,1,23.31,186.2Z" fill="#e52823"/><path d="M44.33,185.84v-9.28a2.9,2.9,0,0,0-.79-2.37,3.4,3.4,0,0,0-2.17-.62,4.16,4.16,0,0,0-2.24.61,5.41,5.41,0,0,0-1.54,1.34v10.32H34.38V165.48h3.21v7.6a6.23,6.23,0,0,1,.9-.86,6.73,6.73,0,0,1,1.19-.76,7.15,7.15,0,0,1,1.43-.53,6.42,6.42,0,0,1,1.67-.2,4.84,4.84,0,0,1,3.57,1.19,4.72,4.72,0,0,1,1.19,3.48v10.44Z" fill="#e52823"/><path d="M58.37,186.2a7.83,7.83,0,0,1-3.17-.62,7.22,7.22,0,0,1-2.38-1.68,7.33,7.33,0,0,1-1.5-2.46,8.86,8.86,0,0,1,0-6,7.33,7.33,0,0,1,1.5-2.46,7,7,0,0,1,2.38-1.66,8.57,8.57,0,0,1,6.35,0,7,7,0,0,1,3.87,4.12,8.86,8.86,0,0,1,0,6,7.15,7.15,0,0,1-1.49,2.46,7.32,7.32,0,0,1-2.38,1.68A7.88,7.88,0,0,1,58.37,186.2Zm0-2.84a4.12,4.12,0,0,0,1.84-.39,3.94,3.94,0,0,0,1.32-1.07,4.59,4.59,0,0,0,.81-1.57,6.53,6.53,0,0,0,.28-1.88,6.34,6.34,0,0,0-.28-1.86,4.63,4.63,0,0,0-.81-1.56A3.94,3.94,0,0,0,60.21,174a4.12,4.12,0,0,0-1.84-.39,4,4,0,0,0-1.8.39A4.12,4.12,0,0,0,55.23,175a4.48,4.48,0,0,0-.82,1.56,6,6,0,0,0-.28,1.86,6.2,6.2,0,0,0,.28,1.88,4.44,4.44,0,0,0,.82,1.57A4.12,4.12,0,0,0,56.57,183,4,4,0,0,0,58.37,183.36Z" fill="#e52823"/><path d="M77.14,186.2a5.7,5.7,0,0,1-2.61-.62,6.65,6.65,0,0,1-2.12-1.79v7.66h-3.2V171.09h3.2v2a6,6,0,0,1,2-1.74,5.64,5.64,0,0,1,2.68-.64,6.47,6.47,0,0,1,2.63.52,5.76,5.76,0,0,1,2.06,1.51,7.19,7.19,0,0,1,1.36,2.42,11.38,11.38,0,0,1,0,6.54,7.19,7.19,0,0,1-1.36,2.42,6.06,6.06,0,0,1-2.06,1.53A6.47,6.47,0,0,1,77.14,186.2Zm-.94-2.84a3.72,3.72,0,0,0,3-1.37,5.42,5.42,0,0,0,1.13-3.54,5.36,5.36,0,0,0-1.13-3.53,3.77,3.77,0,0,0-3-1.35,4.48,4.48,0,0,0-2.18.56,4.35,4.35,0,0,0-1.61,1.39v5.83a4.25,4.25,0,0,0,.69.79,4.31,4.31,0,0,0,.92.64,4.45,4.45,0,0,0,1.06.43A4.37,4.37,0,0,0,76.2,183.36Z" fill="#e52823"/><path d="M94.75,185.84V165.48H98v7.66a6,6,0,0,1,2.12-1.8,5.75,5.75,0,0,1,2.61-.61,6.52,6.52,0,0,1,2.64.53,6,6,0,0,1,2.08,1.54,7.2,7.2,0,0,1,1.35,2.44,9.83,9.83,0,0,1,.49,3.21,10,10,0,0,1-.49,3.27,7.07,7.07,0,0,1-1.37,2.44,5.78,5.78,0,0,1-2.09,1.52,6.47,6.47,0,0,1-2.61.52,5.62,5.62,0,0,1-2.66-.64A6.42,6.42,0,0,1,98,183.82v2ZM98,181.41a4.4,4.4,0,0,0,1.6,1.39,4.57,4.57,0,0,0,2.21.56,3.68,3.68,0,0,0,3-1.37,5.47,5.47,0,0,0,1.11-3.54,6.21,6.21,0,0,0-.29-2,4.47,4.47,0,0,0-.83-1.54,4.08,4.08,0,0,0-1.32-1,4,4,0,0,0-1.71-.36,4.48,4.48,0,0,0-2.21.58,4.42,4.42,0,0,0-1.6,1.4Z" fill="#e52823"/><path d="M114.1,169.29a2,2,0,0,1,0-4,2,2,0,1,1,0,4Zm-1.61,16.55V171.09h3.2v14.75Z" fill="#e52823"/><path d="M125.85,191.82a10.7,10.7,0,0,1-3.35-.48,7.71,7.71,0,0,1-2.84-1.72l1.49-2.32a5.24,5.24,0,0,0,2.08,1.47,7.66,7.66,0,0,0,2.62.42,6.06,6.06,0,0,0,1.58-.2,3.8,3.8,0,0,0,1.4-.68,3.65,3.65,0,0,0,1-1.27,4.52,4.52,0,0,0,.38-2v-1.68a6.43,6.43,0,0,1-2.06,1.8,5.41,5.41,0,0,1-2.67.68,6.6,6.6,0,0,1-2.61-.51,5.73,5.73,0,0,1-2.08-1.46,6.68,6.68,0,0,1-1.35-2.37,10.82,10.82,0,0,1,0-6.44,6.91,6.91,0,0,1,1.35-2.38,5.8,5.8,0,0,1,2.06-1.48,6.81,6.81,0,0,1,2.63-.5,5.74,5.74,0,0,1,2.62.61,5.93,5.93,0,0,1,2.11,1.8v-2h3.2v14a7.18,7.18,0,0,1-.67,3.3,5.58,5.58,0,0,1-1.75,2.07,6.71,6.71,0,0,1-2.44,1.07A12,12,0,0,1,125.85,191.82Zm.58-8.82a4.54,4.54,0,0,0,2.19-.58,4.67,4.67,0,0,0,1.6-1.38v-5.52a4.55,4.55,0,0,0-1.6-1.37,4.43,4.43,0,0,0-2.19-.58,3.84,3.84,0,0,0-3.05,1.29,5.07,5.07,0,0,0-1.13,3.44,5,5,0,0,0,1.13,3.42A3.87,3.87,0,0,0,126.43,183Z" fill="#e52823"/><path d="M155.83,185.84v-2a6.49,6.49,0,0,1-2.06,1.74,5.61,5.61,0,0,1-2.68.64,6.42,6.42,0,0,1-2.6-.52,5.58,5.58,0,0,1-2.08-1.52,7.39,7.39,0,0,1-1.36-2.44,10.31,10.31,0,0,1-.49-3.27,10.11,10.11,0,0,1,.49-3.21,7.39,7.39,0,0,1,1.36-2.44,6,6,0,0,1,2.06-1.54,6.42,6.42,0,0,1,2.62-.53,5.75,5.75,0,0,1,2.63.61,6,6,0,0,1,2.11,1.8v-7.66H159v20.36ZM152,183.36a4.37,4.37,0,0,0,1.12-.15,4.45,4.45,0,0,0,1.06-.43,5.48,5.48,0,0,0,.92-.62,4.2,4.2,0,0,0,.69-.78v-5.83a4.84,4.84,0,0,0-.69-.76,4.58,4.58,0,0,0-.92-.64,4.45,4.45,0,0,0-1.06-.43,4.37,4.37,0,0,0-1.12-.15,3.82,3.82,0,0,0-3,1.37,4.33,4.33,0,0,0-.84,1.54,6.84,6.84,0,0,0,0,3.94A4.37,4.37,0,0,0,149,182a4,4,0,0,0,1.31,1A4,4,0,0,0,152,183.36Z" fill="#e52823"/><path d="M164.8,169.29a2,2,0,1,1,0-4,2,2,0,0,1,0,4Zm-1.62,16.55V171.09h3.21v14.75Z" fill="#e52823"/><path d="M175.6,186.2a10.35,10.35,0,0,1-3.54-.59,7.66,7.66,0,0,1-2.77-1.73l1.46-2.29a5.88,5.88,0,0,0,.95.77,8.39,8.39,0,0,0,2.61,1.11,6.24,6.24,0,0,0,1.41.17,3.7,3.7,0,0,0,2.2-.54,1.67,1.67,0,0,0,.74-1.42,1.17,1.17,0,0,0-.66-1.09,6.41,6.41,0,0,0-1.65-.61c-.66-.17-1.38-.33-2.15-.49a9.24,9.24,0,0,1-2.15-.74,4.73,4.73,0,0,1-1.65-1.31,3.52,3.52,0,0,1-.66-2.26,4,4,0,0,1,.38-1.72,4.22,4.22,0,0,1,1.12-1.42,5.29,5.29,0,0,1,1.81-1,8,8,0,0,1,2.49-.35,8.62,8.62,0,0,1,3.31.58,7.9,7.9,0,0,1,2.4,1.46L179.91,175a5.62,5.62,0,0,0-1.82-1.25,6,6,0,0,0-2.55-.52,3.35,3.35,0,0,0-2,.52,1.55,1.55,0,0,0-.71,1.31,1,1,0,0,0,.65,1,7.37,7.37,0,0,0,1.65.56l2.15.49a9.28,9.28,0,0,1,2.15.76,4.8,4.8,0,0,1,1.65,1.38,3.77,3.77,0,0,1,.66,2.33,4.22,4.22,0,0,1-.4,1.83,4,4,0,0,1-1.17,1.47,5.72,5.72,0,0,1-1.93,1A9.13,9.13,0,0,1,175.6,186.2Z" fill="#e52823"/><path d="M191.66,186.2a7.81,7.81,0,0,1-3.07-.58,6.88,6.88,0,0,1-2.4-1.62,7.52,7.52,0,0,1-1.57-2.45,8.26,8.26,0,0,1-.56-3.1,8.08,8.08,0,0,1,.56-3.08,7.47,7.47,0,0,1,1.57-2.44,6.88,6.88,0,0,1,2.4-1.62,7.81,7.81,0,0,1,3.07-.58,8.35,8.35,0,0,1,2,.21,6.66,6.66,0,0,1,1.56.58,6.47,6.47,0,0,1,1.21.84,8.33,8.33,0,0,1,.91,1l-2.1,1.93a4,4,0,0,0-3.39-1.71,4.17,4.17,0,0,0-3.24,1.35,5.1,5.1,0,0,0-1.22,3.53,5.94,5.94,0,0,0,.32,2,4.53,4.53,0,0,0,.92,1.55,4.31,4.31,0,0,0,1.4,1,4.45,4.45,0,0,0,1.82.36,4,4,0,0,0,3.39-1.77l2.1,2a7.44,7.44,0,0,1-2.13,1.83A6.86,6.86,0,0,1,191.66,186.2Z" fill="#e52823"/><path d="M206.83,186.2a7.84,7.84,0,0,1-3.18-.62,7.22,7.22,0,0,1-2.38-1.68,7.33,7.33,0,0,1-1.5-2.46,9,9,0,0,1,0-6,7.33,7.33,0,0,1,1.5-2.46,7,7,0,0,1,2.38-1.66,8.57,8.57,0,0,1,6.35,0,7.12,7.12,0,0,1,2.38,1.66,7.33,7.33,0,0,1,1.5,2.46,9,9,0,0,1,0,6,7.14,7.14,0,0,1-3.88,4.14A7.86,7.86,0,0,1,206.83,186.2Zm0-2.84a4.1,4.1,0,0,0,1.83-.39A3.85,3.85,0,0,0,210,181.9a4.59,4.59,0,0,0,.81-1.57,6.2,6.2,0,0,0,.28-1.88,6,6,0,0,0-.28-1.86A4.63,4.63,0,0,0,210,175a3.85,3.85,0,0,0-1.32-1.07,4.1,4.1,0,0,0-1.83-.39A4,4,0,0,0,205,174a4.23,4.23,0,0,0-1.34,1.07,4.65,4.65,0,0,0-.82,1.56,6,6,0,0,0-.28,1.86,6.2,6.2,0,0,0,.28,1.88,4.61,4.61,0,0,0,.82,1.57A4.23,4.23,0,0,0,205,183,4,4,0,0,0,206.83,183.36Z" fill="#e52823"/><path d="M227.61,185.84v-2a7.7,7.7,0,0,1-2.12,1.6,6.36,6.36,0,0,1-3.07.72,4.81,4.81,0,0,1-3.57-1.2,4.76,4.76,0,0,1-1.19-3.47V171.09h3.2v9.25a2.92,2.92,0,0,0,.81,2.37,3.36,3.36,0,0,0,2.19.65,4.18,4.18,0,0,0,2.21-.59,5.39,5.39,0,0,0,1.54-1.33V171.09h3.2v14.75Z" fill="#e52823"/><path d="M244.94,185.84v-9.22a3,3,0,0,0-.8-2.4,3.36,3.36,0,0,0-2.19-.65,4.11,4.11,0,0,0-2.21.61,5.7,5.7,0,0,0-1.57,1.34v10.32H235V171.09h3.21v2a6.23,6.23,0,0,1,.9-.86,6.82,6.82,0,0,1,1.2-.76,7.58,7.58,0,0,1,1.45-.53,6.42,6.42,0,0,1,1.67-.2A4.75,4.75,0,0,1,247,172a4.83,4.83,0,0,1,1.19,3.51v10.38Z" fill="#e52823"/><path d="M256.76,186.2a3.77,3.77,0,0,1-2.84-1,3.94,3.94,0,0,1-.95-2.84v-8.52h-2.44v-2.78H253v-4h3.21v4h3v2.78h-3v7.72a2.14,2.14,0,0,0,.35,1.27,1.17,1.17,0,0,0,1.05.5,2.06,2.06,0,0,0,.84-.16,1.57,1.57,0,0,0,.56-.39l.77,2.45a3.73,3.73,0,0,1-1.16.67A5.35,5.35,0,0,1,256.76,186.2Z" fill="#e52823"/><path d="M267.1,186.2a10.35,10.35,0,0,1-3.54-.59,7.78,7.78,0,0,1-2.78-1.73l1.47-2.29a5.88,5.88,0,0,0,.95.77,7.38,7.38,0,0,0,1.22.65,7.45,7.45,0,0,0,1.38.46,6.4,6.4,0,0,0,1.42.17,3.7,3.7,0,0,0,2.2-.54,1.66,1.66,0,0,0,.73-1.42,1.17,1.17,0,0,0-.65-1.09,6.41,6.41,0,0,0-1.65-.61c-.66-.17-1.38-.33-2.15-.49a9.09,9.09,0,0,1-2.15-.74,4.55,4.55,0,0,1-1.65-1.31,3.52,3.52,0,0,1-.66-2.26,4,4,0,0,1,.38-1.72,4.22,4.22,0,0,1,1.12-1.42,5.29,5.29,0,0,1,1.81-1,7.93,7.93,0,0,1,2.49-.35,8.62,8.62,0,0,1,3.31.58,7.9,7.9,0,0,1,2.4,1.46L271.41,175a5.62,5.62,0,0,0-1.82-1.25,6,6,0,0,0-2.55-.52,3.35,3.35,0,0,0-2,.52,1.56,1.56,0,0,0-.72,1.31,1.05,1.05,0,0,0,.66,1,7.37,7.37,0,0,0,1.65.56l2.15.49a9.28,9.28,0,0,1,2.15.76,4.8,4.8,0,0,1,1.65,1.38,3.77,3.77,0,0,1,.66,2.33,4.37,4.37,0,0,1-.4,1.83,4,4,0,0,1-1.17,1.47,5.82,5.82,0,0,1-1.93,1A9.13,9.13,0,0,1,267.1,186.2Z" fill="#e52823"/><path d="M25.84,220.08a11,11,0,0,1-4.2-.79,10,10,0,0,1-3.29-2.2,9.87,9.87,0,0,1-2.16-3.33,12,12,0,0,1,0-8.42A9.87,9.87,0,0,1,18.35,202a10,10,0,0,1,3.29-2.2,10.8,10.8,0,0,1,4.2-.79,10.84,10.84,0,0,1,4.2.79,10,10,0,0,1,3.28,2.2,10.32,10.32,0,0,1,2.15,3.33,11.75,11.75,0,0,1,0,8.42,10.32,10.32,0,0,1-2.15,3.33,10,10,0,0,1-3.28,2.2A11,11,0,0,1,25.84,220.08Zm0-3.17a6.64,6.64,0,0,0,2.78-.57,6.47,6.47,0,0,0,2.13-1.54,6.77,6.77,0,0,0,1.36-2.34,9.31,9.31,0,0,0,0-5.84,6.77,6.77,0,0,0-1.36-2.32,6.47,6.47,0,0,0-2.13-1.54,6.64,6.64,0,0,0-2.78-.57,6.56,6.56,0,0,0-2.79.57,6.47,6.47,0,0,0-2.13,1.54,6.6,6.6,0,0,0-1.35,2.32,9.12,9.12,0,0,0,0,5.84,6.6,6.6,0,0,0,1.35,2.34,6.47,6.47,0,0,0,2.13,1.54A6.56,6.56,0,0,0,25.84,216.91Z" fill="#e52823"/><path d="M46.29,220.08a7.85,7.85,0,0,1-3.07-.58,7.12,7.12,0,0,1-2.39-1.62,7.38,7.38,0,0,1-1.58-2.45,8.46,8.46,0,0,1-.56-3.1,8.37,8.37,0,0,1,.56-3.09,7.54,7.54,0,0,1,1.58-2.44,7,7,0,0,1,2.39-1.61,7.85,7.85,0,0,1,3.07-.58,8.44,8.44,0,0,1,2,.21,6.16,6.16,0,0,1,1.55.58,5.65,5.65,0,0,1,1.21.84,7,7,0,0,1,.91,1l-2.1,1.92a4,4,0,0,0-3.39-1.71,4.15,4.15,0,0,0-3.23,1.36A5.06,5.06,0,0,0,42,212.33a5.94,5.94,0,0,0,.32,2,4.53,4.53,0,0,0,.92,1.55,4.31,4.31,0,0,0,1.4,1,4.45,4.45,0,0,0,1.82.36,4,4,0,0,0,3.39-1.77l2.1,2a7.18,7.18,0,0,1-2.13,1.84A7,7,0,0,1,46.29,220.08Z" fill="#e52823"/><path d="M59.23,220.08a3.79,3.79,0,0,1-2.84-1,3.91,3.91,0,0,1-1-2.84v-8.51H53V205h2.44v-4h3.21v4h3v2.78h-3v7.72a2.21,2.21,0,0,0,.35,1.27,1.2,1.2,0,0,0,1,.5,1.91,1.91,0,0,0,.84-.17,1.61,1.61,0,0,0,.57-.38l.76,2.44a3.55,3.55,0,0,1-1.16.68A5.35,5.35,0,0,1,59.23,220.08Z" fill="#e52823"/><path d="M78.73,220.08a10.49,10.49,0,0,1-4.67-1,8.43,8.43,0,0,1-3-2.34L73,214.43a6.69,6.69,0,0,0,2.47,1.82,7.74,7.74,0,0,0,3.15.66,5.06,5.06,0,0,0,3.13-.86,2.71,2.71,0,0,0,1.11-2.26,2.38,2.38,0,0,0-1.16-2.21,6.63,6.63,0,0,0-3.36-.69l-1.35,0c-.48,0-.8,0-1,0v-3.26h.4l.6,0h1.32a8.75,8.75,0,0,0,1.68-.15,4.27,4.27,0,0,0,1.33-.49,2.51,2.51,0,0,0,.88-.83,2.16,2.16,0,0,0,.33-1.2,2.26,2.26,0,0,0-.33-1.23,2.47,2.47,0,0,0-.88-.88,4.55,4.55,0,0,0-1.31-.53,6.91,6.91,0,0,0-1.61-.18,7.1,7.1,0,0,0-5.27,2.25l-1.84-2.22a9.25,9.25,0,0,1,3-2.31,10,10,0,0,1,4.41-.9,11.06,11.06,0,0,1,3,.38,7.48,7.48,0,0,1,2.31,1.08,5,5,0,0,1,1.49,1.71,4.74,4.74,0,0,1,.54,2.28,4.19,4.19,0,0,1-.4,1.85,4.76,4.76,0,0,1-1,1.38,5.27,5.27,0,0,1-1.42,1,6.1,6.1,0,0,1-1.56.49,6.28,6.28,0,0,1,1.56.42,6,6,0,0,1,1.54.95A4.82,4.82,0,0,1,86,212a4.4,4.4,0,0,1,.46,2.08,5.42,5.42,0,0,1-.53,2.4,5.53,5.53,0,0,1-1.54,1.88,7.62,7.62,0,0,1-2.43,1.24A10.88,10.88,0,0,1,78.73,220.08Z" fill="#e52823"/><path d="M88.74,213.7V211H105v2.75Z" fill="#e52823"/><path d="M117.71,219.71V215.1H108v-2.86l8.36-12.88h4.92v12.57H124v3.17h-2.71v4.61Zm0-17.15-6.2,9.37h6.2Z" fill="#e52823"/></g><g id="REC"><rect x="1.08" width="300" height="600" fill="none"/></g></g></svg>