<svg xmlns="http://www.w3.org/2000/svg" viewBox="0 0 300 250"><defs><style>.cls-1{fill:#fff;}.cls-2{fill:#e52823;}.cls-3{fill:#007db4;}.cls-4{fill:#e52a26;}</style></defs><g id="Layer_2" data-name="Layer 2"><g id="Layer_1-2" data-name="Layer 1"><rect class="cls-1" width="300" height="250"/><path class="cls-2" d="M41.86,167.48s-.1,2.39-.11,3.6c-.61,0-3.24-.23-4.4-.3,0,.64-.06,1.31-.07,2,1.38,0,2.82.25,4.2.26,0,1.17-.08,2.17-.09,3.33-1.39,0-2.77-.17-4.16-.23l0,2.12c1.49.07,3,.22,4.48.23,0,0-.1,3.54-.1,3.54-2.95-.05-6.44-.37-9.75-.72l.55-14.74C33.77,166.73,38.09,167.28,41.86,167.48Z"/><path class="cls-2" d="M43.11,167.53,43,171.38c1.39.1,2.64.13,2.64.13l-.24,10.69a33.69,33.69,0,0,0,5.32,0l.17-10.58s2.36-.06,2.72-.09c0-1.41,0-2.52,0-3.93A92.21,92.21,0,0,1,43.11,167.53Z"/><path class="cls-2" d="M26,165.27l-6.26-1.43L19,179.3c1.61.39,3.07.72,4.64,1l.18-4.46c.55.09,1.14.19,1.7.26,2.72.38,5.52-.52,5.77-5C31.52,167.1,28.93,165.83,26,165.27Zm-1.49,7.07-.46-.07c.05-1,.11-2,.16-3l.44.07A1.55,1.55,0,0,1,26.14,171C26.07,172.25,25.29,172.46,24.53,172.34Z"/><path class="cls-3" d="M31.07,160.38C46.94,155.54,55,167.69,55,167.69S49.92,150.73,31.07,160.38Z"/><path class="cls-3" d="M61.75,161a3.62,3.62,0,0,1,0-.57,11.82,11.82,0,0,0-6.26,9.1s2.16-5,7.23-6.54A3.09,3.09,0,0,1,61.75,161Z"/><path class="cls-3" d="M114.19,165.39c0,1.5,0,2.88-.06,4.38.9.07,1.92.27,2.82.36,0,3.65-.17,6.41-.22,10.07,2.51.34,4.28.66,5,.79,0-3.65.23-6.53.28-10.18,0,0,2.65.46,2.69.49,0-1.5,0-3,.07-4.5A82.91,82.91,0,0,0,114.19,165.39Z"/><path class="cls-3" d="M55.54,180.61A12.86,12.86,0,0,0,61.28,182c3.23,0,6.58-1.95,6.61-5.51,0-2.53-1.63-3.72-3.93-4.2L62.74,172c-.42-.1-1.09-.17-1.09-.73s.7-.79,1.18-.8a8.87,8.87,0,0,1,3.3.66c.45-1.2.89-2.39,1.33-3.59a11.11,11.11,0,0,0-4.72-1.06c-3.25,0-6.49,2-6.52,5.53,0,2.33,1.76,3.6,3.87,4l1.09.19c.5.1,1.21.15,1.2.82s-.84.76-1.38.76a6.45,6.45,0,0,1-3.72-1.17C56.73,177.82,56.09,179.36,55.54,180.61Z"/><path class="cls-3" d="M78.41,179.61c.71-1.84,1.41-3.56,2.12-5.41.11,1.77.18,3.36.29,5.13,1.77-.2,3.18-.3,5-.41-.46-4.7-.85-9.74-1.31-14.44-1.52.13-3,.27-4.55.42-.85,2.21-1.7,4.91-2.56,7.13-.82-2.05-1.64-4.46-2.46-6.52-1.53.22-4.27.7-4.55.71-.52,4.79-1.12,10.11-1.65,14.9,1.21-.21,4.16-.68,5-.8.14-1.79.28-3.7.41-5.49q1,2.56,2,5.12C76.59,179.9,78,179.69,78.41,179.61Z"/><path class="cls-3" d="M110.82,174.69c1.35-.6,2.33-1.91,2.36-4.5,0-3.92-2.71-5.59-5.51-5.8-2.12-.17-4.23-.28-6.35-.34-.07,5-.1,9.52-.16,14.49,1.58,0,3.32.17,4.7.28,0-1.4,0-2.44.06-3.84.91,1.46,1.64,2.67,2.55,4.15,2,.18,3.94.43,5.89.72C113.14,178,112,176.47,110.82,174.69Zm-4.38-3.18-.47,0,0-3,.45,0a1.47,1.47,0,0,1,1.53,1.57A1.28,1.28,0,0,1,106.44,171.51Z"/><path class="cls-3" d="M95.78,164c-1.88,0-3.42,0-5,.1-1.3,4.82-2.82,10-4.12,14.81,1.44,0,2.9-.12,4.34-.12.13-.51.28-1.1.42-1.61l2.19-.06s1.94-.06,1.94-.06c.06.19.23.7.49,1.54,1.43,0,2.87,0,4.31,0C98.78,173.48,97.2,168.58,95.78,164Zm-3.44,9.78h0c.33-1.23.66-2.54,1-3.77h0c.38,1.24.76,2.48,1.13,3.72C92.82,173.74,92.42,173.73,92.34,173.73Z"/><path class="cls-2" d="M71.27,159.81A3.72,3.72,0,1,1,67.6,156,3.73,3.73,0,0,1,71.27,159.81Z"/><path class="cls-1" d="M65,159.75a4.47,4.47,0,0,1,4-2.34l0,0a2.44,2.44,0,0,0-.87-.47,2.55,2.55,0,0,0-3.1,1.81,2.81,2.81,0,0,0-.09,1S64.94,159.76,65,159.75Z"/><rect class="cls-4" x="9.63" y="110.49" width="124.91" height="25.64" rx="12.18"/><path class="cls-1" d="M33.28,125.67a2.23,2.23,0,0,0,1.66.81,1.61,1.61,0,0,0,1.25-.49,1.76,1.76,0,0,0,.46-1.28v-6.64h1.71v6.67a3.1,3.1,0,0,1-.91,2.43,3.78,3.78,0,0,1-5-.2Z"/><path class="cls-1" d="M41.67,127.5a3.3,3.3,0,0,1-1.27-1.35,4.09,4.09,0,0,1,0-3.73,3.34,3.34,0,0,1,1.27-1.34,3.52,3.52,0,0,1,1.9-.5,3.57,3.57,0,0,1,1.92.5,3.28,3.28,0,0,1,1.27,1.34,3.88,3.88,0,0,1,.45,1.86,3.92,3.92,0,0,1-.45,1.87,3.3,3.3,0,0,1-1.27,1.35,3.66,3.66,0,0,1-1.92.5A3.62,3.62,0,0,1,41.67,127.5Zm3.4-1.54a2.65,2.65,0,0,0,.55-1.68,2.59,2.59,0,0,0-.55-1.66,1.82,1.82,0,0,0-1.5-.68,1.79,1.79,0,0,0-1.48.68,2.59,2.59,0,0,0-.55,1.66,2.65,2.65,0,0,0,.55,1.68,1.82,1.82,0,0,0,1.48.68A1.84,1.84,0,0,0,45.07,126Z"/><path class="cls-1" d="M48.85,119.31a.91.91,0,0,1-.28-.67.88.88,0,0,1,.28-.67.9.9,0,0,1,.66-.28.94.94,0,0,1,1,1,.94.94,0,0,1-.27.67,1,1,0,0,1-.68.28A.94.94,0,0,1,48.85,119.31Zm-.1,1.44h1.54v7.06H48.75Z"/><path class="cls-1" d="M57,123.4a1.5,1.5,0,0,0-.36-1.13,1.54,1.54,0,0,0-1.05-.33,2.1,2.1,0,0,0-1,.27,2.43,2.43,0,0,0-.77.68v4.92H52.27v-7.06h1.54v1a3.41,3.41,0,0,1,1-.81,3.13,3.13,0,0,1,1.43-.33,2.28,2.28,0,0,1,1.7.58,2.31,2.31,0,0,1,.58,1.68v5H57Z"/><path class="cls-1" d="M69.9,120.62,68,127.81H66.19l-2.79-9.74h1.91l1.9,7.5,2-7.5h1.36l2,7.5,1.88-7.5h1.91l-2.77,9.74H71.79Z"/><path class="cls-1" d="M81.87,126.84a3,3,0,0,1-1,.85,2.8,2.8,0,0,1-1.27.31,2.92,2.92,0,0,1-2.73-1.73,4.94,4.94,0,0,1,0-3.94A3.08,3.08,0,0,1,78,121a3,3,0,0,1,1.62-.45,2.78,2.78,0,0,1,1.26.3,2.84,2.84,0,0,1,1,.85v-1H83.4v7.06H81.87Zm0-3.94a2.09,2.09,0,0,0-.78-.68,2.22,2.22,0,0,0-1-.27,1.79,1.79,0,0,0-1.44.65,2.93,2.93,0,0,0,0,3.39,1.79,1.79,0,0,0,1.44.65,2.22,2.22,0,0,0,1-.27,2,2,0,0,0,.78-.67Z"/><path class="cls-1" d="M85.48,119.31a.91.91,0,0,1-.28-.67.88.88,0,0,1,.28-.67.9.9,0,0,1,.66-.28.94.94,0,0,1,1,1,.94.94,0,0,1-.27.67,1,1,0,0,1-.68.28A.94.94,0,0,1,85.48,119.31Zm-.09,1.44h1.53v7.06H85.39Z"/><path class="cls-1" d="M89.67,127.53a1.83,1.83,0,0,1-.46-1.35V122.1H88v-1.35h1.17v-1.92h1.53v1.92h1.43v1.35H90.74v3.7a.94.94,0,0,0,.18.61.6.6,0,0,0,.5.23,1.4,1.4,0,0,0,.4-.07.68.68,0,0,0,.28-.18l.37,1.15A2,2,0,0,1,91,128,1.83,1.83,0,0,1,89.67,127.53Z"/><path class="cls-1" d="M94,127.53a1.83,1.83,0,0,1-.46-1.35v-8.11h1.53v7.73a.94.94,0,0,0,.18.61.6.6,0,0,0,.5.23,1.34,1.34,0,0,0,.39-.07.68.68,0,0,0,.28-.18l.36,1.15a2,2,0,0,1-1.43.46A1.83,1.83,0,0,1,94,127.53Z"/><path class="cls-1" d="M97.82,119.31a.92.92,0,0,1-.29-.67.88.88,0,0,1,.29-.67.9.9,0,0,1,.66-.28.89.89,0,0,1,.67.28.88.88,0,0,1,.28.67.91.91,0,0,1-.28.67.93.93,0,0,1-.67.28A.94.94,0,0,1,97.82,119.31Zm-.1,1.44h1.53v7.06H97.72Z"/><path class="cls-1" d="M101.33,125.79a3.59,3.59,0,0,0,2.39,1,2,2,0,0,0,1-.22.72.72,0,0,0,.36-.64.68.68,0,0,0-.41-.64,4.42,4.42,0,0,0-1.2-.39,9,9,0,0,1-1.36-.38,2.21,2.21,0,0,1-.91-.62,1.67,1.67,0,0,1-.38-1.16,2,2,0,0,1,.32-1.08,2.36,2.36,0,0,1,1-.78,3.6,3.6,0,0,1,1.49-.29,4,4,0,0,1,2.75,1l-.65,1.08a2.46,2.46,0,0,0-.89-.61,3,3,0,0,0-1.2-.23,1.9,1.9,0,0,0-1,.21.65.65,0,0,0-.35.57.61.61,0,0,0,.38.56,4.91,4.91,0,0,0,1.15.36,9.77,9.77,0,0,1,1.39.39,2.36,2.36,0,0,1,1,.67,1.81,1.81,0,0,1,.39,1.23,1.92,1.92,0,0,1-.77,1.58,3.39,3.39,0,0,1-2.16.62,4.92,4.92,0,0,1-1.69-.29,3.63,3.63,0,0,1-1.33-.81Z"/><path class="cls-1" d="M108.9,127.53a1.83,1.83,0,0,1-.46-1.35V122.1h-1.17v-1.35h1.17v-1.92H110v1.92h1.43v1.35H110v3.7a.94.94,0,0,0,.18.61.58.58,0,0,0,.49.23,1.34,1.34,0,0,0,.4-.07.66.66,0,0,0,.29-.18l.36,1.15a2,2,0,0,1-1.44.46A1.8,1.8,0,0,1,108.9,127.53Z"/><path class="cls-2" d="M12.71,23.64H23.24a6.49,6.49,0,0,1,3.13.71,4.86,4.86,0,0,1,2,1.86A5,5,0,0,1,29,28.74a4.72,4.72,0,0,1-1,3.06,4.15,4.15,0,0,1-2.46,1.53A4.18,4.18,0,0,1,28.28,35a5.14,5.14,0,0,1,1.11,3.27,5.25,5.25,0,0,1-1.53,3.87,5.8,5.8,0,0,1-4.29,1.53H12.71Zm9.6,8A2.34,2.34,0,0,0,24,31.07a2.15,2.15,0,0,0,.63-1.61A2.1,2.1,0,0,0,24,27.9a2.31,2.31,0,0,0-1.69-.63H17v4.41ZM22.46,40a2.66,2.66,0,0,0,1.89-.64A2.26,2.26,0,0,0,25,37.65,2.23,2.23,0,0,0,24.35,36a2.59,2.59,0,0,0-1.89-.68H17V40Z"/><path class="cls-2" d="M33.54,43a4,4,0,0,1-1-3V23.64h3.81V39.06a1.77,1.77,0,0,0,.36,1.14,1.17,1.17,0,0,0,1,.45,2.45,2.45,0,0,0,.78-.12,1.11,1.11,0,0,0,.51-.3l.81,2.88a4.63,4.63,0,0,1-3.15.93A4.22,4.22,0,0,1,33.54,43Z"/><path class="cls-2" d="M51.41,41.79a5.91,5.91,0,0,1-2,1.67,5.38,5.38,0,0,1-2.47.58,6.19,6.19,0,0,1-3.3-.9,6,6,0,0,1-2.3-2.62,9.31,9.31,0,0,1-.82-4.08,9.33,9.33,0,0,1,.82-4,6.28,6.28,0,0,1,2.28-2.66,6,6,0,0,1,3.32-.93,5.58,5.58,0,0,1,2.46.57,5.68,5.68,0,0,1,2,1.65V29.16h3.84V43.65H51.41Zm0-7.91A3.56,3.56,0,0,0,50,32.69a4.19,4.19,0,0,0-1.89-.47,3.36,3.36,0,0,0-2.64,1.16,4.45,4.45,0,0,0-1,3.06,4.49,4.49,0,0,0,1,3,3.34,3.34,0,0,0,2.64,1.17A4.18,4.18,0,0,0,50,40.19,3.64,3.64,0,0,0,51.41,39Z"/><path class="cls-2" d="M59.09,32.48a7.08,7.08,0,0,1,2.73-2.7,8,8,0,0,1,4-1,7.58,7.58,0,0,1,3.48.74,6.07,6.07,0,0,1,2.25,1.87L69,33.75A3.46,3.46,0,0,0,66,32.19a3.75,3.75,0,0,0-2.84,1.16A4.26,4.26,0,0,0,62,36.41a4.34,4.34,0,0,0,1.09,3.07,3.81,3.81,0,0,0,5.9-.39l2.49,2.31a6.26,6.26,0,0,1-2.24,1.89,7.41,7.41,0,0,1-3.49.75,7.86,7.86,0,0,1-4-1,7.08,7.08,0,0,1-2.73-2.7,8.34,8.34,0,0,1,0-7.88Z"/><path class="cls-2" d="M79.55,38.07l-1.74,1.86v3.72H74v-20h3.81v12l5.49-6.45H88l-5.73,6.57,5.91,7.92H83.39Z"/><path class="cls-2" d="M97.82,23.64H112V27.3h-9.89v4.35h9.68v3.66h-9.68v8.34H97.82Z"/><path class="cls-2" d="M114.85,29.16h3.82v2a6.27,6.27,0,0,1,2-1.66,5.35,5.35,0,0,1,2.58-.68v3.72a4.6,4.6,0,0,0-3.09.36,3.25,3.25,0,0,0-1.53,1.18v9.59h-3.82Z"/><path class="cls-2" d="M125.94,26.36a2.21,2.21,0,0,1-.68-1.61,2.32,2.32,0,0,1,2.28-2.28,2.29,2.29,0,0,1,1.63,3.89,2.21,2.21,0,0,1-1.63.67A2.18,2.18,0,0,1,125.94,26.36Zm-.29,2.8h3.81V43.65h-3.81Z"/><path class="cls-2" d="M143.2,41.79a5.87,5.87,0,0,1-2,1.67,5.42,5.42,0,0,1-2.48.58,6.19,6.19,0,0,1-3.3-.9,6,6,0,0,1-2.29-2.62,9.31,9.31,0,0,1-.83-4.08,9.33,9.33,0,0,1,.83-4,6.28,6.28,0,0,1,2.28-2.66,6,6,0,0,1,3.31-.93,5.55,5.55,0,0,1,2.46.57,5.68,5.68,0,0,1,2,1.65V23.64H147v20H143.2Zm0-7.94a3.56,3.56,0,0,0-1.41-1.19,4.19,4.19,0,0,0-1.89-.47,3.32,3.32,0,0,0-2.64,1.18,4.5,4.5,0,0,0-1,3.07,4.49,4.49,0,0,0,1,3,3.34,3.34,0,0,0,2.64,1.17,4.18,4.18,0,0,0,1.89-.46A3.64,3.64,0,0,0,143.2,39Z"/><path class="cls-2" d="M160.78,41.79a5.87,5.87,0,0,1-2,1.67,5.42,5.42,0,0,1-2.48.58,6.19,6.19,0,0,1-3.3-.9,6,6,0,0,1-2.29-2.62,9.31,9.31,0,0,1-.83-4.08,9.33,9.33,0,0,1,.83-4A6.28,6.28,0,0,1,153,29.73a6,6,0,0,1,3.31-.93,5.55,5.55,0,0,1,2.46.57,5.68,5.68,0,0,1,2,1.65V29.16h3.84V43.65h-3.84Zm0-7.91a3.6,3.6,0,0,0-1.4-1.19,4.26,4.26,0,0,0-1.9-.47,3.36,3.36,0,0,0-2.64,1.16,4.45,4.45,0,0,0-1,3.06,4.49,4.49,0,0,0,1,3,3.34,3.34,0,0,0,2.64,1.17,4.25,4.25,0,0,0,1.9-.46,3.68,3.68,0,0,0,1.4-1.19Z"/><path class="cls-2" d="M169.93,44.61A4.59,4.59,0,0,0,171.85,46a6.71,6.71,0,0,0,2.43.45,4.08,4.08,0,0,0,2.89-1,3.64,3.64,0,0,0,1-2.76v-1.5A6.85,6.85,0,0,1,176,42.75a6.73,6.73,0,0,1-3,.63,4.69,4.69,0,0,1-3.51-1.2,4.61,4.61,0,0,1-1.17-3.36V29.16h3.81v8.16a2.65,2.65,0,0,0,.69,2.06,2.88,2.88,0,0,0,2,.61,3.85,3.85,0,0,0,1.89-.48,4.55,4.55,0,0,0,1.41-1.17V29.16H182V42.51a6.56,6.56,0,0,1-2.09,5.18,8.19,8.19,0,0,1-5.63,1.84,8.86,8.86,0,0,1-6.06-2.16Z"/><path class="cls-2" d="M203.41,41.79a5.87,5.87,0,0,1-2,1.67,5.42,5.42,0,0,1-2.48.58,6.19,6.19,0,0,1-3.3-.9,6,6,0,0,1-2.29-2.62,9.31,9.31,0,0,1-.83-4.08,9.33,9.33,0,0,1,.83-4,6.28,6.28,0,0,1,2.28-2.66,6,6,0,0,1,3.31-.93,5.55,5.55,0,0,1,2.46.57,5.68,5.68,0,0,1,2,1.65V23.64h3.84v20h-3.84Zm0-7.94A3.56,3.56,0,0,0,202,32.66a4.19,4.19,0,0,0-1.89-.47,3.32,3.32,0,0,0-2.64,1.18,4.5,4.5,0,0,0-1,3.07,4.49,4.49,0,0,0,1,3,3.34,3.34,0,0,0,2.64,1.17,4.18,4.18,0,0,0,1.89-.46A3.64,3.64,0,0,0,203.41,39Z"/><path class="cls-2" d="M211.06,32.57a7.34,7.34,0,0,1,2.67-2.75,7.43,7.43,0,0,1,3.87-1,7.12,7.12,0,0,1,3.78,1A6.82,6.82,0,0,1,224,32.63a9.08,9.08,0,0,1,.91,4.15v.84H214.09A3.7,3.7,0,0,0,215.38,40a4.2,4.2,0,0,0,2.88,1,6.15,6.15,0,0,0,2.12-.39,5,5,0,0,0,1.75-1L223.81,42a7.2,7.2,0,0,1-2.64,1.49,10.55,10.55,0,0,1-3.33.52,8.16,8.16,0,0,1-4-.95,6.91,6.91,0,0,1-2.77-2.67,8.31,8.31,0,0,1-.05-7.85Zm4,.24A3.9,3.9,0,0,0,214,35h7.14a3.66,3.66,0,0,0-1-2.22,3.31,3.31,0,0,0-2.6-1A3.26,3.26,0,0,0,215.08,32.81Z"/><path class="cls-2" d="M237.58,41.79a5.87,5.87,0,0,1-2,1.67,5.42,5.42,0,0,1-2.48.58,6.19,6.19,0,0,1-3.3-.9,6,6,0,0,1-2.29-2.62,9.31,9.31,0,0,1-.83-4.08,9.33,9.33,0,0,1,.83-4,6.28,6.28,0,0,1,2.28-2.66,6,6,0,0,1,3.31-.93,5.55,5.55,0,0,1,2.46.57,5.68,5.68,0,0,1,2,1.65V29.16h3.84V43.65h-3.84Zm0-7.91a3.56,3.56,0,0,0-1.41-1.19,4.19,4.19,0,0,0-1.89-.47,3.36,3.36,0,0,0-2.64,1.16,4.45,4.45,0,0,0-1,3.06,4.49,4.49,0,0,0,1,3,3.34,3.34,0,0,0,2.64,1.17,4.18,4.18,0,0,0,1.89-.46A3.64,3.64,0,0,0,237.58,39Z"/><path class="cls-2" d="M246.24,43a4,4,0,0,1-1-3V23.64H249V39.06a1.77,1.77,0,0,0,.36,1.14,1.17,1.17,0,0,0,1,.45,2.45,2.45,0,0,0,.78-.12,1.11,1.11,0,0,0,.51-.3l.81,2.88a4.63,4.63,0,0,1-3.15.93A4.19,4.19,0,0,1,246.24,43Z"/><path class="cls-2" d="M254.53,39.12a7.65,7.65,0,0,0,2.28,1.38,7.11,7.11,0,0,0,2.73.6,3.44,3.44,0,0,0,1.82-.39,1.23,1.23,0,0,0,.61-1.09,1.14,1.14,0,0,0-.72-1.06,9.29,9.29,0,0,0-2.19-.67,21.46,21.46,0,0,1-2.88-.72,4.72,4.72,0,0,1-2-1.3,3.58,3.58,0,0,1-.84-2.51,4,4,0,0,1,.71-2.28,4.76,4.76,0,0,1,2.05-1.66,7.61,7.61,0,0,1,3.18-.62,9.12,9.12,0,0,1,5.85,2l-1.53,2.61a5.34,5.34,0,0,0-1.84-1.2,6.33,6.33,0,0,0-2.45-.48,3.27,3.27,0,0,0-1.66.36,1.11,1.11,0,0,0-.62,1,1,1,0,0,0,.68.95,10.37,10.37,0,0,0,2.08.61,19.56,19.56,0,0,1,2.91.75,5,5,0,0,1,2,1.39,3.75,3.75,0,0,1,.87,2.62,4.11,4.11,0,0,1-.73,2.39,4.81,4.81,0,0,1-2.16,1.67,8.69,8.69,0,0,1-3.38.6,10.9,10.9,0,0,1-3.61-.6,8.11,8.11,0,0,1-2.87-1.65Z"/><path class="cls-2" d="M13,69.12a7.65,7.65,0,0,0,2.28,1.38,7.11,7.11,0,0,0,2.73.6,3.4,3.4,0,0,0,1.81-.39,1.24,1.24,0,0,0,.62-1.09,1.14,1.14,0,0,0-.72-1.06,9.29,9.29,0,0,0-2.19-.67,21.46,21.46,0,0,1-2.88-.72,4.72,4.72,0,0,1-2-1.3,3.58,3.58,0,0,1-.84-2.51,4,4,0,0,1,.7-2.28,4.79,4.79,0,0,1,2.06-1.66,7.61,7.61,0,0,1,3.18-.62,9.12,9.12,0,0,1,5.85,2L22.1,63.39a5.39,5.39,0,0,0-1.85-1.2,6.28,6.28,0,0,0-2.44-.48,3.31,3.31,0,0,0-1.67.36,1.1,1.1,0,0,0-.61,1,1,1,0,0,0,.67,1,10.51,10.51,0,0,0,2.09.61,19.56,19.56,0,0,1,2.91.75,5,5,0,0,1,2,1.39,3.75,3.75,0,0,1,.87,2.62,4.12,4.12,0,0,1-.74,2.39,4.81,4.81,0,0,1-2.16,1.67,8.64,8.64,0,0,1-3.37.6,11,11,0,0,1-3.62-.6,8.06,8.06,0,0,1-2.86-1.65Z"/><path class="cls-2" d="M28.73,73a3.94,3.94,0,0,1-1.05-3V62.49h-2.4V59.16h2.4v-4h3.84v4h2.94v3.33H31.52v6.57a1.77,1.77,0,0,0,.36,1.14,1.17,1.17,0,0,0,1,.45,2.45,2.45,0,0,0,.78-.12,1.37,1.37,0,0,0,.54-.3L35,73.11a4.68,4.68,0,0,1-3.18.93A4.22,4.22,0,0,1,28.73,73Z"/><path class="cls-2" d="M47,71.79a5.91,5.91,0,0,1-2,1.67,5.38,5.38,0,0,1-2.47.58,6.19,6.19,0,0,1-3.3-.9A6,6,0,0,1,37,70.52a10.49,10.49,0,0,1,0-8.13,6.28,6.28,0,0,1,2.28-2.66,6,6,0,0,1,3.32-.93,5.55,5.55,0,0,1,2.46.57A5.68,5.68,0,0,1,47,61V59.16h3.84V73.65H47Zm0-7.91a3.56,3.56,0,0,0-1.41-1.19,4.19,4.19,0,0,0-1.89-.47,3.36,3.36,0,0,0-2.64,1.16,5.07,5.07,0,0,0,0,6.1,3.34,3.34,0,0,0,2.64,1.17,4.18,4.18,0,0,0,1.89-.46A3.64,3.64,0,0,0,47,69Z"/><path class="cls-2" d="M54.65,59.16h3.81v2a6.38,6.38,0,0,1,2-1.66,5.41,5.41,0,0,1,2.58-.68v3.72a4.83,4.83,0,0,0-1-.12,5,5,0,0,0-2,.48,3.36,3.36,0,0,0-1.53,1.18v9.59H54.65Z"/><path class="cls-2" d="M67.25,73a3.9,3.9,0,0,1-1-3V62.49H63.8V59.16h2.4v-4H70v4H73v3.33H70v6.57a1.77,1.77,0,0,0,.36,1.14,1.17,1.17,0,0,0,1,.45,2.45,2.45,0,0,0,.78-.12,1.37,1.37,0,0,0,.54-.3l.81,2.88a4.68,4.68,0,0,1-3.18.93A4.22,4.22,0,0,1,67.25,73Z"/><path class="cls-2" d="M85.07,73a3.9,3.9,0,0,1-1.06-3V62.49H81.62V59.16H84v-4h3.85v4h2.93v3.33H87.86v6.57a1.76,1.76,0,0,0,.35,1.14,1.18,1.18,0,0,0,1,.45,2.52,2.52,0,0,0,.79-.12,1.37,1.37,0,0,0,.54-.3l.8,2.88a4.68,4.68,0,0,1-3.18.93A4.19,4.19,0,0,1,85.07,73Z"/><path class="cls-2" d="M103.21,64.83a2.59,2.59,0,0,0-.69-2,3,3,0,0,0-2-.6,3.76,3.76,0,0,0-1.89.5,4.52,4.52,0,0,0-1.41,1.21v9.75H93.4v-20h3.81v7.41a6.45,6.45,0,0,1,2.12-1.59,6.62,6.62,0,0,1,3-.66,4.74,4.74,0,0,1,3.53,1.2A4.57,4.57,0,0,1,107,63.36V73.65h-3.81Z"/><path class="cls-2" d="M111.09,56.36a2.21,2.21,0,0,1-.68-1.61,2.28,2.28,0,1,1,4.56,0,2.23,2.23,0,0,1-.66,1.61,2.27,2.27,0,0,1-3.22,0Zm-.29,2.8h3.81V73.65H110.8Z"/><path class="cls-2" d="M118.78,69.12a7.65,7.65,0,0,0,2.28,1.38,7.11,7.11,0,0,0,2.73.6,3.44,3.44,0,0,0,1.82-.39,1.23,1.23,0,0,0,.61-1.09,1.14,1.14,0,0,0-.72-1.06,9.29,9.29,0,0,0-2.19-.67,21.46,21.46,0,0,1-2.88-.72,4.72,4.72,0,0,1-2-1.3,3.58,3.58,0,0,1-.84-2.51,4,4,0,0,1,.71-2.28,4.76,4.76,0,0,1,2.05-1.66,7.61,7.61,0,0,1,3.18-.62,9.12,9.12,0,0,1,5.85,2l-1.53,2.61a5.34,5.34,0,0,0-1.84-1.2,6.33,6.33,0,0,0-2.45-.48,3.27,3.27,0,0,0-1.66.36,1.11,1.11,0,0,0-.62,1,1,1,0,0,0,.68,1,10.37,10.37,0,0,0,2.08.61,19.56,19.56,0,0,1,2.91.75,5,5,0,0,1,2,1.39,3.75,3.75,0,0,1,.87,2.62,4.11,4.11,0,0,1-.73,2.39A4.81,4.81,0,0,1,127,73.44a8.69,8.69,0,0,1-3.38.6,10.9,10.9,0,0,1-3.61-.6,8.11,8.11,0,0,1-2.87-1.65Z"/><path class="cls-2" d="M144.73,60.21V73.65h-4.26v-20h4.38l9.27,13v-13h4.26v20h-4.11Z"/><path class="cls-2" d="M164.92,73a6.91,6.91,0,0,1-2.67-2.77,8.35,8.35,0,0,1,0-7.66,7,7,0,0,1,2.67-2.77,8.61,8.61,0,0,1,8.13,0,7,7,0,0,1,2.67,2.77,8.35,8.35,0,0,1,0,7.66A6.91,6.91,0,0,1,173.05,73a8.61,8.61,0,0,1-8.13,0Zm6.77-3.59a5,5,0,0,0,0-6A3.35,3.35,0,0,0,169,62.19a3.3,3.3,0,0,0-2.7,1.22,5.07,5.07,0,0,0,0,6,3.27,3.27,0,0,0,2.7,1.22A3.32,3.32,0,0,0,171.69,69.43Z"/><path class="cls-2" d="M177.4,59.16h4.08l3.78,10.08L189,59.16h4.11l-5.82,14.49h-4.11Z"/><path class="cls-2" d="M194.89,62.57a7.31,7.31,0,0,1,6.54-3.77,7.12,7.12,0,0,1,3.78,1,6.82,6.82,0,0,1,2.57,2.82,9.08,9.08,0,0,1,.91,4.15v.84H197.92A3.7,3.7,0,0,0,199.21,70a4.2,4.2,0,0,0,2.88,1,6.15,6.15,0,0,0,2.12-.39A5,5,0,0,0,206,69.57L207.64,72A7.2,7.2,0,0,1,205,73.52a10.55,10.55,0,0,1-3.33.52,8.16,8.16,0,0,1-4-1,6.91,6.91,0,0,1-2.77-2.67,8.31,8.31,0,0,1-.05-7.85Zm4,.24a3.9,3.9,0,0,0-1,2.23H205a3.66,3.66,0,0,0-1-2.22,3.31,3.31,0,0,0-2.6-1A3.26,3.26,0,0,0,198.91,62.81Z"/><path class="cls-2" d="M229.42,64.5a2.51,2.51,0,0,0-.52-1.69,2,2,0,0,0-1.64-.62,3.12,3.12,0,0,0-1.72.51,4.69,4.69,0,0,0-1.28,1.17v9.78h-3.84V64.5a2.51,2.51,0,0,0-.52-1.69,2,2,0,0,0-1.64-.62,3.16,3.16,0,0,0-1.71.51,4.39,4.39,0,0,0-1.29,1.2v9.75h-3.81V59.16h3.81v1.89a5.4,5.4,0,0,1,1.89-1.51A5.88,5.88,0,0,1,220,58.8a4.51,4.51,0,0,1,2.58.69A3.68,3.68,0,0,1,224,61.44a6.18,6.18,0,0,1,5-2.64,4.3,4.3,0,0,1,3.15,1.1,4.41,4.41,0,0,1,1.11,3.28V73.65h-3.84Z"/><path class="cls-2" d="M237,53.64h3.81V61a5.68,5.68,0,0,1,2-1.65,5.55,5.55,0,0,1,2.46-.57,6,6,0,0,1,3.32.93,6.28,6.28,0,0,1,2.28,2.66,10.49,10.49,0,0,1,0,8.13,6,6,0,0,1-2.3,2.62,6.19,6.19,0,0,1-3.3.9,5.38,5.38,0,0,1-2.47-.58,5.91,5.91,0,0,1-2-1.67v1.86H237Zm5.22,16.55a4.12,4.12,0,0,0,1.86.46,3.36,3.36,0,0,0,2.67-1.16,4.44,4.44,0,0,0,1-3,4.5,4.5,0,0,0-1-3.07,3.35,3.35,0,0,0-2.67-1.18,4,4,0,0,0-1.86.48,3.68,3.68,0,0,0-1.41,1.21V69A3.76,3.76,0,0,0,242.23,70.19Z"/><path class="cls-2" d="M254.62,62.57a7.31,7.31,0,0,1,6.54-3.77,7.12,7.12,0,0,1,3.78,1,6.82,6.82,0,0,1,2.57,2.82,9.08,9.08,0,0,1,.91,4.15v.84H257.65A3.7,3.7,0,0,0,258.94,70a4.2,4.2,0,0,0,2.88,1,6.15,6.15,0,0,0,2.12-.39,5,5,0,0,0,1.75-1.05L267.37,72a7.2,7.2,0,0,1-2.64,1.49,10.55,10.55,0,0,1-3.33.52,8.16,8.16,0,0,1-4-1,6.91,6.91,0,0,1-2.77-2.67,8.31,8.31,0,0,1,0-7.85Zm4,.24A3.9,3.9,0,0,0,257.59,65h7.14a3.66,3.66,0,0,0-1-2.22,3.31,3.31,0,0,0-2.6-1A3.26,3.26,0,0,0,258.64,62.81Z"/><path class="cls-2" d="M271.18,59.16H275v2a6.38,6.38,0,0,1,2-1.66,5.41,5.41,0,0,1,2.58-.68v3.72a4.83,4.83,0,0,0-1.05-.12,5,5,0,0,0-2,.48A3.36,3.36,0,0,0,275,64.06v9.59h-3.81Z"/><path class="cls-2" d="M279.61,69.9a2.39,2.39,0,1,1-.72,1.71A2.34,2.34,0,0,1,279.61,69.9Z"/></g></g></svg>