<svg xmlns="http://www.w3.org/2000/svg" viewBox="0 0 300 250"><title>sub</title><g id="Layer_2" data-name="Layer 2"><g id="SUBHED"><path d="M20.65,99.62a7,7,0,0,1-2.88-.53,6.16,6.16,0,0,1-2-1.37l1.19-1.64a5.8,5.8,0,0,0,1.58,1.17,4.78,4.78,0,0,0,2.22.5,3.66,3.66,0,0,0,1.11-.14,2.09,2.09,0,0,0,.73-.38A1.41,1.41,0,0,0,23,96.7a1.44,1.44,0,0,0,.13-.6,1.1,1.1,0,0,0-.51-1,4.79,4.79,0,0,0-1.3-.56q-.78-.24-1.68-.45a8.15,8.15,0,0,1-1.68-.6,3.57,3.57,0,0,1-1.3-1,2.81,2.81,0,0,1-.51-1.76,3.08,3.08,0,0,1,.31-1.39,3.42,3.42,0,0,1,.89-1.12,4,4,0,0,1,1.37-.74,5.4,5.4,0,0,1,1.8-.27,6.75,6.75,0,0,1,2.53.44A5.68,5.68,0,0,1,25,88.9l-1.18,1.56a4.47,4.47,0,0,0-1.63-1,5.45,5.45,0,0,0-1.86-.33,2.33,2.33,0,0,0-1.47.41,1.29,1.29,0,0,0-.55,1.08,1,1,0,0,0,.51.87,5.75,5.75,0,0,0,1.3.52l1.68.44a7.67,7.67,0,0,1,1.68.63,3.71,3.71,0,0,1,1.3,1.08,2.9,2.9,0,0,1,.51,1.79A3.83,3.83,0,0,1,25,97.33a3.25,3.25,0,0,1-.83,1.19,4.22,4.22,0,0,1-1.45.81A6.55,6.55,0,0,1,20.65,99.62Z" fill="#e52823"/><path d="M33.05,99.41V93.94a1.68,1.68,0,0,0-.47-1.4,2.05,2.05,0,0,0-1.28-.37,2.47,2.47,0,0,0-1.32.36,3.28,3.28,0,0,0-.91.8v6.08H27.18v-12h1.89v4.48a5.21,5.21,0,0,1,.53-.5,3.9,3.9,0,0,1,.71-.45,3.64,3.64,0,0,1,.84-.31,3.87,3.87,0,0,1,1-.12,2.86,2.86,0,0,1,2.11.7,2.77,2.77,0,0,1,.7,2v6.16Z" fill="#e52823"/><path d="M41.33,99.62a4.62,4.62,0,0,1-1.87-.36,4.48,4.48,0,0,1-1.41-1,4.55,4.55,0,0,1-.88-1.45,5.34,5.34,0,0,1,0-3.53,4.44,4.44,0,0,1,.88-1.45,4.3,4.3,0,0,1,1.41-1,5,5,0,0,1,3.74,0,4.3,4.3,0,0,1,1.41,1,4.44,4.44,0,0,1,.88,1.45,5.34,5.34,0,0,1,0,3.53,4.55,4.55,0,0,1-.88,1.45,4.48,4.48,0,0,1-1.41,1A4.62,4.62,0,0,1,41.33,99.62Zm0-1.67a2.45,2.45,0,0,0,1.08-.23,2.41,2.41,0,0,0,.78-.63,2.93,2.93,0,0,0,.48-.93,3.68,3.68,0,0,0,.16-1.11A3.55,3.55,0,0,0,43.67,94a2.78,2.78,0,0,0-.48-.92,2.17,2.17,0,0,0-.78-.63,2.32,2.32,0,0,0-1.08-.24,2.27,2.27,0,0,0-1.06.24,2.21,2.21,0,0,0-.79.63A2.62,2.62,0,0,0,39,94a3.55,3.55,0,0,0-.16,1.09A3.68,3.68,0,0,0,39,96.16a2.76,2.76,0,0,0,.49.93,2.45,2.45,0,0,0,.79.63A2.39,2.39,0,0,0,41.33,98Z" fill="#e52823"/><path d="M52.4,99.62a3.39,3.39,0,0,1-1.54-.36,3.91,3.91,0,0,1-1.25-1.06v4.52H47.72v-12h1.89V91.9a3.51,3.51,0,0,1,1.21-1,3.24,3.24,0,0,1,1.58-.38,3.77,3.77,0,0,1,1.55.31,3.31,3.31,0,0,1,1.21.89,4,4,0,0,1,.8,1.43,5.7,5.7,0,0,1,.29,1.92A5.76,5.76,0,0,1,56,97a4.06,4.06,0,0,1-.8,1.43,3.46,3.46,0,0,1-1.21.9A3.77,3.77,0,0,1,52.4,99.62ZM51.84,98a2.2,2.2,0,0,0,1.8-.81,3.58,3.58,0,0,0,0-4.17,2.22,2.22,0,0,0-1.8-.8,2.58,2.58,0,0,0-1.28.34,2.49,2.49,0,0,0-1,.82v3.43a2,2,0,0,0,.41.47,2.62,2.62,0,0,0,.54.38,2.51,2.51,0,0,0,.63.25A2.48,2.48,0,0,0,51.84,98Z" fill="#e52823"/><path d="M62.79,99.41v-12h1.89v4.52a3.34,3.34,0,0,1,1.25-1.06,3.42,3.42,0,0,1,1.54-.36,3.77,3.77,0,0,1,1.55.31,3.47,3.47,0,0,1,1.23.91,4.37,4.37,0,0,1,.8,1.44,6,6,0,0,1,.29,1.89A6,6,0,0,1,71.05,97a4.21,4.21,0,0,1-.81,1.44,3.38,3.38,0,0,1-1.23.9,4,4,0,0,1-1.54.3,3.33,3.33,0,0,1-1.57-.37,3.67,3.67,0,0,1-1.22-1v1.19Zm1.89-2.61a2.54,2.54,0,0,0,.94.82,2.77,2.77,0,0,0,1.31.33,2.19,2.19,0,0,0,1.79-.81,3.19,3.19,0,0,0,.65-2.09,3.62,3.62,0,0,0-.17-1.16,2.75,2.75,0,0,0-.49-.91,2.37,2.37,0,0,0-.78-.59,2.33,2.33,0,0,0-1-.22,2.68,2.68,0,0,0-1.31.35,2.54,2.54,0,0,0-.94.82Z" fill="#e52823"/><path d="M74.2,89.65A1.16,1.16,0,0,1,73,88.48a1.09,1.09,0,0,1,.34-.82,1.13,1.13,0,0,1,.83-.35,1.18,1.18,0,0,1,1.17,1.17,1.16,1.16,0,0,1-.34.83A1.13,1.13,0,0,1,74.2,89.65Zm-1,9.76v-8.7h1.89v8.7Z" fill="#e52823"/><path d="M81.13,102.94a6.57,6.57,0,0,1-2-.28,4.69,4.69,0,0,1-1.68-1l.89-1.37a3,3,0,0,0,1.22.87,4.66,4.66,0,0,0,1.55.25,3.71,3.71,0,0,0,.93-.12,2.24,2.24,0,0,0,.82-.4,2.12,2.12,0,0,0,.6-.75A2.64,2.64,0,0,0,83.7,99V98A3.83,3.83,0,0,1,82.49,99a3.25,3.25,0,0,1-1.58.4,4,4,0,0,1-1.54-.3,3.51,3.51,0,0,1-1.22-.86,4.07,4.07,0,0,1-.8-1.4A5.85,5.85,0,0,1,77.06,95a5.77,5.77,0,0,1,.29-1.89,4.07,4.07,0,0,1,.8-1.4,3.34,3.34,0,0,1,1.21-.87,3.93,3.93,0,0,1,1.55-.3,3.43,3.43,0,0,1,1.55.36,3.47,3.47,0,0,1,1.24,1.06V90.71h1.89V99a4.27,4.27,0,0,1-.39,1.94,3.32,3.32,0,0,1-1,1.23,3.9,3.9,0,0,1-1.44.63A7.18,7.18,0,0,1,81.13,102.94Zm.34-5.2a2.66,2.66,0,0,0,1.29-.35,2.52,2.52,0,0,0,.94-.81V93.33a2.52,2.52,0,0,0-.94-.81,2.66,2.66,0,0,0-1.29-.35,2.26,2.26,0,0,0-1.8.77,3.38,3.38,0,0,0,0,4A2.28,2.28,0,0,0,81.47,97.74Z" fill="#e52823"/><path d="M98.8,99.41V98.22a3.74,3.74,0,0,1-1.21,1,3.32,3.32,0,0,1-1.58.37,3.87,3.87,0,0,1-1.53-.3,3.22,3.22,0,0,1-1.23-.9,4.37,4.37,0,0,1-.8-1.44,6,6,0,0,1-.29-1.93,6,6,0,0,1,.29-1.89,4.37,4.37,0,0,1,.8-1.44,3.52,3.52,0,0,1,1.22-.91A3.69,3.69,0,0,1,96,90.5a3.4,3.4,0,0,1,2.79,1.42V87.4h1.89v12ZM96.57,98a2.5,2.5,0,0,0,.66-.09,2.85,2.85,0,0,0,.63-.25,3,3,0,0,0,.54-.37,1.92,1.92,0,0,0,.4-.46V93.34a2.7,2.7,0,0,0-.4-.45,2.58,2.58,0,0,0-.54-.37,2.89,2.89,0,0,0-.63-.26,2.5,2.5,0,0,0-.66-.09,2.34,2.34,0,0,0-1.8.81,2.75,2.75,0,0,0-.49.91,3.62,3.62,0,0,0-.17,1.16,3.58,3.58,0,0,0,.17,1.16,2.7,2.7,0,0,0,.49.92,2.43,2.43,0,0,0,.78.61A2.38,2.38,0,0,0,96.57,98Z" fill="#e52823"/><path d="M104.1,89.65a1.16,1.16,0,0,1-1.17-1.17,1.09,1.09,0,0,1,.34-.82,1.13,1.13,0,0,1,.83-.35,1.2,1.2,0,0,1,1.17,1.17,1.13,1.13,0,0,1-.35.83A1.09,1.09,0,0,1,104.1,89.65Zm-1,9.76v-8.7H105v8.7Z" fill="#e52823"/><path d="M110.47,99.62a5.88,5.88,0,0,1-2.09-.35,4.58,4.58,0,0,1-1.64-1l.87-1.35a4.43,4.43,0,0,0,.55.45,4.89,4.89,0,0,0,.72.38,4.14,4.14,0,0,0,.82.27,3.5,3.5,0,0,0,.84.1,2.21,2.21,0,0,0,1.3-.31,1,1,0,0,0,.43-.84.7.7,0,0,0-.39-.65,4.3,4.3,0,0,0-1-.36c-.39-.09-.81-.19-1.27-.28a5.6,5.6,0,0,1-1.27-.44,2.83,2.83,0,0,1-1-.77,2.08,2.08,0,0,1-.39-1.33,2.38,2.38,0,0,1,.23-1,2.51,2.51,0,0,1,.65-.84,3.07,3.07,0,0,1,1.08-.56,4.63,4.63,0,0,1,1.46-.21,5.12,5.12,0,0,1,2,.34,5,5,0,0,1,1.41.87L113,93a3.22,3.22,0,0,0-1.07-.74,3.7,3.7,0,0,0-1.51-.31,2,2,0,0,0-1.18.31.91.91,0,0,0-.42.77.62.62,0,0,0,.39.58,4.38,4.38,0,0,0,1,.33l1.27.29a5.31,5.31,0,0,1,1.27.45,2.83,2.83,0,0,1,1,.81,2.22,2.22,0,0,1,.39,1.38,2.51,2.51,0,0,1-.24,1.08,2.27,2.27,0,0,1-.69.86,3.53,3.53,0,0,1-1.13.57A5.28,5.28,0,0,1,110.47,99.62Z" fill="#e52823"/><path d="M119.94,99.62a4.6,4.6,0,0,1-1.81-.34,4.08,4.08,0,0,1-1.42-1,4.43,4.43,0,0,1-.92-1.45,4.77,4.77,0,0,1-.34-1.83,4.63,4.63,0,0,1,.34-1.81,4.43,4.43,0,0,1,.92-1.45,4.37,4.37,0,0,1,1.42-1,4.6,4.6,0,0,1,1.81-.34,5.17,5.17,0,0,1,1.16.12A4,4,0,0,1,122,91a3.71,3.71,0,0,1,.71.49,5,5,0,0,1,.54.59L122,93.18a2.31,2.31,0,0,0-2-1,2.45,2.45,0,0,0-1.91.8,3,3,0,0,0-.72,2.08,3.32,3.32,0,0,0,.19,1.16,2.49,2.49,0,0,0,.54.92,2.52,2.52,0,0,0,.83.61A2.59,2.59,0,0,0,120,98a2.32,2.32,0,0,0,2-1l1.25,1.17A4.49,4.49,0,0,1,122,99.16,4.07,4.07,0,0,1,119.94,99.62Z" fill="#e52823"/><path d="M128.88,99.62a4.65,4.65,0,0,1-1.87-.36,4.32,4.32,0,0,1-1.4-1,4.4,4.4,0,0,1-.89-1.45,5.34,5.34,0,0,1,0-3.53,4.3,4.3,0,0,1,.89-1.45,4.15,4.15,0,0,1,1.4-1,5,5,0,0,1,3.74,0,4.2,4.2,0,0,1,1.41,1,4.28,4.28,0,0,1,.88,1.45,5.18,5.18,0,0,1,0,3.53,4.17,4.17,0,0,1-2.29,2.44A4.62,4.62,0,0,1,128.88,99.62Zm0-1.67a2.45,2.45,0,0,0,1.08-.23,2.41,2.41,0,0,0,.78-.63,2.93,2.93,0,0,0,.48-.93,3.68,3.68,0,0,0,.16-1.11,3.55,3.55,0,0,0-.16-1.09,2.78,2.78,0,0,0-.48-.92,2.17,2.17,0,0,0-.78-.63,2.32,2.32,0,0,0-1.08-.24,2.3,2.3,0,0,0-1.06.24A2.21,2.21,0,0,0,127,93a2.62,2.62,0,0,0-.49.92,3.55,3.55,0,0,0-.16,1.09,3.68,3.68,0,0,0,.16,1.11,2.76,2.76,0,0,0,.49.93,2.3,2.3,0,0,0,1.85.86Z" fill="#e52823"/><path d="M141.14,99.41V98.26a4.49,4.49,0,0,1-1.25.94,3.78,3.78,0,0,1-1.81.42,2.48,2.48,0,0,1-2.81-2.75V90.71h1.89v5.46a1.69,1.69,0,0,0,.48,1.39,2,2,0,0,0,1.29.39,2.51,2.51,0,0,0,1.3-.35,3.09,3.09,0,0,0,.91-.78V90.71H143v8.7Z" fill="#e52823"/><path d="M151.36,99.41V94a1.77,1.77,0,0,0-.47-1.41,2,2,0,0,0-1.29-.39,2.46,2.46,0,0,0-1.31.36,3.49,3.49,0,0,0-.92.8v6.08h-1.89v-8.7h1.89v1.17a4.33,4.33,0,0,1,.53-.5,4.06,4.06,0,0,1,1.56-.76,4,4,0,0,1,1-.12,2.49,2.49,0,0,1,2.8,2.79v6.12Z" fill="#e52823"/><path d="M158.33,99.62a2.22,2.22,0,0,1-1.67-.57,2.27,2.27,0,0,1-.56-1.67v-5h-1.44V90.71h1.44V88.34H158v2.37h1.76v1.64H158v4.56a1.29,1.29,0,0,0,.2.74.71.71,0,0,0,.62.3,1.15,1.15,0,0,0,.5-.1.86.86,0,0,0,.33-.22l.45,1.44a2,2,0,0,1-.68.39A3.08,3.08,0,0,1,158.33,99.62Z" fill="#e52823"/><path d="M164.43,99.62a5.88,5.88,0,0,1-2.09-.35,4.53,4.53,0,0,1-1.63-1l.86-1.35a3.92,3.92,0,0,0,.56.45,4.06,4.06,0,0,0,.72.38,3.76,3.76,0,0,0,.82.27,3.42,3.42,0,0,0,.83.1,2.21,2.21,0,0,0,1.3-.31,1,1,0,0,0,.43-.84.7.7,0,0,0-.39-.65,4.13,4.13,0,0,0-1-.36c-.39-.09-.81-.19-1.27-.28a5.77,5.77,0,0,1-1.27-.44,2.83,2.83,0,0,1-1-.77,2.08,2.08,0,0,1-.39-1.33,2.38,2.38,0,0,1,.23-1,2.41,2.41,0,0,1,.66-.84,2.93,2.93,0,0,1,1.07-.56,4.63,4.63,0,0,1,1.46-.21,5.12,5.12,0,0,1,2,.34,4.68,4.68,0,0,1,1.41.87L167,93a3.12,3.12,0,0,0-1.07-.74,3.67,3.67,0,0,0-1.51-.31,2,2,0,0,0-1.17.31.9.9,0,0,0-.43.77.62.62,0,0,0,.39.58,4.38,4.38,0,0,0,1,.33l1.27.29a5.16,5.16,0,0,1,1.27.45,2.83,2.83,0,0,1,1,.81,2.22,2.22,0,0,1,.39,1.38,2.51,2.51,0,0,1-.24,1.08,2.27,2.27,0,0,1-.69.86,3.42,3.42,0,0,1-1.13.57A5.28,5.28,0,0,1,164.43,99.62Z" fill="#e52823"/><path d="M180.25,99.62a6.39,6.39,0,0,1-2.47-.46,6,6,0,0,1-1.95-1.3,5.82,5.82,0,0,1-1.27-2,7.09,7.09,0,0,1,0-5,5.82,5.82,0,0,1,1.27-2,6.11,6.11,0,0,1,1.95-1.3,6.89,6.89,0,0,1,4.95,0,5.82,5.82,0,0,1,3.2,3.26,6.94,6.94,0,0,1,0,5,6,6,0,0,1-1.27,2,5.76,5.76,0,0,1-1.93,1.3A6.44,6.44,0,0,1,180.25,99.62Zm0-1.87a4,4,0,0,0,1.64-.33,3.7,3.7,0,0,0,1.26-.91,3.77,3.77,0,0,0,.8-1.38,5.42,5.42,0,0,0,0-3.44,3.8,3.8,0,0,0-2.06-2.28,4,4,0,0,0-1.64-.33,3.91,3.91,0,0,0-1.64.33,3.84,3.84,0,0,0-1.26.91,4.12,4.12,0,0,0-.8,1.37,5.42,5.42,0,0,0,0,3.44,4.07,4.07,0,0,0,.8,1.38,3.7,3.7,0,0,0,1.26.91A3.91,3.91,0,0,0,180.25,97.75Z" fill="#e52823"/><path d="M192.31,99.62a4.63,4.63,0,0,1-1.81-.34,4.13,4.13,0,0,1-1.41-1,4.3,4.3,0,0,1-.93-1.45,5,5,0,0,1-.33-1.83,4.82,4.82,0,0,1,.33-1.81,4.3,4.3,0,0,1,.93-1.45,4.44,4.44,0,0,1,1.41-1,4.63,4.63,0,0,1,1.81-.34,5.11,5.11,0,0,1,1.16.12,4,4,0,0,1,.92.35,3.42,3.42,0,0,1,.71.49,3.7,3.7,0,0,1,.54.59l-1.24,1.13a2.33,2.33,0,0,0-2-1,2.46,2.46,0,0,0-1.91.8,3,3,0,0,0-.72,2.08,3.57,3.57,0,0,0,.19,1.16,2.8,2.8,0,0,0,.54.92,2.63,2.63,0,0,0,.83.61,2.65,2.65,0,0,0,1.07.21,2.33,2.33,0,0,0,2-1l1.24,1.17a4.22,4.22,0,0,1-1.26,1.08A4.07,4.07,0,0,1,192.31,99.62Z" fill="#e52823"/><path d="M199.94,99.62a2.24,2.24,0,0,1-1.67-.57,2.31,2.31,0,0,1-.56-1.67v-5h-1.44V90.71h1.44V88.34h1.89v2.37h1.77v1.64H199.6v4.56a1.22,1.22,0,0,0,.21.74.7.7,0,0,0,.62.3,1.13,1.13,0,0,0,.49-.1.91.91,0,0,0,.34-.22l.45,1.44a2,2,0,0,1-.69.39A3,3,0,0,1,199.94,99.62Z" fill="#e52823"/><path d="M209.93,99.41V90.12l-2,2-1.22-1.27,3.45-3.5H212v12Z" fill="#e52823"/><path d="M215.5,99.41,220,89.28H213.8V87.4h8.66v1.46l-4.64,10.55Z" fill="#e52823"/><path d="M223.43,95.86V94.24h4.32v1.62Z" fill="#e52823"/><path d="M231.75,99.41V90.12l-2,2-1.23-1.27L232,87.4h1.83v12Z" fill="#e52823"/><path d="M240.5,99.62a7.19,7.19,0,0,1-1.76-.21,4.67,4.67,0,0,1-1.47-.63,3,3,0,0,1-1-1,2.7,2.7,0,0,1-.37-1.43,2.66,2.66,0,0,1,.21-1,3.09,3.09,0,0,1,.59-.88,4.2,4.2,0,0,1,.86-.69,5.72,5.72,0,0,1,1-.47,5.17,5.17,0,0,1-1-.42,3,3,0,0,1-.8-.6,2.57,2.57,0,0,1-.54-.8,2.4,2.4,0,0,1-.2-1,2.65,2.65,0,0,1,.38-1.43,3.09,3.09,0,0,1,1-1,4.84,4.84,0,0,1,1.42-.56,7.07,7.07,0,0,1,3.17,0,4.84,4.84,0,0,1,1.42.56,3.09,3.09,0,0,1,1,1,2.64,2.64,0,0,1-.35,3.26,3.42,3.42,0,0,1-.8.6,5.82,5.82,0,0,1-1,.42,6,6,0,0,1,1,.47,4,4,0,0,1,.86.69,2.89,2.89,0,0,1,.59.88,2.66,2.66,0,0,1,.21,1,2.7,2.7,0,0,1-.37,1.43,3.34,3.34,0,0,1-1,1,4.67,4.67,0,0,1-1.47.63A7.17,7.17,0,0,1,240.5,99.62Zm0-1.87a4,4,0,0,0,.94-.11,2.54,2.54,0,0,0,.78-.35,1.74,1.74,0,0,0,.54-.54A1.23,1.23,0,0,0,243,96a1.18,1.18,0,0,0-.28-.8,2.66,2.66,0,0,0-.67-.57,3.68,3.68,0,0,0-.82-.35,4.84,4.84,0,0,0-.69-.17,4.44,4.44,0,0,0-.71.17,3.25,3.25,0,0,0-.81.35,2.85,2.85,0,0,0-.67.57,1.18,1.18,0,0,0-.28.8,1.3,1.3,0,0,0,.19.71,1.7,1.7,0,0,0,.53.54,2.77,2.77,0,0,0,.78.35A4.23,4.23,0,0,0,240.5,97.75Zm0-5.38.66-.16a2.76,2.76,0,0,0,.75-.31,2.19,2.19,0,0,0,.6-.49,1.06,1.06,0,0,0,.25-.71,1.33,1.33,0,0,0-.64-1.19,3,3,0,0,0-1.62-.42,2.91,2.91,0,0,0-1.62.42,1.32,1.32,0,0,0-.65,1.19,1.06,1.06,0,0,0,.25.71,2.09,2.09,0,0,0,.61.49,3,3,0,0,0,.75.31Z" fill="#e52823"/></g><g id="rec"><rect width="300" height="250" fill="none"/></g></g></svg>