<svg xmlns="http://www.w3.org/2000/svg" xmlns:xlink="http://www.w3.org/1999/xlink" viewBox="0 0 300 250"><defs><clipPath id="clip-path"><rect x="0.89" y="115.3" width="138.93" height="107.35" fill="none"/></clipPath></defs><g id="Layer_2" data-name="Layer 2"><g id="Layer_1-2" data-name="Layer 1"><g id="Layer_1-3" data-name="Layer 1"><rect width="300" height="250"/></g><rect x="120.17" y="146.11" width="179.83" height="103.27" fill="none"/><rect width="300" height="250" fill="none"/><path d="M15.07,16.41H26.19a6.83,6.83,0,0,1,3.31.75,5.13,5.13,0,0,1,2.08,2,5.35,5.35,0,0,1,.69,2.68,5,5,0,0,1-1,3.23,4.4,4.4,0,0,1-2.6,1.61,4.39,4.39,0,0,1,2.88,1.75,5.42,5.42,0,0,1,1.18,3.45,5.5,5.5,0,0,1-1.62,4.08,6.12,6.12,0,0,1-4.53,1.62H15.07ZM25.21,24.9A2.47,2.47,0,0,0,27,24.25a2.25,2.25,0,0,0,.66-1.69A2.22,2.22,0,0,0,27,20.91a2.46,2.46,0,0,0-1.79-.66H19.57V24.9Zm.16,8.81a2.81,2.81,0,0,0,2-.68,2.37,2.37,0,0,0,.73-1.83,2.33,2.33,0,0,0-.73-1.75,2.7,2.7,0,0,0-2-.72h-5.8v5Z" fill="#fff"/><path d="M37.07,36.89A4.17,4.17,0,0,1,36,33.76V16.41h4V32.69a1.9,1.9,0,0,0,.38,1.21,1.24,1.24,0,0,0,1,.47,2.78,2.78,0,0,0,.83-.12,1.24,1.24,0,0,0,.54-.32l.85,3a4.91,4.91,0,0,1-3.32,1A4.43,4.43,0,0,1,37.07,36.89Z" fill="#fff"/><path d="M55.93,35.58a6.15,6.15,0,0,1-2.1,1.75,5.65,5.65,0,0,1-2.62.62,6.54,6.54,0,0,1-3.48-1,6.41,6.41,0,0,1-2.42-2.76,9.77,9.77,0,0,1-.88-4.32,9.69,9.69,0,0,1,.88-4.27,6.62,6.62,0,0,1,2.4-2.8,6.33,6.33,0,0,1,3.5-1,5.9,5.9,0,0,1,4.72,2.35v-2H60v15.3H55.93Zm0-8.36A3.65,3.65,0,0,0,54.44,26a4.38,4.38,0,0,0-2-.5,3.54,3.54,0,0,0-2.79,1.23,4.68,4.68,0,0,0-1.08,3.22,4.69,4.69,0,0,0,1.08,3.21,3.52,3.52,0,0,0,2.79,1.24,4.36,4.36,0,0,0,2-.49,3.74,3.74,0,0,0,1.49-1.26Z" fill="#fff"/><path d="M64,25.75a7.54,7.54,0,0,1,2.88-2.86,8.38,8.38,0,0,1,4.18-1,8,8,0,0,1,3.68.78,6.39,6.39,0,0,1,2.37,2l-2.63,2.47a3.64,3.64,0,0,0-3.23-1.65,4,4,0,0,0-3,1.22,4.54,4.54,0,0,0-1.16,3.23,4.54,4.54,0,0,0,1.16,3.24,4,4,0,0,0,6.22-.4l2.63,2.43a6.49,6.49,0,0,1-2.36,2A7.81,7.81,0,0,1,71.1,38a8.38,8.38,0,0,1-4.18-1A7.54,7.54,0,0,1,64,34.06a8.17,8.17,0,0,1-1-4.17A8.16,8.16,0,0,1,64,25.75Z" fill="#fff"/><path d="M85.64,31.65l-1.84,2v3.93h-4V16.41h4V29.05l5.8-6.81h4.94l-6.05,6.94,6.24,8.36h-5Z" fill="#fff"/><path d="M104.93,16.41h14.95v3.87H109.43v4.59h10.23v3.86H109.43v8.81h-4.5Z" fill="#fff"/><path d="M122.92,22.24h4v2.09a6.92,6.92,0,0,1,2.16-1.76,5.72,5.72,0,0,1,2.72-.71v3.93a4.8,4.8,0,0,0-1.11-.13,5.29,5.29,0,0,0-2.15.51,3.63,3.63,0,0,0-1.62,1.24V37.54h-4Z" fill="#fff"/><path d="M134.62,19.28A2.41,2.41,0,0,1,138,15.87a2.45,2.45,0,0,1,0,3.41,2.4,2.4,0,0,1-3.41,0Zm-.3,3h4v15.3h-4Z" fill="#fff"/><path d="M152.85,35.58a6.1,6.1,0,0,1-2.11,1.75,5.58,5.58,0,0,1-2.61.62,6.54,6.54,0,0,1-3.48-1,6.43,6.43,0,0,1-2.43-2.76,9.91,9.91,0,0,1-.87-4.32,9.83,9.83,0,0,1,.87-4.27,6.64,6.64,0,0,1,2.41-2.8,6.31,6.31,0,0,1,3.5-1,5.9,5.9,0,0,1,4.72,2.35v-7.8h4.05V37.54h-4.05Zm0-8.39a3.74,3.74,0,0,0-1.49-1.26,4.36,4.36,0,0,0-2-.49,3.52,3.52,0,0,0-2.79,1.24,4.77,4.77,0,0,0-1.08,3.24,4.69,4.69,0,0,0,1.08,3.21,3.52,3.52,0,0,0,2.79,1.24,4.36,4.36,0,0,0,2-.49,3.74,3.74,0,0,0,1.49-1.26Z" fill="#fff"/><path d="M171.41,35.58a6.1,6.1,0,0,1-2.11,1.75,5.58,5.58,0,0,1-2.61.62,6.54,6.54,0,0,1-3.48-1,6.43,6.43,0,0,1-2.43-2.76,9.91,9.91,0,0,1-.87-4.32,9.83,9.83,0,0,1,.87-4.27,6.64,6.64,0,0,1,2.41-2.8,6.33,6.33,0,0,1,3.5-1,5.9,5.9,0,0,1,4.72,2.35v-2h4.05v15.3h-4.05Zm0-8.36A3.65,3.65,0,0,0,169.92,26a4.38,4.38,0,0,0-2-.5,3.54,3.54,0,0,0-2.79,1.23,4.68,4.68,0,0,0-1.08,3.22,4.69,4.69,0,0,0,1.08,3.21,3.52,3.52,0,0,0,2.79,1.24,4.36,4.36,0,0,0,2-.49,3.74,3.74,0,0,0,1.49-1.26Z" fill="#fff"/><path d="M181.07,38.55a4.81,4.81,0,0,0,2,1.43,7.21,7.21,0,0,0,2.56.47,4.23,4.23,0,0,0,3-1,3.81,3.81,0,0,0,1.08-2.91V34.94a7.14,7.14,0,0,1-5.38,2.31A5,5,0,0,1,180.69,36a4.9,4.9,0,0,1-1.24-3.55V22.24h4v8.62a2.79,2.79,0,0,0,.73,2.17,3,3,0,0,0,2.09.65,4,4,0,0,0,2-.51,4.82,4.82,0,0,0,1.49-1.24V22.24h4v14.1a6.9,6.9,0,0,1-2.2,5.46,8.64,8.64,0,0,1-5.94,2,9.34,9.34,0,0,1-6.39-2.28Z" fill="#fff"/><path d="M216.42,35.58a6.19,6.19,0,0,1-2.11,1.75,5.58,5.58,0,0,1-2.61.62,6.6,6.6,0,0,1-3.49-1,6.48,6.48,0,0,1-2.42-2.76,9.91,9.91,0,0,1-.87-4.32,9.83,9.83,0,0,1,.87-4.27,6.57,6.57,0,0,1,2.41-2.8,6.31,6.31,0,0,1,3.5-1,5.9,5.9,0,0,1,4.72,2.35v-7.8h4.05V37.54h-4.05Zm0-8.39a3.81,3.81,0,0,0-1.49-1.26,4.4,4.4,0,0,0-2-.49,3.48,3.48,0,0,0-2.78,1.24,4.77,4.77,0,0,0-1.08,3.24,4.69,4.69,0,0,0,1.08,3.21,3.48,3.48,0,0,0,2.78,1.24,4.4,4.4,0,0,0,2-.49,3.81,3.81,0,0,0,1.49-1.26Z" fill="#fff"/><path d="M224.49,25.84a7.74,7.74,0,0,1,6.91-4,7.58,7.58,0,0,1,4,1.06,7.25,7.25,0,0,1,2.71,3,9.68,9.68,0,0,1,1,4.39v.88H227.69a3.9,3.9,0,0,0,1.37,2.56,4.45,4.45,0,0,0,3,1,6.54,6.54,0,0,0,2.23-.41,5,5,0,0,0,1.85-1.11l1.78,2.6a7.56,7.56,0,0,1-2.79,1.57,11.13,11.13,0,0,1-3.52.55,8.69,8.69,0,0,1-4.18-1,7.36,7.36,0,0,1-2.93-2.82,8.82,8.82,0,0,1,0-8.29Zm4.25.25a4.12,4.12,0,0,0-1.11,2.36h7.54a3.89,3.89,0,0,0-1-2.34,3.48,3.48,0,0,0-2.74-1.05A3.42,3.42,0,0,0,228.74,26.09Z" fill="#fff"/><path d="M252.49,35.58a6.15,6.15,0,0,1-2.1,1.75,5.65,5.65,0,0,1-2.62.62,6.56,6.56,0,0,1-3.48-1,6.41,6.41,0,0,1-2.42-2.76,9.91,9.91,0,0,1-.87-4.32,9.83,9.83,0,0,1,.87-4.27,6.62,6.62,0,0,1,2.4-2.8,6.33,6.33,0,0,1,3.5-1,5.9,5.9,0,0,1,4.72,2.35v-2h4.06v15.3h-4.06Zm0-8.36A3.58,3.58,0,0,0,251,26a4.38,4.38,0,0,0-2-.5,3.54,3.54,0,0,0-2.79,1.23,4.68,4.68,0,0,0-1.08,3.22,4.69,4.69,0,0,0,1.08,3.21A3.52,3.52,0,0,0,249,34.37a4.36,4.36,0,0,0,2-.49,3.68,3.68,0,0,0,1.49-1.26Z" fill="#fff"/><path d="M261.63,36.89a4.17,4.17,0,0,1-1.09-3.13V16.41h4V32.69a1.9,1.9,0,0,0,.38,1.21,1.24,1.24,0,0,0,1,.47,2.78,2.78,0,0,0,.83-.12,1.24,1.24,0,0,0,.54-.32l.85,3a4.91,4.91,0,0,1-3.32,1A4.43,4.43,0,0,1,261.63,36.89Z" fill="#fff"/><path d="M270.39,32.76a8,8,0,0,0,2.4,1.45,7.43,7.43,0,0,0,2.89.64,3.54,3.54,0,0,0,1.91-.42,1.29,1.29,0,0,0,.65-1.15,1.21,1.21,0,0,0-.76-1.12,9.76,9.76,0,0,0-2.31-.7,23.08,23.08,0,0,1-3-.76A5.1,5.1,0,0,1,270,29.32a3.75,3.75,0,0,1-.89-2.64,4.21,4.21,0,0,1,.75-2.41,5,5,0,0,1,2.17-1.76,8.07,8.07,0,0,1,3.35-.65A9.64,9.64,0,0,1,281.6,24L280,26.71A5.59,5.59,0,0,0,278,25.44a6.67,6.67,0,0,0-2.58-.51,3.51,3.51,0,0,0-1.76.38,1.17,1.17,0,0,0-.65,1.05,1.08,1.08,0,0,0,.71,1A11.13,11.13,0,0,0,276,28a19.58,19.58,0,0,1,3.07.79,5.25,5.25,0,0,1,2.16,1.46,4,4,0,0,1,.92,2.77,4.32,4.32,0,0,1-.78,2.52,5.17,5.17,0,0,1-2.28,1.77,9.17,9.17,0,0,1-3.56.63,11.59,11.59,0,0,1-3.82-.63,8.48,8.48,0,0,1-3-1.74Z" fill="#fff"/><path d="M15.39,64.43a8.27,8.27,0,0,0,2.41,1.46,7.51,7.51,0,0,0,2.88.63,3.58,3.58,0,0,0,1.92-.42A1.3,1.3,0,0,0,23.25,65a1.2,1.2,0,0,0-.76-1.11,9.49,9.49,0,0,0-2.32-.71,22,22,0,0,1-3-.76A4.91,4.91,0,0,1,15,61a3.74,3.74,0,0,1-.88-2.64,4.2,4.2,0,0,1,.74-2.41,5.13,5.13,0,0,1,2.17-1.76,8.09,8.09,0,0,1,3.36-.65,9.64,9.64,0,0,1,6.17,2.09L25,58.38A5.73,5.73,0,0,0,23,57.11a6.78,6.78,0,0,0-2.58-.5A3.41,3.41,0,0,0,18.7,57a1.16,1.16,0,0,0-.65,1,1.07,1.07,0,0,0,.71,1,11.05,11.05,0,0,0,2.21.65,21.44,21.44,0,0,1,3.07.79,5.31,5.31,0,0,1,2.15,1.47,4,4,0,0,1,.92,2.76,4.37,4.37,0,0,1-.78,2.53A5,5,0,0,1,24.05,69a9.17,9.17,0,0,1-3.56.63A11.64,11.64,0,0,1,16.67,69a8.48,8.48,0,0,1-3-1.74Z" fill="#fff"/><path d="M32,68.54a4.12,4.12,0,0,1-1.11-3.11v-8H28.35V53.91h2.53V49.73h4.05v4.18H38v3.52H34.93v6.93a1.9,1.9,0,0,0,.38,1.21,1.24,1.24,0,0,0,1,.48,2.71,2.71,0,0,0,.82-.13,1.52,1.52,0,0,0,.57-.32l.86,3a4.92,4.92,0,0,1-3.36,1A4.44,4.44,0,0,1,32,68.54Z" fill="#fff"/><path d="M51.31,67.25A6.33,6.33,0,0,1,49.2,69a5.69,5.69,0,0,1-2.61.61,6.45,6.45,0,0,1-3.48-1,6.32,6.32,0,0,1-2.43-2.76,11,11,0,0,1,0-8.58,6.54,6.54,0,0,1,2.41-2.81,6.31,6.31,0,0,1,3.5-1,5.91,5.91,0,0,1,2.6.61,6,6,0,0,1,2.12,1.74v-2h4v15.3h-4Zm0-8.36a3.8,3.8,0,0,0-1.49-1.25,4.39,4.39,0,0,0-2-.5A3.51,3.51,0,0,0,45,58.37a5.34,5.34,0,0,0,0,6.44,3.52,3.52,0,0,0,2.78,1.24,4.39,4.39,0,0,0,2-.5,3.8,3.8,0,0,0,1.49-1.25Z" fill="#fff"/><path d="M59.35,53.91h4V56a6.51,6.51,0,0,1,2.15-1.76,5.65,5.65,0,0,1,2.72-.72v3.93a5.36,5.36,0,0,0-1.1-.12,5.28,5.28,0,0,0-2.16.5,3.54,3.54,0,0,0-1.61,1.24V69.21h-4Z" fill="#fff"/><path d="M72.66,68.54a4.12,4.12,0,0,1-1.11-3.11v-8H69V53.91h2.54V49.73h4v4.18h3.11v3.52H75.6v6.93A1.9,1.9,0,0,0,76,65.57a1.24,1.24,0,0,0,1,.48,2.71,2.71,0,0,0,.82-.13,1.52,1.52,0,0,0,.57-.32l.85,3a4.89,4.89,0,0,1-3.35,1A4.42,4.42,0,0,1,72.66,68.54Z" fill="#fff"/><path d="M91.47,68.54a4.12,4.12,0,0,1-1.11-3.11v-8H87.83V53.91h2.53V49.73h4.06v4.18h3.1v3.52h-3.1v6.93a1.85,1.85,0,0,0,.38,1.21,1.22,1.22,0,0,0,1,.48,2.71,2.71,0,0,0,.82-.13,1.38,1.38,0,0,0,.57-.32l.86,3a4.92,4.92,0,0,1-3.36,1A4.45,4.45,0,0,1,91.47,68.54Z" fill="#fff"/><path d="M110.63,59.9a2.71,2.71,0,0,0-.73-2.15,3.09,3.09,0,0,0-2.12-.64,3.93,3.93,0,0,0-2,.53,4.56,4.56,0,0,0-1.49,1.28V69.21h-4V48.09h4v7.82a6.92,6.92,0,0,1,2.23-1.68,7.08,7.08,0,0,1,3.15-.7,5,5,0,0,1,3.72,1.27,4.82,4.82,0,0,1,1.25,3.55V69.21h-4Z" fill="#fff"/><path d="M119,51a2.36,2.36,0,0,1,0-3.39,2.32,2.32,0,0,1,1.69-.71,2.29,2.29,0,0,1,1.71.7,2.41,2.41,0,0,1,0,3.4,2.37,2.37,0,0,1-3.4,0Zm-.31,3h4v15.3h-4Z" fill="#fff"/><path d="M127.07,64.43a8.14,8.14,0,0,0,2.41,1.46,7.51,7.51,0,0,0,2.88.63,3.6,3.6,0,0,0,1.92-.42,1.29,1.29,0,0,0,.64-1.15,1.19,1.19,0,0,0-.76-1.11,9.24,9.24,0,0,0-2.31-.71,21.6,21.6,0,0,1-3-.76A4.91,4.91,0,0,1,126.72,61a3.75,3.75,0,0,1-.89-2.64,4.21,4.21,0,0,1,.75-2.41,5.07,5.07,0,0,1,2.17-1.76,8.09,8.09,0,0,1,3.36-.65,9.64,9.64,0,0,1,6.17,2.09l-1.61,2.76a5.73,5.73,0,0,0-1.95-1.27,6.81,6.81,0,0,0-2.58-.5,3.41,3.41,0,0,0-1.76.38,1.16,1.16,0,0,0-.65,1,1.07,1.07,0,0,0,.71,1,11.13,11.13,0,0,0,2.2.65,21.26,21.26,0,0,1,3.08.79,5.31,5.31,0,0,1,2.15,1.47,4,4,0,0,1,.92,2.76,4.37,4.37,0,0,1-.78,2.53A5,5,0,0,1,135.73,69a9.17,9.17,0,0,1-3.56.63,11.64,11.64,0,0,1-3.82-.63,8.48,8.48,0,0,1-3-1.74Z" fill="#fff"/><path d="M160.07,58.79l-3.23,10.42h-4.31l-4.65-15.3h4.18l2.85,10.3,3.36-10.3h3.58l3.35,10.3,2.85-10.3h4.18l-4.65,15.3H163.3Z" fill="#fff"/><path d="M174.26,57.52a7.72,7.72,0,0,1,2.82-2.91,7.81,7.81,0,0,1,4.09-1.08,7.49,7.49,0,0,1,4,1.07,7.13,7.13,0,0,1,2.7,3,9.55,9.55,0,0,1,1,4.39v.89H177.46a3.93,3.93,0,0,0,1.36,2.55,4.48,4.48,0,0,0,3,1A6.38,6.38,0,0,0,184.1,66,5.22,5.22,0,0,0,186,64.9l1.77,2.6a7.59,7.59,0,0,1-2.78,1.57,11.18,11.18,0,0,1-3.52.55,8.67,8.67,0,0,1-4.18-1,7.23,7.23,0,0,1-2.93-2.82,8.8,8.8,0,0,1-.05-8.28Zm4.25.24a4.09,4.09,0,0,0-1.11,2.36h7.54a3.94,3.94,0,0,0-1-2.34,4,4,0,0,0-5.4,0Z" fill="#fff"/><path d="M191.78,57.52a7.58,7.58,0,0,1,2.82-2.91,7.77,7.77,0,0,1,4.08-1.08,7.49,7.49,0,0,1,4,1.07,7.16,7.16,0,0,1,2.71,3,9.68,9.68,0,0,1,1,4.39v.89H195a3.89,3.89,0,0,0,1.36,2.55,4.46,4.46,0,0,0,3,1,6.33,6.33,0,0,0,2.23-.42,5,5,0,0,0,1.85-1.11l1.78,2.6a7.56,7.56,0,0,1-2.79,1.57,11.13,11.13,0,0,1-3.52.55,8.69,8.69,0,0,1-4.18-1,7.29,7.29,0,0,1-2.93-2.82,8.36,8.36,0,0,1-1.06-4.24A8.11,8.11,0,0,1,191.78,57.52Zm4.24.24a4.21,4.21,0,0,0-1.11,2.36h7.54a3.88,3.88,0,0,0-1-2.34,4,4,0,0,0-5.4,0Z" fill="#fff"/><path d="M215.12,63.32l-1.84,2v3.93h-4V48.09h4V60.72l5.8-6.81H224L218,60.85l6.24,8.36h-5Z" fill="#fff"/><path d="M225.57,57.52a7.72,7.72,0,0,1,2.82-2.91,7.81,7.81,0,0,1,4.09-1.08,7.49,7.49,0,0,1,4,1.07,7.13,7.13,0,0,1,2.7,3,9.55,9.55,0,0,1,1,4.39v.89H228.77a3.93,3.93,0,0,0,1.36,2.55,4.48,4.48,0,0,0,3,1,6.38,6.38,0,0,0,2.24-.42,5.13,5.13,0,0,0,1.85-1.11L239,67.5a7.59,7.59,0,0,1-2.78,1.57,11.18,11.18,0,0,1-3.52.55,8.67,8.67,0,0,1-4.18-1,7.23,7.23,0,0,1-2.93-2.82,8.8,8.8,0,0,1-.05-8.28Zm4.25.24a4.09,4.09,0,0,0-1.11,2.36h7.54a3.94,3.94,0,0,0-1-2.34,4,4,0,0,0-5.4,0Z" fill="#fff"/><path d="M253.38,60a2.81,2.81,0,0,0-.73-2.18,3,3,0,0,0-2.09-.67,3.92,3.92,0,0,0-2,.53,4.69,4.69,0,0,0-1.47,1.28V69.21h-4V53.91h4v2a7,7,0,0,1,5.35-2.38,4.45,4.45,0,0,1,5,4.88v10.8h-4Z" fill="#fff"/><path d="M271.91,67.25A6.24,6.24,0,0,1,269.8,69a5.69,5.69,0,0,1-2.61.61,6.45,6.45,0,0,1-3.48-1,6.32,6.32,0,0,1-2.43-2.76,11,11,0,0,1,0-8.58,6.61,6.61,0,0,1,2.41-2.81,6.31,6.31,0,0,1,3.5-1,5.91,5.91,0,0,1,2.6.61,6,6,0,0,1,2.12,1.74V48.09h4V69.21h-4Zm0-8.39a3.8,3.8,0,0,0-1.49-1.25,4.38,4.38,0,0,0-2-.5,3.54,3.54,0,0,0-2.79,1.24,4.78,4.78,0,0,0-1.08,3.25,4.72,4.72,0,0,0,1.08,3.21,3.54,3.54,0,0,0,2.79,1.24,4.38,4.38,0,0,0,2-.5,3.8,3.8,0,0,0,1.49-1.25Z" fill="#fff"/><path d="M280.22,65.19a2.42,2.42,0,0,1,1.79-.76A2.6,2.6,0,0,1,284.58,67a2.42,2.42,0,0,1-.76,1.77,2.46,2.46,0,0,1-1.81.76,2.42,2.42,0,0,1-1.79-.76,2.48,2.48,0,0,1-.74-1.77A2.52,2.52,0,0,1,280.22,65.19Zm-.65-17.1h4.85l-.63,14.25h-3.55Z" fill="#fff"/><path d="M300,219.56c-14.19-27.25-44.59-46.09-79.71-46.09-47.12,0-84.89,30.6-87.89,76.23H300Z" fill="#e52823"/><path d="M300,219.56c-14.19-27.25-44.59-46.09-79.71-46.09-47.12,0-84.89,30.6-87.89,76.23H300Z" fill="#e52823"/><g clip-path="url(#clip-path)"><g clip-path="url(#clip-path)"><path d="M34.26,157.25c14.1-4.3,21.21,6.49,21.21,6.49S51,148.67,34.26,157.25" fill="#fff"/><path d="M61.51,157.81c0-.06,0-.45,0-.51A10.53,10.53,0,0,0,56,165.39a11.2,11.2,0,0,1,6.43-5.81,2.72,2.72,0,0,1-.87-1.77" fill="#fff"/><path d="M43.53,164.1s0,2.13,0,3.21c-.54,0-2.88-.15-3.91-.19,0,.58,0,1.17,0,1.74,1.23,0,2.51.17,3.74.16,0,1,0,1.92,0,3-1.23,0-2.46-.1-3.69-.13,0,.63,0,1.26,0,1.89,1.33,0,2.66.14,4,.12,0-.05,0,3.14,0,3.14-2.63,0-5.73-.2-8.68-.45l.21-13.1c1.24.14,5.08.55,8.43.65" fill="#fff"/><path d="M44.65,164.13l0,3.42c1.23.06,2.34.07,2.34.07v9.49a30,30,0,0,0,4.73-.06l0-9.41s2.09-.09,2.41-.12c0-1.26,0-2.24,0-3.5a80.61,80.61,0,0,1-9.33.11" fill="#fff"/><path d="M107.89,162.05c0,1.36,0,2.61,0,4,.8,0,1.71.2,2.51.27,0,3.31-.08,5.82-.08,9.13,2.22.27,3.8.52,4.42.63,0-3.31.13-5.92.13-9.23,0,0,2.36.37,2.4.41,0-1.36,0-2.73,0-4.09a71.52,71.52,0,0,0-9.38-1.09" fill="#fff"/><path d="M29.32,162.1l-5.61-1,0,13.75c1.44.28,2.76.52,4.16.67l0-4,1.51.17c2.44.23,4.89-.69,4.92-4.67,0-3.53-2.32-4.55-4.92-4.93m-1,6.33-.41,0c0-.9,0-1.8,0-2.69l.4,0a1.38,1.38,0,0,1,1.37,1.44c0,1.11-.7,1.33-1.38,1.25" fill="#fff"/><path d="M76.14,174.87c.63-1.64,1.25-3.17,1.88-4.81.1,1.57.16,3,.26,4.56,1.57-.18,2.83-.27,4.41-.37-.41-4.17-.76-8.65-1.17-12.82-1.35.11-2.7.24-4,.37-.76,2-1.52,4.36-2.27,6.33-.73-1.82-1.46-4-2.19-5.79-1.36.2-3.79.62-4,.63-.47,4.25-1,9-1.47,13.24,1.08-.19,3.7-.61,4.49-.71.12-1.59.24-3.29.36-4.88.61,1.52,1.22,3,1.82,4.55l2-.3" fill="#fff"/><path d="M104.93,170.5c1.2-.54,2.07-1.7,2.1-4,0-3.47-2.41-5-4.9-5.15-1.88-.15-3.76-.24-5.64-.3-.06,4.42-.08,8.46-.14,12.88,1.4,0,3,.14,4.18.24,0-1.24,0-2.16,0-3.4.8,1.29,1.46,2.37,2.26,3.68,1.73.16,3.51.38,5.24.64-1.09-1.62-2.06-3-3.15-4.58m-3.9-2.83-.41,0,0-2.65.4,0a1.32,1.32,0,0,1,1.37,1.4,1.14,1.14,0,0,1-1.39,1.26" fill="#fff"/><path d="M91.57,161c-1.67,0-3,0-4.47.09-1.15,4.28-2.5,8.86-3.65,13.16,1.28,0,2.57-.11,3.85-.11.12-.45.25-1,.37-1.43l2,0s1.72-.05,1.72-.05c.05.16.2.61.43,1.36,1.28,0,2.56,0,3.83,0-1.38-4.54-2.78-8.9-4-13m-3.07,8.69c.29-1.09.59-2.25.88-3.34.34,1.1.67,2.2,1,3.3a16.37,16.37,0,0,1-1.89,0" fill="#fff"/><path d="M115.73,174.83a.71.71,0,0,1,0,1.41.71.71,0,0,1,0-1.41Zm0,.11a.6.6,0,1,0,.57.6.57.57,0,0,0-.57-.6Zm-.13,1h-.13v-.78l.23,0a.38.38,0,0,1,.24.06.18.18,0,0,1,.07.16.19.19,0,0,1-.15.19h0c.07,0,.11.07.13.19a.7.7,0,0,0,.05.19h-.13a.46.46,0,0,1,0-.2.15.15,0,0,0-.17-.14h-.09Zm0-.43h.09c.1,0,.19,0,.19-.14s0-.13-.19-.13h-.09Z" fill="#fff"/><path d="M55.48,175.9a11.6,11.6,0,0,0,5.19,1.31c2.94,0,6-1.76,6.08-5.05,0-2.34-1.45-3.46-3.53-3.92L62.11,168c-.37-.09-1-.16-1-.68s.64-.73,1.07-.73a8.06,8.06,0,0,1,3,.63l1.25-3.3a9.72,9.72,0,0,0-4.28-1c-3,0-5.92,1.79-6,5.06,0,2.16,1.56,3.34,3.48,3.7l1,.18c.45.09,1.1.15,1.08.77s-.77.69-1.26.69a5.81,5.81,0,0,1-3.37-1.11c-.51,1.15-1.11,2.57-1.62,3.72" fill="#fff"/><path d="M66.1,153.5a3.31,3.31,0,1,0,3.26,3.35,3.32,3.32,0,0,0-3.26-3.35m1.2,1.22a4,4,0,0,0-3.55,2.08s0,0,0,0a2.42,2.42,0,0,1,.08-.92,2.25,2.25,0,0,1,2.75-1.6,2.16,2.16,0,0,1,.78.41l0,0" fill="#fff"/></g></g></g><g id="rec"><rect width="300" height="250" fill="none"/></g></g></svg>