<svg xmlns="http://www.w3.org/2000/svg" viewBox="0 0 300 250"><g id="Layer_2" data-name="Layer 2"><g id="SUBHED"><path d="M20.6,99.51A7,7,0,0,1,17.72,99a6.13,6.13,0,0,1-2-1.38L16.89,96a5.8,5.8,0,0,0,1.58,1.17,4.78,4.78,0,0,0,2.22.5,4,4,0,0,0,1.11-.14,2.09,2.09,0,0,0,.73-.38,1.49,1.49,0,0,0,.42-.53,1.44,1.44,0,0,0,.13-.6,1.09,1.09,0,0,0-.51-1,4.79,4.79,0,0,0-1.3-.56q-.78-.24-1.68-.45a8.78,8.78,0,0,1-1.68-.6,3.67,3.67,0,0,1-1.3-1,2.81,2.81,0,0,1-.51-1.76,3.08,3.08,0,0,1,.31-1.39,3.42,3.42,0,0,1,.89-1.12,4,4,0,0,1,1.37-.75,5.67,5.67,0,0,1,1.8-.27,7,7,0,0,1,2.53.44,6,6,0,0,1,2,1.26l-1.19,1.56a4.47,4.47,0,0,0-1.63-1A5.45,5.45,0,0,0,20.28,89a2.33,2.33,0,0,0-1.47.41,1.29,1.29,0,0,0-.55,1.08,1,1,0,0,0,.51.86,5.31,5.31,0,0,0,1.3.53l1.68.44a7.67,7.67,0,0,1,1.68.63A3.71,3.71,0,0,1,24.73,94a2.88,2.88,0,0,1,.51,1.79A3.83,3.83,0,0,1,25,97.22a3.33,3.33,0,0,1-.83,1.19,4.22,4.22,0,0,1-1.45.81A6.85,6.85,0,0,1,20.6,99.51Z" fill="#e52823"/><path d="M33,99.3V93.83a1.68,1.68,0,0,0-.47-1.4,2,2,0,0,0-1.28-.37,2.47,2.47,0,0,0-1.32.36,3.43,3.43,0,0,0-.91.79V99.3H27.13v-12H29v4.48a4.3,4.3,0,0,1,.53-.5,3.9,3.9,0,0,1,.71-.45,4.18,4.18,0,0,1,.84-.32,4.39,4.39,0,0,1,1-.11,2.86,2.86,0,0,1,2.11.7,2.77,2.77,0,0,1,.7,2V99.3Z" fill="#e52823"/><path d="M41.28,99.51a4.46,4.46,0,0,1-1.87-.37,4.18,4.18,0,0,1-1.41-1,4.39,4.39,0,0,1-.88-1.44,5.18,5.18,0,0,1-.3-1.77,5.12,5.12,0,0,1,.3-1.76A4.44,4.44,0,0,1,38,91.73a4.15,4.15,0,0,1,1.41-1,5,5,0,0,1,3.74,0,4.15,4.15,0,0,1,1.41,1,4.44,4.44,0,0,1,.88,1.45,5.12,5.12,0,0,1,.3,1.76,5.18,5.18,0,0,1-.3,1.77,4.39,4.39,0,0,1-.88,1.44,4.18,4.18,0,0,1-1.41,1A4.46,4.46,0,0,1,41.28,99.51Zm0-1.67a2.32,2.32,0,0,0,1.08-.24,2.26,2.26,0,0,0,.78-.62,2.93,2.93,0,0,0,.48-.93,3.73,3.73,0,0,0,.16-1.11,3.66,3.66,0,0,0-.16-1.1,2.83,2.83,0,0,0-.48-.91,2.17,2.17,0,0,0-.78-.63,2.32,2.32,0,0,0-1.08-.24,2.27,2.27,0,0,0-1.06.24,2.21,2.21,0,0,0-.79.63,2.67,2.67,0,0,0-.49.91,3.66,3.66,0,0,0-.16,1.1,3.73,3.73,0,0,0,.16,1.11,2.76,2.76,0,0,0,.49.93,2.29,2.29,0,0,0,.79.62A2.27,2.27,0,0,0,41.28,97.84Z" fill="#e52823"/><path d="M52.35,99.51a3.27,3.27,0,0,1-1.54-.37,3.76,3.76,0,0,1-1.25-1v4.52H47.67v-12h1.89v1.19a3.51,3.51,0,0,1,1.21-1,3.24,3.24,0,0,1,1.58-.38,3.93,3.93,0,0,1,1.55.3,3.43,3.43,0,0,1,1.21.89,4,4,0,0,1,.8,1.44,5.7,5.7,0,0,1,.29,1.92,5.8,5.8,0,0,1-.29,1.93,4.06,4.06,0,0,1-.8,1.43,3.46,3.46,0,0,1-1.21.9A3.77,3.77,0,0,1,52.35,99.51Zm-.56-1.67a2.2,2.2,0,0,0,1.8-.81,3.58,3.58,0,0,0,0-4.17,2.22,2.22,0,0,0-1.8-.8,2.83,2.83,0,0,0-2.23,1.15v3.44a2,2,0,0,0,.41.47,3.06,3.06,0,0,0,.54.38,3,3,0,0,0,.63.25A2.48,2.48,0,0,0,51.79,97.84Z" fill="#e52823"/><path d="M62.74,99.3v-12h1.89v4.52a3.34,3.34,0,0,1,1.25-1.06,3.42,3.42,0,0,1,1.54-.36A3.77,3.77,0,0,1,69,90.7a3.47,3.47,0,0,1,1.23.91,4.37,4.37,0,0,1,.8,1.44,6,6,0,0,1,.29,1.89A6.07,6.07,0,0,1,71,96.87a4.21,4.21,0,0,1-.81,1.44,3.62,3.62,0,0,1-1.23.9,4,4,0,0,1-1.54.3,3.33,3.33,0,0,1-1.57-.37,3.79,3.79,0,0,1-1.22-1V99.3Zm1.89-2.61a2.63,2.63,0,0,0,.94.82,2.77,2.77,0,0,0,1.31.33A2.19,2.19,0,0,0,68.67,97a3.2,3.2,0,0,0,.65-2.09,3.58,3.58,0,0,0-.17-1.16,2.65,2.65,0,0,0-.49-.91,2.37,2.37,0,0,0-.78-.59,2.19,2.19,0,0,0-1-.22,2.78,2.78,0,0,0-1.31.34,2.65,2.65,0,0,0-.94.83Z" fill="#e52823"/><path d="M74.15,89.54A1.16,1.16,0,0,1,73,88.37a1.13,1.13,0,0,1,.34-.83,1.16,1.16,0,0,1,.83-.34,1.16,1.16,0,0,1,1.17,1.17,1.16,1.16,0,0,1-.34.83A1.13,1.13,0,0,1,74.15,89.54Zm-1,9.76V90.6h1.89v8.7Z" fill="#e52823"/><path d="M81.08,102.83a6.57,6.57,0,0,1-2-.28,4.69,4.69,0,0,1-1.68-1l.89-1.37a2.88,2.88,0,0,0,1.22.86,4.42,4.42,0,0,0,1.55.26,3.71,3.71,0,0,0,.93-.12,2.24,2.24,0,0,0,.82-.4,2.21,2.21,0,0,0,.6-.75,2.67,2.67,0,0,0,.22-1.16v-1a3.83,3.83,0,0,1-1.21,1.06,3.25,3.25,0,0,1-1.58.39A4,4,0,0,1,79.32,99a3.41,3.41,0,0,1-1.22-.87,3.94,3.94,0,0,1-.8-1.39A5.85,5.85,0,0,1,77,94.85,5.77,5.77,0,0,1,77.3,93a4.07,4.07,0,0,1,.8-1.4,3.37,3.37,0,0,1,1.21-.88,4.11,4.11,0,0,1,1.55-.29,3.43,3.43,0,0,1,1.55.36,3.47,3.47,0,0,1,1.24,1.06V90.6h1.89v8.25a4.3,4.3,0,0,1-.39,1.94,3.32,3.32,0,0,1-1,1.23,4.26,4.26,0,0,1-1.44.63A7.18,7.18,0,0,1,81.08,102.83Zm.34-5.21a2.65,2.65,0,0,0,1.29-.34,2.71,2.71,0,0,0,.94-.81V93.21a2.71,2.71,0,0,0-.94-.81,2.76,2.76,0,0,0-1.29-.34,2.26,2.26,0,0,0-1.8.77,3.38,3.38,0,0,0,0,4A2.27,2.27,0,0,0,81.42,97.62Z" fill="#e52823"/><path d="M98.75,99.3V98.11a3.86,3.86,0,0,1-1.21,1,3.32,3.32,0,0,1-1.58.37,3.87,3.87,0,0,1-1.53-.3,3.44,3.44,0,0,1-1.23-.9,4.37,4.37,0,0,1-.8-1.44,6.07,6.07,0,0,1-.29-1.93,6,6,0,0,1,.29-1.89,4.37,4.37,0,0,1,.8-1.44,3.52,3.52,0,0,1,1.22-.91A3.69,3.69,0,0,1,96,90.39a3.4,3.4,0,0,1,2.79,1.42V87.29h1.89v12Zm-2.23-1.46a2.5,2.5,0,0,0,.66-.09,3.45,3.45,0,0,0,.63-.25,3,3,0,0,0,.54-.37,1.92,1.92,0,0,0,.4-.46V93.23a2.7,2.7,0,0,0-.4-.45,3.06,3.06,0,0,0-.54-.38,3.45,3.45,0,0,0-.63-.25,2.5,2.5,0,0,0-.66-.09,2.25,2.25,0,0,0-1,.22,2.37,2.37,0,0,0-.78.59,2.65,2.65,0,0,0-.49.91,4,4,0,0,0,0,2.32,2.7,2.7,0,0,0,.49.92,2.31,2.31,0,0,0,1.8.82Z" fill="#e52823"/><path d="M104.05,89.54a1.16,1.16,0,0,1-1.17-1.17,1.13,1.13,0,0,1,.34-.83,1.16,1.16,0,0,1,.83-.34,1.17,1.17,0,0,1,.82,2A1.09,1.09,0,0,1,104.05,89.54Zm-1,9.76V90.6H105v8.7Z" fill="#e52823"/><path d="M110.42,99.51a5.88,5.88,0,0,1-2.09-.35,4.58,4.58,0,0,1-1.64-1l.87-1.35a4.43,4.43,0,0,0,.55.45,4.89,4.89,0,0,0,.72.38,4.14,4.14,0,0,0,.82.27,3.5,3.5,0,0,0,.84.1,2.21,2.21,0,0,0,1.3-.31,1,1,0,0,0,.43-.84.7.7,0,0,0-.39-.65,4.3,4.3,0,0,0-1-.36l-1.27-.29a5.13,5.13,0,0,1-1.27-.43,2.83,2.83,0,0,1-1-.77A2.08,2.08,0,0,1,107,93a2.38,2.38,0,0,1,.23-1,2.51,2.51,0,0,1,.65-.84,3.25,3.25,0,0,1,1.08-.57,5,5,0,0,1,1.46-.2,4.87,4.87,0,0,1,3.37,1.2L113,92.93a3.22,3.22,0,0,0-1.07-.74,3.55,3.55,0,0,0-1.51-.31,2,2,0,0,0-1.18.31.91.91,0,0,0-.42.77.63.63,0,0,0,.39.58,4.38,4.38,0,0,0,1,.33l1.27.29a5.31,5.31,0,0,1,1.27.45,2.83,2.83,0,0,1,1,.81A2.22,2.22,0,0,1,114,96.8a2.51,2.51,0,0,1-.24,1.08,2.27,2.27,0,0,1-.69.86,3.53,3.53,0,0,1-1.13.57A5.63,5.63,0,0,1,110.42,99.51Z" fill="#e52823"/><path d="M119.89,99.51a4.6,4.6,0,0,1-1.81-.34,4.22,4.22,0,0,1-1.42-1,4.43,4.43,0,0,1-.92-1.45,5,5,0,0,1-.34-1.83,4.91,4.91,0,0,1,.34-1.82,4.49,4.49,0,0,1,.92-1.44,4.37,4.37,0,0,1,1.42-1,4.6,4.6,0,0,1,1.81-.34,5.11,5.11,0,0,1,1.16.12,4.51,4.51,0,0,1,.92.34,3.75,3.75,0,0,1,.71.5,5,5,0,0,1,.54.59L122,93.07a2.31,2.31,0,0,0-2-1,2.45,2.45,0,0,0-1.91.8,3,3,0,0,0-.72,2.08,3.32,3.32,0,0,0,.19,1.16,2.49,2.49,0,0,0,.54.92,2.36,2.36,0,0,0,.83.6,2.44,2.44,0,0,0,1.07.22,2.32,2.32,0,0,0,2-1L123.22,98A4.83,4.83,0,0,1,122,99.05,4.07,4.07,0,0,1,119.89,99.51Z" fill="#e52823"/><path d="M128.83,99.51a4.49,4.49,0,0,1-1.87-.37,4,4,0,0,1-1.4-1,4.26,4.26,0,0,1-.89-1.44,5.18,5.18,0,0,1-.3-1.77,5.12,5.12,0,0,1,.3-1.76,4.3,4.3,0,0,1,.89-1.45,4,4,0,0,1,1.4-1,5,5,0,0,1,3.74,0,4.06,4.06,0,0,1,1.41,1,4.28,4.28,0,0,1,.88,1.45,5.13,5.13,0,0,1,.31,1.76,5.19,5.19,0,0,1-.31,1.77,4.23,4.23,0,0,1-.88,1.44,4.08,4.08,0,0,1-1.41,1A4.46,4.46,0,0,1,128.83,99.51Zm0-1.67a2.32,2.32,0,0,0,1.08-.24,2.26,2.26,0,0,0,.78-.62,2.93,2.93,0,0,0,.48-.93,3.73,3.73,0,0,0,.16-1.11,3.66,3.66,0,0,0-.16-1.1,2.83,2.83,0,0,0-.48-.91,2.17,2.17,0,0,0-.78-.63,2.32,2.32,0,0,0-1.08-.24,2.3,2.3,0,0,0-1.06.24,2.21,2.21,0,0,0-.79.63,2.67,2.67,0,0,0-.49.91,3.66,3.66,0,0,0-.16,1.1,3.73,3.73,0,0,0,.16,1.11A2.76,2.76,0,0,0,127,97a2.38,2.38,0,0,0,1.85.86Z" fill="#e52823"/><path d="M141.09,99.3V98.15a4.7,4.7,0,0,1-1.25.94,3.78,3.78,0,0,1-1.81.42,2.48,2.48,0,0,1-2.81-2.75V90.6h1.89v5.46a1.7,1.7,0,0,0,.48,1.39,2,2,0,0,0,1.29.39,2.51,2.51,0,0,0,1.3-.35,3.41,3.41,0,0,0,.91-.78V90.6H143v8.7Z" fill="#e52823"/><path d="M151.31,99.3V93.86a1.77,1.77,0,0,0-.47-1.41,2,2,0,0,0-1.29-.39,2.46,2.46,0,0,0-1.31.36,3.65,3.65,0,0,0-.92.79V99.3h-1.89V90.6h1.89v1.17a3.68,3.68,0,0,1,.53-.5,3.9,3.9,0,0,1,.71-.45,3.83,3.83,0,0,1,1.84-.43,2.49,2.49,0,0,1,2.8,2.79V99.3Z" fill="#e52823"/><path d="M158.28,99.51a2.24,2.24,0,0,1-1.67-.57,2.29,2.29,0,0,1-.56-1.68v-5h-1.44V90.6h1.44V88.23h1.89V90.6h1.76v1.64h-1.76V96.8a1.32,1.32,0,0,0,.2.74.72.72,0,0,0,.63.3,1.13,1.13,0,0,0,.49-.1,1,1,0,0,0,.33-.22L160,99a2.06,2.06,0,0,1-.68.39A3.08,3.08,0,0,1,158.28,99.51Z" fill="#e52823"/><path d="M164.38,99.51a5.92,5.92,0,0,1-2.09-.35,4.53,4.53,0,0,1-1.63-1l.86-1.35a4.57,4.57,0,0,0,.56.45,4.06,4.06,0,0,0,.72.38,3.76,3.76,0,0,0,.82.27,3.42,3.42,0,0,0,.83.1,2.21,2.21,0,0,0,1.3-.31,1,1,0,0,0,.43-.84.7.7,0,0,0-.39-.65,4.13,4.13,0,0,0-1-.36l-1.27-.29a5.06,5.06,0,0,1-1.26-.43,2.78,2.78,0,0,1-1-.77,2.08,2.08,0,0,1-.38-1.33,2.37,2.37,0,0,1,.22-1,2.41,2.41,0,0,1,.66-.84,3.2,3.2,0,0,1,1.07-.57,5,5,0,0,1,1.47-.2,5.11,5.11,0,0,1,2,.34,4.87,4.87,0,0,1,1.41.86l-.79,1.34a3.12,3.12,0,0,0-1.07-.74,3.5,3.5,0,0,0-1.5-.31,1.93,1.93,0,0,0-1.18.31.9.9,0,0,0-.43.77.63.63,0,0,0,.39.58,4.38,4.38,0,0,0,1,.33l1.27.29a5.16,5.16,0,0,1,1.27.45,2.83,2.83,0,0,1,1,.81A2.22,2.22,0,0,1,168,96.8a2.65,2.65,0,0,1-.23,1.08,2.4,2.4,0,0,1-.7.86,3.42,3.42,0,0,1-1.13.57A5.63,5.63,0,0,1,164.38,99.51Z" fill="#e52823"/><path d="M180.2,99.51a6.39,6.39,0,0,1-2.47-.46,6.11,6.11,0,0,1-1.95-1.3,5.89,5.89,0,0,1-1.26-2,7.09,7.09,0,0,1,0-5,5.8,5.8,0,0,1,1.26-2,6,6,0,0,1,1.95-1.3,6.75,6.75,0,0,1,5,0,5.82,5.82,0,0,1,3.2,3.26,6.94,6.94,0,0,1,0,5,5.82,5.82,0,0,1-3.2,3.26A6.44,6.44,0,0,1,180.2,99.51Zm0-1.87a4,4,0,0,0,1.64-.33,3.84,3.84,0,0,0,1.26-.91,3.77,3.77,0,0,0,.8-1.38,5.42,5.42,0,0,0,0-3.44,3.81,3.81,0,0,0-.8-1.37,3.7,3.7,0,0,0-1.26-.91A4,4,0,0,0,180.2,89a3.91,3.91,0,0,0-1.64.33,3.57,3.57,0,0,0-1.25.91,4,4,0,0,0-.81,1.37,5.61,5.61,0,0,0,0,3.44,3.94,3.94,0,0,0,.81,1.38,3.7,3.7,0,0,0,1.25.91A3.91,3.91,0,0,0,180.2,97.64Z" fill="#e52823"/><path d="M192.26,99.51a4.63,4.63,0,0,1-1.81-.34,4.28,4.28,0,0,1-1.41-1,4.63,4.63,0,0,1-.93-1.45,5,5,0,0,1-.33-1.83,4.91,4.91,0,0,1,.33-1.82,4.69,4.69,0,0,1,.93-1.44,4.44,4.44,0,0,1,1.41-1,4.63,4.63,0,0,1,1.81-.34,5,5,0,0,1,1.16.12,4.3,4.3,0,0,1,.92.34,3.45,3.45,0,0,1,.71.5,3.7,3.7,0,0,1,.54.59l-1.24,1.13a2.32,2.32,0,0,0-2-1,2.43,2.43,0,0,0-1.9.8,3,3,0,0,0-.72,2.08,3.57,3.57,0,0,0,.18,1.16,2.8,2.8,0,0,0,.54.92,2.45,2.45,0,0,0,.83.6,2.5,2.5,0,0,0,1.07.22,2.33,2.33,0,0,0,2-1L195.59,98a4.53,4.53,0,0,1-1.26,1.08A4,4,0,0,1,192.26,99.51Z" fill="#e52823"/><path d="M199.89,99.51a2.24,2.24,0,0,1-1.67-.57,2.33,2.33,0,0,1-.56-1.68v-5h-1.44V90.6h1.44V88.23h1.89V90.6h1.77v1.64h-1.77V96.8a1.24,1.24,0,0,0,.21.74.7.7,0,0,0,.62.3,1.18,1.18,0,0,0,.5-.1,1,1,0,0,0,.33-.22l.45,1.44a2.23,2.23,0,0,1-.69.39A3,3,0,0,1,199.89,99.51Z" fill="#e52823"/><path d="M207.33,99.3V97.62c1.16-.87,2.16-1.64,3-2.3a25.47,25.47,0,0,0,2-1.77,6.85,6.85,0,0,0,1.15-1.44,2.73,2.73,0,0,0,.36-1.31,1.64,1.64,0,0,0-.69-1.38,2.06,2.06,0,0,0-.7-.33,3.1,3.1,0,0,0-.81-.11,4.17,4.17,0,0,0-3.24,1.43L207.17,89a5,5,0,0,1,2-1.45,6.41,6.41,0,0,1,2.45-.48,5.7,5.7,0,0,1,1.66.24,4.29,4.29,0,0,1,1.38.71,3.32,3.32,0,0,1,1.3,2.73,3.78,3.78,0,0,1-.37,1.64,7.19,7.19,0,0,1-1.05,1.6,15.05,15.05,0,0,1-1.65,1.64c-.64.56-1.36,1.14-2.17,1.76H216V99.3Z" fill="#e52823"/><path d="M223.37,99.3V96.58h-5.73V94.89l4.93-7.6h2.9v7.42h1.6v1.87h-1.6V99.3Zm0-10.12-3.66,5.53h3.66Z" fill="#e52823"/><path d="M228.12,95.75V94.13h4.32v1.62Z" fill="#e52823"/><path d="M233.88,99.3V97.62c1.16-.87,2.15-1.64,3-2.3a25.47,25.47,0,0,0,2-1.77A7.19,7.19,0,0,0,240,92.11a2.73,2.73,0,0,0,.36-1.31,1.64,1.64,0,0,0-.69-1.38,2.06,2.06,0,0,0-.7-.33,3.1,3.1,0,0,0-.81-.11,4.17,4.17,0,0,0-3.24,1.43L233.72,89a5,5,0,0,1,2-1.45,6.49,6.49,0,0,1,2.46-.48,5.7,5.7,0,0,1,1.66.24,4.29,4.29,0,0,1,1.38.71,3.64,3.64,0,0,1,1,1.15,3.5,3.5,0,0,1,.35,1.58,3.78,3.78,0,0,1-.37,1.64,7.56,7.56,0,0,1-1,1.6,15.05,15.05,0,0,1-1.65,1.64c-.64.56-1.36,1.14-2.17,1.76h5.31V99.3Z" fill="#e52823"/><path d="M249.16,99.51a6.3,6.3,0,0,1-2.63-.49,5.25,5.25,0,0,1-1.82-1.36l1.21-1.46a4,4,0,0,0,3.22,1.44A2.54,2.54,0,0,0,251,97,2.11,2.11,0,0,0,251,94a2.57,2.57,0,0,0-1.76-.58,3.8,3.8,0,0,0-1.41.25,3.61,3.61,0,0,0-1.22.78l-1.5-.43v-6.7h7.87v1.87h-5.76V92.6a4.36,4.36,0,0,1,1.15-.72,4,4,0,0,1,1.57-.3,4.05,4.05,0,0,1,1.46.26,3.5,3.5,0,0,1,2.07,2,4,4,0,0,1,.32,1.64,4,4,0,0,1-.34,1.68,3.89,3.89,0,0,1-.95,1.28,4.35,4.35,0,0,1-1.45.82A5.74,5.74,0,0,1,249.16,99.51Z" fill="#e52823"/></g><g id="rec"><rect width="300" height="250" fill="none"/></g></g></svg>