<svg xmlns="http://www.w3.org/2000/svg" viewBox="0 0 300 250"><g id="Layer_2" data-name="Layer 2"><g id="SUBHED"><path d="M20.77,99.5A7.15,7.15,0,0,1,17.89,99a6,6,0,0,1-2-1.38L17.06,96a5.9,5.9,0,0,0,1.57,1.17,4.82,4.82,0,0,0,2.23.5,3.87,3.87,0,0,0,1.1-.14,2.23,2.23,0,0,0,.74-.38,1.59,1.59,0,0,0,.42-.53,1.46,1.46,0,0,0,.13-.61,1.07,1.07,0,0,0-.51-1,5.27,5.27,0,0,0-1.3-.57q-.78-.22-1.68-.45a8.13,8.13,0,0,1-1.68-.59,3.51,3.51,0,0,1-1.3-1,2.76,2.76,0,0,1-.51-1.75,3.15,3.15,0,0,1,.31-1.4,3.6,3.6,0,0,1,.88-1.11,4.16,4.16,0,0,1,1.38-.75,5.67,5.67,0,0,1,1.8-.27,7,7,0,0,1,2.53.44,5.83,5.83,0,0,1,1.95,1.25l-1.19,1.57a4.43,4.43,0,0,0-1.62-1A5.24,5.24,0,0,0,20.44,89a2.32,2.32,0,0,0-1.46.42,1.27,1.27,0,0,0-.55,1.08,1,1,0,0,0,.51.86,4.82,4.82,0,0,0,1.3.52c.52.15,1.08.29,1.68.44a8.21,8.21,0,0,1,1.68.63A3.8,3.8,0,0,1,24.9,94a2.93,2.93,0,0,1,.51,1.8,3.83,3.83,0,0,1-.27,1.43,3.24,3.24,0,0,1-.84,1.19,3.88,3.88,0,0,1-1.45.8A6.43,6.43,0,0,1,20.77,99.5Z" fill="#e52823"/><path d="M33.17,99.29V93.81a1.69,1.69,0,0,0-.47-1.39,2,2,0,0,0-1.28-.37,2.47,2.47,0,0,0-1.32.36,3.26,3.26,0,0,0-.91.79v6.09H27.3v-12h1.89v4.48a3.68,3.68,0,0,1,.53-.5,4.19,4.19,0,0,1,.7-.45,4.28,4.28,0,0,1,.85-.32,3.87,3.87,0,0,1,1-.11,2.86,2.86,0,0,1,2.11.7,2.81,2.81,0,0,1,.7,2v6.16Z" fill="#e52823"/><path d="M41.45,99.5a4.46,4.46,0,0,1-1.87-.37,4.08,4.08,0,0,1-1.41-1,4.18,4.18,0,0,1-.88-1.45,5.15,5.15,0,0,1,0-3.52,4.18,4.18,0,0,1,.88-1.45,4.06,4.06,0,0,1,1.41-1,5,5,0,0,1,3.74,0,4,4,0,0,1,1.4,1,4.2,4.2,0,0,1,.89,1.45,5.31,5.31,0,0,1,0,3.52,4.2,4.2,0,0,1-.89,1.45,4,4,0,0,1-1.4,1A4.49,4.49,0,0,1,41.45,99.5Zm0-1.67a2.32,2.32,0,0,0,1.08-.24,2.17,2.17,0,0,0,.78-.63,2.78,2.78,0,0,0,.48-.92A3.77,3.77,0,0,0,44,94.93a3.66,3.66,0,0,0-.16-1.1,2.88,2.88,0,0,0-.48-.92,2.41,2.41,0,0,0-.78-.63,2.45,2.45,0,0,0-1.08-.23,2.39,2.39,0,0,0-1.06.23,2.49,2.49,0,0,0-.8.63,2.88,2.88,0,0,0-.48.92,3.66,3.66,0,0,0-.16,1.1A3.77,3.77,0,0,0,39.11,96a2.78,2.78,0,0,0,.48.92,2.24,2.24,0,0,0,.8.63A2.27,2.27,0,0,0,41.45,97.83Z" fill="#e52823"/><path d="M52.52,99.5A3.24,3.24,0,0,1,51,99.13a3.66,3.66,0,0,1-1.25-1v4.52H47.84v-12h1.89v1.19a3.62,3.62,0,0,1,1.2-1,3.39,3.39,0,0,1,1.59-.37,3.93,3.93,0,0,1,1.55.3,3.52,3.52,0,0,1,1.21.89,4.22,4.22,0,0,1,.8,1.43,6.57,6.57,0,0,1,0,3.86,4.22,4.22,0,0,1-.8,1.43,3.55,3.55,0,0,1-1.21.9A3.77,3.77,0,0,1,52.52,99.5ZM52,97.83a2.2,2.2,0,0,0,1.8-.81,3.21,3.21,0,0,0,.67-2.09,3.17,3.17,0,0,0-.67-2.08,2.22,2.22,0,0,0-1.8-.8,2.75,2.75,0,0,0-1.29.33,2.54,2.54,0,0,0-.94.82v3.44a2.5,2.5,0,0,0,.4.47,3.06,3.06,0,0,0,.54.38,3.45,3.45,0,0,0,.63.25A2.5,2.5,0,0,0,52,97.83Z" fill="#e52823"/><path d="M62.9,99.29v-12h1.89V91.8A3.5,3.5,0,0,1,66,90.74a3.45,3.45,0,0,1,1.54-.36,3.78,3.78,0,0,1,1.56.31,3.4,3.4,0,0,1,1.22.91A4.39,4.39,0,0,1,71.17,93a5.87,5.87,0,0,1,.28,1.89,6.08,6.08,0,0,1-.28,1.93,4.57,4.57,0,0,1-.81,1.44,3.57,3.57,0,0,1-1.24.9,3.88,3.88,0,0,1-1.54.3A3.22,3.22,0,0,1,66,99.12a3.78,3.78,0,0,1-1.23-1v1.19Zm1.89-2.61a2.56,2.56,0,0,0,.95.81,2.63,2.63,0,0,0,1.3.34A2.16,2.16,0,0,0,68.83,97a3.21,3.21,0,0,0,.66-2.09,3.87,3.87,0,0,0-.17-1.16,2.56,2.56,0,0,0-.49-.91,2.37,2.37,0,0,0-.78-.59,2.21,2.21,0,0,0-1-.22,2.63,2.63,0,0,0-1.3.34,2.69,2.69,0,0,0-.95.83Z" fill="#e52823"/><path d="M74.32,89.53a1.12,1.12,0,0,1-.83-.34,1.18,1.18,0,0,1,0-1.66,1.12,1.12,0,0,1,.83-.34,1.09,1.09,0,0,1,.82.34,1.16,1.16,0,0,1,0,1.66A1.09,1.09,0,0,1,74.32,89.53Zm-1,9.76v-8.7h1.89v8.7Z" fill="#e52823"/><path d="M81.25,102.81a6.27,6.27,0,0,1-2-.28,4.52,4.52,0,0,1-1.68-1l.88-1.37a2.91,2.91,0,0,0,1.23.86,4.38,4.38,0,0,0,1.55.26,3.57,3.57,0,0,0,.92-.12,2.15,2.15,0,0,0,.83-.41,2.06,2.06,0,0,0,.59-.74,2.66,2.66,0,0,0,.23-1.16v-1a4,4,0,0,1-1.22,1.06A3.18,3.18,0,0,1,81,99.3,4.1,4.1,0,0,1,79.49,99a3.41,3.41,0,0,1-1.22-.87,3.87,3.87,0,0,1-.8-1.39,5.6,5.6,0,0,1-.29-1.91A5.52,5.52,0,0,1,77.47,93a3.92,3.92,0,0,1,.8-1.4,3.29,3.29,0,0,1,1.21-.88A4.11,4.11,0,0,1,81,90.38a3.43,3.43,0,0,1,1.55.36,3.47,3.47,0,0,1,1.24,1.06V90.59h1.89v8.25a4.16,4.16,0,0,1-.4,1.94,3.26,3.26,0,0,1-1,1.22,4.06,4.06,0,0,1-1.44.63A7.32,7.32,0,0,1,81.25,102.81Zm.34-5.2a2.58,2.58,0,0,0,1.28-.34,2.75,2.75,0,0,0,.95-.81V93.2a2.75,2.75,0,0,0-.95-.81,2.58,2.58,0,0,0-1.28-.34,2.28,2.28,0,0,0-1.8.76,3.4,3.4,0,0,0,0,4A2.27,2.27,0,0,0,81.59,97.61Z" fill="#e52823"/><path d="M98.92,99.29V98.1a3.71,3.71,0,0,1-1.21,1,3.24,3.24,0,0,1-1.58.38,4,4,0,0,1-1.54-.3,3.49,3.49,0,0,1-1.22-.9,4.37,4.37,0,0,1-.8-1.44,6.07,6.07,0,0,1-.29-1.93A5.86,5.86,0,0,1,92.57,93a4.37,4.37,0,0,1,.8-1.44,3.45,3.45,0,0,1,1.21-.91,3.77,3.77,0,0,1,1.55-.31,3.43,3.43,0,0,1,1.55.36,3.47,3.47,0,0,1,1.24,1.06V87.28h1.89v12Zm-2.23-1.46a2.56,2.56,0,0,0,.66-.09,3.45,3.45,0,0,0,.63-.25,5.14,5.14,0,0,0,.54-.37,2.17,2.17,0,0,0,.4-.46V93.22a2.39,2.39,0,0,0-.4-.45,4,4,0,0,0-.54-.38,2.85,2.85,0,0,0-.63-.25,2.56,2.56,0,0,0-.66-.09,2.29,2.29,0,0,0-1,.22,2.33,2.33,0,0,0-.77.59,2.58,2.58,0,0,0-.5.91,4,4,0,0,0,0,2.32,2.82,2.82,0,0,0,.5.92,2.24,2.24,0,0,0,.77.6A2.29,2.29,0,0,0,96.69,97.83Z" fill="#e52823"/><path d="M104.21,89.53a1.09,1.09,0,0,1-.82-.34,1.16,1.16,0,0,1,0-1.66,1.09,1.09,0,0,1,.82-.34,1.12,1.12,0,0,1,.83.34,1.18,1.18,0,0,1,0,1.66A1.12,1.12,0,0,1,104.21,89.53Zm-.95,9.76v-8.7h1.89v8.7Z" fill="#e52823"/><path d="M110.59,99.5a6.07,6.07,0,0,1-2.09-.35,4.46,4.46,0,0,1-1.64-1l.86-1.35a3.67,3.67,0,0,0,.56.45,4.13,4.13,0,0,0,.72.39,6,6,0,0,0,.82.27,3.44,3.44,0,0,0,.84.1,2.17,2.17,0,0,0,1.29-.32,1,1,0,0,0,.44-.83.69.69,0,0,0-.39-.65,4.3,4.3,0,0,0-1-.36c-.39-.1-.82-.19-1.27-.29a5.13,5.13,0,0,1-1.27-.43,2.74,2.74,0,0,1-1-.77,2.1,2.1,0,0,1-.39-1.34,2.33,2.33,0,0,1,.22-1,2.41,2.41,0,0,1,.66-.84,3.3,3.3,0,0,1,1.07-.57,4.75,4.75,0,0,1,1.47-.2,5.11,5.11,0,0,1,2,.34,4.85,4.85,0,0,1,1.42.86l-.8,1.33a3.25,3.25,0,0,0-1.07-.73,3.5,3.5,0,0,0-1.5-.31,2,2,0,0,0-1.18.31A.91.91,0,0,0,109,93a.64.64,0,0,0,.38.58,4.48,4.48,0,0,0,1,.33l1.27.29a5.24,5.24,0,0,1,1.26.45,2.65,2.65,0,0,1,1,.81,2.27,2.27,0,0,1,.38,1.37,2.42,2.42,0,0,1-.92,2,3.37,3.37,0,0,1-1.14.56A5.24,5.24,0,0,1,110.59,99.5Z" fill="#e52823"/><path d="M120.05,99.5a4.63,4.63,0,0,1-1.81-.34,4.44,4.44,0,0,1-1.41-1,4.74,4.74,0,0,1-.93-1.45,5,5,0,0,1-.33-1.83,4.87,4.87,0,0,1,.33-1.82,4.69,4.69,0,0,1,.93-1.44,4.28,4.28,0,0,1,1.41-1,4.63,4.63,0,0,1,1.81-.34,5,5,0,0,1,1.16.12,4.3,4.3,0,0,1,.92.34,3.45,3.45,0,0,1,.71.5,3.65,3.65,0,0,1,.54.58l-1.24,1.14a2.32,2.32,0,0,0-2-1,2.43,2.43,0,0,0-1.9.8,2.94,2.94,0,0,0-.72,2.08,3.57,3.57,0,0,0,.18,1.16,2.9,2.9,0,0,0,.54.92,2.45,2.45,0,0,0,.83.6,2.5,2.5,0,0,0,1.07.22,2.32,2.32,0,0,0,2-1L123.38,98A4.22,4.22,0,0,1,122.12,99,3.94,3.94,0,0,1,120.05,99.5Z" fill="#e52823"/><path d="M129,99.5a4.46,4.46,0,0,1-1.87-.37,4.08,4.08,0,0,1-1.41-1,4.18,4.18,0,0,1-.88-1.45,5.31,5.31,0,0,1,0-3.52,4.18,4.18,0,0,1,.88-1.45,4.06,4.06,0,0,1,1.41-1,5,5,0,0,1,3.74,0,4,4,0,0,1,1.4,1,4.2,4.2,0,0,1,.89,1.45,5.31,5.31,0,0,1,0,3.52,4.2,4.2,0,0,1-.89,1.45,4,4,0,0,1-1.4,1A4.49,4.49,0,0,1,129,99.5Zm0-1.67a2.32,2.32,0,0,0,1.08-.24,2.17,2.17,0,0,0,.78-.63,2.78,2.78,0,0,0,.48-.92,3.77,3.77,0,0,0,.16-1.11,3.66,3.66,0,0,0-.16-1.1,2.88,2.88,0,0,0-.48-.92,2.41,2.41,0,0,0-.78-.63,2.45,2.45,0,0,0-1.08-.23,2.39,2.39,0,0,0-1.06.23,2.35,2.35,0,0,0-.79.63,2.71,2.71,0,0,0-.49.92,3.66,3.66,0,0,0-.16,1.1,3.77,3.77,0,0,0,.16,1.11,2.62,2.62,0,0,0,.49.92,2.13,2.13,0,0,0,.79.63A2.27,2.27,0,0,0,129,97.83Z" fill="#e52823"/><path d="M141.26,99.29V98.13a4.67,4.67,0,0,1-1.25,1,3.81,3.81,0,0,1-1.81.42,2.82,2.82,0,0,1-2.11-.71,2.76,2.76,0,0,1-.7-2V90.59h1.89v5.46a1.7,1.7,0,0,0,.48,1.39,1.94,1.94,0,0,0,1.28.39,2.54,2.54,0,0,0,1.31-.35,3.26,3.26,0,0,0,.91-.79v-6.1h1.89v8.7Z" fill="#e52823"/><path d="M151.48,99.29V93.85a1.72,1.72,0,0,0-.48-1.41,1.94,1.94,0,0,0-1.28-.39,2.46,2.46,0,0,0-1.31.36,3.52,3.52,0,0,0-.93.79v6.09h-1.89v-8.7h1.89v1.17a4.43,4.43,0,0,1,.54-.5,3.58,3.58,0,0,1,.71-.45,4.53,4.53,0,0,1,.85-.32,3.87,3.87,0,0,1,1-.11,2.5,2.5,0,0,1,2.81,2.79v6.12Z" fill="#e52823"/><path d="M158.45,99.5a2.25,2.25,0,0,1-1.68-.57,2.35,2.35,0,0,1-.56-1.68v-5h-1.44V90.59h1.44V88.22h1.89v2.37h1.77v1.64H158.1v4.55a1.28,1.28,0,0,0,.21.75.71.71,0,0,0,.62.3,1.35,1.35,0,0,0,.5-.1.87.87,0,0,0,.33-.23l.45,1.44a2.11,2.11,0,0,1-.68.4A3.08,3.08,0,0,1,158.45,99.5Z" fill="#e52823"/><path d="M164.55,99.5a6.11,6.11,0,0,1-2.09-.35,4.55,4.55,0,0,1-1.64-1l.87-1.35a2.9,2.9,0,0,0,.56.45,3.71,3.71,0,0,0,.71.39,6,6,0,0,0,.82.27,3.5,3.5,0,0,0,.84.1,2.2,2.2,0,0,0,1.3-.32,1,1,0,0,0,.43-.83.69.69,0,0,0-.39-.65,4.3,4.3,0,0,0-1-.36c-.39-.1-.81-.19-1.27-.29a5.13,5.13,0,0,1-1.27-.43,2.83,2.83,0,0,1-1-.77,2.1,2.1,0,0,1-.39-1.34,2.33,2.33,0,0,1,.23-1,2.51,2.51,0,0,1,.65-.84,3.25,3.25,0,0,1,1.08-.57,4.64,4.64,0,0,1,1.46-.2,5.12,5.12,0,0,1,2,.34,4.79,4.79,0,0,1,1.41.86l-.79,1.33a3.36,3.36,0,0,0-1.07-.73,3.55,3.55,0,0,0-1.51-.31,2,2,0,0,0-1.18.31.91.91,0,0,0-.42.77.64.64,0,0,0,.39.58,4.38,4.38,0,0,0,1,.33l1.27.29a5.16,5.16,0,0,1,1.27.45,2.62,2.62,0,0,1,1,.81,2.21,2.21,0,0,1,.39,1.37,2.44,2.44,0,0,1-.24,1.08,2.23,2.23,0,0,1-.69.87,3.32,3.32,0,0,1-1.13.56A5.26,5.26,0,0,1,164.55,99.5Z" fill="#e52823"/><path d="M183.12,99.29l-6.26-8.59v8.59h-2.11v-12h2.17l6.13,8.32V87.28h2.11v12Z" fill="#e52823"/><path d="M191.6,99.5a4.49,4.49,0,0,1-1.87-.37,4,4,0,0,1-1.4-1,4.2,4.2,0,0,1-.89-1.45,5.31,5.31,0,0,1,0-3.52,4.2,4.2,0,0,1,.89-1.45,4,4,0,0,1,1.4-1,5,5,0,0,1,3.74,0,4.06,4.06,0,0,1,1.41,1,4.18,4.18,0,0,1,.88,1.45,5.15,5.15,0,0,1,0,3.52,4.18,4.18,0,0,1-.88,1.45,4.08,4.08,0,0,1-1.41,1A4.46,4.46,0,0,1,191.6,99.5Zm0-1.67a2.32,2.32,0,0,0,1.08-.24,2.21,2.21,0,0,0,.79-.63,2.76,2.76,0,0,0,.47-.92,3.77,3.77,0,0,0,.16-1.11,3.66,3.66,0,0,0-.16-1.1,2.86,2.86,0,0,0-.47-.92,2.4,2.4,0,0,0-3.72,0,2.71,2.71,0,0,0-.49.92,3.66,3.66,0,0,0-.16,1.1,3.77,3.77,0,0,0,.16,1.11,2.62,2.62,0,0,0,.49.92,2.21,2.21,0,0,0,.79.63A2.3,2.3,0,0,0,191.6,97.83Z" fill="#e52823"/><path d="M200.28,99.29l-3.55-8.7h2l2.53,6.52,2.54-6.52h2l-3.55,8.7Z" fill="#e52823"/><path d="M212.64,99.29l4.54-10.14H211V87.28h8.66v1.46L215,99.29Z" fill="#e52823"/><path d="M220.58,95.74V94.12h4.32v1.62Z" fill="#e52823"/><path d="M230.81,99.5a7.19,7.19,0,0,1-1.76-.21,5.37,5.37,0,0,1-1.48-.63,3.2,3.2,0,0,1-1-1,2.7,2.7,0,0,1-.37-1.43,2.66,2.66,0,0,1,.21-1,3.14,3.14,0,0,1,.59-.89,4.23,4.23,0,0,1,.86-.68,5.15,5.15,0,0,1,1-.48,4.87,4.87,0,0,1-1-.41,3.72,3.72,0,0,1-.8-.6,3.13,3.13,0,0,1-.54-.8,2.88,2.88,0,0,1,.19-2.46,3.09,3.09,0,0,1,1-1,4.84,4.84,0,0,1,1.42-.56,7.07,7.07,0,0,1,3.17,0,4.84,4.84,0,0,1,1.42.56,3.09,3.09,0,0,1,1,1,2.79,2.79,0,0,1,.19,2.46,2.89,2.89,0,0,1-.54.8,3.72,3.72,0,0,1-.8.6,4.87,4.87,0,0,1-1,.41,5.15,5.15,0,0,1,1,.48,4.23,4.23,0,0,1,.86.68,3.14,3.14,0,0,1,.59.89,2.66,2.66,0,0,1,.21,1,2.7,2.7,0,0,1-.37,1.43,3.45,3.45,0,0,1-1,1,5.18,5.18,0,0,1-1.47.63A7.17,7.17,0,0,1,230.81,99.5Zm0-1.87a3.56,3.56,0,0,0,.94-.12,2.4,2.4,0,0,0,.78-.34,1.74,1.74,0,0,0,.54-.54,1.25,1.25,0,0,0,.2-.71,1.18,1.18,0,0,0-.28-.8,2.66,2.66,0,0,0-.67-.57,4.54,4.54,0,0,0-.82-.36,1.63,1.63,0,0,0-1.41,0,4.17,4.17,0,0,0-.81.36,2.8,2.8,0,0,0-.66.57,1.18,1.18,0,0,0-.28.8,1.33,1.33,0,0,0,.19.71,1.6,1.6,0,0,0,.53.54,2.5,2.5,0,0,0,.78.34A3.74,3.74,0,0,0,230.81,97.63Zm0-5.38.66-.16a3.82,3.82,0,0,0,.75-.31,2.22,2.22,0,0,0,.6-.5,1,1,0,0,0,.25-.71,1.31,1.31,0,0,0-.64-1.18,3,3,0,0,0-1.62-.42,2.91,2.91,0,0,0-1.62.42,1.3,1.3,0,0,0-.65,1.18,1,1,0,0,0,.25.71,2.12,2.12,0,0,0,.61.5,4.09,4.09,0,0,0,.75.31Z" fill="#e52823"/></g><g id="rec"><rect width="300" height="250" fill="none"/></g></g></svg>