<svg xmlns="http://www.w3.org/2000/svg" viewBox="0 0 160 600"><title>START 160X600</title><g id="Layer_2" data-name="Layer 2"><g id="content"><rect width="160" height="600" fill="#fff"/><path d="M30.82,364.73c15.64-4.78,23.54,7.2,23.54,7.2S49.4,355.21,30.82,364.73Z" fill="#0075a8"/><path d="M61.05,365.35c0-.07,0-.5,0-.57a11.7,11.7,0,0,0-6.17,9S57,368.81,62,367.31A3,3,0,0,1,61.05,365.35Z" fill="#0075a8"/><path d="M41.1,372.33s0,2.37,0,3.56c-.6,0-3.19-.17-4.33-.21,0,.64,0,1.3,0,1.93,1.37,0,2.79.19,4.16.18,0,1.15,0,2.13,0,3.28-1.37,0-2.73-.11-4.1-.14,0,.7,0,1.4,0,2.09,1.47,0,2.94.16,4.41.14,0-.06,0,3.48,0,3.48-2.91,0-6.35-.22-9.62-.5l.23-14.53C33.12,371.77,37.39,372.22,41.1,372.33Z" fill="#ec1c2b"/><path d="M42.34,372.37l-.05,3.79c1.37.07,2.6.07,2.6.07v10.54a33,33,0,0,0,5.25-.07l-.07-10.44s2.33-.1,2.69-.14c0-1.39,0-2.48,0-3.88A91.74,91.74,0,0,1,42.34,372.37Z" fill="#ec1c2b"/><path d="M112.51,370.05v4.41c.88.05,1.89.23,2.78.3,0,3.67-.09,6.46-.09,10.13,2.47.3,4.22.58,4.9.7,0-3.67.15-6.57.15-10.24,0,0,2.62.41,2.67.45v-4.53A80.24,80.24,0,0,0,112.51,370.05Z" fill="#0075a8"/><path d="M25.34,370.11,19.11,369l0,15.25c1.6.32,3.06.58,4.61.75l0-4.4,1.68.18c2.7.25,5.42-.77,5.46-5.18C30.83,371.67,28.22,370.54,25.34,370.11Zm-1.16,7-.45-.05c0-1,0-2,0-3l.44,0a1.52,1.52,0,0,1,1.52,1.6C25.7,377,24.94,377.22,24.18,377.14Z" fill="#ec1c2b"/><path d="M77.28,384.28c.7-1.82,1.4-3.52,2.1-5.33.11,1.74.17,3.31.28,5.05,1.74-.2,3.14-.3,4.89-.41-.45-4.63-.84-9.6-1.3-14.23l-4.48.41c-.84,2.19-1.68,4.85-2.52,7-.81-2-1.62-4.4-2.42-6.42-1.52.22-4.21.69-4.49.69-.52,4.72-1.11,10-1.63,14.69,1.2-.2,4.11-.67,5-.78.14-1.77.27-3.65.41-5.41q1,2.52,2,5Z" fill="#0075a8"/><path d="M109.24,379.43c1.33-.6,2.29-1.89,2.32-4.44,0-3.86-2.67-5.51-5.43-5.72q-3.13-.24-6.26-.33c-.07,4.9-.1,9.38-.16,14.28,1.56,0,3.27.16,4.63.28,0-1.38,0-2.4.06-3.78.9,1.44,1.62,2.62,2.52,4.08,1.92.18,3.88.42,5.8.71C111.52,382.71,110.44,381.18,109.24,379.43Zm-4.33-3.14-.46,0c0-1,0-2,0-2.95l.44,0a1.47,1.47,0,0,1,1.52,1.55A1.27,1.27,0,0,1,104.91,376.29Z" fill="#0075a8"/><path d="M94.41,368.83c-1.85,0-3.37,0-5,.11-1.27,4.74-2.78,9.83-4,14.6,1.42,0,2.86-.12,4.27-.13l.41-1.58,2.17-.06s1.91-.06,1.91-.06c.06.19.23.69.48,1.52,1.42,0,2.84,0,4.26,0C97.36,378.23,95.81,373.4,94.41,368.83ZM91,378.48c.33-1.22.66-2.5,1-3.71.37,1.22.74,2.44,1.12,3.66A20.63,20.63,0,0,1,91,378.48Z" fill="#0075a8"/><path d="M121.22,384.24a.76.76,0,0,1,.77.77.77.77,0,0,1-.77.79.78.78,0,0,1-.78-.79.77.77,0,0,1,.78-.77Zm0,.12a.66.66,0,1,0,.62.66.64.64,0,0,0-.62-.66Zm-.15,1.11h-.14v-.87l.25,0a.54.54,0,0,1,.27.06.22.22,0,0,1,.08.18.23.23,0,0,1-.17.22h0a.22.22,0,0,1,.14.21.79.79,0,0,0,.06.22h-.15a.58.58,0,0,1,0-.22c0-.11-.08-.16-.19-.16h-.1Zm0-.48h.1c.12,0,.21,0,.21-.15s0-.15-.21-.15h-.1Z" fill="#0075a8"/><path d="M54.36,385.42a12.77,12.77,0,0,0,5.76,1.45c3.26,0,6.67-1.95,6.74-5.6,0-2.6-1.6-3.83-3.9-4.35l-1.24-.28c-.41-.1-1.09-.18-1.08-.75s.72-.81,1.19-.81a8.8,8.8,0,0,1,3.33.7l1.38-3.66A11,11,0,0,0,61.8,371c-3.28,0-6.57,2-6.65,5.62,0,2.39,1.73,3.71,3.86,4.1l1.09.21c.5.1,1.22.16,1.2.85s-.86.77-1.4.77a6.42,6.42,0,0,1-3.74-1.24C55.6,382.57,54.93,384.14,54.36,385.42Z" fill="#0075a8"/><path d="M66.15,360.57a3.67,3.67,0,0,0-.1,7.34c2,0,4-1.61,3.72-3.62A3.89,3.89,0,0,0,66.15,360.57Zm1.33,1.36a4.38,4.38,0,0,0-3.94,2.3s0,0,0,.06a2.74,2.74,0,0,1,.09-1,2.51,2.51,0,0,1,3.05-1.79,2.32,2.32,0,0,1,.86.47Z" fill="#ec1c2b"/><rect x="12.12" y="311.43" width="124.91" height="25.64" rx="12.18" fill="#e52a26"/><path d="M35.67,327.08a2.21,2.21,0,0,0,1.66.81,1.62,1.62,0,0,0,1.25-.49,1.81,1.81,0,0,0,.46-1.28v-6.64h1.71v6.67a3.14,3.14,0,0,1-.91,2.43,3.39,3.39,0,0,1-2.38.82,3.34,3.34,0,0,1-2.58-1Z" fill="#fff"/><path d="M44.05,328.91a3.37,3.37,0,0,1-1.27-1.35,4.17,4.17,0,0,1,0-3.73,3.41,3.41,0,0,1,1.27-1.34,3.92,3.92,0,0,1,3.83,0,3.38,3.38,0,0,1,1.27,1.33,4.19,4.19,0,0,1,0,3.74,3.37,3.37,0,0,1-1.27,1.35,4,4,0,0,1-3.83,0Zm3.4-1.54a2.59,2.59,0,0,0,.55-1.68,2.54,2.54,0,0,0-.55-1.66,2,2,0,0,0-3,0,2.54,2.54,0,0,0-.55,1.66,2.59,2.59,0,0,0,.55,1.68,2,2,0,0,0,3,0Z" fill="#fff"/><path d="M51.24,320.72a.93.93,0,0,1,0-1.35.93.93,0,0,1,.66-.27.94.94,0,0,1,1,.95.91.91,0,0,1-.28.67.93.93,0,0,1-.67.28A.94.94,0,0,1,51.24,320.72Zm-.1,1.44h1.53v7.06H51.14Z" fill="#fff"/><path d="M59.42,324.81a1.46,1.46,0,0,0-.37-1.13,1.5,1.5,0,0,0-1-.33,2.06,2.06,0,0,0-1,.27,2.59,2.59,0,0,0-.78.68v4.92H54.66v-7.06h1.53v1a3.66,3.66,0,0,1,1.05-.81,3.16,3.16,0,0,1,1.43-.33A2,2,0,0,1,61,324.25v5H59.42Z" fill="#fff"/><path d="M72.28,322l-1.88,7.19H68.57l-2.78-9.74H67.7l1.9,7.5,2-7.5H73l2,7.5,1.89-7.5h1.91L76,329.22H74.18Z" fill="#fff"/><path d="M84.25,328.25a2.93,2.93,0,0,1-1,.85,2.72,2.72,0,0,1-1.26.3,3,3,0,0,1-1.62-.44,3,3,0,0,1-1.12-1.28,4.52,4.52,0,0,1-.4-2,4.46,4.46,0,0,1,.4-2,3,3,0,0,1,1.12-1.3A3,3,0,0,1,82,322a2.78,2.78,0,0,1,1.26.3,2.73,2.73,0,0,1,1,.85v-1h1.54v7.06H84.25Zm0-3.94a2,2,0,0,0-.77-.68,2.22,2.22,0,0,0-1-.27A1.79,1.79,0,0,0,81,324a2.93,2.93,0,0,0,0,3.39,1.79,1.79,0,0,0,1.45.65,2.22,2.22,0,0,0,1-.27,1.89,1.89,0,0,0,.77-.67Z" fill="#fff"/><path d="M87.87,320.72a.93.93,0,0,1,0-1.35.93.93,0,0,1,.66-.27.94.94,0,0,1,1,.95.91.91,0,0,1-.28.67.93.93,0,0,1-.67.28A.94.94,0,0,1,87.87,320.72Zm-.1,1.44H89.3v7.06H87.77Z" fill="#fff"/><path d="M92.06,328.94a1.84,1.84,0,0,1-.46-1.35v-4.08H90.43v-1.35H91.6v-1.92h1.53v1.92h1.43v1.35H93.13v3.7a.94.94,0,0,0,.18.61.58.58,0,0,0,.49.23,1.1,1.1,0,0,0,.4-.08.62.62,0,0,0,.29-.17l.36,1.15a2,2,0,0,1-1.44.45A1.8,1.8,0,0,1,92.06,328.94Z" fill="#fff"/><path d="M96.41,328.94a1.83,1.83,0,0,1-.46-1.35v-8.11h1.53v7.73a.94.94,0,0,0,.18.61.58.58,0,0,0,.49.23,1.1,1.1,0,0,0,.4-.08.55.55,0,0,0,.27-.17l.37,1.15a2,2,0,0,1-1.43.45A1.8,1.8,0,0,1,96.41,328.94Z" fill="#fff"/><path d="M100.2,320.72a1,1,0,0,1,0-1.35,1,1,0,0,1,1.34,0,1,1,0,1,1-1.34,1.35Zm-.09,8.5v-7.06h1.53v7.06h-1.53" fill="#fff"/><path d="M103.71,327.2a3.31,3.31,0,0,0,1.07.7,3.23,3.23,0,0,0,1.33.29,2,2,0,0,0,1-.22.73.73,0,0,0,.36-.64.68.68,0,0,0-.41-.64,4.54,4.54,0,0,0-1.2-.39,11.06,11.06,0,0,1-1.37-.38,2.35,2.35,0,0,1-.91-.62,1.73,1.73,0,0,1-.38-1.17,1.9,1.9,0,0,1,.33-1.07,2.36,2.36,0,0,1,1-.78A3.57,3.57,0,0,1,106,322a4,4,0,0,1,2.74,1l-.64,1.08a2.35,2.35,0,0,0-.89-.61,3,3,0,0,0-1.2-.24,1.84,1.84,0,0,0-1,.22.63.63,0,0,0-.35.57.59.59,0,0,0,.38.56,5.25,5.25,0,0,0,1.15.36,9.77,9.77,0,0,1,1.39.39,2.43,2.43,0,0,1,1,.67,1.81,1.81,0,0,1,.39,1.23,2,2,0,0,1-.77,1.58,3.4,3.4,0,0,1-2.16.61,5,5,0,0,1-1.7-.28,3.72,3.72,0,0,1-1.33-.81Z" fill="#fff"/><path d="M109.66,323.51v-1.35h1.16v-1.92h1.54v1.92h1.43v1.35h-1.43v3.7a1,1,0,0,0,.17.61.6.6,0,0,0,.5.23,1.1,1.1,0,0,0,.4-.08.62.62,0,0,0,.29-.17l.36,1.15a2,2,0,0,1-1.45.45,1.83,1.83,0,0,1-1.35-.46,1.89,1.89,0,0,1-.46-1.35v-4.08h-1.16" fill="#fff"/><path d="M11.63,24.92H22.16a6.53,6.53,0,0,1,3.14.7,4.83,4.83,0,0,1,2,1.86A5,5,0,0,1,27.92,30a4.75,4.75,0,0,1-1,3.07,4.15,4.15,0,0,1-2.46,1.53,4.2,4.2,0,0,1,2.73,1.64,5.18,5.18,0,0,1,1.11,3.28,5.26,5.26,0,0,1-1.53,3.87,5.8,5.8,0,0,1-4.29,1.52H11.63Zm9.6,8a2.35,2.35,0,0,0,1.71-.62,2.3,2.3,0,0,0,0-3.17,2.33,2.33,0,0,0-1.7-.63H15.89V33Zm.15,8.33a2.66,2.66,0,0,0,1.89-.64,2.43,2.43,0,0,0,0-3.39,2.59,2.59,0,0,0-1.89-.68H15.89v4.71Z" fill="#e52823"/><path d="M32.47,44.31a4,4,0,0,1-1-3V24.92h3.81V40.33a1.77,1.77,0,0,0,.36,1.14,1.14,1.14,0,0,0,1,.45,2.45,2.45,0,0,0,.78-.12,1,1,0,0,0,.51-.3l.81,2.88a4.63,4.63,0,0,1-3.15.94A4.19,4.19,0,0,1,32.47,44.31Z" fill="#e52823"/><path d="M50.33,43.07a5.87,5.87,0,0,1-2,1.66,5.36,5.36,0,0,1-2.47.59,6.2,6.2,0,0,1-3.3-.91,6,6,0,0,1-2.29-2.61,9.21,9.21,0,0,1-.83-4.09,9.14,9.14,0,0,1,.83-4A6.27,6.27,0,0,1,42.54,31a6,6,0,0,1,3.32-.93,5.55,5.55,0,0,1,2.46.57,5.76,5.76,0,0,1,2,1.64V30.43h3.84V44.92H50.33Zm0-7.92A3.56,3.56,0,0,0,48.92,34,4.18,4.18,0,0,0,47,33.5a3.35,3.35,0,0,0-2.64,1.15,4.49,4.49,0,0,0-1,3.06,4.47,4.47,0,0,0,1,3A3.34,3.34,0,0,0,47,41.92a4.18,4.18,0,0,0,1.89-.46,3.56,3.56,0,0,0,1.41-1.19Z" fill="#e52823"/><path d="M58,33.76a7.11,7.11,0,0,1,2.73-2.71,8,8,0,0,1,4-1,7.58,7.58,0,0,1,3.48.73,6.07,6.07,0,0,1,2.25,1.87L67.94,35a3.47,3.47,0,0,0-3.06-1.57,3.72,3.72,0,0,0-2.83,1.16,4.82,4.82,0,0,0,0,6.13,3.82,3.82,0,0,0,5.89-.38l2.49,2.3a6.15,6.15,0,0,1-2.23,1.9,7.58,7.58,0,0,1-3.5.75,8,8,0,0,1-4-1A7,7,0,0,1,58,41.63a8.32,8.32,0,0,1,0-7.87Z" fill="#e52823"/><path d="M78.47,39.34l-1.74,1.87v3.71H72.92v-20h3.81v12l5.49-6.45H86.9L81.17,37l5.91,7.92H82.31Z" fill="#e52823"/><path d="M11.63,58.92H25.79v3.66h-9.9v4.34h9.69v3.66H15.89v8.34H11.63Z" fill="#e52823"/><path d="M28.67,64.43h3.81v2a6.28,6.28,0,0,1,2-1.67,5.4,5.4,0,0,1,2.58-.67v3.71a5.54,5.54,0,0,0-1.05-.12,5.06,5.06,0,0,0-2,.49,3.41,3.41,0,0,0-1.53,1.17v9.59H28.67Z" fill="#e52823"/><path d="M39.76,61.63a2.19,2.19,0,0,1-.68-1.6,2.21,2.21,0,0,1,.68-1.61,2.18,2.18,0,0,1,1.6-.67,2.2,2.2,0,0,1,1.62.66A2.17,2.17,0,0,1,43.64,60a2.21,2.21,0,0,1-.66,1.6,2.27,2.27,0,0,1-3.22,0Zm-.29,2.8h3.81V78.92H39.47Z" fill="#e52823"/><path d="M57,77.07a5.84,5.84,0,0,1-2,1.66,5.43,5.43,0,0,1-2.48.59,6.2,6.2,0,0,1-3.3-.91A6,6,0,0,1,47,75.8a10.37,10.37,0,0,1,0-8.13A6.22,6.22,0,0,1,49.24,65a6,6,0,0,1,3.31-.93,5.55,5.55,0,0,1,2.46.57,5.76,5.76,0,0,1,2,1.64V58.92h3.84v20H57Zm0-7.95a3.56,3.56,0,0,0-1.41-1.19,4.19,4.19,0,0,0-1.89-.47,3.35,3.35,0,0,0-2.64,1.18,5.08,5.08,0,0,0,0,6.11,3.34,3.34,0,0,0,2.64,1.17,4.18,4.18,0,0,0,1.89-.46A3.56,3.56,0,0,0,57,74.27Z" fill="#e52823"/><path d="M74.6,77.07a5.84,5.84,0,0,1-2,1.66,5.43,5.43,0,0,1-2.48.59,6.2,6.2,0,0,1-3.3-.91,6,6,0,0,1-2.29-2.61,10.37,10.37,0,0,1,0-8.13A6.22,6.22,0,0,1,66.82,65a6,6,0,0,1,3.31-.93,5.55,5.55,0,0,1,2.46.57,5.76,5.76,0,0,1,2,1.64V64.43h3.84V78.92H74.6Zm0-7.92A3.56,3.56,0,0,0,73.19,68a4.18,4.18,0,0,0-1.89-.46,3.35,3.35,0,0,0-2.64,1.15,5.07,5.07,0,0,0,0,6.1,3.34,3.34,0,0,0,2.64,1.17,4.18,4.18,0,0,0,1.89-.46,3.56,3.56,0,0,0,1.41-1.19Z" fill="#e52823"/><path d="M83.75,79.88a4.61,4.61,0,0,0,1.92,1.36,6.7,6.7,0,0,0,2.43.44,4,4,0,0,0,2.88-1A3.59,3.59,0,0,0,92,78v-1.5A6.87,6.87,0,0,1,89.86,78a6.73,6.73,0,0,1-3,.63,4.73,4.73,0,0,1-3.51-1.2,4.62,4.62,0,0,1-1.17-3.37V64.43H86v8.16a2.65,2.65,0,0,0,.69,2.06,2.88,2.88,0,0,0,2,.61,3.84,3.84,0,0,0,1.89-.47A4.55,4.55,0,0,0,92,73.62V64.43h3.81V77.79A6.55,6.55,0,0,1,93.73,83,8.19,8.19,0,0,1,88.1,84.8,8.9,8.9,0,0,1,82,82.65Z" fill="#e52823"/><path d="M21.5,111.07a5.84,5.84,0,0,1-2,1.66,5.43,5.43,0,0,1-2.48.59,6.2,6.2,0,0,1-3.3-.91,6,6,0,0,1-2.29-2.61,10.37,10.37,0,0,1,0-8.13A6.22,6.22,0,0,1,13.72,99,6,6,0,0,1,17,98.08a5.55,5.55,0,0,1,2.46.57,5.76,5.76,0,0,1,2,1.64V92.92h3.84v20H21.5Zm0-7.95a3.56,3.56,0,0,0-1.41-1.19,4.19,4.19,0,0,0-1.89-.47,3.35,3.35,0,0,0-2.64,1.18,5.08,5.08,0,0,0,0,6.11,3.34,3.34,0,0,0,2.64,1.17,4.18,4.18,0,0,0,1.89-.46,3.56,3.56,0,0,0,1.41-1.19Z" fill="#e52823"/><path d="M29.15,101.85a7.27,7.27,0,0,1,2.67-2.75,7.41,7.41,0,0,1,3.87-1,7.12,7.12,0,0,1,3.78,1A6.82,6.82,0,0,1,42,101.9a9.11,9.11,0,0,1,.91,4.15v.85H32.18a3.75,3.75,0,0,0,1.29,2.42,4.25,4.25,0,0,0,2.88,1,6.15,6.15,0,0,0,2.12-.39,4.82,4.82,0,0,0,1.75-1.06l1.68,2.46a7.06,7.06,0,0,1-2.64,1.49,10.55,10.55,0,0,1-3.33.53,8.28,8.28,0,0,1-4-.95,6.94,6.94,0,0,1-2.77-2.68,7.83,7.83,0,0,1-1-4A7.75,7.75,0,0,1,29.15,101.85Zm4,.23a3.9,3.9,0,0,0-1.05,2.24h7.14a3.69,3.69,0,0,0-1-2.23,3.31,3.31,0,0,0-2.6-1A3.26,3.26,0,0,0,33.17,102.08Z" fill="#e52823"/><path d="M55.67,111.07a5.84,5.84,0,0,1-2,1.66,5.43,5.43,0,0,1-2.48.59,6.2,6.2,0,0,1-3.3-.91,6,6,0,0,1-2.29-2.61,10.37,10.37,0,0,1,0-8.13A6.22,6.22,0,0,1,47.89,99a6,6,0,0,1,3.31-.93,5.55,5.55,0,0,1,2.46.57,5.76,5.76,0,0,1,2,1.64V98.43h3.84v14.49H55.67Zm0-7.92A3.56,3.56,0,0,0,54.26,102a4.18,4.18,0,0,0-1.89-.46,3.35,3.35,0,0,0-2.64,1.15,5.07,5.07,0,0,0,0,6.1,3.34,3.34,0,0,0,2.64,1.17,4.18,4.18,0,0,0,1.89-.46,3.56,3.56,0,0,0,1.41-1.19Z" fill="#e52823"/><path d="M64.33,112.31a4,4,0,0,1-1-3V92.92H67.1v15.41a1.77,1.77,0,0,0,.36,1.14,1.14,1.14,0,0,0,1,.45,2.45,2.45,0,0,0,.78-.12,1,1,0,0,0,.51-.3l.81,2.88a4.63,4.63,0,0,1-3.15.94A4.19,4.19,0,0,1,64.33,112.31Z" fill="#e52823"/><path d="M72.62,108.4a7.65,7.65,0,0,0,2.28,1.38,7.11,7.11,0,0,0,2.73.6,3.43,3.43,0,0,0,1.82-.4,1.22,1.22,0,0,0,.61-1.09,1.15,1.15,0,0,0-.72-1.06,9.36,9.36,0,0,0-2.19-.66,21.46,21.46,0,0,1-2.88-.72,4.75,4.75,0,0,1-2-1.31,3.56,3.56,0,0,1-.84-2.51,4,4,0,0,1,.71-2.27,4.78,4.78,0,0,1,2-1.67,7.61,7.61,0,0,1,3.18-.61,9.17,9.17,0,0,1,5.85,2l-1.53,2.62a5.36,5.36,0,0,0-1.84-1.21,6.51,6.51,0,0,0-2.45-.47,3.39,3.39,0,0,0-1.66.35,1.12,1.12,0,0,0-.62,1,1,1,0,0,0,.68,1,10.26,10.26,0,0,0,2.08.62,19.56,19.56,0,0,1,2.91.75,5,5,0,0,1,2,1.38,3.77,3.77,0,0,1,.87,2.62A4.11,4.11,0,0,1,83,111a4.74,4.74,0,0,1-2.16,1.67,8.68,8.68,0,0,1-3.38.61,10.65,10.65,0,0,1-3.61-.61A8,8,0,0,1,71,111.07Z" fill="#e52823"/><path d="M11.93,142.4a7.65,7.65,0,0,0,2.28,1.38,7.11,7.11,0,0,0,2.73.6,3.43,3.43,0,0,0,1.82-.4,1.22,1.22,0,0,0,.61-1.09,1.15,1.15,0,0,0-.72-1.06,9.36,9.36,0,0,0-2.19-.66,21.46,21.46,0,0,1-2.88-.72,4.75,4.75,0,0,1-2-1.31,3.56,3.56,0,0,1-.84-2.51,4,4,0,0,1,.71-2.27,4.78,4.78,0,0,1,2-1.67,7.61,7.61,0,0,1,3.18-.61,9.17,9.17,0,0,1,5.85,2L21,136.67a5.36,5.36,0,0,0-1.84-1.21,6.51,6.51,0,0,0-2.45-.47,3.39,3.39,0,0,0-1.66.35,1.12,1.12,0,0,0-.62,1,1,1,0,0,0,.68.95,10.26,10.26,0,0,0,2.08.62,19.56,19.56,0,0,1,2.91.75,5,5,0,0,1,2,1.38,3.77,3.77,0,0,1,.87,2.62A4.11,4.11,0,0,1,22.3,145a4.74,4.74,0,0,1-2.16,1.67,8.68,8.68,0,0,1-3.38.61,10.65,10.65,0,0,1-3.61-.61,8,8,0,0,1-2.87-1.64Z" fill="#e52823"/><path d="M27.65,146.29a3.92,3.92,0,0,1-1-2.95v-7.58H24.2v-3.33h2.4v-4h3.84v4h2.94v3.33H30.44v6.57a1.77,1.77,0,0,0,.36,1.14,1.17,1.17,0,0,0,1,.45,2.45,2.45,0,0,0,.78-.12,1.25,1.25,0,0,0,.54-.3l.81,2.88a4.68,4.68,0,0,1-3.18.94A4.22,4.22,0,0,1,27.65,146.29Z" fill="#e52823"/><path d="M46,145.07a5.84,5.84,0,0,1-2,1.66,5.43,5.43,0,0,1-2.48.59,6.2,6.2,0,0,1-3.3-.91,6,6,0,0,1-2.29-2.61,10.37,10.37,0,0,1,0-8.13A6.22,6.22,0,0,1,38.17,133a6,6,0,0,1,3.31-.93,5.55,5.55,0,0,1,2.46.57,5.76,5.76,0,0,1,2,1.64v-1.86h3.84v14.49H46Zm0-7.92A3.56,3.56,0,0,0,44.54,136a4.18,4.18,0,0,0-1.89-.46A3.35,3.35,0,0,0,40,136.65a5.07,5.07,0,0,0,0,6.1,3.34,3.34,0,0,0,2.64,1.17,4.18,4.18,0,0,0,1.89-.46A3.56,3.56,0,0,0,46,142.27Z" fill="#e52823"/><path d="M53.57,132.43h3.81v2a6.28,6.28,0,0,1,2-1.67,5.4,5.4,0,0,1,2.58-.67v3.71a5.54,5.54,0,0,0-1-.12,5.06,5.06,0,0,0-2,.49,3.41,3.41,0,0,0-1.53,1.17v9.59H53.57Z" fill="#e52823"/><path d="M66.17,146.29a3.92,3.92,0,0,1-1-2.95v-7.58h-2.4v-3.33h2.4v-4H69v4H71.9v3.33H69v6.57a1.77,1.77,0,0,0,.36,1.14,1.17,1.17,0,0,0,1,.45,2.45,2.45,0,0,0,.78-.12,1.25,1.25,0,0,0,.54-.3l.81,2.88a4.68,4.68,0,0,1-3.18.94A4.22,4.22,0,0,1,66.17,146.29Z" fill="#e52823"/><path d="M84,146.29a3.92,3.92,0,0,1-1-2.95v-7.58h-2.4v-3.33h2.4v-4h3.84v4h2.94v3.33H86.78v6.57a1.77,1.77,0,0,0,.36,1.14,1.17,1.17,0,0,0,1,.45,2.45,2.45,0,0,0,.78-.12,1.25,1.25,0,0,0,.54-.3l.81,2.88a4.68,4.68,0,0,1-3.18.94A4.22,4.22,0,0,1,84,146.29Z" fill="#e52823"/><path d="M102.14,138.11a2.59,2.59,0,0,0-.69-2,3,3,0,0,0-2-.61,3.76,3.76,0,0,0-1.89.5,4.65,4.65,0,0,0-1.41,1.21v9.75H92.33v-20h3.81v7.41a6.27,6.27,0,0,1,2.11-1.59,6.53,6.53,0,0,1,3-.66,4.73,4.73,0,0,1,3.52,1.2,4.57,4.57,0,0,1,1.19,3.35v10.29h-3.81Z" fill="#e52823"/><path d="M110,129.63a2.18,2.18,0,0,1-.67-1.6,2.29,2.29,0,0,1,3.9-1.62,2.17,2.17,0,0,1,.66,1.62,2.21,2.21,0,0,1-.66,1.6,2.17,2.17,0,0,1-1.62.67A2.2,2.2,0,0,1,110,129.63Zm-.28,2.8h3.81v14.49h-3.81Z" fill="#e52823"/><path d="M117.71,142.4a7.65,7.65,0,0,0,2.28,1.38,7.11,7.11,0,0,0,2.73.6,3.4,3.4,0,0,0,1.81-.4,1.23,1.23,0,0,0,.62-1.09,1.15,1.15,0,0,0-.72-1.06,9.36,9.36,0,0,0-2.19-.66,21.46,21.46,0,0,1-2.88-.72,4.75,4.75,0,0,1-2-1.31,3.56,3.56,0,0,1-.84-2.51,4,4,0,0,1,.7-2.27,4.81,4.81,0,0,1,2.06-1.67,7.61,7.61,0,0,1,3.18-.61,9.17,9.17,0,0,1,5.85,2l-1.53,2.62a5.4,5.4,0,0,0-1.85-1.21,6.46,6.46,0,0,0-2.44-.47,3.43,3.43,0,0,0-1.67.35,1.11,1.11,0,0,0-.61,1,1,1,0,0,0,.67.95,10.39,10.39,0,0,0,2.09.62,19.56,19.56,0,0,1,2.91.75,5,5,0,0,1,2,1.38,3.77,3.77,0,0,1,.87,2.62,4.12,4.12,0,0,1-.74,2.39,4.74,4.74,0,0,1-2.16,1.67,8.63,8.63,0,0,1-3.37.61,10.71,10.71,0,0,1-3.62-.61,7.9,7.9,0,0,1-2.86-1.64Z" fill="#e52823"/><path d="M15.89,167.49v13.43H11.63v-20H16l9.27,13v-13h4.26v20H25.43Z" fill="#e52823"/><path d="M36.08,180.29a6.94,6.94,0,0,1-2.67-2.76,8.37,8.37,0,0,1,0-7.67,6.94,6.94,0,0,1,2.67-2.76,8.61,8.61,0,0,1,8.13,0,6.94,6.94,0,0,1,2.67,2.76,8.37,8.37,0,0,1,0,7.67,6.94,6.94,0,0,1-2.67,2.76,8.54,8.54,0,0,1-8.13,0Zm6.77-3.58a5,5,0,0,0,0-6,3.35,3.35,0,0,0-2.72-1.22,3.3,3.3,0,0,0-2.7,1.22,5.09,5.09,0,0,0,0,6,3.29,3.29,0,0,0,2.7,1.21A3.35,3.35,0,0,0,42.85,176.71Z" fill="#e52823"/><path d="M48.56,166.43h4.08l3.78,10.08,3.78-10.08h4.11l-5.82,14.49H54.38Z" fill="#e52823"/><path d="M66.05,169.85a7.27,7.27,0,0,1,2.67-2.75,7.41,7.41,0,0,1,3.87-1,7.12,7.12,0,0,1,3.78,1,6.8,6.8,0,0,1,2.56,2.82,9.12,9.12,0,0,1,.92,4.15v.85H69.08a3.75,3.75,0,0,0,1.29,2.42,4.25,4.25,0,0,0,2.88,1,6.19,6.19,0,0,0,2.12-.39,4.91,4.91,0,0,0,1.75-1.06l1.68,2.46a7.06,7.06,0,0,1-2.64,1.49,10.55,10.55,0,0,1-3.33.53,8.28,8.28,0,0,1-4-.95,7,7,0,0,1-2.78-2.68,8.33,8.33,0,0,1,0-7.84Zm4,.23a3.9,3.9,0,0,0-1,2.24h7.14a3.7,3.7,0,0,0-1-2.23,3.83,3.83,0,0,0-5.11,0Z" fill="#e52823"/><path d="M100.58,171.78a2.53,2.53,0,0,0-.53-1.7,2,2,0,0,0-1.63-.62,3.15,3.15,0,0,0-1.73.51,5,5,0,0,0-1.27,1.18v9.77H91.58v-9.14a2.53,2.53,0,0,0-.53-1.7,2,2,0,0,0-1.63-.62,3.16,3.16,0,0,0-1.71.51,4.53,4.53,0,0,0-1.29,1.2v9.75H82.61V166.43h3.81v1.9a5.41,5.41,0,0,1,1.89-1.52,5.87,5.87,0,0,1,2.85-.73,4.58,4.58,0,0,1,2.58.68,3.76,3.76,0,0,1,1.44,2,5.81,5.81,0,0,1,2-1.85,5.72,5.72,0,0,1,2.93-.78,4.29,4.29,0,0,1,3.15,1.09,4.44,4.44,0,0,1,1.11,3.29v10.46h-3.84Z" fill="#e52823"/><path d="M108.17,160.92H112v7.37a5.76,5.76,0,0,1,2-1.64,5.55,5.55,0,0,1,2.46-.57,6,6,0,0,1,3.31.93,6.22,6.22,0,0,1,2.28,2.66,10.37,10.37,0,0,1,0,8.13,6,6,0,0,1-2.29,2.61,6.2,6.2,0,0,1-3.3.91,5.43,5.43,0,0,1-2.48-.59,5.84,5.84,0,0,1-2-1.66v1.85h-3.81Zm5.22,16.54a4.12,4.12,0,0,0,1.86.46,3.39,3.39,0,0,0,2.67-1.15,5.12,5.12,0,0,0,0-6.13,3.38,3.38,0,0,0-2.67-1.18,4,4,0,0,0-1.86.49,3.66,3.66,0,0,0-1.41,1.2v5.15A3.67,3.67,0,0,0,113.39,177.46Z" fill="#e52823"/><path d="M125.78,169.85a7.27,7.27,0,0,1,2.67-2.75,7.41,7.41,0,0,1,3.87-1,7.12,7.12,0,0,1,3.78,1,6.8,6.8,0,0,1,2.56,2.82,9.12,9.12,0,0,1,.92,4.15v.85H128.81a3.75,3.75,0,0,0,1.29,2.42,4.25,4.25,0,0,0,2.88,1,6.09,6.09,0,0,0,2.11-.39,4.87,4.87,0,0,0,1.76-1.06l1.68,2.46a7.06,7.06,0,0,1-2.64,1.49,10.55,10.55,0,0,1-3.33.53,8.28,8.28,0,0,1-4-.95,7,7,0,0,1-2.78-2.68,8.33,8.33,0,0,1,0-7.84Zm4,.23a3.9,3.9,0,0,0-1.05,2.24h7.14a3.7,3.7,0,0,0-1-2.23,3.83,3.83,0,0,0-5.11,0Z" fill="#e52823"/><path d="M142.34,166.43h3.81v2a6.28,6.28,0,0,1,2-1.67,5.4,5.4,0,0,1,2.58-.67v3.71a5.54,5.54,0,0,0-1.05-.12,5.06,5.06,0,0,0-2,.49,3.41,3.41,0,0,0-1.53,1.17v9.59h-3.81Z" fill="#e52823"/><path d="M150.77,177.17a2.43,2.43,0,0,1,4.14,1.71,2.43,2.43,0,0,1-4.86,0A2.35,2.35,0,0,1,150.77,177.17Z" fill="#e52823"/></g></g></svg>