<svg xmlns="http://www.w3.org/2000/svg" viewBox="0 0 160 600"><g id="Layer_2" data-name="Layer 2"><g id="REC"><rect width="160" height="600" fill="none"/></g><g id="subhed"><path d="M22.12,225.2a6.91,6.91,0,0,1-2.74-.5,6,6,0,0,1-1.91-1.31l1.13-1.56a5.32,5.32,0,0,0,1.49,1.11,4.51,4.51,0,0,0,2.12.48,3.56,3.56,0,0,0,1.05-.14,2,2,0,0,0,.7-.36,1.24,1.24,0,0,0,.39-.5,1.31,1.31,0,0,0,.13-.57,1,1,0,0,0-.48-.92,5,5,0,0,0-1.24-.54c-.49-.15-1-.29-1.6-.43a7.57,7.57,0,0,1-1.6-.56,3.59,3.59,0,0,1-1.23-1,2.69,2.69,0,0,1-.49-1.67,3,3,0,0,1,.3-1.33,3.29,3.29,0,0,1,.84-1.06,4,4,0,0,1,1.31-.71,5.38,5.38,0,0,1,1.71-.26,6.59,6.59,0,0,1,2.41.42A5.5,5.5,0,0,1,26.26,215l-1.13,1.49a4.09,4.09,0,0,0-1.55-1,5.08,5.08,0,0,0-1.77-.32,2.21,2.21,0,0,0-1.39.4,1.21,1.21,0,0,0-.52,1,.9.9,0,0,0,.48.82,5,5,0,0,0,1.24.5c.49.14,1,.28,1.6.42a7.13,7.13,0,0,1,1.6.6,3.72,3.72,0,0,1,1.23,1,2.75,2.75,0,0,1,.49,1.7,3.66,3.66,0,0,1-.26,1.36,3,3,0,0,1-.8,1.13,3.92,3.92,0,0,1-1.37.77A6.2,6.2,0,0,1,22.12,225.2Z" fill="#e52823"/><path d="M33.91,225v-5.2a1.62,1.62,0,0,0-.44-1.32,1.9,1.9,0,0,0-1.22-.35,2.33,2.33,0,0,0-1.26.34,3.22,3.22,0,0,0-.86.75V225h-1.8V213.58h1.8v4.26a3.85,3.85,0,0,1,.5-.48,3.79,3.79,0,0,1,.67-.42,3.39,3.39,0,0,1,.81-.3,3.48,3.48,0,0,1,.93-.12,2.73,2.73,0,0,1,2,.67,2.64,2.64,0,0,1,.67,1.95V225Z" fill="#e52823"/><path d="M41.78,225.2a4.42,4.42,0,0,1-1.78-.35,4,4,0,0,1-2.17-2.32,5,5,0,0,1,0-3.35,3.88,3.88,0,0,1,.84-1.38,4,4,0,0,1,1.33-.93,4.7,4.7,0,0,1,3.56,0,3.86,3.86,0,0,1,2.17,2.31,4.83,4.83,0,0,1,0,3.35,4.1,4.1,0,0,1-.83,1.38,4,4,0,0,1-1.34.94A4.38,4.38,0,0,1,41.78,225.2Zm0-1.59a2.4,2.4,0,0,0,1-.22,2.28,2.28,0,0,0,.74-.6,2.83,2.83,0,0,0,.46-.88,3.72,3.72,0,0,0,.15-1.06,3.58,3.58,0,0,0-.15-1,2.78,2.78,0,0,0-.46-.87,2.15,2.15,0,0,0-1.77-.82,2.23,2.23,0,0,0-1,.22,2.31,2.31,0,0,0-.75.6,2.42,2.42,0,0,0-.46.87,3.28,3.28,0,0,0-.16,1,3.4,3.4,0,0,0,.16,1.06,2.47,2.47,0,0,0,.46.88,2.31,2.31,0,0,0,.75.6A2.37,2.37,0,0,0,41.78,223.61Z" fill="#e52823"/><path d="M52.31,225.2a3.19,3.19,0,0,1-1.47-.35,3.74,3.74,0,0,1-1.19-1v4.29H47.86V216.73h1.79v1.13a3.4,3.4,0,0,1,1.15-1,3.21,3.21,0,0,1,1.51-.36,3.58,3.58,0,0,1,1.47.3,3.17,3.17,0,0,1,1.15.84,3.91,3.91,0,0,1,.76,1.36,5.5,5.5,0,0,1,.28,1.83,5.41,5.41,0,0,1-.28,1.83,3.82,3.82,0,0,1-.76,1.36,3.22,3.22,0,0,1-1.15.86A3.58,3.58,0,0,1,52.31,225.2Zm-.53-1.59a2.13,2.13,0,0,0,1.71-.77,3,3,0,0,0,.63-2,3,3,0,0,0-.63-2,2.12,2.12,0,0,0-1.71-.76,2.58,2.58,0,0,0-1.23.31,2.48,2.48,0,0,0-.9.78v3.27a2,2,0,0,0,.39.44,2.34,2.34,0,0,0,.51.36,2.22,2.22,0,0,0,.6.24A2.28,2.28,0,0,0,51.78,223.61Z" fill="#e52823"/><path d="M62.18,225V213.58H64v4.3a3.3,3.3,0,0,1,2.65-1.36,3.63,3.63,0,0,1,1.48.3,3.2,3.2,0,0,1,1.16.87,4,4,0,0,1,.76,1.37,5.56,5.56,0,0,1,.28,1.79,5.67,5.67,0,0,1-.28,1.83,3.88,3.88,0,0,1-.77,1.37,3.18,3.18,0,0,1-1.17.86,3.73,3.73,0,0,1-1.46.29,3.15,3.15,0,0,1-1.49-.36,3.41,3.41,0,0,1-1.16-1V225Zm1.8-2.48a2.36,2.36,0,0,0,.89.78,2.63,2.63,0,0,0,1.24.32,2.1,2.1,0,0,0,1.71-.77,3.09,3.09,0,0,0,.62-2,3.52,3.52,0,0,0-.16-1.1,2.54,2.54,0,0,0-.47-.86,2.3,2.3,0,0,0-.74-.57,2.12,2.12,0,0,0-1-.2,2.52,2.52,0,0,0-1.24.32,2.47,2.47,0,0,0-.89.79Z" fill="#e52823"/><path d="M73,215.72a1.1,1.1,0,0,1-.79-.32,1.11,1.11,0,0,1,.79-1.9,1,1,0,0,1,.78.32,1.11,1.11,0,0,1-.78,1.9ZM72.12,225v-8.26h1.8V225Z" fill="#e52823"/><path d="M79.62,228.35a6.07,6.07,0,0,1-1.89-.27,4.4,4.4,0,0,1-1.59-1l.84-1.3a3,3,0,0,0,1.16.82,4.29,4.29,0,0,0,1.48.24,3.79,3.79,0,0,0,.88-.11,2.2,2.2,0,0,0,.78-.39,1.91,1.91,0,0,0,.57-.71,2.54,2.54,0,0,0,.21-1.1v-.94a3.7,3.7,0,0,1-1.15,1,3,3,0,0,1-1.5.37,3.69,3.69,0,0,1-1.46-.28,3.31,3.31,0,0,1-1.17-.82,3.83,3.83,0,0,1-.76-1.33A6.17,6.17,0,0,1,76,219a3.93,3.93,0,0,1,.76-1.33,3.18,3.18,0,0,1,1.16-.83,3.67,3.67,0,0,1,1.47-.29,3.26,3.26,0,0,1,2.65,1.36v-1.15h1.8v7.84a4.09,4.09,0,0,1-.38,1.85,3.2,3.2,0,0,1-1,1.16,4,4,0,0,1-1.37.6A7.13,7.13,0,0,1,79.62,228.35Zm.32-4.95a2.45,2.45,0,0,0,1.22-.32,2.48,2.48,0,0,0,.9-.77v-3.1a2.48,2.48,0,0,0-.9-.77,2.45,2.45,0,0,0-1.22-.32,2.16,2.16,0,0,0-1.71.72,2.86,2.86,0,0,0-.63,1.93,2.77,2.77,0,0,0,.63,1.91A2.16,2.16,0,0,0,79.94,223.4Z" fill="#e52823"/><path d="M24,244.16V243a3.64,3.64,0,0,1-1.16,1,3.13,3.13,0,0,1-1.49.36,3.58,3.58,0,0,1-1.47-.3,3.12,3.12,0,0,1-1.16-.85,4.12,4.12,0,0,1-.76-1.37,5.77,5.77,0,0,1-.27-1.83,5.67,5.67,0,0,1,.27-1.8,4.22,4.22,0,0,1,.76-1.37,3.38,3.38,0,0,1,1.16-.86,3.51,3.51,0,0,1,1.47-.3,3.24,3.24,0,0,1,1.47.34A3.43,3.43,0,0,1,24,237v-4.29h1.8v11.41Zm-2.12-1.39a2.25,2.25,0,0,0,.62-.08,3.13,3.13,0,0,0,.6-.24,2.7,2.7,0,0,0,.51-.35,1.79,1.79,0,0,0,.39-.44v-3.27a2.16,2.16,0,0,0-.39-.42,2.34,2.34,0,0,0-.51-.36,2.22,2.22,0,0,0-.6-.24,2.27,2.27,0,0,0-.62-.09,2.21,2.21,0,0,0-1,.21,2.1,2.1,0,0,0-.73.56,2.28,2.28,0,0,0-.47.87,3.64,3.64,0,0,0,0,2.2,2.4,2.4,0,0,0,.47.88,2.26,2.26,0,0,0,.73.57A2.2,2.2,0,0,0,21.85,242.77Z" fill="#e52823"/><path d="M29,234.89a1.07,1.07,0,0,1-.79-.33,1.1,1.1,0,0,1-.32-.79,1.11,1.11,0,1,1,2.22,0,1.1,1.1,0,0,1-.32.79A1.07,1.07,0,0,1,29,234.89Zm-.91,9.27V235.9h1.8v8.26Z" fill="#e52823"/><path d="M35.06,244.37a5.81,5.81,0,0,1-2-.34,4.2,4.2,0,0,1-1.55-1l.82-1.28a3,3,0,0,0,.53.43,4,4,0,0,0,.68.37,4.17,4.17,0,0,0,.78.25,3.13,3.13,0,0,0,.8.1,2.11,2.11,0,0,0,1.23-.3,1,1,0,0,0,.41-.8.65.65,0,0,0-.37-.61,3.85,3.85,0,0,0-.92-.35l-1.21-.27a5.22,5.22,0,0,1-1.21-.41,2.67,2.67,0,0,1-.92-.74,1.93,1.93,0,0,1-.37-1.26,2.15,2.15,0,0,1,.22-1,2.24,2.24,0,0,1,.62-.79,2.91,2.91,0,0,1,1-.54,4.52,4.52,0,0,1,1.39-.2,4.83,4.83,0,0,1,1.86.33,4.33,4.33,0,0,1,1.34.82l-.75,1.26a3.21,3.21,0,0,0-1-.7,3.48,3.48,0,0,0-1.43-.29,1.91,1.91,0,0,0-1.12.29.88.88,0,0,0-.4.74.57.57,0,0,0,.37.54,3.51,3.51,0,0,0,.92.32l1.21.27a5.18,5.18,0,0,1,1.2.43,2.69,2.69,0,0,1,.93.77,2.17,2.17,0,0,1,.37,1.31,2.39,2.39,0,0,1-.23,1,2.14,2.14,0,0,1-.65.82,3.31,3.31,0,0,1-1.08.54A5.1,5.1,0,0,1,35.06,244.37Z" fill="#e52823"/><path d="M44.06,244.37a4.36,4.36,0,0,1-1.72-.33,3.93,3.93,0,0,1-1.34-.91,4,4,0,0,1-.89-1.37A4.68,4.68,0,0,1,39.8,240a4.63,4.63,0,0,1,.31-1.73,4.21,4.21,0,0,1,.89-1.37,3.77,3.77,0,0,1,1.34-.9,4.36,4.36,0,0,1,1.72-.33,4.57,4.57,0,0,1,1.1.12,3.85,3.85,0,0,1,.87.32,3.17,3.17,0,0,1,.68.48,3.74,3.74,0,0,1,.51.55L46,238.24a2.2,2.2,0,0,0-1.9-1,2.35,2.35,0,0,0-1.81.76,2.84,2.84,0,0,0-.68,2,3.21,3.21,0,0,0,.17,1.1,2.66,2.66,0,0,0,.52.88,2.35,2.35,0,0,0,1.8.77,2.21,2.21,0,0,0,1.9-1l1.18,1.11a4,4,0,0,1-1.19,1A3.83,3.83,0,0,1,44.06,244.37Z" fill="#e52823"/><path d="M52.56,244.37a4.26,4.26,0,0,1-1.78-.36,3.87,3.87,0,0,1-1.33-.94,3.93,3.93,0,0,1-.84-1.37,5,5,0,0,1,0-3.36,4.07,4.07,0,0,1,.84-1.38,4,4,0,0,1,1.33-.93,4.83,4.83,0,0,1,3.56,0,4,4,0,0,1,1.34.93,4.2,4.2,0,0,1,.83,1.38,4.85,4.85,0,0,1,0,3.36,4.06,4.06,0,0,1-.83,1.37,3.91,3.91,0,0,1-1.34.94A4.22,4.22,0,0,1,52.56,244.37Zm0-1.6a2.26,2.26,0,0,0,1-.22,2.18,2.18,0,0,0,.74-.6,2.73,2.73,0,0,0,.46-.88,3.65,3.65,0,0,0,.15-1,3.53,3.53,0,0,0-.15-1,2.73,2.73,0,0,0-.46-.88,2.18,2.18,0,0,0-.74-.6,2.4,2.4,0,0,0-1-.22,2.37,2.37,0,0,0-1,.22,2.31,2.31,0,0,0-.75.6,2.39,2.39,0,0,0-.46.88,3.54,3.54,0,0,0-.16,1,3.66,3.66,0,0,0,.16,1,2.39,2.39,0,0,0,.46.88,2.31,2.31,0,0,0,.75.6A2.23,2.23,0,0,0,52.56,242.77Z" fill="#e52823"/><path d="M64.22,244.16v-1.1A4.18,4.18,0,0,1,63,244a3.56,3.56,0,0,1-1.72.41,2.73,2.73,0,0,1-2-.68,2.67,2.67,0,0,1-.66-1.94V235.9h1.79v5.18a1.62,1.62,0,0,0,.46,1.33,1.91,1.91,0,0,0,1.22.36,2.37,2.37,0,0,0,1.24-.33,3.08,3.08,0,0,0,.87-.74v-5.8H66v8.26Z" fill="#e52823"/><path d="M73.93,244.16V239a1.65,1.65,0,0,0-.45-1.34,1.85,1.85,0,0,0-1.22-.37,2.38,2.38,0,0,0-1.24.34,3.18,3.18,0,0,0-.88.76v5.78h-1.8V235.9h1.8V237a3.3,3.3,0,0,1,.5-.48,3.76,3.76,0,0,1,.68-.43,4.1,4.1,0,0,1,.81-.3,4,4,0,0,1,.93-.11,2.37,2.37,0,0,1,2.67,2.65v5.82Z" fill="#e52823"/><path d="M80.56,244.37a2.17,2.17,0,0,1-1.6-.55,2.23,2.23,0,0,1-.53-1.59v-4.78H77.07V235.9h1.36v-2.26h1.8v2.26h1.68v1.55H80.23v4.33a1.22,1.22,0,0,0,.2.71.67.67,0,0,0,.59.28,1.19,1.19,0,0,0,.47-.09.89.89,0,0,0,.32-.21l.42,1.36a1.83,1.83,0,0,1-.65.38A3,3,0,0,1,80.56,244.37Z" fill="#e52823"/><path d="M86.36,244.37a5.81,5.81,0,0,1-2-.34,4.33,4.33,0,0,1-1.56-1l.83-1.28a3,3,0,0,0,.53.43,4,4,0,0,0,.68.37,4.17,4.17,0,0,0,.78.25,3.11,3.11,0,0,0,.79.1,2.12,2.12,0,0,0,1.24-.3,1,1,0,0,0,.41-.8.65.65,0,0,0-.37-.61,4,4,0,0,0-.92-.35l-1.21-.27a5.22,5.22,0,0,1-1.21-.41,2.58,2.58,0,0,1-.92-.74,1.93,1.93,0,0,1-.37-1.26,2.29,2.29,0,0,1,.21-1,2.4,2.4,0,0,1,.63-.79,2.91,2.91,0,0,1,1-.54,4.52,4.52,0,0,1,1.39-.2,4.83,4.83,0,0,1,1.86.33,4.33,4.33,0,0,1,1.34.82l-.75,1.26a3.21,3.21,0,0,0-1-.7,3.48,3.48,0,0,0-1.43-.29,1.91,1.91,0,0,0-1.12.29.88.88,0,0,0-.4.74.57.57,0,0,0,.37.54,3.51,3.51,0,0,0,.92.32l1.21.27a5.18,5.18,0,0,1,1.2.43,2.78,2.78,0,0,1,.93.77,2.17,2.17,0,0,1,.37,1.31,2.39,2.39,0,0,1-.23,1,2.16,2.16,0,0,1-.66.82,3.26,3.26,0,0,1-1.07.54A5.1,5.1,0,0,1,86.36,244.37Z" fill="#e52823"/><path d="M23.54,263.53a6,6,0,0,1-2.35-.45A5.49,5.49,0,0,1,18.13,260a6.87,6.87,0,0,1,0-4.73,5.49,5.49,0,0,1,3.06-3.09,6.36,6.36,0,0,1,4.7,0,5.36,5.36,0,0,1,1.84,1.23,5.59,5.59,0,0,1,1.21,1.86,6.58,6.58,0,0,1,0,4.73,5.49,5.49,0,0,1-1.21,1.86,5.22,5.22,0,0,1-1.84,1.23A6,6,0,0,1,23.54,263.53Zm0-1.78a3.78,3.78,0,0,0,1.56-.32,3.61,3.61,0,0,0,1.2-.86,3.86,3.86,0,0,0,.76-1.31,5.3,5.3,0,0,0,0-3.28,3.91,3.91,0,0,0-.76-1.3,3.61,3.61,0,0,0-1.2-.86,3.78,3.78,0,0,0-1.56-.32,3.72,3.72,0,0,0-1.56.32,3.57,3.57,0,0,0-1.19.86A3.93,3.93,0,0,0,20,256a5.3,5.3,0,0,0,0,3.28,3.88,3.88,0,0,0,.77,1.31,3.57,3.57,0,0,0,1.19.86A3.72,3.72,0,0,0,23.54,261.75Z" fill="#e52823"/><path d="M35,263.53a4.32,4.32,0,0,1-1.72-.33,3.9,3.9,0,0,1-1.35-.9,4.29,4.29,0,0,1-.88-1.38,5,5,0,0,1,0-3.47,4.2,4.2,0,0,1,.88-1.36,4.07,4.07,0,0,1,1.35-.91,4.32,4.32,0,0,1,1.72-.33,4.63,4.63,0,0,1,1.1.12,3.64,3.64,0,0,1,1.55.8,4.45,4.45,0,0,1,.51.56L37,257.4a2.2,2.2,0,0,0-1.9-.95,2.3,2.3,0,0,0-1.81.76,2.8,2.8,0,0,0-.69,2,3.31,3.31,0,0,0,.18,1.11,2.55,2.55,0,0,0,.52.87,2.31,2.31,0,0,0,.78.57,2.42,2.42,0,0,0,1,.21,2.21,2.21,0,0,0,1.9-1l1.18,1.11a3.93,3.93,0,0,1-1.2,1A3.77,3.77,0,0,1,35,263.53Z" fill="#e52823"/><path d="M42.26,263.53a2.09,2.09,0,0,1-1.59-.55,2.19,2.19,0,0,1-.53-1.59v-4.77H38.77v-1.56h1.37V252.8h1.8v2.26h1.67v1.56H41.94V261a1.23,1.23,0,0,0,.19.71.69.69,0,0,0,.59.28,1,1,0,0,0,.47-.1.81.81,0,0,0,.32-.21l.43,1.37a2.1,2.1,0,0,1-.65.38A3.07,3.07,0,0,1,42.26,263.53Z" fill="#e52823"/><path d="M53.2,263.53a5.86,5.86,0,0,1-2.62-.54,4.84,4.84,0,0,1-1.7-1.31l1.1-1.32a3.64,3.64,0,0,0,1.38,1,4.29,4.29,0,0,0,1.77.37,2.82,2.82,0,0,0,1.75-.48,1.51,1.51,0,0,0,.63-1.27,1.33,1.33,0,0,0-.66-1.24,3.8,3.8,0,0,0-1.88-.38h-.76c-.27,0-.45,0-.54,0v-1.83H53a4.55,4.55,0,0,0,.94-.09,2.08,2.08,0,0,0,.75-.27,1.38,1.38,0,0,0,.49-.47,1.2,1.2,0,0,0,.18-.67,1.31,1.31,0,0,0-.18-.69,1.44,1.44,0,0,0-.49-.49,2.61,2.61,0,0,0-.74-.3,3.71,3.71,0,0,0-.9-.1,4,4,0,0,0-3,1.27l-1-1.25a5.09,5.09,0,0,1,1.7-1.3,5.67,5.67,0,0,1,2.47-.5,6.23,6.23,0,0,1,1.68.21,4.28,4.28,0,0,1,1.29.61,2.76,2.76,0,0,1,.84,1,2.66,2.66,0,0,1,.3,1.28,2.4,2.4,0,0,1-.22,1,2.65,2.65,0,0,1-.58.78,3.31,3.31,0,0,1-.79.53,3.41,3.41,0,0,1-.88.27,4,4,0,0,1,.88.24,3.22,3.22,0,0,1,.86.53,2.74,2.74,0,0,1,.66.84,2.52,2.52,0,0,1,.26,1.17,3,3,0,0,1-.3,1.34,3,3,0,0,1-.87,1.06,4.14,4.14,0,0,1-1.36.69A5.8,5.8,0,0,1,53.2,263.53Z" fill="#e52823"/><path d="M63.58,263.53A4,4,0,0,1,61.5,263a4.47,4.47,0,0,1-1.41-1.36,6.43,6.43,0,0,1-.81-1.89,8.64,8.64,0,0,1-.27-2.13,8.52,8.52,0,0,1,.27-2.13,6.38,6.38,0,0,1,.81-1.9,4.54,4.54,0,0,1,1.41-1.35,4,4,0,0,1,2.08-.51,4,4,0,0,1,2.06.51,4.47,4.47,0,0,1,1.42,1.35,6.38,6.38,0,0,1,.81,1.9,8.51,8.51,0,0,1,.26,2.13,8.62,8.62,0,0,1-.26,2.13,6.43,6.43,0,0,1-.81,1.89A4.4,4.4,0,0,1,65.64,263,4,4,0,0,1,63.58,263.53Zm0-1.78a2,2,0,0,0,1.17-.34,2.39,2.39,0,0,0,.78-.91,4.48,4.48,0,0,0,.43-1.31,8.7,8.7,0,0,0,.14-1.56,9.88,9.88,0,0,0-.13-1.57,4.48,4.48,0,0,0-.43-1.31,2.54,2.54,0,0,0-.78-.9,2.27,2.27,0,0,0-2.36,0,2.54,2.54,0,0,0-.78.9,4.48,4.48,0,0,0-.43,1.31,8,8,0,0,0-.14,1.57,7.87,7.87,0,0,0,.14,1.56,4.48,4.48,0,0,0,.43,1.31,2.57,2.57,0,0,0,.78.91A2,2,0,0,0,63.58,261.75Z" fill="#e52823"/><path d="M69.37,260v-1.54h4.1V260Z" fill="#e52823"/><path d="M83.16,263.32l-6-8.16v8.16h-2V251.91h2l5.84,7.91v-7.91h2v11.41Z" fill="#e52823"/><path d="M91.22,263.53a4.35,4.35,0,0,1-1.78-.35,4.2,4.2,0,0,1-1.34-.94,4.41,4.41,0,0,1-.84-1.38,5,5,0,0,1,0-3.35,4.19,4.19,0,0,1,.84-1.38,3.88,3.88,0,0,1,1.34-.93,4.35,4.35,0,0,1,1.78-.35,4.42,4.42,0,0,1,1.78.35,3.84,3.84,0,0,1,1.33.93,4,4,0,0,1,.84,1.38,5,5,0,0,1,0,3.35,4.23,4.23,0,0,1-.84,1.38,4.15,4.15,0,0,1-1.33.94A4.42,4.42,0,0,1,91.22,263.53Zm0-1.59a2.35,2.35,0,0,0,1-.22,2.21,2.21,0,0,0,.75-.6,2.62,2.62,0,0,0,.45-.88,3.72,3.72,0,0,0,.15-1.06,3.58,3.58,0,0,0-.15-1,2.57,2.57,0,0,0-.45-.87,2.19,2.19,0,0,0-1.77-.82,2.18,2.18,0,0,0-1,.22,2.35,2.35,0,0,0-.76.6,2.59,2.59,0,0,0-.46.87,3.58,3.58,0,0,0-.15,1,3.72,3.72,0,0,0,.15,1.06,2.64,2.64,0,0,0,.46.88,2.35,2.35,0,0,0,.76.6A2.31,2.31,0,0,0,91.22,261.94Z" fill="#e52823"/><path d="M99.46,263.32l-3.37-8.26H98l2.41,6.19,2.41-6.19h1.92l-3.37,8.26Z" fill="#e52823"/><path d="M112.43,263.32v-8.83l-1.86,2-1.17-1.22,3.29-3.32h1.75v11.41Z" fill="#e52823"/></g></g></svg>