<svg xmlns="http://www.w3.org/2000/svg" viewBox="0 0 160 600"><defs><style>.cls-1{fill:none;}.cls-2{fill:#e32d27;}.cls-3{fill:#fff;}</style></defs><g id="Layer_2" data-name="Layer 2"><g id="Layer_4" data-name="Layer 4"><rect class="cls-1" width="160" height="600"/></g><g id="CTA"><path id="bg" class="cls-2" d="M129.82,343.07H26.1A12.38,12.38,0,0,1,13.53,330.9v-1.27A12.38,12.38,0,0,1,26.1,317.46H129.82a12.37,12.37,0,0,1,12.56,12.17v1.27a12.37,12.37,0,0,1-12.56,12.17"/><g id="txt"><path class="cls-3" d="M32.14,332.09a4.39,4.39,0,0,0,3.18,1.35,2.45,2.45,0,0,0,1.51-.4,1.15,1.15,0,0,0,.5-.94.84.84,0,0,0-.29-.67,2,2,0,0,0-.74-.42c-.31-.1-.72-.22-1.25-.36a14.85,14.85,0,0,1-1.84-.54,3.16,3.16,0,0,1-1.22-.86,2.21,2.21,0,0,1-.51-1.53,2.43,2.43,0,0,1,.46-1.45,3,3,0,0,1,1.29-1,4.62,4.62,0,0,1,1.91-.38,5.29,5.29,0,0,1,3.76,1.36l-1,1.27a3.6,3.6,0,0,0-1.33-.83,4.46,4.46,0,0,0-1.58-.28,2.09,2.09,0,0,0-1.24.33,1.06,1.06,0,0,0-.46.89.72.72,0,0,0,.29.58,2.29,2.29,0,0,0,.71.39c.29.09.69.21,1.22.33a16.42,16.42,0,0,1,1.86.57,3.34,3.34,0,0,1,1.25.89,2.32,2.32,0,0,1,.52,1.57,2.84,2.84,0,0,1-.42,1.53,3,3,0,0,1-1.3,1.08,5.16,5.16,0,0,1-2.17.4,6.38,6.38,0,0,1-2.36-.4,5.17,5.17,0,0,1-1.72-1.14Z"/><path class="cls-3" d="M40.73,329.38A3.61,3.61,0,0,1,42.05,328a3.67,3.67,0,0,1,1.9-.5,3.54,3.54,0,0,1,1.88.5,3.38,3.38,0,0,1,1.26,1.36,4.37,4.37,0,0,1,.44,2v.36H41.91a2.14,2.14,0,0,0,.71,1.4,2.32,2.32,0,0,0,1.61.56,3.17,3.17,0,0,0,1.12-.21,2.63,2.63,0,0,0,.95-.56l.72,1a3.62,3.62,0,0,1-1.31.76,4.9,4.9,0,0,1-1.64.26,4,4,0,0,1-2-.46,3.36,3.36,0,0,1-1.37-1.3,3.82,3.82,0,0,1-.49-1.95A3.68,3.68,0,0,1,40.73,329.38Zm1.76,0a2.06,2.06,0,0,0-.59,1.3H46a2,2,0,0,0-.24-.88,1.89,1.89,0,0,0-.67-.71A2.2,2.2,0,0,0,44,328.8,1.87,1.87,0,0,0,42.49,329.36Z"/><path class="cls-3" d="M49.12,329.38A3.54,3.54,0,0,1,50.44,328a3.66,3.66,0,0,1,1.89-.5,3.58,3.58,0,0,1,1.89.5,3.29,3.29,0,0,1,1.25,1.36,4.25,4.25,0,0,1,.45,2v.36H50.3a2.14,2.14,0,0,0,.71,1.4,2.32,2.32,0,0,0,1.61.56,3.17,3.17,0,0,0,1.12-.21,2.5,2.5,0,0,0,.94-.56l.73,1a3.62,3.62,0,0,1-1.31.76,5,5,0,0,1-1.65.26,4.07,4.07,0,0,1-2-.46,3.4,3.4,0,0,1-1.36-1.3,3.82,3.82,0,0,1-.5-1.95A3.68,3.68,0,0,1,49.12,329.38Zm1.75,0a2.1,2.1,0,0,0-.58,1.3h4.09a2,2,0,0,0-.24-.88,1.84,1.84,0,0,0-.68-.71,2.15,2.15,0,0,0-1.13-.27A1.88,1.88,0,0,0,50.87,329.36Z"/><path class="cls-3" d="M62.15,334.49a1.83,1.83,0,0,1-.48-1.35v-4.08h-1.2v-1.34h1.2v-1.93h1.58v1.93h1.48v1.34H63.25v3.7a.94.94,0,0,0,.18.61.63.63,0,0,0,.52.23,1.19,1.19,0,0,0,.41-.08.65.65,0,0,0,.29-.17L65,334.5a2.16,2.16,0,0,1-1.49.45A1.9,1.9,0,0,1,62.15,334.49Z"/><path class="cls-3" d="M71.08,330.33a1.36,1.36,0,0,0-.38-1.1,1.63,1.63,0,0,0-1.09-.33,2.13,2.13,0,0,0-1.06.28,2.69,2.69,0,0,0-.81.67v4.91H66.16V325h1.58v3.65a3.43,3.43,0,0,1,1.09-.8,3.26,3.26,0,0,1,1.49-.34,2.44,2.44,0,0,1,1.75.57,2.18,2.18,0,0,1,.6,1.66v5H71.08Z"/><path class="cls-3" d="M74.74,329.38A3.51,3.51,0,0,1,76.05,328a3.72,3.72,0,0,1,1.9-.5,3.52,3.52,0,0,1,1.88.5,3.24,3.24,0,0,1,1.26,1.36,4.25,4.25,0,0,1,.45,2v.36H75.92a2.14,2.14,0,0,0,.71,1.4,2.32,2.32,0,0,0,1.61.56,3.21,3.21,0,0,0,1.12-.21,2.5,2.5,0,0,0,.94-.56l.72,1a3.53,3.53,0,0,1-1.31.76,4.9,4.9,0,0,1-1.64.26,4.07,4.07,0,0,1-1.95-.46,3.34,3.34,0,0,1-1.36-1.3,3.82,3.82,0,0,1-.5-1.95A3.68,3.68,0,0,1,74.74,329.38Zm1.75,0a2.11,2.11,0,0,0-.59,1.3H80a2,2,0,0,0-.24-.88,1.92,1.92,0,0,0-.68-.71A2.17,2.17,0,0,0,78,328.8,1.88,1.88,0,0,0,76.49,329.36Z"/><path class="cls-3" d="M87,325h3.73a5.86,5.86,0,0,1,2.74.62,4.64,4.64,0,0,1,1.86,1.73,4.85,4.85,0,0,1,.66,2.53,4.77,4.77,0,0,1-.66,2.51,4.55,4.55,0,0,1-1.86,1.72,5.74,5.74,0,0,1-2.74.62H87Zm3.73,8.23a3.71,3.71,0,0,0,1.84-.44,3.1,3.1,0,0,0,1.2-1.21,3.81,3.81,0,0,0,0-3.42A2.92,2.92,0,0,0,92.62,327a3.67,3.67,0,0,0-1.87-.44h-2v6.72Z"/><path class="cls-3" d="M97.69,329.38A3.47,3.47,0,0,1,99,328a3.66,3.66,0,0,1,1.89-.5,3.58,3.58,0,0,1,1.89.5A3.29,3.29,0,0,1,104,329.4a4.25,4.25,0,0,1,.45,2v.36H98.87a2.14,2.14,0,0,0,.71,1.4,2.32,2.32,0,0,0,1.61.56,3.17,3.17,0,0,0,1.12-.21,2.5,2.5,0,0,0,.94-.56l.73,1a3.7,3.7,0,0,1-1.31.76A5,5,0,0,1,101,335a4.07,4.07,0,0,1-2-.46,3.4,3.4,0,0,1-1.36-1.3,3.82,3.82,0,0,1-.5-1.95A3.68,3.68,0,0,1,97.69,329.38Zm1.75,0a2.1,2.1,0,0,0-.58,1.3H103a2,2,0,0,0-.24-.88,1.92,1.92,0,0,0-.68-.71,2.15,2.15,0,0,0-1.13-.27A1.88,1.88,0,0,0,99.44,329.36Z"/><path class="cls-3" d="M111.17,333.8a3,3,0,0,1-1,.85,2.89,2.89,0,0,1-1.3.3,3.23,3.23,0,0,1-1.67-.44,3,3,0,0,1-1.15-1.28,4.83,4.83,0,0,1,0-3.94,3,3,0,0,1,1.15-1.29,3.06,3.06,0,0,1,1.67-.46,3,3,0,0,1,1.3.3,2.85,2.85,0,0,1,1,.86v-1h1.59v7h-1.59Zm0-3.93a2,2,0,0,0-.79-.69,2.41,2.41,0,0,0-1.09-.27,1.87,1.87,0,0,0-1.49.65,2.85,2.85,0,0,0,0,3.39,1.87,1.87,0,0,0,1.49.65,2.41,2.41,0,0,0,1.09-.27,2,2,0,0,0,.79-.67Z"/><path class="cls-3" d="M115.28,334.49a1.81,1.81,0,0,1-.48-1.35V325h1.58v7.73a1,1,0,0,0,.19.61.62.62,0,0,0,.51.23,1.19,1.19,0,0,0,.41-.08.74.74,0,0,0,.28-.17l.38,1.15a2.15,2.15,0,0,1-1.48.45A1.91,1.91,0,0,1,115.28,334.49Z"/><path class="cls-3" d="M119.19,332.75a3.26,3.26,0,0,0,1.1.7,3.41,3.41,0,0,0,1.37.29,2,2,0,0,0,1.06-.23.71.71,0,0,0,.37-.63.68.68,0,0,0-.42-.64,4.91,4.91,0,0,0-1.24-.39,9.88,9.88,0,0,1-1.41-.38,2.38,2.38,0,0,1-.94-.62,1.68,1.68,0,0,1-.39-1.16,1.84,1.84,0,0,1,.34-1.08,2.33,2.33,0,0,1,1-.78,3.76,3.76,0,0,1,1.53-.29,4.19,4.19,0,0,1,2.83,1l-.66,1.08a2.6,2.6,0,0,0-.92-.61,3.32,3.32,0,0,0-1.23-.23,2,2,0,0,0-1,.21.64.64,0,0,0-.36.58.6.6,0,0,0,.39.55,5.65,5.65,0,0,0,1.19.37,9.32,9.32,0,0,1,1.43.38,2.46,2.46,0,0,1,1,.67,1.77,1.77,0,0,1,.41,1.23,1.92,1.92,0,0,1-.8,1.58,3.58,3.58,0,0,1-2.23.61,5.31,5.31,0,0,1-1.75-.28,3.8,3.8,0,0,1-1.37-.81Z"/></g></g></g></svg>