<svg xmlns="http://www.w3.org/2000/svg" xmlns:xlink="http://www.w3.org/1999/xlink" viewBox="0 0 160 600"><defs><clipPath id="clip-path"><rect x="14.3" y="364.29" width="127.1" height="32.19" fill="none"/></clipPath><clipPath id="clip-path-2"><rect x="14.3" y="364.29" width="127.1" height="32.19" fill="none"/></clipPath><clipPath id="clip-path-3"><rect x="5.83" y="541.23" width="149.61" height="58.17" fill="none"/></clipPath></defs><title>END 160X600</title><g id="Layer_2" data-name="Layer 2"><g id="content"><rect width="160" height="600" fill="#231f20"/><path d="M16.28,24.92H26.81a6.49,6.49,0,0,1,3.13.7,4.86,4.86,0,0,1,2,1.86A5,5,0,0,1,32.57,30a4.72,4.72,0,0,1-1,3.06,4.06,4.06,0,0,1-2.46,1.53,4.22,4.22,0,0,1,2.73,1.65A5.18,5.18,0,0,1,33,39.52a5.27,5.27,0,0,1-1.53,3.88,5.8,5.8,0,0,1-4.29,1.52H16.28Zm9.6,8a2.34,2.34,0,0,0,1.71-.61,2.14,2.14,0,0,0,.63-1.61,2.11,2.11,0,0,0-.65-1.56,2.31,2.31,0,0,0-1.69-.63H20.54V33ZM26,41.29a2.66,2.66,0,0,0,1.89-.64,2.43,2.43,0,0,0,0-3.39A2.59,2.59,0,0,0,26,36.58H20.54v4.71Z" fill="#fff"/><path d="M37.11,44.31a4,4,0,0,1-1-3V24.92h3.81V40.33a1.77,1.77,0,0,0,.36,1.14,1.17,1.17,0,0,0,1,.45A2.45,2.45,0,0,0,42,41.8a1,1,0,0,0,.51-.3l.81,2.88a4.63,4.63,0,0,1-3.15.93A4.22,4.22,0,0,1,37.11,44.31Z" fill="#fff"/><path d="M55,43.06a5.91,5.91,0,0,1-2,1.67,5.38,5.38,0,0,1-2.47.58,6.19,6.19,0,0,1-3.3-.9,6.06,6.06,0,0,1-2.3-2.61,9.36,9.36,0,0,1-.82-4.09,9.28,9.28,0,0,1,.82-4A6.22,6.22,0,0,1,47.19,31a6,6,0,0,1,3.32-.94A5.7,5.7,0,0,1,55,32.29V30.43h3.84V44.92H55Zm0-7.91A3.56,3.56,0,0,0,53.57,34a4.19,4.19,0,0,0-1.89-.47A3.36,3.36,0,0,0,49,34.65a4.49,4.49,0,0,0-1,3.06,4.47,4.47,0,0,0,1,3,3.34,3.34,0,0,0,2.64,1.17,4.18,4.18,0,0,0,1.89-.46A3.56,3.56,0,0,0,55,40.27Z" fill="#fff"/><path d="M62.66,33.76a7,7,0,0,1,2.73-2.71,8,8,0,0,1,4-1,7.58,7.58,0,0,1,3.48.74,6.07,6.07,0,0,1,2.25,1.87L72.59,35a3.48,3.48,0,0,0-3.06-1.56,3.75,3.75,0,0,0-2.84,1.16,4.29,4.29,0,0,0-1.09,3.06,4.32,4.32,0,0,0,1.09,3.07,3.81,3.81,0,0,0,5.9-.39l2.49,2.31a6.16,6.16,0,0,1-2.24,1.89,7.41,7.41,0,0,1-3.49.75,8,8,0,0,1-4-1,7,7,0,0,1-2.73-2.71,8.32,8.32,0,0,1,0-7.87Z" fill="#fff"/><path d="M83.12,39.34,81.38,41.2v3.72H77.57v-20h3.81v12l5.49-6.45h4.68L85.82,37l5.91,7.92H87Z" fill="#fff"/><path d="M16.28,54.92H30.44v3.65h-9.9v4.35h9.69v3.66H20.54v8.34H16.28Z" fill="#fff"/><path d="M33.32,60.43h3.81v2a6.28,6.28,0,0,1,2-1.67,5.41,5.41,0,0,1,2.58-.68v3.72a5.54,5.54,0,0,0-1-.12,5.06,5.06,0,0,0-2,.49,3.41,3.41,0,0,0-1.53,1.17v9.59H33.32Z" fill="#fff"/><path d="M44.4,57.63a2.26,2.26,0,0,1,0-3.21A2.21,2.21,0,0,1,46,53.74a2.24,2.24,0,0,1,1.62.66,2.31,2.31,0,0,1,0,3.23A2.17,2.17,0,0,1,46,58.3,2.2,2.2,0,0,1,44.4,57.63Zm-.28,2.8h3.81V74.92H44.12Z" fill="#fff"/><path d="M61.67,73.06a5.91,5.91,0,0,1-2,1.67,5.38,5.38,0,0,1-2.47.58,6.19,6.19,0,0,1-3.3-.9,6.06,6.06,0,0,1-2.3-2.61,10.49,10.49,0,0,1,0-8.13A6.22,6.22,0,0,1,53.88,61a6,6,0,0,1,3.32-.94,5.7,5.7,0,0,1,4.47,2.22V54.92h3.84v20H61.67Zm0-7.94a3.56,3.56,0,0,0-1.41-1.19,4.19,4.19,0,0,0-1.89-.47,3.35,3.35,0,0,0-2.64,1.18,5.08,5.08,0,0,0,0,6.11,3.34,3.34,0,0,0,2.64,1.17,4.18,4.18,0,0,0,1.89-.46,3.56,3.56,0,0,0,1.41-1.19Z" fill="#fff"/><path d="M79.25,73.06a5.91,5.91,0,0,1-2,1.67,5.38,5.38,0,0,1-2.47.58,6.19,6.19,0,0,1-3.3-.9,6.06,6.06,0,0,1-2.3-2.61,10.49,10.49,0,0,1,0-8.13A6.22,6.22,0,0,1,71.46,61a6,6,0,0,1,3.32-.94,5.7,5.7,0,0,1,4.47,2.22V60.43h3.84V74.92H79.25Zm0-7.91A3.56,3.56,0,0,0,77.84,64,4.19,4.19,0,0,0,76,63.49a3.36,3.36,0,0,0-2.64,1.16,5.07,5.07,0,0,0,0,6.1A3.34,3.34,0,0,0,76,71.92a4.18,4.18,0,0,0,1.89-.46,3.56,3.56,0,0,0,1.41-1.19Z" fill="#fff"/><path d="M88.4,75.88a4.59,4.59,0,0,0,1.92,1.35,6.71,6.71,0,0,0,2.43.45,4,4,0,0,0,2.88-1,3.59,3.59,0,0,0,1-2.76v-1.5A6.89,6.89,0,0,1,94.5,74a6.69,6.69,0,0,1-3,.63A4.69,4.69,0,0,1,88,73.45a4.59,4.59,0,0,1-1.17-3.36V60.43h3.81v8.16a2.65,2.65,0,0,0,.69,2.06,2.88,2.88,0,0,0,2,.61,3.85,3.85,0,0,0,1.89-.48,4.29,4.29,0,0,0,1.41-1.17V60.43h3.81V73.78A6.56,6.56,0,0,1,98.37,79a8.17,8.17,0,0,1-5.62,1.84,8.9,8.9,0,0,1-6.06-2.15Z" fill="#fff"/><path d="M26.15,103.06a5.91,5.91,0,0,1-2,1.67,5.38,5.38,0,0,1-2.47.58,6.19,6.19,0,0,1-3.3-.9,6.06,6.06,0,0,1-2.3-2.61,10.49,10.49,0,0,1,0-8.13A6.22,6.22,0,0,1,18.36,91a6,6,0,0,1,3.32-.94,5.7,5.7,0,0,1,4.47,2.22V84.92H30v20H26.15Zm0-7.94a3.56,3.56,0,0,0-1.41-1.19,4.19,4.19,0,0,0-1.89-.47,3.35,3.35,0,0,0-2.64,1.18,5.08,5.08,0,0,0,0,6.11,3.34,3.34,0,0,0,2.64,1.17,4.18,4.18,0,0,0,1.89-.46,3.56,3.56,0,0,0,1.41-1.19Z" fill="#fff"/><path d="M33.8,93.85a7.27,7.27,0,0,1,2.67-2.75,7.41,7.41,0,0,1,3.87-1,7.12,7.12,0,0,1,3.78,1,6.8,6.8,0,0,1,2.56,2.82,9.09,9.09,0,0,1,.92,4.15v.85H36.83a3.75,3.75,0,0,0,1.29,2.42,4.25,4.25,0,0,0,2.88,1,6.32,6.32,0,0,0,2.11-.38,4.87,4.87,0,0,0,1.76-1.06l1.68,2.46a7.06,7.06,0,0,1-2.64,1.49,10.55,10.55,0,0,1-3.33.52,8.27,8.27,0,0,1-4-.94,7,7,0,0,1-2.78-2.68,8.33,8.33,0,0,1,0-7.84Zm4,.23a3.9,3.9,0,0,0-1,2.23h7.14a3.7,3.7,0,0,0-1-2.22,3.29,3.29,0,0,0-2.59-1A3.26,3.26,0,0,0,37.82,94.08Z" fill="#fff"/><path d="M60.32,103.06a5.91,5.91,0,0,1-2,1.67,5.38,5.38,0,0,1-2.47.58,6.19,6.19,0,0,1-3.3-.9,6.06,6.06,0,0,1-2.3-2.61,10.49,10.49,0,0,1,0-8.13A6.22,6.22,0,0,1,52.53,91a6,6,0,0,1,3.32-.94,5.7,5.7,0,0,1,4.47,2.22V90.43h3.84v14.49H60.32Zm0-7.91A3.56,3.56,0,0,0,58.91,94,4.19,4.19,0,0,0,57,93.49a3.36,3.36,0,0,0-2.64,1.16,5.07,5.07,0,0,0,0,6.1A3.34,3.34,0,0,0,57,101.92a4.18,4.18,0,0,0,1.89-.46,3.56,3.56,0,0,0,1.41-1.19Z" fill="#fff"/><path d="M69,104.31a4,4,0,0,1-1-3V84.92h3.81v15.41a1.77,1.77,0,0,0,.36,1.14,1.17,1.17,0,0,0,1,.45,2.45,2.45,0,0,0,.78-.12,1,1,0,0,0,.51-.3l.81,2.88a4.63,4.63,0,0,1-3.15.93A4.22,4.22,0,0,1,69,104.31Z" fill="#fff"/><path d="M77.27,100.4a7.44,7.44,0,0,0,2.28,1.37,7,7,0,0,0,2.73.61,3.4,3.4,0,0,0,1.81-.4,1.23,1.23,0,0,0,.62-1.09A1.15,1.15,0,0,0,84,99.83a9.36,9.36,0,0,0-2.19-.66,21.3,21.3,0,0,1-2.88-.73,4.63,4.63,0,0,1-2-1.3,3.56,3.56,0,0,1-.84-2.51,4,4,0,0,1,.7-2.28,4.79,4.79,0,0,1,2.06-1.66A7.61,7.61,0,0,1,82,90.07a9.12,9.12,0,0,1,5.85,2l-1.53,2.62a5.4,5.4,0,0,0-1.85-1.21A6.47,6.47,0,0,0,82.07,93a3.31,3.31,0,0,0-1.67.36,1.11,1.11,0,0,0-.61,1,1,1,0,0,0,.67,1,10.39,10.39,0,0,0,2.09.62,19.56,19.56,0,0,1,2.91.75,5,5,0,0,1,2,1.38,3.77,3.77,0,0,1,.87,2.62,4.12,4.12,0,0,1-.74,2.39,4.74,4.74,0,0,1-2.16,1.67,8.64,8.64,0,0,1-3.37.6,11,11,0,0,1-3.62-.6,7.92,7.92,0,0,1-2.86-1.65Z" fill="#fff"/><path d="M16.58,130.4a7.44,7.44,0,0,0,2.28,1.37,7,7,0,0,0,2.73.61,3.4,3.4,0,0,0,1.81-.4,1.23,1.23,0,0,0,.62-1.09,1.15,1.15,0,0,0-.72-1.06,9.36,9.36,0,0,0-2.19-.66,21.3,21.3,0,0,1-2.88-.73,4.63,4.63,0,0,1-2-1.3,3.56,3.56,0,0,1-.84-2.51,4,4,0,0,1,.7-2.28,4.79,4.79,0,0,1,2.06-1.66,7.61,7.61,0,0,1,3.18-.62,9.12,9.12,0,0,1,5.85,2l-1.53,2.62a5.4,5.4,0,0,0-1.85-1.21,6.47,6.47,0,0,0-2.44-.48,3.31,3.31,0,0,0-1.67.36,1.11,1.11,0,0,0-.61,1,1,1,0,0,0,.67,1,10.39,10.39,0,0,0,2.09.62,19.56,19.56,0,0,1,2.91.75,5,5,0,0,1,2,1.38,3.77,3.77,0,0,1,.87,2.62,4.12,4.12,0,0,1-.74,2.39,4.74,4.74,0,0,1-2.16,1.67,8.64,8.64,0,0,1-3.37.6,11,11,0,0,1-3.62-.6,7.92,7.92,0,0,1-2.86-1.65Z" fill="#fff"/><path d="M32.3,134.29a3.92,3.92,0,0,1-1-2.95v-7.58h-2.4v-3.33h2.4v-4h3.84v4H38v3.33H35.09v6.57a1.77,1.77,0,0,0,.36,1.14,1.17,1.17,0,0,0,1,.45,2.45,2.45,0,0,0,.78-.12,1.25,1.25,0,0,0,.54-.3l.81,2.88a4.68,4.68,0,0,1-3.18.93A4.22,4.22,0,0,1,32.3,134.29Z" fill="#fff"/><path d="M50.6,133.06a5.91,5.91,0,0,1-2,1.67,5.38,5.38,0,0,1-2.47.58,6.19,6.19,0,0,1-3.3-.9,6.06,6.06,0,0,1-2.3-2.61,10.49,10.49,0,0,1,0-8.13A6.22,6.22,0,0,1,42.81,121a6,6,0,0,1,3.32-.94,5.7,5.7,0,0,1,4.47,2.22v-1.86h3.84v14.49H50.6Zm0-7.91A3.56,3.56,0,0,0,49.19,124a4.19,4.19,0,0,0-1.89-.47,3.36,3.36,0,0,0-2.64,1.16,5.07,5.07,0,0,0,0,6.1,3.34,3.34,0,0,0,2.64,1.17,4.18,4.18,0,0,0,1.89-.46,3.56,3.56,0,0,0,1.41-1.19Z" fill="#fff"/><path d="M58.22,120.43H62v2a6.28,6.28,0,0,1,2-1.67,5.41,5.41,0,0,1,2.58-.68v3.72a5.54,5.54,0,0,0-1.05-.12,5.06,5.06,0,0,0-2,.49A3.41,3.41,0,0,0,62,125.33v9.59H58.22Z" fill="#fff"/><path d="M70.82,134.29a3.92,3.92,0,0,1-1-2.95v-7.58h-2.4v-3.33h2.4v-4h3.84v4h2.94v3.33H73.61v6.57a1.77,1.77,0,0,0,.36,1.14,1.17,1.17,0,0,0,1,.45,2.45,2.45,0,0,0,.78-.12,1.25,1.25,0,0,0,.54-.3l.81,2.88a4.68,4.68,0,0,1-3.18.93A4.22,4.22,0,0,1,70.82,134.29Z" fill="#fff"/><path d="M18,164.29a3.92,3.92,0,0,1-1-2.95v-7.58h-2.4v-3.33h2.4v-4h3.84v4h2.94v3.33H20.78v6.57a1.77,1.77,0,0,0,.36,1.14,1.17,1.17,0,0,0,1,.45,2.45,2.45,0,0,0,.78-.12,1.25,1.25,0,0,0,.54-.3l.81,2.88a4.68,4.68,0,0,1-3.18.93A4.22,4.22,0,0,1,18,164.29Z" fill="#fff"/><path d="M36.14,156.1a2.62,2.62,0,0,0-.69-2,3,3,0,0,0-2-.6,3.76,3.76,0,0,0-1.89.5,4.52,4.52,0,0,0-1.41,1.21v9.75H26.33v-20h3.81v7.4a6.54,6.54,0,0,1,2.11-1.59,6.66,6.66,0,0,1,3-.66,4.78,4.78,0,0,1,3.52,1.2A4.59,4.59,0,0,1,40,154.63v10.29H36.14Z" fill="#fff"/><path d="M44,147.63a2.26,2.26,0,0,1,0-3.21,2.21,2.21,0,0,1,1.61-.68,2.24,2.24,0,0,1,1.62.66,2.31,2.31,0,0,1,0,3.23,2.17,2.17,0,0,1-1.62.67A2.2,2.2,0,0,1,44,147.63Zm-.28,2.8h3.81v14.49H43.73Z" fill="#fff"/><path d="M51.71,160.4A7.44,7.44,0,0,0,54,161.77a7,7,0,0,0,2.73.61,3.4,3.4,0,0,0,1.81-.4,1.23,1.23,0,0,0,.62-1.09,1.15,1.15,0,0,0-.72-1.06,9.36,9.36,0,0,0-2.19-.66,21.3,21.3,0,0,1-2.88-.73,4.63,4.63,0,0,1-2-1.3,3.56,3.56,0,0,1-.84-2.51,4,4,0,0,1,.7-2.28,4.79,4.79,0,0,1,2.06-1.66,7.61,7.61,0,0,1,3.18-.62,9.12,9.12,0,0,1,5.85,2l-1.53,2.62A5.4,5.4,0,0,0,59,153.46a6.47,6.47,0,0,0-2.44-.48,3.31,3.31,0,0,0-1.67.36,1.11,1.11,0,0,0-.61,1,1,1,0,0,0,.67.95,10.39,10.39,0,0,0,2.09.62,19.56,19.56,0,0,1,2.91.75,5,5,0,0,1,2,1.38,3.77,3.77,0,0,1,.87,2.62,4.12,4.12,0,0,1-.74,2.39,4.74,4.74,0,0,1-2.16,1.67,8.64,8.64,0,0,1-3.37.6,11,11,0,0,1-3.62-.6,7.92,7.92,0,0,1-2.86-1.65Z" fill="#fff"/><path d="M25.85,185.05l-3.06,9.87H18.71L14.3,180.43h4l2.7,9.75,3.18-9.75h3.39l3.18,9.75,2.7-9.75h4L33,194.92H28.91Z" fill="#fff"/><path d="M39.29,183.85A7.27,7.27,0,0,1,42,181.1a7.41,7.41,0,0,1,3.87-1,7.12,7.12,0,0,1,3.78,1,6.8,6.8,0,0,1,2.56,2.82,9.09,9.09,0,0,1,.92,4.15v.85H42.32a3.75,3.75,0,0,0,1.29,2.42,4.25,4.25,0,0,0,2.88,1,6.32,6.32,0,0,0,2.11-.38,4.87,4.87,0,0,0,1.76-1.06L52,193.3a7.06,7.06,0,0,1-2.64,1.49,10.55,10.55,0,0,1-3.33.52,8.27,8.27,0,0,1-4-.94,7,7,0,0,1-2.78-2.68,8.33,8.33,0,0,1,0-7.84Zm4,.23a3.9,3.9,0,0,0-1.05,2.23H49.4a3.7,3.7,0,0,0-1-2.22,3.81,3.81,0,0,0-5.11,0Z" fill="#fff"/><path d="M55.88,183.85a7.27,7.27,0,0,1,2.67-2.75,7.41,7.41,0,0,1,3.87-1,7.12,7.12,0,0,1,3.78,1,6.8,6.8,0,0,1,2.56,2.82,9.09,9.09,0,0,1,.92,4.15v.85H58.91a3.75,3.75,0,0,0,1.29,2.42,4.25,4.25,0,0,0,2.88,1,6.32,6.32,0,0,0,2.11-.38A4.87,4.87,0,0,0,67,190.84l1.68,2.46A7.06,7.06,0,0,1,66,194.79a10.55,10.55,0,0,1-3.33.52,8.27,8.27,0,0,1-4-.94,7,7,0,0,1-2.78-2.68,8.33,8.33,0,0,1,0-7.84Zm4,.23a3.9,3.9,0,0,0-1,2.23H66a3.7,3.7,0,0,0-1-2.22,3.81,3.81,0,0,0-5.11,0Z" fill="#fff"/><path d="M78,189.34l-1.74,1.86v3.72H72.44v-20h3.81v12l5.49-6.45h4.68L80.69,187l5.91,7.92H81.83Z" fill="#fff"/><path d="M87.89,183.85a7.27,7.27,0,0,1,2.67-2.75,7.41,7.41,0,0,1,3.87-1,7.12,7.12,0,0,1,3.78,1,6.8,6.8,0,0,1,2.56,2.82,9.09,9.09,0,0,1,.92,4.15v.85H90.92a3.75,3.75,0,0,0,1.29,2.42,4.25,4.25,0,0,0,2.88,1,6.32,6.32,0,0,0,2.11-.38A4.87,4.87,0,0,0,99,190.84l1.68,2.46A7.06,7.06,0,0,1,98,194.79a10.55,10.55,0,0,1-3.33.52,8.27,8.27,0,0,1-4-.94,7,7,0,0,1-2.78-2.68,8.33,8.33,0,0,1,0-7.84Zm4,.23a3.9,3.9,0,0,0-1,2.23H98a3.7,3.7,0,0,0-1-2.22,3.81,3.81,0,0,0-5.11,0Z" fill="#fff"/><path d="M114.23,186.17a2.7,2.7,0,0,0-.69-2.08,2.84,2.84,0,0,0-2-.63,3.75,3.75,0,0,0-1.91.5,4.55,4.55,0,0,0-1.39,1.21v9.75h-3.81V180.43h3.81v1.89a6.66,6.66,0,0,1,5.07-2.25,4.22,4.22,0,0,1,4.71,4.62v10.23h-3.81Z" fill="#fff"/><path d="M131.78,193.06a5.91,5.91,0,0,1-2,1.67,5.38,5.38,0,0,1-2.47.58,6.19,6.19,0,0,1-3.3-.9,6.06,6.06,0,0,1-2.3-2.61,10.49,10.49,0,0,1,0-8.13A6.22,6.22,0,0,1,124,181a6,6,0,0,1,3.32-.94,5.7,5.7,0,0,1,4.47,2.22v-7.37h3.84v20h-3.84Zm0-7.94a3.56,3.56,0,0,0-1.41-1.19,4.19,4.19,0,0,0-1.89-.47,3.35,3.35,0,0,0-2.64,1.18,5.08,5.08,0,0,0,0,6.11,3.34,3.34,0,0,0,2.64,1.17,4.18,4.18,0,0,0,1.89-.46,3.56,3.56,0,0,0,1.41-1.19Z" fill="#fff"/><path d="M139.65,191.11a2.29,2.29,0,0,1,1.7-.71,2.33,2.33,0,0,1,1.71.71,2.35,2.35,0,0,1,.72,1.71,2.29,2.29,0,0,1-.72,1.68,2.34,2.34,0,0,1-1.71.72,2.42,2.42,0,0,1-2.4-2.4A2.37,2.37,0,0,1,139.65,191.11ZM139,174.92h4.59l-.6,13.5h-3.36Z" fill="#fff"/><g id="white_logo" data-name="white logo"><g clip-path="url(#clip-path)"><g clip-path="url(#clip-path-2)"><path d="M28.67,369.38c19.14-5.85,28.81,8.81,28.81,8.81s-6.07-20.46-28.81-8.81" fill="#fff"/><path d="M65.68,370.13a5.3,5.3,0,0,1,0-.69,14.26,14.26,0,0,0-7.55,11s2.6-6.05,8.73-7.89a3.64,3.64,0,0,1-1.18-2.4" fill="#fff"/><path d="M41.26,378.68s0,2.89,0,4.35c-.73,0-3.91-.2-5.31-.25,0,.78,0,1.58,0,2.36,1.67,0,3.41.24,5.08.22,0,1.4-.05,2.61,0,4-1.67,0-3.34-.13-5-.16l0,2.55c1.8,0,3.6.19,5.4.17,0-.06,0,4.27,0,4.27-3.56,0-7.78-.28-11.78-.61l.28-17.8c1.68.2,6.9.75,11.45.89" fill="#fff"/><path d="M42.78,378.72l-.07,4.64c1.68.09,3.19.09,3.19.09l0,12.9a40.6,40.6,0,0,0,6.42-.09l-.07-12.77s2.84-.13,3.28-.17c0-1.7,0-3-.06-4.75a111.48,111.48,0,0,1-12.67.15" fill="#fff"/><path d="M128.66,375.89c0,1.84,0,3.54,0,5.39,1.09.06,2.32.28,3.41.37,0,4.5-.11,7.9-.12,12.4,3,.36,5.18.71,6,.86,0-4.49.17-8,.17-12.53,0,0,3.21.49,3.27.54v-5.54a96.83,96.83,0,0,0-12.73-1.49" fill="#fff"/><path d="M20.55,384.56,20,384.5l0-3.66.54.06a1.86,1.86,0,0,1,1.86,2c0,1.51-.94,1.8-1.87,1.7M22,376l-7.62-1.39,0,18.68c1.95.38,3.74.7,5.64.91l0-5.39c.67.08,1.39.17,2.06.23,3.3.3,6.63-.94,6.68-6.35,0-4.78-3.15-6.17-6.69-6.69" fill="#fff"/><path d="M85.54,393.3c.85-2.22,1.71-4.3,2.56-6.52.13,2.12.22,4.05.36,6.18,2.12-.24,3.83-.37,6-.5-.55-5.67-1-11.75-1.58-17.41-1.83.15-3.66.32-5.49.5-1,2.67-2,5.93-3.08,8.6-1-2.47-2-5.38-3-7.86-1.85.27-5.15.84-5.49.85-.64,5.78-1.36,12.2-2,18,1.46-.26,5-.82,6.09-1,.17-2.15.33-4.46.5-6.61q1.23,3.07,2.47,6.17c.46-.06,2.1-.32,2.65-.41" fill="#fff"/><path d="M119.35,383.52l-.56,0c0-1.21,0-2.41,0-3.61l.54,0a1.78,1.78,0,0,1,1.85,1.89,1.54,1.54,0,0,1-1.88,1.71m5.3,3.84c1.62-.73,2.8-2.31,2.84-5.43.06-4.72-3.27-6.74-6.65-7-2.55-.2-5.11-.33-7.66-.4-.08,6-.11,11.48-.19,17.48,1.9.05,4,.2,5.67.33,0-1.68,0-2.94.07-4.62l3.08,5c2.35.21,4.75.51,7.1.86-1.47-2.2-2.79-4.07-4.26-6.22" fill="#fff"/><path d="M102.33,386.2c.4-1.49.8-3.06,1.2-4.54.45,1.49.91,3,1.36,4.48-2.61.09-2.61.06-2.56.06m4.17-11.8c-2.27,0-4.13,0-6.07.12-1.56,5.81-3.4,12-5,17.88,1.74,0,3.5-.16,5.23-.16.16-.61.35-1.32.51-1.94l2.65-.06c-.06,0,2.34-.08,2.34-.08.06.23.28.84.58,1.86,1.74,0,3.48,0,5.21,0-1.88-6.16-3.77-12.08-5.49-17.66" fill="#fff"/><path d="M57.49,394.69a15.52,15.52,0,0,0,7.05,1.79c4,0,8.16-2.39,8.25-6.86.06-3.18-2-4.69-4.78-5.32L66.5,384c-.51-.12-1.34-.22-1.33-.92s.88-1,1.46-1a10.53,10.53,0,0,1,4.07.85c.57-1.49,1.13-3,1.7-4.48A13.23,13.23,0,0,0,66.59,377c-4,0-8.05,2.43-8.13,6.87-.06,2.94,2.11,4.54,4.71,5l1.34.25c.61.13,1.49.2,1.47,1.05s-1,.94-1.71.94a7.92,7.92,0,0,1-4.58-1.51c-.69,1.56-1.51,3.49-2.2,5" fill="#fff"/><path d="M71.91,364.29a4.49,4.49,0,1,0,4.43,4.55,4.48,4.48,0,0,0-4.43-4.55m1.63,1.65a5.39,5.39,0,0,0-4.82,2.82s0,.05,0,.07a3.31,3.31,0,0,1,.11-1.24,3.07,3.07,0,0,1,3.73-2.19,3,3,0,0,1,1.06.57l-.07,0" fill="#fff"/></g></g></g><path d="M23.48,240.3a8,8,0,0,1-3.28-.61,6.85,6.85,0,0,1-2.3-1.57l1.35-1.86a6.68,6.68,0,0,0,1.8,1.33,5.39,5.39,0,0,0,2.53.57,4.2,4.2,0,0,0,1.26-.16,2.51,2.51,0,0,0,.85-.43,1.82,1.82,0,0,0,.47-.61,1.64,1.64,0,0,0,.15-.68,1.22,1.22,0,0,0-.58-1.1,6,6,0,0,0-1.48-.65q-.9-.27-1.92-.51a9.92,9.92,0,0,1-1.92-.68,4.19,4.19,0,0,1-1.48-1.18,3.15,3.15,0,0,1-.58-2,3.57,3.57,0,0,1,.36-1.59,3.94,3.94,0,0,1,1-1.27,4.83,4.83,0,0,1,1.57-.85,6.36,6.36,0,0,1,2.06-.31,8,8,0,0,1,2.88.5,6.67,6.67,0,0,1,2.23,1.43l-1.36,1.78a5.31,5.31,0,0,0-1.86-1.2,6.2,6.2,0,0,0-2.12-.38,2.65,2.65,0,0,0-1.67.48,1.46,1.46,0,0,0-.63,1.23,1.09,1.09,0,0,0,.59,1,6.4,6.4,0,0,0,1.47.6l1.92.5a8.46,8.46,0,0,1,1.92.72A4.34,4.34,0,0,1,28.19,234a3.27,3.27,0,0,1,.58,2,4.41,4.41,0,0,1-.3,1.63,3.67,3.67,0,0,1-1,1.36,4.67,4.67,0,0,1-1.65.92A7.34,7.34,0,0,1,23.48,240.3Z" fill="#e52823"/><path d="M37.62,240.05v-6.24a1.92,1.92,0,0,0-.54-1.59,2.27,2.27,0,0,0-1.45-.42,2.85,2.85,0,0,0-1.51.41,3.78,3.78,0,0,0-1,.91v6.93H30.93V226.36h2.15v5.11a4.86,4.86,0,0,1,.61-.57,4.74,4.74,0,0,1,1.76-.87,4.46,4.46,0,0,1,1.12-.14,3.26,3.26,0,0,1,2.4.8,3.16,3.16,0,0,1,.8,2.34v7Z" fill="#e52823"/><path d="M47.06,240.3a5.21,5.21,0,0,1-2.14-.42,4.88,4.88,0,0,1-1.6-1.13,4.93,4.93,0,0,1-1-1.65,5.95,5.95,0,0,1,0-4,5.08,5.08,0,0,1,1-1.66,4.85,4.85,0,0,1,1.6-1.12,5.76,5.76,0,0,1,4.27,0,4.85,4.85,0,0,1,1.6,1.12,4.94,4.94,0,0,1,1,1.66,5.95,5.95,0,0,1,0,4,4.8,4.8,0,0,1-1,1.65,4.88,4.88,0,0,1-1.6,1.13A5.19,5.19,0,0,1,47.06,240.3Zm0-1.91a2.71,2.71,0,0,0,1.23-.27,2.48,2.48,0,0,0,.89-.71,3.44,3.44,0,0,0,.55-1.06,4.46,4.46,0,0,0,.18-1.26,4.36,4.36,0,0,0-.18-1.26,3.34,3.34,0,0,0-.55-1,2.62,2.62,0,0,0-.89-.72,2.71,2.71,0,0,0-1.23-.27,2.63,2.63,0,0,0-1.21.27,2.79,2.79,0,0,0-.91.72,3.14,3.14,0,0,0-.55,1,4.36,4.36,0,0,0-.18,1.26,4.46,4.46,0,0,0,.18,1.26,3.24,3.24,0,0,0,.55,1.06,2.72,2.72,0,0,0,2.12,1Z" fill="#e52823"/><path d="M59.68,240.3a3.78,3.78,0,0,1-1.76-.42,4.36,4.36,0,0,1-1.42-1.2v5.15H54.34V230.14H56.5v1.36a4,4,0,0,1,1.37-1.17,3.81,3.81,0,0,1,1.81-.44,4.39,4.39,0,0,1,1.76.35,3.89,3.89,0,0,1,1.39,1,4.76,4.76,0,0,1,.91,1.63,7.47,7.47,0,0,1,0,4.39,4.67,4.67,0,0,1-.91,1.63,3.91,3.91,0,0,1-1.39,1A4.23,4.23,0,0,1,59.68,240.3ZM59,238.39a2.52,2.52,0,0,0,2.05-.92,3.61,3.61,0,0,0,.76-2.38,3.53,3.53,0,0,0-.76-2.37A2.52,2.52,0,0,0,59,231.8a3.16,3.16,0,0,0-1.47.38,2.92,2.92,0,0,0-1.07.94V237a2.28,2.28,0,0,0,.46.53,3.34,3.34,0,0,0,.61.43,3.74,3.74,0,0,0,.72.29A2.87,2.87,0,0,0,59,238.39Z" fill="#e52823"/><path d="M71.52,240.05V226.36h2.15v5.16a4,4,0,0,1,1.43-1.22,4,4,0,0,1,1.75-.41,4.32,4.32,0,0,1,1.78.36,3.94,3.94,0,0,1,1.39,1,4.93,4.93,0,0,1,.92,1.64,6.62,6.62,0,0,1,.33,2.16,6.72,6.72,0,0,1-.33,2.19,4.68,4.68,0,0,1-.93,1.64,3.72,3.72,0,0,1-1.4,1,4.46,4.46,0,0,1-1.76.35,3.87,3.87,0,0,1-1.78-.43,4.38,4.38,0,0,1-1.4-1.17v1.35Zm2.15-3a2.93,2.93,0,0,0,1.08.93,3.14,3.14,0,0,0,1.49.38,2.5,2.5,0,0,0,2-.92,3.66,3.66,0,0,0,.75-2.38,4.36,4.36,0,0,0-.2-1.33,2.84,2.84,0,0,0-.56-1,2.64,2.64,0,0,0-.88-.68,2.55,2.55,0,0,0-1.15-.25,3.23,3.23,0,0,0-2.57,1.34Z" fill="#e52823"/><path d="M84.53,228.93a1.31,1.31,0,0,1-1.33-1.33,1.33,1.33,0,0,1,.38-.95,1.3,1.3,0,0,1,1-.39,1.28,1.28,0,0,1,.94.39,1.3,1.3,0,0,1,.39.95,1.33,1.33,0,0,1-1.33,1.33Zm-1.09,11.12v-9.91H85.6v9.91Z" fill="#e52823"/><path d="M92.43,244.07a7.44,7.44,0,0,1-2.26-.31,5.48,5.48,0,0,1-1.91-1.16l1-1.56a3.44,3.44,0,0,0,1.39,1,5.13,5.13,0,0,0,1.77.29,4.22,4.22,0,0,0,1.06-.13,2.6,2.6,0,0,0,.94-.47,2.31,2.31,0,0,0,.68-.85,3,3,0,0,0,.25-1.32v-1.13A4.31,4.31,0,0,1,94,239.62a3.64,3.64,0,0,1-1.8.45,4.4,4.4,0,0,1-1.75-.34,3.82,3.82,0,0,1-1.4-1,4.57,4.57,0,0,1-.91-1.59,6.62,6.62,0,0,1-.33-2.18,6.52,6.52,0,0,1,.33-2.15,4.71,4.71,0,0,1,.91-1.6,3.84,3.84,0,0,1,1.39-1,4.56,4.56,0,0,1,1.76-.34,4,4,0,0,1,1.77.41,3.9,3.9,0,0,1,1.41,1.22v-1.38h2.16v9.4a4.87,4.87,0,0,1-.45,2.22,3.84,3.84,0,0,1-1.18,1.39,4.75,4.75,0,0,1-1.64.72A8.12,8.12,0,0,1,92.43,244.07Zm.39-5.93a3,3,0,0,0,1.47-.39,3,3,0,0,0,1.07-.92v-3.71a3,3,0,0,0-1.07-.93,3,3,0,0,0-1.47-.39,2.57,2.57,0,0,0-2,.87A3.4,3.4,0,0,0,90,235a3.33,3.33,0,0,0,.76,2.3A2.57,2.57,0,0,0,92.82,238.14Z" fill="#e52823"/><path d="M25.7,261.93v-1.35a4.45,4.45,0,0,1-1.39,1.17,3.85,3.85,0,0,1-1.79.43,4.46,4.46,0,0,1-1.76-.35,3.72,3.72,0,0,1-1.39-1,4.93,4.93,0,0,1-.92-1.64,6.74,6.74,0,0,1-.33-2.2,6.6,6.6,0,0,1,.33-2.15,4.93,4.93,0,0,1,.92-1.64,3.91,3.91,0,0,1,1.38-1,4.24,4.24,0,0,1,1.77-.36,4,4,0,0,1,1.76.41,4.09,4.09,0,0,1,1.42,1.21v-5.15h2.15v13.69Zm-2.55-1.66a3.22,3.22,0,0,0,.75-.1,3.74,3.74,0,0,0,.72-.29,4.67,4.67,0,0,0,.61-.42,2.35,2.35,0,0,0,.47-.53V255a3.64,3.64,0,0,0-.47-.51,3.34,3.34,0,0,0-.61-.43,3.74,3.74,0,0,0-.72-.29,2.76,2.76,0,0,0-.75-.1,2.58,2.58,0,0,0-1.17.25,2.75,2.75,0,0,0-.88.67,3,3,0,0,0-.57,1,4.3,4.3,0,0,0-.19,1.32,4.36,4.36,0,0,0,.19,1.33,3,3,0,0,0,.57,1A2.55,2.55,0,0,0,22,260,2.58,2.58,0,0,0,23.15,260.27Z" fill="#e52823"/><path d="M31.73,250.81a1.31,1.31,0,0,1-1.33-1.34,1.27,1.27,0,0,1,.38-.94,1.3,1.3,0,0,1,.95-.39,1.33,1.33,0,0,1,1.33,1.33,1.3,1.3,0,0,1-.39.95A1.28,1.28,0,0,1,31.73,250.81Zm-1.09,11.12V252H32.8v9.91Z" fill="#e52823"/><path d="M39,262.18a7,7,0,0,1-2.38-.4,5.29,5.29,0,0,1-1.86-1.16l1-1.54a3.77,3.77,0,0,0,.64.51,5.27,5.27,0,0,0,.82.44,6,6,0,0,0,.93.31,3.91,3.91,0,0,0,1,.11,2.5,2.5,0,0,0,1.48-.36,1.11,1.11,0,0,0,.49-.95.78.78,0,0,0-.44-.74,4.62,4.62,0,0,0-1.1-.41l-1.45-.33a6.19,6.19,0,0,1-1.45-.49,3.31,3.31,0,0,1-1.11-.88,2.41,2.41,0,0,1-.44-1.52,2.7,2.7,0,0,1,.26-1.16,2.85,2.85,0,0,1,.75-1,3.71,3.71,0,0,1,1.22-.64,5.3,5.3,0,0,1,1.67-.24,5.88,5.88,0,0,1,2.23.39,5.48,5.48,0,0,1,1.61,1l-.9,1.52a3.94,3.94,0,0,0-1.22-.85,4.19,4.19,0,0,0-1.72-.34,2.27,2.27,0,0,0-1.34.34,1.07,1.07,0,0,0-.48.89.7.7,0,0,0,.44.65,4.68,4.68,0,0,0,1.1.38l1.45.33a6.72,6.72,0,0,1,1.45.51,3.33,3.33,0,0,1,1.11.93,2.57,2.57,0,0,1,.44,1.57,2.84,2.84,0,0,1-.27,1.23,2.66,2.66,0,0,1-.79,1,3.91,3.91,0,0,1-1.29.65A6,6,0,0,1,39,262.18Z" fill="#e52823"/><path d="M49.79,262.18a5.34,5.34,0,0,1-2.07-.39,4.88,4.88,0,0,1-1.61-1.09,5.05,5.05,0,0,1-1-1.65,5.47,5.47,0,0,1-.38-2.09,5.37,5.37,0,0,1,.38-2.07,4.91,4.91,0,0,1,1-1.64,4.73,4.73,0,0,1,1.61-1.09,5.76,5.76,0,0,1,3.39-.24,4.08,4.08,0,0,1,1,.39,4.31,4.31,0,0,1,.81.56,4.8,4.8,0,0,1,.61.67l-1.41,1.29a2.64,2.64,0,0,0-2.28-1.15,2.83,2.83,0,0,0-2.18.91,3.45,3.45,0,0,0-.82,2.37,3.83,3.83,0,0,0,.22,1.33,3.07,3.07,0,0,0,.61,1,2.8,2.8,0,0,0,1,.69,2.83,2.83,0,0,0,1.22.25,2.66,2.66,0,0,0,2.28-1.19l1.41,1.33a4.71,4.71,0,0,1-1.43,1.23A4.58,4.58,0,0,1,49.79,262.18Z" fill="#e52823"/><path d="M60,262.18a5.21,5.21,0,0,1-2.14-.42,4.76,4.76,0,0,1-2.6-2.78,6,6,0,0,1,0-4,4.78,4.78,0,0,1,1-1.65,4.85,4.85,0,0,1,1.6-1.12,5.76,5.76,0,0,1,4.27,0,4.85,4.85,0,0,1,1.6,1.12,5,5,0,0,1,1,1.65,6.14,6.14,0,0,1,0,4,5.06,5.06,0,0,1-1,1.65,4.88,4.88,0,0,1-1.6,1.13A5.19,5.19,0,0,1,60,262.18Zm0-1.91a2.61,2.61,0,0,0,2.12-1,3.08,3.08,0,0,0,.54-1,4.16,4.16,0,0,0,.19-1.27,4,4,0,0,0-.19-1.25,3.12,3.12,0,0,0-.54-1,2.61,2.61,0,0,0-2.12-1,2.67,2.67,0,0,0-1.22.27,2.86,2.86,0,0,0-.9.72,3.14,3.14,0,0,0-.55,1,4,4,0,0,0-.19,1.25,4.16,4.16,0,0,0,.19,1.27,3.09,3.09,0,0,0,.55,1,2.86,2.86,0,0,0,.9.72A2.67,2.67,0,0,0,60,260.27Z" fill="#e52823"/><path d="M74,261.93v-1.31a5.34,5.34,0,0,1-1.43,1.07,4.16,4.16,0,0,1-2.06.49,2.83,2.83,0,0,1-3.2-3.14v-7h2.15v6.22a2,2,0,0,0,.55,1.59,2.28,2.28,0,0,0,1.47.44,2.88,2.88,0,0,0,1.48-.4,3.73,3.73,0,0,0,1-.89v-7h2.15v9.91Z" fill="#e52823"/><path d="M85.62,261.93v-6.2a2,2,0,0,0-.55-1.61,2.28,2.28,0,0,0-1.47-.44,2.79,2.79,0,0,0-1.48.41,4.21,4.21,0,0,0-1.06.9v6.94H78.91V252h2.15v1.33a4.25,4.25,0,0,1,.61-.57,4.52,4.52,0,0,1,.81-.52,4.29,4.29,0,0,1,1-.35,4.46,4.46,0,0,1,1.12-.14,3.23,3.23,0,0,1,2.4.82,3.27,3.27,0,0,1,.8,2.36v7Z" fill="#e52823"/><path d="M93.56,262.18a2.53,2.53,0,0,1-1.91-.66,2.61,2.61,0,0,1-.64-1.91v-5.72H89.37V252H91v-2.71h2.16V252h2v1.87h-2v5.19a1.52,1.52,0,0,0,.23.85.81.81,0,0,0,.71.34,1.52,1.52,0,0,0,.57-.11,1.32,1.32,0,0,0,.38-.26l.51,1.64a2.23,2.23,0,0,1-.78.45A3.61,3.61,0,0,1,93.56,262.18Z" fill="#e52823"/><path d="M100.51,262.18a7,7,0,0,1-2.38-.4,5.38,5.38,0,0,1-1.86-1.16l1-1.54a3.77,3.77,0,0,0,.64.51,5.27,5.27,0,0,0,.82.44,6,6,0,0,0,.93.31,3.93,3.93,0,0,0,1,.11,2.47,2.47,0,0,0,1.47-.36,1.12,1.12,0,0,0,.5-.95.79.79,0,0,0-.45-.74A4.62,4.62,0,0,0,101,258l-1.45-.33a6.19,6.19,0,0,1-1.45-.49,3.31,3.31,0,0,1-1.11-.88,2.41,2.41,0,0,1-.44-1.52,2.7,2.7,0,0,1,.26-1.16,2.85,2.85,0,0,1,.75-1A3.71,3.71,0,0,1,98.8,252a5.34,5.34,0,0,1,1.67-.24,5.88,5.88,0,0,1,2.23.39,5.35,5.35,0,0,1,1.61,1l-.9,1.52a3.82,3.82,0,0,0-1.22-.85,4.19,4.19,0,0,0-1.72-.34,2.27,2.27,0,0,0-1.34.34,1.07,1.07,0,0,0-.48.89.7.7,0,0,0,.44.65,4.61,4.61,0,0,0,1.11.38l1.44.33a6.72,6.72,0,0,1,1.45.51,3.33,3.33,0,0,1,1.11.93,2.57,2.57,0,0,1,.44,1.57,2.84,2.84,0,0,1-.27,1.23,2.66,2.66,0,0,1-.79,1,3.91,3.91,0,0,1-1.29.65A6,6,0,0,1,100.51,262.18Z" fill="#e52823"/><path d="M25.18,284.05a7.23,7.23,0,0,1-2.82-.53A6.61,6.61,0,0,1,20.15,282a6.47,6.47,0,0,1-1.45-2.23,8.13,8.13,0,0,1,0-5.67,6.47,6.47,0,0,1,1.45-2.23,6.61,6.61,0,0,1,2.21-1.48,7.77,7.77,0,0,1,5.64,0,6.51,6.51,0,0,1,2.21,1.48,6.77,6.77,0,0,1,1.45,2.23,8,8,0,0,1,0,5.67A6.77,6.77,0,0,1,30.21,282,6.51,6.51,0,0,1,28,283.52,7.16,7.16,0,0,1,25.18,284.05Zm0-2.13a4.53,4.53,0,0,0,1.87-.38,4.29,4.29,0,0,0,1.44-1,4.55,4.55,0,0,0,.91-1.56,6.22,6.22,0,0,0,0-3.94,4.51,4.51,0,0,0-.91-1.55,4.29,4.29,0,0,0-1.44-1,4.53,4.53,0,0,0-1.87-.38,4.46,4.46,0,0,0-1.87.38,4.25,4.25,0,0,0-1.43,1A4.35,4.35,0,0,0,21,275a6.22,6.22,0,0,0,0,3.94,4.4,4.4,0,0,0,.91,1.56,4.25,4.25,0,0,0,1.43,1A4.46,4.46,0,0,0,25.18,281.92Z" fill="#e52823"/><path d="M38.93,284.05a5.47,5.47,0,0,1-2.06-.38,4.88,4.88,0,0,1-1.61-1.09,5.25,5.25,0,0,1-1.06-1.65,5.67,5.67,0,0,1-.38-2.09,5.56,5.56,0,0,1,.38-2.07,5.09,5.09,0,0,1,1.06-1.64A4.73,4.73,0,0,1,36.87,274a5.29,5.29,0,0,1,2.06-.39,6,6,0,0,1,1.33.14,4.89,4.89,0,0,1,1,.39,4.16,4.16,0,0,1,.81.57,4.32,4.32,0,0,1,.62.67l-1.42,1.29A2.62,2.62,0,0,0,39,275.56a2.77,2.77,0,0,0-2.17.91,3.4,3.4,0,0,0-.82,2.37,4.08,4.08,0,0,0,.21,1.33,3.09,3.09,0,0,0,.62,1,2.76,2.76,0,0,0,.94.69,3,3,0,0,0,1.22.25A2.66,2.66,0,0,0,41.31,281l1.42,1.33a4.88,4.88,0,0,1-1.44,1.23A4.56,4.56,0,0,1,38.93,284.05Z" fill="#e52823"/><path d="M47.63,284.05a2.54,2.54,0,0,1-1.91-.65,2.67,2.67,0,0,1-.63-1.91v-5.73H43.45V273.9h1.64v-2.71h2.15v2.71h2v1.86h-2V281a1.44,1.44,0,0,0,.24.85.82.82,0,0,0,.71.34,1.31,1.31,0,0,0,.56-.12,1,1,0,0,0,.38-.25l.51,1.64a2.23,2.23,0,0,1-.78.45A3.59,3.59,0,0,1,47.63,284.05Z" fill="#e52823"/><path d="M60.75,284.05a7,7,0,0,1-3.14-.64,5.77,5.77,0,0,1-2-1.57l1.32-1.58a4.46,4.46,0,0,0,1.66,1.22,5.25,5.25,0,0,0,2.11.44,3.42,3.42,0,0,0,2.11-.57,1.83,1.83,0,0,0,.75-1.52,1.6,1.6,0,0,0-.78-1.49,4.49,4.49,0,0,0-2.26-.46h-.91l-.65,0v-2.2h1.56a5.66,5.66,0,0,0,1.13-.1,2.83,2.83,0,0,0,.89-.32,1.82,1.82,0,0,0,.6-.57,1.47,1.47,0,0,0,.21-.8,1.6,1.6,0,0,0-.21-.83,1.88,1.88,0,0,0-.6-.59,2.9,2.9,0,0,0-.88-.36,4.7,4.7,0,0,0-1.08-.12A4.8,4.8,0,0,0,57,273.57l-1.23-1.5a6.06,6.06,0,0,1,2-1.55,6.78,6.78,0,0,1,3-.6,7.48,7.48,0,0,1,2,.25,4.73,4.73,0,0,1,1.55.73,3.33,3.33,0,0,1,1,1.15,3.2,3.2,0,0,1,.36,1.53,2.73,2.73,0,0,1-.27,1.24,2.91,2.91,0,0,1-.68.93,3.5,3.5,0,0,1-1,.64,4.31,4.31,0,0,1-1,.33,3.81,3.81,0,0,1,1,.29,3.86,3.86,0,0,1,1,.63,3.44,3.44,0,0,1,.79,1,3.07,3.07,0,0,1,.31,1.4,3.53,3.53,0,0,1-1.4,2.87,4.92,4.92,0,0,1-1.63.84A7.15,7.15,0,0,1,60.75,284.05Z" fill="#e52823"/><path d="M67.48,279.77v-1.85H78.41v1.85Z" fill="#e52823"/><path d="M87,283.81v-3.1H80.42v-1.93l5.63-8.66h3.3v8.46h1.83v2.13H89.35v3.1Zm0-11.53-4.17,6.3H87Z" fill="#e52823"/><g id="sunburst_160x600" data-name="sunburst 160x600"><g clip-path="url(#clip-path-3)"><g clip-path="url(#clip-path-3)"><path d="M5.83,599.4C12.4,564.12,44.27,541.23,81,541.23c36.36,0,66.78,24.87,74.46,58.17" fill="#ec6c68"/><path d="M22.65,599.4c5.85-25.95,29.77-42.66,57.24-42.66,27.16,0,50,18.11,56.62,42.66" fill="#e52823"/></g></g></g></g></g></svg>