<svg xmlns="http://www.w3.org/2000/svg" xmlns:xlink="http://www.w3.org/1999/xlink" viewBox="0 0 160.06 600"><defs><style>.cls-1{fill:none;}.cls-2{fill:#fff;}.cls-3{fill:#e52823;}.cls-4{clip-path:url(#clip-path);}.cls-5{clip-path:url(#clip-path-2);}.cls-6{fill:#e32d27;}</style><clipPath id="clip-path"><rect class="cls-1" x="17.27" y="324.98" width="102" height="25.83"/></clipPath><clipPath id="clip-path-2"><rect class="cls-1" x="17.27" y="324.98" width="102" height="25.83"/></clipPath></defs><g id="Layer_2" data-name="Layer 2"><g id="content"><rect x="0.06" width="160" height="600"/><path class="cls-2" d="M16.34,24.92H26.87a6.49,6.49,0,0,1,3.13.7,4.86,4.86,0,0,1,2,1.86A5,5,0,0,1,32.63,30a4.72,4.72,0,0,1-1,3.06,4.06,4.06,0,0,1-2.46,1.53,4.22,4.22,0,0,1,2.73,1.65A5.18,5.18,0,0,1,33,39.52a5.27,5.27,0,0,1-1.53,3.88,5.8,5.8,0,0,1-4.29,1.52H16.34Zm9.6,8a2.34,2.34,0,0,0,1.71-.61,2.14,2.14,0,0,0,.63-1.61,2.11,2.11,0,0,0-.65-1.56,2.31,2.31,0,0,0-1.69-.63H20.6V33Zm.15,8.34A2.66,2.66,0,0,0,28,40.65a2.43,2.43,0,0,0,0-3.39,2.59,2.59,0,0,0-1.89-.68H20.6v4.71Z"/><path class="cls-2" d="M37.17,44.31a4,4,0,0,1-1-3V24.92H40V40.33a1.77,1.77,0,0,0,.36,1.14,1.17,1.17,0,0,0,1,.45,2.45,2.45,0,0,0,.78-.12,1,1,0,0,0,.51-.3l.81,2.88a4.63,4.63,0,0,1-3.15.93A4.22,4.22,0,0,1,37.17,44.31Z"/><path class="cls-2" d="M55,43.06a5.91,5.91,0,0,1-2,1.67,5.38,5.38,0,0,1-2.47.58,6.19,6.19,0,0,1-3.3-.9A6.06,6.06,0,0,1,45,41.8a9.36,9.36,0,0,1-.82-4.09,9.28,9.28,0,0,1,.82-4A6.22,6.22,0,0,1,47.25,31a6,6,0,0,1,3.32-.94A5.7,5.7,0,0,1,55,32.29V30.43h3.84V44.92H55Zm0-7.91A3.56,3.56,0,0,0,53.63,34a4.19,4.19,0,0,0-1.89-.47,3.36,3.36,0,0,0-2.64,1.16,4.49,4.49,0,0,0-1,3.06,4.47,4.47,0,0,0,1,3,3.34,3.34,0,0,0,2.64,1.17,4.18,4.18,0,0,0,1.89-.46A3.56,3.56,0,0,0,55,40.27Z"/><path class="cls-2" d="M62.72,33.76a7,7,0,0,1,2.73-2.71,8,8,0,0,1,4-1,7.58,7.58,0,0,1,3.48.74,6.07,6.07,0,0,1,2.25,1.87L72.65,35a3.48,3.48,0,0,0-3.06-1.56,3.75,3.75,0,0,0-2.84,1.16,4.29,4.29,0,0,0-1.09,3.06,4.32,4.32,0,0,0,1.09,3.07,3.81,3.81,0,0,0,5.9-.39l2.49,2.31a6.16,6.16,0,0,1-2.24,1.89,7.41,7.41,0,0,1-3.49.75,8,8,0,0,1-4-1,7,7,0,0,1-2.73-2.71,8.32,8.32,0,0,1,0-7.87Z"/><path class="cls-2" d="M83.18,39.34,81.44,41.2v3.72H77.63v-20h3.81v12l5.49-6.45h4.68L85.88,37l5.91,7.92H87Z"/><path class="cls-2" d="M16.34,54.92H30.5v3.65H20.6v4.35h9.69v3.66H20.6v8.34H16.34Z"/><path class="cls-2" d="M33.38,60.43h3.81v2a6.28,6.28,0,0,1,2-1.67,5.41,5.41,0,0,1,2.58-.68v3.72a5.54,5.54,0,0,0-1.05-.12,5.06,5.06,0,0,0-2,.49,3.41,3.41,0,0,0-1.53,1.17v9.59H33.38Z"/><path class="cls-2" d="M44.46,57.63a2.26,2.26,0,0,1,0-3.21,2.21,2.21,0,0,1,1.61-.68,2.24,2.24,0,0,1,1.62.66,2.31,2.31,0,0,1,0,3.23,2.17,2.17,0,0,1-1.62.67A2.2,2.2,0,0,1,44.46,57.63Zm-.28,2.8H48V74.92H44.18Z"/><path class="cls-2" d="M61.73,73.06a5.91,5.91,0,0,1-2,1.67,5.38,5.38,0,0,1-2.47.58,6.19,6.19,0,0,1-3.3-.9,6.06,6.06,0,0,1-2.3-2.61,10.49,10.49,0,0,1,0-8.13A6.22,6.22,0,0,1,53.94,61a6,6,0,0,1,3.32-.94,5.7,5.7,0,0,1,4.47,2.22V54.92h3.84v20H61.73Zm0-7.94a3.56,3.56,0,0,0-1.41-1.19,4.19,4.19,0,0,0-1.89-.47,3.35,3.35,0,0,0-2.64,1.18,5.08,5.08,0,0,0,0,6.11,3.34,3.34,0,0,0,2.64,1.17,4.18,4.18,0,0,0,1.89-.46,3.56,3.56,0,0,0,1.41-1.19Z"/><path class="cls-2" d="M79.31,73.06a5.91,5.91,0,0,1-2,1.67,5.38,5.38,0,0,1-2.47.58,6.19,6.19,0,0,1-3.3-.9,6.06,6.06,0,0,1-2.3-2.61,10.49,10.49,0,0,1,0-8.13A6.22,6.22,0,0,1,71.52,61a6,6,0,0,1,3.32-.94,5.7,5.7,0,0,1,4.47,2.22V60.43h3.84V74.92H79.31Zm0-7.91A3.56,3.56,0,0,0,77.9,64,4.19,4.19,0,0,0,76,63.49a3.36,3.36,0,0,0-2.64,1.16,5.07,5.07,0,0,0,0,6.1A3.34,3.34,0,0,0,76,71.92a4.18,4.18,0,0,0,1.89-.46,3.56,3.56,0,0,0,1.41-1.19Z"/><path class="cls-2" d="M88.46,75.88a4.59,4.59,0,0,0,1.92,1.35,6.71,6.71,0,0,0,2.43.45,4,4,0,0,0,2.88-1,3.59,3.59,0,0,0,1-2.76v-1.5A6.89,6.89,0,0,1,94.56,74a6.69,6.69,0,0,1-3,.63,4.69,4.69,0,0,1-3.51-1.2,4.59,4.59,0,0,1-1.17-3.36V60.43h3.81v8.16a2.65,2.65,0,0,0,.69,2.06,2.88,2.88,0,0,0,2,.61,3.85,3.85,0,0,0,1.89-.48,4.29,4.29,0,0,0,1.41-1.17V60.43h3.81V73.78A6.56,6.56,0,0,1,98.43,79a8.17,8.17,0,0,1-5.62,1.84,8.9,8.9,0,0,1-6.06-2.15Z"/><path class="cls-2" d="M26.21,103.06a5.91,5.91,0,0,1-2,1.67,5.38,5.38,0,0,1-2.47.58,6.19,6.19,0,0,1-3.3-.9,6.06,6.06,0,0,1-2.3-2.61,10.49,10.49,0,0,1,0-8.13A6.22,6.22,0,0,1,18.42,91a6,6,0,0,1,3.32-.94,5.7,5.7,0,0,1,4.47,2.22V84.92h3.84v20H26.21Zm0-7.94a3.56,3.56,0,0,0-1.41-1.19,4.19,4.19,0,0,0-1.89-.47,3.35,3.35,0,0,0-2.64,1.18,5.08,5.08,0,0,0,0,6.11,3.34,3.34,0,0,0,2.64,1.17,4.18,4.18,0,0,0,1.89-.46,3.56,3.56,0,0,0,1.41-1.19Z"/><path class="cls-2" d="M33.86,93.85a7.27,7.27,0,0,1,2.67-2.75,7.41,7.41,0,0,1,3.87-1,7.12,7.12,0,0,1,3.78,1,6.8,6.8,0,0,1,2.56,2.82,9.09,9.09,0,0,1,.92,4.15v.85H36.89a3.75,3.75,0,0,0,1.29,2.42,4.25,4.25,0,0,0,2.88,1,6.32,6.32,0,0,0,2.11-.38,4.87,4.87,0,0,0,1.76-1.06l1.68,2.46A7.06,7.06,0,0,1,44,104.79a10.55,10.55,0,0,1-3.33.52,8.27,8.27,0,0,1-4-.94,7,7,0,0,1-2.78-2.68,8.33,8.33,0,0,1,0-7.84Zm4,.23a3.9,3.9,0,0,0-1.05,2.23H44a3.7,3.7,0,0,0-1-2.22,3.29,3.29,0,0,0-2.59-1A3.26,3.26,0,0,0,37.88,94.08Z"/><path class="cls-2" d="M60.38,103.06a5.91,5.91,0,0,1-2,1.67,5.38,5.38,0,0,1-2.47.58,6.19,6.19,0,0,1-3.3-.9,6.06,6.06,0,0,1-2.3-2.61,10.49,10.49,0,0,1,0-8.13A6.22,6.22,0,0,1,52.59,91a6,6,0,0,1,3.32-.94,5.7,5.7,0,0,1,4.47,2.22V90.43h3.84v14.49H60.38Zm0-7.91A3.56,3.56,0,0,0,59,94a4.19,4.19,0,0,0-1.89-.47,3.36,3.36,0,0,0-2.64,1.16,5.07,5.07,0,0,0,0,6.1,3.34,3.34,0,0,0,2.64,1.17,4.18,4.18,0,0,0,1.89-.46,3.56,3.56,0,0,0,1.41-1.19Z"/><path class="cls-2" d="M69,104.31a4,4,0,0,1-1-3V84.92h3.81v15.41a1.77,1.77,0,0,0,.36,1.14,1.17,1.17,0,0,0,1,.45,2.45,2.45,0,0,0,.78-.12,1,1,0,0,0,.51-.3l.81,2.88a4.63,4.63,0,0,1-3.15.93A4.22,4.22,0,0,1,69,104.31Z"/><path class="cls-2" d="M77.33,100.4a7.44,7.44,0,0,0,2.28,1.37,7,7,0,0,0,2.73.61,3.4,3.4,0,0,0,1.81-.4,1.23,1.23,0,0,0,.62-1.09,1.15,1.15,0,0,0-.72-1.06,9.36,9.36,0,0,0-2.19-.66A21.3,21.3,0,0,1,79,98.44a4.63,4.63,0,0,1-2-1.3,3.56,3.56,0,0,1-.84-2.51,4,4,0,0,1,.7-2.28,4.79,4.79,0,0,1,2.06-1.66,7.61,7.61,0,0,1,3.18-.62,9.12,9.12,0,0,1,5.85,2l-1.53,2.62a5.4,5.4,0,0,0-1.85-1.21A6.47,6.47,0,0,0,82.13,93a3.31,3.31,0,0,0-1.67.36,1.11,1.11,0,0,0-.61,1,1,1,0,0,0,.67,1,10.39,10.39,0,0,0,2.09.62,19.56,19.56,0,0,1,2.91.75,5,5,0,0,1,2,1.38,3.77,3.77,0,0,1,.87,2.62,4.12,4.12,0,0,1-.74,2.39,4.74,4.74,0,0,1-2.16,1.67,8.64,8.64,0,0,1-3.37.6,11,11,0,0,1-3.62-.6,7.92,7.92,0,0,1-2.86-1.65Z"/><path class="cls-2" d="M16.64,130.4a7.44,7.44,0,0,0,2.28,1.37,7,7,0,0,0,2.73.61,3.4,3.4,0,0,0,1.81-.4,1.23,1.23,0,0,0,.62-1.09,1.15,1.15,0,0,0-.72-1.06,9.36,9.36,0,0,0-2.19-.66,21.3,21.3,0,0,1-2.88-.73,4.63,4.63,0,0,1-2-1.3,3.56,3.56,0,0,1-.84-2.51,4,4,0,0,1,.7-2.28,4.79,4.79,0,0,1,2.06-1.66,7.61,7.61,0,0,1,3.18-.62,9.12,9.12,0,0,1,5.85,2l-1.53,2.62a5.4,5.4,0,0,0-1.85-1.21,6.47,6.47,0,0,0-2.44-.48,3.31,3.31,0,0,0-1.67.36,1.11,1.11,0,0,0-.61,1,1,1,0,0,0,.67,1,10.39,10.39,0,0,0,2.09.62,19.56,19.56,0,0,1,2.91.75,5,5,0,0,1,2,1.38,3.77,3.77,0,0,1,.87,2.62A4.12,4.12,0,0,1,27,133a4.74,4.74,0,0,1-2.16,1.67,8.64,8.64,0,0,1-3.37.6,11,11,0,0,1-3.62-.6A7.92,7.92,0,0,1,15,133.06Z"/><path class="cls-2" d="M32.36,134.29a3.92,3.92,0,0,1-1.05-2.95v-7.58h-2.4v-3.33h2.4v-4h3.84v4h2.94v3.33H35.15v6.57a1.77,1.77,0,0,0,.36,1.14,1.17,1.17,0,0,0,1,.45,2.45,2.45,0,0,0,.78-.12,1.16,1.16,0,0,0,.54-.3l.81,2.88a4.68,4.68,0,0,1-3.18.93A4.22,4.22,0,0,1,32.36,134.29Z"/><path class="cls-2" d="M50.66,133.06a5.91,5.91,0,0,1-2,1.67,5.38,5.38,0,0,1-2.47.58,6.19,6.19,0,0,1-3.3-.9,6.06,6.06,0,0,1-2.3-2.61,10.49,10.49,0,0,1,0-8.13A6.22,6.22,0,0,1,42.87,121a6,6,0,0,1,3.32-.94,5.7,5.7,0,0,1,4.47,2.22v-1.86H54.5v14.49H50.66Zm0-7.91A3.56,3.56,0,0,0,49.25,124a4.19,4.19,0,0,0-1.89-.47,3.36,3.36,0,0,0-2.64,1.16,5.07,5.07,0,0,0,0,6.1,3.34,3.34,0,0,0,2.64,1.17,4.18,4.18,0,0,0,1.89-.46,3.56,3.56,0,0,0,1.41-1.19Z"/><path class="cls-2" d="M58.28,120.43h3.81v2a6.28,6.28,0,0,1,2-1.67,5.41,5.41,0,0,1,2.58-.68v3.72a5.54,5.54,0,0,0-1-.12,5.06,5.06,0,0,0-2,.49,3.41,3.41,0,0,0-1.53,1.17v9.59H58.28Z"/><path class="cls-2" d="M70.88,134.29a3.92,3.92,0,0,1-1-2.95v-7.58h-2.4v-3.33h2.4v-4h3.84v4h2.94v3.33H73.67v6.57a1.77,1.77,0,0,0,.36,1.14,1.17,1.17,0,0,0,1,.45,2.45,2.45,0,0,0,.78-.12,1.16,1.16,0,0,0,.54-.3l.81,2.88a4.68,4.68,0,0,1-3.18.93A4.22,4.22,0,0,1,70.88,134.29Z"/><path class="cls-2" d="M18.05,164.29A3.92,3.92,0,0,1,17,161.34v-7.58H14.6v-3.33H17v-4h3.84v4h2.94v3.33H20.84v6.57a1.77,1.77,0,0,0,.36,1.14,1.17,1.17,0,0,0,1,.45,2.45,2.45,0,0,0,.78-.12,1.16,1.16,0,0,0,.54-.3l.81,2.88a4.68,4.68,0,0,1-3.18.93A4.22,4.22,0,0,1,18.05,164.29Z"/><path class="cls-2" d="M36.2,156.1a2.62,2.62,0,0,0-.69-2,3,3,0,0,0-2-.6,3.76,3.76,0,0,0-1.89.5,4.52,4.52,0,0,0-1.41,1.21v9.75H26.39v-20H30.2v7.4a6.54,6.54,0,0,1,2.11-1.59,6.66,6.66,0,0,1,3-.66,4.78,4.78,0,0,1,3.52,1.2A4.59,4.59,0,0,1,40,154.63v10.29H36.2Z"/><path class="cls-2" d="M44.07,147.63a2.26,2.26,0,0,1,0-3.21,2.21,2.21,0,0,1,1.61-.68,2.24,2.24,0,0,1,1.62.66,2.31,2.31,0,0,1,0,3.23,2.17,2.17,0,0,1-1.62.67A2.2,2.2,0,0,1,44.07,147.63Zm-.28,2.8H47.6v14.49H43.79Z"/><path class="cls-2" d="M51.77,160.4a7.44,7.44,0,0,0,2.28,1.37,7,7,0,0,0,2.73.61,3.4,3.4,0,0,0,1.81-.4,1.23,1.23,0,0,0,.62-1.09,1.15,1.15,0,0,0-.72-1.06,9.36,9.36,0,0,0-2.19-.66,21.3,21.3,0,0,1-2.88-.73,4.63,4.63,0,0,1-2-1.3,3.56,3.56,0,0,1-.84-2.51,4,4,0,0,1,.7-2.28,4.79,4.79,0,0,1,2.06-1.66,7.61,7.61,0,0,1,3.18-.62,9.12,9.12,0,0,1,5.85,2l-1.53,2.62A5.4,5.4,0,0,0,59,153.46a6.47,6.47,0,0,0-2.44-.48,3.31,3.31,0,0,0-1.67.36,1.11,1.11,0,0,0-.61,1,1,1,0,0,0,.67.95,10.39,10.39,0,0,0,2.09.62,19.56,19.56,0,0,1,2.91.75A5,5,0,0,1,62,158a3.77,3.77,0,0,1,.87,2.62,4.12,4.12,0,0,1-.74,2.39A4.74,4.74,0,0,1,60,164.71a8.64,8.64,0,0,1-3.37.6,11,11,0,0,1-3.62-.6,7.92,7.92,0,0,1-2.86-1.65Z"/><path class="cls-2" d="M25.91,185.05l-3.06,9.87H18.77l-4.41-14.49h4l2.7,9.75,3.18-9.75h3.39l3.18,9.75,2.7-9.75h4L33,194.92H29Z"/><path class="cls-2" d="M39.35,183.85A7.27,7.27,0,0,1,42,181.1a7.41,7.41,0,0,1,3.87-1,7.12,7.12,0,0,1,3.78,1,6.8,6.8,0,0,1,2.56,2.82,9.09,9.09,0,0,1,.92,4.15v.85H42.38a3.75,3.75,0,0,0,1.29,2.42,4.25,4.25,0,0,0,2.88,1,6.32,6.32,0,0,0,2.11-.38,4.87,4.87,0,0,0,1.76-1.06l1.68,2.46a7.06,7.06,0,0,1-2.64,1.49,10.55,10.55,0,0,1-3.33.52,8.27,8.27,0,0,1-4-.94,7,7,0,0,1-2.78-2.68,8.33,8.33,0,0,1,0-7.84Zm4,.23a3.9,3.9,0,0,0-1,2.23h7.14a3.7,3.7,0,0,0-1-2.22,3.81,3.81,0,0,0-5.11,0Z"/><path class="cls-2" d="M55.94,183.85a7.27,7.27,0,0,1,2.67-2.75,7.41,7.41,0,0,1,3.87-1,7.12,7.12,0,0,1,3.78,1,6.8,6.8,0,0,1,2.56,2.82,9.09,9.09,0,0,1,.92,4.15v.85H59a3.75,3.75,0,0,0,1.29,2.42,4.25,4.25,0,0,0,2.88,1,6.32,6.32,0,0,0,2.11-.38A4.87,4.87,0,0,0,67,190.84l1.68,2.46a7.06,7.06,0,0,1-2.64,1.49,10.55,10.55,0,0,1-3.33.52,8.27,8.27,0,0,1-4-.94A7,7,0,0,1,56,191.69a8.33,8.33,0,0,1,0-7.84Zm4,.23a3.9,3.9,0,0,0-1.05,2.23h7.14a3.7,3.7,0,0,0-1-2.22,3.81,3.81,0,0,0-5.11,0Z"/><path class="cls-2" d="M78.05,189.34l-1.74,1.86v3.72H72.5v-20h3.81v12l5.49-6.45h4.68L80.75,187l5.91,7.92H81.89Z"/><path class="cls-2" d="M88,183.85a7.27,7.27,0,0,1,2.67-2.75,7.41,7.41,0,0,1,3.87-1,7.12,7.12,0,0,1,3.78,1,6.8,6.8,0,0,1,2.56,2.82,9.09,9.09,0,0,1,.92,4.15v.85H91a3.75,3.75,0,0,0,1.29,2.42,4.25,4.25,0,0,0,2.88,1,6.32,6.32,0,0,0,2.11-.38A4.87,4.87,0,0,0,99,190.84l1.68,2.46a7.06,7.06,0,0,1-2.64,1.49,10.55,10.55,0,0,1-3.33.52,8.27,8.27,0,0,1-4-.94A7,7,0,0,1,88,191.69a8.33,8.33,0,0,1,0-7.84Zm4,.23a3.9,3.9,0,0,0-1,2.23h7.14a3.7,3.7,0,0,0-1-2.22,3.81,3.81,0,0,0-5.11,0Z"/><path class="cls-2" d="M114.29,186.17a2.7,2.7,0,0,0-.69-2.08,2.84,2.84,0,0,0-2-.63,3.75,3.75,0,0,0-1.91.5,4.55,4.55,0,0,0-1.39,1.21v9.75h-3.81V180.43h3.81v1.89a6.66,6.66,0,0,1,5.07-2.25,4.22,4.22,0,0,1,4.71,4.62v10.23h-3.81Z"/><path class="cls-2" d="M131.84,193.06a5.91,5.91,0,0,1-2,1.67,5.38,5.38,0,0,1-2.47.58,6.19,6.19,0,0,1-3.3-.9,6.06,6.06,0,0,1-2.3-2.61,10.49,10.49,0,0,1,0-8.13,6.22,6.22,0,0,1,2.28-2.66,6,6,0,0,1,3.32-.94,5.7,5.7,0,0,1,4.47,2.22v-7.37h3.84v20h-3.84Zm0-7.94a3.56,3.56,0,0,0-1.41-1.19,4.19,4.19,0,0,0-1.89-.47,3.35,3.35,0,0,0-2.64,1.18,5.08,5.08,0,0,0,0,6.11,3.34,3.34,0,0,0,2.64,1.17,4.18,4.18,0,0,0,1.89-.46,3.56,3.56,0,0,0,1.41-1.19Z"/><path class="cls-2" d="M139.71,191.11a2.29,2.29,0,0,1,1.7-.71,2.33,2.33,0,0,1,1.71.71,2.35,2.35,0,0,1,.72,1.71,2.29,2.29,0,0,1-.72,1.68,2.34,2.34,0,0,1-1.71.72,2.42,2.42,0,0,1-2.4-2.4A2.37,2.37,0,0,1,139.71,191.11Zm-.61-16.19h4.59l-.6,13.5h-3.36Z"/><path class="cls-3" d="M21.49,224.72a7.21,7.21,0,0,1-2.89-.53,6.5,6.5,0,0,1-2-1.38l1.2-1.65a5.62,5.62,0,0,0,1.58,1.18,4.82,4.82,0,0,0,2.23.5,4,4,0,0,0,1.11-.14,2.14,2.14,0,0,0,.74-.38,1.59,1.59,0,0,0,.42-.53,1.46,1.46,0,0,0,.13-.61,1.1,1.1,0,0,0-.51-1,5.45,5.45,0,0,0-1.3-.57l-1.69-.45a8,8,0,0,1-1.69-.59,3.61,3.61,0,0,1-1.3-1,2.76,2.76,0,0,1-.52-1.77,3.16,3.16,0,0,1,.32-1.4,3.5,3.5,0,0,1,.88-1.12,4.16,4.16,0,0,1,1.38-.75,5.78,5.78,0,0,1,1.81-.27,6.8,6.8,0,0,1,2.54.45,5.72,5.72,0,0,1,2,1.25l-1.19,1.57A4.43,4.43,0,0,0,23,214.47a5.24,5.24,0,0,0-1.87-.34,2.37,2.37,0,0,0-1.47.42,1.29,1.29,0,0,0-.55,1.08,1,1,0,0,0,.51.87A5.49,5.49,0,0,0,21,217l1.69.45a7.56,7.56,0,0,1,1.69.63,3.84,3.84,0,0,1,1.31,1.08,2.93,2.93,0,0,1,.51,1.8,3.84,3.84,0,0,1-.27,1.44,3.16,3.16,0,0,1-.84,1.19,4,4,0,0,1-1.46.81A6.5,6.5,0,0,1,21.49,224.72Z"/><path class="cls-3" d="M33.94,224.51V219a1.72,1.72,0,0,0-.47-1.4,2,2,0,0,0-1.28-.37,2.48,2.48,0,0,0-1.33.36,3.15,3.15,0,0,0-.91.8v6.11h-1.9V212.45H30V217a3.2,3.2,0,0,1,.53-.5,4.46,4.46,0,0,1,.7-.46,4.51,4.51,0,0,1,.85-.31,4,4,0,0,1,1-.12,2.86,2.86,0,0,1,2.11.7,2.8,2.8,0,0,1,.71,2.06v6.19Z"/><path class="cls-3" d="M42.25,224.72a4.54,4.54,0,0,1-1.88-.37,4.15,4.15,0,0,1-2.29-2.45,4.92,4.92,0,0,1-.31-1.77,5,5,0,0,1,.31-1.77,4.28,4.28,0,0,1,.88-1.45,4.18,4.18,0,0,1,1.41-1,5.09,5.09,0,0,1,3.76,0,4,4,0,0,1,1.41,1,4.3,4.3,0,0,1,.89,1.45,5.22,5.22,0,0,1,.3,1.77,5.14,5.14,0,0,1-.3,1.77,4.34,4.34,0,0,1-.89,1.46,4.12,4.12,0,0,1-1.41,1A4.51,4.51,0,0,1,42.25,224.72Zm0-1.68a2.53,2.53,0,0,0,1.09-.23,2.31,2.31,0,0,0,.78-.64,2.73,2.73,0,0,0,.48-.93,3.9,3.9,0,0,0,0-2.21,2.78,2.78,0,0,0-.48-.92,2.17,2.17,0,0,0-.78-.63,2.39,2.39,0,0,0-1.09-.24,2.27,2.27,0,0,0-1.06.24,2.24,2.24,0,0,0-.8.63,2.62,2.62,0,0,0-.49.92,3.9,3.9,0,0,0,0,2.21,2.58,2.58,0,0,0,.49.93,2.31,2.31,0,0,0,1.86.87Z"/><path class="cls-3" d="M53.37,224.72a3.28,3.28,0,0,1-1.55-.37,3.79,3.79,0,0,1-1.25-1.06v4.54h-1.9V215.78h1.9V217a3.45,3.45,0,0,1,1.21-1,3.39,3.39,0,0,1,1.59-.38,3.77,3.77,0,0,1,1.55.31,3.35,3.35,0,0,1,1.22.89,4.17,4.17,0,0,1,.8,1.44,5.76,5.76,0,0,1,.29,1.93,5.82,5.82,0,0,1-.29,1.94,4.22,4.22,0,0,1-.8,1.43,3.52,3.52,0,0,1-1.22.91A3.77,3.77,0,0,1,53.37,224.72ZM52.81,223a2.2,2.2,0,0,0,1.8-.81,3.61,3.61,0,0,0,0-4.19,2.22,2.22,0,0,0-1.8-.8,2.76,2.76,0,0,0-1.3.33,2.56,2.56,0,0,0-.94.83v3.45a2.17,2.17,0,0,0,.4.47,3.48,3.48,0,0,0,.54.38,2.75,2.75,0,0,0,.64.25A2.5,2.5,0,0,0,52.81,223Z"/><path class="cls-3" d="M63.79,224.51V212.45h1.9V217a3.44,3.44,0,0,1,2.8-1.43,3.86,3.86,0,0,1,1.57.32,3.4,3.4,0,0,1,1.22.91,4.21,4.21,0,0,1,.81,1.44,6,6,0,0,1,.29,1.9,6.09,6.09,0,0,1-.29,1.94,4.39,4.39,0,0,1-.81,1.44,3.56,3.56,0,0,1-1.24.91,4,4,0,0,1-1.55.3,3.25,3.25,0,0,1-1.57-.38,3.69,3.69,0,0,1-1.23-1v1.2Zm1.9-2.63a2.6,2.6,0,0,0,1,.83A2.77,2.77,0,0,0,68,223a2.2,2.2,0,0,0,1.8-.81,3.22,3.22,0,0,0,.66-2.1,3.87,3.87,0,0,0-.17-1.16,2.72,2.72,0,0,0-.5-.92,2.37,2.37,0,0,0-.78-.59,2.23,2.23,0,0,0-1-.22,2.78,2.78,0,0,0-1.31.34,2.62,2.62,0,0,0-1,.84Z"/><path class="cls-3" d="M75.25,214.71a1.18,1.18,0,0,1-.83-2,1.17,1.17,0,0,1,.83-.34,1.18,1.18,0,0,1,1.18,1.18,1.14,1.14,0,0,1-.35.83A1.12,1.12,0,0,1,75.25,214.71Zm-1,9.8v-8.73h1.9v8.73Z"/><path class="cls-3" d="M82.21,228.05a6.69,6.69,0,0,1-2-.28,4.69,4.69,0,0,1-1.68-1l.89-1.38a3.07,3.07,0,0,0,1.22.87,4.48,4.48,0,0,0,1.56.25,4.22,4.22,0,0,0,.93-.11A2.31,2.31,0,0,0,84,226a2,2,0,0,0,.6-.75,2.69,2.69,0,0,0,.22-1.17v-1a3.79,3.79,0,0,1-1.22,1.07,3.22,3.22,0,0,1-1.58.39,4.1,4.1,0,0,1-1.54-.29,3.36,3.36,0,0,1-1.23-.87,4.09,4.09,0,0,1-.81-1.4,6,6,0,0,1-.29-1.92,5.88,5.88,0,0,1,.29-1.9,4.24,4.24,0,0,1,.81-1.41,3.41,3.41,0,0,1,1.22-.87,3.93,3.93,0,0,1,1.55-.3,3.37,3.37,0,0,1,2.8,1.43v-1.21h1.9v8.27a4.22,4.22,0,0,1-.4,2,3.27,3.27,0,0,1-1,1.22,3.83,3.83,0,0,1-1.44.64A7.34,7.34,0,0,1,82.21,228.05Zm.34-5.23a2.59,2.59,0,0,0,1.29-.34,2.66,2.66,0,0,0,1-.81V218.4a2.59,2.59,0,0,0-1-.82,2.7,2.7,0,0,0-1.29-.34,2.29,2.29,0,0,0-1.81.77,3.45,3.45,0,0,0,0,4.06A2.31,2.31,0,0,0,82.55,222.82Z"/><path class="cls-3" d="M23.44,243.77v-1.19a3.77,3.77,0,0,1-1.22,1,3.35,3.35,0,0,1-1.58.38,3.8,3.8,0,0,1-1.55-.31,3.38,3.38,0,0,1-1.23-.9,4.32,4.32,0,0,1-.8-1.45,6.47,6.47,0,0,1,0-3.83,4.27,4.27,0,0,1,.8-1.44,3.52,3.52,0,0,1,1.22-.92,3.78,3.78,0,0,1,1.56-.31,3.43,3.43,0,0,1,1.55.36,3.5,3.5,0,0,1,1.25,1.06v-4.53h1.9v12.05Zm-2.24-1.46a2.5,2.5,0,0,0,.66-.09,2.89,2.89,0,0,0,.63-.26,2.58,2.58,0,0,0,.54-.37,1.79,1.79,0,0,0,.41-.46v-3.45a2.42,2.42,0,0,0-.41-.45,3.06,3.06,0,0,0-.54-.38,2.85,2.85,0,0,0-.63-.25,2.5,2.5,0,0,0-.66-.09,2.4,2.4,0,0,0-1,.21,2.55,2.55,0,0,0-.78.6,2.85,2.85,0,0,0-.5.91,4,4,0,0,0-.17,1.17,3.87,3.87,0,0,0,.17,1.16,3,3,0,0,0,.5.93,2.31,2.31,0,0,0,1.81.82Z"/><path class="cls-3" d="M28.75,234a1.14,1.14,0,0,1-.83-.35,1.1,1.1,0,0,1-.34-.83,1.16,1.16,0,0,1,1.17-1.17,1.1,1.1,0,0,1,.83.34,1.14,1.14,0,0,1,.35.83A1.2,1.2,0,0,1,28.75,234Zm-.95,9.79V235h1.89v8.73Z"/><path class="cls-3" d="M35.15,244a6.17,6.17,0,0,1-2.1-.35,4.84,4.84,0,0,1-1.64-1l.87-1.36a2.9,2.9,0,0,0,.56.45,3.51,3.51,0,0,0,.72.39,3.94,3.94,0,0,0,.82.27,3.5,3.5,0,0,0,.84.1,2.13,2.13,0,0,0,1.3-.32,1,1,0,0,0,.44-.84.71.71,0,0,0-.39-.65,4.4,4.4,0,0,0-1-.36L34.32,240a5.36,5.36,0,0,1-1.28-.43,2.75,2.75,0,0,1-1-.78,2.07,2.07,0,0,1-.39-1.33,2.39,2.39,0,0,1,.23-1,2.51,2.51,0,0,1,.66-.84,3.11,3.11,0,0,1,1.07-.57,5.68,5.68,0,0,1,3.43.14,4.74,4.74,0,0,1,1.42.87l-.79,1.33a3.6,3.6,0,0,0-1.08-.74,3.67,3.67,0,0,0-1.51-.3,2,2,0,0,0-1.18.3.94.94,0,0,0-.42.78.62.62,0,0,0,.38.58,4.48,4.48,0,0,0,1,.33l1.27.29a6.23,6.23,0,0,1,1.28.45,2.75,2.75,0,0,1,1,.82,2.22,2.22,0,0,1,.39,1.38,2.58,2.58,0,0,1-.23,1.08,2.35,2.35,0,0,1-.7.87,3.58,3.58,0,0,1-1.14.57A5.26,5.26,0,0,1,35.15,244Z"/><path class="cls-3" d="M44.66,244a4.84,4.84,0,0,1-1.82-.34,4.24,4.24,0,0,1-1.42-1,4.34,4.34,0,0,1-.93-1.46,5.24,5.24,0,0,1,0-3.66,4.35,4.35,0,0,1,.93-1.44,4.24,4.24,0,0,1,1.42-1,4.65,4.65,0,0,1,1.82-.34,5.11,5.11,0,0,1,1.16.12,4,4,0,0,1,.92.35,3.79,3.79,0,0,1,.72.49,5.89,5.89,0,0,1,.54.59l-1.25,1.14a2.31,2.31,0,0,0-2-1,2.47,2.47,0,0,0-1.92.8,3,3,0,0,0-.72,2.09,3.32,3.32,0,0,0,.19,1.16,2.53,2.53,0,0,0,.54.93,2.36,2.36,0,0,0,.83.6,2.51,2.51,0,0,0,1.08.22,2.32,2.32,0,0,0,2-1.05L48,242.43a4.29,4.29,0,0,1-1.27,1.09A4.07,4.07,0,0,1,44.66,244Z"/><path class="cls-3" d="M53.64,244a4.51,4.51,0,0,1-1.88-.37,4.15,4.15,0,0,1-1.41-1,4.3,4.3,0,0,1-.89-1.45,5.37,5.37,0,0,1,0-3.54,4.34,4.34,0,0,1,.89-1.46,4.1,4.1,0,0,1,1.41-1,5.09,5.09,0,0,1,3.76,0,4.09,4.09,0,0,1,2.29,2.44,5.21,5.21,0,0,1,0,3.54,4.28,4.28,0,0,1-.88,1.45,4.35,4.35,0,0,1-1.41,1A4.54,4.54,0,0,1,53.64,244Zm0-1.68a2.32,2.32,0,0,0,1.08-.24,2.21,2.21,0,0,0,.79-.63,2.73,2.73,0,0,0,.48-.93,4.14,4.14,0,0,0,.16-1.11,4,4,0,0,0-.16-1.1,2.93,2.93,0,0,0-.48-.93,2.41,2.41,0,0,0-3.73,0,2.76,2.76,0,0,0-.49.93,3.62,3.62,0,0,0-.17,1.1,3.78,3.78,0,0,0,.17,1.11,2.58,2.58,0,0,0,.49.93,2.21,2.21,0,0,0,.79.63A2.31,2.31,0,0,0,53.64,242.31Z"/><path class="cls-3" d="M65.94,243.77v-1.15a4.49,4.49,0,0,1-1.25.94,3.71,3.71,0,0,1-1.82.43,2.86,2.86,0,0,1-2.11-.71,2.81,2.81,0,0,1-.71-2.06V235H62v5.48a1.73,1.73,0,0,0,.48,1.4,2,2,0,0,0,1.29.39A2.54,2.54,0,0,0,65,242a3.12,3.12,0,0,0,.91-.79V235h1.9v8.73Z"/><path class="cls-3" d="M76.21,243.77v-5.46a1.74,1.74,0,0,0-.48-1.41,2,2,0,0,0-1.29-.39,2.46,2.46,0,0,0-1.31.36,3.52,3.52,0,0,0-.93.79v6.11H70.3V235h1.9v1.18a3.71,3.71,0,0,1,.53-.51,3.9,3.9,0,0,1,.71-.45,4.63,4.63,0,0,1,.86-.32,4.48,4.48,0,0,1,1-.11,2.51,2.51,0,0,1,2.82,2.8v6.14Z"/><path class="cls-3" d="M83.2,244a2.24,2.24,0,0,1-1.68-.58,2.33,2.33,0,0,1-.56-1.68v-5H79.52V235H81v-2.38h1.9V235h1.77v1.65H82.86v4.57a1.28,1.28,0,0,0,.21.75.7.7,0,0,0,.62.3,1.18,1.18,0,0,0,.5-.1.87.87,0,0,0,.33-.23l.45,1.45a2,2,0,0,1-.68.4A3.35,3.35,0,0,1,83.2,244Z"/><path class="cls-3" d="M89.33,244a6.17,6.17,0,0,1-2.1-.35,4.74,4.74,0,0,1-1.64-1l.87-1.36a3.15,3.15,0,0,0,.55.45,3.89,3.89,0,0,0,.73.39,3.94,3.94,0,0,0,.82.27,3.44,3.44,0,0,0,.84.1,2.13,2.13,0,0,0,1.3-.32,1,1,0,0,0,.44-.84.71.71,0,0,0-.39-.65,4.4,4.4,0,0,0-1-.36L88.5,240a5.21,5.21,0,0,1-1.28-.43,2.75,2.75,0,0,1-1-.78,2.07,2.07,0,0,1-.39-1.33,2.38,2.38,0,0,1,.22-1,2.64,2.64,0,0,1,.66-.84,3.25,3.25,0,0,1,1.08-.57,5.68,5.68,0,0,1,3.43.14,4.74,4.74,0,0,1,1.42.87l-.79,1.33a3.6,3.6,0,0,0-1.08-.74,3.67,3.67,0,0,0-1.51-.3,2,2,0,0,0-1.18.3,1,1,0,0,0-.43.78.63.63,0,0,0,.39.58,4.48,4.48,0,0,0,1,.33l1.27.29a6.45,6.45,0,0,1,1.28.45,2.75,2.75,0,0,1,1,.82,2.22,2.22,0,0,1,.39,1.38,2.58,2.58,0,0,1-.23,1.08,2.35,2.35,0,0,1-.7.87,3.58,3.58,0,0,1-1.14.57A5.26,5.26,0,0,1,89.33,244Z"/><path class="cls-3" d="M23,263.26a6.5,6.5,0,0,1-2.49-.47,6.11,6.11,0,0,1-1.95-1.3,5.91,5.91,0,0,1-1.27-2,7.14,7.14,0,0,1,0-5,5.71,5.71,0,0,1,1.27-2,5.8,5.8,0,0,1,1.95-1.3,6.8,6.8,0,0,1,5,0,5.7,5.7,0,0,1,2,1.3,6,6,0,0,1,1.27,2,7,7,0,0,1,0,5,6.24,6.24,0,0,1-1.27,2,6,6,0,0,1-2,1.3A6.44,6.44,0,0,1,23,263.26Zm0-1.88a3.82,3.82,0,0,0,1.64-.34,3.65,3.65,0,0,0,1.27-.91,4.1,4.1,0,0,0,.8-1.38,5.48,5.48,0,0,0,0-3.46,4.1,4.1,0,0,0-.8-1.38,3.78,3.78,0,0,0-1.27-.91,4.29,4.29,0,0,0-3.3,0,3.91,3.91,0,0,0-1.25.91,4.12,4.12,0,0,0-.81,1.38,5.48,5.48,0,0,0,0,3.46,4.12,4.12,0,0,0,.81,1.38,3.76,3.76,0,0,0,1.25.91A3.85,3.85,0,0,0,23,261.38Z"/><path class="cls-3" d="M35.1,263.26a4.65,4.65,0,0,1-1.82-.35,4.24,4.24,0,0,1-1.42-1,4.2,4.2,0,0,1-.93-1.45,5.24,5.24,0,0,1,0-3.66,4.28,4.28,0,0,1,2.35-2.4,4.65,4.65,0,0,1,1.82-.35,5.08,5.08,0,0,1,1.16.13,3.68,3.68,0,0,1,1.64.84,5,5,0,0,1,.54.59l-1.25,1.14a2.32,2.32,0,0,0-2-1,2.44,2.44,0,0,0-1.92.81,3,3,0,0,0-.72,2.09,3.32,3.32,0,0,0,.19,1.16,2.6,2.6,0,0,0,1.37,1.53,2.67,2.67,0,0,0,1.08.22,2.32,2.32,0,0,0,2-1.05l1.25,1.17a4.44,4.44,0,0,1-1.27,1.09A4.07,4.07,0,0,1,35.1,263.26Z"/><path class="cls-3" d="M42.76,263.26a2.25,2.25,0,0,1-1.68-.58,2.31,2.31,0,0,1-.56-1.68v-5H39.07v-1.65h1.45v-2.38h1.9v2.38h1.77V256H42.42v4.57a1.27,1.27,0,0,0,.2.75.72.72,0,0,0,.63.3,1.3,1.3,0,0,0,.49-.1,1.05,1.05,0,0,0,.34-.23l.45,1.45a2,2,0,0,1-.69.39A3.06,3.06,0,0,1,42.76,263.26Z"/><path class="cls-3" d="M54.31,263.26a6.19,6.19,0,0,1-2.77-.57,5,5,0,0,1-1.79-1.39l1.16-1.39A3.9,3.9,0,0,0,52.37,261a4.56,4.56,0,0,0,1.86.39,3,3,0,0,0,1.86-.51,1.6,1.6,0,0,0,.66-1.34,1.41,1.41,0,0,0-.69-1.31,4,4,0,0,0-2-.4h-.8c-.29,0-.48,0-.57,0v-1.93h1.37a5.24,5.24,0,0,0,1-.09,2.48,2.48,0,0,0,.78-.29,1.67,1.67,0,0,0,.53-.49,1.37,1.37,0,0,0,.19-.71,1.44,1.44,0,0,0-.19-.73,1.55,1.55,0,0,0-.53-.52,2.5,2.5,0,0,0-.78-.32,4,4,0,0,0-.94-.11A4.22,4.22,0,0,0,51,254l-1.09-1.32a5.42,5.42,0,0,1,1.8-1.36,5.84,5.84,0,0,1,2.61-.54,6.56,6.56,0,0,1,1.78.23,4.18,4.18,0,0,1,1.36.64,3.07,3.07,0,0,1,.89,1,2.86,2.86,0,0,1,.31,1.35,2.57,2.57,0,0,1-.23,1.1,2.92,2.92,0,0,1-.61.82,3.42,3.42,0,0,1-.84.56,3.34,3.34,0,0,1-.92.28,3.89,3.89,0,0,1,.92.26,3.2,3.2,0,0,1,.91.56,2.8,2.8,0,0,1,.7.89,2.65,2.65,0,0,1,.27,1.23,3.18,3.18,0,0,1-.32,1.42,3.12,3.12,0,0,1-.91,1.11,4.34,4.34,0,0,1-1.44.73A6.14,6.14,0,0,1,54.31,263.26Z"/><path class="cls-3" d="M60.23,259.48v-1.63h9.64v1.63Z"/><path class="cls-3" d="M77.38,263v-2.73H71.64v-1.7l5-7.62H79.5v7.44h1.61v1.88H79.5V263Zm0-10.16-3.67,5.55h3.67Z"/><g id="white_logo" data-name="white logo"><g class="cls-4"><g class="cls-5"><path class="cls-2" d="M28.81,329.07c15.36-4.69,23.12,7.07,23.12,7.07s-4.87-16.42-23.12-7.07"/><path class="cls-2" d="M58.51,329.68a5.23,5.23,0,0,1,0-.56,11.46,11.46,0,0,0-6.06,8.81s2.09-4.86,7-6.33a2.94,2.94,0,0,1-1-1.92"/><path class="cls-2" d="M38.91,336.54s0,2.32,0,3.49c-.58,0-3.14-.16-4.26-.2,0,.62,0,1.27,0,1.89,1.34,0,2.74.19,4.08.18,0,1.12,0,2.09,0,3.22-1.34,0-2.68-.11-4-.14V347c1.45,0,2.9.15,4.34.13,0-.05,0,3.42,0,3.42-2.86,0-6.24-.22-9.45-.49l.22-14.28c1.35.16,5.54.61,9.19.72"/><path class="cls-2" d="M40.13,336.57l-.05,3.73c1.34.06,2.55.07,2.55.07v10.35a34.3,34.3,0,0,0,5.16-.07l-.07-10.25s2.29-.11,2.64-.14c0-1.37,0-2.44-.05-3.81a90.7,90.7,0,0,1-10.17.12"/><path class="cls-2" d="M109.05,334.3v4.32c.87.05,1.86.23,2.73.3,0,3.61-.09,6.34-.09,9.95,2.43.29,4.15.57,4.82.69,0-3.61.14-6.45.14-10.06,0,0,2.58.4,2.62.44,0-1.48,0-3,0-4.45a79.18,79.18,0,0,0-10.23-1.19"/><path class="cls-2" d="M22.29,341.26l-.45-.05,0-2.94.43.05a1.49,1.49,0,0,1,1.49,1.57c0,1.21-.76,1.45-1.5,1.37m1.14-6.91-6.12-1.11,0,15c1.57.3,3,.56,4.53.73l0-4.32c.54.05,1.11.13,1.65.17,2.65.25,5.32-.75,5.36-5.09,0-3.84-2.53-5-5.36-5.37"/><path class="cls-2" d="M74.45,348.27c.69-1.79,1.37-3.45,2.06-5.24.1,1.71.17,3.26.28,5,1.71-.19,3.08-.29,4.8-.39-.45-4.55-.83-9.43-1.28-14-1.46.12-2.93.26-4.4.4-.82,2.15-1.65,4.76-2.47,6.91-.8-2-1.59-4.33-2.39-6.31-1.48.21-4.13.67-4.4.68-.51,4.63-1.09,9.79-1.6,14.43,1.17-.21,4-.66,4.89-.78l.4-5.31,2,5,2.13-.33"/><path class="cls-2" d="M101.59,340.42l-.46,0c0-1,0-1.93,0-2.89l.44,0a1.44,1.44,0,0,1,1.49,1.52,1.24,1.24,0,0,1-1.51,1.37m4.24,3.08c1.31-.58,2.25-1.85,2.29-4.36,0-3.79-2.63-5.4-5.34-5.61q-3.07-.24-6.15-.33c-.06,4.81-.09,9.22-.15,14,1.53,0,3.21.16,4.55.27,0-1.35,0-2.36.06-3.71l2.47,4c1.88.17,3.81.42,5.7.69-1.18-1.76-2.24-3.27-3.43-5"/><path class="cls-2" d="M87.93,342.57c.31-1.19.64-2.45,1-3.64.36,1.19.73,2.39,1.09,3.59a19.52,19.52,0,0,1-2,.05m3.34-9.47c-1.82,0-3.31,0-4.87.1-1.25,4.66-2.73,9.66-4,14.34,1.39,0,2.81-.12,4.2-.12.13-.49.28-1.06.4-1.56l2.13-.05s1.88-.06,1.88-.06c0,.18.22.67.47,1.49,1.39,0,2.79,0,4.18,0-1.51-4.95-3-9.7-4.41-14.18"/><path class="cls-2" d="M51.94,349.39a12.56,12.56,0,0,0,5.66,1.43c3.2,0,6.54-1.92,6.62-5.5,0-2.56-1.58-3.77-3.84-4.27l-1.21-.28c-.41-.1-1.08-.18-1.07-.74s.71-.79,1.18-.79a8.3,8.3,0,0,1,3.26.69l1.36-3.61a10.85,10.85,0,0,0-4.66-1.11c-3.22,0-6.46,2-6.53,5.52,0,2.35,1.7,3.64,3.79,4l1.07.2c.49.1,1.2.16,1.18.84s-.84.75-1.37.75a6.35,6.35,0,0,1-3.68-1.21c-.55,1.25-1.21,2.8-1.76,4.05"/><path class="cls-2" d="M63.51,325a3.61,3.61,0,1,0,3.56,3.66A3.62,3.62,0,0,0,63.51,325m1.31,1.33A4.33,4.33,0,0,0,61,328.58s0,0,0,.05a2.65,2.65,0,0,1,.09-1,2.45,2.45,0,0,1,3-1.75,2.19,2.19,0,0,1,.85.46s0,0-.05,0"/></g></g></g><g id="Layer_1-2" data-name="Layer 1"><path class="cls-6" d="M1.65,600c-.07-4.93-.06-7,0-10.76.67-48.09,35.12-80.7,78.44-80.7s78.6,36.13,78.6,80.7c0,3.65-.08,6.83,0,10.76"/></g></g><g id="Layer_4" data-name="Layer 4"><rect class="cls-1" width="160" height="600"/></g></g></svg>