<svg xmlns="http://www.w3.org/2000/svg" viewBox="0 0 300 600"><g id="Layer_2" data-name="Layer 2"><g id="REC"><rect width="300" height="600" fill="none"/></g><g id="CTA"><path d="M171.51,273.25H35.92a16.43,16.43,0,0,1-16.43-16.42v-1.72a16.43,16.43,0,0,1,16.43-16.42h135.6A16.43,16.43,0,0,1,188,255.11v1.72A16.44,16.44,0,0,1,171.51,273.25Z" fill="#e52a26"/><path d="M43.8,258.43a5.77,5.77,0,0,0,1.82,1.31,5.34,5.34,0,0,0,2.34.5,3.11,3.11,0,0,0,2-.54,1.59,1.59,0,0,0,.65-1.27,1.19,1.19,0,0,0-.38-.91,2.66,2.66,0,0,0-1-.56c-.4-.15-.94-.3-1.63-.49a19.48,19.48,0,0,1-2.4-.72,4.3,4.3,0,0,1-1.59-1.15,3.07,3.07,0,0,1-.67-2.06,3.39,3.39,0,0,1,.6-2,3.92,3.92,0,0,1,1.69-1.37,5.64,5.64,0,0,1,2.48-.5,6.8,6.8,0,0,1,4.93,1.83l-1.32,1.72a4.82,4.82,0,0,0-1.75-1.12,5.57,5.57,0,0,0-2.06-.37,2.59,2.59,0,0,0-1.61.44,1.41,1.41,0,0,0-.6,1.19,1,1,0,0,0,.37.79,2.83,2.83,0,0,0,.94.52c.36.12.9.28,1.59.45a21.32,21.32,0,0,1,2.42.77,4.18,4.18,0,0,1,1.64,1.19,3.16,3.16,0,0,1,.68,2.11,3.76,3.76,0,0,1-2.25,3.53,6.58,6.58,0,0,1-2.84.53,8,8,0,0,1-3.08-.55,6.6,6.6,0,0,1-2.25-1.53Z" fill="#fff"/><path d="M55,254.77a4.71,4.71,0,0,1,4.2-2.47,4.44,4.44,0,0,1,4.11,2.51,6.05,6.05,0,0,1,.58,2.67v.5H56.59a2.94,2.94,0,0,0,.92,1.89,3,3,0,0,0,2.1.75,4.24,4.24,0,0,0,1.47-.27,3.43,3.43,0,0,0,1.23-.77l.95,1.37a4.91,4.91,0,0,1-1.72,1,6.28,6.28,0,0,1-2.14.35,5.33,5.33,0,0,1-2.56-.62,4.63,4.63,0,0,1-1.78-1.76,5.26,5.26,0,0,1-.66-2.63A5.43,5.43,0,0,1,55,254.77Zm2.29,0a3,3,0,0,0-.77,1.76h5.35a2.67,2.67,0,0,0-.31-1.19,2.5,2.5,0,0,0-.88-.95,2.75,2.75,0,0,0-1.48-.37A2.51,2.51,0,0,0,57.33,254.74Z" fill="#fff"/><path d="M66,254.77a4.71,4.71,0,0,1,4.2-2.47,4.44,4.44,0,0,1,4.11,2.51,6.05,6.05,0,0,1,.58,2.67v.5H67.55a2.94,2.94,0,0,0,.92,1.89,3,3,0,0,0,2.1.75,4.14,4.14,0,0,0,1.46-.27,3.39,3.39,0,0,0,1.24-.77l1,1.37a4.91,4.91,0,0,1-1.72,1,6.28,6.28,0,0,1-2.14.35,5.33,5.33,0,0,1-2.56-.62A4.63,4.63,0,0,1,66,259.94a5.26,5.26,0,0,1-.66-2.63A5.55,5.55,0,0,1,66,254.77Zm2.3,0a3,3,0,0,0-.77,1.76h5.36a2.82,2.82,0,0,0-.32-1.19,2.36,2.36,0,0,0-.88-.95,2.74,2.74,0,0,0-1.47-.37A2.5,2.5,0,0,0,68.3,254.74Z" fill="#fff"/><path d="M83,261.67a2.51,2.51,0,0,1-.63-1.82v-5.51H80.84v-1.81h1.57v-2.6h2.08v2.6h1.93v1.81H84.49v5a1.36,1.36,0,0,0,.24.83.82.82,0,0,0,.66.31,1.4,1.4,0,0,0,.54-.1,1,1,0,0,0,.39-.24l.49,1.56a2.7,2.7,0,0,1-1.94.61A2.58,2.58,0,0,1,83,261.67Z" fill="#fff"/><path d="M94.72,256.05a1.92,1.92,0,0,0-.5-1.49,2,2,0,0,0-1.43-.44,2.83,2.83,0,0,0-1.38.37,3.76,3.76,0,0,0-1.06.91V262H88.28V248.89h2.07v4.93a4.15,4.15,0,0,1,1.43-1.08,4.3,4.3,0,0,1,2-.45,3.19,3.19,0,0,1,2.3.76,3,3,0,0,1,.78,2.25V262H94.73v-6Z" fill="#fff"/><path d="M99.49,254.77a4.71,4.71,0,0,1,4.2-2.47,4.44,4.44,0,0,1,4.11,2.51,6.05,6.05,0,0,1,.58,2.67v.5H101a2.94,2.94,0,0,0,.92,1.89,3,3,0,0,0,2.1.75,4.18,4.18,0,0,0,1.46-.27,3.39,3.39,0,0,0,1.24-.77l.95,1.37a4.91,4.91,0,0,1-1.72,1,6.28,6.28,0,0,1-2.14.35,5.33,5.33,0,0,1-2.56-.62,4.65,4.65,0,0,1-1.79-1.76,5.37,5.37,0,0,1-.65-2.63A5.55,5.55,0,0,1,99.49,254.77Zm2.3,0a3,3,0,0,0-.77,1.76h5.36a2.82,2.82,0,0,0-.32-1.19,2.43,2.43,0,0,0-.88-.95,2.74,2.74,0,0,0-1.47-.37A2.48,2.48,0,0,0,101.79,254.74Z" fill="#fff"/><path d="M115.55,248.91h4.88a7.42,7.42,0,0,1,3.58.84,6.07,6.07,0,0,1,2.42,2.32,6.56,6.56,0,0,1,.87,3.41,6.46,6.46,0,0,1-.87,3.39A6.17,6.17,0,0,1,124,261.2a7.31,7.31,0,0,1-3.58.84h-4.88Zm4.89,11.1a4.62,4.62,0,0,0,2.4-.6,4,4,0,0,0,1.56-1.63,4.91,4.91,0,0,0,.54-2.3,5,5,0,0,0-.52-2.31,4,4,0,0,0-1.55-1.64,4.82,4.82,0,0,0-2.44-.59h-2.58V260Z" fill="#fff"/><path d="M129.5,254.77a4.71,4.71,0,0,1,4.2-2.47,4.44,4.44,0,0,1,4.11,2.51,6.05,6.05,0,0,1,.58,2.67v.5h-7.34a2.94,2.94,0,0,0,.92,1.89,3,3,0,0,0,2.1.75,4.14,4.14,0,0,0,1.46-.27,3.39,3.39,0,0,0,1.24-.77l.95,1.37a4.91,4.91,0,0,1-1.72,1,6.28,6.28,0,0,1-2.14.35,5.33,5.33,0,0,1-2.56-.62,4.63,4.63,0,0,1-1.78-1.76,5.26,5.26,0,0,1-.66-2.63A5.55,5.55,0,0,1,129.5,254.77Zm2.3,0a3,3,0,0,0-.77,1.76h5.36a2.82,2.82,0,0,0-.32-1.19,2.36,2.36,0,0,0-.88-.95,2.74,2.74,0,0,0-1.47-.37A2.5,2.5,0,0,0,131.8,254.74Z" fill="#fff"/><path d="M147.13,260.75a4,4,0,0,1-1.35,1.13,3.71,3.71,0,0,1-1.7.41,3.9,3.9,0,0,1-3.69-2.32,6.85,6.85,0,0,1,0-5.33,4.13,4.13,0,0,1,1.5-1.74,4,4,0,0,1,2.19-.61,4,4,0,0,1,1.69.39,3.86,3.86,0,0,1,1.36,1.15v-1.32h2.08V262h-2.08Zm0-5.33a2.65,2.65,0,0,0-1-.92,3,3,0,0,0-1.42-.37,2.4,2.4,0,0,0-1.94.88,3.94,3.94,0,0,0,0,4.57,2.37,2.37,0,0,0,1.94.88,3,3,0,0,0,1.42-.35,2.7,2.7,0,0,0,1-.91Z" fill="#fff"/><path d="M152.5,261.67a2.51,2.51,0,0,1-.63-1.82V248.91H154v10.43a1.36,1.36,0,0,0,.24.83.83.83,0,0,0,.67.31,1.51,1.51,0,0,0,.54-.1.78.78,0,0,0,.36-.24l.5,1.56a2.73,2.73,0,0,1-1.93.61A2.58,2.58,0,0,1,152.5,261.67Z" fill="#fff"/><path d="M157.61,259.33a4.57,4.57,0,0,0,1.43.95,4.37,4.37,0,0,0,1.79.4,2.44,2.44,0,0,0,1.39-.32,1,1,0,0,0-.07-1.73,7.17,7.17,0,0,0-1.62-.52,14.92,14.92,0,0,1-1.84-.5,2.85,2.85,0,0,1-1.24-.85,2.29,2.29,0,0,1-.51-1.56,2.5,2.5,0,0,1,.44-1.45,3,3,0,0,1,1.29-1.05,4.82,4.82,0,0,1,2-.4,5.41,5.41,0,0,1,3.71,1.33l-.87,1.47a3.42,3.42,0,0,0-1.21-.83,4.07,4.07,0,0,0-1.62-.31,2.55,2.55,0,0,0-1.3.29.87.87,0,0,0-.47.78.82.82,0,0,0,.51.75,7.54,7.54,0,0,0,1.56.5,10.73,10.73,0,0,1,1.88.52,3.33,3.33,0,0,1,1.27.89,2.46,2.46,0,0,1,.53,1.67,2.64,2.64,0,0,1-1.05,2.13,4.58,4.58,0,0,1-2.91.82,6.88,6.88,0,0,1-2.29-.38,5.05,5.05,0,0,1-1.79-1.1Z" fill="#fff"/></g></g></svg>