<svg xmlns="http://www.w3.org/2000/svg" viewBox="0 0 300 600"><g id="Layer_2" data-name="Layer 2"><g id="REC"><rect width="300" height="600" fill="none"/></g><g id="sbhd"><path d="M25.42,187.33a10.65,10.65,0,0,1-4.32-.79,9.25,9.25,0,0,1-3-2.07L19.85,182a8.46,8.46,0,0,0,2.37,1.76,7.11,7.11,0,0,0,3.33.76,5.71,5.71,0,0,0,1.66-.22,3,3,0,0,0,1.11-.57,2.31,2.31,0,0,0,.62-.79,2.26,2.26,0,0,0,.2-.91,1.61,1.61,0,0,0-.77-1.44,7.15,7.15,0,0,0-1.94-.85c-.78-.24-1.63-.46-2.53-.68a11.92,11.92,0,0,1-2.52-.89,5.38,5.38,0,0,1-1.94-1.55,4.13,4.13,0,0,1-.77-2.63,4.62,4.62,0,0,1,.47-2.1,5,5,0,0,1,1.32-1.67,6.23,6.23,0,0,1,2.07-1.12,8.5,8.5,0,0,1,2.7-.41,10.12,10.12,0,0,1,3.79.67A8.69,8.69,0,0,1,32,171.24l-1.78,2.35A6.66,6.66,0,0,0,27.72,172a8.13,8.13,0,0,0-2.79-.5,3.59,3.59,0,0,0-2.2.62,2,2,0,0,0-.82,1.62,1.44,1.44,0,0,0,.76,1.3,8.15,8.15,0,0,0,1.95.78q1.17.33,2.52.66a11.79,11.79,0,0,1,2.53.95,5.56,5.56,0,0,1,1.94,1.62,4.33,4.33,0,0,1,.77,2.68,5.71,5.71,0,0,1-.4,2.15,4.68,4.68,0,0,1-1.26,1.78,6.06,6.06,0,0,1-2.17,1.22A9.77,9.77,0,0,1,25.42,187.33Z" fill="#e32d27"/><path d="M44,187V178.8a2.58,2.58,0,0,0-.7-2.09,3,3,0,0,0-1.92-.55,3.68,3.68,0,0,0-2,.54,4.92,4.92,0,0,0-1.37,1.18V187H35.22V169h2.83v6.72a5.86,5.86,0,0,1,.8-.75,5.93,5.93,0,0,1,2.32-1.15,5.8,5.8,0,0,1,1.47-.18,4.29,4.29,0,0,1,3.16,1.06,4.18,4.18,0,0,1,1.05,3.08V187Z" fill="#e32d27"/><path d="M56.44,187.33a6.81,6.81,0,0,1-2.81-.55,6.42,6.42,0,0,1-2.11-1.48,6.7,6.7,0,0,1-1.32-2.18,7.83,7.83,0,0,1,0-5.29,6.55,6.55,0,0,1,1.32-2.17,6.28,6.28,0,0,1,2.11-1.48,7.58,7.58,0,0,1,5.62,0,6.24,6.24,0,0,1,2.1,1.48,6.41,6.41,0,0,1,1.33,2.17,8,8,0,0,1,0,5.29,6.56,6.56,0,0,1-1.33,2.18,6.38,6.38,0,0,1-2.1,1.48A6.84,6.84,0,0,1,56.44,187.33Zm0-2.51a3.51,3.51,0,0,0,1.62-.35,3.38,3.38,0,0,0,1.17-.94,4.08,4.08,0,0,0,.72-1.39,5.75,5.75,0,0,0,.24-1.66,5.58,5.58,0,0,0-.24-1.65,4.13,4.13,0,0,0-.72-1.38,3.38,3.38,0,0,0-1.17-.94,3.51,3.51,0,0,0-1.62-.35,3.39,3.39,0,0,0-1.59.35,3.55,3.55,0,0,0-1.19.94,4,4,0,0,0-.73,1.38,5.58,5.58,0,0,0-.24,1.65,5.75,5.75,0,0,0,.24,1.66,3.93,3.93,0,0,0,.73,1.39,3.55,3.55,0,0,0,1.19.94A3.39,3.39,0,0,0,56.44,184.82Z" fill="#e32d27"/><path d="M73,187.33a5,5,0,0,1-2.31-.55,5.7,5.7,0,0,1-1.87-1.58V192H66V174h2.84v1.78a5.28,5.28,0,0,1,1.81-1.54,5,5,0,0,1,2.37-.57,5.91,5.91,0,0,1,2.33.46,5.31,5.31,0,0,1,1.82,1.34,6.39,6.39,0,0,1,1.2,2.15,9.89,9.89,0,0,1,0,5.77,6.29,6.29,0,0,1-1.2,2.15,5.22,5.22,0,0,1-1.82,1.35A5.58,5.58,0,0,1,73,187.33Zm-.83-2.51a3.32,3.32,0,0,0,2.7-1.21,4.81,4.81,0,0,0,1-3.13,4.74,4.74,0,0,0-1-3.12,3.34,3.34,0,0,0-2.7-1.2,3.94,3.94,0,0,0-1.93.5,3.75,3.75,0,0,0-1.42,1.22V183a3.07,3.07,0,0,0,.61.7,3.93,3.93,0,0,0,.81.57,4.3,4.3,0,0,0,.94.38A3.74,3.74,0,0,0,72.21,184.82Z" fill="#e32d27"/><path d="M88.62,187V169h2.84v6.78a5.1,5.1,0,0,1,4.18-2.14,5.63,5.63,0,0,1,2.34.48,5.1,5.1,0,0,1,1.83,1.36,6.11,6.11,0,0,1,1.2,2.16,9.51,9.51,0,0,1,0,5.72,6.13,6.13,0,0,1-1.21,2.16A5.14,5.14,0,0,1,98,186.88a5.87,5.87,0,0,1-2.31.45,5.09,5.09,0,0,1-2.35-.56,5.54,5.54,0,0,1-1.83-1.54V187Zm2.84-3.92a3.72,3.72,0,0,0,1.41,1.23,4.05,4.05,0,0,0,2,.5,3.27,3.27,0,0,0,2.69-1.21,4.86,4.86,0,0,0,1-3.13,5.78,5.78,0,0,0-.25-1.75,3.82,3.82,0,0,0-.75-1.36,3.5,3.5,0,0,0-1.16-.89,3.38,3.38,0,0,0-1.51-.32,4.07,4.07,0,0,0-2,.51,3.83,3.83,0,0,0-1.41,1.24Z" fill="#e32d27"/><path d="M105.74,172.38a1.65,1.65,0,0,1-1.24-.52,1.75,1.75,0,1,1,2.48,0A1.65,1.65,0,0,1,105.74,172.38ZM104.31,187V174h2.83v13Z" fill="#e32d27"/><path d="M116.13,192.3a9.68,9.68,0,0,1-3-.42,6.91,6.91,0,0,1-2.51-1.52l1.33-2.05a4.52,4.52,0,0,0,1.83,1.29,6.76,6.76,0,0,0,2.32.38,5.41,5.41,0,0,0,1.39-.18,3.37,3.37,0,0,0,1.25-.6,3.21,3.21,0,0,0,.89-1.12,4,4,0,0,0,.34-1.75v-1.48a5.78,5.78,0,0,1-1.83,1.59,4.73,4.73,0,0,1-2.36.6,5.87,5.87,0,0,1-2.31-.45,5.16,5.16,0,0,1-1.83-1.29,6,6,0,0,1-1.21-2.1,8.87,8.87,0,0,1-.43-2.86,8.77,8.77,0,0,1,.43-2.83,6.14,6.14,0,0,1,1.21-2.11,5,5,0,0,1,1.82-1.31,5.82,5.82,0,0,1,2.32-.45,5.11,5.11,0,0,1,2.32.54,5.36,5.36,0,0,1,1.87,1.6V174h2.83v12.36a6.46,6.46,0,0,1-.59,2.92,5,5,0,0,1-1.56,1.84,6,6,0,0,1-2.16.94A10.81,10.81,0,0,1,116.13,192.3Zm.52-7.8a4,4,0,0,0,1.93-.51,4.21,4.21,0,0,0,1.42-1.22v-4.89a4.19,4.19,0,0,0-1.42-1.21,4,4,0,0,0-1.93-.51,3.39,3.39,0,0,0-2.7,1.14,4.46,4.46,0,0,0-1,3,4.37,4.37,0,0,0,1,3A3.39,3.39,0,0,0,116.65,184.5Z" fill="#e32d27"/><path d="M142.65,187v-1.78a5.71,5.71,0,0,1-1.82,1.54,5.08,5.08,0,0,1-2.37.56,6,6,0,0,1-2.31-.45,5,5,0,0,1-1.83-1.36,6.44,6.44,0,0,1-1.2-2.16,9.73,9.73,0,0,1,0-5.72,6.44,6.44,0,0,1,1.2-2.16,5.15,5.15,0,0,1,1.82-1.36,5.54,5.54,0,0,1,2.32-.48,5.18,5.18,0,0,1,2.33.54,5.33,5.33,0,0,1,1.86,1.6V169h2.83v18Zm-3.35-2.19a3.85,3.85,0,0,0,1-.13,4.51,4.51,0,0,0,.94-.38,4.79,4.79,0,0,0,.81-.55,3.29,3.29,0,0,0,.61-.69v-5.16a3.78,3.78,0,0,0-.61-.67,3.93,3.93,0,0,0-.81-.57,4.51,4.51,0,0,0-.94-.38,3.85,3.85,0,0,0-1-.13,3.45,3.45,0,0,0-1.54.32,3.5,3.5,0,0,0-1.16.89,4,4,0,0,0-.74,1.36,5.78,5.78,0,0,0-.26,1.75,5.67,5.67,0,0,0,.26,1.74,4,4,0,0,0,.74,1.37,3.43,3.43,0,0,0,1.16.91A3.59,3.59,0,0,0,139.3,184.82Z" fill="#e32d27"/><path d="M150.59,172.38a1.76,1.76,0,0,1-1.25-3,1.72,1.72,0,0,1,1.25-.51,1.75,1.75,0,0,1,1.24,3A1.67,1.67,0,0,1,150.59,172.38ZM149.16,187V174H152v13Z" fill="#e32d27"/><path d="M160.14,187.33a9.06,9.06,0,0,1-3.13-.52,6.91,6.91,0,0,1-2.46-1.53l1.3-2a4.94,4.94,0,0,0,.84.67,6.13,6.13,0,0,0,1.08.58,7.1,7.1,0,0,0,1.23.41,5.4,5.4,0,0,0,1.25.15,3.28,3.28,0,0,0,1.95-.48,1.46,1.46,0,0,0,.64-1.25,1,1,0,0,0-.58-1,5.51,5.51,0,0,0-1.45-.54c-.59-.15-1.22-.29-1.91-.44a8.17,8.17,0,0,1-1.9-.64,4.2,4.2,0,0,1-1.46-1.17,3.08,3.08,0,0,1-.58-2,3.49,3.49,0,0,1,.34-1.53,3.56,3.56,0,0,1,1-1.25,4.65,4.65,0,0,1,1.61-.85,7,7,0,0,1,2.2-.32,7.74,7.74,0,0,1,2.93.52,7.15,7.15,0,0,1,2.12,1.29l-1.19,2a5,5,0,0,0-1.61-1.11,5.45,5.45,0,0,0-2.25-.45,3,3,0,0,0-1.77.45,1.4,1.4,0,0,0-.63,1.17.93.93,0,0,0,.58.86,6.34,6.34,0,0,0,1.46.5l1.9.43a7.79,7.79,0,0,1,1.9.68,4.09,4.09,0,0,1,1.46,1.21,3.33,3.33,0,0,1,.58,2.07,3.9,3.9,0,0,1-.35,1.62,3.48,3.48,0,0,1-1,1.29,5.11,5.11,0,0,1-1.7.85A7.9,7.9,0,0,1,160.14,187.33Z" fill="#e32d27"/><path d="M174.35,187.33a7,7,0,0,1-2.72-.51,6.35,6.35,0,0,1-2.12-1.43,6.79,6.79,0,0,1-1.39-2.17,7.42,7.42,0,0,1-.5-2.74,7.33,7.33,0,0,1,.5-2.73,6.74,6.74,0,0,1,1.39-2.16,6.35,6.35,0,0,1,2.12-1.43,7,7,0,0,1,2.72-.52,7.73,7.73,0,0,1,1.74.19,5.83,5.83,0,0,1,1.37.52,5,5,0,0,1,1.07.74,6,6,0,0,1,.81.88l-1.86,1.7a3.47,3.47,0,0,0-3-1.51,3.66,3.66,0,0,0-2.86,1.2,4.49,4.49,0,0,0-1.08,3.12,5.12,5.12,0,0,0,.28,1.74,4,4,0,0,0,.81,1.37,3.83,3.83,0,0,0,1.24.91,4,4,0,0,0,1.61.32,3.5,3.5,0,0,0,3-1.56l1.86,1.75a6.61,6.61,0,0,1-1.89,1.62A6,6,0,0,1,174.35,187.33Z" fill="#e32d27"/><path d="M187.76,187.33a6.76,6.76,0,0,1-2.8-.55,6.23,6.23,0,0,1-3.43-3.66,7.83,7.83,0,0,1,0-5.29,6.25,6.25,0,0,1,3.43-3.65,7.56,7.56,0,0,1,5.61,0,6.28,6.28,0,0,1,2.11,1.48,6.39,6.39,0,0,1,1.32,2.17,7.83,7.83,0,0,1,0,5.29,6.53,6.53,0,0,1-1.32,2.18,6.42,6.42,0,0,1-2.11,1.48A6.81,6.81,0,0,1,187.76,187.33Zm0-2.51a3.45,3.45,0,0,0,1.62-.35,3.51,3.51,0,0,0,1.18-.94,4.25,4.25,0,0,0,.71-1.39,5.43,5.43,0,0,0,.25-1.66,5.27,5.27,0,0,0-.25-1.65,4.3,4.3,0,0,0-.71-1.38,3.51,3.51,0,0,0-1.18-.94,3.85,3.85,0,0,0-3.21,0,3.65,3.65,0,0,0-1.19.94,4.34,4.34,0,0,0-.73,1.38,5.58,5.58,0,0,0-.24,1.65,5.75,5.75,0,0,0,.24,1.66,4.29,4.29,0,0,0,.73,1.39,3.65,3.65,0,0,0,1.19.94A3.44,3.44,0,0,0,187.76,184.82Z" fill="#e32d27"/><path d="M206.15,187v-1.73a6.81,6.81,0,0,1-1.88,1.42,5.62,5.62,0,0,1-2.71.63,4.26,4.26,0,0,1-3.16-1.06,4.19,4.19,0,0,1-1.05-3.07V174h2.83v8.18a2.55,2.55,0,0,0,.72,2.09,3,3,0,0,0,1.93.58,3.76,3.76,0,0,0,2-.52,4.71,4.71,0,0,0,1.36-1.18V174H209v13Z" fill="#e32d27"/><path d="M221.49,187v-8.15a2.59,2.59,0,0,0-.72-2.12,3,3,0,0,0-1.93-.58,3.68,3.68,0,0,0-2,.54,5.33,5.33,0,0,0-1.39,1.18V187h-2.83V174h2.83v1.75a5.86,5.86,0,0,1,.8-.75,5.93,5.93,0,0,1,1.07-.68,6.26,6.26,0,0,1,1.28-.47,5.8,5.8,0,0,1,1.47-.18,4.23,4.23,0,0,1,3.16,1.08,4.29,4.29,0,0,1,1,3.11V187Z" fill="#e32d27"/><path d="M231.94,187.33a3.35,3.35,0,0,1-2.52-.86,3.5,3.5,0,0,1-.83-2.51v-7.53h-2.16V174h2.16V170.4h2.83V174h2.65v2.46h-2.65v6.83a2,2,0,0,0,.31,1.12,1.08,1.08,0,0,0,.93.44,1.86,1.86,0,0,0,.75-.15,1.4,1.4,0,0,0,.5-.33l.67,2.16a3.08,3.08,0,0,1-1,.59A4.77,4.77,0,0,1,231.94,187.33Z" fill="#e32d27"/><path d="M241.09,187.33a9,9,0,0,1-3.13-.52,6.74,6.74,0,0,1-2.46-1.53l1.29-2a5.88,5.88,0,0,0,.84.67,6.93,6.93,0,0,0,1.08.58,7.72,7.72,0,0,0,1.23.41,5.42,5.42,0,0,0,1.26.15,3.24,3.24,0,0,0,1.94-.48,1.47,1.47,0,0,0,.65-1.25,1.05,1.05,0,0,0-.58-1,5.73,5.73,0,0,0-1.46-.54c-.58-.15-1.22-.29-1.9-.44a8.25,8.25,0,0,1-1.91-.64,4.3,4.3,0,0,1-1.46-1.17,3.14,3.14,0,0,1-.58-2,3.64,3.64,0,0,1,.34-1.53,3.59,3.59,0,0,1,1-1.25,4.6,4.6,0,0,1,1.6-.85,7.08,7.08,0,0,1,2.2-.32,7.71,7.71,0,0,1,2.93.52,7,7,0,0,1,2.12,1.29l-1.18,2a5.09,5.09,0,0,0-1.61-1.11,5.53,5.53,0,0,0-2.26-.45,3,3,0,0,0-1.76.45,1.39,1.39,0,0,0-.64,1.17.93.93,0,0,0,.58.86,6.51,6.51,0,0,0,1.46.5l1.9.43a7.87,7.87,0,0,1,1.91.68,4.06,4.06,0,0,1,1.45,1.21,3.33,3.33,0,0,1,.59,2.07,3.76,3.76,0,0,1-.36,1.62,3.48,3.48,0,0,1-1,1.29,4.93,4.93,0,0,1-1.7.85A7.83,7.83,0,0,1,241.09,187.33Z" fill="#e32d27"/><path d="M27.66,216.33a9.59,9.59,0,0,1-3.72-.7A8.84,8.84,0,0,1,21,213.69a8.68,8.68,0,0,1-1.91-2.95,10.69,10.69,0,0,1,0-7.45,8.67,8.67,0,0,1,4.82-4.88,10.07,10.07,0,0,1,7.43,0,8.54,8.54,0,0,1,2.9,1.94,8.87,8.87,0,0,1,1.9,2.94,10.4,10.4,0,0,1,0,7.45,8.81,8.81,0,0,1-1.9,2.95,8.69,8.69,0,0,1-2.9,1.94A9.54,9.54,0,0,1,27.66,216.33Zm0-2.8a5.89,5.89,0,0,0,2.45-.5A5.68,5.68,0,0,0,32,211.66a5.79,5.79,0,0,0,1.21-2.06,8.35,8.35,0,0,0,0-5.17A5.75,5.75,0,0,0,32,202.38,5.54,5.54,0,0,0,30.11,201a6.3,6.3,0,0,0-4.92,0,5.6,5.6,0,0,0-1.88,1.37,5.87,5.87,0,0,0-1.2,2.05,8.17,8.17,0,0,0,0,5.17,5.92,5.92,0,0,0,1.2,2.06A5.74,5.74,0,0,0,25.19,213,5.92,5.92,0,0,0,27.66,213.53Z" fill="#e32d27"/><path d="M45.75,216.33a7,7,0,0,1-2.72-.51,6.35,6.35,0,0,1-2.12-1.43,6.79,6.79,0,0,1-1.39-2.17,7.42,7.42,0,0,1-.5-2.74,7.33,7.33,0,0,1,.5-2.73,6.74,6.74,0,0,1,1.39-2.16A6.35,6.35,0,0,1,43,203.16a7,7,0,0,1,2.72-.52,7.73,7.73,0,0,1,1.74.19,5.83,5.83,0,0,1,1.37.52,5,5,0,0,1,1.07.74,6,6,0,0,1,.81.88l-1.86,1.7a3.47,3.47,0,0,0-3-1.51,3.66,3.66,0,0,0-2.86,1.2,4.49,4.49,0,0,0-1.08,3.12,5.12,5.12,0,0,0,.28,1.74,4,4,0,0,0,.81,1.37,3.83,3.83,0,0,0,1.24.91,4,4,0,0,0,1.61.32,3.5,3.5,0,0,0,3-1.56L50.74,214a6.61,6.61,0,0,1-1.89,1.62A6,6,0,0,1,45.75,216.33Z" fill="#e32d27"/><path d="M57.19,216.33a3.34,3.34,0,0,1-2.51-.86,3.46,3.46,0,0,1-.83-2.51v-7.53H51.69V203h2.16V199.4h2.83V203h2.65v2.46H56.68v6.83a1.9,1.9,0,0,0,.31,1.12,1.08,1.08,0,0,0,.93.44,1.86,1.86,0,0,0,.75-.15,1.4,1.4,0,0,0,.5-.33l.67,2.16a3,3,0,0,1-1,.59A4.69,4.69,0,0,1,57.19,216.33Z" fill="#e32d27"/><path d="M68.34,216V213.5c1.75-1.31,3.24-2.47,4.47-3.46a36.71,36.71,0,0,0,3-2.66,9.88,9.88,0,0,0,1.71-2.16,4,4,0,0,0,.54-1.95,2.47,2.47,0,0,0-.28-1.22,2.76,2.76,0,0,0-.74-.85,3.34,3.34,0,0,0-1.06-.5,4.47,4.47,0,0,0-1.21-.16,6.34,6.34,0,0,0-2.8.58,6.47,6.47,0,0,0-2.06,1.55l-1.84-2a7.47,7.47,0,0,1,3-2.17,9.7,9.7,0,0,1,3.69-.72,8.5,8.5,0,0,1,2.48.36,6.3,6.3,0,0,1,2.08,1.07,5,5,0,0,1,2,4.1,5.73,5.73,0,0,1-.56,2.45,10.76,10.76,0,0,1-1.58,2.4,21.26,21.26,0,0,1-2.47,2.46c-1,.84-2,1.72-3.25,2.63h8V216Z" fill="#e32d27"/><path d="M92.4,216v-4.08H83.81v-2.54L91.21,198h4.35v11.12H98v2.81h-2.4V216Zm0-15.17-5.48,8.28H92.4Z" fill="#e32d27"/><path d="M99.53,210.69v-2.43H106v2.43Z" fill="#e32d27"/><path d="M108.17,216V213.5c1.74-1.31,3.23-2.47,4.47-3.46a36.39,36.39,0,0,0,3-2.66,10,10,0,0,0,1.72-2.16,4,4,0,0,0,.54-1.95,2.47,2.47,0,0,0-.29-1.22,2.63,2.63,0,0,0-.74-.85,3.4,3.4,0,0,0-1-.5,4.54,4.54,0,0,0-1.22-.16,6.29,6.29,0,0,0-2.79.58,6.62,6.62,0,0,0-2.07,1.55l-1.83-2a7.4,7.4,0,0,1,3-2.17,9.69,9.69,0,0,1,3.68-.72,8.52,8.52,0,0,1,2.49.36,6.5,6.5,0,0,1,2.08,1.07,5.23,5.23,0,0,1,1.41,1.72,5.06,5.06,0,0,1,.53,2.38,5.72,5.72,0,0,1-.55,2.45,11.12,11.12,0,0,1-1.58,2.4,23,23,0,0,1-2.47,2.46c-1,.84-2,1.72-3.26,2.63h8V216Z" fill="#e32d27"/><path d="M131.09,216.33a9.33,9.33,0,0,1-3.94-.74,7.72,7.72,0,0,1-2.73-2l1.81-2.18a6,6,0,0,0,4.83,2.16,3.84,3.84,0,0,0,2.72-.92,3,3,0,0,0,1-2.27,2.93,2.93,0,0,0-1-2.32,3.82,3.82,0,0,0-2.64-.87,6,6,0,0,0-2.11.37,5.5,5.5,0,0,0-1.84,1.17L125,208V198h11.8v2.81h-8.64V206a6,6,0,0,1,1.73-1.08,5.73,5.73,0,0,1,2.35-.46,6.22,6.22,0,0,1,2.18.39,5.45,5.45,0,0,1,1.85,1.13,5.37,5.37,0,0,1,1.27,1.82,6.48,6.48,0,0,1,0,5,5.69,5.69,0,0,1-1.41,1.91,6.44,6.44,0,0,1-2.18,1.23A8.49,8.49,0,0,1,131.09,216.33Z" fill="#e32d27"/></g></g></svg>