<svg xmlns="http://www.w3.org/2000/svg" xmlns:xlink="http://www.w3.org/1999/xlink" viewBox="0 0 729 91"><defs><style>.cls-1{fill:none;}.cls-2{stroke:#231f20;stroke-miterlimit:10;stroke-width:1px;}.cls-3{clip-path:url(#clip-path);}.cls-4{fill:#fff;}.cls-5{fill:#e52823;}</style><clipPath id="clip-path"><rect class="cls-1" x="602.66" y="52.74" width="99.76" height="25.27"/></clipPath></defs><g id="Layer_2" data-name="Layer 2"><g id="CONTENT"><rect class="cls-2" x="0.5" y="0.5" width="728" height="90"/><g id="white_logo" data-name="white logo"><g class="cls-3"><g class="cls-3"><path class="cls-4" d="M614,56.74c15-4.59,22.61,6.91,22.61,6.91S631.79,47.59,614,56.74"/><path class="cls-4" d="M643,57.33c0-.06,0-.48,0-.54a11.22,11.22,0,0,0-5.92,8.62s2-4.76,6.85-6.2a2.84,2.84,0,0,1-.93-1.88"/><path class="cls-4" d="M623.83,64s0,2.27,0,3.41c-.58,0-3.07-.15-4.17-.19,0,.61,0,1.24,0,1.85,1.31,0,2.68.19,4,.17,0,1.1,0,2,0,3.15-1.31,0-2.62-.1-3.93-.13v2c1.41,0,2.83.15,4.24.13,0,0,0,3.35,0,3.35-2.8,0-6.11-.22-9.25-.48l.22-14c1.32.16,5.42.59,9,.7"/><path class="cls-4" d="M625,64.07l0,3.65c1.31.06,2.5.07,2.5.07l0,10.12a32.86,32.86,0,0,0,5-.07l-.06-10s2.23-.1,2.57-.13c0-1.34,0-2.39,0-3.72a89.2,89.2,0,0,1-10,.11"/><path class="cls-4" d="M692.42,61.85v4.23c.85,0,1.82.22,2.67.29,0,3.53-.08,6.2-.09,9.73,2.38.29,4.06.56,4.72.68,0-3.53.13-6.31.14-9.84,0,0,2.51.39,2.56.43V63a75.49,75.49,0,0,0-10-1.17"/><path class="cls-4" d="M607.58,68.66l-.45,0,0-2.87.42,0A1.46,1.46,0,0,1,609,67.32c0,1.18-.74,1.41-1.46,1.34m1.1-6.76-6-1.08,0,14.65c1.54.3,2.94.56,4.43.72l0-4.23,1.62.18c2.59.24,5.2-.74,5.24-5,0-3.76-2.47-4.85-5.25-5.26"/><path class="cls-4" d="M658.58,75.51c.67-1.74,1.34-3.37,2-5.12.11,1.67.17,3.18.28,4.85,1.67-.18,3-.28,4.69-.38-.43-4.45-.81-9.23-1.24-13.67-1.44.12-2.87.25-4.31.39-.8,2.1-1.61,4.65-2.42,6.75-.77-1.94-1.55-4.22-2.33-6.17-1.45.21-4,.66-4.31.67l-1.56,14.11c1.15-.2,3.94-.64,4.79-.76.12-1.69.25-3.5.38-5.19q1,2.42,1.94,4.85l2.08-.33"/><path class="cls-4" d="M685.12,67.84l-.44,0c0-.94,0-1.89,0-2.83l.42,0a1.41,1.41,0,0,1,1.46,1.49,1.21,1.21,0,0,1-1.48,1.34m4.16,3c1.27-.57,2.2-1.81,2.23-4.26,0-3.71-2.57-5.29-5.22-5.49-2-.16-4-.26-6-.32-.07,4.71-.09,9-.16,13.72,1.5,0,3.15.16,4.46.26,0-1.32,0-2.3,0-3.63l2.42,3.93c1.84.17,3.73.4,5.58.67-1.16-1.72-2.2-3.19-3.35-4.88"/><path class="cls-4" d="M671.76,69.94c.31-1.17.63-2.4.94-3.56.36,1.17.71,2.34,1.07,3.51a18.86,18.86,0,0,1-2,0M675,60.68c-1.79,0-3.24,0-4.77.1-1.22,4.56-2.67,9.44-3.89,14,1.36,0,2.74-.11,4.11-.12.12-.48.26-1,.39-1.52l2.08,0s1.84-.06,1.84-.06c.05.18.22.66.46,1.46,1.36,0,2.72,0,4.08,0-1.47-4.83-3-9.48-4.3-13.86"/><path class="cls-4" d="M636.57,76.61A12.29,12.29,0,0,0,642.1,78c3.13,0,6.4-1.87,6.47-5.38,0-2.5-1.53-3.69-3.75-4.18l-1.18-.27c-.41-.09-1.06-.17-1-.72s.69-.78,1.15-.78a8.53,8.53,0,0,1,3.2.67c.44-1.17.88-2.34,1.33-3.52a10.57,10.57,0,0,0-4.56-1.09c-3.15,0-6.32,1.91-6.39,5.4,0,2.3,1.66,3.56,3.71,3.94l1.05.19c.48.1,1.17.16,1.15.82s-.83.74-1.34.74a6.25,6.25,0,0,1-3.6-1.18c-.54,1.22-1.18,2.74-1.72,4"/><path class="cls-4" d="M647.89,52.74a3.53,3.53,0,1,0,3.48,3.57,3.53,3.53,0,0,0-3.48-3.57m1.27,1.3a4.24,4.24,0,0,0-3.78,2.21s0,0,0,.06a2.53,2.53,0,0,1,.09-1,2.4,2.4,0,0,1,2.93-1.71,2.29,2.29,0,0,1,.83.44l-.06,0"/></g></g></g><path class="cls-4" d="M13.44,17.58H24a6.49,6.49,0,0,1,3.13.7,4.86,4.86,0,0,1,2,1.86,5,5,0,0,1,.66,2.54,4.72,4.72,0,0,1-1,3.06,4.15,4.15,0,0,1-2.46,1.53A4.18,4.18,0,0,1,29,28.92a5.14,5.14,0,0,1,1.11,3.27,5.25,5.25,0,0,1-1.53,3.87,5.8,5.8,0,0,1-4.29,1.53H13.44Zm9.6,8A2.35,2.35,0,0,0,24.75,25a2.13,2.13,0,0,0,.63-1.6,2.1,2.1,0,0,0-.65-1.56A2.31,2.31,0,0,0,23,21.21H17.7v4.41ZM23.19,34a2.66,2.66,0,0,0,1.89-.65,2.43,2.43,0,0,0,0-3.39,2.58,2.58,0,0,0-1.89-.67H17.7V34Z"/><path class="cls-4" d="M34.27,37a4,4,0,0,1-1-3V17.58h3.81V33a1.77,1.77,0,0,0,.36,1.14,1.15,1.15,0,0,0,1,.46,2.45,2.45,0,0,0,.78-.12,1.11,1.11,0,0,0,.51-.3l.81,2.88a4.68,4.68,0,0,1-3.15.93A4.22,4.22,0,0,1,34.27,37Z"/><path class="cls-4" d="M52.14,35.73a5.87,5.87,0,0,1-2,1.66,5.39,5.39,0,0,1-2.47.59,6.2,6.2,0,0,1-3.3-.91,6.06,6.06,0,0,1-2.3-2.61,9.36,9.36,0,0,1-.82-4.09,9.28,9.28,0,0,1,.82-4,6.28,6.28,0,0,1,2.28-2.66,6,6,0,0,1,3.32-.93,5.55,5.55,0,0,1,2.46.57,5.68,5.68,0,0,1,2,1.65V23.1H56V37.59H52.14Zm0-7.92a3.56,3.56,0,0,0-1.41-1.19,4.18,4.18,0,0,0-1.89-.46,3.35,3.35,0,0,0-2.64,1.15,4.49,4.49,0,0,0-1,3.06,4.47,4.47,0,0,0,1,3,3.35,3.35,0,0,0,2.64,1.18,4.19,4.19,0,0,0,1.89-.47,3.56,3.56,0,0,0,1.41-1.19Z"/><path class="cls-4" d="M59.82,26.42a7.11,7.11,0,0,1,2.73-2.71,8,8,0,0,1,4-1,7.58,7.58,0,0,1,3.48.73,6.09,6.09,0,0,1,2.25,1.88l-2.49,2.34a3.46,3.46,0,0,0-3.06-1.56,3.74,3.74,0,0,0-2.84,1.15,4.29,4.29,0,0,0-1.09,3.06,4.32,4.32,0,0,0,1.09,3.07,3.83,3.83,0,0,0,5.9-.38l2.49,2.31A6.26,6.26,0,0,1,70,37.23a7.53,7.53,0,0,1-3.49.75,8,8,0,0,1-4-1,7,7,0,0,1-2.73-2.71,8.32,8.32,0,0,1,0-7.87Z"/><path class="cls-4" d="M80.28,32l-1.74,1.86v3.72H74.73v-20h3.81v12L84,23.1h4.68L83,29.67l5.91,7.92H84.12Z"/><path class="cls-4" d="M98.55,17.58h14.16v3.66h-9.9v4.35h9.69v3.66h-9.69v8.34H98.55Z"/><path class="cls-4" d="M115.59,23.1h3.81v2a6.41,6.41,0,0,1,2-1.67,5.4,5.4,0,0,1,2.58-.67v3.72a4.83,4.83,0,0,0-1-.12,5,5,0,0,0-2,.48A3.41,3.41,0,0,0,119.4,28v9.6h-3.81Z"/><path class="cls-4" d="M126.67,20.29a2.18,2.18,0,0,1-.67-1.6,2.31,2.31,0,1,1,.67,1.6Zm-.28,2.81h3.81V37.59h-3.81Z"/><path class="cls-4" d="M143.94,35.73a5.87,5.87,0,0,1-2,1.66,5.39,5.39,0,0,1-2.47.59,6.2,6.2,0,0,1-3.3-.91,6.06,6.06,0,0,1-2.3-2.61,9.36,9.36,0,0,1-.82-4.09,9.28,9.28,0,0,1,.82-4,6.28,6.28,0,0,1,2.28-2.66,6,6,0,0,1,3.32-.93,5.55,5.55,0,0,1,2.46.57,5.68,5.68,0,0,1,2,1.65V17.58h3.84v20h-3.84Zm0-7.95a3.56,3.56,0,0,0-1.41-1.19,4.18,4.18,0,0,0-1.89-.46A3.34,3.34,0,0,0,138,27.3a4.52,4.52,0,0,0-1,3.07,4.47,4.47,0,0,0,1,3,3.35,3.35,0,0,0,2.64,1.18,4.19,4.19,0,0,0,1.89-.47,3.56,3.56,0,0,0,1.41-1.19Z"/><path class="cls-4" d="M161.52,35.73a5.87,5.87,0,0,1-2,1.66,5.39,5.39,0,0,1-2.47.59,6.2,6.2,0,0,1-3.3-.91,6.06,6.06,0,0,1-2.3-2.61,9.36,9.36,0,0,1-.82-4.09,9.28,9.28,0,0,1,.82-4,6.28,6.28,0,0,1,2.28-2.66,6,6,0,0,1,3.32-.93,5.55,5.55,0,0,1,2.46.57,5.68,5.68,0,0,1,2,1.65V23.1h3.84V37.59h-3.84Zm0-7.92a3.56,3.56,0,0,0-1.41-1.19,4.18,4.18,0,0,0-1.89-.46,3.35,3.35,0,0,0-2.64,1.15,4.49,4.49,0,0,0-1,3.06,4.47,4.47,0,0,0,1,3,3.35,3.35,0,0,0,2.64,1.18,4.19,4.19,0,0,0,1.89-.47,3.56,3.56,0,0,0,1.41-1.19Z"/><path class="cls-4" d="M170.67,38.55a4.59,4.59,0,0,0,1.92,1.35,6.71,6.71,0,0,0,2.43.45,4,4,0,0,0,2.88-1,3.62,3.62,0,0,0,1-2.76v-1.5a6.89,6.89,0,0,1-2.15,1.56,6.69,6.69,0,0,1-3,.63,4.69,4.69,0,0,1-3.51-1.2,4.61,4.61,0,0,1-1.17-3.36V23.1H173v8.16a2.63,2.63,0,0,0,.69,2.05,2.88,2.88,0,0,0,2,.62,3.85,3.85,0,0,0,1.89-.48,4.55,4.55,0,0,0,1.41-1.17V23.1h3.81V36.45a6.54,6.54,0,0,1-2.09,5.17A8.17,8.17,0,0,1,175,43.47,8.86,8.86,0,0,1,169,41.31Z"/><path class="cls-4" d="M204.15,35.73a5.87,5.87,0,0,1-2,1.66,5.39,5.39,0,0,1-2.47.59,6.2,6.2,0,0,1-3.3-.91,6.06,6.06,0,0,1-2.3-2.61,9.36,9.36,0,0,1-.82-4.09,9.28,9.28,0,0,1,.82-4,6.28,6.28,0,0,1,2.28-2.66,6,6,0,0,1,3.32-.93,5.58,5.58,0,0,1,2.46.57,5.68,5.68,0,0,1,2,1.65V17.58H208v20h-3.84Zm0-7.95a3.56,3.56,0,0,0-1.41-1.19,4.18,4.18,0,0,0-1.89-.46,3.34,3.34,0,0,0-2.64,1.17,4.52,4.52,0,0,0-1,3.07,4.47,4.47,0,0,0,1,3,3.35,3.35,0,0,0,2.64,1.18,4.19,4.19,0,0,0,1.89-.47,3.56,3.56,0,0,0,1.41-1.19Z"/><path class="cls-4" d="M211.8,26.51a7.27,7.27,0,0,1,2.67-2.75,7.41,7.41,0,0,1,3.87-1,7.12,7.12,0,0,1,3.78,1,6.8,6.8,0,0,1,2.56,2.82,9.13,9.13,0,0,1,.92,4.16v.84H214.83A3.75,3.75,0,0,0,216.12,34,4.25,4.25,0,0,0,219,35a6.09,6.09,0,0,0,2.11-.39,5,5,0,0,0,1.76-1.05L224.55,36a7.19,7.19,0,0,1-2.64,1.48,10.55,10.55,0,0,1-3.33.53,8.28,8.28,0,0,1-4-.95,6.9,6.9,0,0,1-2.78-2.68,8.33,8.33,0,0,1,0-7.84Zm4,.23a3.92,3.92,0,0,0-1,2.24h7.14a3.67,3.67,0,0,0-1-2.22,3.29,3.29,0,0,0-2.59-1A3.26,3.26,0,0,0,215.82,26.74Z"/><path class="cls-4" d="M238.32,35.73a5.87,5.87,0,0,1-2,1.66,5.39,5.39,0,0,1-2.47.59,6.2,6.2,0,0,1-3.3-.91,6.06,6.06,0,0,1-2.3-2.61,9.36,9.36,0,0,1-.82-4.09,9.28,9.28,0,0,1,.82-4,6.28,6.28,0,0,1,2.28-2.66,6,6,0,0,1,3.32-.93,5.58,5.58,0,0,1,2.46.57,5.68,5.68,0,0,1,2,1.65V23.1h3.84V37.59h-3.84Zm0-7.92a3.56,3.56,0,0,0-1.41-1.19,4.18,4.18,0,0,0-1.89-.46,3.35,3.35,0,0,0-2.64,1.15,4.49,4.49,0,0,0-1,3.06,4.47,4.47,0,0,0,1,3A3.35,3.35,0,0,0,235,34.59a4.19,4.19,0,0,0,1.89-.47,3.56,3.56,0,0,0,1.41-1.19Z"/><path class="cls-4" d="M247,37a4,4,0,0,1-1-3V17.58h3.81V33a1.77,1.77,0,0,0,.36,1.14,1.15,1.15,0,0,0,1,.46,2.45,2.45,0,0,0,.78-.12,1.11,1.11,0,0,0,.51-.3l.81,2.88A4.68,4.68,0,0,1,250,38,4.22,4.22,0,0,1,247,37Z"/><path class="cls-4" d="M255.27,33.06a7.59,7.59,0,0,0,2.27,1.38,7.11,7.11,0,0,0,2.74.6,3.4,3.4,0,0,0,1.81-.4,1.22,1.22,0,0,0,.61-1.09,1.14,1.14,0,0,0-.71-1.06,9.47,9.47,0,0,0-2.2-.66,21.46,21.46,0,0,1-2.88-.72,4.71,4.71,0,0,1-2-1.31,3.5,3.5,0,0,1-.84-2.5,4,4,0,0,1,.7-2.28,4.75,4.75,0,0,1,2.06-1.67,7.57,7.57,0,0,1,3.17-.61,9.15,9.15,0,0,1,5.86,2l-1.53,2.61a5.39,5.39,0,0,0-1.85-1.2,6.32,6.32,0,0,0-2.44-.48,3.31,3.31,0,0,0-1.67.36,1.11,1.11,0,0,0-.62,1,1,1,0,0,0,.68.94,10.47,10.47,0,0,0,2.08.62,19.24,19.24,0,0,1,2.91.75,4.94,4.94,0,0,1,2,1.38,3.72,3.72,0,0,1,.88,2.62,4.12,4.12,0,0,1-.74,2.39,4.74,4.74,0,0,1-2.16,1.67,8.63,8.63,0,0,1-3.37.61,10.91,10.91,0,0,1-3.62-.6,8,8,0,0,1-2.86-1.65Z"/><path class="cls-4" d="M13.74,63.05A7.26,7.26,0,0,0,16,64.43a7,7,0,0,0,2.73.61,3.4,3.4,0,0,0,1.81-.4,1.23,1.23,0,0,0,.62-1.09,1.15,1.15,0,0,0-.72-1.06,9.36,9.36,0,0,0-2.19-.66,19.9,19.9,0,0,1-2.88-.73,4.63,4.63,0,0,1-2-1.3,3.55,3.55,0,0,1-.84-2.5,4.06,4.06,0,0,1,.7-2.29,4.86,4.86,0,0,1,2.06-1.66,7.61,7.61,0,0,1,3.18-.61,9.06,9.06,0,0,1,5.85,2l-1.53,2.61A5.39,5.39,0,0,0,21,56.13a6.29,6.29,0,0,0-2.44-.49,3.21,3.21,0,0,0-1.67.37,1.1,1.1,0,0,0-.61,1,1,1,0,0,0,.67.94,9.87,9.87,0,0,0,2.09.61,20.74,20.74,0,0,1,2.91.76,5,5,0,0,1,2,1.38,3.77,3.77,0,0,1,.87,2.62,4.12,4.12,0,0,1-.74,2.39,4.74,4.74,0,0,1-2.16,1.67,8.64,8.64,0,0,1-3.37.6A11.21,11.21,0,0,1,15,67.38a7.93,7.93,0,0,1-2.86-1.66Z"/><path class="cls-4" d="M29.46,67A3.91,3.91,0,0,1,28.41,64V56.43H26V53.1h2.4v-4h3.84v4h2.94v3.33H32.25V63a1.77,1.77,0,0,0,.36,1.14,1.18,1.18,0,0,0,1,.46,2.45,2.45,0,0,0,.78-.12,1.37,1.37,0,0,0,.54-.3l.81,2.88a4.68,4.68,0,0,1-3.18.92A4.22,4.22,0,0,1,29.46,67Z"/><path class="cls-4" d="M47.76,65.72a5.79,5.79,0,0,1-2,1.67,5.38,5.38,0,0,1-2.47.58,6.19,6.19,0,0,1-3.3-.9,6.06,6.06,0,0,1-2.3-2.61,10.49,10.49,0,0,1,0-8.13A6.28,6.28,0,0,1,40,53.67a6,6,0,0,1,3.32-.93,5.68,5.68,0,0,1,2.46.56,5.81,5.81,0,0,1,2,1.66V53.1H51.6V67.59H47.76Zm0-7.91a3.56,3.56,0,0,0-1.41-1.19,4.18,4.18,0,0,0-1.89-.46,3.35,3.35,0,0,0-2.64,1.15,5.07,5.07,0,0,0,0,6.1,3.35,3.35,0,0,0,2.64,1.18,4.19,4.19,0,0,0,1.89-.47,3.56,3.56,0,0,0,1.41-1.19Z"/><path class="cls-4" d="M55.38,53.1h3.81v2a6.41,6.41,0,0,1,2-1.67,5.4,5.4,0,0,1,2.58-.67v3.72a4.83,4.83,0,0,0-1.05-.12,5,5,0,0,0-2,.48A3.41,3.41,0,0,0,59.19,58v9.6H55.38Z"/><path class="cls-4" d="M68,67a3.91,3.91,0,0,1-1-2.94V56.43h-2.4V53.1h2.4v-4h3.84v4h2.94v3.33H70.77V63a1.77,1.77,0,0,0,.36,1.14,1.18,1.18,0,0,0,1,.46,2.45,2.45,0,0,0,.78-.12,1.37,1.37,0,0,0,.54-.3l.81,2.88A4.68,4.68,0,0,1,71,68,4.22,4.22,0,0,1,68,67Z"/><path class="cls-4" d="M85.8,67a3.91,3.91,0,0,1-1-2.94V56.43h-2.4V53.1h2.4v-4h3.84v4h2.94v3.33H88.59V63A1.77,1.77,0,0,0,89,64.13a1.18,1.18,0,0,0,1,.46,2.45,2.45,0,0,0,.78-.12,1.37,1.37,0,0,0,.54-.3L92,67.05a4.68,4.68,0,0,1-3.18.92A4.22,4.22,0,0,1,85.8,67Z"/><path class="cls-4" d="M104,58.76a2.6,2.6,0,0,0-.69-2,3,3,0,0,0-2-.59,3.75,3.75,0,0,0-1.89.49A4.42,4.42,0,0,0,98,57.84v9.75H94.14v-20H98V55a6.56,6.56,0,0,1,2.11-1.6,6.8,6.8,0,0,1,3-.65,4.77,4.77,0,0,1,3.52,1.19,4.6,4.6,0,0,1,1.19,3.37V67.59H104Z"/><path class="cls-4" d="M111.82,50.29a2.26,2.26,0,1,1,1.61.68A2.2,2.2,0,0,1,111.82,50.29Zm-.29,2.81h3.82V67.59h-3.82Z"/><path class="cls-4" d="M119.52,63.05a7.21,7.21,0,0,0,2.27,1.38,7,7,0,0,0,2.74.61,3.4,3.4,0,0,0,1.81-.4,1.22,1.22,0,0,0,.61-1.09,1.14,1.14,0,0,0-.71-1.06,9.47,9.47,0,0,0-2.2-.66,19.9,19.9,0,0,1-2.88-.73,4.6,4.6,0,0,1-2-1.3,3.5,3.5,0,0,1-.84-2.5,4.06,4.06,0,0,1,.7-2.29,4.8,4.8,0,0,1,2.06-1.66,7.57,7.57,0,0,1,3.17-.61,9.09,9.09,0,0,1,5.86,2l-1.53,2.61a5.39,5.39,0,0,0-1.85-1.2,6.33,6.33,0,0,0-2.44-.49,3.21,3.21,0,0,0-1.67.37,1.11,1.11,0,0,0-.62,1,1,1,0,0,0,.68.94,9.93,9.93,0,0,0,2.08.61,20.38,20.38,0,0,1,2.91.76,4.94,4.94,0,0,1,2,1.38,3.72,3.72,0,0,1,.88,2.62,4.12,4.12,0,0,1-.74,2.39,4.74,4.74,0,0,1-2.16,1.67,8.64,8.64,0,0,1-3.37.6,11.17,11.17,0,0,1-3.62-.59,7.85,7.85,0,0,1-2.86-1.66Z"/><path class="cls-4" d="M150.77,57.72l-3.06,9.87h-4.08L139.22,53.1h4l2.7,9.75,3.18-9.75h3.39l3.18,9.75,2.7-9.75h4l-4.41,14.49h-4Z"/><path class="cls-4" d="M164.21,56.51a7.27,7.27,0,0,1,2.67-2.75,7.43,7.43,0,0,1,3.87-1,7.12,7.12,0,0,1,3.78,1,6.82,6.82,0,0,1,2.57,2.82,9.13,9.13,0,0,1,.91,4.16v.83H167.24A3.79,3.79,0,0,0,168.53,64a4.25,4.25,0,0,0,2.88,1,5.9,5.9,0,0,0,2.12-.4,4.79,4.79,0,0,0,1.75-1L177,66a7.22,7.22,0,0,1-2.63,1.48A10.66,10.66,0,0,1,171,68a8.27,8.27,0,0,1-4-.94,6.87,6.87,0,0,1-2.77-2.68,7.83,7.83,0,0,1-1-4A7.75,7.75,0,0,1,164.21,56.51Zm4,.23A3.88,3.88,0,0,0,167.18,59h7.15a3.73,3.73,0,0,0-1-2.21,3.32,3.32,0,0,0-2.6-1A3.22,3.22,0,0,0,168.24,56.74Z"/><path class="cls-4" d="M180.8,56.51a7.27,7.27,0,0,1,2.67-2.75,7.43,7.43,0,0,1,3.87-1,7.12,7.12,0,0,1,3.78,1,6.82,6.82,0,0,1,2.57,2.82,9.13,9.13,0,0,1,.91,4.16v.83H183.83A3.75,3.75,0,0,0,185.12,64,4.25,4.25,0,0,0,188,65a5.94,5.94,0,0,0,2.12-.4,4.79,4.79,0,0,0,1.75-1L193.55,66a7.19,7.19,0,0,1-2.64,1.48,10.55,10.55,0,0,1-3.33.52,8.27,8.27,0,0,1-4-.94,6.87,6.87,0,0,1-2.77-2.68,7.83,7.83,0,0,1-1-4A7.75,7.75,0,0,1,180.8,56.51Zm4,.23A3.88,3.88,0,0,0,183.77,59h7.14a3.66,3.66,0,0,0-1-2.21,3.32,3.32,0,0,0-2.6-1A3.22,3.22,0,0,0,184.83,56.74Z"/><path class="cls-4" d="M202.91,62l-1.74,1.86v3.72h-3.81v-20h3.81v12l5.49-6.45h4.68l-5.73,6.57,5.91,7.92h-4.77Z"/><path class="cls-4" d="M212.81,56.51a7.27,7.27,0,0,1,2.67-2.75,7.41,7.41,0,0,1,3.87-1,7.12,7.12,0,0,1,3.78,1,6.82,6.82,0,0,1,2.57,2.82,9.13,9.13,0,0,1,.91,4.16v.83H215.84A3.75,3.75,0,0,0,217.13,64,4.25,4.25,0,0,0,220,65a5.94,5.94,0,0,0,2.12-.4,4.79,4.79,0,0,0,1.75-1L225.56,66a7.19,7.19,0,0,1-2.64,1.48,10.55,10.55,0,0,1-3.33.52,8.27,8.27,0,0,1-4-.94,6.87,6.87,0,0,1-2.77-2.68,7.83,7.83,0,0,1-1-4A7.75,7.75,0,0,1,212.81,56.51Zm4,.23A3.93,3.93,0,0,0,215.78,59h7.14a3.66,3.66,0,0,0-1-2.21,3.32,3.32,0,0,0-2.6-1A3.26,3.26,0,0,0,216.83,56.74Z"/><path class="cls-4" d="M239.15,58.83a2.69,2.69,0,0,0-.69-2.07,2.84,2.84,0,0,0-2-.63,3.71,3.71,0,0,0-1.9.49,4.49,4.49,0,0,0-1.4,1.22v9.75h-3.81V53.1h3.81V55a6.57,6.57,0,0,1,5.07-2.25A4.21,4.21,0,0,1,243,57.35V67.59h-3.81Z"/><path class="cls-4" d="M256.7,65.72a5.76,5.76,0,0,1-2,1.67,5.42,5.42,0,0,1-2.48.58,6.19,6.19,0,0,1-3.3-.9,6,6,0,0,1-2.29-2.61,10.37,10.37,0,0,1,0-8.13,6.28,6.28,0,0,1,2.28-2.66,6,6,0,0,1,3.31-.93,5.68,5.68,0,0,1,2.46.56,5.81,5.81,0,0,1,2,1.66V47.58h3.84v20H256.7Zm0-7.94a3.56,3.56,0,0,0-1.41-1.19,4.18,4.18,0,0,0-1.89-.46,3.34,3.34,0,0,0-2.64,1.17,5.08,5.08,0,0,0,0,6.11,3.35,3.35,0,0,0,2.64,1.18,4.19,4.19,0,0,0,1.89-.47,3.56,3.56,0,0,0,1.41-1.19Z"/><path class="cls-4" d="M264.58,63.78a2.29,2.29,0,0,1,1.69-.73,2.48,2.48,0,0,1,2.43,2.44,2.32,2.32,0,0,1-.72,1.68,2.38,2.38,0,0,1-1.71.72,2.31,2.31,0,0,1-1.69-.72,2.38,2.38,0,0,1,0-3.39ZM264,47.58h4.59l-.6,13.5h-3.36Z"/><path class="cls-5" d="M299.64,29.67a8.18,8.18,0,0,1-3.28-.6,7.26,7.26,0,0,1-2.3-1.57l1.35-1.87a6.48,6.48,0,0,0,1.8,1.33,5.3,5.3,0,0,0,2.53.58,4.24,4.24,0,0,0,1.27-.17,2.36,2.36,0,0,0,.84-.43,1.76,1.76,0,0,0,.47-.6,1.72,1.72,0,0,0,.15-.69,1.22,1.22,0,0,0-.58-1.1,5.53,5.53,0,0,0-1.48-.64c-.59-.18-1.23-.35-1.92-.52a9.29,9.29,0,0,1-1.92-.68,4,4,0,0,1-1.47-1.18,3.13,3.13,0,0,1-.59-2,3.57,3.57,0,0,1,.36-1.59,4,4,0,0,1,1-1.27,4.63,4.63,0,0,1,1.57-.85,6.3,6.3,0,0,1,2.05-.31,7.91,7.91,0,0,1,2.88.5,6.72,6.72,0,0,1,2.23,1.43l-1.36,1.79A4.92,4.92,0,0,0,301.4,18a6,6,0,0,0-2.13-.38,2.69,2.69,0,0,0-1.67.47,1.46,1.46,0,0,0-.63,1.23,1.09,1.09,0,0,0,.59,1,5.55,5.55,0,0,0,1.48.6l1.92.5a8.56,8.56,0,0,1,1.91.72,4.34,4.34,0,0,1,1.48,1.23,3.29,3.29,0,0,1,.59,2,4.42,4.42,0,0,1-.31,1.63,3.56,3.56,0,0,1-1,1.36,4.52,4.52,0,0,1-1.65.92A7.34,7.34,0,0,1,299.64,29.67Z"/><path class="cls-5" d="M313.78,29.43V23.19a2,2,0,0,0-.53-1.59,2.3,2.3,0,0,0-1.46-.42,2.78,2.78,0,0,0-1.51.41,3.55,3.55,0,0,0-1,.9v6.94h-2.16V15.74h2.16v5.11a4.17,4.17,0,0,1,.6-.58,5,5,0,0,1,.8-.51,4.86,4.86,0,0,1,1-.36,4.39,4.39,0,0,1,1.11-.13,3.26,3.26,0,0,1,2.41.8,3.17,3.17,0,0,1,.8,2.34v7Z"/><path class="cls-5" d="M323.22,29.67a5.19,5.19,0,0,1-2.13-.42,4.82,4.82,0,0,1-2.61-2.78,5.95,5.95,0,0,1,0-4,4.8,4.8,0,0,1,1-1.65,4.49,4.49,0,0,1,1.6-1.12,5.74,5.74,0,0,1,4.26,0A4.62,4.62,0,0,1,327,20.8a4.93,4.93,0,0,1,1,1.65,5.95,5.95,0,0,1,0,4,4.74,4.74,0,0,1-2.61,2.78A5.19,5.19,0,0,1,323.22,29.67Zm0-1.91a2.79,2.79,0,0,0,1.23-.26,2.62,2.62,0,0,0,.89-.72,3.33,3.33,0,0,0,.55-1.06,4.36,4.36,0,0,0,.18-1.26,4.24,4.24,0,0,0-.18-1.25,3.28,3.28,0,0,0-.55-1.05,2.62,2.62,0,0,0-.89-.72,2.73,2.73,0,0,0-3.34.72,3.11,3.11,0,0,0-.56,1.05,4.24,4.24,0,0,0-.18,1.25,4.36,4.36,0,0,0,.18,1.26,3.16,3.16,0,0,0,.56,1.06,2.66,2.66,0,0,0,.9.72A2.79,2.79,0,0,0,323.22,27.76Z"/><path class="cls-5" d="M335.84,29.67a3.74,3.74,0,0,1-1.75-.42,4.39,4.39,0,0,1-1.43-1.2V33.2h-2.15V19.51h2.15v1.36A4.17,4.17,0,0,1,334,19.7a3.81,3.81,0,0,1,1.81-.43,4.3,4.3,0,0,1,1.77.35,3.91,3.91,0,0,1,1.38,1,4.86,4.86,0,0,1,.91,1.63,6.83,6.83,0,0,1,.33,2.2,6.72,6.72,0,0,1-.33,2.19,4.81,4.81,0,0,1-.91,1.64,4.07,4.07,0,0,1-1.38,1A4.31,4.31,0,0,1,335.84,29.67Zm-.64-1.91a2.54,2.54,0,0,0,2.06-.92,3.67,3.67,0,0,0,.76-2.38,3.62,3.62,0,0,0-.76-2.37,2.53,2.53,0,0,0-2.06-.91,3,3,0,0,0-1.46.38,2.85,2.85,0,0,0-1.08.93v3.92a2.54,2.54,0,0,0,.46.53,3,3,0,0,0,.62.43,2.86,2.86,0,0,0,.72.29A2.74,2.74,0,0,0,335.2,27.76Z"/><path class="cls-5" d="M347.68,29.43V15.74h2.16v5.15a3.81,3.81,0,0,1,1.42-1.21,3.86,3.86,0,0,1,1.76-.41,4.31,4.31,0,0,1,1.77.36,4,4,0,0,1,1.4,1,4.91,4.91,0,0,1,.91,1.64,7.33,7.33,0,0,1,0,4.35,4.88,4.88,0,0,1-.92,1.65,3.93,3.93,0,0,1-1.41,1,4.41,4.41,0,0,1-1.75.35,3.76,3.76,0,0,1-1.79-.43,4.24,4.24,0,0,1-1.39-1.17v1.36Zm2.16-3a2.81,2.81,0,0,0,1.07.93,3.06,3.06,0,0,0,1.49.38,2.5,2.5,0,0,0,2-.92,3.66,3.66,0,0,0,.75-2.38,4.25,4.25,0,0,0-.19-1.32,2.91,2.91,0,0,0-.57-1,2.55,2.55,0,0,0-2-.92,3.07,3.07,0,0,0-1.49.39,2.92,2.92,0,0,0-1.07.94Z"/><path class="cls-5" d="M360.69,18.3A1.33,1.33,0,0,1,359.36,17a1.3,1.3,0,0,1,.39-.95,1.35,1.35,0,0,1,1.88,0A1.3,1.3,0,0,1,362,17a1.33,1.33,0,0,1-1.33,1.33ZM359.6,29.43V19.51h2.16v9.92Z"/><path class="cls-5" d="M368.59,33.45a7.43,7.43,0,0,1-2.26-.32,5.22,5.22,0,0,1-1.9-1.16l1-1.56a3.6,3.6,0,0,0,1.4,1,5.08,5.08,0,0,0,1.76.28,4.22,4.22,0,0,0,1.06-.13,2.44,2.44,0,0,0,1.62-1.31,3,3,0,0,0,.26-1.33V27.78A4.45,4.45,0,0,1,370.14,29a3.54,3.54,0,0,1-1.79.46,4.64,4.64,0,0,1-1.76-.34,3.84,3.84,0,0,1-1.39-1,4.44,4.44,0,0,1-.92-1.59,7.27,7.27,0,0,1,0-4.33,4.57,4.57,0,0,1,.92-1.6,3.66,3.66,0,0,1,1.38-1,4.4,4.4,0,0,1,1.77-.34,3.83,3.83,0,0,1,1.76.41,3.89,3.89,0,0,1,1.42,1.21V19.51h2.15v9.4a4.87,4.87,0,0,1-.45,2.22,3.76,3.76,0,0,1-1.18,1.39,4.33,4.33,0,0,1-1.64.72A8.14,8.14,0,0,1,368.59,33.45Zm.39-5.93a3,3,0,0,0,1.47-.39,3.12,3.12,0,0,0,1.08-.93V22.49a3.1,3.1,0,0,0-1.08-.92,3,3,0,0,0-1.47-.39,2.57,2.57,0,0,0-2.05.87,3.37,3.37,0,0,0-.76,2.31,3.32,3.32,0,0,0,.76,2.29A2.57,2.57,0,0,0,369,27.52Z"/><path class="cls-5" d="M301.86,51.3V50a4.45,4.45,0,0,1-1.39,1.17,3.73,3.73,0,0,1-1.79.43,4.46,4.46,0,0,1-1.76-.35,3.69,3.69,0,0,1-1.39-1,4.83,4.83,0,0,1-.92-1.64,7.55,7.55,0,0,1,0-4.35,4.93,4.93,0,0,1,.92-1.64,4,4,0,0,1,1.38-1,4.27,4.27,0,0,1,1.77-.35,3.8,3.8,0,0,1,1.76.41,3.89,3.89,0,0,1,1.42,1.21V37.62H304V51.3Zm-2.55-1.66a2.76,2.76,0,0,0,.75-.1,3.5,3.5,0,0,0,.72-.29,3.38,3.38,0,0,0,.62-.42,2.49,2.49,0,0,0,.46-.52V44.39a3.12,3.12,0,0,0-.46-.52,4,4,0,0,0-.62-.43,3,3,0,0,0-.72-.28,2.76,2.76,0,0,0-1.92.14,2.64,2.64,0,0,0-.88.68,3,3,0,0,0-.56,1,4.36,4.36,0,0,0-.2,1.33,4.25,4.25,0,0,0,.2,1.32,3.3,3.3,0,0,0,.56,1.05,2.6,2.6,0,0,0,2.05.93Z"/><path class="cls-5" d="M307.89,40.18a1.33,1.33,0,0,1-1.33-1.33,1.3,1.3,0,0,1,.39-1,1.28,1.28,0,0,1,.94-.39,1.26,1.26,0,0,1,.94.39,1.3,1.3,0,0,1,.39,1,1.28,1.28,0,0,1-.39.94A1.26,1.26,0,0,1,307.89,40.18ZM306.8,51.3V41.39H309V51.3Z"/><path class="cls-5" d="M315.16,51.55a6.81,6.81,0,0,1-2.39-.4A5.23,5.23,0,0,1,310.91,50l1-1.54a3.77,3.77,0,0,0,.64.51,4.55,4.55,0,0,0,.82.44,4.42,4.42,0,0,0,.93.31,4,4,0,0,0,1,.12,2.47,2.47,0,0,0,1.47-.36,1.13,1.13,0,0,0,.5-1,.81.81,0,0,0-.44-.74,4.88,4.88,0,0,0-1.11-.41L314.21,47a5.76,5.76,0,0,1-1.45-.49,3.18,3.18,0,0,1-1.1-.88,2.35,2.35,0,0,1-.44-1.52,2.69,2.69,0,0,1,.25-1.16,2.73,2.73,0,0,1,.75-.95,3.64,3.64,0,0,1,1.22-.65,5.35,5.35,0,0,1,1.67-.23,6.09,6.09,0,0,1,2.23.38,5.56,5.56,0,0,1,1.61,1l-.9,1.52a3.66,3.66,0,0,0-1.22-.84,4,4,0,0,0-1.72-.35,2.2,2.2,0,0,0-1.34.35,1,1,0,0,0-.48.88.7.7,0,0,0,.44.66,5.09,5.09,0,0,0,1.11.38l1.44.32a6.08,6.08,0,0,1,1.45.52,3.1,3.1,0,0,1,1.11.92,2.57,2.57,0,0,1,.44,1.57,2.84,2.84,0,0,1-.27,1.23,2.67,2.67,0,0,1-.79,1,3.9,3.9,0,0,1-1.29.64A5.92,5.92,0,0,1,315.16,51.55Z"/><path class="cls-5" d="M326,51.55a5.29,5.29,0,0,1-2.06-.39,4.64,4.64,0,0,1-1.61-1.09,4.73,4.73,0,0,1-1.06-1.65,5.66,5.66,0,0,1-.38-2.08,5.58,5.58,0,0,1,.38-2.08,5,5,0,0,1,1.06-1.64,4.93,4.93,0,0,1,1.61-1.09,5.47,5.47,0,0,1,2.06-.38,5.35,5.35,0,0,1,1.32.14,4.08,4.08,0,0,1,1.05.39,3.74,3.74,0,0,1,.81.56,6.39,6.39,0,0,1,.62.67l-1.42,1.29a2.67,2.67,0,0,0-2.28-1.15,2.77,2.77,0,0,0-2.17.92,3.4,3.4,0,0,0-.82,2.37,4,4,0,0,0,.21,1.32,3.07,3.07,0,0,0,.62,1.05,2.77,2.77,0,0,0,.94.68,2.83,2.83,0,0,0,1.22.25,2.66,2.66,0,0,0,2.28-1.19l1.42,1.33A5.05,5.05,0,0,1,328.31,51,4.66,4.66,0,0,1,326,51.55Z"/><path class="cls-5" d="M336.15,51.55a5.21,5.21,0,0,1-2.14-.42,4.88,4.88,0,0,1-1.6-1.13,4.78,4.78,0,0,1-1-1.65,5.95,5.95,0,0,1,0-4,4.91,4.91,0,0,1,1-1.66,4.69,4.69,0,0,1,1.6-1.11,5.76,5.76,0,0,1,4.27,0,4.69,4.69,0,0,1,1.6,1.11,4.94,4.94,0,0,1,1,1.66,5.95,5.95,0,0,1,0,4,4.8,4.8,0,0,1-1,1.65,4.88,4.88,0,0,1-1.6,1.13A5.19,5.19,0,0,1,336.15,51.55Zm0-1.91a2.71,2.71,0,0,0,1.23-.27,2.57,2.57,0,0,0,.89-.71,3.44,3.44,0,0,0,.55-1.06,4.41,4.41,0,0,0,.18-1.26,4.24,4.24,0,0,0-.18-1.25,3.28,3.28,0,0,0-.55-1.05,2.61,2.61,0,0,0-2.12-1,2.63,2.63,0,0,0-1.21.27A2.79,2.79,0,0,0,334,44a3.09,3.09,0,0,0-.55,1.05,4.24,4.24,0,0,0-.18,1.25,4.41,4.41,0,0,0,.18,1.26,3.24,3.24,0,0,0,.55,1.06,2.72,2.72,0,0,0,2.12,1Z"/><path class="cls-5" d="M350.12,51.3V50a5.1,5.1,0,0,1-1.42,1.08,4.33,4.33,0,0,1-2.07.48,3.26,3.26,0,0,1-2.4-.81,3.2,3.2,0,0,1-.8-2.33v-7h2.16v6.22a2,2,0,0,0,.54,1.59,2.28,2.28,0,0,0,1.47.44,2.82,2.82,0,0,0,1.49-.4,3.53,3.53,0,0,0,1-.89v-7h2.16V51.3Z"/><path class="cls-5" d="M361.78,51.3V45.11a2,2,0,0,0-.55-1.62,2.27,2.27,0,0,0-1.46-.44,2.8,2.8,0,0,0-1.49.41,4,4,0,0,0-1.06.91V51.3h-2.15V41.39h2.15v1.34a4.26,4.26,0,0,1,.61-.58,4.65,4.65,0,0,1,.81-.51,4.86,4.86,0,0,1,1-.36,4.47,4.47,0,0,1,1.12-.13,2.85,2.85,0,0,1,3.2,3.18v7Z"/><path class="cls-5" d="M369.72,51.55a2.53,2.53,0,0,1-1.91-.66,2.64,2.64,0,0,1-.64-1.91V43.26h-1.64V41.39h1.64V38.68h2.16v2.71h2v1.87h-2v5.19a1.42,1.42,0,0,0,.24.85.78.78,0,0,0,.7.34,1.48,1.48,0,0,0,.57-.11,1.05,1.05,0,0,0,.38-.26l.51,1.64a2.23,2.23,0,0,1-.78.45A3.38,3.38,0,0,1,369.72,51.55Z"/><path class="cls-5" d="M376.68,51.55a6.72,6.72,0,0,1-2.38-.4A5.19,5.19,0,0,1,372.43,50l1-1.54a3.77,3.77,0,0,0,.64.51,4.91,4.91,0,0,0,.82.44,4.42,4.42,0,0,0,.93.31,4,4,0,0,0,1,.12,2.52,2.52,0,0,0,1.48-.36,1.15,1.15,0,0,0,.49-1,.81.81,0,0,0-.44-.74,4.88,4.88,0,0,0-1.11-.41L375.73,47a5.76,5.76,0,0,1-1.45-.49,3.18,3.18,0,0,1-1.1-.88,2.35,2.35,0,0,1-.44-1.52A2.69,2.69,0,0,1,373,43a2.73,2.73,0,0,1,.75-.95,3.64,3.64,0,0,1,1.22-.65,5.4,5.4,0,0,1,1.67-.23,6.09,6.09,0,0,1,2.23.38,5.56,5.56,0,0,1,1.61,1l-.9,1.52a3.66,3.66,0,0,0-1.22-.84,4,4,0,0,0-1.72-.35,2.2,2.2,0,0,0-1.34.35,1,1,0,0,0-.48.88.72.72,0,0,0,.44.66,5.09,5.09,0,0,0,1.11.38l1.44.32a6.08,6.08,0,0,1,1.45.52,3.1,3.1,0,0,1,1.11.92,2.57,2.57,0,0,1,.44,1.57,2.84,2.84,0,0,1-.27,1.23,2.67,2.67,0,0,1-.79,1,3.9,3.9,0,0,1-1.29.64A5.92,5.92,0,0,1,376.68,51.55Z"/><path class="cls-5" d="M301.35,73.43a7.25,7.25,0,0,1-2.83-.54,6.58,6.58,0,0,1-2.21-1.47,6.51,6.51,0,0,1-1.45-2.24,8.11,8.11,0,0,1,0-5.66,6.42,6.42,0,0,1,1.45-2.24,6.76,6.76,0,0,1,2.21-1.48,7.79,7.79,0,0,1,5.65,0,6.61,6.61,0,0,1,2.2,1.48,6.71,6.71,0,0,1,1.45,2.24,8,8,0,0,1,0,5.66,6.81,6.81,0,0,1-1.45,2.24,6.44,6.44,0,0,1-2.2,1.47A7.23,7.23,0,0,1,301.35,73.43Zm0-2.14a4.36,4.36,0,0,0,1.86-.38,4.25,4.25,0,0,0,2.35-2.6,6.19,6.19,0,0,0,0-3.93,4.49,4.49,0,0,0-.91-1.56,4.29,4.29,0,0,0-1.44-1,4.79,4.79,0,0,0-3.74,0,4.25,4.25,0,0,0-1.43,1,4.49,4.49,0,0,0-.91,1.56,6.19,6.19,0,0,0,0,3.93,4.44,4.44,0,0,0,.91,1.57,4.37,4.37,0,0,0,3.31,1.41Z"/><path class="cls-5" d="M315.09,73.43A5.29,5.29,0,0,1,313,73,4.73,4.73,0,0,1,311.42,72a5.25,5.25,0,0,1-1.06-1.65,5.66,5.66,0,0,1-.38-2.08,5.58,5.58,0,0,1,.38-2.08,5.2,5.2,0,0,1,1.06-1.64A4.88,4.88,0,0,1,313,63.41a5.29,5.29,0,0,1,2.06-.39,5.35,5.35,0,0,1,1.33.15,3.88,3.88,0,0,1,1,.39,4.08,4.08,0,0,1,.82.56,4.8,4.8,0,0,1,.61.67l-1.42,1.29a2.61,2.61,0,0,0-2.27-1.15,2.79,2.79,0,0,0-2.18.92,3.37,3.37,0,0,0-.82,2.37,3.77,3.77,0,0,0,.22,1.32,3.22,3.22,0,0,0,.61,1,2.9,2.9,0,0,0,2.17.93,2.65,2.65,0,0,0,2.27-1.19l1.42,1.33a4.75,4.75,0,0,1-1.44,1.23A4.53,4.53,0,0,1,315.09,73.43Z"/><path class="cls-5" d="M323.8,73.43a2.53,2.53,0,0,1-1.91-.66,2.61,2.61,0,0,1-.64-1.91V65.14h-1.64V63.27h1.64V60.56h2.16v2.71h2v1.87h-2v5.19a1.44,1.44,0,0,0,.23.85.8.8,0,0,0,.71.34,1.47,1.47,0,0,0,.56-.11,1.05,1.05,0,0,0,.38-.26l.52,1.64a2.43,2.43,0,0,1-.78.45A3.38,3.38,0,0,1,323.8,73.43Z"/><path class="cls-5" d="M336.91,73.43a7,7,0,0,1-3.14-.65,5.61,5.61,0,0,1-2-1.57l1.31-1.58a4.46,4.46,0,0,0,1.66,1.22,5.13,5.13,0,0,0,2.12.44,3.4,3.4,0,0,0,2.1-.57,1.82,1.82,0,0,0,.75-1.52,1.61,1.61,0,0,0-.78-1.49,4.46,4.46,0,0,0-2.26-.46h-.91l-.65,0V65.1h1.56a5.62,5.62,0,0,0,1.13-.11,2.61,2.61,0,0,0,.89-.32,1.8,1.8,0,0,0,.6-.56,1.53,1.53,0,0,0,.21-.81,1.63,1.63,0,0,0-.21-.83,1.88,1.88,0,0,0-.6-.59,3.05,3.05,0,0,0-.88-.35,4.15,4.15,0,0,0-1.08-.13,4.8,4.8,0,0,0-3.55,1.52l-1.23-1.5a6.3,6.3,0,0,1,2-1.55,6.78,6.78,0,0,1,3-.6,7.37,7.37,0,0,1,2,.25,5.17,5.17,0,0,1,1.55.73,3.43,3.43,0,0,1,1,1.15,3.21,3.21,0,0,1,.36,1.54,2.85,2.85,0,0,1-.26,1.23,3.14,3.14,0,0,1-.69.94,3.47,3.47,0,0,1-1,.63,3.58,3.58,0,0,1-1,.33,4,4,0,0,1,1,.29,3.86,3.86,0,0,1,1,.63,3.28,3.28,0,0,1,.79,1,3,3,0,0,1,.31,1.4,3.56,3.56,0,0,1-.36,1.61,3.6,3.6,0,0,1-1,1.27,5.1,5.1,0,0,1-1.63.83A7.09,7.09,0,0,1,336.91,73.43Z"/><path class="cls-5" d="M343.64,69.14V67.29h10.94v1.85Z"/><path class="cls-5" d="M363.11,73.18v-3.1h-6.52V68.15l5.62-8.66h3.3V68h1.83v2.13h-1.83v3.1Zm0-11.53L359,68h4.16Z"/><path class="cls-5" d="M413.11,90.5c9.82-34.77,39.92-56.95,76.15-56.95,35.68,0,66,23.85,76.09,56.7"/></g><g id="REC"><rect class="cls-1" x="0.5" y="0.5" width="728" height="90"/></g></g></svg>