<svg xmlns="http://www.w3.org/2000/svg" viewBox="0 0 160 600"><defs><style>.cls-1{fill:none;}.cls-2{fill:#e32d27;}</style></defs><g id="Layer_2" data-name="Layer 2"><g id="rec"><rect class="cls-1" width="160" height="600"/></g><g id="SUBHD"><path class="cls-2" d="M23.08,224.71a7.22,7.22,0,0,1-2.88-.53,6.4,6.4,0,0,1-2-1.38l1.19-1.64A5.55,5.55,0,0,0,21,222.33a4.66,4.66,0,0,0,2.22.5,3.57,3.57,0,0,0,1.11-.14,2.14,2.14,0,0,0,.74-.38,1.38,1.38,0,0,0,.41-.53,1.46,1.46,0,0,0,.14-.6,1.07,1.07,0,0,0-.51-1,4.75,4.75,0,0,0-1.3-.57q-.78-.24-1.68-.45a8.46,8.46,0,0,1-1.69-.6,3.53,3.53,0,0,1-1.29-1,2.79,2.79,0,0,1-.52-1.76,3.12,3.12,0,0,1,.32-1.39,3.39,3.39,0,0,1,.88-1.12,4.33,4.33,0,0,1,1.38-.74,5.67,5.67,0,0,1,1.8-.27,6.79,6.79,0,0,1,2.53.44,5.68,5.68,0,0,1,2,1.25l-1.19,1.56a4.39,4.39,0,0,0-1.63-1,5.36,5.36,0,0,0-1.86-.33,2.44,2.44,0,0,0-1.47.41,1.32,1.32,0,0,0-.55,1.08,1,1,0,0,0,.52.87,5.66,5.66,0,0,0,1.29.52l1.69.44a7.67,7.67,0,0,1,1.68.63,3.9,3.9,0,0,1,1.3,1.08,2.9,2.9,0,0,1,.51,1.79,3.83,3.83,0,0,1-.27,1.43,3.16,3.16,0,0,1-.84,1.19,4.12,4.12,0,0,1-1.45.81A6.5,6.5,0,0,1,23.08,224.71Z"/><path class="cls-2" d="M35.49,224.49V219a1.72,1.72,0,0,0-.47-1.4,2.05,2.05,0,0,0-1.28-.37,2.56,2.56,0,0,0-1.32.36,3.15,3.15,0,0,0-.91.8v6.08H29.62v-12h1.89V217a3.71,3.71,0,0,1,.53-.51,4.42,4.42,0,0,1,.7-.45,4.27,4.27,0,0,1,.85-.31,3.81,3.81,0,0,1,1-.12,2.83,2.83,0,0,1,2.1.7,2.77,2.77,0,0,1,.71,2.05v6.16Z"/><path class="cls-2" d="M43.77,224.71a4.71,4.71,0,0,1-1.88-.37,4.32,4.32,0,0,1-1.4-1,4.37,4.37,0,0,1-.88-1.45,5.18,5.18,0,0,1,0-3.53,4.37,4.37,0,0,1,.88-1.45,4.15,4.15,0,0,1,1.4-1,4.7,4.7,0,0,1,1.88-.36,4.65,4.65,0,0,1,1.87.36,4.15,4.15,0,0,1,1.4,1,4.21,4.21,0,0,1,.88,1.45,5.18,5.18,0,0,1,0,3.53,4.21,4.21,0,0,1-.88,1.45,4.32,4.32,0,0,1-1.4,1A4.66,4.66,0,0,1,43.77,224.71Zm0-1.68a2.52,2.52,0,0,0,1.08-.23,2.41,2.41,0,0,0,.78-.63,2.83,2.83,0,0,0,.48-.93,4,4,0,0,0,.16-1.11,3.88,3.88,0,0,0-.16-1.09,2.78,2.78,0,0,0-.48-.92,2.29,2.29,0,0,0-.78-.63,2.38,2.38,0,0,0-1.08-.24,2.34,2.34,0,0,0-1.07.24,2.42,2.42,0,0,0-.79.63,2.6,2.6,0,0,0-.48.92,3.55,3.55,0,0,0-.17,1.09,3.68,3.68,0,0,0,.17,1.11,2.65,2.65,0,0,0,.48.93,2.56,2.56,0,0,0,.79.63A2.47,2.47,0,0,0,43.77,223Z"/><path class="cls-2" d="M54.84,224.71a3.33,3.33,0,0,1-1.54-.37,3.81,3.81,0,0,1-1.25-1.06v4.52H50.16v-12h1.89V217a3.48,3.48,0,0,1,1.2-1,3.39,3.39,0,0,1,1.59-.38,3.69,3.69,0,0,1,1.54.31,3.35,3.35,0,0,1,1.22.89,4.22,4.22,0,0,1,.8,1.43,6,6,0,0,1,.29,1.92,6,6,0,0,1-.29,1.93,4.13,4.13,0,0,1-.8,1.43,3.49,3.49,0,0,1-1.22.9A3.69,3.69,0,0,1,54.84,224.71ZM54.28,223a2.22,2.22,0,0,0,1.8-.81,3.19,3.19,0,0,0,.66-2.09,3.13,3.13,0,0,0-.66-2.07,2.22,2.22,0,0,0-1.8-.81,2.73,2.73,0,0,0-1.29.34,2.45,2.45,0,0,0-.94.82v3.43a2,2,0,0,0,.4.47,2.62,2.62,0,0,0,.54.38,2.85,2.85,0,0,0,.63.25A2.5,2.5,0,0,0,54.28,223Z"/><path class="cls-2" d="M65.22,224.49v-12h1.89V217a3.5,3.5,0,0,1,1.25-1.06,3.45,3.45,0,0,1,1.54-.36,3.82,3.82,0,0,1,1.56.32,3.49,3.49,0,0,1,1.22.9,4.37,4.37,0,0,1,.8,1.44,5.68,5.68,0,0,1,.29,1.89,5.76,5.76,0,0,1-.29,1.93,4.12,4.12,0,0,1-.81,1.44,3.3,3.3,0,0,1-1.23.9,3.92,3.92,0,0,1-1.54.31,3.33,3.33,0,0,1-1.56-.38,3.81,3.81,0,0,1-1.23-1v1.19Zm1.89-2.61a2.58,2.58,0,0,0,1,.82,2.73,2.73,0,0,0,1.3.33,2.18,2.18,0,0,0,1.79-.81,3.19,3.19,0,0,0,.66-2.09,3.92,3.92,0,0,0-.17-1.16,2.77,2.77,0,0,0-.5-.91,2.23,2.23,0,0,0-.77-.59,2.37,2.37,0,0,0-1-.22,2.64,2.64,0,0,0-1.3.35,2.58,2.58,0,0,0-1,.82Z"/><path class="cls-2" d="M76.63,214.73a1.09,1.09,0,0,1-.82-.34,1.18,1.18,0,0,1,.82-2,1.13,1.13,0,0,1,.83.35,1.17,1.17,0,0,1,0,1.65A1.12,1.12,0,0,1,76.63,214.73Zm-.95,9.76V215.8h1.89v8.69Z"/><path class="cls-2" d="M83.56,228a6.36,6.36,0,0,1-2-.28,4.74,4.74,0,0,1-1.67-1l.88-1.37a3,3,0,0,0,1.23.87,4.36,4.36,0,0,0,1.54.25,3.59,3.59,0,0,0,.93-.12,2.13,2.13,0,0,0,.83-.4,2,2,0,0,0,.59-.75,2.6,2.6,0,0,0,.23-1.16v-1a3.87,3.87,0,0,1-1.22,1.06,3.11,3.11,0,0,1-1.57.4,3.92,3.92,0,0,1-1.54-.3,3.42,3.42,0,0,1-1.23-.86,4.24,4.24,0,0,1-.8-1.4,6.59,6.59,0,0,1,0-3.8,4.24,4.24,0,0,1,.8-1.4,3.5,3.5,0,0,1,1.22-.87,3.9,3.9,0,0,1,1.55-.3,3.43,3.43,0,0,1,1.55.36A3.47,3.47,0,0,1,86.14,217v-1.2H88V224a4.14,4.14,0,0,1-.4,1.94,3.3,3.3,0,0,1-1,1.23,4.06,4.06,0,0,1-1.44.63A7.34,7.34,0,0,1,83.56,228Zm.35-5.2a2.6,2.6,0,0,0,1.28-.35,2.56,2.56,0,0,0,1-.81v-3.25a2.56,2.56,0,0,0-1-.81,2.6,2.6,0,0,0-1.28-.35,2.26,2.26,0,0,0-1.8.77,3,3,0,0,0-.67,2,2.92,2.92,0,0,0,.67,2A2.28,2.28,0,0,0,83.91,222.82Z"/><path class="cls-2" d="M25,243.49V242.3a3.77,3.77,0,0,1-1.22,1,3.31,3.31,0,0,1-1.57.38,3.92,3.92,0,0,1-1.54-.31,3.26,3.26,0,0,1-1.22-.9,4.29,4.29,0,0,1-.81-1.44,6,6,0,0,1-.28-1.93,6,6,0,0,1,.28-1.89,4.39,4.39,0,0,1,.81-1.44,3.46,3.46,0,0,1,1.21-.9,3.74,3.74,0,0,1,1.55-.32,3.43,3.43,0,0,1,1.55.36A3.47,3.47,0,0,1,25,236v-4.52h1.89v12ZM22.8,242a2.48,2.48,0,0,0,.65-.09,2.51,2.51,0,0,0,.63-.25,3,3,0,0,0,.54-.37,2,2,0,0,0,.41-.46v-3.44a2.79,2.79,0,0,0-.41-.45,2.58,2.58,0,0,0-.54-.37,2.53,2.53,0,0,0-.63-.26,2.48,2.48,0,0,0-.65-.09,2.4,2.4,0,0,0-1,.22,2.23,2.23,0,0,0-.77.59,2.77,2.77,0,0,0-.5.91,3.92,3.92,0,0,0-.17,1.16,4,4,0,0,0,.17,1.17,2.67,2.67,0,0,0,.5.91,2.29,2.29,0,0,0,.77.61A2.4,2.4,0,0,0,22.8,242Z"/><path class="cls-2" d="M30.32,233.73a1.13,1.13,0,0,1-.83-.34,1.17,1.17,0,0,1,0-1.65,1.16,1.16,0,0,1,1.66,0,1.17,1.17,0,0,1,0,1.65A1.13,1.13,0,0,1,30.32,233.73Zm-.95,9.76V234.8h1.89v8.69Z"/><path class="cls-2" d="M36.69,243.71a6.15,6.15,0,0,1-2.09-.35,4.7,4.7,0,0,1-1.63-1l.86-1.35a3.79,3.79,0,0,0,.56.45,4.84,4.84,0,0,0,.72.39,5.62,5.62,0,0,0,.82.27,4,4,0,0,0,.83.09,2.21,2.21,0,0,0,1.3-.31,1,1,0,0,0,.43-.84.71.71,0,0,0-.38-.65,4.4,4.4,0,0,0-1-.36c-.39-.09-.81-.19-1.27-.28a5.22,5.22,0,0,1-1.26-.44,2.87,2.87,0,0,1-1-.77,2.12,2.12,0,0,1-.38-1.33,2.37,2.37,0,0,1,.22-1,2.41,2.41,0,0,1,.66-.84,3.19,3.19,0,0,1,1.07-.56,4.7,4.7,0,0,1,1.47-.21,5.11,5.11,0,0,1,2,.34,4.68,4.68,0,0,1,1.41.87l-.79,1.33a3.12,3.12,0,0,0-1.07-.74,3.66,3.66,0,0,0-1.5-.31,2,2,0,0,0-1.18.31.92.92,0,0,0-.43.77.62.62,0,0,0,.39.58,4.38,4.38,0,0,0,1,.33l1.27.29a5.16,5.16,0,0,1,1.27.45,2.83,2.83,0,0,1,1,.81,2.22,2.22,0,0,1,.39,1.38,2.65,2.65,0,0,1-.23,1.08,2.4,2.4,0,0,1-.7.86,3.42,3.42,0,0,1-1.13.57A5.26,5.26,0,0,1,36.69,243.71Z"/><path class="cls-2" d="M46.16,243.71a4.64,4.64,0,0,1-1.81-.35,4,4,0,0,1-1.41-1A4.3,4.3,0,0,1,42,241a5,5,0,0,1-.33-1.83,4.86,4.86,0,0,1,.33-1.81,4.25,4.25,0,0,1,.93-1.44,4.11,4.11,0,0,1,1.41-1,4.63,4.63,0,0,1,1.81-.34,4.57,4.57,0,0,1,1.16.13,3.58,3.58,0,0,1,.92.34,3.42,3.42,0,0,1,.71.49,5,5,0,0,1,.54.59l-1.24,1.13a2.33,2.33,0,0,0-2-1,2.44,2.44,0,0,0-1.91.81,3,3,0,0,0-.72,2.07,3.42,3.42,0,0,0,.19,1.17,2.75,2.75,0,0,0,.54.91,2.52,2.52,0,0,0,.83.61,2.62,2.62,0,0,0,1.07.21,2.31,2.31,0,0,0,2-1l1.24,1.17a4.22,4.22,0,0,1-1.26,1.08A4.07,4.07,0,0,1,46.16,243.71Z"/><path class="cls-2" d="M55.11,243.71a4.71,4.71,0,0,1-1.88-.37,4.32,4.32,0,0,1-1.4-1A4.37,4.37,0,0,1,51,240.9a5.18,5.18,0,0,1,0-3.53,4.37,4.37,0,0,1,.88-1.45,4.15,4.15,0,0,1,1.4-1,4.7,4.7,0,0,1,1.88-.36,4.65,4.65,0,0,1,1.87.36,4.15,4.15,0,0,1,1.4,1,4.21,4.21,0,0,1,.88,1.45,5.18,5.18,0,0,1,0,3.53,4.21,4.21,0,0,1-.88,1.45,4.32,4.32,0,0,1-1.4,1A4.66,4.66,0,0,1,55.11,243.71Zm0-1.68a2.52,2.52,0,0,0,1.08-.23,2.41,2.41,0,0,0,.78-.63,2.83,2.83,0,0,0,.48-.93,4,4,0,0,0,.16-1.11,3.88,3.88,0,0,0-.16-1.09,2.78,2.78,0,0,0-.48-.92,2.29,2.29,0,0,0-.78-.63,2.38,2.38,0,0,0-1.08-.24,2.34,2.34,0,0,0-1.07.24,2.42,2.42,0,0,0-.79.63,2.6,2.6,0,0,0-.48.92,3.55,3.55,0,0,0-.17,1.09,3.68,3.68,0,0,0,.17,1.11,2.65,2.65,0,0,0,.48.93,2.56,2.56,0,0,0,.79.63A2.47,2.47,0,0,0,55.11,242Z"/><path class="cls-2" d="M67.36,243.49v-1.15a4.49,4.49,0,0,1-1.25.94,3.64,3.64,0,0,1-1.81.43,2.85,2.85,0,0,1-2.1-.71,2.8,2.8,0,0,1-.7-2.05V234.8h1.89v5.45a1.72,1.72,0,0,0,.47,1.4,2,2,0,0,0,1.29.38,2.42,2.42,0,0,0,1.3-.35,3,3,0,0,0,.91-.78v-6.1h1.89v8.69Z"/><path class="cls-2" d="M77.59,243.49v-5.44a1.74,1.74,0,0,0-.48-1.41,2,2,0,0,0-1.29-.39,2.51,2.51,0,0,0-1.3.36,3.54,3.54,0,0,0-.93.8v6.08H71.7V234.8h1.89V236a4.33,4.33,0,0,1,.53-.51,4.53,4.53,0,0,1,.71-.45,4.61,4.61,0,0,1,.86-.31,3.81,3.81,0,0,1,1-.12,2.82,2.82,0,0,1,2.11.72,2.88,2.88,0,0,1,.7,2.07v6.12Z"/><path class="cls-2" d="M84.55,243.71a2.24,2.24,0,0,1-1.67-.58,2.31,2.31,0,0,1-.56-1.67v-5H80.88V234.8h1.44v-2.38h1.89v2.38H86v1.63H84.21V241a1.28,1.28,0,0,0,.21.75A.72.72,0,0,0,85,242a1.13,1.13,0,0,0,.49-.1.91.91,0,0,0,.34-.22l.45,1.44a2,2,0,0,1-.69.39A3,3,0,0,1,84.55,243.71Z"/><path class="cls-2" d="M90.66,243.71a6.07,6.07,0,0,1-2.09-.35,4.74,4.74,0,0,1-1.64-1l.86-1.35a4.4,4.4,0,0,0,.56.45,6.1,6.1,0,0,0,.72.39,5.62,5.62,0,0,0,.82.27,4,4,0,0,0,.84.09,2.17,2.17,0,0,0,1.29-.31,1,1,0,0,0,.44-.84.7.7,0,0,0-.39-.65,4.3,4.3,0,0,0-1-.36l-1.27-.28a5.15,5.15,0,0,1-1.27-.44,2.74,2.74,0,0,1-1-.77,2.07,2.07,0,0,1-.39-1.33,2.37,2.37,0,0,1,.22-1,2.41,2.41,0,0,1,.66-.84,3.29,3.29,0,0,1,1.07-.56,4.74,4.74,0,0,1,1.47-.21,5.11,5.11,0,0,1,1.95.34,4.87,4.87,0,0,1,1.42.87l-.8,1.33a3.12,3.12,0,0,0-1.07-.74,3.66,3.66,0,0,0-1.5-.31,2,2,0,0,0-1.18.31.91.91,0,0,0-.42.77.62.62,0,0,0,.38.58,4.48,4.48,0,0,0,1,.33l1.27.29a5.24,5.24,0,0,1,1.26.45,2.86,2.86,0,0,1,1,.81,2.28,2.28,0,0,1,.38,1.38,2.39,2.39,0,0,1-.92,1.94,3.58,3.58,0,0,1-1.14.57A5.24,5.24,0,0,1,90.66,243.71Z"/><path class="cls-2" d="M24.58,262.71a6.44,6.44,0,0,1-2.48-.47,5.91,5.91,0,0,1-1.94-1.3,5.67,5.67,0,0,1-1.27-2,7.09,7.09,0,0,1,0-5,5.77,5.77,0,0,1,1.27-2,6.07,6.07,0,0,1,1.94-1.3,6.89,6.89,0,0,1,4.95,0,6,6,0,0,1,1.94,1.3,6.08,6.08,0,0,1,1.27,2,6.94,6.94,0,0,1,0,5,6,6,0,0,1-1.27,2,5.81,5.81,0,0,1-1.94,1.3A6.39,6.39,0,0,1,24.58,262.71Zm0-1.88a4,4,0,0,0,1.64-.33,3.7,3.7,0,0,0,1.26-.91,4.12,4.12,0,0,0,.8-1.37,5.39,5.39,0,0,0,.28-1.72,5.32,5.32,0,0,0-.28-1.73,4.12,4.12,0,0,0-.8-1.37,3.84,3.84,0,0,0-1.26-.91,4.27,4.27,0,0,0-3.29,0,3.91,3.91,0,0,0-1.25.91,4,4,0,0,0-.8,1.37,5.06,5.06,0,0,0-.28,1.73,5.13,5.13,0,0,0,.28,1.72,4,4,0,0,0,.8,1.37,3.76,3.76,0,0,0,1.25.91A4,4,0,0,0,24.58,260.83Z"/><path class="cls-2" d="M36.64,262.71a4.64,4.64,0,0,1-1.81-.35,4,4,0,0,1-1.41-.95,4.3,4.3,0,0,1-.93-1.45,5,5,0,0,1-.33-1.83,4.86,4.86,0,0,1,.33-1.81,4.25,4.25,0,0,1,.93-1.44,4.11,4.11,0,0,1,1.41-1,4.63,4.63,0,0,1,1.81-.34,4.57,4.57,0,0,1,1.16.13,3.58,3.58,0,0,1,.92.34,3.71,3.71,0,0,1,.71.49,5,5,0,0,1,.54.59l-1.24,1.13a2.33,2.33,0,0,0-2-1,2.44,2.44,0,0,0-1.91.81,3,3,0,0,0-.72,2.07,3.42,3.42,0,0,0,.19,1.17,2.75,2.75,0,0,0,.54.91,2.52,2.52,0,0,0,.83.61,2.62,2.62,0,0,0,1.07.21,2.32,2.32,0,0,0,2-1L40,261.16a4.22,4.22,0,0,1-1.26,1.08A4.07,4.07,0,0,1,36.64,262.71Z"/><path class="cls-2" d="M44.27,262.71a2.24,2.24,0,0,1-1.67-.58,2.27,2.27,0,0,1-.56-1.67v-5H40.6V253.8H42v-2.38h1.89v2.38h1.76v1.63H43.93V260a1.28,1.28,0,0,0,.21.75.7.7,0,0,0,.62.29,1.13,1.13,0,0,0,.49-.1.86.86,0,0,0,.33-.22l.45,1.44a1.9,1.9,0,0,1-.68.39A3.06,3.06,0,0,1,44.27,262.71Z"/><path class="cls-2" d="M54.26,262.49V253.2l-2,2.05L51.07,254l3.46-3.5h1.84v12Z"/><path class="cls-2" d="M63.21,262.71a4.19,4.19,0,0,1-2.19-.55,4.74,4.74,0,0,1-1.49-1.43,6.47,6.47,0,0,1-.85-2,9,9,0,0,1-.28-2.24,8.87,8.87,0,0,1,.28-2.24,6.37,6.37,0,0,1,.85-2A4.53,4.53,0,0,1,61,250.84a4.18,4.18,0,0,1,2.19-.54,4.12,4.12,0,0,1,2.16.54,4.43,4.43,0,0,1,1.49,1.43,6.37,6.37,0,0,1,.85,2A8.87,8.87,0,0,1,68,256.5a9,9,0,0,1-.28,2.24,6.47,6.47,0,0,1-.85,2,4.63,4.63,0,0,1-1.49,1.43A4.13,4.13,0,0,1,63.21,262.71Zm0-1.88a2.08,2.08,0,0,0,1.23-.36,2.62,2.62,0,0,0,.82-1,5.2,5.2,0,0,0,.45-1.38,10.09,10.09,0,0,0,0-3.29,4.66,4.66,0,0,0-.45-1.38,2.69,2.69,0,0,0-.82-.94,2.39,2.39,0,0,0-2.49,0,2.69,2.69,0,0,0-.82.94,4.66,4.66,0,0,0-.45,1.38,9.1,9.1,0,0,0,0,3.29,4.57,4.57,0,0,0,.45,1.38,2.72,2.72,0,0,0,.82,1A2.1,2.1,0,0,0,63.21,260.83Z"/><path class="cls-2" d="M69.29,258.94v-1.62h4.32v1.62Z"/><path class="cls-2" d="M77.61,262.49V253.2l-2,2.05L74.42,254l3.46-3.5h1.83v12Z"/><path class="cls-2" d="M84.45,262.49V253.2l-2,2.05L81.26,254l3.46-3.5h1.83v12Z"/></g></g></svg>