<svg xmlns="http://www.w3.org/2000/svg" viewBox="0 0 300 250"><title>mask2c</title><g id="Layer_2" data-name="Layer 2"><g id="rect"><rect width="300" height="250" fill="none"/></g><g id="mask2c"><polygon points="300 250 203 250 203.47 240.87 207.5 244.75 205.43 223.53 213.25 227.25 208.9 203.48 214.75 209.25 213.56 182.58 217.75 183 217.83 166.23 221.25 171.75 223.47 147.07 229.25 145.25 229.4 129.05 238.25 122.25 237.96 105.78 242 109 245.64 87.06 249 92.75 253.7 69.21 258.5 70 261.12 54.19 270.5 51.25 270.07 37.68 274.75 45.25 280.14 21 288 16 290.32 5.98 292.25 11.75 300 0 300 250" fill="lime"/></g></g></svg>