<svg xmlns="http://www.w3.org/2000/svg" viewBox="0 0 300 250"><title>mask2a</title><g id="Layer_2" data-name="Layer 2"><g id="rect"><rect width="300" height="250" fill="none"/></g><g id="mask2a"><polygon points="300 250 203 250 203 240.87 203 230.75 203 223.53 203 214.8 203 203.48 203 192.02 203 182.58 203 175.58 203 166.23 203 157.52 203 147.07 203 138.94 203 129.05 203 115.86 203 105.78 203 95.92 203 87.06 203 78.05 203 69.21 203 61.27 203 54.19 203 44.52 203 37.68 203 30.25 203 21 203 12.33 203 5.98 203 0 300 0 300 250" fill="lime"/></g></g></svg>