<svg xmlns="http://www.w3.org/2000/svg" viewBox="0 0 300 250"><title>mask2b</title><g id="Layer_2" data-name="Layer 2"><g id="rect"><rect width="300" height="250" fill="none"/></g><g id="mask2b"><polygon points="300 250 203 250 203 240.87 205.67 246.83 203 223.53 206.67 233.83 203 203.48 206.83 221.33 203 182.58 208.83 206.33 203 166.23 207.33 188.83 203 147.07 208.33 170 203 129.05 206.67 145.17 203 105.78 208 122.67 203 87.06 207.33 94.5 203 69.21 207.67 85 203 54.19 209.5 71.5 203 37.68 203 30.25 207.5 51.67 203 12.33 206.5 31.33 203 0 300 0 300 250" fill="lime"/></g></g></svg>