<svg xmlns="http://www.w3.org/2000/svg" xmlns:xlink="http://www.w3.org/1999/xlink" viewBox="0 0 300 250"><defs><style>.cls-1{fill:none;}.cls-2{fill:#fff;}.cls-3{fill:#e52823;}.cls-4{clip-path:url(#clip-path);}</style><clipPath id="clip-path"><rect class="cls-1" x="23.48" y="153.44" width="92.83" height="23.51"/></clipPath></defs><g id="Layer_2" data-name="Layer 2"><g id="Layer_1-2" data-name="Layer 1"><g id="Layer_1-3" data-name="Layer 1"><rect width="300" height="250"/></g><rect class="cls-1" x="120.17" y="146.11" width="179.83" height="103.27"/><rect class="cls-1" width="300" height="250"/><path class="cls-2" d="M15.07,16.41H26.19a6.83,6.83,0,0,1,3.31.75,5.13,5.13,0,0,1,2.08,2,5.35,5.35,0,0,1,.69,2.68,5,5,0,0,1-1,3.23,4.4,4.4,0,0,1-2.6,1.61,4.39,4.39,0,0,1,2.88,1.75,5.42,5.42,0,0,1,1.18,3.45,5.5,5.5,0,0,1-1.62,4.08,6.12,6.12,0,0,1-4.53,1.62H15.07ZM25.21,24.9A2.47,2.47,0,0,0,27,24.25a2.25,2.25,0,0,0,.66-1.69A2.22,2.22,0,0,0,27,20.91a2.46,2.46,0,0,0-1.79-.66H19.57V24.9Zm.16,8.81a2.81,2.81,0,0,0,2-.68,2.37,2.37,0,0,0,.73-1.83,2.33,2.33,0,0,0-.73-1.75,2.7,2.7,0,0,0-2-.72h-5.8v5Z"/><path class="cls-2" d="M37.07,36.89A4.17,4.17,0,0,1,36,33.76V16.41h4V32.69a1.9,1.9,0,0,0,.38,1.21,1.24,1.24,0,0,0,1,.47,2.78,2.78,0,0,0,.83-.12,1.24,1.24,0,0,0,.54-.32l.85,3a4.91,4.91,0,0,1-3.32,1A4.43,4.43,0,0,1,37.07,36.89Z"/><path class="cls-2" d="M55.93,35.58a6.15,6.15,0,0,1-2.1,1.75,5.65,5.65,0,0,1-2.62.62,6.54,6.54,0,0,1-3.48-1,6.41,6.41,0,0,1-2.42-2.76,9.77,9.77,0,0,1-.88-4.32,9.69,9.69,0,0,1,.88-4.27,6.62,6.62,0,0,1,2.4-2.8,6.33,6.33,0,0,1,3.5-1,5.9,5.9,0,0,1,4.72,2.35v-2H60v15.3H55.93Zm0-8.36A3.65,3.65,0,0,0,54.44,26a4.38,4.38,0,0,0-2-.5,3.54,3.54,0,0,0-2.79,1.23,4.68,4.68,0,0,0-1.08,3.22,4.69,4.69,0,0,0,1.08,3.21,3.52,3.52,0,0,0,2.79,1.24,4.36,4.36,0,0,0,2-.49,3.74,3.74,0,0,0,1.49-1.26Z"/><path class="cls-2" d="M64,25.75a7.54,7.54,0,0,1,2.88-2.86,8.38,8.38,0,0,1,4.18-1,8,8,0,0,1,3.68.78,6.39,6.39,0,0,1,2.37,2l-2.63,2.47a3.64,3.64,0,0,0-3.23-1.65,4,4,0,0,0-3,1.22,4.54,4.54,0,0,0-1.16,3.23,4.54,4.54,0,0,0,1.16,3.24,4,4,0,0,0,6.22-.4l2.63,2.43a6.49,6.49,0,0,1-2.36,2A7.81,7.81,0,0,1,71.1,38a8.38,8.38,0,0,1-4.18-1A7.54,7.54,0,0,1,64,34.06a8.17,8.17,0,0,1-1-4.17A8.16,8.16,0,0,1,64,25.75Z"/><path class="cls-2" d="M85.64,31.65l-1.84,2v3.93h-4V16.41h4V29.05l5.8-6.81h4.94l-6.05,6.94,6.24,8.36h-5Z"/><path class="cls-2" d="M104.93,16.41h14.95v3.87H109.43v4.59h10.23v3.86H109.43v8.81h-4.5Z"/><path class="cls-2" d="M122.92,22.24h4v2.09a6.92,6.92,0,0,1,2.16-1.76,5.72,5.72,0,0,1,2.72-.71v3.93a4.8,4.8,0,0,0-1.11-.13,5.29,5.29,0,0,0-2.15.51,3.63,3.63,0,0,0-1.62,1.24V37.54h-4Z"/><path class="cls-2" d="M134.62,19.28A2.41,2.41,0,0,1,138,15.87a2.45,2.45,0,0,1,0,3.41,2.4,2.4,0,0,1-3.41,0Zm-.3,3h4v15.3h-4Z"/><path class="cls-2" d="M152.85,35.58a6.1,6.1,0,0,1-2.11,1.75,5.58,5.58,0,0,1-2.61.62,6.54,6.54,0,0,1-3.48-1,6.43,6.43,0,0,1-2.43-2.76,9.91,9.91,0,0,1-.87-4.32,9.83,9.83,0,0,1,.87-4.27,6.64,6.64,0,0,1,2.41-2.8,6.31,6.31,0,0,1,3.5-1,5.9,5.9,0,0,1,4.72,2.35v-7.8h4.05V37.54h-4.05Zm0-8.39a3.74,3.74,0,0,0-1.49-1.26,4.36,4.36,0,0,0-2-.49,3.52,3.52,0,0,0-2.79,1.24,4.77,4.77,0,0,0-1.08,3.24,4.69,4.69,0,0,0,1.08,3.21,3.52,3.52,0,0,0,2.79,1.24,4.36,4.36,0,0,0,2-.49,3.74,3.74,0,0,0,1.49-1.26Z"/><path class="cls-2" d="M171.41,35.58a6.1,6.1,0,0,1-2.11,1.75,5.58,5.58,0,0,1-2.61.62,6.54,6.54,0,0,1-3.48-1,6.43,6.43,0,0,1-2.43-2.76,9.91,9.91,0,0,1-.87-4.32,9.83,9.83,0,0,1,.87-4.27,6.64,6.64,0,0,1,2.41-2.8,6.33,6.33,0,0,1,3.5-1,5.9,5.9,0,0,1,4.72,2.35v-2h4.05v15.3h-4.05Zm0-8.36A3.65,3.65,0,0,0,169.92,26a4.38,4.38,0,0,0-2-.5,3.54,3.54,0,0,0-2.79,1.23,4.68,4.68,0,0,0-1.08,3.22,4.69,4.69,0,0,0,1.08,3.21,3.52,3.52,0,0,0,2.79,1.24,4.36,4.36,0,0,0,2-.49,3.74,3.74,0,0,0,1.49-1.26Z"/><path class="cls-2" d="M181.07,38.55a4.81,4.81,0,0,0,2,1.43,7.21,7.21,0,0,0,2.56.47,4.23,4.23,0,0,0,3-1,3.81,3.81,0,0,0,1.08-2.91V34.94a7.14,7.14,0,0,1-5.38,2.31A5,5,0,0,1,180.69,36a4.9,4.9,0,0,1-1.24-3.55V22.24h4v8.62a2.79,2.79,0,0,0,.73,2.17,3,3,0,0,0,2.09.65,4,4,0,0,0,2-.51,4.82,4.82,0,0,0,1.49-1.24V22.24h4v14.1a6.9,6.9,0,0,1-2.2,5.46,8.64,8.64,0,0,1-5.94,2,9.34,9.34,0,0,1-6.39-2.28Z"/><path class="cls-2" d="M216.42,35.58a6.19,6.19,0,0,1-2.11,1.75,5.58,5.58,0,0,1-2.61.62,6.6,6.6,0,0,1-3.49-1,6.48,6.48,0,0,1-2.42-2.76,9.91,9.91,0,0,1-.87-4.32,9.83,9.83,0,0,1,.87-4.27,6.57,6.57,0,0,1,2.41-2.8,6.31,6.31,0,0,1,3.5-1,5.9,5.9,0,0,1,4.72,2.35v-7.8h4.05V37.54h-4.05Zm0-8.39a3.81,3.81,0,0,0-1.49-1.26,4.4,4.4,0,0,0-2-.49,3.48,3.48,0,0,0-2.78,1.24,4.77,4.77,0,0,0-1.08,3.24,4.69,4.69,0,0,0,1.08,3.21,3.48,3.48,0,0,0,2.78,1.24,4.4,4.4,0,0,0,2-.49,3.81,3.81,0,0,0,1.49-1.26Z"/><path class="cls-2" d="M224.49,25.84a7.74,7.74,0,0,1,6.91-4,7.58,7.58,0,0,1,4,1.06,7.25,7.25,0,0,1,2.71,3,9.68,9.68,0,0,1,1,4.39v.88H227.69a3.9,3.9,0,0,0,1.37,2.56,4.45,4.45,0,0,0,3,1,6.54,6.54,0,0,0,2.23-.41,5,5,0,0,0,1.85-1.11l1.78,2.6a7.56,7.56,0,0,1-2.79,1.57,11.13,11.13,0,0,1-3.52.55,8.69,8.69,0,0,1-4.18-1,7.36,7.36,0,0,1-2.93-2.82,8.82,8.82,0,0,1,0-8.29Zm4.25.25a4.12,4.12,0,0,0-1.11,2.36h7.54a3.89,3.89,0,0,0-1-2.34,3.48,3.48,0,0,0-2.74-1.05A3.42,3.42,0,0,0,228.74,26.09Z"/><path class="cls-2" d="M252.49,35.58a6.15,6.15,0,0,1-2.1,1.75,5.65,5.65,0,0,1-2.62.62,6.56,6.56,0,0,1-3.48-1,6.41,6.41,0,0,1-2.42-2.76,9.91,9.91,0,0,1-.87-4.32,9.83,9.83,0,0,1,.87-4.27,6.62,6.62,0,0,1,2.4-2.8,6.33,6.33,0,0,1,3.5-1,5.9,5.9,0,0,1,4.72,2.35v-2h4.06v15.3h-4.06Zm0-8.36A3.58,3.58,0,0,0,251,26a4.38,4.38,0,0,0-2-.5,3.54,3.54,0,0,0-2.79,1.23,4.68,4.68,0,0,0-1.08,3.22,4.69,4.69,0,0,0,1.08,3.21A3.52,3.52,0,0,0,249,34.37a4.36,4.36,0,0,0,2-.49,3.68,3.68,0,0,0,1.49-1.26Z"/><path class="cls-2" d="M261.63,36.89a4.17,4.17,0,0,1-1.09-3.13V16.41h4V32.69a1.9,1.9,0,0,0,.38,1.21,1.24,1.24,0,0,0,1,.47,2.78,2.78,0,0,0,.83-.12,1.24,1.24,0,0,0,.54-.32l.85,3a4.91,4.91,0,0,1-3.32,1A4.43,4.43,0,0,1,261.63,36.89Z"/><path class="cls-2" d="M270.39,32.76a8,8,0,0,0,2.4,1.45,7.43,7.43,0,0,0,2.89.64,3.54,3.54,0,0,0,1.91-.42,1.29,1.29,0,0,0,.65-1.15,1.21,1.21,0,0,0-.76-1.12,9.76,9.76,0,0,0-2.31-.7,23.08,23.08,0,0,1-3-.76A5.1,5.1,0,0,1,270,29.32a3.75,3.75,0,0,1-.89-2.64,4.21,4.21,0,0,1,.75-2.41,5,5,0,0,1,2.17-1.76,8.07,8.07,0,0,1,3.35-.65A9.64,9.64,0,0,1,281.6,24L280,26.71A5.59,5.59,0,0,0,278,25.44a6.67,6.67,0,0,0-2.58-.51,3.51,3.51,0,0,0-1.76.38,1.17,1.17,0,0,0-.65,1.05,1.08,1.08,0,0,0,.71,1A11.13,11.13,0,0,0,276,28a19.58,19.58,0,0,1,3.07.79,5.25,5.25,0,0,1,2.16,1.46,4,4,0,0,1,.92,2.77,4.32,4.32,0,0,1-.78,2.52,5.17,5.17,0,0,1-2.28,1.77,9.17,9.17,0,0,1-3.56.63,11.59,11.59,0,0,1-3.82-.63,8.48,8.48,0,0,1-3-1.74Z"/><path class="cls-2" d="M15.39,64.43a8.27,8.27,0,0,0,2.41,1.46,7.51,7.51,0,0,0,2.88.63,3.58,3.58,0,0,0,1.92-.42A1.3,1.3,0,0,0,23.25,65a1.2,1.2,0,0,0-.76-1.11,9.49,9.49,0,0,0-2.32-.71,22,22,0,0,1-3-.76A4.91,4.91,0,0,1,15,61a3.74,3.74,0,0,1-.88-2.64,4.2,4.2,0,0,1,.74-2.41,5.13,5.13,0,0,1,2.17-1.76,8.09,8.09,0,0,1,3.36-.65,9.64,9.64,0,0,1,6.17,2.09L25,58.38A5.73,5.73,0,0,0,23,57.11a6.78,6.78,0,0,0-2.58-.5A3.41,3.41,0,0,0,18.7,57a1.16,1.16,0,0,0-.65,1,1.07,1.07,0,0,0,.71,1,11.05,11.05,0,0,0,2.21.65,21.44,21.44,0,0,1,3.07.79,5.31,5.31,0,0,1,2.15,1.47,4,4,0,0,1,.92,2.76,4.37,4.37,0,0,1-.78,2.53A5,5,0,0,1,24.05,69a9.17,9.17,0,0,1-3.56.63A11.64,11.64,0,0,1,16.67,69a8.48,8.48,0,0,1-3-1.74Z"/><path class="cls-2" d="M32,68.54a4.12,4.12,0,0,1-1.11-3.11v-8H28.35V53.91h2.53V49.73h4.05v4.18H38v3.52H34.93v6.93a1.9,1.9,0,0,0,.38,1.21,1.24,1.24,0,0,0,1,.48,2.71,2.71,0,0,0,.82-.13,1.52,1.52,0,0,0,.57-.32l.86,3a4.92,4.92,0,0,1-3.36,1A4.44,4.44,0,0,1,32,68.54Z"/><path class="cls-2" d="M51.31,67.25A6.33,6.33,0,0,1,49.2,69a5.69,5.69,0,0,1-2.61.61,6.45,6.45,0,0,1-3.48-1,6.32,6.32,0,0,1-2.43-2.76,11,11,0,0,1,0-8.58,6.54,6.54,0,0,1,2.41-2.81,6.31,6.31,0,0,1,3.5-1,5.91,5.91,0,0,1,2.6.61,6,6,0,0,1,2.12,1.74v-2h4v15.3h-4Zm0-8.36a3.8,3.8,0,0,0-1.49-1.25,4.39,4.39,0,0,0-2-.5A3.51,3.51,0,0,0,45,58.37a5.34,5.34,0,0,0,0,6.44,3.52,3.52,0,0,0,2.78,1.24,4.39,4.39,0,0,0,2-.5,3.8,3.8,0,0,0,1.49-1.25Z"/><path class="cls-2" d="M59.35,53.91h4V56a6.51,6.51,0,0,1,2.15-1.76,5.65,5.65,0,0,1,2.72-.72v3.93a5.36,5.36,0,0,0-1.1-.12,5.28,5.28,0,0,0-2.16.5,3.54,3.54,0,0,0-1.61,1.24V69.21h-4Z"/><path class="cls-2" d="M72.66,68.54a4.12,4.12,0,0,1-1.11-3.11v-8H69V53.91h2.54V49.73h4v4.18h3.11v3.52H75.6v6.93A1.9,1.9,0,0,0,76,65.57a1.24,1.24,0,0,0,1,.48,2.71,2.71,0,0,0,.82-.13,1.52,1.52,0,0,0,.57-.32l.85,3a4.89,4.89,0,0,1-3.35,1A4.42,4.42,0,0,1,72.66,68.54Z"/><path class="cls-2" d="M91.47,68.54a4.12,4.12,0,0,1-1.11-3.11v-8H87.83V53.91h2.53V49.73h4.06v4.18h3.1v3.52h-3.1v6.93a1.85,1.85,0,0,0,.38,1.21,1.22,1.22,0,0,0,1,.48,2.71,2.71,0,0,0,.82-.13,1.38,1.38,0,0,0,.57-.32l.86,3a4.92,4.92,0,0,1-3.36,1A4.45,4.45,0,0,1,91.47,68.54Z"/><path class="cls-2" d="M110.63,59.9a2.71,2.71,0,0,0-.73-2.15,3.09,3.09,0,0,0-2.12-.64,3.93,3.93,0,0,0-2,.53,4.56,4.56,0,0,0-1.49,1.28V69.21h-4V48.09h4v7.82a6.92,6.92,0,0,1,2.23-1.68,7.08,7.08,0,0,1,3.15-.7,5,5,0,0,1,3.72,1.27,4.82,4.82,0,0,1,1.25,3.55V69.21h-4Z"/><path class="cls-2" d="M119,51a2.36,2.36,0,0,1,0-3.39,2.32,2.32,0,0,1,1.69-.71,2.29,2.29,0,0,1,1.71.7,2.41,2.41,0,0,1,0,3.4,2.37,2.37,0,0,1-3.4,0Zm-.31,3h4v15.3h-4Z"/><path class="cls-2" d="M127.07,64.43a8.14,8.14,0,0,0,2.41,1.46,7.51,7.51,0,0,0,2.88.63,3.6,3.6,0,0,0,1.92-.42,1.29,1.29,0,0,0,.64-1.15,1.19,1.19,0,0,0-.76-1.11,9.24,9.24,0,0,0-2.31-.71,21.6,21.6,0,0,1-3-.76A4.91,4.91,0,0,1,126.72,61a3.75,3.75,0,0,1-.89-2.64,4.21,4.21,0,0,1,.75-2.41,5.07,5.07,0,0,1,2.17-1.76,8.09,8.09,0,0,1,3.36-.65,9.64,9.64,0,0,1,6.17,2.09l-1.61,2.76a5.73,5.73,0,0,0-1.95-1.27,6.81,6.81,0,0,0-2.58-.5,3.41,3.41,0,0,0-1.76.38,1.16,1.16,0,0,0-.65,1,1.07,1.07,0,0,0,.71,1,11.13,11.13,0,0,0,2.2.65,21.26,21.26,0,0,1,3.08.79,5.31,5.31,0,0,1,2.15,1.47,4,4,0,0,1,.92,2.76,4.37,4.37,0,0,1-.78,2.53A5,5,0,0,1,135.73,69a9.17,9.17,0,0,1-3.56.63,11.64,11.64,0,0,1-3.82-.63,8.48,8.48,0,0,1-3-1.74Z"/><path class="cls-2" d="M160.07,58.79l-3.23,10.42h-4.31l-4.65-15.3h4.18l2.85,10.3,3.36-10.3h3.58l3.35,10.3,2.85-10.3h4.18l-4.65,15.3H163.3Z"/><path class="cls-2" d="M174.26,57.52a7.72,7.72,0,0,1,2.82-2.91,7.81,7.81,0,0,1,4.09-1.08,7.49,7.49,0,0,1,4,1.07,7.13,7.13,0,0,1,2.7,3,9.55,9.55,0,0,1,1,4.39v.89H177.46a3.93,3.93,0,0,0,1.36,2.55,4.48,4.48,0,0,0,3,1A6.38,6.38,0,0,0,184.1,66,5.22,5.22,0,0,0,186,64.9l1.77,2.6a7.59,7.59,0,0,1-2.78,1.57,11.18,11.18,0,0,1-3.52.55,8.67,8.67,0,0,1-4.18-1,7.23,7.23,0,0,1-2.93-2.82,8.8,8.8,0,0,1-.05-8.28Zm4.25.24a4.09,4.09,0,0,0-1.11,2.36h7.54a3.94,3.94,0,0,0-1-2.34,4,4,0,0,0-5.4,0Z"/><path class="cls-2" d="M191.78,57.52a7.58,7.58,0,0,1,2.82-2.91,7.77,7.77,0,0,1,4.08-1.08,7.49,7.49,0,0,1,4,1.07,7.16,7.16,0,0,1,2.71,3,9.68,9.68,0,0,1,1,4.39v.89H195a3.89,3.89,0,0,0,1.36,2.55,4.46,4.46,0,0,0,3,1,6.33,6.33,0,0,0,2.23-.42,5,5,0,0,0,1.85-1.11l1.78,2.6a7.56,7.56,0,0,1-2.79,1.57,11.13,11.13,0,0,1-3.52.55,8.69,8.69,0,0,1-4.18-1,7.29,7.29,0,0,1-2.93-2.82,8.36,8.36,0,0,1-1.06-4.24A8.11,8.11,0,0,1,191.78,57.52Zm4.24.24a4.21,4.21,0,0,0-1.11,2.36h7.54a3.88,3.88,0,0,0-1-2.34,4,4,0,0,0-5.4,0Z"/><path class="cls-2" d="M215.12,63.32l-1.84,2v3.93h-4V48.09h4V60.72l5.8-6.81H224L218,60.85l6.24,8.36h-5Z"/><path class="cls-2" d="M225.57,57.52a7.72,7.72,0,0,1,2.82-2.91,7.81,7.81,0,0,1,4.09-1.08,7.49,7.49,0,0,1,4,1.07,7.13,7.13,0,0,1,2.7,3,9.55,9.55,0,0,1,1,4.39v.89H228.77a3.93,3.93,0,0,0,1.36,2.55,4.48,4.48,0,0,0,3,1,6.38,6.38,0,0,0,2.24-.42,5.13,5.13,0,0,0,1.85-1.11L239,67.5a7.59,7.59,0,0,1-2.78,1.57,11.18,11.18,0,0,1-3.52.55,8.67,8.67,0,0,1-4.18-1,7.23,7.23,0,0,1-2.93-2.82,8.8,8.8,0,0,1-.05-8.28Zm4.25.24a4.09,4.09,0,0,0-1.11,2.36h7.54a3.94,3.94,0,0,0-1-2.34,4,4,0,0,0-5.4,0Z"/><path class="cls-2" d="M253.38,60a2.81,2.81,0,0,0-.73-2.18,3,3,0,0,0-2.09-.67,3.92,3.92,0,0,0-2,.53,4.69,4.69,0,0,0-1.47,1.28V69.21h-4V53.91h4v2a7,7,0,0,1,5.35-2.38,4.45,4.45,0,0,1,5,4.88v10.8h-4Z"/><path class="cls-2" d="M271.91,67.25A6.24,6.24,0,0,1,269.8,69a5.69,5.69,0,0,1-2.61.61,6.45,6.45,0,0,1-3.48-1,6.32,6.32,0,0,1-2.43-2.76,11,11,0,0,1,0-8.58,6.61,6.61,0,0,1,2.41-2.81,6.31,6.31,0,0,1,3.5-1,5.91,5.91,0,0,1,2.6.61,6,6,0,0,1,2.12,1.74V48.09h4V69.21h-4Zm0-8.39a3.8,3.8,0,0,0-1.49-1.25,4.38,4.38,0,0,0-2-.5,3.54,3.54,0,0,0-2.79,1.24,4.78,4.78,0,0,0-1.08,3.25,4.72,4.72,0,0,0,1.08,3.21,3.54,3.54,0,0,0,2.79,1.24,4.38,4.38,0,0,0,2-.5,3.8,3.8,0,0,0,1.49-1.25Z"/><path class="cls-2" d="M280.22,65.19a2.42,2.42,0,0,1,1.79-.76A2.6,2.6,0,0,1,284.58,67a2.42,2.42,0,0,1-.76,1.77,2.46,2.46,0,0,1-1.81.76,2.42,2.42,0,0,1-1.79-.76,2.48,2.48,0,0,1-.74-1.77A2.52,2.52,0,0,1,280.22,65.19Zm-.65-17.1h4.85l-.63,14.25h-3.55Z"/><path class="cls-3" d="M21.24,99.35a7,7,0,0,1-2.8-.51,6.08,6.08,0,0,1-2-1.34l1.15-1.59A5.53,5.53,0,0,0,19.16,97a4.6,4.6,0,0,0,2.17.49,3.35,3.35,0,0,0,1.07-.14,2,2,0,0,0,.72-.36,1.49,1.49,0,0,0,.4-.52,1.38,1.38,0,0,0,.14-.59,1,1,0,0,0-.5-.93,5.29,5.29,0,0,0-1.26-.56c-.51-.15-1.06-.29-1.64-.43a8.6,8.6,0,0,1-1.64-.58,3.48,3.48,0,0,1-1.26-1,2.69,2.69,0,0,1-.5-1.7,3,3,0,0,1,.31-1.36A3.22,3.22,0,0,1,18,88.26a3.82,3.82,0,0,1,1.34-.72,5.31,5.31,0,0,1,1.75-.27,6.82,6.82,0,0,1,2.46.43,5.64,5.64,0,0,1,1.9,1.22l-1.16,1.52a4.34,4.34,0,0,0-1.58-1,5.18,5.18,0,0,0-1.82-.33,2.28,2.28,0,0,0-1.42.41,1.26,1.26,0,0,0-.54,1,.94.94,0,0,0,.5.84,5.15,5.15,0,0,0,1.26.51l1.64.42a7.5,7.5,0,0,1,1.64.62,3.67,3.67,0,0,1,1.26,1,2.83,2.83,0,0,1,.5,1.74,3.62,3.62,0,0,1-.27,1.39,3.06,3.06,0,0,1-.81,1.16,4.15,4.15,0,0,1-1.41.79A6.47,6.47,0,0,1,21.24,99.35Z"/><path class="cls-3" d="M33.3,99.14V93.82a1.64,1.64,0,0,0-.45-1.35,2,2,0,0,0-1.25-.36,2.35,2.35,0,0,0-1.28.35,3.11,3.11,0,0,0-.89.77v5.91H27.6V87.47h1.83v4.36a3.52,3.52,0,0,1,.52-.49,3.61,3.61,0,0,1,.68-.44,3.81,3.81,0,0,1,1.78-.42,2.82,2.82,0,0,1,2.05.68,2.74,2.74,0,0,1,.68,2v6Z"/><path class="cls-3" d="M41.36,99.35A4.54,4.54,0,0,1,39.54,99a4,4,0,0,1-1.37-1,4.21,4.21,0,0,1-.86-1.41,4.84,4.84,0,0,1-.3-1.71,4.9,4.9,0,0,1,.3-1.72,4.21,4.21,0,0,1,.86-1.41,4,4,0,0,1,1.37-1,4.38,4.38,0,0,1,1.82-.35,4.44,4.44,0,0,1,1.82.35,4,4,0,0,1,1.36,1,4.05,4.05,0,0,1,.86,1.41,4.9,4.9,0,0,1,.3,1.72,4.84,4.84,0,0,1-.3,1.71A4.14,4.14,0,0,1,43.18,99,4.61,4.61,0,0,1,41.36,99.35Zm0-1.62a2.24,2.24,0,0,0,1.81-.84,2.69,2.69,0,0,0,.46-.91,3.47,3.47,0,0,0,.16-1.07,3.42,3.42,0,0,0-.16-1.07,2.59,2.59,0,0,0-.46-.89,2.41,2.41,0,0,0-.76-.62,2.38,2.38,0,0,0-1-.22,2.33,2.33,0,0,0-1,.22,2.45,2.45,0,0,0-.77.62,2.61,2.61,0,0,0-.47.89,3.74,3.74,0,0,0-.16,1.07A3.79,3.79,0,0,0,39.08,96a2.71,2.71,0,0,0,.47.91,2.42,2.42,0,0,0,.77.61A2.34,2.34,0,0,0,41.36,97.73Z"/><path class="cls-3" d="M52.12,99.35A3.3,3.3,0,0,1,50.63,99a3.71,3.71,0,0,1-1.22-1v4.4H47.57V90.69h1.84v1.15a3.48,3.48,0,0,1,1.17-1,3.21,3.21,0,0,1,1.54-.37,3.73,3.73,0,0,1,1.51.3,3.13,3.13,0,0,1,1.18.86A4.26,4.26,0,0,1,55.59,93a5.76,5.76,0,0,1,.28,1.88,5.7,5.7,0,0,1-.28,1.87,4.16,4.16,0,0,1-.78,1.39,3.42,3.42,0,0,1-1.18.88A3.73,3.73,0,0,1,52.12,99.35Zm-.54-1.62a2.15,2.15,0,0,0,1.75-.79,3.49,3.49,0,0,0,0-4.06,2.17,2.17,0,0,0-1.75-.77,2.56,2.56,0,0,0-1.25.32,2.51,2.51,0,0,0-.92.8v3.34a2.8,2.8,0,0,0,.39.46,2.75,2.75,0,0,0,.53.36,2.7,2.7,0,0,0,.61.25A2.41,2.41,0,0,0,51.58,97.73Z"/><path class="cls-3" d="M62.23,99.14V87.47h1.84v4.39a3.31,3.31,0,0,1,1.21-1,3.24,3.24,0,0,1,1.5-.35,3.73,3.73,0,0,1,1.51.3,3.36,3.36,0,0,1,1.19.89,3.89,3.89,0,0,1,.78,1.4,5.6,5.6,0,0,1,.28,1.84,5.7,5.7,0,0,1-.28,1.87,4,4,0,0,1-.78,1.4,3.33,3.33,0,0,1-1.2.88,3.93,3.93,0,0,1-1.5.29A3.25,3.25,0,0,1,65.26,99a3.6,3.6,0,0,1-1.19-1v1.15Zm1.84-2.53a2.45,2.45,0,0,0,.91.79,2.64,2.64,0,0,0,1.27.33A2.15,2.15,0,0,0,68,96.94a3.16,3.16,0,0,0,.63-2,3.67,3.67,0,0,0-.16-1.13,2.54,2.54,0,0,0-.48-.89,2.27,2.27,0,0,0-.76-.57,2.21,2.21,0,0,0-1-.21,2.64,2.64,0,0,0-1.27.33,2.56,2.56,0,0,0-.91.8Z"/><path class="cls-3" d="M73.33,89.65a1.14,1.14,0,1,1,.8-.33A1.1,1.1,0,0,1,73.33,89.65Zm-.93,9.49V90.69h1.84v8.45Z"/><path class="cls-3" d="M80.07,102.58a6,6,0,0,1-1.93-.28,4.61,4.61,0,0,1-1.63-1l.86-1.34a3,3,0,0,0,1.19.85,4.47,4.47,0,0,0,1.51.24A4,4,0,0,0,81,101a2.2,2.2,0,0,0,.81-.4,2,2,0,0,0,.57-.72,2.53,2.53,0,0,0,.22-1.13v-1a3.77,3.77,0,0,1-1.18,1,3.15,3.15,0,0,1-1.53.38,3.72,3.72,0,0,1-1.5-.29A3.23,3.23,0,0,1,77.17,98a4.06,4.06,0,0,1-.78-1.35,5.6,5.6,0,0,1-.28-1.86A5.51,5.51,0,0,1,76.39,93a4,4,0,0,1,.78-1.36,3.18,3.18,0,0,1,1.18-.85,3.73,3.73,0,0,1,1.51-.29,3.21,3.21,0,0,1,1.5.35,3.39,3.39,0,0,1,1.21,1V90.69h1.84v8A4.07,4.07,0,0,1,84,100.6a3.17,3.17,0,0,1-1,1.19,4,4,0,0,1-1.4.61A6.9,6.9,0,0,1,80.07,102.58Zm.33-5.06a2.58,2.58,0,0,0,1.25-.34,2.66,2.66,0,0,0,.92-.78V93.23a2.8,2.8,0,0,0-2.17-1.12,2.19,2.19,0,0,0-1.75.74,2.91,2.91,0,0,0-.65,2,2.86,2.86,0,0,0,.65,2A2.22,2.22,0,0,0,80.4,97.52Z"/><path class="cls-3" d="M97.26,99.14V98a3.77,3.77,0,0,1-1.18,1,3.26,3.26,0,0,1-1.53.36,3.89,3.89,0,0,1-1.5-.29,3.22,3.22,0,0,1-1.19-.88,4.21,4.21,0,0,1-.78-1.4,5.7,5.7,0,0,1-.28-1.87,5.6,5.6,0,0,1,.28-1.84,4.21,4.21,0,0,1,.78-1.4A3.41,3.41,0,0,1,93,90.78a3.73,3.73,0,0,1,1.51-.3,3.21,3.21,0,0,1,1.5.35,3.39,3.39,0,0,1,1.21,1V87.47H99.1V99.14Zm-2.17-1.41a2.41,2.41,0,0,0,.64-.09,2.7,2.7,0,0,0,.61-.25,2.75,2.75,0,0,0,.53-.36,2,2,0,0,0,.39-.44V93.24a2.57,2.57,0,0,0-.39-.43,2.8,2.8,0,0,0-.53-.37,2.7,2.7,0,0,0-.61-.25,2.39,2.39,0,0,0-.64-.08,2.29,2.29,0,0,0-1,.21,2.33,2.33,0,0,0-.75.57,2.54,2.54,0,0,0-.48.89,3.67,3.67,0,0,0-.17,1.13A3.72,3.72,0,0,0,92.86,96a2.63,2.63,0,0,0,.48.89,2.26,2.26,0,0,0,.75.59A2.29,2.29,0,0,0,95.09,97.73Z"/><path class="cls-3" d="M102.41,89.65a1.14,1.14,0,1,1,.8-1.94,1.12,1.12,0,0,1,0,1.61A1.09,1.09,0,0,1,102.41,89.65Zm-.93,9.49V90.69h1.84v8.45Z"/><path class="cls-3" d="M108.61,99.35a5.73,5.73,0,0,1-2-.34,4.32,4.32,0,0,1-1.6-1l.84-1.31a3.65,3.65,0,0,0,.55.44,4.19,4.19,0,0,0,.7.37,4.33,4.33,0,0,0,.79.27,3.88,3.88,0,0,0,.82.09,2.17,2.17,0,0,0,1.26-.3,1,1,0,0,0,.42-.82.68.68,0,0,0-.38-.63,4.22,4.22,0,0,0-.94-.35l-1.24-.28a5,5,0,0,1-1.23-.42,2.71,2.71,0,0,1-.95-.75,2.05,2.05,0,0,1-.38-1.3,2.39,2.39,0,0,1,.22-1,2.47,2.47,0,0,1,.64-.81,3.12,3.12,0,0,1,1-.55,4.49,4.49,0,0,1,1.43-.2,5,5,0,0,1,1.9.33,4.71,4.71,0,0,1,1.38.84l-.77,1.3a3.24,3.24,0,0,0-1-.72,3.43,3.43,0,0,0-1.46-.3,1.89,1.89,0,0,0-1.14.3A.89.89,0,0,0,107,93a.61.61,0,0,0,.38.56,4.18,4.18,0,0,0,1,.33l1.23.28a5.42,5.42,0,0,1,1.23.43,2.81,2.81,0,0,1,1,.79,2.18,2.18,0,0,1,.38,1.34,2.51,2.51,0,0,1-.23,1.05,2.2,2.2,0,0,1-.68.84,3.24,3.24,0,0,1-1.1.55A5,5,0,0,1,108.61,99.35Z"/><path class="cls-3" d="M117.82,99.35a4.52,4.52,0,0,1-1.76-.33,4.1,4.1,0,0,1-1.38-.93,4.26,4.26,0,0,1-.9-1.41,5.06,5.06,0,0,1,0-3.54,4.32,4.32,0,0,1,.9-1.4,4.1,4.1,0,0,1,1.38-.93,4.52,4.52,0,0,1,1.76-.33,4.9,4.9,0,0,1,1.13.12,3.74,3.74,0,0,1,.89.33,3.52,3.52,0,0,1,.69.48,4.55,4.55,0,0,1,.52.57l-1.2,1.11a2.25,2.25,0,0,0-1.95-1,2.38,2.38,0,0,0-1.85.77,2.91,2.91,0,0,0-.7,2,3.43,3.43,0,0,0,.18,1.13,2.57,2.57,0,0,0,.53.89,2.35,2.35,0,0,0,.8.59,2.51,2.51,0,0,0,1,.21,2.27,2.27,0,0,0,1.95-1l1.2,1.14a4.09,4.09,0,0,1-1.22,1.05A4,4,0,0,1,117.82,99.35Z"/><path class="cls-3" d="M126.52,99.35A4.54,4.54,0,0,1,124.7,99a4,4,0,0,1-1.37-1,4.21,4.21,0,0,1-.86-1.41,4.84,4.84,0,0,1-.29-1.71,4.89,4.89,0,0,1,.29-1.72,4.21,4.21,0,0,1,.86-1.41,4,4,0,0,1,1.37-1,4.38,4.38,0,0,1,1.82-.35,4.44,4.44,0,0,1,1.82.35,3.92,3.92,0,0,1,1.36,1,4.05,4.05,0,0,1,.86,1.41,4.9,4.9,0,0,1,.3,1.72,4.84,4.84,0,0,1-.3,1.71A4.05,4.05,0,0,1,129.7,98a4,4,0,0,1-1.36,1A4.61,4.61,0,0,1,126.52,99.35Zm0-1.62a2.38,2.38,0,0,0,1-.23,2.28,2.28,0,0,0,.76-.61,2.69,2.69,0,0,0,.46-.91,3.47,3.47,0,0,0,.16-1.07,3.42,3.42,0,0,0-.16-1.07,2.59,2.59,0,0,0-.46-.89,2.31,2.31,0,0,0-.76-.62,2.38,2.38,0,0,0-1-.22,2.33,2.33,0,0,0-1,.22,2.45,2.45,0,0,0-.77.62,2.61,2.61,0,0,0-.47.89,3.74,3.74,0,0,0-.16,1.07,3.79,3.79,0,0,0,.16,1.07,2.71,2.71,0,0,0,.47.91,2.42,2.42,0,0,0,.77.61A2.34,2.34,0,0,0,126.52,97.73Z"/><path class="cls-3" d="M138.44,99.14V98a4.29,4.29,0,0,1-1.22.92,3.55,3.55,0,0,1-1.76.41,2.74,2.74,0,0,1-2-.69,2.68,2.68,0,0,1-.69-2v-6h1.84V96a1.66,1.66,0,0,0,.47,1.36,1.9,1.9,0,0,0,1.25.38,2.43,2.43,0,0,0,1.27-.35,2.9,2.9,0,0,0,.88-.76V90.69h1.84v8.45Z"/><path class="cls-3" d="M148.39,99.14V93.86a1.7,1.7,0,0,0-.47-1.38,1.94,1.94,0,0,0-1.25-.37,2.31,2.31,0,0,0-1.27.35,3.31,3.31,0,0,0-.9.77v5.91h-1.84V90.69h1.84v1.14a3.08,3.08,0,0,1,.52-.49,3.39,3.39,0,0,1,.69-.44,4.08,4.08,0,0,1,.83-.31,4.12,4.12,0,0,1,1-.11,2.43,2.43,0,0,1,2.73,2.71v6Z"/><path class="cls-3" d="M155.16,99.35a2.15,2.15,0,0,1-1.63-.56,2.23,2.23,0,0,1-.54-1.62V92.28h-1.4V90.69H153V88.38h1.84v2.31h1.71v1.59h-1.71v4.43a1.23,1.23,0,0,0,.2.73.68.68,0,0,0,.6.29,1.3,1.3,0,0,0,.49-.1.9.9,0,0,0,.32-.22l.44,1.4a2.23,2.23,0,0,1-.67.39A3.15,3.15,0,0,1,155.16,99.35Z"/><path class="cls-3" d="M161.1,99.35a5.82,5.82,0,0,1-2-.34,4.28,4.28,0,0,1-1.59-1l.84-1.31a3.54,3.54,0,0,0,.54.44,5.42,5.42,0,0,0,1.5.64,3.88,3.88,0,0,0,.82.09,2.17,2.17,0,0,0,1.26-.3,1,1,0,0,0,.42-.82.68.68,0,0,0-.38-.63,4.13,4.13,0,0,0-.95-.35l-1.23-.28a4.82,4.82,0,0,1-1.23-.42,2.71,2.71,0,0,1-.95-.75,2.05,2.05,0,0,1-.38-1.3,2.39,2.39,0,0,1,.22-1,2.47,2.47,0,0,1,.64-.81,3.12,3.12,0,0,1,1-.55,4.49,4.49,0,0,1,1.43-.2,5,5,0,0,1,1.9.33,4.53,4.53,0,0,1,1.37.84l-.77,1.3a3.09,3.09,0,0,0-1-.72,3.43,3.43,0,0,0-1.46-.3,1.94,1.94,0,0,0-1.15.3.91.91,0,0,0-.41.75.61.61,0,0,0,.38.56,4.08,4.08,0,0,0,.94.33l1.24.28a5.42,5.42,0,0,1,1.23.43,2.81,2.81,0,0,1,1,.79,2.17,2.17,0,0,1,.37,1.34,2.5,2.5,0,0,1-.22,1.05,2.2,2.2,0,0,1-.68.84,3.24,3.24,0,0,1-1.1.55A5,5,0,0,1,161.1,99.35Z"/><path class="cls-3" d="M176.49,99.35a6.27,6.27,0,0,1-2.41-.45,5.59,5.59,0,0,1-1.89-1.26A5.78,5.78,0,0,1,171,95.73a7,7,0,0,1,0-4.83A5.78,5.78,0,0,1,172.19,89a5.59,5.59,0,0,1,1.89-1.26,6.52,6.52,0,0,1,4.81,0A5.59,5.59,0,0,1,180.78,89,5.92,5.92,0,0,1,182,90.9a6.71,6.71,0,0,1,0,4.83,5.92,5.92,0,0,1-1.23,1.91,5.59,5.59,0,0,1-1.89,1.26A6.25,6.25,0,0,1,176.49,99.35Zm0-1.82a3.77,3.77,0,0,0,1.59-.32,3.64,3.64,0,0,0,1.22-.88,3.88,3.88,0,0,0,.78-1.34,5.36,5.36,0,0,0,0-3.36,3.93,3.93,0,0,0-.78-1.33,3.51,3.51,0,0,0-1.22-.88,4,4,0,0,0-3.2,0,3.66,3.66,0,0,0-1.21.88,3.93,3.93,0,0,0-.78,1.33,5.36,5.36,0,0,0,0,3.36,3.88,3.88,0,0,0,.78,1.34,3.66,3.66,0,0,0,2.82,1.2Z"/><path class="cls-3" d="M188.22,99.35a4.52,4.52,0,0,1-1.76-.33,4.1,4.1,0,0,1-1.38-.93,4.26,4.26,0,0,1-.9-1.41,5.06,5.06,0,0,1,0-3.54,4.32,4.32,0,0,1,.9-1.4,4.1,4.1,0,0,1,1.38-.93,4.52,4.52,0,0,1,1.76-.33,4.9,4.9,0,0,1,1.13.12,3.74,3.74,0,0,1,.89.33,3.52,3.52,0,0,1,.69.48,5.6,5.6,0,0,1,.53.57l-1.21,1.11a2.25,2.25,0,0,0-1.95-1,2.39,2.39,0,0,0-1.85.77,2.91,2.91,0,0,0-.7,2,3.43,3.43,0,0,0,.18,1.13,2.57,2.57,0,0,0,.53.89,2.35,2.35,0,0,0,.8.59,2.51,2.51,0,0,0,1,.21,2.27,2.27,0,0,0,1.95-1l1.21,1.14a4.27,4.27,0,0,1-1.23,1.05A3.94,3.94,0,0,1,188.22,99.35Z"/><path class="cls-3" d="M195.64,99.35a2.15,2.15,0,0,1-1.63-.56,2.23,2.23,0,0,1-.54-1.62V92.28h-1.4V90.69h1.4V88.38h1.84v2.31H197v1.59h-1.71v4.43a1.23,1.23,0,0,0,.2.73.68.68,0,0,0,.6.29,1.21,1.21,0,0,0,.48-.1.86.86,0,0,0,.33-.22l.44,1.4a2.23,2.23,0,0,1-.67.39A3.15,3.15,0,0,1,195.64,99.35Z"/><path class="cls-3" d="M206.83,99.35a6,6,0,0,1-2.68-.55,4.63,4.63,0,0,1-1.73-1.34l1.12-1.34a3.82,3.82,0,0,0,1.41,1,4.51,4.51,0,0,0,1.81.37,2.85,2.85,0,0,0,1.79-.49,1.53,1.53,0,0,0,.64-1.29,1.36,1.36,0,0,0-.66-1.27,3.88,3.88,0,0,0-1.93-.4h-.78l-.55,0V92.25h1.33a5.64,5.64,0,0,0,1-.08,2.27,2.27,0,0,0,.76-.28,1.48,1.48,0,0,0,.51-.48,1.19,1.19,0,0,0,.19-.69,1.25,1.25,0,0,0-.19-.7,1.39,1.39,0,0,0-.51-.51,2.56,2.56,0,0,0-.75-.3,3.8,3.8,0,0,0-.92-.11,4.06,4.06,0,0,0-3,1.3l-1.05-1.28a5.22,5.22,0,0,1,1.75-1.32,5.63,5.63,0,0,1,2.53-.52,6.06,6.06,0,0,1,1.71.22,4,4,0,0,1,1.32.62,2.78,2.78,0,0,1,.86,1,2.67,2.67,0,0,1,.31,1.31,2.39,2.39,0,0,1-.23,1.06,2.6,2.6,0,0,1-.59.79,3.38,3.38,0,0,1-1.7.82,3.76,3.76,0,0,1,.89.25,3.37,3.37,0,0,1,.88.54,2.88,2.88,0,0,1,.68.86,2.65,2.65,0,0,1,.26,1.2,3.06,3.06,0,0,1-1.19,2.45,4.44,4.44,0,0,1-1.39.71A6.14,6.14,0,0,1,206.83,99.35Z"/><path class="cls-3" d="M212.57,95.69V94.12h9.33v1.57Z"/><path class="cls-3" d="M229.19,99.14V96.5h-5.57V94.85l4.8-7.38h2.81v7.21h1.56V96.5h-1.56v2.64Zm0-9.84-3.56,5.38h3.56Z"/><g id="white_logo" data-name="white logo"><g class="cls-4"><g class="cls-4"><path class="cls-2" d="M34,157.16c14-4.27,21,6.43,21,6.43s-4.44-14.94-21-6.43"/><path class="cls-2" d="M61,157.71a4.17,4.17,0,0,1,0-.5,10.42,10.42,0,0,0-5.52,8,11.09,11.09,0,0,1,6.38-5.77,2.61,2.61,0,0,1-.86-1.75"/><path class="cls-2" d="M43.17,164s0,2.11,0,3.17c-.53,0-2.85-.14-3.87-.18,0,.57,0,1.16,0,1.73,1.22,0,2.49.17,3.71.15,0,1,0,1.91,0,2.93-1.22,0-2.45-.09-3.67-.12l0,1.87c1.31,0,2.63.14,3.94.12,0,0,0,3.12,0,3.12-2.61,0-5.69-.21-8.61-.45l.21-13c1.23.15,5,.55,8.36.66"/><path class="cls-2" d="M44.28,164l-.05,3.4c1.23.06,2.33.06,2.33.06v9.42a29.47,29.47,0,0,0,4.69-.06l-.06-9.33s2.08-.1,2.4-.13c0-1.24,0-2.22,0-3.46a81.69,81.69,0,0,1-9.26.1"/><path class="cls-2" d="M107,161.91c0,1.35,0,2.59,0,3.94.79.05,1.7.21,2.49.28,0,3.28-.08,5.76-.08,9.05,2.21.26,3.77.52,4.38.63,0-3.28.13-5.87.13-9.16,0,0,2.34.37,2.39.4V163a73.64,73.64,0,0,0-9.3-1.09"/><path class="cls-2" d="M28.05,168.25l-.41,0c0-.89,0-1.78,0-2.68l.39.05A1.35,1.35,0,0,1,29.41,167c0,1.1-.69,1.31-1.36,1.24m1-6.28-5.57-1,0,13.63c1.42.28,2.73.52,4.12.67l0-3.93,1.5.16c2.41.22,4.85-.69,4.88-4.63,0-3.5-2.3-4.51-4.88-4.89"/><path class="cls-2" d="M75.51,174.63c.63-1.62,1.25-3.14,1.87-4.76.1,1.55.16,3,.26,4.51,1.56-.17,2.8-.26,4.37-.36-.41-4.14-.75-8.58-1.16-12.72-1.33.11-2.67.24-4,.37-.75,2-1.5,4.33-2.25,6.28-.72-1.81-1.44-3.93-2.17-5.74-1.35.19-3.76.61-4,.62-.46,4.22-1,8.91-1.45,13.13,1.06-.18,3.67-.6,4.45-.7.12-1.58.24-3.26.36-4.84l1.81,4.51c.33,0,1.53-.23,1.93-.3"/><path class="cls-2" d="M100.21,167.49l-.41,0,0-2.63.4,0a1.31,1.31,0,0,1,1.36,1.38,1.13,1.13,0,0,1-1.38,1.25m3.87,2.81c1.19-.54,2-1.69,2.07-4,0-3.45-2.39-4.92-4.85-5.11-1.87-.15-3.73-.25-5.6-.3-.06,4.38-.08,8.39-.14,12.77,1.39,0,2.93.14,4.14.24,0-1.23,0-2.14.06-3.38.79,1.29,1.45,2.35,2.24,3.66,1.72.15,3.48.37,5.19.63-1.07-1.61-2-3-3.11-4.54"/><path class="cls-2" d="M87.78,169.45c.29-1.09.58-2.24.87-3.32.33,1.09.67,2.18,1,3.27-1.91.07-1.91,0-1.87,0m3-8.62c-1.65,0-3,0-4.43.09-1.14,4.24-2.48,8.79-3.62,13.05,1.27,0,2.55-.11,3.82-.11.12-.45.25-1,.37-1.42l1.93-.05s1.71,0,1.71,0c.05.17.21.61.43,1.35,1.27,0,2.54,0,3.8,0-1.37-4.5-2.75-8.82-4-12.9"/><path class="cls-2" d="M55,175.65a11.49,11.49,0,0,0,5.15,1.3c2.92,0,6-1.74,6-5,0-2.33-1.43-3.43-3.49-3.89l-1.1-.25c-.38-.09-1-.16-1-.67s.64-.73,1.06-.73a7.77,7.77,0,0,1,3,.63l1.23-3.28a9.71,9.71,0,0,0-4.24-1c-2.93,0-5.87,1.77-5.94,5,0,2.14,1.54,3.31,3.45,3.67l1,.18c.45.09,1.09.14,1.08.76s-.77.69-1.25.69A5.72,5.72,0,0,1,56.63,172c-.5,1.14-1.1,2.55-1.61,3.69"/><path class="cls-2" d="M65.56,153.44a3.28,3.28,0,1,0,3.24,3.32,3.28,3.28,0,0,0-3.24-3.32m1.19,1.21a3.94,3.94,0,0,0-3.52,2.06s0,0,0,0a2.38,2.38,0,0,1,.08-.91A2.23,2.23,0,0,1,66,154.26a2,2,0,0,1,.78.41l0,0"/></g></g></g><path class="cls-3" d="M300,219.56c-14.19-27.25-44.59-46.09-79.71-46.09-47.12,0-84.89,30.6-87.89,76.23H300Z"/><path class="cls-3" d="M300,219.56c-14.19-27.25-44.59-46.09-79.71-46.09-47.12,0-84.89,30.6-87.89,76.23H300Z"/></g></g></svg>