<svg xmlns="http://www.w3.org/2000/svg" viewBox="0 0 728 90"><g id="Layer_2" data-name="Layer 2"><g id="CTA"><rect width="728" height="90" fill="none"/><path d="M700.38,42.54H598.69a12.31,12.31,0,0,1-12.32-12.32V28.94a12.31,12.31,0,0,1,12.32-12.32h101.7a12.32,12.32,0,0,1,12.32,12.32v1.28A12.33,12.33,0,0,1,700.38,42.54Z" fill="#e52823"/><path d="M604.59,31.43a4.56,4.56,0,0,0,1.37,1,4.07,4.07,0,0,0,1.75.37,2.35,2.35,0,0,0,1.48-.4,1.2,1.2,0,0,0,.49-1,.88.88,0,0,0-.28-.68,2.12,2.12,0,0,0-.74-.43c-.3-.11-.7-.22-1.22-.36a14.48,14.48,0,0,1-1.8-.54,3.19,3.19,0,0,1-1.19-.87A2.28,2.28,0,0,1,604,27a2.54,2.54,0,0,1,.44-1.47,3,3,0,0,1,1.27-1,4.27,4.27,0,0,1,1.86-.38,5.11,5.11,0,0,1,3.7,1.38l-1,1.29a3.8,3.8,0,0,0-1.31-.85,4.29,4.29,0,0,0-1.55-.27,1.93,1.93,0,0,0-1.21.33,1.05,1.05,0,0,0-.45.89.78.78,0,0,0,.28.6,2.14,2.14,0,0,0,.7.38c.28.1.68.21,1.19.34a15.51,15.51,0,0,1,1.83.58,3.24,3.24,0,0,1,1.22.89,2.39,2.39,0,0,1,.51,1.59,2.78,2.78,0,0,1-1.68,2.64,4.82,4.82,0,0,1-2.13.4,5.92,5.92,0,0,1-2.31-.41,4.92,4.92,0,0,1-1.69-1.15Z" fill="#fff"/><path d="M613,28.68a3.52,3.52,0,0,1,3.15-1.85,3.4,3.4,0,0,1,1.84.5,3.46,3.46,0,0,1,1.24,1.38,4.62,4.62,0,0,1,.43,2v.38h-5.5a2.16,2.16,0,0,0,2.27,2,3,3,0,0,0,1.09-.21,2.65,2.65,0,0,0,.93-.57l.71,1a3.69,3.69,0,0,1-1.29.77,4.71,4.71,0,0,1-1.6.26,3.92,3.92,0,0,1-1.92-.46A3.54,3.54,0,0,1,613,32.56a4.12,4.12,0,0,1,0-3.88Zm1.71,0a2.19,2.19,0,0,0-.57,1.32h4a2,2,0,0,0-.23-.89,1.9,1.9,0,0,0-.66-.72,2.07,2.07,0,0,0-1.11-.28A1.88,1.88,0,0,0,614.74,28.66Z" fill="#fff"/><path d="M621.25,28.68a3.52,3.52,0,0,1,3.15-1.85,3.4,3.4,0,0,1,1.84.5,3.46,3.46,0,0,1,1.24,1.38,4.62,4.62,0,0,1,.43,2v.38h-5.5a2.16,2.16,0,0,0,2.27,2,3,3,0,0,0,1.09-.21,2.65,2.65,0,0,0,.93-.57l.71,1a3.69,3.69,0,0,1-1.29.77,4.71,4.71,0,0,1-1.6.26,3.92,3.92,0,0,1-1.92-.46,3.47,3.47,0,0,1-1.34-1.32,4,4,0,0,1-.49-2A4.09,4.09,0,0,1,621.25,28.68Zm1.72,0A2.19,2.19,0,0,0,622.4,30h4a2,2,0,0,0-.23-.89,1.9,1.9,0,0,0-.66-.72,2.07,2.07,0,0,0-1.11-.28A1.87,1.87,0,0,0,623,28.66Z" fill="#fff"/><path d="M634,33.86a1.88,1.88,0,0,1-.46-1.37V28.36h-1.19V27h1.19V25.05h1.55V27h1.45v1.36h-1.45v3.75a1,1,0,0,0,.18.62.61.61,0,0,0,.5.23,1.14,1.14,0,0,0,.41-.07.9.9,0,0,0,.28-.18l.38,1.17a2,2,0,0,1-1.46.45A2,2,0,0,1,634,33.86Z" fill="#fff"/><path d="M642.79,29.64a1.44,1.44,0,0,0-.38-1.12,1.54,1.54,0,0,0-1.07-.33,2.07,2.07,0,0,0-1,.28,2.8,2.8,0,0,0-.8.68v5H638V24.27h1.56V28a3,3,0,0,1,1.07-.81,3.17,3.17,0,0,1,1.46-.34,2.41,2.41,0,0,1,1.73.57,2.27,2.27,0,0,1,.58,1.68v5H642.8V29.64Z" fill="#fff"/><path d="M646.36,28.68a3.63,3.63,0,0,1,1.29-1.35,3.58,3.58,0,0,1,1.87-.5,3.3,3.3,0,0,1,3.07,1.88,4.49,4.49,0,0,1,.44,2v.38h-5.51a2.22,2.22,0,0,0,.7,1.41,2.18,2.18,0,0,0,1.57.57,3.06,3.06,0,0,0,1.1-.21,2.65,2.65,0,0,0,.93-.57l.71,1a3.69,3.69,0,0,1-1.29.77,4.73,4.73,0,0,1-1.61.26,3.91,3.91,0,0,1-1.91-.46,3.49,3.49,0,0,1-1.35-1.32,4,4,0,0,1-.49-2A4.22,4.22,0,0,1,646.36,28.68Zm1.73,0a2.27,2.27,0,0,0-.58,1.32h4a2,2,0,0,0-.24-.89,1.82,1.82,0,0,0-.66-.72,2,2,0,0,0-1.1-.28A1.87,1.87,0,0,0,648.09,28.66Z" fill="#fff"/><path d="M658.41,24.28h3.66a5.67,5.67,0,0,1,2.68.63,4.51,4.51,0,0,1,1.82,1.75,5.33,5.33,0,0,1,0,5.1,4.55,4.55,0,0,1-1.82,1.74,5.44,5.44,0,0,1-2.68.63h-3.66Zm3.67,8.33a3.49,3.49,0,0,0,1.8-.45,3,3,0,0,0,1.17-1.22,4,4,0,0,0,0-3.46,3,3,0,0,0-1.16-1.23,3.54,3.54,0,0,0-1.83-.44h-1.94v6.8Z" fill="#fff"/><path d="M668.87,28.68a3.63,3.63,0,0,1,1.29-1.35,3.55,3.55,0,0,1,1.86-.5,3.3,3.3,0,0,1,3.08,1.88,4.49,4.49,0,0,1,.44,2v.38H670a2.26,2.26,0,0,0,.69,1.41,2.22,2.22,0,0,0,1.58.57,3.11,3.11,0,0,0,1.1-.21,2.52,2.52,0,0,0,.92-.57l.72,1a3.69,3.69,0,0,1-1.29.77,4.77,4.77,0,0,1-1.61.26,4,4,0,0,1-1.92-.46,3.54,3.54,0,0,1-1.34-1.32,4,4,0,0,1-.49-2A4.09,4.09,0,0,1,668.87,28.68Zm1.73,0A2.21,2.21,0,0,0,670,30h4a2,2,0,0,0-.24-.89,1.82,1.82,0,0,0-.66-.72,2.07,2.07,0,0,0-1.11-.28A1.86,1.86,0,0,0,670.6,28.66Z" fill="#fff"/><path d="M682.1,33.16a2.87,2.87,0,0,1-1,.85,2.68,2.68,0,0,1-1.27.31,3.12,3.12,0,0,1-1.64-.44,3,3,0,0,1-1.13-1.3,5.08,5.08,0,0,1,0-4,3,3,0,0,1,1.13-1.3,3,3,0,0,1,1.64-.46,2.78,2.78,0,0,1,1.26.3,2.85,2.85,0,0,1,1,.86V27h1.55v7.13H682.1Zm0-4a2.06,2.06,0,0,0-.79-.69,2.28,2.28,0,0,0-1.07-.28,1.85,1.85,0,0,0-1.46.66,3,3,0,0,0,0,3.43,1.82,1.82,0,0,0,1.46.66,2.3,2.3,0,0,0,1.07-.27,2.12,2.12,0,0,0,.79-.68Z" fill="#fff"/><path d="M686.12,33.86a1.88,1.88,0,0,1-.47-1.37V24.28h1.56v7.83a1,1,0,0,0,.18.62.59.59,0,0,0,.5.23,1.12,1.12,0,0,0,.4-.07.71.71,0,0,0,.28-.18l.37,1.17a2,2,0,0,1-1.45.45A2,2,0,0,1,686.12,33.86Z" fill="#fff"/><path d="M690,32.1a3.38,3.38,0,0,0,1.08.71,3.29,3.29,0,0,0,1.34.3,1.87,1.87,0,0,0,1-.23.73.73,0,0,0,.37-.65.7.7,0,0,0-.42-.65,5.47,5.47,0,0,0-1.21-.4,9.32,9.32,0,0,1-1.39-.37,2.11,2.11,0,0,1-.92-.64,1.69,1.69,0,0,1-.39-1.17,1.94,1.94,0,0,1,.33-1.09,2.3,2.3,0,0,1,1-.78,3.54,3.54,0,0,1,1.51-.3,4,4,0,0,1,2.78,1l-.65,1.1a2.4,2.4,0,0,0-.9-.62,3.05,3.05,0,0,0-1.22-.24,2,2,0,0,0-1,.22.65.65,0,0,0-.35.58.61.61,0,0,0,.39.57,6,6,0,0,0,1.17.37,8.76,8.76,0,0,1,1.4.39,2.42,2.42,0,0,1,1,.67,1.84,1.84,0,0,1,.4,1.25,2,2,0,0,1-.79,1.6,3.45,3.45,0,0,1-2.18.61,5.09,5.09,0,0,1-1.72-.28,3.69,3.69,0,0,1-1.34-.82Z" fill="#fff"/></g></g></svg>