<svg xmlns="http://www.w3.org/2000/svg" viewBox="0 0 728 90"><g id="Layer_2" data-name="Layer 2"><g id="REC"><rect width="728" height="90" fill="none"/></g><g id="subhed"><path d="M289.41,29.77a8,8,0,0,1-3.2-.59A7.16,7.16,0,0,1,284,27.65l1.32-1.82a6.54,6.54,0,0,0,1.75,1.3,5.29,5.29,0,0,0,2.47.56,4.37,4.37,0,0,0,1.23-.16,2.52,2.52,0,0,0,.82-.42,1.69,1.69,0,0,0,.46-.59,1.63,1.63,0,0,0,.15-.67,1.19,1.19,0,0,0-.57-1.07,5.37,5.37,0,0,0-1.44-.63c-.58-.18-1.2-.34-1.87-.5a9.18,9.18,0,0,1-1.87-.66A4.08,4.08,0,0,1,285,21.84a3.1,3.1,0,0,1-.57-1.95,3.49,3.49,0,0,1,.35-1.55,3.67,3.67,0,0,1,1-1.24,4.5,4.5,0,0,1,1.53-.83,6.31,6.31,0,0,1,2-.3,7.57,7.57,0,0,1,2.81.49,6.31,6.31,0,0,1,2.17,1.39l-1.32,1.74a4.78,4.78,0,0,0-1.81-1.17,5.87,5.87,0,0,0-2.07-.37,2.63,2.63,0,0,0-1.63.46,1.41,1.41,0,0,0-.61,1.2,1.07,1.07,0,0,0,.57,1,6.15,6.15,0,0,0,1.44.58l1.87.49a8.2,8.2,0,0,1,1.87.7,4.21,4.21,0,0,1,1.44,1.2,3.2,3.2,0,0,1,.57,2,4.24,4.24,0,0,1-.3,1.59,3.54,3.54,0,0,1-.93,1.32,4.54,4.54,0,0,1-1.61.9A7.29,7.29,0,0,1,289.41,29.77Z" fill="#e52823"/><path d="M303.19,29.53V23.45a1.88,1.88,0,0,0-.52-1.55,2.2,2.2,0,0,0-1.42-.41,2.7,2.7,0,0,0-1.47.4,3.54,3.54,0,0,0-1,.88v6.76h-2.1V16.19h2.1v5a4,4,0,0,1,.59-.56,3.85,3.85,0,0,1,.78-.5,4.05,4.05,0,0,1,.94-.35,4.23,4.23,0,0,1,1.09-.13,3.18,3.18,0,0,1,2.34.78,3.09,3.09,0,0,1,.78,2.28v6.84Z" fill="#e52823"/><path d="M312.39,29.77a5.11,5.11,0,0,1-2.08-.41,4.89,4.89,0,0,1-1.56-1.1,4.81,4.81,0,0,1-1-1.61,5.57,5.57,0,0,1-.34-2,5.49,5.49,0,0,1,.34-2,4.71,4.71,0,0,1,1-1.61A4.57,4.57,0,0,1,310.31,20a5.61,5.61,0,0,1,4.16,0A4.57,4.57,0,0,1,316,21.12a4.71,4.71,0,0,1,1,1.61,5.49,5.49,0,0,1,.34,2,5.57,5.57,0,0,1-.34,2,4.81,4.81,0,0,1-1,1.61,4.89,4.89,0,0,1-1.56,1.1A5.11,5.11,0,0,1,312.39,29.77Zm0-1.86a2.71,2.71,0,0,0,1.2-.26,2.61,2.61,0,0,0,.87-.7,3.24,3.24,0,0,0,.53-1,4.26,4.26,0,0,0,.18-1.23,4,4,0,0,0-.18-1.22,3.09,3.09,0,0,0-.53-1,2.39,2.39,0,0,0-.87-.7,2.58,2.58,0,0,0-1.2-.26,2.59,2.59,0,0,0-2.06,1,2.93,2.93,0,0,0-.54,1,4,4,0,0,0-.18,1.22,4.26,4.26,0,0,0,.18,1.23,3.07,3.07,0,0,0,.54,1,2.76,2.76,0,0,0,.88.7A2.66,2.66,0,0,0,312.39,27.91Z" fill="#e52823"/><path d="M324.69,29.77a3.72,3.72,0,0,1-1.71-.41,4.41,4.41,0,0,1-1.39-1.17v5h-2.1V19.87h2.1v1.32a4,4,0,0,1,1.34-1.14,3.72,3.72,0,0,1,1.76-.42,4.19,4.19,0,0,1,1.72.34,3.64,3.64,0,0,1,1.35,1,4.54,4.54,0,0,1,.89,1.59,7.32,7.32,0,0,1,0,4.28,4.72,4.72,0,0,1-.89,1.59,4,4,0,0,1-1.35,1A4.2,4.2,0,0,1,324.69,29.77Zm-.62-1.86a2.45,2.45,0,0,0,2-.9,3.56,3.56,0,0,0,.74-2.32,3.5,3.5,0,0,0-.74-2.31,2.44,2.44,0,0,0-2-.89,3,3,0,0,0-1.43.37,2.78,2.78,0,0,0-1.05.91v3.82a2.71,2.71,0,0,0,.45.52,3.22,3.22,0,0,0,.6.42,3.3,3.3,0,0,0,.7.28A3.13,3.13,0,0,0,324.07,27.91Z" fill="#e52823"/><path d="M336.23,29.53V16.19h2.1v5a3.81,3.81,0,0,1,3.1-1.58,4.12,4.12,0,0,1,1.73.35,3.76,3.76,0,0,1,1.36,1,4.68,4.68,0,0,1,.89,1.6,6.52,6.52,0,0,1,.32,2.1,6.73,6.73,0,0,1-.32,2.14,4.63,4.63,0,0,1-.9,1.6,3.85,3.85,0,0,1-1.37,1,4.42,4.42,0,0,1-1.71.34,3.67,3.67,0,0,1-1.74-.42,4.15,4.15,0,0,1-1.36-1.14v1.32Zm2.1-2.9a2.87,2.87,0,0,0,1.05.91,3.09,3.09,0,0,0,1.45.37,2.43,2.43,0,0,0,2-.9,3.56,3.56,0,0,0,.73-2.32,4.06,4.06,0,0,0-.19-1.29,2.89,2.89,0,0,0-.55-1,2.64,2.64,0,0,0-.86-.66,2.56,2.56,0,0,0-1.12-.24,3.15,3.15,0,0,0-2.5,1.3Z" fill="#e52823"/><path d="M348.91,18.69a1.26,1.26,0,0,1-.92-.38,1.28,1.28,0,0,1-.38-.92,1.26,1.26,0,0,1,.38-.92,1.3,1.3,0,0,1,1.84,0,1.26,1.26,0,0,1,.38.92,1.28,1.28,0,0,1-.38.92A1.26,1.26,0,0,1,348.91,18.69Zm-1.06,10.84V19.87H350v9.66Z" fill="#e52823"/><path d="M356.61,33.45a7.35,7.35,0,0,1-2.2-.31A5.26,5.26,0,0,1,352.55,32l1-1.52a3.4,3.4,0,0,0,1.36,1,5.13,5.13,0,0,0,1.72.28,4.47,4.47,0,0,0,1-.13,2.55,2.55,0,0,0,.92-.45,2.48,2.48,0,0,0,.66-.83,2.88,2.88,0,0,0,.25-1.29v-1.1a4.36,4.36,0,0,1-1.35,1.18,3.58,3.58,0,0,1-1.75.44,4.42,4.42,0,0,1-1.71-.33,3.74,3.74,0,0,1-1.36-1,4.44,4.44,0,0,1-.89-1.55,6.56,6.56,0,0,1-.32-2.12,6.44,6.44,0,0,1,.32-2.1,4.4,4.4,0,0,1,.89-1.56,3.7,3.7,0,0,1,1.35-1,4.36,4.36,0,0,1,1.72-.33,3.75,3.75,0,0,1,1.72.4,3.86,3.86,0,0,1,1.38,1.18V19.87h2.1V29a4.8,4.8,0,0,1-.44,2.16A3.75,3.75,0,0,1,360,32.55a4.62,4.62,0,0,1-1.6.7A8.21,8.21,0,0,1,356.61,33.45Zm.38-5.78a3,3,0,0,0,1.43-.38,3.15,3.15,0,0,0,1.05-.9V22.77a2.94,2.94,0,0,0-1.05-.9,2.87,2.87,0,0,0-1.43-.38,2.5,2.5,0,0,0-2,.85,3.3,3.3,0,0,0-.74,2.25,3.29,3.29,0,0,0,.74,2.24A2.53,2.53,0,0,0,357,27.67Z" fill="#e52823"/><path d="M291.57,51.93V50.61a4.11,4.11,0,0,1-1.35,1.14,3.68,3.68,0,0,1-1.75.42,4.42,4.42,0,0,1-1.71-.34,3.73,3.73,0,0,1-1.36-1,4.77,4.77,0,0,1-.89-1.6,6.73,6.73,0,0,1-.32-2.14,6.52,6.52,0,0,1,.32-2.1,4.68,4.68,0,0,1,.89-1.6,3.81,3.81,0,0,1,1.35-1,4,4,0,0,1,1.72-.35,3.75,3.75,0,0,1,1.72.4,3.86,3.86,0,0,1,1.38,1.18v-5h2.1V51.93Zm-2.48-1.62a3.13,3.13,0,0,0,.73-.1,3.3,3.3,0,0,0,.7-.28,3.73,3.73,0,0,0,.6-.41,2.66,2.66,0,0,0,.45-.51V45.19a2.61,2.61,0,0,0-.45-.5,3.22,3.22,0,0,0-.6-.42,2.85,2.85,0,0,0-.7-.28,2.67,2.67,0,0,0-.73-.1,2.58,2.58,0,0,0-1.14.24,2.64,2.64,0,0,0-.86.66,2.89,2.89,0,0,0-.55,1,4.06,4.06,0,0,0-.19,1.29,4.15,4.15,0,0,0,.19,1.29,3.13,3.13,0,0,0,.55,1,2.67,2.67,0,0,0,.86.67A2.58,2.58,0,0,0,289.09,50.31Z" fill="#e52823"/><path d="M297.45,41.09a1.26,1.26,0,0,1-.92-.38,1.28,1.28,0,0,1-.38-.92,1.26,1.26,0,0,1,.38-.92,1.3,1.3,0,0,1,1.84,0,1.26,1.26,0,0,1,.38.92,1.28,1.28,0,0,1-.38.92A1.26,1.26,0,0,1,297.45,41.09Zm-1.06,10.84V42.27h2.1v9.66Z" fill="#e52823"/><path d="M304.53,52.17a6.68,6.68,0,0,1-2.32-.39,5.14,5.14,0,0,1-1.82-1.13l1-1.5a4.09,4.09,0,0,0,.62.5,5.49,5.49,0,0,0,.8.43,6.92,6.92,0,0,0,.91.3,4.22,4.22,0,0,0,.93.11,2.46,2.46,0,0,0,1.44-.35,1.11,1.11,0,0,0,.48-.93.77.77,0,0,0-.43-.72,4.21,4.21,0,0,0-1.08-.4c-.43-.11-.9-.22-1.41-.32a6.16,6.16,0,0,1-1.41-.48,3.27,3.27,0,0,1-1.08-.86,2.31,2.31,0,0,1-.43-1.48,2.56,2.56,0,0,1,.25-1.13,2.63,2.63,0,0,1,.73-.93,3.46,3.46,0,0,1,1.19-.63,5.09,5.09,0,0,1,1.63-.23,5.57,5.57,0,0,1,2.17.38,5.2,5.2,0,0,1,1.57,1l-.88,1.48a3.48,3.48,0,0,0-1.19-.82,4,4,0,0,0-1.67-.34,2.17,2.17,0,0,0-1.31.34,1,1,0,0,0-.47.86.69.69,0,0,0,.43.64,5.2,5.2,0,0,0,1.08.37l1.41.32a5.74,5.74,0,0,1,1.41.5,3.14,3.14,0,0,1,1.08.9,2.46,2.46,0,0,1,.43,1.53,2.91,2.91,0,0,1-.26,1.2,2.62,2.62,0,0,1-.77,1,4.13,4.13,0,0,1-1.26.63A6,6,0,0,1,304.53,52.17Z" fill="#e52823"/><path d="M315.05,52.17a5.25,5.25,0,0,1-2-.38,4.78,4.78,0,0,1-1.57-1.06,5,5,0,0,1-1-1.61,5.39,5.39,0,0,1-.37-2,5.27,5.27,0,0,1,.37-2,4.84,4.84,0,0,1,1-1.6A4.49,4.49,0,0,1,313,42.41a5.69,5.69,0,0,1,3.3-.24,4.24,4.24,0,0,1,1,.38,3.83,3.83,0,0,1,.79.55,4.06,4.06,0,0,1,.6.65L317.37,45a2.56,2.56,0,0,0-2.22-1.12,2.69,2.69,0,0,0-2.12.89,3.33,3.33,0,0,0-.8,2.31,3.88,3.88,0,0,0,.21,1.29,3.06,3.06,0,0,0,.6,1,2.91,2.91,0,0,0,.92.67,2.84,2.84,0,0,0,1.19.24,2.6,2.6,0,0,0,2.22-1.16l1.38,1.3a4.92,4.92,0,0,1-1.4,1.2A4.55,4.55,0,0,1,315.05,52.17Z" fill="#e52823"/><path d="M325,52.17a5.11,5.11,0,0,1-2.08-.41,4.89,4.89,0,0,1-1.56-1.1,4.81,4.81,0,0,1-1-1.61,5.57,5.57,0,0,1-.34-2,5.49,5.49,0,0,1,.34-2,4.71,4.71,0,0,1,1-1.61,4.57,4.57,0,0,1,1.56-1.09,5.61,5.61,0,0,1,4.16,0,4.57,4.57,0,0,1,1.56,1.09,4.71,4.71,0,0,1,1,1.61,5.49,5.49,0,0,1,.34,2,5.57,5.57,0,0,1-.34,2,4.81,4.81,0,0,1-1,1.61,4.89,4.89,0,0,1-1.56,1.1A5.11,5.11,0,0,1,325,52.17Zm0-1.86a2.71,2.71,0,0,0,1.2-.26,2.61,2.61,0,0,0,.87-.7,3.24,3.24,0,0,0,.53-1,4.26,4.26,0,0,0,.18-1.23,4,4,0,0,0-.18-1.22,3.09,3.09,0,0,0-.53-1,2.39,2.39,0,0,0-.87-.7,2.58,2.58,0,0,0-1.2-.26,2.59,2.59,0,0,0-2.06,1,2.93,2.93,0,0,0-.54,1,4,4,0,0,0-.18,1.22,4.26,4.26,0,0,0,.18,1.23,3.07,3.07,0,0,0,.54,1,2.76,2.76,0,0,0,.88.7A2.66,2.66,0,0,0,325,50.31Z" fill="#e52823"/><path d="M338.61,51.93V50.65a5.44,5.44,0,0,1-1.39,1.05,4.2,4.2,0,0,1-2,.47,3.18,3.18,0,0,1-2.34-.79,3.11,3.11,0,0,1-.78-2.27V42.27h2.1v6.06a1.93,1.93,0,0,0,.53,1.55,2.24,2.24,0,0,0,1.43.43,2.76,2.76,0,0,0,1.45-.39,3.52,3.52,0,0,0,1-.87V42.27h2.1v9.66Z" fill="#e52823"/><path d="M350,51.93v-6a1.94,1.94,0,0,0-.53-1.57,2.18,2.18,0,0,0-1.43-.43,2.68,2.68,0,0,0-1.45.4,3.78,3.78,0,0,0-1,.88v6.76h-2.1V42.27h2.1v1.3a4,4,0,0,1,.59-.56,3.93,3.93,0,0,1,.79-.5,4.13,4.13,0,0,1,.95-.35A4.23,4.23,0,0,1,349,42a3.1,3.1,0,0,1,2.34.8,3.16,3.16,0,0,1,.78,2.3v6.8Z" fill="#e52823"/><path d="M357.71,52.17a2.49,2.49,0,0,1-1.86-.64,2.59,2.59,0,0,1-.62-1.86V44.09h-1.6V42.27h1.6V39.63h2.1v2.64h2v1.82h-2v5.06a1.45,1.45,0,0,0,.23.83.78.78,0,0,0,.69.33,1.42,1.42,0,0,0,.55-.11,1.13,1.13,0,0,0,.37-.25l.5,1.6a2.38,2.38,0,0,1-.76.44A3.45,3.45,0,0,1,357.71,52.17Z" fill="#e52823"/><path d="M364.49,52.17a6.68,6.68,0,0,1-2.32-.39,5.14,5.14,0,0,1-1.82-1.13l1-1.5a4.09,4.09,0,0,0,.62.5,5.49,5.49,0,0,0,.8.43,6.92,6.92,0,0,0,.91.3,4.22,4.22,0,0,0,.93.11,2.46,2.46,0,0,0,1.44-.35,1.11,1.11,0,0,0,.48-.93.77.77,0,0,0-.43-.72,4.21,4.21,0,0,0-1.08-.4c-.44-.11-.9-.22-1.41-.32a6.16,6.16,0,0,1-1.41-.48,3.27,3.27,0,0,1-1.08-.86,2.31,2.31,0,0,1-.43-1.48,2.56,2.56,0,0,1,.25-1.13,2.63,2.63,0,0,1,.73-.93,3.46,3.46,0,0,1,1.19-.63,5.05,5.05,0,0,1,1.63-.23,5.57,5.57,0,0,1,2.17.38,5.2,5.2,0,0,1,1.57,1l-.88,1.48a3.48,3.48,0,0,0-1.19-.82,4,4,0,0,0-1.67-.34,2.17,2.17,0,0,0-1.31.34,1,1,0,0,0-.47.86.69.69,0,0,0,.43.64,5.2,5.2,0,0,0,1.08.37l1.41.32a5.74,5.74,0,0,1,1.41.5,3.14,3.14,0,0,1,1.08.9,2.46,2.46,0,0,1,.43,1.53,2.91,2.91,0,0,1-.26,1.2,2.62,2.62,0,0,1-.77,1,4.13,4.13,0,0,1-1.26.63A6,6,0,0,1,364.49,52.17Z" fill="#e52823"/><path d="M291.07,74.57a7.2,7.2,0,0,1-2.75-.52,6.7,6.7,0,0,1-2.16-1.44,6.4,6.4,0,0,1-1.41-2.18,7.87,7.87,0,0,1,0-5.52,6.31,6.31,0,0,1,1.41-2.18,6.39,6.39,0,0,1,2.16-1.44,7.53,7.53,0,0,1,5.5,0A6.26,6.26,0,0,1,296,62.73a6.61,6.61,0,0,1,1.41,2.18,7.72,7.72,0,0,1,0,5.52A6.71,6.71,0,0,1,296,72.61a6.55,6.55,0,0,1-2.15,1.44A7.2,7.2,0,0,1,291.07,74.57Zm0-2.08a4.48,4.48,0,0,0,1.82-.37,4.33,4.33,0,0,0,1.4-1,4.47,4.47,0,0,0,.89-1.53,5.71,5.71,0,0,0,.31-1.91,5.6,5.6,0,0,0-.31-1.92,4.33,4.33,0,0,0-.89-1.52,4.06,4.06,0,0,0-1.4-1,4.69,4.69,0,0,0-3.65,0,4.11,4.11,0,0,0-1.39,1,4.33,4.33,0,0,0-.89,1.52,5.6,5.6,0,0,0-.31,1.92,5.71,5.71,0,0,0,.31,1.91,4.47,4.47,0,0,0,.89,1.53,4.4,4.4,0,0,0,1.39,1A4.46,4.46,0,0,0,291.07,72.49Z" fill="#e52823"/><path d="M304.47,74.57a5.25,5.25,0,0,1-2-.38,4.78,4.78,0,0,1-1.57-1.06,5,5,0,0,1-1-1.61,5.39,5.39,0,0,1-.37-2,5.27,5.27,0,0,1,.37-2,4.84,4.84,0,0,1,1-1.6,4.49,4.49,0,0,1,1.57-1.06,5.69,5.69,0,0,1,3.3-.24,4.24,4.24,0,0,1,1,.38,3.83,3.83,0,0,1,.79.55,4.06,4.06,0,0,1,.6.65l-1.38,1.26a2.56,2.56,0,0,0-2.22-1.12,2.69,2.69,0,0,0-2.12.89,3.33,3.33,0,0,0-.8,2.31,3.88,3.88,0,0,0,.21,1.29,3.06,3.06,0,0,0,.6,1,2.91,2.91,0,0,0,.92.67,2.84,2.84,0,0,0,1.19.24,2.6,2.6,0,0,0,2.22-1.16l1.38,1.3a4.92,4.92,0,0,1-1.4,1.2A4.55,4.55,0,0,1,304.47,74.57Z" fill="#e52823"/><path d="M313,74.57a2.49,2.49,0,0,1-1.86-.64,2.59,2.59,0,0,1-.62-1.86V66.49h-1.6V64.67h1.6V62h2.1v2.64h2v1.82h-2v5.06a1.45,1.45,0,0,0,.23.83.78.78,0,0,0,.69.33,1.42,1.42,0,0,0,.55-.11,1.13,1.13,0,0,0,.37-.25l.5,1.6a2.38,2.38,0,0,1-.76.44A3.45,3.45,0,0,1,313,74.57Z" fill="#e52823"/><path d="M325.73,74.57a6.85,6.85,0,0,1-3.06-.63,5.62,5.62,0,0,1-2-1.53L322,70.87a4.55,4.55,0,0,0,1.62,1.19,5.17,5.17,0,0,0,2.06.43,3.33,3.33,0,0,0,2.05-.56,1.78,1.78,0,0,0,.73-1.48,1.55,1.55,0,0,0-.76-1.45,4.38,4.38,0,0,0-2.2-.45h-.89a4.25,4.25,0,0,0-.63,0V66.45h1.52a6.15,6.15,0,0,0,1.1-.1,3.08,3.08,0,0,0,.87-.32,1.71,1.71,0,0,0,.58-.55,1.42,1.42,0,0,0,.21-.78,1.53,1.53,0,0,0-.21-.81,1.78,1.78,0,0,0-.58-.58,3,3,0,0,0-.86-.34,4.44,4.44,0,0,0-1.05-.12,4.64,4.64,0,0,0-3.46,1.48l-1.2-1.46a5.86,5.86,0,0,1,2-1.51,6.45,6.45,0,0,1,2.89-.59,7.05,7.05,0,0,1,2,.25,4.68,4.68,0,0,1,1.51.7,3.27,3.27,0,0,1,1,1.12,3.19,3.19,0,0,1,.35,1.5,2.76,2.76,0,0,1-.26,1.21,3.2,3.2,0,0,1-.67.91,3.51,3.51,0,0,1-.93.62,4.27,4.27,0,0,1-1,.32,3.91,3.91,0,0,1,1,.28,3.44,3.44,0,0,1,1,.62,3.13,3.13,0,0,1,.77,1,2.93,2.93,0,0,1,.3,1.36,3.55,3.55,0,0,1-.35,1.57,3.41,3.41,0,0,1-1,1.23,5,5,0,0,1-1.59.82A7.13,7.13,0,0,1,325.73,74.57Z" fill="#e52823"/><path d="M337.87,74.57a4.66,4.66,0,0,1-2.43-.61,5.22,5.22,0,0,1-1.65-1.59,7.32,7.32,0,0,1-1-2.21,10.16,10.16,0,0,1,0-5,7.21,7.21,0,0,1,1-2.21,5,5,0,0,1,1.65-1.58,5.18,5.18,0,0,1,4.84,0A5,5,0,0,1,341.93,63a7.21,7.21,0,0,1,.95,2.21,10.16,10.16,0,0,1,0,5,7.32,7.32,0,0,1-.95,2.21A5.22,5.22,0,0,1,340.28,74,4.64,4.64,0,0,1,337.87,74.57Zm0-2.08a2.38,2.38,0,0,0,1.37-.4,2.94,2.94,0,0,0,.91-1.06,5.5,5.5,0,0,0,.5-1.53,9.81,9.81,0,0,0,.16-1.83,10.76,10.76,0,0,0-.15-1.83,5.19,5.19,0,0,0-.5-1.53,2.92,2.92,0,0,0-.91-1.05,2.64,2.64,0,0,0-2.76,0,2.92,2.92,0,0,0-.91,1.05,5.5,5.5,0,0,0-.51,1.53,10.55,10.55,0,0,0,0,3.66,5.5,5.5,0,0,0,.51,1.53,3,3,0,0,0,.91,1.06A2.35,2.35,0,0,0,337.87,72.49Z" fill="#e52823"/><path d="M344.63,70.39v-1.8h4.8v1.8Z" fill="#e52823"/><path d="M360.75,74.33l-7-9.54v9.54h-2.34V61h2.4l6.82,9.24V61H363V74.33Z" fill="#e52823"/><path d="M370.17,74.57a5.11,5.11,0,0,1-2.08-.41,4.66,4.66,0,0,1-2.54-2.71,5.57,5.57,0,0,1-.34-2,5.49,5.49,0,0,1,.34-2,4.71,4.71,0,0,1,1-1.61,4.48,4.48,0,0,1,1.56-1.09,5.61,5.61,0,0,1,4.16,0,4.57,4.57,0,0,1,1.56,1.09,4.71,4.71,0,0,1,1,1.61,5.72,5.72,0,0,1,.34,2,5.81,5.81,0,0,1-.34,2,4.81,4.81,0,0,1-1,1.61,4.89,4.89,0,0,1-1.56,1.1A5.15,5.15,0,0,1,370.17,74.57Zm0-1.86a2.71,2.71,0,0,0,1.2-.26,2.83,2.83,0,0,0,.87-.7,3.24,3.24,0,0,0,.53-1,4.26,4.26,0,0,0,.18-1.23,4,4,0,0,0-.18-1.22,3.09,3.09,0,0,0-.53-1,2.55,2.55,0,0,0-2.07-1,2.59,2.59,0,0,0-2.06,1,2.93,2.93,0,0,0-.54,1,4,4,0,0,0-.18,1.22,4.26,4.26,0,0,0,.18,1.23,3.07,3.07,0,0,0,.54,1,2.76,2.76,0,0,0,.88.7A2.63,2.63,0,0,0,370.17,72.71Z" fill="#e52823"/><path d="M379.81,74.33l-3.94-9.66h2.26L381,71.91l2.82-7.24H386l-3.94,9.66Z" fill="#e52823"/><path d="M395,74.33V64l-2.18,2.28-1.36-1.42L395.27,61h2V74.33Z" fill="#e52823"/></g></g></svg>