<svg xmlns="http://www.w3.org/2000/svg" xmlns:xlink="http://www.w3.org/1999/xlink" viewBox="0 0 300 600"><defs><style>.cls-1{fill:none;}.cls-2{clip-path:url(#clip-path);}.cls-3{fill:#e52823;}.cls-4{fill:#fff;}</style><clipPath id="clip-path"><rect class="cls-1" x="18.34" y="238.3" width="166.87" height="34.25"/></clipPath></defs><g id="Layer_2" data-name="Layer 2"><g id="REC"><rect class="cls-1" width="300" height="600"/></g><g id="CTA"><g id="button_see_the_deals" data-name="button see the deals"><g class="cls-2"><g class="cls-2"><path class="cls-3" d="M168.93,272.55H34.62a16.28,16.28,0,0,1-16.28-16.28v-1.7A16.28,16.28,0,0,1,34.62,238.3H168.93a16.28,16.28,0,0,1,16.28,16.27v1.7a16.28,16.28,0,0,1-16.28,16.28"/><path class="cls-4" d="M42.43,257.87a6,6,0,0,0,1.8,1.3,5.36,5.36,0,0,0,2.32.49,3,3,0,0,0,2-.53,1.58,1.58,0,0,0,.65-1.25,1.17,1.17,0,0,0-.38-.9,2.65,2.65,0,0,0-1-.56q-.59-.21-1.62-.48a17.32,17.32,0,0,1-2.38-.73,3.94,3.94,0,0,1-1.58-1.14,3.06,3.06,0,0,1-.67-2,3.36,3.36,0,0,1,.6-1.95,4,4,0,0,1,1.68-1.37,5.84,5.84,0,0,1,2.46-.5A6.71,6.71,0,0,1,51.19,250l-1.31,1.69a4.9,4.9,0,0,0-1.72-1.11,5.94,5.94,0,0,0-2-.37,2.67,2.67,0,0,0-1.61.44,1.41,1.41,0,0,0-.6,1.19,1,1,0,0,0,.38.79,2.61,2.61,0,0,0,.92.5,15.77,15.77,0,0,0,1.57.46,17,17,0,0,1,2.41.76,4.29,4.29,0,0,1,1.62,1.18,3.13,3.13,0,0,1,.67,2.1,4,4,0,0,1-.54,2,3.81,3.81,0,0,1-1.68,1.44,6.52,6.52,0,0,1-2.81.54,8,8,0,0,1-3.05-.54,6.42,6.42,0,0,1-2.23-1.53Z"/><path class="cls-4" d="M53.56,254.24a4.67,4.67,0,0,1,1.71-1.79,4.53,4.53,0,0,1,2.45-.67,4.4,4.4,0,0,1,4.07,2.49,5.89,5.89,0,0,1,.58,2.64v.49H55.09a2.87,2.87,0,0,0,.92,1.87,2.91,2.91,0,0,0,2.08.74,4.23,4.23,0,0,0,1.46-.27,3.37,3.37,0,0,0,1.22-.76l.93,1.35a4.7,4.7,0,0,1-1.69,1,6.26,6.26,0,0,1-2.13.35,5.17,5.17,0,0,1-2.53-.61,4.55,4.55,0,0,1-1.76-1.75,5.19,5.19,0,0,1-.64-2.6,5.1,5.1,0,0,1,.61-2.49m2.27,0a2.9,2.9,0,0,0-.76,1.75h5.31a2.78,2.78,0,0,0-.32-1.18,2.33,2.33,0,0,0-.87-.95,2.67,2.67,0,0,0-1.47-.37,2.44,2.44,0,0,0-1.89.75"/><path class="cls-4" d="M64.42,254.24a4.67,4.67,0,0,1,1.71-1.79,4.59,4.59,0,0,1,2.46-.67,4.4,4.4,0,0,1,4.06,2.49,5.76,5.76,0,0,1,.58,2.64v.49H66A2.85,2.85,0,0,0,69,260a4.17,4.17,0,0,0,1.45-.27,3.29,3.29,0,0,0,1.22-.76l.94,1.35a4.75,4.75,0,0,1-1.7,1,6.18,6.18,0,0,1-2.13.35,5.16,5.16,0,0,1-2.52-.61,4.51,4.51,0,0,1-1.77-1.75,5.19,5.19,0,0,1-.64-2.6,5.1,5.1,0,0,1,.61-2.49m2.28,0a2.91,2.91,0,0,0-.77,1.75h5.31a2.76,2.76,0,0,0-.31-1.18,2.43,2.43,0,0,0-.88-.95,2.66,2.66,0,0,0-1.46-.37,2.41,2.41,0,0,0-1.89.75"/><path class="cls-4" d="M81.29,261.07a2.47,2.47,0,0,1-.61-1.8v-5.46H79.12V252h1.56v-2.58h2V252h1.91v1.79H82.73v4.95a1.31,1.31,0,0,0,.23.82.8.8,0,0,0,.66.3,1.4,1.4,0,0,0,.54-.1,1,1,0,0,0,.38-.23l.49,1.54a2.74,2.74,0,0,1-1.93.6,2.45,2.45,0,0,1-1.81-.62"/><path class="cls-4" d="M92.87,255.51a1.88,1.88,0,0,0-.5-1.47A2,2,0,0,0,91,253.6a2.69,2.69,0,0,0-1.37.37,3.3,3.3,0,0,0-1,.9v6.57H86.49v-13h2.05v4.88A4.39,4.39,0,0,1,90,252.23a4.24,4.24,0,0,1,1.92-.45,3.15,3.15,0,0,1,2.28.76,3,3,0,0,1,.77,2.23v6.67h-2Z"/><path class="cls-4" d="M97.6,254.24a4.72,4.72,0,0,1,1.7-1.79,4.59,4.59,0,0,1,2.46-.67,4.4,4.4,0,0,1,4.07,2.49,5.89,5.89,0,0,1,.58,2.64v.49H99.13a2.87,2.87,0,0,0,.92,1.87,2.91,2.91,0,0,0,2.08.74,4.18,4.18,0,0,0,1.46-.27,3.25,3.25,0,0,0,1.21-.76l.94,1.35a4.66,4.66,0,0,1-1.7,1,6.17,6.17,0,0,1-2.12.35,5.17,5.17,0,0,1-2.53-.61,4.49,4.49,0,0,1-1.76-1.75,5.2,5.2,0,0,1-.65-2.6,5.11,5.11,0,0,1,.62-2.49m2.27,0a2.9,2.9,0,0,0-.76,1.75h5.3a2.63,2.63,0,0,0-.31-1.18,2.33,2.33,0,0,0-.87-.95,2.67,2.67,0,0,0-1.47-.37,2.44,2.44,0,0,0-1.89.75"/><path class="cls-4" d="M113.5,248.43h4.84a7.41,7.41,0,0,1,3.55.83,5.93,5.93,0,0,1,2.4,2.31,7,7,0,0,1,0,6.74,6,6,0,0,1-2.4,2.3,7.41,7.41,0,0,1-3.55.83H113.5Zm4.84,11a4.6,4.6,0,0,0,2.38-.6,3.94,3.94,0,0,0,1.55-1.61,4.83,4.83,0,0,0,.54-2.28,5.07,5.07,0,0,0-.52-2.29,4,4,0,0,0-1.53-1.62,4.77,4.77,0,0,0-2.42-.59h-2.55v9Z"/><path class="cls-4" d="M127.32,254.24a4.67,4.67,0,0,1,1.71-1.79,4.59,4.59,0,0,1,2.46-.67,4.4,4.4,0,0,1,4.06,2.49,5.76,5.76,0,0,1,.58,2.64v.49h-7.28a2.85,2.85,0,0,0,3,2.61,4.17,4.17,0,0,0,1.45-.27,3.29,3.29,0,0,0,1.22-.76l.94,1.35a4.75,4.75,0,0,1-1.7,1,6.18,6.18,0,0,1-2.13.35,5.14,5.14,0,0,1-2.52-.61,4.51,4.51,0,0,1-1.77-1.75,5.19,5.19,0,0,1-.64-2.6,5.1,5.1,0,0,1,.61-2.49m2.27,0a3,3,0,0,0-.76,1.75h5.31a2.76,2.76,0,0,0-.31-1.18,2.43,2.43,0,0,0-.88-.95,2.66,2.66,0,0,0-1.46-.37,2.45,2.45,0,0,0-1.9.75"/><path class="cls-4" d="M144.79,260.15a3.93,3.93,0,0,1-1.34,1.13,3.67,3.67,0,0,1-1.69.41,4.07,4.07,0,0,1-2.16-.59,4,4,0,0,1-1.49-1.71,6.7,6.7,0,0,1,0-5.27,4,4,0,0,1,1.49-1.73,3.91,3.91,0,0,1,2.16-.61,3.77,3.77,0,0,1,3,1.54V252h2.05v9.42h-2.05Zm0-5.26a2.66,2.66,0,0,0-1-.91,3,3,0,0,0-1.4-.36,2.37,2.37,0,0,0-1.93.87,3.91,3.91,0,0,0,0,4.52,2.37,2.37,0,0,0,1.93.87,3.06,3.06,0,0,0,1.4-.35,2.72,2.72,0,0,0,1-.9Z"/><path class="cls-4" d="M150.1,261.07a2.47,2.47,0,0,1-.61-1.8V248.43h2v10.33a1.31,1.31,0,0,0,.24.82.79.79,0,0,0,.66.3,1.35,1.35,0,0,0,.53-.1,1,1,0,0,0,.37-.23l.49,1.54a2.72,2.72,0,0,1-1.91.6,2.45,2.45,0,0,1-1.81-.62"/><path class="cls-4" d="M155.16,258.75a4.92,4.92,0,0,0,3.2,1.32,2.62,2.62,0,0,0,1.38-.3,1,1,0,0,0,.47-.86.91.91,0,0,0-.54-.85,6.49,6.49,0,0,0-1.6-.52,13,13,0,0,1-1.82-.5,3,3,0,0,1-1.22-.84,2.25,2.25,0,0,1-.51-1.55,2.51,2.51,0,0,1,.44-1.43,3,3,0,0,1,1.28-1.05,4.68,4.68,0,0,1,2-.39,5.35,5.35,0,0,1,3.66,1.33l-.86,1.44a3.11,3.11,0,0,0-1.19-.82,4.19,4.19,0,0,0-1.6-.31,2.56,2.56,0,0,0-1.28.28.88.88,0,0,0-.47.78.8.8,0,0,0,.51.74,7.47,7.47,0,0,0,1.54.48,12.67,12.67,0,0,1,1.85.52,3.22,3.22,0,0,1,1.27.89,2.45,2.45,0,0,1,.52,1.65,2.57,2.57,0,0,1-1,2.11,4.52,4.52,0,0,1-2.89.82,6.7,6.7,0,0,1-2.26-.38,4.79,4.79,0,0,1-1.77-1.08Z"/></g></g></g></g></g></svg>