<svg xmlns="http://www.w3.org/2000/svg" viewBox="0 0 301.08 600"><defs><style>.cls-1{fill:none;}.cls-2{fill:#fff;}.cls-3{fill:#e32d27;}</style></defs><g id="Layer_2" data-name="Layer 2"><g id="content"><rect width="300" height="600"/><rect class="cls-1" width="300" height="599.75"/><path class="cls-2" d="M143.3,301.34c0,1.84,0,3.53,0,5.37,1.08.06,2.31.28,3.39.37,0,4.47-.11,7.86-.11,12.34,3,.36,5.15.71,6,.86,0-4.48.17-8,.18-12.48,0,0,3.19.5,3.25.54v-5.51a97.8,97.8,0,0,0-12.68-1.49Z"/><path class="cls-2" d="M43.74,294.86c19.06-5.82,28.68,8.77,28.68,8.77s-6-20.36-28.68-8.77Z"/><path class="cls-2" d="M80.58,295.61c0-.08,0-.6,0-.68a14.23,14.23,0,0,0-7.52,10.93s2.6-6,8.7-7.86a3.68,3.68,0,0,1-1.18-2.39Z"/><path class="cls-2" d="M56.27,304.12s-.05,2.88,0,4.33c-.73,0-3.89-.2-5.28-.25,0,.78-.05,1.58,0,2.36,1.66,0,3.39.23,5.06.21,0,1.4,0,2.6,0,4-1.67,0-3.34-.14-5-.17,0,.85,0,1.7,0,2.54,1.79,0,3.59.19,5.38.17,0-.07,0,4.25,0,4.25-3.55,0-7.75-.28-11.73-.61l.28-17.71c1.67.19,6.87.75,11.4.88Z"/><path class="cls-2" d="M57.78,304.16l-.07,4.62c1.67.09,3.18.09,3.18.09l0,12.84a40.36,40.36,0,0,0,6.4-.09l-.08-12.71s2.83-.13,3.27-.17c0-1.7,0-3-.06-4.72a113,113,0,0,1-12.62.14Z"/><path class="cls-2" d="M35.65,310l-.56-.06,0-3.64.54.05a1.86,1.86,0,0,1,1.85,1.95c0,1.5-.94,1.79-1.86,1.7Zm1.4-8.57L29.47,300l0,18.58c1.94.38,3.72.7,5.62.91l0-5.36c.67.07,1.38.16,2.05.22,3.29.31,6.61-.93,6.65-6.31,0-4.77-3.14-6.15-6.66-6.67Z"/><path class="cls-2" d="M100.36,318.68c.85-2.22,1.7-4.29,2.55-6.5.14,2.12.22,4,.35,6.15,2.12-.23,3.82-.36,6-.49-.55-5.64-1-11.69-1.58-17.34l-5.47.5c-1,2.67-2,5.9-3.06,8.57-1-2.47-2-5.36-3-7.82-1.84.26-5.13.83-5.47.84-.63,5.75-1.35,12.14-2,17.89,1.45-.25,5-.81,6.07-1l.49-6.58,2.46,6.14,2.64-.4Z"/><path class="cls-2" d="M134,308.94l-.56,0c0-1.2,0-2.4.05-3.6l.54,0a1.79,1.79,0,0,1,1.85,1.89,1.54,1.54,0,0,1-1.88,1.7Zm5.27,3.82c1.63-.72,2.79-2.29,2.84-5.41.06-4.7-3.26-6.7-6.62-7-2.55-.2-5.09-.33-7.64-.4-.08,6-.11,11.43-.19,17.4,1.9.05,4,.19,5.65.33,0-1.68,0-2.92.07-4.6,1.09,1.75,2,3.2,3.07,5,2.34.21,4.73.51,7.07.85-1.46-2.18-2.78-4.05-4.25-6.19Z"/><path class="cls-2" d="M117.09,311.61c.39-1.48.79-3,1.18-4.52.46,1.48.91,3,1.36,4.46-2.6.09-2.6.06-2.54.06Zm4.15-11.75c-2.26,0-4.11,0-6,.12-1.56,5.79-3.39,12-5,17.79,1.73,0,3.48-.15,5.21-.15l.5-1.93,2.64-.07s2.33-.07,2.33-.07c.07.23.28.83.58,1.85,1.73,0,3.46,0,5.19,0-1.87-6.13-3.76-12-5.46-17.58Z"/><path class="cls-2" d="M72.43,320.06a15.55,15.55,0,0,0,7,1.78c4,0,8.13-2.38,8.21-6.83.07-3.16-2-4.67-4.76-5.29l-1.5-.34c-.51-.13-1.34-.22-1.32-.92s.87-1,1.46-1a10.67,10.67,0,0,1,4,.86q.84-2.24,1.69-4.47a13.27,13.27,0,0,0-5.79-1.38c-4,0-8,2.42-8.1,6.84,0,2.92,2.1,4.52,4.7,5l1.33.25c.61.12,1.48.2,1.47,1s-1,.93-1.71.93a7.87,7.87,0,0,1-4.56-1.5c-.69,1.55-1.5,3.47-2.19,5Z"/><path class="cls-2" d="M86.8,289.8a4.47,4.47,0,1,0,4.41,4.52A4.48,4.48,0,0,0,86.8,289.8Zm1.61,1.65a5.31,5.31,0,0,0-4.79,2.8s0,.05,0,.07a3.31,3.31,0,0,1,.11-1.24,3,3,0,0,1,3.72-2.17,2.88,2.88,0,0,1,1,.56Z"/><path class="cls-2" d="M21.86,21.73H36.6a9.1,9.1,0,0,1,4.39,1,6.78,6.78,0,0,1,2.75,2.6,7.09,7.09,0,0,1,.92,3.55,6.6,6.6,0,0,1-1.38,4.28,5.85,5.85,0,0,1-3.45,2.15,5.8,5.8,0,0,1,3.82,2.31,7.15,7.15,0,0,1,1.56,4.57,7.37,7.37,0,0,1-2.14,5.42,8.12,8.12,0,0,1-6,2.14H21.86ZM35.3,33a3.3,3.3,0,0,0,2.39-.86,3,3,0,0,0,.88-2.25,3,3,0,0,0-.9-2.19,3.27,3.27,0,0,0-2.37-.88H27.82V33Zm.21,11.67a3.71,3.71,0,0,0,2.64-.9,3.39,3.39,0,0,0,0-4.75,3.6,3.6,0,0,0-2.64-.94H27.82v6.59Z"/><path class="cls-2" d="M51,48.88a5.54,5.54,0,0,1-1.44-4.14v-23h5.33V43.31a2.51,2.51,0,0,0,.5,1.6,1.65,1.65,0,0,0,1.35.63,3.5,3.5,0,0,0,1.09-.16,1.57,1.57,0,0,0,.71-.42l1.14,4a6.47,6.47,0,0,1-4.41,1.3A5.9,5.9,0,0,1,51,48.88Z"/><path class="cls-2" d="M76,47.14a8.19,8.19,0,0,1-2.8,2.33,7.5,7.5,0,0,1-3.46.82A8.66,8.66,0,0,1,65.16,49a8.49,8.49,0,0,1-3.22-3.66,13.1,13.1,0,0,1-1.15-5.73A13,13,0,0,1,61.94,34a8.8,8.8,0,0,1,3.2-3.72A8.39,8.39,0,0,1,69.78,29a7.78,7.78,0,0,1,3.44.8A8,8,0,0,1,76,32.06v-2.6h5.37V49.74H76Zm0-11.08a5,5,0,0,0-2-1.66,5.8,5.8,0,0,0-2.64-.66,4.67,4.67,0,0,0-3.7,1.63,6.23,6.23,0,0,0-1.43,4.27,6.27,6.27,0,0,0,1.43,4.26,4.65,4.65,0,0,0,3.7,1.64,5.78,5.78,0,0,0,2.64-.65,5,5,0,0,0,2-1.66Z"/><path class="cls-2" d="M86.79,34.11a9.87,9.87,0,0,1,3.82-3.79A11.13,11.13,0,0,1,96.15,29,10.65,10.65,0,0,1,101,30a8.53,8.53,0,0,1,3.16,2.63l-3.49,3.27a4.85,4.85,0,0,0-4.28-2.18,5.21,5.21,0,0,0-4,1.62A6,6,0,0,0,90.9,39.6a6,6,0,0,0,1.54,4.3A5.6,5.6,0,0,0,98.84,45a5.21,5.21,0,0,0,1.85-1.62l3.49,3.23a8.73,8.73,0,0,1-3.13,2.65,10.44,10.44,0,0,1-4.9,1,11.13,11.13,0,0,1-5.54-1.37,9.84,9.84,0,0,1-3.82-3.78A10.91,10.91,0,0,1,85.4,39.6,10.77,10.77,0,0,1,86.79,34.11Z"/><path class="cls-2" d="M115.43,41.93,113,44.54v5.2h-5.33v-28H113V38.49l7.69-9h6.55l-8,9.2,8.27,11.08h-6.67Z"/><path class="cls-2" d="M141,21.73h19.82v5.12H147v6.09h13.57v5.13H147V49.74h-6Z"/><path class="cls-2" d="M164.87,29.46h5.33v2.77a9.07,9.07,0,0,1,2.85-2.33,7.59,7.59,0,0,1,3.62-.95v5.21a6.38,6.38,0,0,0-4.33.51,4.74,4.74,0,0,0-2.14,1.64V49.74h-5.33Z"/><path class="cls-2" d="M180.38,25.53a3.19,3.19,0,1,1,5.44-2.25,3.13,3.13,0,0,1-.92,2.25,3.16,3.16,0,0,1-4.52,0Zm-.4,3.93h5.34V49.74H180Z"/><path class="cls-2" d="M204.55,47.14a8.07,8.07,0,0,1-2.79,2.33,7.5,7.5,0,0,1-3.46.82A8.66,8.66,0,0,1,193.68,49a8.43,8.43,0,0,1-3.22-3.66,13.1,13.1,0,0,1-1.15-5.73A13,13,0,0,1,190.46,34a8.8,8.8,0,0,1,3.2-3.72A8.39,8.39,0,0,1,198.3,29a7.78,7.78,0,0,1,3.44.8,7.88,7.88,0,0,1,2.81,2.31V21.73h5.38v28h-5.38Zm0-11.12a4.9,4.9,0,0,0-2-1.67,5.92,5.92,0,0,0-2.65-.65,4.67,4.67,0,0,0-3.69,1.64,6.34,6.34,0,0,0-1.43,4.3,6.27,6.27,0,0,0,1.43,4.26,4.64,4.64,0,0,0,3.69,1.64,5.79,5.79,0,0,0,2.65-.65,4.88,4.88,0,0,0,2-1.66Z"/><path class="cls-2" d="M229.17,47.14a8.19,8.19,0,0,1-2.8,2.33,7.5,7.5,0,0,1-3.46.82A8.66,8.66,0,0,1,218.29,49a8.41,8.41,0,0,1-3.21-3.66,13,13,0,0,1-1.16-5.73A12.89,12.89,0,0,1,215.08,34a8.71,8.71,0,0,1,3.19-3.72A8.39,8.39,0,0,1,222.91,29a7.78,7.78,0,0,1,3.44.8,8,8,0,0,1,2.82,2.31v-2.6h5.37V49.74h-5.37Zm0-11.08a5,5,0,0,0-2-1.66,5.8,5.8,0,0,0-2.64-.66,4.67,4.67,0,0,0-3.7,1.63,6.23,6.23,0,0,0-1.43,4.27,6.27,6.27,0,0,0,1.43,4.26,4.65,4.65,0,0,0,3.7,1.64,5.78,5.78,0,0,0,2.64-.65,5,5,0,0,0,2-1.66Z"/><path class="cls-2" d="M242,51.09A6.42,6.42,0,0,0,244.66,53a9.46,9.46,0,0,0,3.41.63,5.64,5.64,0,0,0,4-1.35,5,5,0,0,0,1.43-3.86V46.3a9.53,9.53,0,0,1-3,2.18,9.32,9.32,0,0,1-4.13.89,6.57,6.57,0,0,1-4.92-1.68A6.47,6.47,0,0,1,239.83,43V29.46h5.34V40.88a3.7,3.7,0,0,0,1,2.88,4.08,4.08,0,0,0,2.78.86,5.34,5.34,0,0,0,2.64-.67,6.44,6.44,0,0,0,2-1.64V29.46h5.33V48.15a9.14,9.14,0,0,1-2.92,7.24A11.4,11.4,0,0,1,248.07,58a12.41,12.41,0,0,1-8.49-3Z"/><path class="cls-2" d="M35.67,93.14a8.07,8.07,0,0,1-2.79,2.33,7.5,7.5,0,0,1-3.46.82A8.66,8.66,0,0,1,24.8,95a8.43,8.43,0,0,1-3.22-3.66,14.68,14.68,0,0,1,0-11.39,8.85,8.85,0,0,1,3.19-3.72A8.45,8.45,0,0,1,29.42,75a7.78,7.78,0,0,1,3.44.8,7.88,7.88,0,0,1,2.81,2.31V67.73h5.38v28H35.67Zm0-11.12a4.9,4.9,0,0,0-2-1.67,5.92,5.92,0,0,0-2.65-.65,4.67,4.67,0,0,0-3.69,1.64,6.34,6.34,0,0,0-1.43,4.3,6.27,6.27,0,0,0,1.43,4.26,4.64,4.64,0,0,0,3.69,1.64,5.79,5.79,0,0,0,2.65-.65,4.88,4.88,0,0,0,2-1.66Z"/><path class="cls-2" d="M46.38,80.24a10.17,10.17,0,0,1,3.74-3.85A10.31,10.31,0,0,1,55.54,75a9.94,9.94,0,0,1,5.29,1.41,9.54,9.54,0,0,1,3.59,4,12.66,12.66,0,0,1,1.28,5.82V87.3H50.63a5.17,5.17,0,0,0,1.8,3.39,5.89,5.89,0,0,0,4,1.36,8.41,8.41,0,0,0,3-.55A6.77,6.77,0,0,0,61.88,90l2.35,3.45a10.16,10.16,0,0,1-3.69,2.08,14.8,14.8,0,0,1-4.66.73A11.5,11.5,0,0,1,50.33,95a9.63,9.63,0,0,1-3.88-3.74,11.65,11.65,0,0,1-.07-11Zm5.63.32a5.47,5.47,0,0,0-1.47,3.13h10a5.17,5.17,0,0,0-1.37-3.11,4.61,4.61,0,0,0-3.63-1.38A4.57,4.57,0,0,0,52,80.56Z"/><path class="cls-2" d="M83.51,93.14a8.07,8.07,0,0,1-2.79,2.33,7.51,7.51,0,0,1-3.47.82A8.69,8.69,0,0,1,72.63,95a8.47,8.47,0,0,1-3.21-3.66,14.68,14.68,0,0,1,0-11.39,8.78,8.78,0,0,1,3.19-3.72A8.44,8.44,0,0,1,77.25,75a7.8,7.8,0,0,1,3.45.8,7.88,7.88,0,0,1,2.81,2.31v-2.6h5.38V95.74H83.51Zm0-11.08a5,5,0,0,0-2-1.66,5.8,5.8,0,0,0-2.65-.66,4.66,4.66,0,0,0-3.69,1.63,7.08,7.08,0,0,0,0,8.53,4.64,4.64,0,0,0,3.69,1.64,5.79,5.79,0,0,0,2.65-.65,5,5,0,0,0,2-1.66Z"/><path class="cls-2" d="M95.63,94.88a5.51,5.51,0,0,1-1.45-4.14v-23h5.33V89.31a2.45,2.45,0,0,0,.51,1.6,1.62,1.62,0,0,0,1.34.63,3.46,3.46,0,0,0,1.09-.16,1.61,1.61,0,0,0,.72-.42l1.13,4a6.47,6.47,0,0,1-4.41,1.3A5.87,5.87,0,0,1,95.63,94.88Z"/><path class="cls-2" d="M107.24,89.4a10.66,10.66,0,0,0,3.19,1.93,9.8,9.8,0,0,0,3.82.84,4.78,4.78,0,0,0,2.55-.55,1.71,1.71,0,0,0,.86-1.52,1.62,1.62,0,0,0-1-1.49,12.92,12.92,0,0,0-3.07-.93,29.37,29.37,0,0,1-4-1,6.61,6.61,0,0,1-2.77-1.82,5,5,0,0,1-1.18-3.51,5.59,5.59,0,0,1,1-3.19,6.69,6.69,0,0,1,2.88-2.33,10.55,10.55,0,0,1,4.45-.87,12.79,12.79,0,0,1,8.19,2.78L120,81.38a7.64,7.64,0,0,0-2.59-1.68A8.76,8.76,0,0,0,114,79a4.66,4.66,0,0,0-2.33.5,1.56,1.56,0,0,0-.86,1.39,1.4,1.4,0,0,0,.94,1.32,14.29,14.29,0,0,0,2.92.86,26.72,26.72,0,0,1,4.08,1.06,7,7,0,0,1,2.85,1.93,5.28,5.28,0,0,1,1.22,3.67,5.75,5.75,0,0,1-1,3.35,6.65,6.65,0,0,1-3,2.34,12.15,12.15,0,0,1-4.73.84,15.31,15.31,0,0,1-5.06-.84,11.28,11.28,0,0,1-4-2.31Z"/><path class="cls-2" d="M138,89.4a10.53,10.53,0,0,0,3.19,1.93,9.76,9.76,0,0,0,3.82.84,4.72,4.72,0,0,0,2.54-.55,1.69,1.69,0,0,0,.86-1.52,1.6,1.6,0,0,0-1-1.49,12.81,12.81,0,0,0-3.06-.93,29,29,0,0,1-4-1,6.64,6.64,0,0,1-2.78-1.82,5,5,0,0,1-1.17-3.51,5.59,5.59,0,0,1,1-3.19,6.6,6.6,0,0,1,2.87-2.33A10.58,10.58,0,0,1,144.7,75a12.75,12.75,0,0,1,8.19,2.78l-2.14,3.65a7.5,7.5,0,0,0-2.58-1.68,8.8,8.8,0,0,0-3.42-.67,4.66,4.66,0,0,0-2.33.5,1.55,1.55,0,0,0-.87,1.39,1.41,1.41,0,0,0,.95,1.32,14.09,14.09,0,0,0,2.92.86,26.56,26.56,0,0,1,4.07,1.06,7.05,7.05,0,0,1,2.86,1.93,5.28,5.28,0,0,1,1.22,3.67,5.82,5.82,0,0,1-1,3.35,6.73,6.73,0,0,1-3,2.34,12.1,12.1,0,0,1-4.72.84,15.26,15.26,0,0,1-5.06-.84,11.28,11.28,0,0,1-4-2.31Z"/><path class="cls-2" d="M160,94.86a5.5,5.5,0,0,1-1.47-4.13V80.12H155.2V75.46h3.36V69.91h5.38v5.55h4.12v4.66h-4.12v9.19a2.51,2.51,0,0,0,.5,1.6,1.65,1.65,0,0,0,1.35.63,3.5,3.5,0,0,0,1.09-.16,2,2,0,0,0,.76-.42l1.13,4a6.53,6.53,0,0,1-4.45,1.3A5.93,5.93,0,0,1,160,94.86Z"/><path class="cls-2" d="M185.65,93.14a8.07,8.07,0,0,1-2.79,2.33,7.5,7.5,0,0,1-3.46.82A8.66,8.66,0,0,1,174.78,95a8.43,8.43,0,0,1-3.22-3.66,14.68,14.68,0,0,1,0-11.39,8.8,8.8,0,0,1,3.2-3.72A8.39,8.39,0,0,1,179.4,75a7.78,7.78,0,0,1,3.44.8,7.88,7.88,0,0,1,2.81,2.31v-2.6H191V95.74h-5.38Zm0-11.08a4.88,4.88,0,0,0-2-1.66,5.8,5.8,0,0,0-2.65-.66,4.66,4.66,0,0,0-3.69,1.63,7.08,7.08,0,0,0,0,8.53A4.64,4.64,0,0,0,181,91.54a5.79,5.79,0,0,0,2.65-.65,4.88,4.88,0,0,0,2-1.66Z"/><path class="cls-2" d="M196.32,75.46h5.34v2.77a9,9,0,0,1,2.85-2.33,7.58,7.58,0,0,1,3.61-1v5.21a6.84,6.84,0,0,0-1.47-.17,7,7,0,0,0-2.85.68,4.74,4.74,0,0,0-2.14,1.64V95.74h-5.34Z"/><path class="cls-2" d="M214,94.86a5.5,5.5,0,0,1-1.47-4.13V80.12h-3.36V75.46h3.36V69.91h5.38v5.55H222v4.66h-4.11v9.19a2.51,2.51,0,0,0,.5,1.6,1.65,1.65,0,0,0,1.35.63,3.5,3.5,0,0,0,1.09-.16,2,2,0,0,0,.75-.42l1.14,4a6.55,6.55,0,0,1-4.45,1.3A5.93,5.93,0,0,1,214,94.86Z"/><path class="cls-2" d="M24.25,140.86a5.51,5.51,0,0,1-1.47-4.13V126.12H19.42v-4.66h3.36v-5.55h5.38v5.55h4.11v4.66H28.16v9.19a2.45,2.45,0,0,0,.5,1.6,1.63,1.63,0,0,0,1.34.63,3.52,3.52,0,0,0,1.1-.16,2,2,0,0,0,.75-.42L33,141a6.56,6.56,0,0,1-4.46,1.3A5.92,5.92,0,0,1,24.25,140.86Z"/><path class="cls-2" d="M49.66,129.4a3.6,3.6,0,0,0-1-2.86,4.16,4.16,0,0,0-2.81-.84,5.32,5.32,0,0,0-2.65.69,6.44,6.44,0,0,0-2,1.7v13.65H35.93v-28h5.33V124.1a9,9,0,0,1,3-2.22A9.27,9.27,0,0,1,48.4,121a6.67,6.67,0,0,1,4.93,1.68A6.4,6.4,0,0,1,55,127.34v14.4H49.66Z"/><path class="cls-2" d="M60.68,117.53a3.19,3.19,0,1,1,5.44-2.25,3.13,3.13,0,0,1-.92,2.25,3.16,3.16,0,0,1-4.52,0Zm-.39,3.93h5.33v20.28H60.29Z"/><path class="cls-2" d="M71.46,135.4a10.53,10.53,0,0,0,3.19,1.93,9.76,9.76,0,0,0,3.82.84,4.72,4.72,0,0,0,2.54-.55,1.69,1.69,0,0,0,.86-1.52,1.6,1.6,0,0,0-1-1.49,12.81,12.81,0,0,0-3.06-.93,29,29,0,0,1-4-1A6.64,6.64,0,0,1,71,130.85a5,5,0,0,1-1.17-3.51,5.59,5.59,0,0,1,1-3.19,6.6,6.6,0,0,1,2.87-2.33,10.58,10.58,0,0,1,4.45-.87,12.75,12.75,0,0,1,8.19,2.78l-2.14,3.65a7.5,7.5,0,0,0-2.58-1.68,8.8,8.8,0,0,0-3.42-.67,4.66,4.66,0,0,0-2.33.5,1.55,1.55,0,0,0-.87,1.39,1.41,1.41,0,0,0,1,1.32,14.09,14.09,0,0,0,2.92.86,26.56,26.56,0,0,1,4.07,1.06,7.05,7.05,0,0,1,2.86,1.93A5.28,5.28,0,0,1,87,135.76a5.82,5.82,0,0,1-1,3.35,6.73,6.73,0,0,1-3,2.34,12.1,12.1,0,0,1-4.72.84,15.26,15.26,0,0,1-5.06-.84,11.28,11.28,0,0,1-4-2.31Z"/><path class="cls-2" d="M115.22,127.93l-4.28,13.81h-5.72l-6.17-20.28h5.54l3.78,13.65,4.46-13.65h4.74L122,135.11l3.78-13.65h5.55l-6.18,20.28H119.5Z"/><path class="cls-2" d="M134,126.24a10.07,10.07,0,0,1,3.73-3.85,10.34,10.34,0,0,1,5.42-1.44,9.94,9.94,0,0,1,5.29,1.41,9.63,9.63,0,0,1,3.6,4,12.78,12.78,0,0,1,1.28,5.82v1.17H138.28a5.22,5.22,0,0,0,1.8,3.39,5.9,5.9,0,0,0,4,1.36,8.45,8.45,0,0,0,3-.55,6.81,6.81,0,0,0,2.45-1.47l2.36,3.45a10.21,10.21,0,0,1-3.7,2.08,14.76,14.76,0,0,1-4.66.73A11.63,11.63,0,0,1,138,141a9.79,9.79,0,0,1-3.88-3.75,11,11,0,0,1-1.41-5.62A10.8,10.8,0,0,1,134,126.24Zm5.62.32a5.47,5.47,0,0,0-1.47,3.13h10a5.15,5.15,0,0,0-1.36-3.11,4.65,4.65,0,0,0-3.64-1.38A4.57,4.57,0,0,0,139.66,126.56Z"/><path class="cls-2" d="M157.26,126.24a10.09,10.09,0,0,1,3.74-3.85,10.31,10.31,0,0,1,5.42-1.44,9.94,9.94,0,0,1,5.29,1.41,9.54,9.54,0,0,1,3.59,4,12.66,12.66,0,0,1,1.28,5.82v1.17H161.5a5.19,5.19,0,0,0,1.81,3.39,5.89,5.89,0,0,0,4,1.36,8.41,8.41,0,0,0,3-.55,6.77,6.77,0,0,0,2.46-1.47l2.35,3.45a10.16,10.16,0,0,1-3.69,2.08,14.82,14.82,0,0,1-4.67.73,11.59,11.59,0,0,1-5.54-1.32,9.72,9.72,0,0,1-3.88-3.75,11.65,11.65,0,0,1-.07-11Zm5.63.32a5.47,5.47,0,0,0-1.47,3.13h10a5.17,5.17,0,0,0-1.37-3.11,4.64,4.64,0,0,0-3.63-1.38A4.57,4.57,0,0,0,162.89,126.56Z"/><path class="cls-2" d="M188.22,133.93l-2.44,2.61v5.2h-5.33v-28h5.33v16.76l7.69-9H200l-8,9.2,8.27,11.08h-6.68Z"/><path class="cls-2" d="M202.08,126.24a10.07,10.07,0,0,1,3.73-3.85,10.34,10.34,0,0,1,5.42-1.44,9.94,9.94,0,0,1,5.29,1.41,9.54,9.54,0,0,1,3.59,4,12.66,12.66,0,0,1,1.29,5.82v1.17H206.32a5.22,5.22,0,0,0,1.8,3.39,5.9,5.9,0,0,0,4,1.36,8.45,8.45,0,0,0,3-.55,6.81,6.81,0,0,0,2.45-1.47l2.36,3.45a10.21,10.21,0,0,1-3.7,2.08,14.76,14.76,0,0,1-4.66.73A11.63,11.63,0,0,1,206,141a9.79,9.79,0,0,1-3.88-3.75,11,11,0,0,1-1.41-5.62A10.8,10.8,0,0,1,202.08,126.24Zm5.62.32a5.47,5.47,0,0,0-1.47,3.13h10a5.11,5.11,0,0,0-1.37-3.11,5.36,5.36,0,0,0-7.16,0Z"/><path class="cls-2" d="M239,129.48a3.79,3.79,0,0,0-1-2.9,4,4,0,0,0-2.78-.88,5.2,5.2,0,0,0-2.66.69,6.64,6.64,0,0,0-2,1.7v13.65h-5.33V121.46h5.33v2.64a9.38,9.38,0,0,1,7.1-3.15,5.91,5.91,0,0,1,6.6,6.47v14.32H239Z"/><path class="cls-2" d="M263.52,139.14a8.07,8.07,0,0,1-2.79,2.33,7.54,7.54,0,0,1-3.47.82,8.66,8.66,0,0,1-4.62-1.26,8.47,8.47,0,0,1-3.21-3.66,14.56,14.56,0,0,1,0-11.39,8.78,8.78,0,0,1,3.19-3.72,8.44,8.44,0,0,1,4.64-1.31,7.87,7.87,0,0,1,6.26,3.11V113.73h5.38v28h-5.38Zm0-11.12a5,5,0,0,0-2-1.67,5.92,5.92,0,0,0-2.65-.65,4.67,4.67,0,0,0-3.69,1.64,6.29,6.29,0,0,0-1.43,4.3,6.2,6.2,0,0,0,1.43,4.26,4.64,4.64,0,0,0,3.69,1.64,5.79,5.79,0,0,0,2.65-.65,5,5,0,0,0,2-1.66Z"/><path class="cls-2" d="M274.55,136.41a3.2,3.2,0,0,1,2.37-1,3.27,3.27,0,0,1,2.39,1,3.38,3.38,0,0,1-2.39,5.75,3.19,3.19,0,0,1-2.37-1,3.34,3.34,0,0,1,0-4.75Zm-.87-22.68h6.43l-.84,18.9h-4.7Z"/><path class="cls-3" d="M.26,599.19c1.29-91.93,67.14-154.26,150-154.26S300.47,514,300.47,599.19"/></g><g id="REC"><rect class="cls-1" x="1.08" width="300" height="600"/></g></g></svg>