<svg xmlns="http://www.w3.org/2000/svg" viewBox="0 0 300 600"><defs><style>.cls-1{fill:none;}.cls-2{fill:#e32d27;}</style></defs><g id="Layer_2" data-name="Layer 2"><g id="REC"><rect class="cls-1" width="300" height="600"/></g><g id="sbhd"><path class="cls-2" d="M25.26,187.86a10.72,10.72,0,0,1-4.32-.79,9.31,9.31,0,0,1-3-2.07l1.78-2.46a8.6,8.6,0,0,0,2.36,1.76,7.18,7.18,0,0,0,3.34.75,5.73,5.73,0,0,0,1.66-.21,3.21,3.21,0,0,0,1.11-.57,2.31,2.31,0,0,0,.62-.79,2.26,2.26,0,0,0,.2-.91,1.61,1.61,0,0,0-.77-1.44,7.15,7.15,0,0,0-1.94-.85c-.79-.24-1.63-.46-2.53-.68a12.51,12.51,0,0,1-2.52-.89,5.52,5.52,0,0,1-1.95-1.55,4.21,4.21,0,0,1-.77-2.64,4.62,4.62,0,0,1,.48-2.09,5,5,0,0,1,1.32-1.67,6.18,6.18,0,0,1,2.06-1.12,8.5,8.5,0,0,1,2.7-.41,10.37,10.37,0,0,1,3.8.66,8.87,8.87,0,0,1,2.93,1.88L30,174.12a6.66,6.66,0,0,0-2.45-1.58,8.13,8.13,0,0,0-2.79-.5,3.59,3.59,0,0,0-2.2.62,2,2,0,0,0-.83,1.62,1.45,1.45,0,0,0,.77,1.3,8.4,8.4,0,0,0,1.95.78q1.17.33,2.52.66a11.79,11.79,0,0,1,2.53.95,5.56,5.56,0,0,1,1.94,1.62,4.33,4.33,0,0,1,.77,2.68,5.52,5.52,0,0,1-.41,2.15,4.66,4.66,0,0,1-1.25,1.78,6.21,6.21,0,0,1-2.17,1.22A10.13,10.13,0,0,1,25.26,187.86Z"/><path class="cls-2" d="M43.87,187.54v-8.21a2.54,2.54,0,0,0-.71-2.09,3,3,0,0,0-1.91-.56,3.74,3.74,0,0,0-2,.54,4.89,4.89,0,0,0-1.36,1.19v9.13H35.06v-18H37.9v6.72a5.86,5.86,0,0,1,.8-.75,5.57,5.57,0,0,1,1-.68,6.17,6.17,0,0,1,1.27-.47,5.8,5.8,0,0,1,1.47-.18,4.26,4.26,0,0,1,3.16,1.06,4.15,4.15,0,0,1,1.05,3.07v9.24Z"/><path class="cls-2" d="M56.29,187.86a6.81,6.81,0,0,1-2.81-.55,6.3,6.3,0,0,1-2.11-1.49,6.55,6.55,0,0,1-1.32-2.17,7.83,7.83,0,0,1,0-5.29,6.55,6.55,0,0,1,1.32-2.17,6.14,6.14,0,0,1,2.11-1.48,7.58,7.58,0,0,1,5.62,0,6.27,6.27,0,0,1,3.42,3.65,7.83,7.83,0,0,1,0,5.29,6.24,6.24,0,0,1-1.32,2.17,6.36,6.36,0,0,1-2.1,1.49A6.84,6.84,0,0,1,56.29,187.86Zm0-2.51a3.64,3.64,0,0,0,1.62-.35,3.47,3.47,0,0,0,1.17-.94,4.08,4.08,0,0,0,.72-1.39A5.81,5.81,0,0,0,60,181a5.56,5.56,0,0,0-.24-1.64,4.13,4.13,0,0,0-.72-1.38,3.36,3.36,0,0,0-1.17-.94,3.51,3.51,0,0,0-1.62-.36,3.52,3.52,0,0,0-2.78,1.3,4,4,0,0,0-.73,1.38,5.57,5.57,0,0,0-.25,1.64,5.82,5.82,0,0,0,.25,1.67,3.93,3.93,0,0,0,.73,1.39,3.47,3.47,0,0,0,2.78,1.29Z"/><path class="cls-2" d="M72.89,187.86a4.92,4.92,0,0,1-2.31-.55,5.83,5.83,0,0,1-1.87-1.58v6.78H65.87v-18h2.84v1.78a5.28,5.28,0,0,1,1.81-1.54,5,5,0,0,1,2.37-.57,5.82,5.82,0,0,1,2.32.46A5.13,5.13,0,0,1,77,176a6.29,6.29,0,0,1,1.2,2.15,9.89,9.89,0,0,1,0,5.77A6.29,6.29,0,0,1,77,186a5.28,5.28,0,0,1-1.83,1.35A5.66,5.66,0,0,1,72.89,187.86Zm-.84-2.51a3.29,3.29,0,0,0,2.7-1.21,4.77,4.77,0,0,0,1-3.14,4.68,4.68,0,0,0-1-3.11,3.32,3.32,0,0,0-2.7-1.21,4.08,4.08,0,0,0-1.93.5,3.9,3.9,0,0,0-1.41,1.23v5.16a3.28,3.28,0,0,0,.6.7,4.55,4.55,0,0,0,.81.57,4.6,4.6,0,0,0,.95.38A3.72,3.72,0,0,0,72.05,185.35Z"/><path class="cls-2" d="M88.47,187.54v-18H91.3v6.78a5.14,5.14,0,0,1,4.19-2.14,5.66,5.66,0,0,1,2.34.48A5.1,5.1,0,0,1,99.66,176a6.44,6.44,0,0,1,1.2,2.16,8.71,8.71,0,0,1,.44,2.83,8.86,8.86,0,0,1-.44,2.89,6.29,6.29,0,0,1-1.21,2.16,5,5,0,0,1-1.85,1.35,5.71,5.71,0,0,1-2.31.46,5.06,5.06,0,0,1-2.35-.56,5.81,5.81,0,0,1-1.84-1.54v1.78Zm2.83-3.92a3.84,3.84,0,0,0,1.42,1.23,4,4,0,0,0,2,.5,3.29,3.29,0,0,0,2.69-1.21,4.87,4.87,0,0,0,1-3.14,5.67,5.67,0,0,0-.25-1.74,4,4,0,0,0-.75-1.36,3.45,3.45,0,0,0-2.67-1.22,4,4,0,0,0-2,.52,4,4,0,0,0-1.42,1.24Z"/><path class="cls-2" d="M105.59,172.9a1.68,1.68,0,0,1-1.24-.51,1.74,1.74,0,0,1,0-2.48,1.75,1.75,0,1,1,1.24,3Zm-1.43,14.64v-13H107v13Z"/><path class="cls-2" d="M116,192.83a9.68,9.68,0,0,1-3-.42,7,7,0,0,1-2.51-1.52l1.32-2.06a4.55,4.55,0,0,0,1.84,1.3,6.76,6.76,0,0,0,2.32.38,5.47,5.47,0,0,0,1.39-.18,3.12,3.12,0,0,0,2.14-1.73,4,4,0,0,0,.33-1.74v-1.48A5.76,5.76,0,0,1,118,187a4.73,4.73,0,0,1-2.36.6,5.87,5.87,0,0,1-2.31-.45,5.19,5.19,0,0,1-1.84-1.3,6,6,0,0,1-1.2-2.09,9.66,9.66,0,0,1,0-5.7,6.24,6.24,0,0,1,1.2-2.1,5.14,5.14,0,0,1,1.83-1.31,5.82,5.82,0,0,1,2.32-.45,5.07,5.07,0,0,1,4.18,2.14V174.5h2.84v12.36a6.32,6.32,0,0,1-.6,2.92,4.93,4.93,0,0,1-1.55,1.84,6,6,0,0,1-2.16.94A10.88,10.88,0,0,1,116,192.83Zm.52-7.8a3.89,3.89,0,0,0,1.93-.52,4,4,0,0,0,1.41-1.21v-4.89a4.36,4.36,0,0,0-3.34-1.73,3.4,3.4,0,0,0-2.7,1.15,4.46,4.46,0,0,0-1,3,4.37,4.37,0,0,0,1,3A3.39,3.39,0,0,0,116.5,185Z"/><path class="cls-2" d="M142.5,187.54v-1.78a5.77,5.77,0,0,1-1.83,1.54,5,5,0,0,1-2.36.56,5.71,5.71,0,0,1-2.31-.46,4.85,4.85,0,0,1-1.83-1.35,6.11,6.11,0,0,1-1.2-2.16,8.86,8.86,0,0,1-.44-2.89,8.71,8.71,0,0,1,.44-2.83,6.11,6.11,0,0,1,1.2-2.16,5.15,5.15,0,0,1,1.82-1.36,5.54,5.54,0,0,1,2.32-.48,5.11,5.11,0,0,1,2.32.54,5.25,5.25,0,0,1,1.87,1.6v-6.78h2.83v18Zm-3.35-2.19a3.72,3.72,0,0,0,1-.13,4.39,4.39,0,0,0,1-.38,4.79,4.79,0,0,0,.81-.55,3.6,3.6,0,0,0,.61-.69v-5.16a4.74,4.74,0,0,0-.61-.68,4.31,4.31,0,0,0-.81-.56,4.39,4.39,0,0,0-1-.38,3.74,3.74,0,0,0-1-.14,3.45,3.45,0,0,0-1.54.33,3.37,3.37,0,0,0-1.16.89,3.8,3.8,0,0,0-.74,1.36,5.38,5.38,0,0,0-.26,1.74,5.44,5.44,0,0,0,.26,1.75,3.85,3.85,0,0,0,.74,1.37,3.43,3.43,0,0,0,1.16.91A3.59,3.59,0,0,0,139.15,185.35Z"/><path class="cls-2" d="M150.44,172.9a1.71,1.71,0,0,1-1.25-.51,1.76,1.76,0,0,1,0-2.48,1.75,1.75,0,0,1,2.49,0,1.76,1.76,0,0,1,0,2.48A1.71,1.71,0,0,1,150.44,172.9ZM149,187.54v-13h2.84v13Z"/><path class="cls-2" d="M160,187.86a9,9,0,0,1-3.13-.52,7.06,7.06,0,0,1-2.46-1.53l1.3-2a5.48,5.48,0,0,0,.84.67,6.13,6.13,0,0,0,1.08.58,7.1,7.1,0,0,0,1.23.41,5.38,5.38,0,0,0,1.25.14,3.25,3.25,0,0,0,1.94-.47,1.45,1.45,0,0,0,.65-1.25,1,1,0,0,0-.58-1,6.24,6.24,0,0,0-1.46-.54l-1.9-.43a7.74,7.74,0,0,1-1.9-.65,4.07,4.07,0,0,1-1.46-1.16,3.08,3.08,0,0,1-.58-2,3.49,3.49,0,0,1,.34-1.53,3.59,3.59,0,0,1,1-1.26,4.82,4.82,0,0,1,1.61-.85,7.35,7.35,0,0,1,2.2-.31,7.59,7.59,0,0,1,2.93.52A7.28,7.28,0,0,1,165,176l-1.19,2a5,5,0,0,0-1.61-1.11,5.45,5.45,0,0,0-2.25-.46,3,3,0,0,0-1.77.46,1.4,1.4,0,0,0-.63,1.16.94.94,0,0,0,.58.87,6.41,6.41,0,0,0,1.45.5l1.91.43a8.21,8.21,0,0,1,1.9.67,4.22,4.22,0,0,1,1.46,1.22,3.33,3.33,0,0,1,.58,2.07,3.9,3.9,0,0,1-.35,1.62,3.58,3.58,0,0,1-1,1.29,5.11,5.11,0,0,1-1.7.85A7.94,7.94,0,0,1,160,187.86Z"/><path class="cls-2" d="M174.19,187.86a7,7,0,0,1-2.71-.51,6.35,6.35,0,0,1-2.12-1.43,6.62,6.62,0,0,1-1.39-2.17,7.47,7.47,0,0,1-.5-2.75,7.27,7.27,0,0,1,.5-2.72,6.57,6.57,0,0,1,1.39-2.16,6.35,6.35,0,0,1,2.12-1.43,6.82,6.82,0,0,1,2.71-.52,7.75,7.75,0,0,1,1.75.19,5.83,5.83,0,0,1,1.37.52,5,5,0,0,1,1.07.74,6.65,6.65,0,0,1,.81.88l-1.86,1.7a3.48,3.48,0,0,0-3-1.52,3.66,3.66,0,0,0-2.86,1.21,4.48,4.48,0,0,0-1.08,3.11,5.18,5.18,0,0,0,.28,1.75,4,4,0,0,0,.81,1.37,3.83,3.83,0,0,0,1.24.91,4,4,0,0,0,1.61.32,3.5,3.5,0,0,0,3-1.56l1.86,1.75a6.61,6.61,0,0,1-1.89,1.62A6,6,0,0,1,174.19,187.86Z"/><path class="cls-2" d="M187.61,187.86a6.76,6.76,0,0,1-2.8-.55,6.3,6.3,0,0,1-2.11-1.49,6.24,6.24,0,0,1-1.32-2.17,7.83,7.83,0,0,1,0-5.29,6.24,6.24,0,0,1,1.32-2.17,6.14,6.14,0,0,1,2.11-1.48,7.56,7.56,0,0,1,5.61,0,6.14,6.14,0,0,1,2.11,1.48,6.55,6.55,0,0,1,1.32,2.17,7.83,7.83,0,0,1,0,5.29,6.55,6.55,0,0,1-1.32,2.17,6.3,6.3,0,0,1-2.11,1.49A6.81,6.81,0,0,1,187.61,187.86Zm0-2.51a3.58,3.58,0,0,0,1.62-.35,3.51,3.51,0,0,0,1.18-.94,4.25,4.25,0,0,0,.71-1.39,5.82,5.82,0,0,0,.25-1.67,5.57,5.57,0,0,0-.25-1.64,4.3,4.3,0,0,0-.71-1.38,3.39,3.39,0,0,0-1.18-.94,3.76,3.76,0,0,0-3.21,0,3.52,3.52,0,0,0-1.19.94,4.34,4.34,0,0,0-.73,1.38,5.56,5.56,0,0,0-.24,1.64,5.81,5.81,0,0,0,.24,1.67,4.29,4.29,0,0,0,.73,1.39A3.65,3.65,0,0,0,186,185,3.57,3.57,0,0,0,187.61,185.35Z"/><path class="cls-2" d="M206,187.54v-1.73a6.81,6.81,0,0,1-1.88,1.42,5.62,5.62,0,0,1-2.71.63,4.26,4.26,0,0,1-3.16-1.06,4.2,4.2,0,0,1-1.05-3.07V174.5H200v8.18a2.56,2.56,0,0,0,.72,2.09,3,3,0,0,0,1.93.58,3.76,3.76,0,0,0,2-.52,4.86,4.86,0,0,0,1.36-1.18V174.5h2.83v13Z"/><path class="cls-2" d="M221.34,187.54v-8.16a2.58,2.58,0,0,0-.72-2.11,3,3,0,0,0-1.93-.59,3.68,3.68,0,0,0-2,.54,5.36,5.36,0,0,0-1.39,1.19v9.13h-2.83v-13h2.83v1.75a5.86,5.86,0,0,1,.8-.75,5.66,5.66,0,0,1,1.06-.68,6.58,6.58,0,0,1,1.29-.47,5.8,5.8,0,0,1,1.47-.18,4.23,4.23,0,0,1,3.16,1.08,4.29,4.29,0,0,1,1,3.11v9.18Z"/><path class="cls-2" d="M231.78,187.86a3.38,3.38,0,0,1-2.51-.86,3.5,3.5,0,0,1-.83-2.51V177h-2.16V174.5h2.16v-3.57h2.83v3.57h2.65V177h-2.65v6.84a1.9,1.9,0,0,0,.31,1.12,1.08,1.08,0,0,0,.93.44,1.86,1.86,0,0,0,.75-.15,1.55,1.55,0,0,0,.5-.33l.67,2.16a3,3,0,0,1-1,.59A4.69,4.69,0,0,1,231.78,187.86Z"/><path class="cls-2" d="M240.94,187.86a9,9,0,0,1-3.13-.52,6.88,6.88,0,0,1-2.46-1.53l1.29-2a6.67,6.67,0,0,0,.84.67,6.5,6.5,0,0,0,1.08.58,7.72,7.72,0,0,0,1.23.41,5.38,5.38,0,0,0,1.25.14,3.26,3.26,0,0,0,2-.47,1.47,1.47,0,0,0,.65-1.25,1.07,1.07,0,0,0-.58-1,6.6,6.6,0,0,0-1.46-.54l-1.9-.43a7.82,7.82,0,0,1-1.91-.65,4.15,4.15,0,0,1-1.46-1.16,3.14,3.14,0,0,1-.58-2,3.57,3.57,0,0,1,1.33-2.79,4.77,4.77,0,0,1,1.6-.85,7.4,7.4,0,0,1,2.2-.31,7.52,7.52,0,0,1,2.93.52,7,7,0,0,1,2.12,1.29l-1.19,2a4.93,4.93,0,0,0-1.6-1.11,5.53,5.53,0,0,0-2.26-.46,3,3,0,0,0-1.76.46,1.39,1.39,0,0,0-.64,1.16.94.94,0,0,0,.58.87,6.51,6.51,0,0,0,1.46.5l1.9.43a8.29,8.29,0,0,1,1.91.67,4.19,4.19,0,0,1,1.45,1.22,3.33,3.33,0,0,1,.58,2.07,3.75,3.75,0,0,1-.35,1.62,3.48,3.48,0,0,1-1,1.29,5,5,0,0,1-1.7.85A7.83,7.83,0,0,1,240.94,187.86Z"/><path class="cls-2" d="M27.5,216.86a9.58,9.58,0,0,1-3.71-.7,9,9,0,0,1-2.91-1.94A8.68,8.68,0,0,1,19,211.27a10.69,10.69,0,0,1,0-7.45,8.74,8.74,0,0,1,1.91-2.94,8.86,8.86,0,0,1,2.91-1.95,10.21,10.21,0,0,1,7.43,0,8.72,8.72,0,0,1,2.9,1.95,9,9,0,0,1,1.9,2.94,10.4,10.4,0,0,1,0,7.45,9,9,0,0,1-1.9,2.95,8.84,8.84,0,0,1-2.9,1.94A9.59,9.59,0,0,1,27.5,216.86Zm0-2.81a6,6,0,0,0,2.46-.49,5.68,5.68,0,0,0,1.89-1.37,5.92,5.92,0,0,0,1.2-2.06,8.17,8.17,0,0,0,0-5.17,6,6,0,0,0-1.2-2.06A5.65,5.65,0,0,0,30,201.54a6.33,6.33,0,0,0-4.93,0,5.78,5.78,0,0,0-1.87,1.36A6,6,0,0,0,22,205a8.17,8.17,0,0,0,0,5.17,5.92,5.92,0,0,0,1.2,2.06A5.8,5.8,0,0,0,25,213.56,6,6,0,0,0,27.5,214.05Z"/><path class="cls-2" d="M45.59,216.86a7,7,0,0,1-2.71-.51,6.35,6.35,0,0,1-2.12-1.43,6.62,6.62,0,0,1-1.39-2.17,7.47,7.47,0,0,1-.5-2.75,7.27,7.27,0,0,1,.5-2.72,6.57,6.57,0,0,1,1.39-2.16,6.35,6.35,0,0,1,2.12-1.43,6.82,6.82,0,0,1,2.71-.52,7.75,7.75,0,0,1,1.75.19,5.83,5.83,0,0,1,1.37.52,5,5,0,0,1,1.07.74,6,6,0,0,1,.81.88l-1.86,1.7a3.48,3.48,0,0,0-3-1.52,3.66,3.66,0,0,0-2.86,1.21A4.48,4.48,0,0,0,41.79,210a5.18,5.18,0,0,0,.28,1.75,4,4,0,0,0,.81,1.37,3.83,3.83,0,0,0,1.24.91,4,4,0,0,0,1.61.32,3.5,3.5,0,0,0,3-1.56l1.86,1.75a6.61,6.61,0,0,1-1.89,1.62A6,6,0,0,1,45.59,216.86Z"/><path class="cls-2" d="M57,216.86a3.38,3.38,0,0,1-2.51-.86,3.46,3.46,0,0,1-.84-2.51V206H51.53V203.5h2.16v-3.57h2.84v3.57h2.65V206H56.53v6.84a1.9,1.9,0,0,0,.31,1.12,1.08,1.08,0,0,0,.93.44,1.78,1.78,0,0,0,.74-.15,1.35,1.35,0,0,0,.5-.33l.68,2.16a3.14,3.14,0,0,1-1,.59A4.69,4.69,0,0,1,57,216.86Z"/><path class="cls-2" d="M72,216.54V202.61l-3,3.07-1.83-1.91,5.18-5.24h2.76v18Z"/><path class="cls-2" d="M85.45,216.86a6.19,6.19,0,0,1-3.28-.82,6.84,6.84,0,0,1-2.23-2.15,9.4,9.4,0,0,1-1.28-3,13.65,13.65,0,0,1,0-6.72,9.46,9.46,0,0,1,1.28-3,6.68,6.68,0,0,1,2.23-2.13,7,7,0,0,1,6.53,0,6.78,6.78,0,0,1,2.23,2.13,9.94,9.94,0,0,1,1.28,3,13.65,13.65,0,0,1,0,6.72,9.88,9.88,0,0,1-1.28,3A6.94,6.94,0,0,1,88.7,216,6.15,6.15,0,0,1,85.45,216.86Zm0-2.81a3.08,3.08,0,0,0,1.85-.54,3.79,3.79,0,0,0,1.22-1.43A7.44,7.44,0,0,0,89.2,210a14.11,14.11,0,0,0,.21-2.47,14,14,0,0,0-.2-2.47,6.9,6.9,0,0,0-.67-2.07,4.16,4.16,0,0,0-1.23-1.42,3.6,3.6,0,0,0-3.73,0A4.16,4.16,0,0,0,82.35,203a7.19,7.19,0,0,0-.68,2.07,13,13,0,0,0-.22,2.47,13.2,13.2,0,0,0,.22,2.47,7.13,7.13,0,0,0,.68,2.06,4.1,4.1,0,0,0,1.23,1.43A3.08,3.08,0,0,0,85.45,214.05Z"/><path class="cls-2" d="M94.57,211.22v-2.43h6.48v2.43Z"/><path class="cls-2" d="M107.05,216.54V202.61l-3,3.07-1.83-1.91,5.18-5.24h2.75v18Z"/><path class="cls-2" d="M117.3,216.54V202.61l-2.94,3.07-1.83-1.91,5.18-5.24h2.75v18Z"/></g></g></svg>