<svg xmlns="http://www.w3.org/2000/svg" xmlns:xlink="http://www.w3.org/1999/xlink" viewBox="0 0 160.06 600"><defs><style>.cls-1{fill:none;}.cls-2{fill:#fff;}.cls-3{fill:#e32d27;}.cls-4{clip-path:url(#clip-path);}</style><clipPath id="clip-path" transform="translate(-7.05)"><rect class="cls-1" y="284.15" width="148.37" height="114.65"/></clipPath></defs><g id="Layer_2" data-name="Layer 2"><g id="content"><rect x="0.06" width="160" height="600"/><path class="cls-2" d="M23.38,24.92H33.91a6.53,6.53,0,0,1,3.14.7,4.83,4.83,0,0,1,2,1.86A5,5,0,0,1,39.67,30a4.72,4.72,0,0,1-1,3.06,4.06,4.06,0,0,1-2.46,1.53A4.22,4.22,0,0,1,39,36.25a5.18,5.18,0,0,1,1.11,3.27,5.27,5.27,0,0,1-1.53,3.88,5.8,5.8,0,0,1-4.29,1.52H23.38ZM33,33a2.34,2.34,0,0,0,1.71-.61,2.14,2.14,0,0,0,.63-1.61,2.1,2.1,0,0,0-.64-1.56,2.33,2.33,0,0,0-1.7-.63H27.64V33Zm.15,8.34A2.66,2.66,0,0,0,35,40.65a2.43,2.43,0,0,0,0-3.39,2.59,2.59,0,0,0-1.89-.68H27.64v4.71Z" transform="translate(-7.05)"/><path class="cls-2" d="M44.22,44.31a4,4,0,0,1-1-3V24.92H47V40.33a1.77,1.77,0,0,0,.36,1.14,1.17,1.17,0,0,0,1,.45,2.45,2.45,0,0,0,.78-.12,1,1,0,0,0,.51-.3l.81,2.88a4.63,4.63,0,0,1-3.15.93A4.19,4.19,0,0,1,44.22,44.31Z" transform="translate(-7.05)"/><path class="cls-2" d="M62.08,43.06a5.87,5.87,0,0,1-2,1.67,5.42,5.42,0,0,1-2.48.58,6.19,6.19,0,0,1-3.3-.9A6,6,0,0,1,52,41.8a9.35,9.35,0,0,1-.83-4.09,9.28,9.28,0,0,1,.83-4A6.22,6.22,0,0,1,54.3,31a6,6,0,0,1,3.31-.94,5.7,5.7,0,0,1,4.47,2.22V30.43h3.84V44.92H62.08Zm0-7.91A3.56,3.56,0,0,0,60.67,34a4.19,4.19,0,0,0-1.89-.47,3.36,3.36,0,0,0-2.64,1.16,4.49,4.49,0,0,0-1,3.06,4.47,4.47,0,0,0,1,3,3.34,3.34,0,0,0,2.64,1.17,4.18,4.18,0,0,0,1.89-.46,3.56,3.56,0,0,0,1.41-1.19Z" transform="translate(-7.05)"/><path class="cls-2" d="M69.76,33.76a7,7,0,0,1,2.73-2.71,8,8,0,0,1,4-1,7.58,7.58,0,0,1,3.48.74,6.07,6.07,0,0,1,2.25,1.87L79.69,35a3.48,3.48,0,0,0-3.06-1.56,3.72,3.72,0,0,0-2.83,1.16,4.82,4.82,0,0,0,0,6.13,4,4,0,0,0,4.57.77,3.75,3.75,0,0,0,1.32-1.16l2.49,2.31A6.13,6.13,0,0,1,80,44.56a7.45,7.45,0,0,1-3.5.75,8,8,0,0,1-4-1,7,7,0,0,1-2.73-2.71,8.32,8.32,0,0,1,0-7.87Z" transform="translate(-7.05)"/><path class="cls-2" d="M90.22,39.34,88.48,41.2v3.72H84.67v-20h3.81v12L94,30.43h4.68L92.92,37l5.91,7.92H94.06Z" transform="translate(-7.05)"/><path class="cls-2" d="M23.38,54.92H37.54v3.65h-9.9v4.35h9.69v3.66H27.64v8.34H23.38Z" transform="translate(-7.05)"/><path class="cls-2" d="M40.42,60.43h3.81v2a6.28,6.28,0,0,1,2-1.67,5.41,5.41,0,0,1,2.58-.68v3.72a5.54,5.54,0,0,0-1.05-.12,5.06,5.06,0,0,0-2,.49,3.41,3.41,0,0,0-1.53,1.17v9.59H40.42Z" transform="translate(-7.05)"/><path class="cls-2" d="M51.51,57.63a2.29,2.29,0,0,1,1.6-3.89,2.24,2.24,0,0,1,1.62.66,2.31,2.31,0,0,1,0,3.23,2.27,2.27,0,0,1-3.22,0Zm-.29,2.8H55V74.92H51.22Z" transform="translate(-7.05)"/><path class="cls-2" d="M68.77,73.06a5.87,5.87,0,0,1-2,1.67,5.42,5.42,0,0,1-2.48.58,6.19,6.19,0,0,1-3.3-.9,6,6,0,0,1-2.29-2.61,10.37,10.37,0,0,1,0-8.13A6.22,6.22,0,0,1,61,61a6,6,0,0,1,3.31-.94,5.7,5.7,0,0,1,4.47,2.22V54.92h3.84v20H68.77Zm0-7.94a3.56,3.56,0,0,0-1.41-1.19,4.19,4.19,0,0,0-1.89-.47,3.35,3.35,0,0,0-2.64,1.18,5.08,5.08,0,0,0,0,6.11,3.34,3.34,0,0,0,2.64,1.17,4.18,4.18,0,0,0,1.89-.46,3.56,3.56,0,0,0,1.41-1.19Z" transform="translate(-7.05)"/><path class="cls-2" d="M86.35,73.06a5.87,5.87,0,0,1-2,1.67,5.42,5.42,0,0,1-2.48.58,6.19,6.19,0,0,1-3.3-.9,6,6,0,0,1-2.29-2.61,10.37,10.37,0,0,1,0-8.13A6.22,6.22,0,0,1,78.57,61a6,6,0,0,1,3.31-.94,5.7,5.7,0,0,1,4.47,2.22V60.43h3.84V74.92H86.35Zm0-7.91A3.56,3.56,0,0,0,84.94,64a4.19,4.19,0,0,0-1.89-.47,3.36,3.36,0,0,0-2.64,1.16,5.07,5.07,0,0,0,0,6.1,3.34,3.34,0,0,0,2.64,1.17,4.18,4.18,0,0,0,1.89-.46,3.56,3.56,0,0,0,1.41-1.19Z" transform="translate(-7.05)"/><path class="cls-2" d="M95.5,75.88a4.59,4.59,0,0,0,1.92,1.35,6.71,6.71,0,0,0,2.43.45,4,4,0,0,0,2.88-1,3.59,3.59,0,0,0,1-2.76v-1.5A6.85,6.85,0,0,1,101.61,74a6.73,6.73,0,0,1-3,.63,4.69,4.69,0,0,1-3.51-1.2A4.59,4.59,0,0,1,94,70.09V60.43h3.81v8.16a2.65,2.65,0,0,0,.69,2.06,2.88,2.88,0,0,0,2,.61,3.85,3.85,0,0,0,1.89-.48,4.29,4.29,0,0,0,1.41-1.17V60.43h3.81V73.78A6.56,6.56,0,0,1,105.48,79a8.19,8.19,0,0,1-5.63,1.84,8.9,8.9,0,0,1-6.06-2.15Z" transform="translate(-7.05)"/><path class="cls-2" d="M33.25,103.06a5.87,5.87,0,0,1-2,1.67,5.42,5.42,0,0,1-2.48.58,6.19,6.19,0,0,1-3.3-.9,6,6,0,0,1-2.29-2.61,10.37,10.37,0,0,1,0-8.13A6.22,6.22,0,0,1,25.47,91a6,6,0,0,1,3.31-.94,5.7,5.7,0,0,1,4.47,2.22V84.92h3.84v20H33.25Zm0-7.94a3.56,3.56,0,0,0-1.41-1.19A4.19,4.19,0,0,0,30,93.46a3.35,3.35,0,0,0-2.64,1.18,5.08,5.08,0,0,0,0,6.11A3.34,3.34,0,0,0,30,101.92a4.18,4.18,0,0,0,1.89-.46,3.56,3.56,0,0,0,1.41-1.19Z" transform="translate(-7.05)"/><path class="cls-2" d="M40.9,93.85a7.27,7.27,0,0,1,2.67-2.75,7.41,7.41,0,0,1,3.87-1,7.12,7.12,0,0,1,3.78,1,6.82,6.82,0,0,1,2.57,2.82,9.08,9.08,0,0,1,.91,4.15v.85H43.93a3.75,3.75,0,0,0,1.29,2.42,4.25,4.25,0,0,0,2.88,1,6.37,6.37,0,0,0,2.12-.38A4.82,4.82,0,0,0,52,100.84l1.68,2.46A7.06,7.06,0,0,1,51,104.79a10.55,10.55,0,0,1-3.33.52,8.27,8.27,0,0,1-4-.94A6.94,6.94,0,0,1,41,101.69a7.83,7.83,0,0,1-1-4A7.75,7.75,0,0,1,40.9,93.85Zm4,.23a3.9,3.9,0,0,0-1.05,2.23H51a3.69,3.69,0,0,0-1-2.22,3.31,3.31,0,0,0-2.6-1A3.26,3.26,0,0,0,44.92,94.08Z" transform="translate(-7.05)"/><path class="cls-2" d="M67.42,103.06a5.87,5.87,0,0,1-2,1.67,5.42,5.42,0,0,1-2.48.58,6.19,6.19,0,0,1-3.3-.9,6,6,0,0,1-2.29-2.61,10.37,10.37,0,0,1,0-8.13A6.22,6.22,0,0,1,59.64,91,6,6,0,0,1,63,90.07a5.7,5.7,0,0,1,4.47,2.22V90.43h3.84v14.49H67.42Zm0-7.91A3.56,3.56,0,0,0,66,94a4.19,4.19,0,0,0-1.89-.47,3.36,3.36,0,0,0-2.64,1.16,5.07,5.07,0,0,0,0,6.1,3.34,3.34,0,0,0,2.64,1.17,4.18,4.18,0,0,0,1.89-.46,3.56,3.56,0,0,0,1.41-1.19Z" transform="translate(-7.05)"/><path class="cls-2" d="M76.08,104.31a4,4,0,0,1-1-3V84.92h3.81v15.41a1.77,1.77,0,0,0,.36,1.14,1.17,1.17,0,0,0,1,.45,2.45,2.45,0,0,0,.78-.12,1,1,0,0,0,.51-.3l.81,2.88a4.63,4.63,0,0,1-3.15.93A4.19,4.19,0,0,1,76.08,104.31Z" transform="translate(-7.05)"/><path class="cls-2" d="M84.37,100.4a7.44,7.44,0,0,0,2.28,1.37,7,7,0,0,0,2.73.61,3.43,3.43,0,0,0,1.82-.4,1.22,1.22,0,0,0,.61-1.09,1.15,1.15,0,0,0-.72-1.06,9.36,9.36,0,0,0-2.19-.66A21.3,21.3,0,0,1,86,98.44a4.63,4.63,0,0,1-2-1.3,3.56,3.56,0,0,1-.84-2.51,4,4,0,0,1,.71-2.28,4.76,4.76,0,0,1,2-1.66,7.61,7.61,0,0,1,3.18-.62,9.12,9.12,0,0,1,5.85,2l-1.53,2.62a5.36,5.36,0,0,0-1.84-1.21A6.52,6.52,0,0,0,89.17,93a3.27,3.27,0,0,0-1.66.36,1.12,1.12,0,0,0-.62,1,1,1,0,0,0,.68,1,10.26,10.26,0,0,0,2.08.62,19.56,19.56,0,0,1,2.91.75,5,5,0,0,1,2,1.38,3.77,3.77,0,0,1,.87,2.62,4.11,4.11,0,0,1-.73,2.39,4.74,4.74,0,0,1-2.16,1.67,8.69,8.69,0,0,1-3.38.6,10.9,10.9,0,0,1-3.61-.6,8,8,0,0,1-2.87-1.65Z" transform="translate(-7.05)"/><path class="cls-2" d="M23.68,130.4A7.44,7.44,0,0,0,26,131.77a7,7,0,0,0,2.73.61,3.43,3.43,0,0,0,1.82-.4,1.22,1.22,0,0,0,.61-1.09,1.15,1.15,0,0,0-.72-1.06,9.36,9.36,0,0,0-2.19-.66,21.3,21.3,0,0,1-2.88-.73,4.63,4.63,0,0,1-2-1.3,3.56,3.56,0,0,1-.84-2.51,4,4,0,0,1,.71-2.28,4.76,4.76,0,0,1,2.05-1.66,7.61,7.61,0,0,1,3.18-.62,9.12,9.12,0,0,1,5.85,2l-1.53,2.62a5.36,5.36,0,0,0-1.84-1.21,6.52,6.52,0,0,0-2.45-.48,3.27,3.27,0,0,0-1.66.36,1.12,1.12,0,0,0-.62,1,1,1,0,0,0,.68,1,10.26,10.26,0,0,0,2.08.62,19.56,19.56,0,0,1,2.91.75,5,5,0,0,1,2,1.38,3.77,3.77,0,0,1,.87,2.62,4.11,4.11,0,0,1-.73,2.39,4.74,4.74,0,0,1-2.16,1.67,8.69,8.69,0,0,1-3.38.6,10.9,10.9,0,0,1-3.61-.6A8,8,0,0,1,22,133.06Z" transform="translate(-7.05)"/><path class="cls-2" d="M39.4,134.29a3.92,3.92,0,0,1-1-2.95v-7.58H36v-3.33h2.4v-4h3.84v4h2.94v3.33H42.19v6.57a1.77,1.77,0,0,0,.36,1.14,1.17,1.17,0,0,0,1,.45,2.45,2.45,0,0,0,.78-.12,1.16,1.16,0,0,0,.54-.3l.81,2.88a4.68,4.68,0,0,1-3.18.93A4.22,4.22,0,0,1,39.4,134.29Z" transform="translate(-7.05)"/><path class="cls-2" d="M57.7,133.06a5.87,5.87,0,0,1-2,1.67,5.42,5.42,0,0,1-2.48.58,6.19,6.19,0,0,1-3.3-.9,6,6,0,0,1-2.29-2.61,10.37,10.37,0,0,1,0-8.13A6.22,6.22,0,0,1,49.92,121a6,6,0,0,1,3.31-.94,5.7,5.7,0,0,1,4.47,2.22v-1.86h3.84v14.49H57.7Zm0-7.91A3.56,3.56,0,0,0,56.29,124a4.19,4.19,0,0,0-1.89-.47,3.36,3.36,0,0,0-2.64,1.16,5.07,5.07,0,0,0,0,6.1,3.34,3.34,0,0,0,2.64,1.17,4.18,4.18,0,0,0,1.89-.46,3.56,3.56,0,0,0,1.41-1.19Z" transform="translate(-7.05)"/><path class="cls-2" d="M65.32,120.43h3.81v2a6.28,6.28,0,0,1,2-1.67,5.41,5.41,0,0,1,2.58-.68v3.72a5.54,5.54,0,0,0-1-.12,5.06,5.06,0,0,0-2,.49,3.41,3.41,0,0,0-1.53,1.17v9.59H65.32Z" transform="translate(-7.05)"/><path class="cls-2" d="M77.92,134.29a3.92,3.92,0,0,1-1-2.95v-7.58h-2.4v-3.33h2.4v-4h3.84v4h2.94v3.33H80.71v6.57a1.77,1.77,0,0,0,.36,1.14,1.17,1.17,0,0,0,1,.45,2.45,2.45,0,0,0,.78-.12,1.16,1.16,0,0,0,.54-.3l.81,2.88a4.68,4.68,0,0,1-3.18.93A4.22,4.22,0,0,1,77.92,134.29Z" transform="translate(-7.05)"/><path class="cls-2" d="M25.09,164.29A3.92,3.92,0,0,1,24,161.34v-7.58h-2.4v-3.33H24v-4h3.84v4h2.94v3.33H27.88v6.57a1.77,1.77,0,0,0,.36,1.14,1.17,1.17,0,0,0,1,.45,2.45,2.45,0,0,0,.78-.12,1.16,1.16,0,0,0,.54-.3l.81,2.88a4.68,4.68,0,0,1-3.18.93A4.22,4.22,0,0,1,25.09,164.29Z" transform="translate(-7.05)"/><path class="cls-2" d="M43.24,156.1a2.62,2.62,0,0,0-.69-2,3,3,0,0,0-2-.6,3.76,3.76,0,0,0-1.89.5,4.52,4.52,0,0,0-1.41,1.21v9.75H33.43v-20h3.81v7.4a6.75,6.75,0,0,1,5.1-2.25,4.8,4.8,0,0,1,3.53,1.2,4.59,4.59,0,0,1,1.18,3.36v10.29H43.24Z" transform="translate(-7.05)"/><path class="cls-2" d="M51.12,147.63a2.29,2.29,0,0,1,1.6-3.89,2.24,2.24,0,0,1,1.62.66,2.31,2.31,0,0,1,0,3.23,2.27,2.27,0,0,1-3.22,0Zm-.29,2.8h3.81v14.49H50.83Z" transform="translate(-7.05)"/><path class="cls-2" d="M58.81,160.4a7.44,7.44,0,0,0,2.28,1.37,7,7,0,0,0,2.73.61,3.43,3.43,0,0,0,1.82-.4,1.22,1.22,0,0,0,.61-1.09,1.15,1.15,0,0,0-.72-1.06,9.36,9.36,0,0,0-2.19-.66,21.3,21.3,0,0,1-2.88-.73,4.63,4.63,0,0,1-2-1.3,3.56,3.56,0,0,1-.84-2.51,4,4,0,0,1,.71-2.28,4.76,4.76,0,0,1,2-1.66,7.61,7.61,0,0,1,3.18-.62,9.12,9.12,0,0,1,5.85,2l-1.53,2.62a5.36,5.36,0,0,0-1.84-1.21,6.52,6.52,0,0,0-2.45-.48,3.27,3.27,0,0,0-1.66.36,1.12,1.12,0,0,0-.62,1,1,1,0,0,0,.68.95,10.26,10.26,0,0,0,2.08.62,19.56,19.56,0,0,1,2.91.75A5,5,0,0,1,69,158a3.77,3.77,0,0,1,.87,2.62,4.11,4.11,0,0,1-.73,2.39A4.74,4.74,0,0,1,67,164.71a8.69,8.69,0,0,1-3.38.6,10.9,10.9,0,0,1-3.61-.6,8,8,0,0,1-2.87-1.65Z" transform="translate(-7.05)"/><path class="cls-2" d="M33,185.05l-3.06,9.87H25.81L21.4,180.43h4l2.7,9.75,3.18-9.75h3.39l3.18,9.75,2.7-9.75h4l-4.41,14.49H36Z" transform="translate(-7.05)"/><path class="cls-2" d="M46.39,183.85a7.27,7.27,0,0,1,2.67-2.75,7.41,7.41,0,0,1,3.87-1,7.12,7.12,0,0,1,3.78,1,6.82,6.82,0,0,1,2.57,2.82,9.08,9.08,0,0,1,.91,4.15v.85H49.42a3.75,3.75,0,0,0,1.29,2.42,4.25,4.25,0,0,0,2.88,1,6.37,6.37,0,0,0,2.12-.38,4.82,4.82,0,0,0,1.75-1.06l1.68,2.46a7.06,7.06,0,0,1-2.64,1.49,10.55,10.55,0,0,1-3.33.52,8.27,8.27,0,0,1-4-.94,6.94,6.94,0,0,1-2.77-2.68,7.83,7.83,0,0,1-1-4A7.75,7.75,0,0,1,46.39,183.85Zm4,.23a3.9,3.9,0,0,0-1,2.23H56.5a3.69,3.69,0,0,0-1-2.22,3.31,3.31,0,0,0-2.6-1A3.26,3.26,0,0,0,50.41,184.08Z" transform="translate(-7.05)"/><path class="cls-2" d="M63,183.85a7.27,7.27,0,0,1,2.67-2.75,7.41,7.41,0,0,1,3.87-1,7.12,7.12,0,0,1,3.78,1,6.82,6.82,0,0,1,2.57,2.82,9.08,9.08,0,0,1,.91,4.15v.85H66a3.75,3.75,0,0,0,1.29,2.42,4.25,4.25,0,0,0,2.88,1,6.37,6.37,0,0,0,2.12-.38,4.82,4.82,0,0,0,1.75-1.06l1.68,2.46a7.06,7.06,0,0,1-2.64,1.49,10.55,10.55,0,0,1-3.33.52,8.27,8.27,0,0,1-4-.94A6.94,6.94,0,0,1,63,191.69a7.83,7.83,0,0,1-1-4A7.75,7.75,0,0,1,63,183.85Zm4,.23a3.9,3.9,0,0,0-1,2.23h7.14a3.69,3.69,0,0,0-1-2.22,3.31,3.31,0,0,0-2.6-1A3.26,3.26,0,0,0,67,184.08Z" transform="translate(-7.05)"/><path class="cls-2" d="M85.09,189.34l-1.74,1.86v3.72H79.54v-20h3.81v12l5.49-6.45h4.68L87.79,187l5.91,7.92H88.93Z" transform="translate(-7.05)"/><path class="cls-2" d="M95,183.85a7.27,7.27,0,0,1,2.67-2.75,7.41,7.41,0,0,1,3.87-1,7.12,7.12,0,0,1,3.78,1,6.82,6.82,0,0,1,2.57,2.82,9.08,9.08,0,0,1,.91,4.15v.85H98a3.75,3.75,0,0,0,1.29,2.42,4.25,4.25,0,0,0,2.88,1,6.37,6.37,0,0,0,2.12-.38,4.82,4.82,0,0,0,1.75-1.06l1.68,2.46a7.06,7.06,0,0,1-2.64,1.49,10.55,10.55,0,0,1-3.33.52,8.27,8.27,0,0,1-4-.94A6.94,6.94,0,0,1,95,191.69a7.83,7.83,0,0,1-1-4A7.75,7.75,0,0,1,95,183.85Zm4,.23A3.9,3.9,0,0,0,98,186.31h7.14a3.69,3.69,0,0,0-1-2.22,3.31,3.31,0,0,0-2.6-1A3.26,3.26,0,0,0,99,184.08Z" transform="translate(-7.05)"/><path class="cls-2" d="M121.33,186.17a2.7,2.7,0,0,0-.69-2.08,2.84,2.84,0,0,0-2-.63,3.72,3.72,0,0,0-1.9.5,4.6,4.6,0,0,0-1.4,1.21v9.75h-3.81V180.43h3.81v1.89a6.66,6.66,0,0,1,5.07-2.25,4.21,4.21,0,0,1,4.71,4.62v10.23h-3.81Z" transform="translate(-7.05)"/><path class="cls-2" d="M138.88,193.06a5.87,5.87,0,0,1-2,1.67,5.42,5.42,0,0,1-2.48.58,6.19,6.19,0,0,1-3.3-.9,6,6,0,0,1-2.29-2.61,10.37,10.37,0,0,1,0-8.13A6.22,6.22,0,0,1,131.1,181a6,6,0,0,1,3.31-.94,5.7,5.7,0,0,1,4.47,2.22v-7.37h3.84v20h-3.84Zm0-7.94a3.56,3.56,0,0,0-1.41-1.19,4.19,4.19,0,0,0-1.89-.47,3.35,3.35,0,0,0-2.64,1.18,5.08,5.08,0,0,0,0,6.11,3.34,3.34,0,0,0,2.64,1.17,4.18,4.18,0,0,0,1.89-.46,3.56,3.56,0,0,0,1.41-1.19Z" transform="translate(-7.05)"/><path class="cls-2" d="M146.76,191.11a2.27,2.27,0,0,1,1.69-.71,2.33,2.33,0,0,1,1.71.71,2.35,2.35,0,0,1,.72,1.71,2.29,2.29,0,0,1-.72,1.68,2.34,2.34,0,0,1-1.71.72,2.28,2.28,0,0,1-1.69-.72,2.31,2.31,0,0,1-.71-1.68A2.38,2.38,0,0,1,146.76,191.11Zm-.62-16.19h4.59l-.6,13.5h-3.36Z" transform="translate(-7.05)"/><g id="Layer_1-2" data-name="Layer 1"><path class="cls-3" d="M8.69,600c-.06-4.93,0-7,0-10.76.67-48.09,35.12-80.7,78.45-80.7s78.6,36.13,78.6,80.7c0,3.65-.09,6.83,0,10.76" transform="translate(-7.05)"/></g><g class="cls-4"><g class="cls-4"><path class="cls-2" d="M35.64,329c15-4.6,22.65,6.93,22.65,6.93S53.52,319.8,35.64,329" transform="translate(-7.05)"/><path class="cls-2" d="M64.74,329.55a4.86,4.86,0,0,1,0-.54,11.23,11.23,0,0,0-5.94,8.64s2.05-4.77,6.86-6.21a2.93,2.93,0,0,1-.92-1.89" transform="translate(-7.05)"/><path class="cls-2" d="M45.54,336.28s0,2.27,0,3.42c-.58,0-3.08-.16-4.18-.2,0,.61,0,1.25,0,1.86,1.32,0,2.68.18,4,.17,0,1.1,0,2.05,0,3.16-1.31,0-2.63-.11-4-.14,0,.68,0,1.34,0,2,1.42,0,2.84.15,4.25.13,0-.05,0,3.36,0,3.36-2.8,0-6.12-.22-9.26-.48l.22-14c1.32.15,5.43.59,9,.7" transform="translate(-7.05)"/><path class="cls-2" d="M46.73,336.31l0,3.65c1.32.07,2.5.07,2.5.07v10.14a31.64,31.64,0,0,0,5-.07l-.06-10s2.24-.1,2.58-.13c0-1.35,0-2.4,0-3.74a87.23,87.23,0,0,1-10,.12" transform="translate(-7.05)"/><path class="cls-2" d="M114.27,334.08c0,1.45,0,2.79,0,4.24.86.05,1.83.22,2.68.29,0,3.54-.09,6.22-.09,9.75,2.38.29,4.07.56,4.72.68,0-3.53.14-6.32.14-9.86,0,0,2.52.39,2.57.43v-4.36a77.55,77.55,0,0,0-10-1.17" transform="translate(-7.05)"/><path class="cls-2" d="M30.36,334.14l-6-1.09,0,14.68c1.54.3,2.94.56,4.44.72l0-4.24,1.61.18c2.6.24,5.22-.74,5.26-5,0-3.76-2.48-4.85-5.26-5.26m-1.11,6.76-.44,0c0-1,0-1.91,0-2.87l.43,0a1.47,1.47,0,0,1,1.46,1.54c0,1.19-.74,1.42-1.47,1.34" transform="translate(-7.05)"/><path class="cls-2" d="M80.36,347.77c.67-1.75,1.34-3.38,2-5.13.11,1.68.17,3.19.28,4.86,1.67-.18,3-.28,4.7-.38-.43-4.46-.81-9.25-1.24-13.7l-4.32.39c-.81,2.11-1.62,4.66-2.42,6.77-.78-1.95-1.56-4.24-2.34-6.18-1.46.21-4,.66-4.32.66-.5,4.55-1.06,9.6-1.56,14.14,1.14-.2,3.95-.64,4.79-.76.13-1.69.26-3.5.39-5.2q1,2.43,1.94,4.86l2.09-.33" transform="translate(-7.05)"/><path class="cls-2" d="M111.11,343.1c1.28-.57,2.21-1.81,2.24-4.27.05-3.71-2.57-5.3-5.23-5.5-2-.16-4-.26-6-.32-.06,4.71-.08,9-.15,13.75,1.5,0,3.15.15,4.47.26,0-1.32,0-2.31,0-3.64.86,1.39,1.56,2.53,2.42,3.94,1.85.16,3.74.4,5.59.67-1.16-1.73-2.2-3.2-3.36-4.89m-4.16-3-.44,0,0-2.84.43,0a1.41,1.41,0,0,1,1.46,1.49,1.22,1.22,0,0,1-1.48,1.35" transform="translate(-7.05)"/><path class="cls-2" d="M96.84,332.91c-1.78,0-3.24,0-4.77.1-1.23,4.57-2.67,9.46-3.9,14.05,1.36,0,2.75-.12,4.11-.12.13-.48.27-1,.4-1.52l2.09-.06s1.83-.05,1.83-.05c.06.17.22.65.46,1.45,1.37,0,2.74,0,4.1,0-1.48-4.84-3-9.5-4.32-13.89m-3.27,9.28c.31-1.17.62-2.4.93-3.57l1.08,3.52a18.63,18.63,0,0,1-2,.05" transform="translate(-7.05)"/><path class="cls-2" d="M122.65,347.73a.76.76,0,1,1-.75.75.75.75,0,0,1,.74-.75Zm0,.12a.64.64,0,1,0,.61.64.62.62,0,0,0-.61-.64Zm-.14,1.07h-.13v-.84l.24,0a.43.43,0,0,1,.26.07.18.18,0,0,1,.07.17.2.2,0,0,1-.16.2h0c.07,0,.12.08.14.2a1,1,0,0,0,0,.21h-.14a.52.52,0,0,1,0-.21.16.16,0,0,0-.18-.15h-.1Zm0-.46h.1c.11,0,.2,0,.2-.15s0-.14-.2-.14h-.1Z" transform="translate(-7.05)"/><path class="cls-2" d="M58.3,348.87a12.2,12.2,0,0,0,5.54,1.4c3.14,0,6.42-1.87,6.49-5.39,0-2.5-1.54-3.69-3.76-4.18l-1.19-.27c-.4-.1-1-.18-1-.73s.69-.78,1.15-.78a8.36,8.36,0,0,1,3.2.68c.44-1.18.89-2.36,1.33-3.53A10.3,10.3,0,0,0,65.45,335c-3.15,0-6.32,1.91-6.39,5.4-.05,2.31,1.66,3.57,3.71,3.95l1,.2c.48.1,1.17.16,1.16.82s-.83.74-1.35.74A6.18,6.18,0,0,1,60,344.9c-.55,1.23-1.19,2.75-1.73,4" transform="translate(-7.05)"/><path class="cls-2" d="M69.64,325a3.53,3.53,0,1,0,3.49,3.57A3.52,3.52,0,0,0,69.64,325m1.28,1.3a4.23,4.23,0,0,0-3.79,2.22s0,0,0,0a2.53,2.53,0,0,1,.09-1,2.41,2.41,0,0,1,2.93-1.72,2.29,2.29,0,0,1,.83.45l0,0" transform="translate(-7.05)"/></g></g></g><g id="rec"><rect class="cls-1" width="160" height="600"/></g></g></svg>