<?xml version="1.0" encoding="utf-8"?>
<!-- Generator: Adobe Illustrator 24.2.1, SVG Export Plug-In . SVG Version: 6.00 Build 0)  -->
<svg version="1.1" id="Layer_1" xmlns="http://www.w3.org/2000/svg" xmlns:xlink="http://www.w3.org/1999/xlink" x="0px" y="0px"
	 viewBox="0 0 160 600" style="enable-background:new 0 0 160 600;" xml:space="preserve">
<style type="text/css">
	.st0{fill:none;}
	.st1{fill:#E52823;}
</style>
<g id="Layer_2_1_">
	<g id="rec">
		<rect class="st0" width="160" height="600"/>
	</g>
	<g id="subhed">
		<path class="st1" d="M21.7,224.5c-1,0-2-0.2-2.9-0.5c-0.8-0.3-1.4-0.8-2-1.4L18,221c0.4,0.5,1,0.9,1.6,1.2
			c0.7,0.4,1.5,0.5,2.2,0.5c0.4,0,0.7,0,1.1-0.1c0.3-0.1,0.5-0.2,0.7-0.4c0.3-0.3,0.5-0.7,0.5-1.1c0-0.4-0.2-0.8-0.5-1
			c-0.4-0.2-0.8-0.4-1.3-0.6c-0.5-0.2-1.1-0.3-1.7-0.4c-0.6-0.1-1.2-0.3-1.7-0.6c-0.5-0.2-0.9-0.6-1.3-1c-0.4-0.5-0.5-1.1-0.5-1.8
			c0-0.5,0.1-1,0.3-1.4c0.2-0.4,0.5-0.8,0.9-1.1c0.4-0.3,0.9-0.6,1.4-0.8c0.6-0.2,1.2-0.3,1.8-0.3c0.9,0,1.7,0.1,2.5,0.4
			c0.7,0.3,1.4,0.7,2,1.2l-1.2,1.6c-0.5-0.5-1-0.8-1.6-1.1c-0.6-0.2-1.2-0.3-1.8-0.3c-0.5,0-1,0.1-1.5,0.4c-0.3,0.2-0.6,0.7-0.5,1.1
			c0,0.4,0.2,0.7,0.5,0.9c0.4,0.2,0.8,0.4,1.3,0.5c0.5,0.1,1.1,0.3,1.7,0.4c0.6,0.1,1.1,0.4,1.7,0.6c0.5,0.3,1,0.6,1.3,1.1
			c0.4,0.5,0.5,1.2,0.5,1.8c0,0.5-0.1,1-0.3,1.4c-0.2,0.5-0.5,0.9-0.8,1.2c-0.4,0.4-0.9,0.6-1.5,0.8
			C23.1,224.4,22.4,224.5,21.7,224.5z"/>
		<path class="st1" d="M34.1,224.3v-5.5c0.1-0.5-0.1-1-0.5-1.4c-0.4-0.3-0.8-0.4-1.3-0.4c-0.5,0-0.9,0.1-1.3,0.4
			c-0.3,0.2-0.7,0.5-0.9,0.8v6.1h-1.9v-12h1.9v4.5c0.2-0.2,0.3-0.4,0.5-0.5c0.2-0.2,0.5-0.3,0.7-0.4c0.3-0.1,0.6-0.2,0.8-0.3
			c0.3-0.1,0.7-0.1,1-0.1c0.8-0.1,1.5,0.2,2.1,0.7c0.5,0.5,0.7,1.3,0.7,2v6.1L34.1,224.3z"/>
		<path class="st1" d="M42.4,224.5c-0.6,0-1.3-0.1-1.9-0.4c-0.5-0.2-1-0.6-1.4-1c-0.4-0.4-0.7-0.9-0.9-1.4c-0.2-0.6-0.3-1.2-0.3-1.8
			c0-0.6,0.1-1.2,0.3-1.8c0.2-0.5,0.5-1,0.9-1.4c0.4-0.4,0.9-0.8,1.4-1c1.2-0.5,2.5-0.5,3.7,0c0.5,0.2,1,0.6,1.4,1
			c0.4,0.4,0.7,0.9,0.9,1.4c0.2,0.6,0.3,1.2,0.3,1.8c0,0.6-0.1,1.2-0.3,1.8c-0.2,0.5-0.5,1-0.9,1.4c-0.4,0.4-0.9,0.8-1.4,1
			C43.7,224.4,43.1,224.5,42.4,224.5z M42.4,222.8c0.4,0,0.7-0.1,1.1-0.2c0.3-0.1,0.6-0.4,0.8-0.6c0.2-0.3,0.4-0.6,0.5-0.9
			c0.1-0.4,0.2-0.7,0.2-1.1c0-0.4-0.1-0.7-0.2-1.1c-0.1-0.3-0.3-0.6-0.5-0.9c-0.2-0.3-0.5-0.5-0.8-0.6c-0.3-0.2-0.7-0.2-1.1-0.2
			c-0.4,0-0.7,0.1-1.1,0.2c-0.3,0.2-0.6,0.4-0.8,0.6c-0.2,0.3-0.4,0.6-0.5,0.9c-0.1,0.4-0.2,0.7-0.2,1.1c0,0.4,0.1,0.7,0.2,1.1
			c0.1,0.3,0.3,0.7,0.5,0.9c0.2,0.3,0.5,0.5,0.8,0.6C41.7,222.8,42,222.8,42.4,222.8z"/>
		<path class="st1" d="M53.5,224.5c-0.5,0-1.1-0.1-1.5-0.4c-0.5-0.2-0.9-0.6-1.2-1v4.5h-1.9v-12h1.9v1.2c0.3-0.4,0.7-0.8,1.2-1
			c0.5-0.3,1-0.4,1.6-0.4c0.5,0,1.1,0.1,1.5,0.3c0.5,0.2,0.9,0.5,1.2,0.9c0.3,0.4,0.6,0.9,0.8,1.3c0.2,0.6,0.3,1.3,0.3,1.9
			c0,0.7-0.1,1.3-0.3,1.9c-0.2,0.5-0.4,1-0.8,1.4c-0.3,0.4-0.7,0.7-1.2,0.9C54.5,224.4,54,224.5,53.5,224.5z M52.9,222.8
			c0.7,0,1.4-0.3,1.8-0.8c0.5-0.6,0.7-1.3,0.7-2.1c0-0.8-0.2-1.5-0.7-2.1c-0.4-0.5-1.1-0.8-1.8-0.8c-0.5,0-0.9,0.1-1.3,0.3
			c-0.4,0.2-0.7,0.5-0.9,0.8v3.4c0.1,0.2,0.2,0.3,0.4,0.5c0.3,0.3,0.7,0.5,1.2,0.6C52.5,222.8,52.7,222.8,52.9,222.8z"/>
		<path class="st1" d="M63.9,224.3v-12h1.9v4.5c0.3-0.5,0.8-0.8,1.2-1.1c0.5-0.2,1-0.4,1.5-0.4c0.5,0,1.1,0.1,1.6,0.3
			c0.5,0.2,0.9,0.5,1.2,0.9c0.4,0.4,0.6,0.9,0.8,1.4c0.2,0.6,0.3,1.2,0.3,1.9c0,0.7-0.1,1.3-0.3,1.9c-0.2,0.5-0.5,1-0.8,1.4
			c-0.3,0.4-0.8,0.7-1.2,0.9c-0.5,0.2-1,0.3-1.5,0.3c-0.5,0-1.1-0.1-1.6-0.4c-0.5-0.2-0.9-0.6-1.2-1v1.2L63.9,224.3z M65.8,221.7
			c0.3,0.4,0.6,0.6,1,0.8c0.4,0.2,0.8,0.3,1.3,0.3c0.7,0,1.4-0.3,1.8-0.8c0.5-0.6,0.7-1.3,0.7-2.1c0-0.4-0.1-0.8-0.2-1.2
			c-0.2-0.7-0.7-1.2-1.3-1.5c-0.3-0.1-0.7-0.2-1-0.2c-0.5,0-0.9,0.1-1.3,0.3c-0.4,0.2-0.7,0.5-1,0.8L65.8,221.7z"/>
		<path class="st1" d="M75.3,214.5c-0.3,0-0.6-0.1-0.8-0.3c-0.2-0.2-0.3-0.5-0.3-0.8c0-0.6,0.5-1.2,1.1-1.2c0,0,0,0,0,0
			c0.3,0,0.6,0.1,0.8,0.3c0.2,0.2,0.4,0.5,0.3,0.8C76.4,214,75.9,214.5,75.3,214.5z M74.3,224.3v-8.7h1.9v8.7H74.3z"/>
		<path class="st1" d="M82.2,227.8c-0.7,0-1.4-0.1-2-0.3c-0.6-0.2-1.2-0.5-1.7-1l0.9-1.4c0.3,0.4,0.8,0.7,1.2,0.9
			c0.5,0.2,1,0.3,1.6,0.2c0.3,0,0.6,0,0.9-0.1c0.3-0.1,0.6-0.2,0.8-0.4c0.3-0.2,0.5-0.5,0.6-0.8c0.2-0.4,0.2-0.8,0.2-1.2v-1
			c-0.3,0.4-0.7,0.8-1.2,1.1c-0.5,0.3-1,0.4-1.6,0.4c-0.5,0-1.1-0.1-1.5-0.3c-0.5-0.2-0.9-0.5-1.2-0.9c-0.4-0.4-0.6-0.9-0.8-1.4
			c-0.2-0.6-0.3-1.3-0.3-1.9c0-0.6,0.1-1.3,0.3-1.9c0.2-0.5,0.4-1,0.8-1.4c0.3-0.4,0.7-0.7,1.2-0.9c0.5-0.2,1-0.3,1.6-0.3
			c0.5,0,1.1,0.1,1.6,0.4c0.5,0.3,0.9,0.6,1.2,1.1v-1.2h1.9v8.2c0,0.7-0.1,1.3-0.4,1.9c-0.2,0.5-0.6,0.9-1,1.2
			c-0.4,0.3-0.9,0.5-1.4,0.6C83.3,227.7,82.7,227.8,82.2,227.8z M82.5,222.6c0.4,0,0.9-0.1,1.3-0.3c0.4-0.2,0.7-0.5,1-0.8v-3.3
			c-0.3-0.3-0.6-0.6-1-0.8c-0.4-0.2-0.8-0.3-1.3-0.3c-0.7,0-1.3,0.2-1.8,0.8c-0.5,0.6-0.7,1.3-0.7,2c0,0.7,0.2,1.4,0.7,2
			C81.2,222.3,81.9,222.6,82.5,222.6z"/>
		<path class="st1" d="M23.7,245.9v-1.2c-0.3,0.4-0.7,0.8-1.2,1c-0.5,0.3-1,0.4-1.6,0.4c-0.5,0-1.1-0.1-1.5-0.3
			c-0.5-0.2-0.9-0.5-1.2-0.9c-0.4-0.4-0.6-0.9-0.8-1.4c-0.2-0.6-0.3-1.3-0.3-1.9c0-0.6,0.1-1.3,0.3-1.9c0.2-0.5,0.4-1,0.8-1.4
			c0.3-0.4,0.7-0.7,1.2-0.9c0.5-0.2,1-0.3,1.5-0.3c0.5,0,1.1,0.1,1.5,0.4c0.5,0.3,0.9,0.6,1.2,1.1v-4.5h1.9v12L23.7,245.9z
			 M21.4,244.4c0.4,0,0.9-0.1,1.3-0.4c0.2-0.1,0.4-0.2,0.5-0.4c0.2-0.1,0.3-0.3,0.4-0.4v-3.4c-0.1-0.2-0.3-0.3-0.4-0.4
			c-0.5-0.5-1.1-0.7-1.8-0.7c-0.7,0-1.4,0.3-1.8,0.8c-0.2,0.3-0.4,0.6-0.5,0.9c-0.1,0.4-0.2,0.8-0.2,1.2c0,0.4,0.1,0.8,0.2,1.2
			c0.1,0.3,0.3,0.6,0.5,0.9C20.1,244.1,20.7,244.4,21.4,244.4L21.4,244.4z"/>
		<path class="st1" d="M29,236.1c-0.6,0-1.2-0.5-1.2-1.1c0,0,0,0,0,0c0-0.3,0.1-0.6,0.3-0.8c0.2-0.2,0.5-0.3,0.8-0.3
			c0.6,0,1.2,0.5,1.2,1.1c0,0,0,0,0,0c0,0.3-0.1,0.6-0.3,0.8C29.6,236,29.3,236.1,29,236.1z M28,245.9v-8.7h1.9v8.7H28z"/>
		<path class="st1" d="M35.3,246.1c-0.7,0-1.4-0.1-2.1-0.4c-0.6-0.2-1.2-0.6-1.6-1l0.9-1.4c0.2,0.2,0.4,0.3,0.6,0.4
			c0.2,0.1,0.5,0.3,0.7,0.4c0.3,0.1,0.5,0.2,0.8,0.3c0.3,0.1,0.6,0.1,0.8,0.1c0.5,0,0.9-0.1,1.3-0.3c0.3-0.2,0.4-0.5,0.4-0.8
			c0-0.3-0.1-0.5-0.4-0.6c-0.3-0.2-0.7-0.3-1-0.4c-0.4-0.1-0.8-0.2-1.3-0.3c-0.4-0.1-0.9-0.2-1.3-0.4c-0.4-0.2-0.7-0.4-1-0.8
			c-0.3-0.4-0.4-0.9-0.4-1.3c0-0.3,0.1-0.7,0.2-1c0.2-0.3,0.4-0.6,0.7-0.8c0.3-0.3,0.7-0.4,1.1-0.6c0.5-0.2,1-0.2,1.5-0.2
			c0.7,0,1.4,0.1,2,0.3c0.5,0.2,1,0.5,1.4,0.9l-0.8,1.3c-0.3-0.3-0.7-0.6-1.1-0.7c-0.5-0.2-1-0.3-1.5-0.3c-0.4,0-0.8,0.1-1.2,0.3
			c-0.3,0.2-0.4,0.5-0.4,0.8c0,0.3,0.1,0.5,0.4,0.6c0.3,0.2,0.7,0.3,1,0.3l1.3,0.3c0.4,0.1,0.9,0.3,1.3,0.4c0.4,0.2,0.7,0.5,1,0.8
			c0.3,0.4,0.4,0.9,0.4,1.4c0,0.4-0.1,0.7-0.2,1.1c-0.2,0.3-0.4,0.6-0.7,0.9c-0.3,0.3-0.7,0.4-1.1,0.6
			C36.5,246.1,35.9,246.1,35.3,246.1z"/>
		<path class="st1" d="M44.8,246.1c-0.6,0-1.2-0.1-1.8-0.3c-0.5-0.2-1-0.6-1.4-1c-0.4-0.4-0.7-0.9-0.9-1.4c-0.4-1.2-0.4-2.5,0-3.6
			c0.2-0.5,0.5-1,0.9-1.4c0.4-0.4,0.9-0.8,1.4-1c0.6-0.2,1.2-0.3,1.8-0.2c0.4,0,0.8,0,1.2,0.1c0.3,0.1,0.6,0.2,0.9,0.3
			c0.3,0.1,0.5,0.3,0.7,0.5c0.2,0.2,0.4,0.4,0.5,0.6l-1.2,1.1c-0.5-0.7-1.2-1-2-1c-0.7,0-1.4,0.3-1.9,0.8c-0.5,0.6-0.8,1.3-0.7,2.1
			c0,0.4,0.1,0.8,0.2,1.2c0.1,0.3,0.3,0.6,0.5,0.9c0.2,0.3,0.5,0.5,0.8,0.6c0.3,0.1,0.7,0.2,1.1,0.2c0.8,0,1.6-0.4,2-1.1l1.2,1.2
			c-0.3,0.4-0.8,0.8-1.3,1.1C46.2,246,45.5,246.1,44.8,246.1z"/>
		<path class="st1" d="M53.8,246.1c-0.6,0-1.3-0.1-1.9-0.4c-0.5-0.2-1-0.6-1.4-1c-0.4-0.4-0.7-0.9-0.9-1.4c-0.4-1.1-0.4-2.4,0-3.5
			c0.2-0.5,0.5-1,0.9-1.4c0.4-0.4,0.9-0.8,1.4-1c1.2-0.5,2.5-0.5,3.7,0c0.5,0.2,1,0.6,1.4,1c0.4,0.4,0.7,0.9,0.9,1.4
			c0.4,1.1,0.4,2.4,0,3.5c-0.4,1.1-1.2,2-2.3,2.4C55,246,54.4,246.1,53.8,246.1z M53.8,244.4c0.4,0,0.7-0.1,1.1-0.2
			c0.3-0.1,0.6-0.4,0.8-0.6c0.2-0.3,0.4-0.6,0.5-0.9c0.1-0.4,0.2-0.7,0.2-1.1c0-0.4-0.1-0.7-0.2-1.1c-0.1-0.3-0.3-0.6-0.5-0.9
			c-0.2-0.3-0.5-0.5-0.8-0.6c-0.3-0.2-0.7-0.2-1.1-0.2c-0.4,0-0.7,0.1-1.1,0.2c-0.3,0.2-0.6,0.4-0.8,0.6c-0.2,0.3-0.4,0.6-0.5,0.9
			c-0.1,0.4-0.2,0.7-0.2,1.1c0,0.4,0.1,0.7,0.2,1.1c0.1,0.3,0.3,0.7,0.5,0.9c0.2,0.3,0.5,0.5,0.8,0.6
			C53,244.4,53.4,244.4,53.8,244.4L53.8,244.4z"/>
		<path class="st1" d="M66,245.9v-1.1c-0.4,0.4-0.8,0.7-1.3,1c-0.6,0.3-1.2,0.4-1.8,0.4c-0.8,0.1-1.5-0.2-2.1-0.7
			c-0.5-0.5-0.7-1.3-0.7-2v-6.2H62v5.4c-0.1,0.5,0.1,1,0.5,1.4c0.4,0.3,0.8,0.4,1.3,0.4c0.5,0,0.9-0.1,1.3-0.4
			c0.4-0.2,0.7-0.5,0.9-0.8v-6.1h1.9v8.7L66,245.9z"/>
		<path class="st1" d="M76.2,245.9v-5.4c0.1-0.5-0.1-1-0.5-1.4c-0.4-0.3-0.8-0.4-1.3-0.4c-0.5,0-0.9,0.1-1.3,0.4
			c-0.4,0.2-0.7,0.5-0.9,0.8v6.1h-1.9v-8.7h1.9v1.2c0.2-0.2,0.3-0.4,0.5-0.5c0.2-0.2,0.5-0.3,0.7-0.4c0.3-0.1,0.6-0.2,0.9-0.3
			c0.3-0.1,0.7-0.1,1-0.1c1.4-0.2,2.6,0.8,2.8,2.1c0,0.2,0,0.4,0,0.6v6.1L76.2,245.9z"/>
		<path class="st1" d="M83.2,246.1c-0.6,0.1-1.2-0.2-1.7-0.6c-0.4-0.5-0.6-1.1-0.6-1.7v-5h-1.4v-1.6H81v-2.4h1.9v2.4h1.8v1.6h-1.8
			v4.6c0,0.3,0.1,0.5,0.2,0.8c0.1,0.2,0.4,0.3,0.6,0.3c0.2,0,0.3,0,0.5-0.1c0.1,0,0.2-0.1,0.3-0.2l0.4,1.4c-0.2,0.2-0.4,0.3-0.7,0.4
			C83.9,246.1,83.6,246.1,83.2,246.1z"/>
		<path class="st1" d="M89.3,246.1c-0.7,0-1.4-0.1-2.1-0.4c-0.6-0.2-1.2-0.6-1.6-1l0.9-1.4c0.2,0.2,0.4,0.3,0.6,0.4
			c0.2,0.1,0.5,0.3,0.7,0.4c0.3,0.1,0.5,0.2,0.8,0.3c0.3,0.1,0.6,0.1,0.8,0.1c0.5,0,0.9-0.1,1.3-0.3c0.3-0.2,0.4-0.5,0.4-0.8
			c0-0.3-0.1-0.5-0.4-0.6c-0.3-0.2-0.7-0.3-1-0.4c-0.4-0.1-0.8-0.2-1.3-0.3c-0.4-0.1-0.9-0.2-1.3-0.4c-0.4-0.2-0.7-0.4-1-0.8
			c-0.3-0.4-0.4-0.9-0.4-1.3c0-0.3,0.1-0.7,0.2-1c0.2-0.3,0.4-0.6,0.7-0.8c0.3-0.3,0.7-0.4,1.1-0.6c0.5-0.1,1-0.2,1.5-0.2
			c0.7,0,1.3,0.1,1.9,0.3c0.5,0.2,1,0.5,1.4,0.9l-0.8,1.3c-0.3-0.3-0.7-0.6-1.1-0.7c-0.5-0.2-1-0.3-1.5-0.3c-0.4,0-0.8,0.1-1.2,0.3
			c-0.3,0.2-0.4,0.5-0.4,0.8c0,0.3,0.2,0.5,0.4,0.6c0.3,0.2,0.7,0.3,1,0.3l1.3,0.3c0.4,0.1,0.9,0.3,1.3,0.4c0.4,0.2,0.7,0.5,1,0.8
			c0.3,0.4,0.4,0.9,0.4,1.4c0,0.8-0.3,1.5-0.9,2c-0.3,0.3-0.7,0.4-1.1,0.6C90.3,246.1,89.8,246.1,89.3,246.1z"/>
		<path class="st1" d="M23.2,267.7c-0.8,0-1.7-0.2-2.5-0.5c-0.7-0.3-1.4-0.7-1.9-1.3c-0.6-0.6-1-1.3-1.3-2c-0.6-1.6-0.6-3.4,0-5
			c0.3-0.7,0.7-1.4,1.3-2c0.6-0.6,1.2-1,1.9-1.3c1.6-0.6,3.4-0.6,5,0c0.7,0.3,1.4,0.8,1.9,1.3c0.5,0.6,1,1.3,1.3,2
			c0.6,1.6,0.6,3.4,0,5c-0.3,0.7-0.7,1.4-1.3,2c-0.6,0.6-1.2,1-1.9,1.3C24.9,267.6,24.1,267.7,23.2,267.7z M23.2,265.8
			c1.1,0,2.2-0.4,2.9-1.2c0.4-0.4,0.6-0.9,0.8-1.4c0.4-1.1,0.4-2.3,0-3.5c-0.2-0.5-0.4-1-0.8-1.4c-1.2-1.2-3-1.6-4.5-0.9
			c-1,0.4-1.7,1.3-2,2.3c-0.4,1.1-0.4,2.3,0,3.5c0.2,0.5,0.4,1,0.8,1.4c0.4,0.4,0.8,0.7,1.2,0.9C22.1,265.7,22.7,265.8,23.2,265.8
			L23.2,265.8z"/>
		<path class="st1" d="M35.3,267.7c-0.6,0-1.2-0.1-1.8-0.3c-0.5-0.2-1-0.6-1.4-1c-0.4-0.4-0.7-0.9-0.9-1.5c-0.4-1.2-0.4-2.5,0-3.6
			c0.2-0.5,0.5-1,0.9-1.4c0.4-0.4,0.9-0.7,1.4-1c0.6-0.2,1.2-0.4,1.8-0.4c0.4,0,0.8,0,1.2,0.1c0.3,0.1,0.6,0.2,0.9,0.3
			c0.3,0.1,0.5,0.3,0.7,0.5c0.2,0.2,0.4,0.4,0.5,0.6l-1.2,1.1c-0.5-0.7-1.2-1-2-1c-0.7,0-1.4,0.3-1.9,0.8c-0.5,0.6-0.8,1.3-0.7,2.1
			c0,0.4,0.1,0.8,0.2,1.2c0.1,0.3,0.3,0.6,0.5,0.9c0.2,0.3,0.5,0.5,0.8,0.6c0.3,0.1,0.7,0.2,1.1,0.2c0.8,0,1.5-0.3,2-1l1.2,1.2
			c-0.3,0.4-0.8,0.8-1.3,1.1C36.7,267.6,36,267.7,35.3,267.7z"/>
		<path class="st1" d="M42.9,267.7c-0.6,0-1.2-0.2-1.7-0.6c-0.4-0.5-0.6-1.1-0.6-1.7v-5h-1.4v-1.6h1.4v-2.4h1.9v2.4h1.8v1.6h-1.8
			v4.5c0,0.3,0.1,0.5,0.2,0.8c0.1,0.2,0.4,0.3,0.6,0.3c0.2,0,0.3,0,0.5-0.1c0.1-0.1,0.2-0.1,0.3-0.2l0.5,1.4
			c-0.2,0.2-0.4,0.3-0.7,0.4C43.6,267.7,43.3,267.7,42.9,267.7z"/>
		<path class="st1" d="M52.9,267.5v-9.3l-2,2l-1.2-1.2l3.5-3.5H55v12L52.9,267.5z"/>
		<path class="st1" d="M58.5,267.5l4.5-10.1h-6.2v-1.9h8.7v1.5l-4.6,10.5H58.5z"/>
		<path class="st1" d="M66.4,263.9v-1.6h4.3v1.6H66.4z"/>
		<path class="st1" d="M74.7,267.5v-9.3l-2,2l-1.2-1.2l3.5-3.5h1.8v12L74.7,267.5z"/>
		<path class="st1" d="M83.5,267.7c-0.6,0-1.2-0.1-1.8-0.2c-0.5-0.1-1-0.3-1.5-0.6c-0.4-0.3-0.7-0.6-1-1c-0.4-0.8-0.5-1.7-0.2-2.5
			c0.1-0.3,0.3-0.6,0.6-0.9c0.3-0.3,0.5-0.5,0.9-0.7c0.3-0.2,0.7-0.4,1-0.5c-0.3-0.1-0.7-0.2-1-0.4c-0.3-0.2-0.6-0.4-0.8-0.6
			c-0.2-0.2-0.4-0.5-0.5-0.8c-0.1-0.3-0.2-0.7-0.2-1c0-0.5,0.1-1,0.4-1.4c0.2-0.4,0.6-0.8,1-1c0.4-0.3,0.9-0.5,1.4-0.6
			c1-0.2,2.1-0.2,3.2,0c0.5,0.1,1,0.3,1.4,0.6c0.4,0.2,0.8,0.6,1,1c0.3,0.4,0.4,0.9,0.4,1.4c0,0.7-0.3,1.3-0.7,1.8
			c-0.2,0.2-0.5,0.4-0.8,0.6c-0.3,0.2-0.7,0.3-1,0.4c0.3,0.1,0.7,0.3,1,0.5c0.3,0.2,0.6,0.4,0.9,0.7c0.2,0.3,0.4,0.6,0.6,0.9
			c0.3,0.8,0.3,1.7-0.2,2.5c-0.3,0.4-0.6,0.7-1,1c-0.5,0.3-0.9,0.5-1.5,0.6C84.5,267.6,84,267.7,83.5,267.7z M83.5,265.8
			c0.3,0,0.6,0,0.9-0.1c0.3-0.1,0.5-0.2,0.8-0.3c0.2-0.1,0.4-0.3,0.5-0.5c0.1-0.2,0.2-0.5,0.2-0.7c0-0.3-0.1-0.6-0.3-0.8
			c-0.2-0.2-0.4-0.4-0.7-0.6c-0.3-0.2-0.5-0.3-0.8-0.4c-0.2-0.1-0.5-0.1-0.7-0.2c-0.2,0-0.5,0.1-0.7,0.2c-0.3,0.1-0.6,0.2-0.8,0.4
			c-0.2,0.2-0.5,0.3-0.7,0.6c-0.2,0.2-0.3,0.5-0.3,0.8c0,0.2,0.1,0.5,0.2,0.7c0.1,0.2,0.3,0.4,0.5,0.5c0.2,0.2,0.5,0.3,0.8,0.3
			C82.8,265.8,83.1,265.8,83.5,265.8L83.5,265.8z M83.5,260.5c0.2,0,0.4-0.1,0.7-0.2c0.3-0.1,0.5-0.2,0.8-0.3
			c0.2-0.1,0.4-0.3,0.6-0.5c0.2-0.2,0.3-0.4,0.2-0.7c0-0.5-0.2-0.9-0.6-1.2c-0.5-0.3-1.1-0.4-1.6-0.4c-0.6,0-1.1,0.1-1.6,0.4
			c-0.4,0.2-0.7,0.7-0.7,1.2c0,0.3,0.1,0.5,0.2,0.7c0.2,0.2,0.4,0.4,0.6,0.5c0.2,0.1,0.5,0.2,0.8,0.3
			C83.1,260.4,83.3,260.4,83.5,260.5z"/>
	</g>
</g>
</svg>
