<svg xmlns="http://www.w3.org/2000/svg" viewBox="0 0 300 250"><title>Asset 16</title><g id="Layer_2" data-name="Layer 2"><g id="cta"><path d="M118.05,182.24H22.54A11.57,11.57,0,0,1,11,170.67v-1.21a11.57,11.57,0,0,1,11.57-11.57h95.52a11.57,11.57,0,0,1,11.57,11.57v1.21A11.58,11.58,0,0,1,118.05,182.24Z" fill="#e52a26"/><path d="M28.09,171.8a4,4,0,0,0,1.28.92,3.76,3.76,0,0,0,1.65.35,2.17,2.17,0,0,0,1.39-.38,1.11,1.11,0,0,0,.46-.89.84.84,0,0,0-.27-.64,1.93,1.93,0,0,0-.69-.4c-.28-.1-.66-.21-1.15-.34a13.69,13.69,0,0,1-1.69-.51A3,3,0,0,1,28,169.1a2.16,2.16,0,0,1-.47-1.45,2.39,2.39,0,0,1,.42-1.38,2.81,2.81,0,0,1,1.19-1,4.08,4.08,0,0,1,1.75-.35,4.79,4.79,0,0,1,3.47,1.29l-.93,1.21a3.47,3.47,0,0,0-1.23-.79,4,4,0,0,0-1.45-.26,1.86,1.86,0,0,0-1.14.31,1,1,0,0,0-.42.84.73.73,0,0,0,.26.56,2.08,2.08,0,0,0,.66.36c.26.09.64.2,1.12.32a14.71,14.71,0,0,1,1.71.54,3,3,0,0,1,1.15.84,2.22,2.22,0,0,1,.48,1.49,2.62,2.62,0,0,1-1.58,2.48,4.55,4.55,0,0,1-2,.38,5.6,5.6,0,0,1-2.17-.39,4.67,4.67,0,0,1-1.59-1.08Z" fill="#fff"/><path d="M36,169.22a3.3,3.3,0,0,1,3-1.74,3.11,3.11,0,0,1,2.89,1.77,4.22,4.22,0,0,1,.41,1.88v.35H37.1a2,2,0,0,0,2.13,1.86,2.88,2.88,0,0,0,1-.19,2.47,2.47,0,0,0,.87-.54l.67,1a3.48,3.48,0,0,1-1.21.72,4.43,4.43,0,0,1-1.51.25,3.72,3.72,0,0,1-1.8-.44A3.26,3.26,0,0,1,36,172.86a3.73,3.73,0,0,1-.46-1.85A3.77,3.77,0,0,1,36,169.22Zm1.61,0a2.08,2.08,0,0,0-.54,1.24h3.77a2,2,0,0,0-.22-.84,1.73,1.73,0,0,0-.62-.67,1.93,1.93,0,0,0-1-.26A1.75,1.75,0,0,0,37.62,169.2Z" fill="#fff"/><path d="M43.73,169.22a3.3,3.3,0,0,1,3-1.74,3.11,3.11,0,0,1,2.89,1.77,4.22,4.22,0,0,1,.41,1.88v.35H44.82A2,2,0,0,0,47,173.34a2.88,2.88,0,0,0,1-.19,2.47,2.47,0,0,0,.87-.54l.67,1a3.48,3.48,0,0,1-1.21.72,4.43,4.43,0,0,1-1.51.25,3.72,3.72,0,0,1-1.8-.44,3.26,3.26,0,0,1-1.26-1.24,3.73,3.73,0,0,1-.46-1.85A3.89,3.89,0,0,1,43.73,169.22Zm1.62,0a2.08,2.08,0,0,0-.54,1.24h3.77a2,2,0,0,0-.22-.84,1.73,1.73,0,0,0-.62-.67,1.93,1.93,0,0,0-1-.26A1.74,1.74,0,0,0,45.35,169.2Z" fill="#fff"/><path d="M55.73,174.08a1.76,1.76,0,0,1-.44-1.28v-3.88H54.18v-1.28h1.11v-1.83h1.46v1.83h1.36v1.28H56.75v3.52a1,1,0,0,0,.17.58.57.57,0,0,0,.47.22,1,1,0,0,0,.38-.07A.7.7,0,0,0,58,173l.35,1.1a1.91,1.91,0,0,1-1.37.43A1.8,1.8,0,0,1,55.73,174.08Z" fill="#fff"/><path d="M64,170.12a1.37,1.37,0,0,0-.35-1.05,1.45,1.45,0,0,0-1-.31,2,2,0,0,0-1,.26,2.76,2.76,0,0,0-.75.64v4.67H59.42v-9.25h1.46v3.47a3,3,0,0,1,1-.76,3,3,0,0,1,1.37-.32,2.23,2.23,0,0,1,1.62.54,2.11,2.11,0,0,1,.55,1.58v4.74H64v-4.21Z" fill="#fff"/><path d="M67.32,169.22a3.3,3.3,0,0,1,3-1.74,3.11,3.11,0,0,1,2.89,1.77,4.22,4.22,0,0,1,.41,1.88v.35H68.41a2,2,0,0,0,2.13,1.86,2.88,2.88,0,0,0,1-.19,2.47,2.47,0,0,0,.87-.54l.67,1a3.48,3.48,0,0,1-1.21.72,4.43,4.43,0,0,1-1.51.25,3.72,3.72,0,0,1-1.8-.44,3.26,3.26,0,0,1-1.26-1.24,3.73,3.73,0,0,1-.46-1.85A3.89,3.89,0,0,1,67.32,169.22Zm1.62,0a2.08,2.08,0,0,0-.54,1.24h3.77a2,2,0,0,0-.22-.84,1.73,1.73,0,0,0-.62-.67,1.93,1.93,0,0,0-1-.26A1.74,1.74,0,0,0,68.94,169.2Z" fill="#fff"/><path d="M78.63,165.09h3.44a5.27,5.27,0,0,1,2.52.59,4.29,4.29,0,0,1,1.71,1.64,5,5,0,0,1,0,4.79,4.35,4.35,0,0,1-1.71,1.64,5.16,5.16,0,0,1-2.52.59H78.63Zm3.45,7.82a3.29,3.29,0,0,0,1.69-.42,2.83,2.83,0,0,0,1.1-1.15,3.49,3.49,0,0,0,.38-1.62,3.52,3.52,0,0,0-.37-1.63,2.75,2.75,0,0,0-1.09-1.15,3.35,3.35,0,0,0-1.72-.42H80.25v6.39Z" fill="#fff"/><path d="M88.46,169.22a3.3,3.3,0,0,1,3-1.74,3.11,3.11,0,0,1,2.89,1.77,4.22,4.22,0,0,1,.41,1.88v.35H89.55a2,2,0,0,0,2.13,1.86,2.88,2.88,0,0,0,1-.19,2.47,2.47,0,0,0,.87-.54l.67,1a3.48,3.48,0,0,1-1.21.72,4.43,4.43,0,0,1-1.51.25,3.72,3.72,0,0,1-1.8-.44,3.26,3.26,0,0,1-1.26-1.24A3.73,3.73,0,0,1,88,171,3.89,3.89,0,0,1,88.46,169.22Zm1.62,0a2.08,2.08,0,0,0-.54,1.24h3.77a2,2,0,0,0-.22-.84,1.73,1.73,0,0,0-.62-.67,1.93,1.93,0,0,0-1-.26A1.74,1.74,0,0,0,90.08,169.2Z" fill="#fff"/><path d="M100.88,173.43a2.81,2.81,0,0,1-.95.8,2.62,2.62,0,0,1-1.2.29,2.87,2.87,0,0,1-1.54-.42,2.82,2.82,0,0,1-1.06-1.22,4.82,4.82,0,0,1,0-3.75,2.91,2.91,0,0,1,1.06-1.23,2.79,2.79,0,0,1,1.54-.43,2.74,2.74,0,0,1,1.19.28,2.67,2.67,0,0,1,1,.81v-.93h1.46v6.7h-1.46Zm0-3.75a1.9,1.9,0,0,0-.74-.65,2.13,2.13,0,0,0-1-.26,1.7,1.7,0,0,0-1.37.62,2.8,2.8,0,0,0,0,3.22,1.7,1.7,0,0,0,1.37.62,2.15,2.15,0,0,0,1-.25,2,2,0,0,0,.74-.64Z" fill="#fff"/><path d="M104.66,174.08a1.76,1.76,0,0,1-.44-1.28v-7.71h1.46v7.35a1,1,0,0,0,.17.58.57.57,0,0,0,.47.22,1,1,0,0,0,.38-.07A.59.59,0,0,0,107,173l.35,1.1a1.91,1.91,0,0,1-1.36.43A1.8,1.8,0,0,1,104.66,174.08Z" fill="#fff"/><path d="M108.26,172.43a3.23,3.23,0,0,0,1,.67,3.06,3.06,0,0,0,1.26.28,1.78,1.78,0,0,0,1-.22.68.68,0,0,0,.34-.61.66.66,0,0,0-.39-.61,5.06,5.06,0,0,0-1.14-.37,10.14,10.14,0,0,1-1.3-.35,2,2,0,0,1-.87-.6,1.6,1.6,0,0,1-.36-1.1,1.78,1.78,0,0,1,.31-1,2.12,2.12,0,0,1,.91-.74,3.42,3.42,0,0,1,1.42-.28,3.79,3.79,0,0,1,2.61.94l-.61,1a2.33,2.33,0,0,0-.85-.58,2.86,2.86,0,0,0-1.14-.22,1.85,1.85,0,0,0-.92.2.62.62,0,0,0-.33.55.57.57,0,0,0,.36.53,5.1,5.1,0,0,0,1.1.35,8,8,0,0,1,1.32.37,2.27,2.27,0,0,1,.9.63,1.73,1.73,0,0,1,.37,1.17,1.84,1.84,0,0,1-.74,1.5,3.21,3.21,0,0,1-2,.58,4.73,4.73,0,0,1-1.61-.27,3.47,3.47,0,0,1-1.26-.77Z" fill="#fff"/><rect width="300" height="250" fill="none"/></g></g></svg>