<svg xmlns="http://www.w3.org/2000/svg" viewBox="0 0 300.18 250"><title>END 300X250</title><g id="Layer_2" data-name="Layer 2"><g id="Layer_1-2" data-name="Layer 1"><g id="Layer_1-3" data-name="Layer 1"><rect width="300" height="250"/></g><path d="M28.28,212c14.89-4.8,22.62,6.54,22.62,6.54S45.91,202.66,28.28,212Z" fill="#fff"/><path d="M57.2,212.19c0-.06,0-.48,0-.54a11.16,11.16,0,0,0-5.77,8.67s2-4.77,6.73-6.27A2.91,2.91,0,0,1,57.2,212.19Z" fill="#fff"/><path d="M38.22,219.16s0,2.26,0,3.4c-.57,0-3.06-.11-4.15-.13,0,.61,0,1.24,0,1.85,1.31,0,2.67.14,4,.11,0,1.1,0,2,0,3.14-1.31,0-2.62-.06-3.92-.07,0,.67,0,1.33.05,2,1.41,0,2.82.1,4.23.06,0-.05,0,3.34,0,3.34-2.78.06-6.08-.13-9.21-.34V218.61C30.58,218.74,34.67,219.11,38.22,219.16Z" fill="#fff"/><path d="M39.41,219.17v3.63c1.31,0,2.49,0,2.49,0L42,232.91a32.6,32.6,0,0,0,5-.14l-.21-10,2.56-.17c0-1.33-.07-2.38-.1-3.71A88.21,88.21,0,0,1,39.41,219.17Z" fill="#fff"/><path d="M106.5,215.94c0,1.44,0,2.77.06,4.22.85,0,1.82.19,2.67.25,0,3.51,0,6.18.06,9.69,2.37.25,4,.5,4.7.6,0-3.51,0-6.29,0-9.8,0,0,2.51.35,2.56.39l-.06-4.33A75.36,75.36,0,0,0,106.5,215.94Z" fill="#fff"/><path d="M23.11,217.26l-6-1,.18,14.59c1.53.28,2.93.51,4.42.65l-.08-4.21,1.61.15c2.59.2,5.17-.81,5.15-5C28.39,218.67,25.88,217.63,23.11,217.26Zm-1,6.74-.44,0c0-1,0-1.91,0-2.86l.42,0a1.45,1.45,0,0,1,1.47,1.51C23.55,223.83,22.83,224.07,22.11,224Z" fill="#fff"/><path d="M73,230.06c.64-1.75,1.28-3.38,1.92-5.13.13,1.66.22,3.16.35,4.83,1.66-.21,3-.33,4.67-.46-.5-4.42-1-9.17-1.45-13.59-1.43.14-2.86.3-4.28.46-.77,2.1-1.53,4.66-2.3,6.76-.8-1.92-1.61-4.19-2.42-6.11-1.44.23-4,.72-4.28.73-.43,4.52-.92,9.55-1.34,14.08,1.14-.22,3.92-.7,4.75-.83.1-1.69.2-3.49.31-5.18l2,4.8Z" fill="#fff"/><path d="M103.5,225c1.26-.59,2.16-1.84,2.16-4.28,0-3.69-2.64-5.23-5.28-5.39-2-.13-4-.2-6-.23,0,4.69.05,9,.06,13.66,1.49,0,3.13.11,4.44.2v-3.62c.88,1.36,1.59,2.49,2.46,3.87,1.84.14,3.72.34,5.57.59C105.73,228.06,104.67,226.61,103.5,225ZM99.32,222l-.44,0v-2.82l.42,0a1.4,1.4,0,0,1,1.47,1.46A1.21,1.21,0,0,1,99.32,222Z" fill="#fff"/><path d="M89.16,215c-1.77,0-3.22.08-4.74.17-1.15,4.56-2.52,9.45-3.67,14,1.36-.05,2.73-.16,4.09-.18.12-.48.25-1,.37-1.52l2.07-.08s1.83-.09,1.83-.09c.06.18.23.65.48,1.44,1.36,0,2.71-.07,4.07,0C92.12,224,90.57,219.38,89.16,215Zm-3.11,9.27c.29-1.17.59-2.4.88-3.56.37,1.16.75,2.32,1.12,3.49A19.18,19.18,0,0,1,86.05,224.31Z" fill="#fff"/><path d="M115,229.38a.72.72,0,0,1,.74.73.73.73,0,0,1-.72.76.75.75,0,0,1,0-1.49Zm0,.12a.63.63,0,1,0,.61.62.62.62,0,0,0-.61-.62Zm-.12,1.06h-.13v-.83l.23,0a.41.41,0,0,1,.26.06.2.2,0,0,1,.08.17.2.2,0,0,1-.16.2h0c.07,0,.12.08.14.2a.4.4,0,0,0,.06.2h-.14a.68.68,0,0,1-.06-.21c0-.11-.08-.14-.18-.14h-.09Zm0-.46h.1c.11,0,.2,0,.2-.15s-.06-.14-.2-.14h-.1Z" fill="#fff"/><path d="M51.1,231.48a12.13,12.13,0,0,0,5.53,1.31c3.12,0,6.35-2,6.37-5.45,0-2.49-1.59-3.64-3.8-4.1L58,223c-.4-.09-1.05-.16-1.05-.7s.67-.79,1.13-.79a8.42,8.42,0,0,1,3.19.62c.42-1.18.85-2.35,1.27-3.53a10.38,10.38,0,0,0-4.56-1c-3.13.06-6.26,2-6.27,5.47,0,2.29,1.7,3.52,3.75,3.87l1.05.18c.48.09,1.16.14,1.16.8s-.81.75-1.33.75a6.17,6.17,0,0,1-3.6-1.13C52.23,228.74,51.62,230.26,51.1,231.48Z" fill="#fff"/><path d="M62,207.55A3.51,3.51,0,1,0,65.52,211,3.51,3.51,0,0,0,62,207.55Zm1.29,1.27a4.19,4.19,0,0,0-3.73,2.26s0,0,0,.06a2.52,2.52,0,0,1,.07-1,2.39,2.39,0,0,1,2.89-1.75,2.27,2.27,0,0,1,.83.43Z" fill="#fff"/><path d="M300.18,249.43,130.42,250c3.32-47,44-77.15,91.39-77.15,33.22,0,62.32,16.39,78.37,42.07Z" fill="#ec6a67"/><path d="M150.39,249.68c2.56-35.17,33.74-58.53,70.11-58.53,36.17,0,65.95,25.58,69.81,58.47Z" fill="#e42b26"/><rect x="120.17" y="146.11" width="179.83" height="103.27" fill="none"/><rect width="300" height="250" fill="none"/><path d="M12.18,23.9H23.65a7,7,0,0,1,3.42.77,5.23,5.23,0,0,1,2.14,2,5.47,5.47,0,0,1,.72,2.76,5.15,5.15,0,0,1-1.08,3.34,4.55,4.55,0,0,1-2.68,1.67,4.55,4.55,0,0,1,3,1.79A6,6,0,0,1,28.69,44,6.33,6.33,0,0,1,24,45.7H12.18Zm10.46,8.76A2.55,2.55,0,0,0,24.5,32a2.33,2.33,0,0,0,.69-1.75,2.27,2.27,0,0,0-.7-1.7,2.54,2.54,0,0,0-1.85-.69H16.82v4.81Zm.17,9.08a2.87,2.87,0,0,0,2.05-.7,2.62,2.62,0,0,0,0-3.69,2.8,2.8,0,0,0-2.05-.74h-6v5.13Z" fill="#fff"/><path d="M34.88,45a4.32,4.32,0,0,1-1.13-3.23V23.9h4.16V40.7a1.94,1.94,0,0,0,.39,1.24,1.26,1.26,0,0,0,1,.49,2.57,2.57,0,0,0,.85-.13,1.22,1.22,0,0,0,.56-.33l.88,3.14a5,5,0,0,1-3.43,1A4.58,4.58,0,0,1,34.88,45Z" fill="#fff"/><path d="M54.35,43.67a6.42,6.42,0,0,1-2.18,1.82,5.94,5.94,0,0,1-2.69.63,6.71,6.71,0,0,1-3.6-1,6.53,6.53,0,0,1-2.5-2.85,10.15,10.15,0,0,1-.9-4.45,10.15,10.15,0,0,1,.9-4.41,6.85,6.85,0,0,1,2.48-2.89,6.54,6.54,0,0,1,3.62-1,6.12,6.12,0,0,1,2.68.62,6.19,6.19,0,0,1,2.19,1.8v-2h4.18V45.7H54.35Zm0-8.62a3.82,3.82,0,0,0-1.54-1.29,4.54,4.54,0,0,0-2.06-.51,3.67,3.67,0,0,0-2.88,1.26,4.85,4.85,0,0,0-1.11,3.33,4.87,4.87,0,0,0,1.11,3.31,3.66,3.66,0,0,0,2.88,1.28,4.54,4.54,0,0,0,2.06-.51,3.9,3.9,0,0,0,1.54-1.29Z" fill="#fff"/><path d="M62.71,33.53a7.75,7.75,0,0,1,3-3A8.63,8.63,0,0,1,70,29.52a8.33,8.33,0,0,1,3.8.8,6.82,6.82,0,0,1,2.45,2l-2.72,2.55a3.76,3.76,0,0,0-3.33-1.7,4.09,4.09,0,0,0-3.09,1.27,4.67,4.67,0,0,0-1.19,3.33,4.72,4.72,0,0,0,1.19,3.34,4.06,4.06,0,0,0,3.09,1.28A4.12,4.12,0,0,0,72.1,42a4,4,0,0,0,1.43-1.26l2.72,2.52a6.83,6.83,0,0,1-2.44,2.06,8.13,8.13,0,0,1-3.81.81,8.63,8.63,0,0,1-4.31-1.06,7.68,7.68,0,0,1-3-3,9.14,9.14,0,0,1,0-8.58Z" fill="#fff"/><path d="M85,39.62l-1.9,2V45.7H79V23.9h4.15v13l6-7h5.1L88,37.07l6.44,8.63h-5.2Z" fill="#fff"/><path d="M104.91,23.9h15.43v4H109.55v4.74h10.56v4H109.55V45.7h-4.64Z" fill="#fff"/><path d="M123.48,29.91h4.15v2.16a6.91,6.91,0,0,1,2.22-1.81,5.9,5.9,0,0,1,2.81-.74v4.05a5.7,5.7,0,0,0-1.14-.13,5.44,5.44,0,0,0-2.22.53,3.73,3.73,0,0,0-1.67,1.27V45.7h-4.15Z" fill="#fff"/><path d="M135.55,26.86a2.49,2.49,0,1,1,4.24-1.75,2.43,2.43,0,0,1-.72,1.75,2.49,2.49,0,0,1-3.52,0Zm-.31,3.05h4.16V45.7h-4.16Z" fill="#fff"/><path d="M154.37,43.67a6.52,6.52,0,0,1-2.18,1.82,6,6,0,0,1-2.7.63,6.7,6.7,0,0,1-3.59-1,6.53,6.53,0,0,1-2.5-2.85,10.15,10.15,0,0,1-.9-4.45,10.15,10.15,0,0,1,.9-4.41,6.85,6.85,0,0,1,2.48-2.89,6.53,6.53,0,0,1,3.61-1,6.06,6.06,0,0,1,2.68.62,6.31,6.31,0,0,1,2.2,1.8v-8h4.18V45.7h-4.18Zm0-8.65a3.91,3.91,0,0,0-1.54-1.3,4.54,4.54,0,0,0-2.06-.51,3.64,3.64,0,0,0-2.88,1.28,4.94,4.94,0,0,0-1.11,3.35,4.87,4.87,0,0,0,1.11,3.31,3.64,3.64,0,0,0,2.88,1.28,4.54,4.54,0,0,0,2.06-.51,4,4,0,0,0,1.54-1.29Z" fill="#fff"/><path d="M173.52,43.67a6.49,6.49,0,0,1-2.17,1.82,6,6,0,0,1-2.7.63,6.71,6.71,0,0,1-3.6-1,6.53,6.53,0,0,1-2.5-2.85,10.15,10.15,0,0,1-.9-4.45,10.15,10.15,0,0,1,.9-4.41A6.8,6.8,0,0,1,165,30.54a6.51,6.51,0,0,1,3.61-1,6.12,6.12,0,0,1,2.68.62,6.19,6.19,0,0,1,2.19,1.8v-2h4.18V45.7h-4.18Zm0-8.62A3.82,3.82,0,0,0,172,33.76a4.51,4.51,0,0,0-2.06-.51,3.65,3.65,0,0,0-2.87,1.26,4.85,4.85,0,0,0-1.11,3.33,4.87,4.87,0,0,0,1.11,3.31,3.64,3.64,0,0,0,2.87,1.28,4.51,4.51,0,0,0,2.06-.51,3.9,3.9,0,0,0,1.54-1.29Z" fill="#fff"/><path d="M183.49,46.75a5,5,0,0,0,2.09,1.47,7.46,7.46,0,0,0,2.65.49,4.41,4.41,0,0,0,3.14-1.05,3.94,3.94,0,0,0,1.11-3V43a7.44,7.44,0,0,1-2.34,1.7,7.28,7.28,0,0,1-3.22.69,5.11,5.11,0,0,1-3.82-1.31,5,5,0,0,1-1.28-3.66V29.91H186V38.8a2.87,2.87,0,0,0,.75,2.24,3.12,3.12,0,0,0,2.16.67,4.18,4.18,0,0,0,2.06-.52,5,5,0,0,0,1.54-1.28v-10h4.15V44.46a7.15,7.15,0,0,1-2.27,5.64,8.93,8.93,0,0,1-6.13,2,9.62,9.62,0,0,1-6.6-2.36Z" fill="#fff"/><path d="M220,43.67a6.42,6.42,0,0,1-2.18,1.82,5.94,5.94,0,0,1-2.69.63,6.71,6.71,0,0,1-3.6-1,6.53,6.53,0,0,1-2.5-2.85,10.15,10.15,0,0,1-.9-4.45,10.15,10.15,0,0,1,.9-4.41,6.85,6.85,0,0,1,2.48-2.89,6.54,6.54,0,0,1,3.62-1,6.12,6.12,0,0,1,2.68.62,6.19,6.19,0,0,1,2.19,1.8v-8h4.18V45.7H220ZM220,35a3.91,3.91,0,0,0-1.54-1.3,4.54,4.54,0,0,0-2.06-.51,3.64,3.64,0,0,0-2.88,1.28,4.94,4.94,0,0,0-1.11,3.35,4.87,4.87,0,0,0,1.11,3.31,3.64,3.64,0,0,0,2.88,1.28,4.54,4.54,0,0,0,2.06-.51A4,4,0,0,0,220,40.63Z" fill="#fff"/><path d="M228.3,33.63a8,8,0,0,1,7.13-4.11,7.87,7.87,0,0,1,4.12,1.09,7.57,7.57,0,0,1,2.79,3.08,10,10,0,0,1,1,4.52v.92H231.6A4,4,0,0,0,233,41.77a4.6,4.6,0,0,0,3.14,1,6.71,6.71,0,0,0,2.3-.42,5.38,5.38,0,0,0,1.91-1.15l1.83,2.68a7.77,7.77,0,0,1-2.87,1.62,11.59,11.59,0,0,1-3.63.57,9,9,0,0,1-4.32-1,7.55,7.55,0,0,1-3-2.91,8.54,8.54,0,0,1-1.09-4.37A8.44,8.44,0,0,1,228.3,33.63Zm4.38.25a4.29,4.29,0,0,0-1.14,2.44h7.78a4,4,0,0,0-1.07-2.42,4.16,4.16,0,0,0-5.57,0Z" fill="#fff"/><path d="M257.2,43.67A6.42,6.42,0,0,1,255,45.49a5.94,5.94,0,0,1-2.69.63,6.71,6.71,0,0,1-3.6-1,6.53,6.53,0,0,1-2.5-2.85,10.15,10.15,0,0,1-.9-4.45,10.15,10.15,0,0,1,.9-4.41,6.85,6.85,0,0,1,2.48-2.89,6.54,6.54,0,0,1,3.62-1,6.12,6.12,0,0,1,2.68.62,6.19,6.19,0,0,1,2.19,1.8v-2h4.18V45.7H257.2Zm0-8.62a3.89,3.89,0,0,0-1.54-1.29,4.54,4.54,0,0,0-2.06-.51,3.66,3.66,0,0,0-2.88,1.26,4.85,4.85,0,0,0-1.11,3.33,4.87,4.87,0,0,0,1.11,3.31,3.64,3.64,0,0,0,2.88,1.28,4.54,4.54,0,0,0,2.06-.51,4,4,0,0,0,1.54-1.29Z" fill="#fff"/><path d="M266.63,45a4.28,4.28,0,0,1-1.13-3.23V23.9h4.15V40.7a1.94,1.94,0,0,0,.39,1.24,1.26,1.26,0,0,0,1,.49,2.61,2.61,0,0,0,.85-.13,1.23,1.23,0,0,0,.55-.33l.89,3.14a5,5,0,0,1-3.44,1A4.56,4.56,0,0,1,266.63,45Z" fill="#fff"/><path d="M275.66,40.76a8.34,8.34,0,0,0,2.49,1.51,7.79,7.79,0,0,0,3,.65,3.68,3.68,0,0,0,2-.43,1.33,1.33,0,0,0,.67-1.19,1.24,1.24,0,0,0-.79-1.15,10.14,10.14,0,0,0-2.38-.73,23.88,23.88,0,0,1-3.14-.78,5.16,5.16,0,0,1-2.16-1.42,3.9,3.9,0,0,1-.91-2.73,4.35,4.35,0,0,1,.77-2.49,5.18,5.18,0,0,1,2.24-1.81,8.22,8.22,0,0,1,3.46-.67,9.92,9.92,0,0,1,6.37,2.16l-1.66,2.84a5.89,5.89,0,0,0-2-1.31,7.06,7.06,0,0,0-2.67-.52,3.58,3.58,0,0,0-1.81.39,1.19,1.19,0,0,0-.67,1.08,1.09,1.09,0,0,0,.73,1,11.36,11.36,0,0,0,2.28.67,20.84,20.84,0,0,1,3.17.82,5.47,5.47,0,0,1,2.22,1.51,4.1,4.1,0,0,1,.95,2.85,4.54,4.54,0,0,1-.8,2.61,5.25,5.25,0,0,1-2.36,1.82,9.33,9.33,0,0,1-3.67.65,11.76,11.76,0,0,1-3.94-.65,8.49,8.49,0,0,1-3.12-1.8Z" fill="#fff"/><path d="M12.51,73.45A8.2,8.2,0,0,0,15,75a7.71,7.71,0,0,0,3,.66,3.71,3.71,0,0,0,2-.43A1.35,1.35,0,0,0,20.62,74a1.25,1.25,0,0,0-.79-1.15,9.79,9.79,0,0,0-2.39-.73,23.69,23.69,0,0,1-3.13-.78,5.19,5.19,0,0,1-2.16-1.43,3.87,3.87,0,0,1-.92-2.73A4.37,4.37,0,0,1,12,64.69a5.17,5.17,0,0,1,2.24-1.81,8.26,8.26,0,0,1,3.47-.67,10,10,0,0,1,6.37,2.15l-1.67,2.85a5.75,5.75,0,0,0-2-1.31,6.82,6.82,0,0,0-2.66-.52,3.64,3.64,0,0,0-1.82.39,1.21,1.21,0,0,0-.67,1.08,1.1,1.1,0,0,0,.74,1,11.43,11.43,0,0,0,2.27.67,20.53,20.53,0,0,1,3.17.82,5.37,5.37,0,0,1,2.22,1.51,4.06,4.06,0,0,1,1,2.85,4.47,4.47,0,0,1-.8,2.61,5.29,5.29,0,0,1-2.35,1.82,9.57,9.57,0,0,1-3.68.65,12.1,12.1,0,0,1-3.94-.65,9,9,0,0,1-3.12-1.8Z" fill="#fff"/><path d="M29.64,77.7a4.27,4.27,0,0,1-1.15-3.21V66.23H25.88V62.6h2.61V58.28h4.19V62.6h3.2v3.63h-3.2v7.15a2,2,0,0,0,.39,1.25,1.28,1.28,0,0,0,1,.49A2.86,2.86,0,0,0,35,75a1.48,1.48,0,0,0,.59-.33l.88,3.14a5.11,5.11,0,0,1-3.46,1A4.59,4.59,0,0,1,29.64,77.7Z" fill="#fff"/><path d="M49.57,76.36a6.36,6.36,0,0,1-2.17,1.81,5.84,5.84,0,0,1-2.7.64,6.77,6.77,0,0,1-3.59-1A6.65,6.65,0,0,1,38.61,75a11.35,11.35,0,0,1,0-8.86,6.88,6.88,0,0,1,2.48-2.9,6.61,6.61,0,0,1,3.61-1,5.92,5.92,0,0,1,2.68.62,6.09,6.09,0,0,1,2.19,1.8v-2h4.19V78.39H49.57Zm0-8.62A3.81,3.81,0,0,0,48,66.44,4.54,4.54,0,0,0,46,65.93,3.64,3.64,0,0,0,43.1,67.2a5.52,5.52,0,0,0,0,6.64A3.64,3.64,0,0,0,46,75.12,4.54,4.54,0,0,0,48,74.61a3.81,3.81,0,0,0,1.53-1.3Z" fill="#fff"/><path d="M57.88,62.6H62v2.16a6.94,6.94,0,0,1,2.22-1.82,5.89,5.89,0,0,1,2.81-.73v4.05a5,5,0,0,0-1.14-.13,5.42,5.42,0,0,0-2.22.52A3.74,3.74,0,0,0,62,67.93V78.39H57.88Z" fill="#fff"/><path d="M71.61,77.7a4.27,4.27,0,0,1-1.15-3.21V66.23H67.85V62.6h2.61V58.28h4.19V62.6h3.2v3.63h-3.2v7.15A2,2,0,0,0,75,74.63a1.28,1.28,0,0,0,1,.49,2.86,2.86,0,0,0,.85-.13,1.55,1.55,0,0,0,.59-.33l.88,3.14a5.11,5.11,0,0,1-3.46,1A4.59,4.59,0,0,1,71.61,77.7Z" fill="#fff"/><path d="M91,77.7a4.31,4.31,0,0,1-1.14-3.21V66.23H87.26V62.6h2.62V58.28h4.18V62.6h3.2v3.63h-3.2v7.15a2,2,0,0,0,.39,1.25,1.29,1.29,0,0,0,1,.49,2.91,2.91,0,0,0,.85-.13,1.55,1.55,0,0,0,.59-.33l.88,3.14a5.13,5.13,0,0,1-3.47,1A4.59,4.59,0,0,1,91,77.7Z" fill="#fff"/><path d="M110.8,68.78a2.81,2.81,0,0,0-.76-2.23,3.27,3.27,0,0,0-2.19-.65,4.05,4.05,0,0,0-2,.54,4.87,4.87,0,0,0-1.54,1.32V78.39h-4.15V56.58h4.15v8.08a6.82,6.82,0,0,1,2.3-1.73,7.26,7.26,0,0,1,3.26-.72,5.17,5.17,0,0,1,3.84,1.3A5,5,0,0,1,115,67.17V78.39H110.8Z" fill="#fff"/><path d="M119.38,59.54a2.43,2.43,0,0,1,0-3.49,2.35,2.35,0,0,1,1.74-.74,2.49,2.49,0,1,1-1.74,4.23Zm-.31,3.06h4.15V78.39h-4.15Z" fill="#fff"/><path d="M127.76,73.45a8.2,8.2,0,0,0,2.48,1.5,7.71,7.71,0,0,0,3,.66,3.78,3.78,0,0,0,2-.43,1.36,1.36,0,0,0,.67-1.19,1.25,1.25,0,0,0-.79-1.15,9.83,9.83,0,0,0-2.38-.73,23.88,23.88,0,0,1-3.14-.78,5.19,5.19,0,0,1-2.16-1.43,3.87,3.87,0,0,1-.92-2.73,4.37,4.37,0,0,1,.77-2.48,5.17,5.17,0,0,1,2.24-1.81,8.26,8.26,0,0,1,3.47-.67,10,10,0,0,1,6.37,2.15l-1.67,2.85a5.75,5.75,0,0,0-2-1.31,6.82,6.82,0,0,0-2.66-.52,3.58,3.58,0,0,0-1.81.39,1.19,1.19,0,0,0-.67,1.08,1.09,1.09,0,0,0,.73,1,11.43,11.43,0,0,0,2.27.67,20.53,20.53,0,0,1,3.17.82,5.47,5.47,0,0,1,2.23,1.51,4.1,4.1,0,0,1,.94,2.85,4.47,4.47,0,0,1-.8,2.61,5.29,5.29,0,0,1-2.35,1.82,9.57,9.57,0,0,1-3.68.65,12.1,12.1,0,0,1-3.94-.65,9,9,0,0,1-3.12-1.8Z" fill="#fff"/><path d="M161.82,67.63l-3.34,10.76H154L149.23,62.6h4.32l2.94,10.62L160,62.6h3.7l3.46,10.62,2.95-10.62h4.31l-4.81,15.79h-4.41Z" fill="#fff"/><path d="M176.46,66.32a7.91,7.91,0,0,1,2.91-3,8.08,8.08,0,0,1,4.22-1.11,7.78,7.78,0,0,1,4.12,1.09,7.55,7.55,0,0,1,2.79,3.07,10,10,0,0,1,1,4.53v.92H179.76a4,4,0,0,0,1.41,2.63,4.56,4.56,0,0,0,3.14,1.06,6.71,6.71,0,0,0,2.3-.42,5.53,5.53,0,0,0,1.91-1.15l1.83,2.68a7.77,7.77,0,0,1-2.87,1.62,11.59,11.59,0,0,1-3.63.57,9,9,0,0,1-4.32-1,7.57,7.57,0,0,1-3-2.92,8.51,8.51,0,0,1-1.09-4.37A8.38,8.38,0,0,1,176.46,66.32Zm4.38.25A4.29,4.29,0,0,0,179.7,69h7.78a4,4,0,0,0-1.07-2.42,4.16,4.16,0,0,0-5.57,0Z" fill="#fff"/><path d="M194.54,66.32a7.76,7.76,0,0,1,2.91-3,8,8,0,0,1,4.21-1.11,7.76,7.76,0,0,1,4.12,1.09,7.5,7.5,0,0,1,2.8,3.07,10,10,0,0,1,1,4.53v.92H197.84a4.06,4.06,0,0,0,1.4,2.63,4.59,4.59,0,0,0,3.14,1.06,6.81,6.81,0,0,0,2.31-.42,5.53,5.53,0,0,0,1.91-1.15l1.83,2.68a7.74,7.74,0,0,1-2.88,1.62,11.49,11.49,0,0,1-3.63.57,9,9,0,0,1-4.31-1,7.51,7.51,0,0,1-3-2.92,8.52,8.52,0,0,1-1.1-4.37A8.39,8.39,0,0,1,194.54,66.32Zm4.38.25A4.24,4.24,0,0,0,197.77,69h7.78a4,4,0,0,0-1.06-2.42,3.6,3.6,0,0,0-2.83-1.08A3.53,3.53,0,0,0,198.92,66.57Z" fill="#fff"/><path d="M218.63,72.31l-1.9,2v4.06h-4.15V56.58h4.15v13l6-7h5.1l-6.24,7.16L228,78.39h-5.2Z" fill="#fff"/><path d="M229.41,66.32a7.91,7.91,0,0,1,2.91-3,8.08,8.08,0,0,1,4.22-1.11,7.76,7.76,0,0,1,4.12,1.09,7.41,7.41,0,0,1,2.79,3.07,9.87,9.87,0,0,1,1,4.53v.92H232.71a4.07,4.07,0,0,0,1.41,2.63,4.58,4.58,0,0,0,3.14,1.06,6.71,6.71,0,0,0,2.3-.42,5.44,5.44,0,0,0,1.91-1.15l1.83,2.68a7.77,7.77,0,0,1-2.87,1.62,11.59,11.59,0,0,1-3.63.57,8.94,8.94,0,0,1-4.31-1,7.54,7.54,0,0,1-3-2.92,8.51,8.51,0,0,1-1.09-4.37A8.38,8.38,0,0,1,229.41,66.32Zm4.38.25A4.29,4.29,0,0,0,232.65,69h7.78a4,4,0,0,0-1.06-2.42,3.61,3.61,0,0,0-2.83-1.08A3.56,3.56,0,0,0,233.79,66.57Z" fill="#fff"/><path d="M258.11,68.84a2.92,2.92,0,0,0-.75-2.25,3.08,3.08,0,0,0-2.16-.69,4,4,0,0,0-2.07.54,5,5,0,0,0-1.52,1.32V78.39h-4.15V62.6h4.15v2.06a6.83,6.83,0,0,1,2.28-1.73,7.14,7.14,0,0,1,3.24-.72,4.59,4.59,0,0,1,5.13,5V78.39h-4.15Z" fill="#fff"/><path d="M277.23,76.36a6.36,6.36,0,0,1-2.17,1.81,5.84,5.84,0,0,1-2.7.64,6.74,6.74,0,0,1-3.59-1,6.65,6.65,0,0,1-2.5-2.85,11.35,11.35,0,0,1,0-8.86,6.81,6.81,0,0,1,2.48-2.9,6.61,6.61,0,0,1,3.61-1,6,6,0,0,1,2.68.62,6.09,6.09,0,0,1,2.19,1.8v-8h4.19V78.39h-4.19Zm0-8.66a3.94,3.94,0,0,0-1.53-1.29,4.58,4.58,0,0,0-2.06-.51,3.64,3.64,0,0,0-2.88,1.28,4.92,4.92,0,0,0-1.11,3.35,4.87,4.87,0,0,0,1.11,3.31,3.64,3.64,0,0,0,2.88,1.28,4.58,4.58,0,0,0,2.06-.51,3.88,3.88,0,0,0,1.53-1.3Z" fill="#fff"/><path d="M285.81,74.24a2.47,2.47,0,0,1,1.85-.79,2.7,2.7,0,0,1,2.65,2.65,2.48,2.48,0,0,1-.79,1.83,2.54,2.54,0,0,1-1.86.78,2.63,2.63,0,0,1-2.61-2.61A2.56,2.56,0,0,1,285.81,74.24Zm-.67-17.66h5l-.65,14.71h-3.66Z" fill="#fff"/><path d="M14.41,107.28a7.57,7.57,0,0,1-3-.56,6.6,6.6,0,0,1-2.13-1.46l1.25-1.73a6.11,6.11,0,0,0,1.67,1.24,5,5,0,0,0,2.34.53,4,4,0,0,0,1.17-.15,2.2,2.2,0,0,0,.78-.4,1.56,1.56,0,0,0,.44-.56,1.61,1.61,0,0,0,.14-.64,1.13,1.13,0,0,0-.54-1,5,5,0,0,0-1.37-.6c-.55-.17-1.14-.32-1.78-.48a9,9,0,0,1-1.77-.62,3.79,3.79,0,0,1-1.37-1.1,2.93,2.93,0,0,1-.54-1.85A3.3,3.3,0,0,1,10,96.42a3.63,3.63,0,0,1,.93-1.18,4.53,4.53,0,0,1,1.46-.79,5.91,5.91,0,0,1,1.89-.28,7.26,7.26,0,0,1,2.67.46A6.11,6.11,0,0,1,19,96l-1.26,1.66A4.7,4.7,0,0,0,16,96.49a5.75,5.75,0,0,0-2-.35,2.5,2.5,0,0,0-1.55.44,1.35,1.35,0,0,0-.58,1.14,1,1,0,0,0,.54.91,5.35,5.35,0,0,0,1.37.55c.55.16,1.14.31,1.77.47a8.38,8.38,0,0,1,1.78.66,4.12,4.12,0,0,1,1.37,1.14,3.07,3.07,0,0,1,.54,1.89,4,4,0,0,1-.29,1.51,3.31,3.31,0,0,1-.88,1.26,4.32,4.32,0,0,1-1.53.85A6.85,6.85,0,0,1,14.41,107.28Z" fill="#e52823"/><path d="M27.5,107.05v-5.78A1.82,1.82,0,0,0,27,99.8a2.13,2.13,0,0,0-1.35-.39,2.65,2.65,0,0,0-1.4.38,3.49,3.49,0,0,0-1,.84v6.42h-2V94.38h2v4.73a3.58,3.58,0,0,1,.56-.53,4.28,4.28,0,0,1,.74-.48,4.09,4.09,0,0,1,.89-.33,4.36,4.36,0,0,1,1-.13,3,3,0,0,1,2.22.75,2.89,2.89,0,0,1,.74,2.16v6.5Z" fill="#e52823"/><path d="M36.24,107.28a4.83,4.83,0,0,1-2-.39,4.45,4.45,0,0,1-2.41-2.58,5.57,5.57,0,0,1,0-3.72,4.76,4.76,0,0,1,.93-1.53,4.5,4.5,0,0,1,1.48-1,5.35,5.35,0,0,1,4,0,4.5,4.5,0,0,1,1.48,1,4.76,4.76,0,0,1,.93,1.53,5.57,5.57,0,0,1,0,3.72,4.45,4.45,0,0,1-2.41,2.58A4.86,4.86,0,0,1,36.24,107.28Zm0-1.77a2.46,2.46,0,0,0,2-.91,2.93,2.93,0,0,0,.5-1,4.08,4.08,0,0,0,0-2.33,3,3,0,0,0-.5-1,2.55,2.55,0,0,0-.83-.66,2.45,2.45,0,0,0-1.14-.25,2.4,2.4,0,0,0-1.12.25,2.59,2.59,0,0,0-.84.66,2.82,2.82,0,0,0-.51,1,4.08,4.08,0,0,0,0,2.33,2.78,2.78,0,0,0,.51,1,2.47,2.47,0,0,0,.84.66A2.4,2.4,0,0,0,36.24,105.51Z" fill="#e52823"/><path d="M47.92,107.28a3.46,3.46,0,0,1-1.62-.39A4.08,4.08,0,0,1,45,105.78v4.77H43V97.87h2v1.26A3.81,3.81,0,0,1,46.25,98a3.64,3.64,0,0,1,1.67-.4,4,4,0,0,1,1.64.33,3.57,3.57,0,0,1,1.28.94,4.5,4.5,0,0,1,.85,1.51,7,7,0,0,1,0,4.06,4.5,4.5,0,0,1-.85,1.51,3.6,3.6,0,0,1-1.28,1A3.85,3.85,0,0,1,47.92,107.28Zm-.59-1.77a2.31,2.31,0,0,0,1.9-.85,3.37,3.37,0,0,0,.71-2.21,3.29,3.29,0,0,0-.71-2.19,2.31,2.31,0,0,0-1.9-.85,2.86,2.86,0,0,0-1.35.35,2.78,2.78,0,0,0-1,.87v3.63a2.44,2.44,0,0,0,.43.49,2.91,2.91,0,0,0,.57.4,3.81,3.81,0,0,0,.66.27A2.84,2.84,0,0,0,47.33,105.51Z" fill="#e52823"/><path d="M58.89,107.05V94.38h2v4.77a3.6,3.6,0,0,1,2.95-1.51,4,4,0,0,1,1.64.34,3.58,3.58,0,0,1,1.29,1,4.56,4.56,0,0,1,.85,1.52,6.21,6.21,0,0,1,.3,2,6.33,6.33,0,0,1-.3,2,4.4,4.4,0,0,1-.86,1.52,3.47,3.47,0,0,1-1.3,1,4,4,0,0,1-1.62.33,3.6,3.6,0,0,1-1.66-.4,4.18,4.18,0,0,1-1.29-1.08v1.25Zm2-2.76a2.69,2.69,0,0,0,1,.87,3,3,0,0,0,1.38.35,2.32,2.32,0,0,0,1.89-.85,3.41,3.41,0,0,0,.69-2.21,4,4,0,0,0-.18-1.22,2.61,2.61,0,0,0-.52-1,2.4,2.4,0,0,0-.82-.63,2.46,2.46,0,0,0-1.06-.23,2.84,2.84,0,0,0-1.38.36,2.71,2.71,0,0,0-1,.88Z" fill="#e52823"/><path d="M70.93,96.75a1.24,1.24,0,0,1,0-2.47,1.21,1.21,0,0,1,.88.36,1.24,1.24,0,0,1,0,1.75A1.21,1.21,0,0,1,70.93,96.75Zm-1,10.3V97.87h2v9.18Z" fill="#e52823"/><path d="M78.25,110.77a6.68,6.68,0,0,1-2.09-.29,5,5,0,0,1-1.77-1.07l.93-1.45a3.12,3.12,0,0,0,1.29.91,4.7,4.7,0,0,0,1.64.27,4.11,4.11,0,0,0,1-.12,2.53,2.53,0,0,0,.87-.43,2.25,2.25,0,0,0,.63-.79,2.76,2.76,0,0,0,.23-1.23v-1a4,4,0,0,1-1.28,1.12,3.33,3.33,0,0,1-1.66.42,4.14,4.14,0,0,1-1.62-.32,3.48,3.48,0,0,1-1.3-.91,4.22,4.22,0,0,1-.84-1.47,6.64,6.64,0,0,1,0-4,4.27,4.27,0,0,1,.84-1.48A3.47,3.47,0,0,1,76.39,98,4.09,4.09,0,0,1,78,97.64,3.56,3.56,0,0,1,81,99.15V97.87h2v8.7a4.5,4.5,0,0,1-.42,2.06,3.55,3.55,0,0,1-1.09,1.29,4.24,4.24,0,0,1-1.52.66A7.4,7.4,0,0,1,78.25,110.77Zm.36-5.49A3,3,0,0,0,81,104.07v-3.44a3,3,0,0,0-2.35-1.22,2.39,2.39,0,0,0-1.9.81,3.14,3.14,0,0,0-.7,2.14,3.08,3.08,0,0,0,.7,2.12A2.38,2.38,0,0,0,78.61,105.28Z" fill="#e52823"/><path d="M96.91,107.05V105.8a4.18,4.18,0,0,1-1.29,1.08,3.54,3.54,0,0,1-1.66.4,4,4,0,0,1-1.62-.33,3.56,3.56,0,0,1-1.3-1,4.37,4.37,0,0,1-.84-1.52,6.33,6.33,0,0,1-.3-2,6.21,6.21,0,0,1,.3-2A4.37,4.37,0,0,1,91,98.94a3.67,3.67,0,0,1,1.29-1A4,4,0,0,1,94,97.64a3.62,3.62,0,0,1,1.63.38,3.73,3.73,0,0,1,1.32,1.13V94.38h2v12.67Zm-2.36-1.54a2.72,2.72,0,0,0,.69-.09,3.61,3.61,0,0,0,.67-.27,2.87,2.87,0,0,0,.57-.39,2.48,2.48,0,0,0,.43-.49v-3.62a2.74,2.74,0,0,0-.43-.48,3.41,3.41,0,0,0-.57-.4,3,3,0,0,0-.67-.26,2.35,2.35,0,0,0-.69-.1,2.45,2.45,0,0,0-1.08.23,2.4,2.4,0,0,0-.82.63,2.61,2.61,0,0,0-.52,1,4,4,0,0,0-.18,1.22,4,4,0,0,0,.18,1.23,2.92,2.92,0,0,0,.52,1,2.4,2.4,0,0,0,.82.63A2.45,2.45,0,0,0,94.55,105.51Z" fill="#e52823"/><path d="M102.49,96.75a1.24,1.24,0,0,1,0-2.47,1.22,1.22,0,0,1,.88.36,1.24,1.24,0,0,1,0,1.75A1.22,1.22,0,0,1,102.49,96.75Zm-1,10.3V97.87h2v9.18Z" fill="#e52823"/><path d="M109.22,107.28a6.57,6.57,0,0,1-2.21-.37,4.84,4.84,0,0,1-1.72-1.08l.91-1.42a3.69,3.69,0,0,0,.59.47,3.91,3.91,0,0,0,.76.41,4.83,4.83,0,0,0,.86.29,3.83,3.83,0,0,0,.88.1,2.33,2.33,0,0,0,1.37-.33,1,1,0,0,0,.46-.88.74.74,0,0,0-.41-.69,4.21,4.21,0,0,0-1-.38l-1.34-.3a5.89,5.89,0,0,1-1.34-.46,2.83,2.83,0,0,1-1-.82,2.2,2.2,0,0,1-.41-1.4,2.51,2.51,0,0,1,.24-1.08,2.64,2.64,0,0,1,.69-.88,3.57,3.57,0,0,1,1.13-.6,5.77,5.77,0,0,1,3.61.15,4.87,4.87,0,0,1,1.49.91l-.83,1.4a3.64,3.64,0,0,0-1.13-.78,3.93,3.93,0,0,0-1.59-.32,2.1,2.1,0,0,0-1.24.32,1,1,0,0,0-.45.82.65.65,0,0,0,.41.61,4.17,4.17,0,0,0,1,.35l1.34.3a5.76,5.76,0,0,1,1.34.48,2.94,2.94,0,0,1,1,.85,2.41,2.41,0,0,1,.41,1.46,2.79,2.79,0,0,1-.25,1.14,2.56,2.56,0,0,1-.73.91,3.75,3.75,0,0,1-1.2.6A5.76,5.76,0,0,1,109.22,107.28Z" fill="#e52823"/><path d="M119.21,107.28a5,5,0,0,1-1.91-.36,4.52,4.52,0,0,1-1.49-1,4.67,4.67,0,0,1-1-1.53,5.26,5.26,0,0,1-.35-1.93,5.17,5.17,0,0,1,.35-1.92,4.73,4.73,0,0,1,1-1.52,4.49,4.49,0,0,1,1.49-1,4.78,4.78,0,0,1,1.91-.37,5.08,5.08,0,0,1,1.23.14,4.44,4.44,0,0,1,1,.36,3.7,3.7,0,0,1,.75.52,5.51,5.51,0,0,1,.57.62l-1.31,1.2a2.46,2.46,0,0,0-2.11-1.07,2.57,2.57,0,0,0-2,.85,3.17,3.17,0,0,0-.76,2.19,3.73,3.73,0,0,0,.2,1.23,3.22,3.22,0,0,0,.57,1,2.63,2.63,0,0,0,.88.63,2.71,2.71,0,0,0,1.13.23,2.47,2.47,0,0,0,2.11-1.1l1.31,1.23a4.7,4.7,0,0,1-1.33,1.14A4.28,4.28,0,0,1,119.21,107.28Z" fill="#e52823"/><path d="M128.65,107.28a4.78,4.78,0,0,1-2-.39,4.42,4.42,0,0,1-1.48-1,4.25,4.25,0,0,1-.93-1.53,5.41,5.41,0,0,1,0-3.72A4.4,4.4,0,0,1,126.68,98a5.32,5.32,0,0,1,3.95,0,4.4,4.4,0,0,1,2.41,2.57,5.41,5.41,0,0,1,0,3.72,4.25,4.25,0,0,1-.93,1.53,4.42,4.42,0,0,1-1.48,1A4.79,4.79,0,0,1,128.65,107.28Zm0-1.77a2.43,2.43,0,0,0,1.14-.25,2.34,2.34,0,0,0,.83-.66,2.93,2.93,0,0,0,.5-1,3.86,3.86,0,0,0,0-2.33,3,3,0,0,0-.5-1,2.45,2.45,0,0,0-.83-.66,2.68,2.68,0,0,0-2.26,0,2.55,2.55,0,0,0-.83.66,3,3,0,0,0-.52,1,4.08,4.08,0,0,0,0,2.33,3,3,0,0,0,.52,1,2.46,2.46,0,0,0,2,.91Z" fill="#e52823"/><path d="M141.59,107.05v-1.22a4.86,4.86,0,0,1-1.32,1,3.91,3.91,0,0,1-1.91.45,3,3,0,0,1-2.22-.75,3,3,0,0,1-.74-2.16v-6.5h2v5.76a1.79,1.79,0,0,0,.51,1.47,2.1,2.1,0,0,0,1.36.41,2.58,2.58,0,0,0,1.37-.37,3.07,3.07,0,0,0,1-.83V97.87h2v9.18Z" fill="#e52823"/><path d="M152.39,107.05v-5.74a1.82,1.82,0,0,0-.51-1.49,2.1,2.1,0,0,0-1.36-.41,2.59,2.59,0,0,0-1.37.38,3.6,3.6,0,0,0-1,.84v6.42h-2V97.87h2v1.24a3.58,3.58,0,0,1,.56-.53,4,4,0,0,1,.75-.48,4.38,4.38,0,0,1,.9-.33,4.29,4.29,0,0,1,1-.13,3,3,0,0,1,2.22.76,3,3,0,0,1,.74,2.19v6.46Z" fill="#e52823"/><path d="M159.74,107.28a2.37,2.37,0,0,1-1.77-.61,2.46,2.46,0,0,1-.59-1.77V99.6h-1.52V97.87h1.52V95.36h2v2.51h1.86V99.6h-1.86v4.81a1.32,1.32,0,0,0,.22.79.73.73,0,0,0,.65.31,1.24,1.24,0,0,0,.52-.1.89.89,0,0,0,.35-.24l.48,1.52a2.44,2.44,0,0,1-.72.42A3.42,3.42,0,0,1,159.74,107.28Z" fill="#e52823"/><path d="M166.18,107.28a6.57,6.57,0,0,1-2.21-.37,4.84,4.84,0,0,1-1.72-1.08l.91-1.42a3.69,3.69,0,0,0,.59.47,3.91,3.91,0,0,0,.76.41,5.12,5.12,0,0,0,.86.29,3.83,3.83,0,0,0,.88.1,2.33,2.33,0,0,0,1.37-.33,1,1,0,0,0,.46-.88.74.74,0,0,0-.41-.69,4.06,4.06,0,0,0-1-.38l-1.34-.3a5.89,5.89,0,0,1-1.34-.46,2.83,2.83,0,0,1-1-.82,2.2,2.2,0,0,1-.41-1.4,2.51,2.51,0,0,1,.24-1.08,2.64,2.64,0,0,1,.69-.88,3.57,3.57,0,0,1,1.13-.6,5.77,5.77,0,0,1,3.61.15,4.87,4.87,0,0,1,1.49.91l-.83,1.4a3.64,3.64,0,0,0-1.13-.78,3.93,3.93,0,0,0-1.59-.32,2.1,2.1,0,0,0-1.24.32,1,1,0,0,0-.45.82.65.65,0,0,0,.41.61,4.17,4.17,0,0,0,1,.35l1.34.3a5.6,5.6,0,0,1,1.34.48,2.94,2.94,0,0,1,1,.85,2.41,2.41,0,0,1,.41,1.46,2.63,2.63,0,0,1-.25,1.14,2.46,2.46,0,0,1-.73.91,3.75,3.75,0,0,1-1.2.6A5.76,5.76,0,0,1,166.18,107.28Z" fill="#e52823"/><path d="M182.88,107.28a6.71,6.71,0,0,1-2.61-.5,6.32,6.32,0,0,1-2.06-1.36,6.18,6.18,0,0,1-1.33-2.08,7.39,7.39,0,0,1,0-5.24A6,6,0,0,1,178.21,96a6.35,6.35,0,0,1,2.06-1.37,7.2,7.2,0,0,1,5.22,0,6.12,6.12,0,0,1,3.38,3.44,7.25,7.25,0,0,1,0,5.24,6.36,6.36,0,0,1-1.34,2.08,6.13,6.13,0,0,1-2,1.36A6.71,6.71,0,0,1,182.88,107.28Zm0-2a4.24,4.24,0,0,0,1.73-.35,3.88,3.88,0,0,0,1.33-1,4,4,0,0,0,.84-1.45,5.43,5.43,0,0,0,.3-1.82,5.35,5.35,0,0,0-.3-1.82,4.1,4.1,0,0,0-.84-1.45,4.16,4.16,0,0,0-1.33-1,4.24,4.24,0,0,0-1.73-.35,4.19,4.19,0,0,0-1.74.35A4.05,4.05,0,0,0,179,98.9a5.6,5.6,0,0,0-.29,1.82,5.69,5.69,0,0,0,.29,1.82,4.18,4.18,0,0,0,.85,1.45,3.94,3.94,0,0,0,1.32,1A4.19,4.19,0,0,0,182.88,105.3Z" fill="#e52823"/><path d="M195.61,107.28a4.92,4.92,0,0,1-1.91-.36,4.42,4.42,0,0,1-1.49-1,4.51,4.51,0,0,1-1-1.53,5.26,5.26,0,0,1-.35-1.93,5.17,5.17,0,0,1,.35-1.92,4.57,4.57,0,0,1,1-1.52,4.39,4.39,0,0,1,1.49-1,4.75,4.75,0,0,1,1.91-.37,5,5,0,0,1,1.22.14,4.08,4.08,0,0,1,1,.36,3.22,3.22,0,0,1,.75.52,4.11,4.11,0,0,1,.57.62l-1.31,1.2a2.44,2.44,0,0,0-2.1-1.07,2.57,2.57,0,0,0-2,.85,3.12,3.12,0,0,0-.76,2.19,3.73,3.73,0,0,0,.2,1.23,2.86,2.86,0,0,0,.57,1,2.7,2.7,0,0,0,.87.63,2.8,2.8,0,0,0,1.14.23,2.45,2.45,0,0,0,2.1-1.1l1.31,1.23a4.57,4.57,0,0,1-1.33,1.14A4.21,4.21,0,0,1,195.61,107.28Z" fill="#e52823"/><path d="M203.67,107.28a2.37,2.37,0,0,1-1.77-.61,2.46,2.46,0,0,1-.59-1.77V99.6h-1.52V97.87h1.52V95.36h2v2.51h1.87V99.6H203.3v4.81a1.39,1.39,0,0,0,.22.79.76.76,0,0,0,.66.31,1.27,1.27,0,0,0,.52-.1.89.89,0,0,0,.35-.24l.48,1.52a2.44,2.44,0,0,1-.72.42A3.42,3.42,0,0,1,203.67,107.28Z" fill="#e52823"/><path d="M215.81,107.28a6.51,6.51,0,0,1-2.91-.6,5.26,5.26,0,0,1-1.88-1.45l1.21-1.47a4.2,4.2,0,0,0,1.54,1.13,4.72,4.72,0,0,0,2,.41,3.16,3.16,0,0,0,2-.53,1.69,1.69,0,0,0,.69-1.41,1.47,1.47,0,0,0-.72-1.37,4.1,4.1,0,0,0-2.09-.43h-.85a3.71,3.71,0,0,0-.59,0v-2h1.44a5.52,5.52,0,0,0,1-.09,3,3,0,0,0,.83-.3,1.62,1.62,0,0,0,.55-.52,1.32,1.32,0,0,0,.2-.75,1.41,1.41,0,0,0-.2-.77,1.5,1.5,0,0,0-.55-.54,2.52,2.52,0,0,0-.82-.33,4,4,0,0,0-1-.12,4.42,4.42,0,0,0-3.29,1.41l-1.14-1.39a5.62,5.62,0,0,1,1.89-1.43,6.14,6.14,0,0,1,2.75-.56,7.18,7.18,0,0,1,1.86.23,4.52,4.52,0,0,1,1.43.68,3,3,0,0,1,.93,1.06,3,3,0,0,1,.34,1.42,2.66,2.66,0,0,1-.25,1.15,3.06,3.06,0,0,1-.64.86,3.31,3.31,0,0,1-.88.59,3.73,3.73,0,0,1-1,.3,4,4,0,0,1,1,.27,3.71,3.71,0,0,1,1,.59,2.93,2.93,0,0,1,.73.93,2.8,2.8,0,0,1,.28,1.3,3.27,3.27,0,0,1-1.29,2.66,4.58,4.58,0,0,1-1.51.77A6.44,6.44,0,0,1,215.81,107.28Z" fill="#e52823"/><path d="M222,103.31V101.6h10.13v1.71Z" fill="#e52823"/><path d="M240.07,107.05v-2.87h-6v-1.79l5.2-8h3.06v7.82H244v2h-1.69v2.87Zm0-10.68-3.86,5.83h3.86Z" fill="#e52823"/></g></g></svg>