<svg xmlns="http://www.w3.org/2000/svg" viewBox="0 0 300 250"><title>first-frame</title><g id="Layer_2" data-name="Layer 2"><g id="rect"><rect width="300" height="250" fill="#fff"/></g><g id="logo"><path d="M41.86,219.48s-.1,2.39-.11,3.6c-.61,0-3.24-.23-4.4-.3,0,.64-.06,1.31-.07,2,1.38,0,2.82.25,4.2.26,0,1.17-.08,2.17-.09,3.33-1.39,0-2.77-.17-4.16-.23v2.12c1.49.07,3,.22,4.48.23l-.1,3.54c-3-.05-6.44-.37-9.75-.72l.55-14.74C33.77,218.73,38.09,219.28,41.86,219.48Z" fill="#e52823"/><path d="M43.11,219.53,43,223.38c1.39.1,2.64.13,2.64.13L45.4,234.2a33.75,33.75,0,0,0,5.32,0l.17-10.58s2.36-.06,2.72-.09V219.6A92,92,0,0,1,43.11,219.53Z" fill="#e52823"/><path d="M26,217.27l-6.26-1.43L19,231.3c1.61.39,3.07.72,4.64,1l.18-4.46c.55.09,1.14.19,1.7.26,2.72.38,5.52-.52,5.77-5C31.52,219.1,28.93,217.83,26,217.27Zm-1.49,7.07-.46-.07c.05-1,.11-2,.16-3l.44.07A1.55,1.55,0,0,1,26.14,223V223c-.07,1.25-.85,1.46-1.61,1.34Z" fill="#e52823"/><path d="M31.07,212.38C46.94,207.54,55,219.69,55,219.69S49.92,202.73,31.07,212.38Z" fill="#007db4"/><path d="M61.75,213a5.42,5.42,0,0,1,0-.57,11.82,11.82,0,0,0-6.26,9.1s2.16-5,7.23-6.54A3.1,3.1,0,0,1,61.75,213Z" fill="#007db4"/><path d="M114.19,217.39c0,1.5,0,2.88-.06,4.38.9.07,1.92.27,2.82.36,0,3.65-.17,6.41-.22,10.07,2.51.34,4.28.66,5,.79,0-3.65.23-6.53.28-10.18,0,0,2.65.46,2.69.49,0-1.5,0-3,.07-4.5A82,82,0,0,0,114.19,217.39Z" fill="#007db4"/><path d="M55.54,232.61A12.85,12.85,0,0,0,61.28,234c3.23,0,6.58-1.95,6.61-5.51,0-2.53-1.63-3.72-3.93-4.2L62.74,224c-.42-.1-1.09-.17-1.09-.73s.7-.79,1.18-.8a8.91,8.91,0,0,1,3.3.66c.45-1.2.89-2.39,1.33-3.59a11,11,0,0,0-4.72-1.06c-3.25,0-6.49,2-6.52,5.53,0,2.33,1.76,3.6,3.87,4l1.09.19c.5.1,1.21.15,1.2.82s-.84.76-1.38.76a6.51,6.51,0,0,1-3.72-1.17C56.73,229.82,56.09,231.36,55.54,232.61Z" fill="#007db4"/><path d="M78.41,231.61c.71-1.84,1.41-3.56,2.12-5.41.11,1.77.18,3.36.29,5.13,1.77-.2,3.18-.3,5-.41-.46-4.7-.85-9.74-1.31-14.44-1.52.13-3,.27-4.55.42-.85,2.21-1.7,4.91-2.56,7.13-.82-2.05-1.64-4.46-2.46-6.52-1.53.22-4.27.7-4.55.71-.52,4.79-1.12,10.11-1.65,14.9,1.21-.21,4.16-.68,5-.8.14-1.79.28-3.7.41-5.49l2,5.12C76.59,231.9,78,231.69,78.41,231.61Z" fill="#007db4"/><path d="M110.82,226.69c1.35-.6,2.33-1.91,2.36-4.5,0-3.92-2.71-5.59-5.51-5.8-2.12-.17-4.23-.28-6.35-.34-.07,5-.1,9.52-.16,14.49,1.58,0,3.32.17,4.7.28,0-1.4,0-2.44.06-3.84.91,1.46,1.64,2.67,2.55,4.15,2,.18,3.94.43,5.89.72C113.14,230,112,228.47,110.82,226.69Zm-4.38-3.18H106v-3h.45a1.46,1.46,0,0,1,1.53,1.41v.16a1.27,1.27,0,0,1-1.1,1.44,1.14,1.14,0,0,1-.41,0Z" fill="#007db4"/><path d="M95.78,216c-1.88,0-3.42,0-5,.1-1.3,4.82-2.82,10-4.12,14.81,1.44,0,2.9-.12,4.34-.12.13-.51.28-1.1.42-1.61l2.19-.06,1.94-.06c.06.19.23.7.49,1.54h4.31C98.78,225.48,97.2,220.58,95.78,216Zm-3.44,9.78h0c.33-1.23.66-2.54,1-3.77h0c.38,1.24.76,2.48,1.13,3.72-1.65,0-2,0-2.13,0Z" fill="#007db4"/><path d="M71.27,211.81A3.72,3.72,0,1,1,67.6,208a3.73,3.73,0,0,1,3.67,3.81Z" fill="#e52823"/><path d="M65,211.75a4.46,4.46,0,0,1,4-2.34h0a2.45,2.45,0,0,0-4,1.34,2.81,2.81,0,0,0-.09,1Z" fill="#fff"/></g><g id="btn"><g id="Rounded_Rectangle_1" data-name="Rounded Rectangle 1"><path d="M124,111.31H24a13,13,0,0,0,0,26H124a13,13,0,0,0,0-26Z" fill="#db3a26" fill-rule="evenodd"/></g><g id="Join_Waitlist" data-name="Join Waitlist"><path d="M35.37,127.21A2.21,2.21,0,0,0,37,128a1.63,1.63,0,0,0,1.25-.48,1.76,1.76,0,0,0,.46-1.28v-6.64h1.71v6.66a3.11,3.11,0,0,1-.91,2.44,3.37,3.37,0,0,1-2.37.82,3.41,3.41,0,0,1-2.59-1Z" fill="#fff"/><path d="M43.75,129a3.43,3.43,0,0,1-1.27-1.35,4.17,4.17,0,0,1,0-3.73,3.41,3.41,0,0,1,1.27-1.34,3.92,3.92,0,0,1,3.83,0A3.41,3.41,0,0,1,48.85,124a4,4,0,0,1,.44,1.86,4.06,4.06,0,0,1-.44,1.87A3.43,3.43,0,0,1,47.58,129a4,4,0,0,1-3.83,0Zm3.4-1.54a2.59,2.59,0,0,0,.55-1.68,2.54,2.54,0,0,0-.55-1.66,1.78,1.78,0,0,0-1.49-.68,1.76,1.76,0,0,0-1.48.68,2.54,2.54,0,0,0-.55,1.66,2.59,2.59,0,0,0,.55,1.68,1.79,1.79,0,0,0,1.48.68A1.81,1.81,0,0,0,47.15,127.5Z" fill="#fff"/><path d="M50.93,120.85a.94.94,0,0,1,0-1.34.94.94,0,0,1,1.34,0,1,1,0,0,1,0,1.34.94.94,0,0,1-1.34,0Zm-.09,1.45h1.53v7H50.84Z" fill="#fff"/><path d="M59.11,124.94a1.46,1.46,0,0,0-.37-1.13,1.5,1.5,0,0,0-1.05-.33,2.06,2.06,0,0,0-1,.27,2.59,2.59,0,0,0-.78.68v4.91H54.35v-7h1.53v1a3.4,3.4,0,0,1,1.06-.8,3,3,0,0,1,1.43-.34,2.31,2.31,0,0,1,1.69.58,2.27,2.27,0,0,1,.58,1.68v5H59.11Z" fill="#fff"/><path d="M72,122.16l-1.88,7.18H68.26l-2.79-9.73h1.91l1.9,7.5,2-7.5h1.36l2,7.5,1.88-7.5h1.92l-2.78,9.73H73.86Z" fill="#fff"/><path d="M83.27,128.58a2.48,2.48,0,0,1-1,.7,3.27,3.27,0,0,1-1.3.25,2.69,2.69,0,0,1-1.16-.27,2.25,2.25,0,0,1-.93-.8,2.46,2.46,0,0,1,0-2.56,2.26,2.26,0,0,1,.92-.76,3,3,0,0,1,1.17-.25,3.43,3.43,0,0,1,1.31.24,2.41,2.41,0,0,1,1,.67v-1a1.17,1.17,0,0,0-.45-1,1.92,1.92,0,0,0-1.2-.35,2.88,2.88,0,0,0-2.08.89l-.63-1.06a4.12,4.12,0,0,1,3-1.14,3.44,3.44,0,0,1,2.12.61,2.28,2.28,0,0,1,.81,1.94v4.67H83.27Zm0-1.9a1.64,1.64,0,0,0-.71-.55,2.54,2.54,0,0,0-1-.19,1.64,1.64,0,0,0-1.08.36,1.22,1.22,0,0,0,0,1.84,1.68,1.68,0,0,0,1.08.34,2.37,2.37,0,0,0,1-.19,1.7,1.7,0,0,0,.71-.54Z" fill="#fff"/><path d="M86.88,120.85a.94.94,0,0,1,0-1.34.94.94,0,0,1,1.34,0,1,1,0,0,1,0,1.34.94.94,0,0,1-1.34,0Zm-.09,1.45h1.53v7H86.79Z" fill="#fff"/><path d="M91.07,129.06a1.82,1.82,0,0,1-.46-1.34v-4.08H89.44V122.3h1.17v-1.93h1.53v1.93h1.43v1.34H92.14v3.7a1,1,0,0,0,.18.61.58.58,0,0,0,.49.23,1.1,1.1,0,0,0,.4-.08.65.65,0,0,0,.29-.17l.36,1.15a2,2,0,0,1-1.44.45A1.79,1.79,0,0,1,91.07,129.06Z" fill="#fff"/><path d="M95,119.61h1.53v9.73H95Z" fill="#fff"/><path d="M98.57,120.85a1,1,0,0,1,.66-1.62.88.88,0,0,1,.67.28.94.94,0,0,1,0,1.34.88.88,0,0,1-.67.28A.9.9,0,0,1,98.57,120.85Zm-.1,1.45H100v7H98.47Z" fill="#fff"/><path d="M102.08,127.33a3.59,3.59,0,0,0,2.39,1,1.85,1.85,0,0,0,1-.23.71.71,0,0,0,.36-.64.7.7,0,0,0-.41-.64,5.25,5.25,0,0,0-1.2-.39,9.14,9.14,0,0,1-1.36-.37,2.14,2.14,0,0,1-.91-.63,1.63,1.63,0,0,1-.38-1.15,2,2,0,0,1,.32-1.08,2.36,2.36,0,0,1,1-.78,3.57,3.57,0,0,1,1.49-.29,4,4,0,0,1,2.74,1l-.64,1.08a2.46,2.46,0,0,0-.89-.61,3,3,0,0,0-1.2-.23,1.85,1.85,0,0,0-1,.21.65.65,0,0,0-.35.57.61.61,0,0,0,.38.56,5.44,5.44,0,0,0,1.15.36,9.77,9.77,0,0,1,1.39.39,2.33,2.33,0,0,1,1,.67,1.81,1.81,0,0,1,.39,1.23,2,2,0,0,1-.77,1.58,3.4,3.4,0,0,1-2.16.61,4.87,4.87,0,0,1-1.69-.28,3.63,3.63,0,0,1-1.33-.81Z" fill="#fff"/><path d="M109.64,129.06a1.86,1.86,0,0,1-.46-1.34v-4.08H108V122.3h1.16v-1.93h1.53v1.93h1.43v1.34h-1.43v3.7a1,1,0,0,0,.18.61.6.6,0,0,0,.5.23,1.14,1.14,0,0,0,.4-.08.67.67,0,0,0,.28-.17l.37,1.15a2.06,2.06,0,0,1-1.45.45A1.79,1.79,0,0,1,109.64,129.06Z" fill="#fff"/></g></g><g id="Black_Friday_deals_start_this_November." data-name="Black Friday deals start this November."><path d="M13.64,25.2H24.12a6.61,6.61,0,0,1,3.13.7,4.8,4.8,0,0,1,1.95,1.86,4.94,4.94,0,0,1,.66,2.52,4.75,4.75,0,0,1-1,3,4.19,4.19,0,0,1-2.45,1.52,4.16,4.16,0,0,1,2.71,1.64,5.13,5.13,0,0,1,1.11,3.26,5.23,5.23,0,0,1-1.52,3.85,5.78,5.78,0,0,1-4.28,1.53H13.64Zm9.56,8a2.36,2.36,0,0,0,1.7-.61,2.28,2.28,0,0,0,0-3.16,2.35,2.35,0,0,0-1.69-.62H17.88v4.39Zm.15,8.3a2.65,2.65,0,0,0,1.88-.64,2.24,2.24,0,0,0,.69-1.72,2.2,2.2,0,0,0-.69-1.65,2.58,2.58,0,0,0-1.88-.68H17.88v4.69Z" fill="#db3a26"/><path d="M33.36,25.2h3.79V45.13H33.36Z" fill="#db3a26"/><path d="M49.58,43.64a5.27,5.27,0,0,1-2,1.37,6.64,6.64,0,0,1-2.61.51A5.55,5.55,0,0,1,42.63,45a4.66,4.66,0,0,1-1.89-1.64A4.49,4.49,0,0,1,40,40.72a4.24,4.24,0,0,1,2.63-4.13A6,6,0,0,1,45,36.11a7.77,7.77,0,0,1,2.66.44,4.49,4.49,0,0,1,1.91,1.32v-2a2.11,2.11,0,0,0-.87-1.77,3.76,3.76,0,0,0-2.3-.65,6,6,0,0,0-4.21,1.7l-1.43-2.54a8.51,8.51,0,0,1,2.91-1.7,10.14,10.14,0,0,1,3.39-.57,7.55,7.55,0,0,1,4.54,1.28,4.83,4.83,0,0,1,1.76,4.19v9.32H49.58Zm0-3.76A2.87,2.87,0,0,0,48.31,39a4.74,4.74,0,0,0-1.78-.33,3.13,3.13,0,0,0-1.94.58,1.91,1.91,0,0,0-.78,1.61,1.85,1.85,0,0,0,.78,1.57,3.19,3.19,0,0,0,1.94.57,4.74,4.74,0,0,0,1.78-.33,2.81,2.81,0,0,0,1.27-.94Z" fill="#db3a26"/><path d="M57.2,34a7,7,0,0,1,2.72-2.7,7.88,7.88,0,0,1,3.94-1,7.57,7.57,0,0,1,3.47.73,6.12,6.12,0,0,1,2.24,1.87l-2.48,2.33a3.44,3.44,0,0,0-3-1.55,3.68,3.68,0,0,0-2.82,1.15,4.23,4.23,0,0,0-1.09,3A4.29,4.29,0,0,0,61.22,41a4,4,0,0,0,4.55.77,3.72,3.72,0,0,0,1.32-1.15l2.48,2.3a6.2,6.2,0,0,1-2.23,1.88,7.4,7.4,0,0,1-3.48.75,7.89,7.89,0,0,1-3.94-1,6.9,6.9,0,0,1-2.72-2.69,7.76,7.76,0,0,1-1-3.94A7.67,7.67,0,0,1,57.2,34Z" fill="#db3a26"/><path d="M77.57,39.57l-1.73,1.85v3.71H72.05V25.2h3.79V37.12l5.47-6.42H86l-5.71,6.54,5.89,7.89H81.4Z" fill="#db3a26"/><path d="M95.77,25.2h14.1v3.65H100v4.33h9.65v3.64H100v8.31H95.77Z" fill="#db3a26"/><path d="M112.74,30.7h3.79v2a6.45,6.45,0,0,1,2-1.66,5.39,5.39,0,0,1,2.57-.67V34a5.41,5.41,0,0,0-1-.11,5.1,5.1,0,0,0-2,.47,3.41,3.41,0,0,0-1.53,1.17v9.56h-3.79Z" fill="#db3a26"/><path d="M123.78,27.9a2.16,2.16,0,0,1-.68-1.59A2.31,2.31,0,0,1,125.38,24a2.23,2.23,0,0,1,1.61.65,2.28,2.28,0,0,1,0,3.21,2.23,2.23,0,0,1-3.21,0Zm-.29,2.8h3.8V45.13h-3.8Z" fill="#db3a26"/><path d="M141,43.28a5.81,5.81,0,0,1-2,1.65,5.31,5.31,0,0,1-2.46.59,6.16,6.16,0,0,1-3.29-.9A6,6,0,0,1,131,42a9.23,9.23,0,0,1-.82-4.07,9.19,9.19,0,0,1,.82-4,6.17,6.17,0,0,1,2.27-2.65,6,6,0,0,1,3.3-.93,5.51,5.51,0,0,1,2.45.57,5.62,5.62,0,0,1,2,1.64V25.2h3.82V45.13H141Zm0-7.91a3.6,3.6,0,0,0-1.4-1.19,4.18,4.18,0,0,0-1.89-.46,3.3,3.3,0,0,0-2.62,1.17,4.46,4.46,0,0,0-1,3,4.44,4.44,0,0,0,1,3,3.3,3.3,0,0,0,2.62,1.17,4.18,4.18,0,0,0,1.89-.46,3.6,3.6,0,0,0,1.4-1.19Z" fill="#db3a26"/><path d="M157.22,43.64A5.23,5.23,0,0,1,155.27,45a6.69,6.69,0,0,1-2.62.51,5.51,5.51,0,0,1-2.37-.54,4.68,4.68,0,0,1-1.9-1.64,4.49,4.49,0,0,1-.75-2.62,4.34,4.34,0,0,1,.75-2.62,4.44,4.44,0,0,1,1.88-1.51,6.11,6.11,0,0,1,2.39-.48,7.69,7.69,0,0,1,2.66.44,4.37,4.37,0,0,1,1.91,1.32v-2a2.1,2.1,0,0,0-.86-1.77,3.78,3.78,0,0,0-2.3-.65,6,6,0,0,0-4.22,1.7l-1.43-2.54a8.7,8.7,0,0,1,2.91-1.7,10.22,10.22,0,0,1,3.39-.57,7.59,7.59,0,0,1,4.55,1.28A4.86,4.86,0,0,1,161,35.81v9.32h-3.8Zm0-3.76A2.81,2.81,0,0,0,156,39a4.68,4.68,0,0,0-1.77-.33,3.16,3.16,0,0,0-2,.58,1.92,1.92,0,0,0-.77,1.61,1.86,1.86,0,0,0,.77,1.57,3.22,3.22,0,0,0,2,.57,4.68,4.68,0,0,0,1.77-.33,2.76,2.76,0,0,0,1.27-.94Z" fill="#db3a26"/><path d="M166,47.61a2.81,2.81,0,0,0,1.25-.24,1.65,1.65,0,0,0,.75-.81l.54-1.22L162.72,30.7h4.06l3.77,10,3.76-10h4.1l-6.79,16.79a4.93,4.93,0,0,1-2.09,2.67,7.16,7.16,0,0,1-3.37.82,9.63,9.63,0,0,1-1-.06,6.14,6.14,0,0,1-.9-.14l.57-3.41A2.92,2.92,0,0,0,166,47.61Z" fill="#db3a26"/><path d="M197.68,43.28a5.81,5.81,0,0,1-2,1.65,5.39,5.39,0,0,1-2.47.59,6.12,6.12,0,0,1-3.28-.9A6,6,0,0,1,187.65,42a9.23,9.23,0,0,1-.82-4.07,9.19,9.19,0,0,1,.82-4,6.3,6.3,0,0,1,2.27-2.65,6,6,0,0,1,3.3-.93,5.47,5.47,0,0,1,2.45.57,5.65,5.65,0,0,1,2,1.64V25.2h3.82V45.13h-3.82Zm0-7.91a3.56,3.56,0,0,0-1.41-1.19,4.14,4.14,0,0,0-1.88-.46,3.32,3.32,0,0,0-2.63,1.17,4.46,4.46,0,0,0-1,3,4.44,4.44,0,0,0,1,3,3.32,3.32,0,0,0,2.63,1.17,4.14,4.14,0,0,0,1.88-.46,3.56,3.56,0,0,0,1.41-1.19Z" fill="#db3a26"/><path d="M205.29,34.1A7.29,7.29,0,0,1,208,31.36a7.37,7.37,0,0,1,3.86-1,7,7,0,0,1,3.76,1,6.77,6.77,0,0,1,2.56,2.81,9.14,9.14,0,0,1,.91,4.14v.83H208.31a3.72,3.72,0,0,0,1.29,2.42,4.2,4.2,0,0,0,2.87,1,6.08,6.08,0,0,0,2.1-.39,5.08,5.08,0,0,0,1.75-1L218,43.52A7.12,7.12,0,0,1,215.36,45a10.43,10.43,0,0,1-3.31.53,8.24,8.24,0,0,1-4-1,6.86,6.86,0,0,1-2.76-2.66,8.31,8.31,0,0,1-.05-7.81Zm4,.23a3.9,3.9,0,0,0-1.05,2.22h7.11a3.66,3.66,0,0,0-1-2.21,3.31,3.31,0,0,0-2.58-1A3.23,3.23,0,0,0,209.3,34.33Z" fill="#db3a26"/><path d="M230.45,43.64a5.27,5.27,0,0,1-2,1.37,6.6,6.6,0,0,1-2.61.51A5.55,5.55,0,0,1,223.5,45a4.66,4.66,0,0,1-1.89-1.64,4.49,4.49,0,0,1-.75-2.62,4.24,4.24,0,0,1,2.63-4.13,6.07,6.07,0,0,1,2.39-.48,7.73,7.73,0,0,1,2.66.44,4.49,4.49,0,0,1,1.91,1.32v-2a2.11,2.11,0,0,0-.87-1.77,3.74,3.74,0,0,0-2.3-.65,6,6,0,0,0-4.21,1.7l-1.43-2.54a8.51,8.51,0,0,1,2.91-1.7,10.22,10.22,0,0,1,3.39-.57,7.55,7.55,0,0,1,4.54,1.28,4.84,4.84,0,0,1,1.77,4.19v9.32h-3.8Zm0-3.76a2.87,2.87,0,0,0-1.27-.93,4.74,4.74,0,0,0-1.78-.33,3.15,3.15,0,0,0-1.94.58,1.91,1.91,0,0,0-.78,1.61,1.85,1.85,0,0,0,.78,1.57,3.21,3.21,0,0,0,1.94.57,4.74,4.74,0,0,0,1.78-.33,2.81,2.81,0,0,0,1.27-.94Z" fill="#db3a26"/><path d="M238,25.2h3.79V45.13H238Z" fill="#db3a26"/><path d="M246,40.62A7.46,7.46,0,0,0,248.23,42a7,7,0,0,0,2.72.6,3.39,3.39,0,0,0,1.8-.39,1.24,1.24,0,0,0,.62-1.09,1.13,1.13,0,0,0-.72-1,8.88,8.88,0,0,0-2.18-.67,23.08,23.08,0,0,1-2.87-.71,4.72,4.72,0,0,1-2-1.3,3.55,3.55,0,0,1-.84-2.5,4,4,0,0,1,.7-2.27,4.76,4.76,0,0,1,2-1.66,7.57,7.57,0,0,1,3.17-.61,9.09,9.09,0,0,1,5.82,2L255,34.91a5.19,5.19,0,0,0-1.84-1.19,6.27,6.27,0,0,0-2.43-.48,3.27,3.27,0,0,0-1.66.36,1.08,1.08,0,0,0-.61,1,1,1,0,0,0,.67.94,10.33,10.33,0,0,0,2.07.62,19.08,19.08,0,0,1,2.9.75,4.89,4.89,0,0,1,2,1.37,3.74,3.74,0,0,1,.87,2.61,4.08,4.08,0,0,1-.73,2.38,4.83,4.83,0,0,1-2.15,1.67,8.62,8.62,0,0,1-3.36.6,10.79,10.79,0,0,1-3.6-.6,8.2,8.2,0,0,1-2.86-1.64Z" fill="#db3a26"/><path d="M13.94,70.83a7.66,7.66,0,0,0,2.27,1.37,7,7,0,0,0,2.72.6,3.36,3.36,0,0,0,1.8-.39,1.24,1.24,0,0,0,.62-1.09,1.13,1.13,0,0,0-.72-1,8.88,8.88,0,0,0-2.18-.67,21.27,21.27,0,0,1-2.87-.72,4.6,4.6,0,0,1-2-1.3,3.51,3.51,0,0,1-.84-2.49,4,4,0,0,1,.7-2.27,4.76,4.76,0,0,1,2-1.66,7.57,7.57,0,0,1,3.17-.61,9.09,9.09,0,0,1,5.82,2L23,65.12a5.34,5.34,0,0,0-1.84-1.2,6.45,6.45,0,0,0-2.43-.47,3.27,3.27,0,0,0-1.66.36,1.07,1.07,0,0,0-.61,1,1,1,0,0,0,.67.94,10.33,10.33,0,0,0,2.07.62,18.06,18.06,0,0,1,2.9.74,4.91,4.91,0,0,1,2,1.38A3.74,3.74,0,0,1,25,71.08a4.08,4.08,0,0,1-.73,2.38,4.83,4.83,0,0,1-2.15,1.67,8.62,8.62,0,0,1-3.36.6,10.79,10.79,0,0,1-3.6-.6,8.2,8.2,0,0,1-2.86-1.64Z" fill="#db3a26"/><path d="M29.59,74.71a3.91,3.91,0,0,1-1-2.94V64.22H26.16V60.91h2.39V57h3.82v3.95H35.3v3.31H32.37v6.54a1.77,1.77,0,0,0,.36,1.14,1.17,1.17,0,0,0,1,.45,2.43,2.43,0,0,0,.77-.12,1.37,1.37,0,0,0,.54-.3l.81,2.87a4.67,4.67,0,0,1-3.17.93A4.19,4.19,0,0,1,29.59,74.71Z" fill="#db3a26"/><path d="M46.56,73.84a5.18,5.18,0,0,1-2,1.38,6.6,6.6,0,0,1-2.61.51,5.47,5.47,0,0,1-2.37-.54,4.68,4.68,0,0,1-1.9-1.64A4.52,4.52,0,0,1,37,70.93a4.34,4.34,0,0,1,.75-2.62,4.4,4.4,0,0,1,1.88-1.52A6.26,6.26,0,0,1,42,66.31a7.5,7.5,0,0,1,2.66.45,4.43,4.43,0,0,1,1.91,1.32v-2a2.13,2.13,0,0,0-.86-1.77,3.79,3.79,0,0,0-2.31-.65,6,6,0,0,0-4.21,1.7l-1.43-2.54a8.61,8.61,0,0,1,2.91-1.7,10.22,10.22,0,0,1,3.39-.57,7.55,7.55,0,0,1,4.54,1.28A4.83,4.83,0,0,1,50.36,66v9.32h-3.8Zm0-3.75a2.87,2.87,0,0,0-1.27-.93,4.74,4.74,0,0,0-1.78-.34,3.15,3.15,0,0,0-1.94.59A1.9,1.9,0,0,0,40.8,71a1.85,1.85,0,0,0,.77,1.57,3.21,3.21,0,0,0,1.94.57,4.74,4.74,0,0,0,1.78-.33,2.89,2.89,0,0,0,1.27-.94Z" fill="#db3a26"/><path d="M54.12,60.91h3.8v2a6.23,6.23,0,0,1,2-1.66,5.33,5.33,0,0,1,2.57-.67v3.7a4.83,4.83,0,0,0-1.05-.12,5,5,0,0,0-2,.48,3.32,3.32,0,0,0-1.52,1.17v9.56h-3.8Z" fill="#db3a26"/><path d="M66.67,74.71a3.91,3.91,0,0,1-1-2.94V64.22H63.23V60.91h2.39V57h3.83v3.95h2.93v3.31H69.45v6.54a1.77,1.77,0,0,0,.36,1.14,1.14,1.14,0,0,0,1,.45,2.45,2.45,0,0,0,.78-.12,1.37,1.37,0,0,0,.54-.3l.8,2.87a4.62,4.62,0,0,1-3.16.93A4.19,4.19,0,0,1,66.67,74.71Z" fill="#db3a26"/><path d="M84.42,74.71a3.91,3.91,0,0,1-1-2.94V64.22H81V60.91h2.39V57h3.82v3.95h2.93v3.31H87.19v6.54a1.77,1.77,0,0,0,.36,1.14,1.17,1.17,0,0,0,1,.45,2.45,2.45,0,0,0,.78-.12,1.39,1.39,0,0,0,.53-.3l.81,2.87a4.65,4.65,0,0,1-3.17.93A4.17,4.17,0,0,1,84.42,74.71Z" fill="#db3a26"/><path d="M102.49,66.55a2.58,2.58,0,0,0-.69-2,3,3,0,0,0-2-.6,3.73,3.73,0,0,0-1.88.5,4.37,4.37,0,0,0-1.4,1.21v9.71h-3.8V55.41h3.8v7.38a6.11,6.11,0,0,1,2.1-1.58,6.61,6.61,0,0,1,3-.66,4.73,4.73,0,0,1,3.51,1.19,4.56,4.56,0,0,1,1.18,3.35V75.34h-3.79Z" fill="#db3a26"/><path d="M110.33,58.11a2.15,2.15,0,0,1-.67-1.59,2.28,2.28,0,0,1,3.88-1.62,2.28,2.28,0,0,1,0,3.21,2.14,2.14,0,0,1-1.61.68A2.19,2.19,0,0,1,110.33,58.11Zm-.28,2.8h3.79V75.34h-3.79Z" fill="#db3a26"/><path d="M118,70.83a7.66,7.66,0,0,0,2.27,1.37,7,7,0,0,0,2.72.6,3.39,3.39,0,0,0,1.8-.39,1.24,1.24,0,0,0,.62-1.09,1.13,1.13,0,0,0-.72-1,8.88,8.88,0,0,0-2.18-.67,21.27,21.27,0,0,1-2.87-.72,4.54,4.54,0,0,1-2-1.3,3.51,3.51,0,0,1-.84-2.49,4,4,0,0,1,.7-2.27,4.76,4.76,0,0,1,2-1.66,7.57,7.57,0,0,1,3.17-.61,9.09,9.09,0,0,1,5.82,2l-1.52,2.6a5.34,5.34,0,0,0-1.84-1.2,6.45,6.45,0,0,0-2.43-.47,3.27,3.27,0,0,0-1.66.36,1.07,1.07,0,0,0-.61,1,1,1,0,0,0,.67.94,10.33,10.33,0,0,0,2.07.62,18.06,18.06,0,0,1,2.9.74,4.91,4.91,0,0,1,2,1.38,3.74,3.74,0,0,1,.87,2.61,4.08,4.08,0,0,1-.73,2.38,4.83,4.83,0,0,1-2.15,1.67,8.62,8.62,0,0,1-3.36.6,10.79,10.79,0,0,1-3.6-.6,8.2,8.2,0,0,1-2.86-1.64Z" fill="#db3a26"/><path d="M143.84,62V75.34H139.6V55.41H144l9.23,12.91V55.41h4.24V75.34h-4.09Z" fill="#db3a26"/><path d="M164,74.71A6.85,6.85,0,0,1,161.29,72a8.29,8.29,0,0,1,0-7.63A6.83,6.83,0,0,1,164,61.57a8.53,8.53,0,0,1,8.09,0,6.89,6.89,0,0,1,2.66,2.75,8.29,8.29,0,0,1,0,7.63A6.92,6.92,0,0,1,172,74.71a8.53,8.53,0,0,1-8.09,0Zm6.73-3.57a4.58,4.58,0,0,0,1-3,4.51,4.51,0,0,0-1-3,3.59,3.59,0,0,0-5.39,0,4.56,4.56,0,0,0-1,3,4.63,4.63,0,0,0,1,3,3.61,3.61,0,0,0,5.39,0Z" fill="#db3a26"/><path d="M176.37,60.91h4.07l3.76,10,3.77-10h4.09l-5.8,14.43h-4.09Z" fill="#db3a26"/><path d="M193.79,64.31a7.21,7.21,0,0,1,2.66-2.74,7.34,7.34,0,0,1,3.85-1,7.08,7.08,0,0,1,3.77,1,6.75,6.75,0,0,1,2.55,2.81,9,9,0,0,1,.91,4.14v.83H196.81a3.71,3.71,0,0,0,1.28,2.41,4.19,4.19,0,0,0,2.87,1,6.09,6.09,0,0,0,2.11-.39,5,5,0,0,0,1.75-1l1.67,2.45a7.14,7.14,0,0,1-2.63,1.48,10.49,10.49,0,0,1-3.32.53,8.2,8.2,0,0,1-3.94-1,6.8,6.8,0,0,1-2.76-2.66,7.79,7.79,0,0,1-1-4A7.67,7.67,0,0,1,193.79,64.31Zm4,.23a4,4,0,0,0-1,2.22h7.11a3.66,3.66,0,0,0-1-2.21,3.32,3.32,0,0,0-2.59-1A3.25,3.25,0,0,0,197.79,64.54Z" fill="#db3a26"/><path d="M228.18,66.23a2.57,2.57,0,0,0-.52-1.69,2,2,0,0,0-1.63-.62,3.12,3.12,0,0,0-1.72.51A4.64,4.64,0,0,0,223,65.6v9.74h-3.82V66.23a2.52,2.52,0,0,0-.53-1.69,2,2,0,0,0-1.62-.62,3.16,3.16,0,0,0-1.71.51,4.48,4.48,0,0,0-1.28,1.2v9.71h-3.8V60.91h3.8v1.88A5.35,5.35,0,0,1,216,61.28a5.83,5.83,0,0,1,2.84-.73,4.5,4.5,0,0,1,2.57.69,3.65,3.65,0,0,1,1.43,1.94,5.63,5.63,0,0,1,2-1.85,5.75,5.75,0,0,1,2.91-.78,4.27,4.27,0,0,1,3.14,1.09,4.44,4.44,0,0,1,1.1,3.27V75.34h-3.82Z" fill="#db3a26"/><path d="M235.74,55.41h3.79v7.35a5.7,5.7,0,0,1,2-1.64,5.54,5.54,0,0,1,2.45-.57,6,6,0,0,1,3.31.93,6.3,6.3,0,0,1,2.27,2.65,10.39,10.39,0,0,1,0,8.09,6,6,0,0,1-2.29,2.61,6.16,6.16,0,0,1-3.29.9,5.37,5.37,0,0,1-2.46-.59,5.81,5.81,0,0,1-2-1.65v1.85h-3.79Zm5.2,16.48a4,4,0,0,0,1.85.46,3.38,3.38,0,0,0,2.66-1.15,5.13,5.13,0,0,0,0-6.11,3.37,3.37,0,0,0-2.66-1.17,4,4,0,0,0-1.85.48,3.66,3.66,0,0,0-1.41,1.2v5.13A3.67,3.67,0,0,0,240.94,71.89Z" fill="#db3a26"/><path d="M253.28,64.31a7.19,7.19,0,0,1,2.65-2.74,7.37,7.37,0,0,1,3.86-1,7,7,0,0,1,3.76,1,6.77,6.77,0,0,1,2.56,2.81A9.14,9.14,0,0,1,267,68.5v.83H256.29a3.68,3.68,0,0,0,1.29,2.41,4.16,4.16,0,0,0,2.87,1,6.08,6.08,0,0,0,2.1-.39,5,5,0,0,0,1.75-1L266,73.72a7.06,7.06,0,0,1-2.63,1.48,10.43,10.43,0,0,1-3.31.53,8.24,8.24,0,0,1-3.95-1,6.92,6.92,0,0,1-2.76-2.66,7.79,7.79,0,0,1-1-4A7.67,7.67,0,0,1,253.28,64.31Zm4,.23a3.9,3.9,0,0,0-1,2.22h7.11a3.66,3.66,0,0,0-1-2.21,3.3,3.3,0,0,0-2.58-1A3.23,3.23,0,0,0,257.28,64.54Z" fill="#db3a26"/><path d="M269.77,60.91h3.79v2a6.45,6.45,0,0,1,2-1.66,5.39,5.39,0,0,1,2.57-.67v3.7a4.75,4.75,0,0,0-1-.12,5,5,0,0,0-2,.48,3.44,3.44,0,0,0-1.52,1.17v9.56h-3.79Z" fill="#db3a26"/><path d="M278.16,71.6a2.4,2.4,0,0,1,3.41,0,2.42,2.42,0,1,1-3.41,0Z" fill="#db3a26"/></g></g></svg>