<svg xmlns="http://www.w3.org/2000/svg" viewBox="0 0 300 600"><title>sub</title><g id="Layer_2" data-name="Layer 2"><g id="REC"><rect width="300" height="600" fill="none"/></g><g id="images"><path d="M24.69,188a10.71,10.71,0,0,1-4.32-.8,9.31,9.31,0,0,1-3-2.07l1.78-2.45a8.58,8.58,0,0,0,2.36,1.75,7.06,7.06,0,0,0,3.34.76,5.43,5.43,0,0,0,1.66-.22,2.92,2.92,0,0,0,1.1-.57,2.34,2.34,0,0,0,.63-.79,2.26,2.26,0,0,0,.2-.91,1.61,1.61,0,0,0-.77-1.44,7.41,7.41,0,0,0-1.95-.85c-.78-.24-1.62-.46-2.52-.68a11.92,11.92,0,0,1-2.52-.89,5.33,5.33,0,0,1-1.95-1.55,4.18,4.18,0,0,1-.77-2.63,4.76,4.76,0,0,1,.47-2.1,5.31,5.31,0,0,1,1.33-1.67,6.08,6.08,0,0,1,2.06-1.12,8.51,8.51,0,0,1,2.7-.4,10.37,10.37,0,0,1,3.8.66,8.69,8.69,0,0,1,2.93,1.87l-1.79,2.35A6.75,6.75,0,0,0,27,172.69a8.13,8.13,0,0,0-2.79-.5,3.57,3.57,0,0,0-2.2.62,2,2,0,0,0-.83,1.62,1.45,1.45,0,0,0,.77,1.3,7.46,7.46,0,0,0,1.95.78q1.17.33,2.52.66a11.51,11.51,0,0,1,2.52,1,5.51,5.51,0,0,1,1.95,1.62,4.36,4.36,0,0,1,.77,2.69,5.7,5.7,0,0,1-.41,2.14A4.77,4.77,0,0,1,30,186.35a6,6,0,0,1-2.18,1.22A9.71,9.71,0,0,1,24.69,188Z" fill="#e32d27"/><path d="M43.3,187.69v-8.21a2.55,2.55,0,0,0-.71-2.09,3,3,0,0,0-1.91-.55,3.74,3.74,0,0,0-2,.54,4.73,4.73,0,0,0-1.36,1.19v9.12H34.49v-18h2.84v6.73a5.24,5.24,0,0,1,.79-.76,6.63,6.63,0,0,1,1.06-.68,6.56,6.56,0,0,1,1.27-.47,6.3,6.3,0,0,1,1.47-.17,4.3,4.3,0,0,1,3.16,1,4.18,4.18,0,0,1,1.05,3.08v9.23Z" fill="#e32d27"/><path d="M55.72,188a6.78,6.78,0,0,1-2.81-.56A6.42,6.42,0,0,1,50.8,186a6.28,6.28,0,0,1-1.32-2.18,7.83,7.83,0,0,1,0-5.29,6.19,6.19,0,0,1,3.43-3.64,7.56,7.56,0,0,1,5.61,0,6.25,6.25,0,0,1,2.11,1.47A6.39,6.39,0,0,1,62,178.51a7.83,7.83,0,0,1,0,5.29,6.23,6.23,0,0,1-3.43,3.66A6.76,6.76,0,0,1,55.72,188Zm0-2.52a3.51,3.51,0,0,0,1.62-.35,3.57,3.57,0,0,0,1.17-.94,4.25,4.25,0,0,0,.71-1.39,5.43,5.43,0,0,0,.25-1.66,5.27,5.27,0,0,0-.25-1.65,4.3,4.3,0,0,0-.71-1.38,3.57,3.57,0,0,0-1.17-.94,3.51,3.51,0,0,0-1.62-.35,3.45,3.45,0,0,0-1.6.35,3.65,3.65,0,0,0-1.19.94,4.34,4.34,0,0,0-.73,1.38,5.58,5.58,0,0,0-.24,1.65,5.75,5.75,0,0,0,.24,1.66,4.29,4.29,0,0,0,.73,1.39,3.65,3.65,0,0,0,1.19.94A3.45,3.45,0,0,0,55.72,185.5Z" fill="#e32d27"/><path d="M72.32,188a4.93,4.93,0,0,1-2.31-.56,5.74,5.74,0,0,1-1.88-1.58v6.78H65.3v-18h2.83v1.78a5.37,5.37,0,0,1,1.81-1.54,5.15,5.15,0,0,1,2.38-.56,5.65,5.65,0,0,1,2.32.46,5.07,5.07,0,0,1,1.82,1.33,6.24,6.24,0,0,1,1.21,2.15,9.93,9.93,0,0,1,0,5.78,6.19,6.19,0,0,1-1.21,2.14,5.13,5.13,0,0,1-1.82,1.35A5.5,5.5,0,0,1,72.32,188Zm-.84-2.52a3.29,3.29,0,0,0,2.7-1.21,5.38,5.38,0,0,0,0-6.25,3.31,3.31,0,0,0-2.7-1.2,4,4,0,0,0-1.93.5,3.84,3.84,0,0,0-1.42,1.23v5.15a3.65,3.65,0,0,0,.61.7,4.55,4.55,0,0,0,.81.57,4.39,4.39,0,0,0,1,.38A3.72,3.72,0,0,0,71.48,185.5Z" fill="#e32d27"/><path d="M87.9,187.69v-18h2.83v6.78a5.27,5.27,0,0,1,1.88-1.59,5.16,5.16,0,0,1,2.31-.54,5.61,5.61,0,0,1,2.33.47,5.14,5.14,0,0,1,1.84,1.36,6.64,6.64,0,0,1,1.2,2.16,8.73,8.73,0,0,1,.43,2.84,8.91,8.91,0,0,1-.43,2.89,6.48,6.48,0,0,1-1.21,2.16,5.32,5.32,0,0,1-1.85,1.35,5.88,5.88,0,0,1-2.31.46,5,5,0,0,1-2.35-.57,5.68,5.68,0,0,1-1.84-1.54v1.78Zm2.83-3.91A3.91,3.91,0,0,0,92.15,185a4,4,0,0,0,2,.5,3.25,3.25,0,0,0,2.68-1.21,4.79,4.79,0,0,0,1-3.13,5.67,5.67,0,0,0-.26-1.74,3.85,3.85,0,0,0-.74-1.37,3.4,3.4,0,0,0-2.67-1.21,4.26,4.26,0,0,0-3.38,1.75Z" fill="#e32d27"/><path d="M105,173.06a1.76,1.76,0,0,1-1.25-3,1.72,1.72,0,0,1,1.25-.51,1.75,1.75,0,0,1,1.24,3A1.67,1.67,0,0,1,105,173.06Zm-1.43,14.63v-13h2.83v13Z" fill="#e32d27"/><path d="M115.41,193a9.59,9.59,0,0,1-3-.42,6.77,6.77,0,0,1-2.51-1.52l1.32-2a4.55,4.55,0,0,0,1.84,1.29,6.49,6.49,0,0,0,2.32.38,5.94,5.94,0,0,0,1.39-.17,3.35,3.35,0,0,0,1.24-.61,3.1,3.1,0,0,0,.89-1.12,3.88,3.88,0,0,0,.34-1.74v-1.49a5.64,5.64,0,0,1-1.82,1.59,4.73,4.73,0,0,1-2.36.6,5.87,5.87,0,0,1-2.31-.45,5.16,5.16,0,0,1-1.84-1.29,6.15,6.15,0,0,1-1.2-2.1,9.63,9.63,0,0,1,0-5.69,6.29,6.29,0,0,1,1.2-2.11,5.23,5.23,0,0,1,1.82-1.31,6.08,6.08,0,0,1,2.33-.44,5.14,5.14,0,0,1,2.32.54,5.21,5.21,0,0,1,1.86,1.59v-1.81h2.84V187a6.28,6.28,0,0,1-.6,2.91,4.85,4.85,0,0,1-1.55,1.84,6,6,0,0,1-2.16.94A10.88,10.88,0,0,1,115.41,193Zm.51-7.8a4.32,4.32,0,0,0,3.35-1.73v-4.88a4.32,4.32,0,0,0-3.35-1.73,3.42,3.42,0,0,0-2.7,1.14,4.5,4.5,0,0,0-1,3,4.46,4.46,0,0,0,1,3A3.44,3.44,0,0,0,115.92,185.18Z" fill="#e32d27"/><path d="M141.93,187.69v-1.78a5.75,5.75,0,0,1-1.83,1.54,4.93,4.93,0,0,1-2.36.57,5.88,5.88,0,0,1-2.31-.46,5.07,5.07,0,0,1-1.83-1.35,6.48,6.48,0,0,1-1.21-2.16,9.19,9.19,0,0,1-.43-2.89,9,9,0,0,1,.43-2.84,6.48,6.48,0,0,1,1.21-2.16,5.15,5.15,0,0,1,1.82-1.36,5.5,5.5,0,0,1,2.32-.47,5.11,5.11,0,0,1,2.32.54,5.32,5.32,0,0,1,1.87,1.59v-6.78h2.83v18Zm-3.35-2.19a3.72,3.72,0,0,0,1-.13,4.39,4.39,0,0,0,.95-.38,5,5,0,0,0,.81-.55,3.6,3.6,0,0,0,.61-.69v-5.16a4.2,4.2,0,0,0-.61-.67,4.55,4.55,0,0,0-.81-.57,4.39,4.39,0,0,0-.95-.38,3.72,3.72,0,0,0-1-.13,3.59,3.59,0,0,0-1.54.32,3.5,3.5,0,0,0-1.16.89,4,4,0,0,0-.75,1.37,6.18,6.18,0,0,0,0,3.48,4.17,4.17,0,0,0,.75,1.38,3.52,3.52,0,0,0,1.16.9A3.45,3.45,0,0,0,138.58,185.5Z" fill="#e32d27"/><path d="M149.86,173.06a1.76,1.76,0,0,1-1.75-1.76,1.75,1.75,0,0,1,3-1.24,1.76,1.76,0,0,1-1.24,3Zm-1.43,14.63v-13h2.84v13Z" fill="#e32d27"/><path d="M159.42,188a9,9,0,0,1-3.13-.53,6.83,6.83,0,0,1-2.46-1.53l1.3-2a5.27,5.27,0,0,0,.83.67,6.93,6.93,0,0,0,1.08.58,6.83,6.83,0,0,0,1.23.41,5.49,5.49,0,0,0,1.26.15,3.24,3.24,0,0,0,1.94-.48,1.47,1.47,0,0,0,.65-1.25,1,1,0,0,0-.58-1,5.59,5.59,0,0,0-1.46-.54c-.58-.15-1.22-.29-1.9-.43a8,8,0,0,1-1.9-.65,4.2,4.2,0,0,1-1.46-1.16,3.13,3.13,0,0,1-.58-2,3.63,3.63,0,0,1,.33-1.53,3.81,3.81,0,0,1,1-1.25,4.65,4.65,0,0,1,1.61-.85,7,7,0,0,1,2.2-.31,7.78,7.78,0,0,1,2.93.51,7.09,7.09,0,0,1,2.12,1.3l-1.19,2a4.81,4.81,0,0,0-1.61-1.1,5.33,5.33,0,0,0-2.25-.46,2.93,2.93,0,0,0-1.77.46,1.36,1.36,0,0,0-.64,1.16.94.94,0,0,0,.58.86,6.2,6.2,0,0,0,1.46.5l1.91.43a8.4,8.4,0,0,1,1.9.68,4.29,4.29,0,0,1,1.46,1.21,3.41,3.41,0,0,1,.58,2.07,3.9,3.9,0,0,1-.35,1.62,3.58,3.58,0,0,1-1,1.29,5.32,5.32,0,0,1-1.7.86A8.29,8.29,0,0,1,159.42,188Z" fill="#e32d27"/><path d="M173.62,188a7,7,0,0,1-2.71-.52,6.25,6.25,0,0,1-2.12-1.43,6.62,6.62,0,0,1-1.39-2.17,7.42,7.42,0,0,1-.5-2.74,7.33,7.33,0,0,1,.5-2.73,6.57,6.57,0,0,1,1.39-2.16,6.25,6.25,0,0,1,2.12-1.43,7,7,0,0,1,2.71-.51,7.08,7.08,0,0,1,1.74.19,5.35,5.35,0,0,1,1.38.51,5,5,0,0,1,1.07.74,7.41,7.41,0,0,1,.81.88l-1.87,1.7a3.47,3.47,0,0,0-3-1.51,3.66,3.66,0,0,0-2.86,1.2,4.49,4.49,0,0,0-1.08,3.12,5.12,5.12,0,0,0,.28,1.74,4.12,4.12,0,0,0,.81,1.38,3.84,3.84,0,0,0,1.24.9,3.8,3.8,0,0,0,1.61.32,3.47,3.47,0,0,0,3-1.56l1.87,1.75a6.32,6.32,0,0,1-1.89,1.62A6,6,0,0,1,173.62,188Z" fill="#e32d27"/><path d="M187,188a6.84,6.84,0,0,1-2.81-.56,6.38,6.38,0,0,1-2.1-1.48,6.46,6.46,0,0,1-1.33-2.18,8,8,0,0,1,0-5.29,6.41,6.41,0,0,1,1.33-2.17,6.21,6.21,0,0,1,2.1-1.47,7.58,7.58,0,0,1,5.62,0,6.11,6.11,0,0,1,2.1,1.47,6.41,6.41,0,0,1,1.33,2.17,7.83,7.83,0,0,1,0,5.29A6.46,6.46,0,0,1,192,186a6.28,6.28,0,0,1-2.1,1.48A6.84,6.84,0,0,1,187,188Zm0-2.52a3.47,3.47,0,0,0,2.8-1.29,4.25,4.25,0,0,0,.71-1.39,5.75,5.75,0,0,0,.24-1.66,5.58,5.58,0,0,0-.24-1.65,4.3,4.3,0,0,0-.71-1.38,3.47,3.47,0,0,0-2.8-1.29,3.44,3.44,0,0,0-1.59.35,3.55,3.55,0,0,0-1.19.94,4.15,4.15,0,0,0-.73,1.38,5.58,5.58,0,0,0-.24,1.65,5.75,5.75,0,0,0,.24,1.66,4.1,4.1,0,0,0,.73,1.39,3.55,3.55,0,0,0,1.19.94A3.44,3.44,0,0,0,187,185.5Z" fill="#e32d27"/><path d="M205.43,187.69V186a6.77,6.77,0,0,1-1.88,1.42,5.65,5.65,0,0,1-2.71.64,4.25,4.25,0,0,1-3.16-1.07,4.19,4.19,0,0,1-1.05-3.07v-9.23h2.83v8.18a2.55,2.55,0,0,0,.72,2.09,2.94,2.94,0,0,0,1.93.58,3.7,3.7,0,0,0,1.95-.52,4.61,4.61,0,0,0,1.37-1.18v-9.15h2.83v13Z" fill="#e32d27"/><path d="M220.76,187.69v-8.15a2.63,2.63,0,0,0-.71-2.12,3,3,0,0,0-1.93-.58,3.66,3.66,0,0,0-2,.54,5,5,0,0,0-1.39,1.19v9.12h-2.84v-13h2.84v1.76a5.34,5.34,0,0,1,.8-.76,6.21,6.21,0,0,1,1.06-.68,7.49,7.49,0,0,1,1.28-.47,6.33,6.33,0,0,1,1.48-.17,3.75,3.75,0,0,1,4.21,4.18v9.18Z" fill="#e32d27"/><path d="M231.21,188a3.34,3.34,0,0,1-2.51-.87,3.44,3.44,0,0,1-.84-2.51v-7.53H225.7v-2.46h2.16v-3.56h2.84v3.56h2.65v2.46H230.7v6.83a1.9,1.9,0,0,0,.31,1.12,1.05,1.05,0,0,0,.93.44,1.78,1.78,0,0,0,.74-.14,1.45,1.45,0,0,0,.5-.34l.68,2.16a3.14,3.14,0,0,1-1,.59A4.67,4.67,0,0,1,231.21,188Z" fill="#e32d27"/><path d="M240.37,188a9.08,9.08,0,0,1-3.14-.53,6.79,6.79,0,0,1-2.45-1.53l1.29-2a5.37,5.37,0,0,0,.84.67,6.13,6.13,0,0,0,1.08.58,6.34,6.34,0,0,0,1.23.41,5.4,5.4,0,0,0,1.25.15,3.26,3.26,0,0,0,1.95-.48,1.47,1.47,0,0,0,.65-1.25,1,1,0,0,0-.59-1,5.51,5.51,0,0,0-1.45-.54c-.59-.15-1.22-.29-1.91-.43a8.18,8.18,0,0,1-1.9-.65,4.29,4.29,0,0,1-1.46-1.16,3.13,3.13,0,0,1-.58-2,3.49,3.49,0,0,1,.34-1.53,3.65,3.65,0,0,1,1-1.25,4.74,4.74,0,0,1,1.61-.85,7,7,0,0,1,2.2-.31,7.75,7.75,0,0,1,2.93.51,7,7,0,0,1,2.12,1.3l-1.19,2a4.76,4.76,0,0,0-1.6-1.1,5.37,5.37,0,0,0-2.26-.46,3,3,0,0,0-1.77.46,1.37,1.37,0,0,0-.63,1.16.92.92,0,0,0,.58.86,5.9,5.9,0,0,0,1.46.5l1.9.43a8.23,8.23,0,0,1,1.9.68,4.2,4.2,0,0,1,1.46,1.21,3.35,3.35,0,0,1,.58,2.07,3.9,3.9,0,0,1-.35,1.62,3.48,3.48,0,0,1-1,1.29,5.22,5.22,0,0,1-1.7.86A8.17,8.17,0,0,1,240.37,188Z" fill="#e32d27"/><path d="M26.93,217a9.54,9.54,0,0,1-3.71-.71,8.73,8.73,0,0,1-2.92-1.94,8.87,8.87,0,0,1-1.9-2.94,10.72,10.72,0,0,1,0-7.46,8.59,8.59,0,0,1,4.82-4.88,10.21,10.21,0,0,1,7.43,0,8.69,8.69,0,0,1,2.9,1.94,9,9,0,0,1,1.9,2.94,10.43,10.43,0,0,1,0,7.46,9,9,0,0,1-1.9,2.94,8.54,8.54,0,0,1-2.9,1.94A9.59,9.59,0,0,1,26.93,217Zm0-2.81a6,6,0,0,0,2.46-.5,5.54,5.54,0,0,0,1.89-1.37,5.92,5.92,0,0,0,1.2-2.06,8.17,8.17,0,0,0,0-5.17,6,6,0,0,0-1.2-2.05,5.68,5.68,0,0,0-1.89-1.37,6.33,6.33,0,0,0-4.93,0,5.7,5.7,0,0,0-1.87,1.37,5.83,5.83,0,0,0-1.21,2.05,8.35,8.35,0,0,0,0,5.17,5.79,5.79,0,0,0,1.21,2.06,5.56,5.56,0,0,0,1.87,1.37A5.92,5.92,0,0,0,26.93,214.21Z" fill="#e32d27"/><path d="M45,217a7,7,0,0,1-2.71-.52,6.25,6.25,0,0,1-2.12-1.43,6.62,6.62,0,0,1-1.39-2.17,7.42,7.42,0,0,1-.5-2.74,7.33,7.33,0,0,1,.5-2.73,6.57,6.57,0,0,1,1.39-2.16,6.25,6.25,0,0,1,2.12-1.43,7,7,0,0,1,2.71-.51,7.08,7.08,0,0,1,1.74.19,5.35,5.35,0,0,1,1.38.51,5,5,0,0,1,1.07.74,7.41,7.41,0,0,1,.81.88l-1.86,1.7a3.49,3.49,0,0,0-3-1.51A3.66,3.66,0,0,0,42.3,207a4.49,4.49,0,0,0-1.08,3.12,5.12,5.12,0,0,0,.28,1.74,4.12,4.12,0,0,0,.81,1.38,3.84,3.84,0,0,0,1.24.9,3.8,3.8,0,0,0,1.61.32,3.5,3.5,0,0,0,3-1.56L50,214.69a6.32,6.32,0,0,1-1.89,1.62A6,6,0,0,1,45,217Z" fill="#e32d27"/><path d="M56.47,217a3.33,3.33,0,0,1-2.51-.87,3.44,3.44,0,0,1-.84-2.51v-7.53H51v-2.46h2.16v-3.56H56v3.56H58.6v2.46H56v6.83a1.9,1.9,0,0,0,.31,1.12,1,1,0,0,0,.93.44,1.78,1.78,0,0,0,.74-.14,1.45,1.45,0,0,0,.5-.34l.68,2.16a3.24,3.24,0,0,1-1,.59A4.67,4.67,0,0,1,56.47,217Z" fill="#e32d27"/><path d="M71.46,216.69V202.76l-2.95,3.08-1.83-1.92,5.18-5.24h2.75v18Z" fill="#e32d27"/><path d="M79.8,216.69l6.8-15.2H77.26v-2.81h13v2.19l-7,15.82Z" fill="#e32d27"/><path d="M91.7,211.37v-2.43h6.48v2.43Z" fill="#e32d27"/><path d="M104.18,216.69V202.76l-2.94,3.08-1.84-1.92,5.18-5.24h2.76v18Z" fill="#e32d27"/><path d="M117.3,217a10.24,10.24,0,0,1-2.63-.33,7.43,7.43,0,0,1-2.22-.94,4.78,4.78,0,0,1-1.51-1.56,4.08,4.08,0,0,1-.55-2.14,4,4,0,0,1,.32-1.58,4.42,4.42,0,0,1,.88-1.32,6.09,6.09,0,0,1,1.3-1,7.52,7.52,0,0,1,1.55-.72,8.11,8.11,0,0,1-1.45-.62,5,5,0,0,1-1.2-.9,4.09,4.09,0,0,1-.81-1.2,3.78,3.78,0,0,1-.29-1.54,3.86,3.86,0,0,1,.58-2.15,4.55,4.55,0,0,1,1.52-1.47,7.18,7.18,0,0,1,2.13-.84,10.62,10.62,0,0,1,4.76,0,7.18,7.18,0,0,1,2.13.84,4.55,4.55,0,0,1,1.52,1.47,3.87,3.87,0,0,1,.59,2.15,3.78,3.78,0,0,1-.3,1.54,4.09,4.09,0,0,1-.81,1.2,5,5,0,0,1-1.2.9,8.11,8.11,0,0,1-1.45.62,7.52,7.52,0,0,1,1.55.72,6.09,6.09,0,0,1,1.3,1,4.42,4.42,0,0,1,.88,1.32,4,4,0,0,1,.32,1.58,4.09,4.09,0,0,1-.56,2.14,5,5,0,0,1-1.52,1.56,7.2,7.2,0,0,1-2.2.94A10.24,10.24,0,0,1,117.3,217Zm0-2.81a5.42,5.42,0,0,0,1.42-.18,3.88,3.88,0,0,0,1.17-.51,2.84,2.84,0,0,0,.81-.81,2,2,0,0,0,.3-1.07,1.79,1.79,0,0,0-.42-1.2,4,4,0,0,0-1-.85,6.06,6.06,0,0,0-1.23-.54,5.89,5.89,0,0,0-1-.24,5.93,5.93,0,0,0-1.07.24,5.67,5.67,0,0,0-1.21.54,3.92,3.92,0,0,0-1,.85,1.79,1.79,0,0,0-.42,1.2,2.13,2.13,0,0,0,.28,1.07,2.68,2.68,0,0,0,.8.81,3.83,3.83,0,0,0,1.18.51A5.46,5.46,0,0,0,117.3,214.21Zm0-8.08c.27,0,.6-.13,1-.24a4.8,4.8,0,0,0,1.12-.46,3.24,3.24,0,0,0,.9-.74,1.56,1.56,0,0,0,.38-1.07,2,2,0,0,0-1-1.78,5.07,5.07,0,0,0-4.86,0,2,2,0,0,0-1,1.78,1.56,1.56,0,0,0,.38,1.07,3.15,3.15,0,0,0,.91.74,5.4,5.4,0,0,0,1.12.46Q116.9,206.06,117.3,206.13Z" fill="#e32d27"/></g></g></svg>