<svg xmlns="http://www.w3.org/2000/svg" xmlns:xlink="http://www.w3.org/1999/xlink" viewBox="0 0 728 90"><defs><clipPath id="clip-path"><rect x="586.54" y="16.63" width="126.16" height="25.89" fill="none"/></clipPath></defs><title>CTA 728X90</title><g id="Layer_2" data-name="Layer 2"><g id="REC"><rect width="728" height="90" fill="none"/></g><g id="CTA"><g id="button_see_the_deals" data-name="button see the deals"><g clip-path="url(#clip-path)"><g clip-path="url(#clip-path)"><path d="M700.4,42.53H598.85a12.31,12.31,0,0,1-12.31-12.31V28.94a12.31,12.31,0,0,1,12.31-12.31H700.4a12.31,12.31,0,0,1,12.31,12.31v1.28A12.31,12.31,0,0,1,700.4,42.53" fill="#e52823"/><path d="M604.76,31.43a4.39,4.39,0,0,0,1.36,1,4,4,0,0,0,1.75.38,2.35,2.35,0,0,0,1.48-.4,1.21,1.21,0,0,0,.5-.95.88.88,0,0,0-.29-.68,2.17,2.17,0,0,0-.73-.43c-.29-.1-.7-.22-1.22-.36a12.8,12.8,0,0,1-1.8-.55,3.06,3.06,0,0,1-1.2-.86,2.33,2.33,0,0,1-.5-1.55,2.55,2.55,0,0,1,.45-1.47,3,3,0,0,1,1.27-1,4.45,4.45,0,0,1,1.86-.38,5.08,5.08,0,0,1,3.69,1.37l-1,1.28a3.73,3.73,0,0,0-1.3-.84,4.51,4.51,0,0,0-1.54-.28,2,2,0,0,0-1.22.34,1.06,1.06,0,0,0-.45.9.74.74,0,0,0,.28.59,2,2,0,0,0,.7.38,11.41,11.41,0,0,0,1.19.34,13.64,13.64,0,0,1,1.82.58,3.11,3.11,0,0,1,1.22.9,2.35,2.35,0,0,1,.51,1.59,2.76,2.76,0,0,1-1.68,2.63,4.8,4.8,0,0,1-2.12.41,6.07,6.07,0,0,1-2.31-.41,4.92,4.92,0,0,1-1.69-1.15Z" fill="#fff"/><path d="M613.17,28.68a3.63,3.63,0,0,1,1.29-1.35,3.55,3.55,0,0,1,1.86-.5,3.4,3.4,0,0,1,1.84.5,3.32,3.32,0,0,1,1.24,1.38,4.42,4.42,0,0,1,.43,2v.37h-5.5a2.21,2.21,0,0,0,.69,1.41,2.26,2.26,0,0,0,1.58.56,3.28,3.28,0,0,0,1.1-.2,2.46,2.46,0,0,0,.92-.58l.71,1a3.49,3.49,0,0,1-1.28.76,4.73,4.73,0,0,1-1.61.27,3.92,3.92,0,0,1-1.91-.47,3.31,3.31,0,0,1-1.33-1.32,3.83,3.83,0,0,1-.49-2,3.89,3.89,0,0,1,.46-1.89m1.72,0a2.14,2.14,0,0,0-.57,1.32h4a2.09,2.09,0,0,0-.24-.9,1.8,1.8,0,0,0-.66-.71,2,2,0,0,0-1.11-.28,1.82,1.82,0,0,0-1.43.57" fill="#fff"/><path d="M621.39,28.68a3.63,3.63,0,0,1,1.29-1.35,3.55,3.55,0,0,1,1.86-.5,3.43,3.43,0,0,1,1.84.5,3.36,3.36,0,0,1,1.23,1.38,4.43,4.43,0,0,1,.44,2v.37h-5.51a2.17,2.17,0,0,0,.7,1.41,2.23,2.23,0,0,0,1.57.56,3.24,3.24,0,0,0,1.1-.2,2.58,2.58,0,0,0,.93-.58l.7,1a3.49,3.49,0,0,1-1.28.76,4.73,4.73,0,0,1-1.61.27,3.94,3.94,0,0,1-1.91-.47,3.38,3.38,0,0,1-1.33-1.32,3.83,3.83,0,0,1-.49-2,3.89,3.89,0,0,1,.47-1.89m1.71,0a2.14,2.14,0,0,0-.57,1.32h4a2.09,2.09,0,0,0-.24-.9,1.67,1.67,0,0,0-.66-.71,2,2,0,0,0-1.1-.28,1.86,1.86,0,0,0-1.44.57" fill="#fff"/><path d="M634.14,33.85a1.87,1.87,0,0,1-.46-1.36V28.36H632.5V27h1.18v-2h1.55v2h1.44v1.35h-1.44v3.75a1,1,0,0,0,.17.61.61.61,0,0,0,.5.23,1.15,1.15,0,0,0,.41-.08.62.62,0,0,0,.29-.17l.37,1.16a2,2,0,0,1-1.46.46,1.86,1.86,0,0,1-1.37-.47" fill="#fff"/><path d="M642.89,29.65a1.42,1.42,0,0,0-.37-1.12,1.57,1.57,0,0,0-1.07-.33,2,2,0,0,0-1,.28,2.67,2.67,0,0,0-.8.68v5h-1.55V24.29h1.55V28a3.22,3.22,0,0,1,1.07-.81,3.13,3.13,0,0,1,1.45-.34,2.36,2.36,0,0,1,1.72.57,2.27,2.27,0,0,1,.58,1.68v5.05h-1.55Z" fill="#fff"/><path d="M646.47,28.68a3.63,3.63,0,0,1,1.29-1.35,3.55,3.55,0,0,1,1.86-.5,3.4,3.4,0,0,1,1.84.5,3.36,3.36,0,0,1,1.23,1.38,4.43,4.43,0,0,1,.44,2v.37h-5.5a2.21,2.21,0,0,0,.69,1.41,2.24,2.24,0,0,0,1.58.56,3.33,3.33,0,0,0,1.1-.2,2.54,2.54,0,0,0,.92-.58l.71,1a3.53,3.53,0,0,1-1.29.76,4.67,4.67,0,0,1-1.6.27,3.89,3.89,0,0,1-1.91-.47,3.4,3.4,0,0,1-1.34-1.32,4.18,4.18,0,0,1,0-3.85m1.72,0a2.1,2.1,0,0,0-.58,1.32h4a2.07,2.07,0,0,0-.23-.9,1.76,1.76,0,0,0-.67-.71,2,2,0,0,0-1.1-.28,1.82,1.82,0,0,0-1.43.57" fill="#fff"/><path d="M658.5,24.29h3.65a5.57,5.57,0,0,1,2.69.63,4.55,4.55,0,0,1,1.81,1.75,5.31,5.31,0,0,1,0,5.09,4.59,4.59,0,0,1-1.81,1.74,5.57,5.57,0,0,1-2.69.63H658.5Zm3.65,8.32a3.49,3.49,0,0,0,1.8-.45,3,3,0,0,0,1.17-1.22,3.67,3.67,0,0,0,.41-1.72,3.76,3.76,0,0,0-.39-1.73A2.93,2.93,0,0,0,664,26.26a3.55,3.55,0,0,0-1.83-.45h-1.93v6.8Z" fill="#fff"/><path d="M668.94,28.68a3.63,3.63,0,0,1,1.29-1.35,3.55,3.55,0,0,1,1.86-.5,3.44,3.44,0,0,1,1.85.5,3.36,3.36,0,0,1,1.23,1.38,4.42,4.42,0,0,1,.43,2v.37h-5.5a2.21,2.21,0,0,0,.69,1.41,2.26,2.26,0,0,0,1.58.56,3.28,3.28,0,0,0,1.1-.2,2.46,2.46,0,0,0,.92-.58l.71,1a3.49,3.49,0,0,1-1.28.76,4.73,4.73,0,0,1-1.61.27,3.92,3.92,0,0,1-1.91-.47A3.31,3.31,0,0,1,669,32.53a3.83,3.83,0,0,1-.49-2,3.89,3.89,0,0,1,.46-1.89m1.72,0a2.14,2.14,0,0,0-.57,1.32h4a2.09,2.09,0,0,0-.24-.9,1.8,1.8,0,0,0-.66-.71,2,2,0,0,0-1.11-.28,1.84,1.84,0,0,0-1.43.57" fill="#fff"/><path d="M682.15,33.15a3,3,0,0,1-1,.86,2.69,2.69,0,0,1-1.28.31,3,3,0,0,1-1.63-.45,3,3,0,0,1-1.13-1.29,4.57,4.57,0,0,1-.41-2,4.51,4.51,0,0,1,.41-2,3,3,0,0,1,1.13-1.31,2.93,2.93,0,0,1,1.63-.46A2.84,2.84,0,0,1,682.15,28V27h1.55v7.12h-1.55Zm0-4a2,2,0,0,0-.78-.69,2.29,2.29,0,0,0-1.06-.27,1.81,1.81,0,0,0-1.46.65,2.93,2.93,0,0,0,0,3.42,1.79,1.79,0,0,0,1.46.66,2.29,2.29,0,0,0,1.06-.27,1.93,1.93,0,0,0,.78-.68Z" fill="#fff"/><path d="M686.17,33.85a1.87,1.87,0,0,1-.47-1.36v-8.2h1.55v7.82a1,1,0,0,0,.18.61.6.6,0,0,0,.5.23,1.1,1.1,0,0,0,.4-.08.58.58,0,0,0,.28-.17l.37,1.16a2,2,0,0,1-1.45.46,1.84,1.84,0,0,1-1.36-.47" fill="#fff"/><path d="M690,32.09a3.38,3.38,0,0,0,1.08.71,3.29,3.29,0,0,0,1.34.3,2,2,0,0,0,1-.23.74.74,0,0,0,.36-.65.69.69,0,0,0-.41-.65,5.36,5.36,0,0,0-1.21-.39,9.36,9.36,0,0,1-1.38-.38,2.23,2.23,0,0,1-.92-.63,1.73,1.73,0,0,1-.38-1.17,1.92,1.92,0,0,1,.33-1.09,2.27,2.27,0,0,1,1-.79,3.62,3.62,0,0,1,1.5-.29,4,4,0,0,1,2.77,1l-.65,1.09a2.44,2.44,0,0,0-.9-.62,3.18,3.18,0,0,0-1.21-.23,1.91,1.91,0,0,0-1,.21.64.64,0,0,0-.35.58.58.58,0,0,0,.38.56,5.4,5.4,0,0,0,1.17.37,10.35,10.35,0,0,1,1.4.39,2.38,2.38,0,0,1,.95.68,1.8,1.8,0,0,1,.4,1.24,2,2,0,0,1-.78,1.6,3.45,3.45,0,0,1-2.18.62,5,5,0,0,1-1.71-.29,3.56,3.56,0,0,1-1.34-.82Z" fill="#fff"/></g></g></g><rect width="728" height="90" fill="none"/></g></g></svg>