<svg xmlns="http://www.w3.org/2000/svg" viewBox="0 0 728 90"><g id="Layer_2" data-name="Layer 2"><g id="REC"><rect width="728" height="90" fill="none"/></g><g id="subhed"><path d="M299.16,29.91a8.71,8.71,0,0,1-3.52-.65,7.45,7.45,0,0,1-2.46-1.68l1.45-2A6.87,6.87,0,0,0,296.55,27a5.8,5.8,0,0,0,2.72.62,4.41,4.41,0,0,0,1.35-.18,2.38,2.38,0,0,0,.9-.46,1.84,1.84,0,0,0,.51-.65,1.73,1.73,0,0,0,.17-.73,1.31,1.31,0,0,0-.63-1.18,6.22,6.22,0,0,0-1.59-.69c-.63-.19-1.32-.38-2.05-.55a10.24,10.24,0,0,1-2.06-.73,4.37,4.37,0,0,1-1.58-1.26,3.39,3.39,0,0,1-.63-2.15,3.85,3.85,0,0,1,.38-1.7A4.21,4.21,0,0,1,295.12,16a5.06,5.06,0,0,1,1.69-.91,6.85,6.85,0,0,1,2.19-.33,8.44,8.44,0,0,1,3.1.54,7.05,7.05,0,0,1,2.38,1.53L303,18.71a5.42,5.42,0,0,0-2-1.29,6.6,6.6,0,0,0-2.28-.4,3,3,0,0,0-1.79.5,1.58,1.58,0,0,0-.67,1.32,1.17,1.17,0,0,0,.63,1.06,6.39,6.39,0,0,0,1.58.64c.64.17,1.32.35,2.06.53a9.67,9.67,0,0,1,2.05.78,4.54,4.54,0,0,1,1.59,1.32,3.48,3.48,0,0,1,.62,2.18,4.47,4.47,0,0,1-.33,1.75,3.84,3.84,0,0,1-1,1.46,5.18,5.18,0,0,1-1.77,1A8.09,8.09,0,0,1,299.16,29.91Z" fill="#e52823"/><path d="M314.32,29.64V23a2.09,2.09,0,0,0-.57-1.71,2.5,2.5,0,0,0-1.57-.45,3,3,0,0,0-1.61.44,3.83,3.83,0,0,0-1.11,1v7.43h-2.31V15h2.31v5.48a4.75,4.75,0,0,1,.64-.62,5.74,5.74,0,0,1,.86-.55,4.75,4.75,0,0,1,1-.38,4.56,4.56,0,0,1,1.19-.15,3.51,3.51,0,0,1,2.58.86,3.41,3.41,0,0,1,.86,2.51v7.52Z" fill="#e52823"/><path d="M324.44,29.91a5.57,5.57,0,0,1-2.29-.45,5.23,5.23,0,0,1-1.72-1.21,5.34,5.34,0,0,1-1.08-1.77,6.49,6.49,0,0,1,0-4.32,5.34,5.34,0,0,1,1.08-1.77,5.21,5.21,0,0,1,1.72-1.2,6.15,6.15,0,0,1,4.57,0,5.21,5.21,0,0,1,1.72,1.2,5.34,5.34,0,0,1,1.08,1.77,6.49,6.49,0,0,1,0,4.32,5.34,5.34,0,0,1-1.08,1.77,5.23,5.23,0,0,1-1.72,1.21A5.52,5.52,0,0,1,324.44,29.91Zm0-2.05a2.91,2.91,0,0,0,1.32-.28,2.76,2.76,0,0,0,.95-.77,3.52,3.52,0,0,0,.59-1.14,4.64,4.64,0,0,0,.19-1.35A4.52,4.52,0,0,0,327.3,23a3.42,3.42,0,0,0-.59-1.12,2.65,2.65,0,0,0-.95-.77,2.92,2.92,0,0,0-1.32-.29,2.86,2.86,0,0,0-1.3.29,2.81,2.81,0,0,0-1,.77,3.24,3.24,0,0,0-.59,1.12,4.22,4.22,0,0,0-.2,1.34,4.33,4.33,0,0,0,.2,1.35,3.34,3.34,0,0,0,.59,1.14,2.93,2.93,0,0,0,1,.77A2.86,2.86,0,0,0,324.44,27.86Z" fill="#e52823"/><path d="M338,29.91a4,4,0,0,1-1.88-.45,4.67,4.67,0,0,1-1.53-1.29v5.52h-2.31V19h2.31v1.45A4.24,4.24,0,0,1,338,18.75a4.66,4.66,0,0,1,1.89.38,4.07,4.07,0,0,1,1.48,1.09,5,5,0,0,1,1,1.75,7.12,7.12,0,0,1,.35,2.35,7.12,7.12,0,0,1-.35,2.35,5,5,0,0,1-1,1.75,4.1,4.1,0,0,1-1.48,1.1A4.5,4.5,0,0,1,338,29.91Zm-.69-2.05a2.69,2.69,0,0,0,2.2-1,3.85,3.85,0,0,0,.82-2.55,3.8,3.8,0,0,0-.82-2.54,2.71,2.71,0,0,0-2.2-1,3.31,3.31,0,0,0-1.57.41,3.07,3.07,0,0,0-1.15,1v4.2a2.39,2.39,0,0,0,.49.57,3.39,3.39,0,0,0,.66.46,3,3,0,0,0,.77.31A2.8,2.8,0,0,0,337.28,27.86Z" fill="#e52823"/><path d="M350.66,29.64V15H353v5.52a4.4,4.4,0,0,1,1.53-1.3,4.22,4.22,0,0,1,1.88-.44,4.58,4.58,0,0,1,1.9.39,4.32,4.32,0,0,1,1.5,1.11,5.26,5.26,0,0,1,1,1.76,7.27,7.27,0,0,1,.35,2.31,7.4,7.4,0,0,1-.35,2.35,5.27,5.27,0,0,1-1,1.76,4.17,4.17,0,0,1-1.51,1.1,4.71,4.71,0,0,1-1.88.38,4.11,4.11,0,0,1-1.91-.46,4.55,4.55,0,0,1-1.5-1.26v1.45ZM353,26.45a3.07,3.07,0,0,0,1.15,1,3.26,3.26,0,0,0,1.6.41,2.68,2.68,0,0,0,2.19-1,4,4,0,0,0,.8-2.55,4.6,4.6,0,0,0-.21-1.42,3.29,3.29,0,0,0-.6-1.11,3,3,0,0,0-.95-.73,2.88,2.88,0,0,0-1.23-.26,3.27,3.27,0,0,0-1.6.42,3.18,3.18,0,0,0-1.15,1Z" fill="#e52823"/><path d="M364.61,17.72a1.35,1.35,0,0,1-1-.42,1.42,1.42,0,0,1,0-2,1.35,1.35,0,0,1,1-.42,1.38,1.38,0,0,1,1,.42,1.42,1.42,0,0,1,0,2A1.38,1.38,0,0,1,364.61,17.72Zm-1.17,11.92V19h2.31V29.64Z" fill="#e52823"/><path d="M373.08,34a7.76,7.76,0,0,1-2.42-.35,5.5,5.5,0,0,1-2.05-1.24l1.08-1.67a3.73,3.73,0,0,0,1.5,1.06,5.51,5.51,0,0,0,1.89.3,4.32,4.32,0,0,0,1.13-.14,2.71,2.71,0,0,0,1-.49,2.57,2.57,0,0,0,.73-.92,3.24,3.24,0,0,0,.27-1.42V27.88a4.59,4.59,0,0,1-1.48,1.3,3.93,3.93,0,0,1-1.93.49,4.71,4.71,0,0,1-1.88-.37,4,4,0,0,1-1.49-1.05,4.85,4.85,0,0,1-1-1.71,6.92,6.92,0,0,1-.35-2.33,6.88,6.88,0,0,1,.35-2.31,5,5,0,0,1,1-1.72,4,4,0,0,1,1.48-1.06,4.83,4.83,0,0,1,1.89-.37,4.24,4.24,0,0,1,1.9.44,4.34,4.34,0,0,1,1.51,1.3V19h2.31V29.09a5.22,5.22,0,0,1-.48,2.38,4,4,0,0,1-1.27,1.5,5,5,0,0,1-1.76.77A9.23,9.23,0,0,1,373.08,34Zm.42-6.36a3.22,3.22,0,0,0,1.57-.42,3.34,3.34,0,0,0,1.15-1v-4a3.34,3.34,0,0,0-1.15-1,3.22,3.22,0,0,0-1.57-.42,2.76,2.76,0,0,0-2.2.93,3.62,3.62,0,0,0-.82,2.48,3.53,3.53,0,0,0,.82,2.46A2.76,2.76,0,0,0,373.5,27.6Z" fill="#e52823"/><path d="M301.54,52V50.59a4.73,4.73,0,0,1-1.49,1.26,4,4,0,0,1-1.93.46,4.71,4.71,0,0,1-1.88-.38,3.92,3.92,0,0,1-1.49-1.1,5.13,5.13,0,0,1-1-1.75,7.19,7.19,0,0,1-.35-2.36,7,7,0,0,1,.35-2.31,5.09,5.09,0,0,1,1-1.76,4.34,4.34,0,0,1,1.48-1.11,4.57,4.57,0,0,1,1.89-.39,4.24,4.24,0,0,1,1.9.44,4.46,4.46,0,0,1,1.52,1.3V37.37h2.31V52Zm-2.73-1.78a2.8,2.8,0,0,0,.8-.11,3,3,0,0,0,.77-.31,3.84,3.84,0,0,0,.66-.45,2.42,2.42,0,0,0,.5-.56v-4.2a3.61,3.61,0,0,0-.5-.55,3.39,3.39,0,0,0-.66-.46,3.45,3.45,0,0,0-.77-.31,3.21,3.21,0,0,0-.8-.11,3,3,0,0,0-1.26.26,2.91,2.91,0,0,0-.94.73A3.14,3.14,0,0,0,296,45.3a4.91,4.91,0,0,0,0,2.84,3.19,3.19,0,0,0,.61,1.12,2.81,2.81,0,0,0,.94.74A3,3,0,0,0,298.81,50.26Z" fill="#e52823"/><path d="M308,40.12a1.38,1.38,0,0,1-1-.42,1.42,1.42,0,0,1,0-2,1.38,1.38,0,0,1,1-.42,1.35,1.35,0,0,1,1,.42,1.42,1.42,0,0,1,0,2A1.35,1.35,0,0,1,308,40.12ZM306.84,52V41.42h2.31V52Z" fill="#e52823"/><path d="M315.79,52.31a7.26,7.26,0,0,1-2.55-.43,5.59,5.59,0,0,1-2-1.24L312.29,49a4.92,4.92,0,0,0,.68.55,6.64,6.64,0,0,0,.88.47,6,6,0,0,0,1,.33,4.44,4.44,0,0,0,1,.12,2.73,2.73,0,0,0,1.58-.38,1.22,1.22,0,0,0,.53-1,.86.86,0,0,0-.47-.79,4.79,4.79,0,0,0-1.19-.44c-.48-.12-1-.23-1.55-.35a6.29,6.29,0,0,1-1.55-.53A3.28,3.28,0,0,1,312,46a2.48,2.48,0,0,1-.47-1.62,3,3,0,0,1,.27-1.25,2.9,2.9,0,0,1,.8-1,4.07,4.07,0,0,1,1.31-.69,5.79,5.79,0,0,1,1.8-.26,6.21,6.21,0,0,1,2.38.42,5.69,5.69,0,0,1,1.73,1.06l-1,1.63a3.86,3.86,0,0,0-1.31-.91,4.37,4.37,0,0,0-1.83-.37,2.4,2.4,0,0,0-1.44.37,1.13,1.13,0,0,0-.52.95.76.76,0,0,0,.47.7,4.84,4.84,0,0,0,1.19.41l1.55.35a6.94,6.94,0,0,1,1.55.55,3.59,3.59,0,0,1,1.19,1,2.78,2.78,0,0,1,.47,1.69,3.1,3.1,0,0,1-.28,1.32,2.86,2.86,0,0,1-.85,1,4.12,4.12,0,0,1-1.39.7A6.78,6.78,0,0,1,315.79,52.31Z" fill="#e52823"/><path d="M327.36,52.31a5.69,5.69,0,0,1-2.21-.42A5.17,5.17,0,0,1,322.29,49a6,6,0,0,1-.41-2.23,5.89,5.89,0,0,1,.41-2.22,5.37,5.37,0,0,1,1.13-1.76,5.19,5.19,0,0,1,1.73-1.17,5.69,5.69,0,0,1,2.21-.42,6.1,6.1,0,0,1,1.42.16,4.49,4.49,0,0,1,1.12.42,3.94,3.94,0,0,1,.87.6,5.52,5.52,0,0,1,.66.72l-1.52,1.38a2.83,2.83,0,0,0-2.44-1.23,3,3,0,0,0-2.33,1,3.64,3.64,0,0,0-.88,2.54,4.31,4.31,0,0,0,.23,1.42,3.46,3.46,0,0,0,.66,1.12,3.07,3.07,0,0,0,1,.74,3.26,3.26,0,0,0,1.31.26A2.83,2.83,0,0,0,329.91,49l1.52,1.43a5.18,5.18,0,0,1-1.54,1.32A4.94,4.94,0,0,1,327.36,52.31Z" fill="#e52823"/><path d="M338.3,52.31a5.57,5.57,0,0,1-2.29-.45,5.23,5.23,0,0,1-1.72-1.21,5.34,5.34,0,0,1-1.08-1.77,6.49,6.49,0,0,1,0-4.32,5.34,5.34,0,0,1,1.08-1.77,5.21,5.21,0,0,1,1.72-1.2,6.15,6.15,0,0,1,4.57,0,5.21,5.21,0,0,1,1.72,1.2,5.34,5.34,0,0,1,1.08,1.77,6.49,6.49,0,0,1,0,4.32,5.34,5.34,0,0,1-1.08,1.77,5.23,5.23,0,0,1-1.72,1.21A5.52,5.52,0,0,1,338.3,52.31Zm0-2.05a3,3,0,0,0,1.32-.28,2.76,2.76,0,0,0,.95-.77,3.52,3.52,0,0,0,.59-1.14,4.64,4.64,0,0,0,.19-1.35,4.52,4.52,0,0,0-.19-1.34,3.42,3.42,0,0,0-.59-1.12,2.65,2.65,0,0,0-.95-.77,3,3,0,0,0-1.32-.29,2.86,2.86,0,0,0-1.3.29,2.81,2.81,0,0,0-1,.77,3.24,3.24,0,0,0-.59,1.12,4.22,4.22,0,0,0-.2,1.34,4.33,4.33,0,0,0,.2,1.35,3.34,3.34,0,0,0,.59,1.14,2.93,2.93,0,0,0,1,.77A2.86,2.86,0,0,0,338.3,50.26Z" fill="#e52823"/><path d="M353.28,52v-1.4a5.57,5.57,0,0,1-1.53,1.15,4.54,4.54,0,0,1-2.21.52,3.48,3.48,0,0,1-2.58-.87,3.41,3.41,0,0,1-.85-2.5V41.42h2.31v6.66a2.1,2.1,0,0,0,.58,1.71,2.39,2.39,0,0,0,1.57.47,3,3,0,0,0,1.6-.43,3.91,3.91,0,0,0,1.11-.95V41.42h2.31V52Z" fill="#e52823"/><path d="M365.77,52V45.4a2.13,2.13,0,0,0-.58-1.73,2.45,2.45,0,0,0-1.57-.47,3,3,0,0,0-1.6.44,4.39,4.39,0,0,0-1.13,1V52h-2.31V41.42h2.31v1.43a4.87,4.87,0,0,1,.65-.62,4.62,4.62,0,0,1,.87-.55,4.94,4.94,0,0,1,1-.38,4.7,4.7,0,0,1,1.2-.15,3,3,0,0,1,3.43,3.41V52Z" fill="#e52823"/><path d="M374.29,52.31a2.74,2.74,0,0,1-2.05-.71,2.82,2.82,0,0,1-.68-2V43.42H369.8v-2h1.76V38.51h2.31v2.91H376v2h-2.16V49a1.55,1.55,0,0,0,.25.91.87.87,0,0,0,.76.36,1.54,1.54,0,0,0,.61-.12,1.07,1.07,0,0,0,.4-.27l.55,1.76a2.42,2.42,0,0,1-.83.48A3.82,3.82,0,0,1,374.29,52.31Z" fill="#e52823"/><path d="M381.75,52.31a7.28,7.28,0,0,1-2.56-.43,5.77,5.77,0,0,1-2-1.24L378.25,49a4.92,4.92,0,0,0,.68.55,6.07,6.07,0,0,0,.88.47,5.86,5.86,0,0,0,1,.33,4.51,4.51,0,0,0,1,.12,2.76,2.76,0,0,0,1.59-.38,1.22,1.22,0,0,0,.53-1,.86.86,0,0,0-.48-.79,4.65,4.65,0,0,0-1.19-.44c-.47-.12-1-.23-1.55-.35a6.59,6.59,0,0,1-1.55-.53A3.46,3.46,0,0,1,378,46a2.54,2.54,0,0,1-.47-1.62,2.82,2.82,0,0,1,.28-1.25,2.9,2.9,0,0,1,.8-1,4,4,0,0,1,1.31-.69,5.77,5.77,0,0,1,1.79-.26,6.26,6.26,0,0,1,2.39.42,5.63,5.63,0,0,1,1.72,1.06l-1,1.63a4,4,0,0,0-1.31-.91A4.38,4.38,0,0,0,381.7,43a2.4,2.4,0,0,0-1.44.37,1.15,1.15,0,0,0-.52.95.75.75,0,0,0,.48.7,4.75,4.75,0,0,0,1.18.41l1.56.35a7.12,7.12,0,0,1,1.55.55,3.55,3.55,0,0,1,1.18,1,2.71,2.71,0,0,1,.48,1.69,3.1,3.1,0,0,1-.29,1.32,2.77,2.77,0,0,1-.85,1,4.07,4.07,0,0,1-1.38.7A6.83,6.83,0,0,1,381.75,52.31Z" fill="#e52823"/><path d="M301,74.71a7.85,7.85,0,0,1-3-.57,7.26,7.26,0,0,1-2.38-1.59,7.14,7.14,0,0,1-1.55-2.4,8.25,8.25,0,0,1-.55-3,8.34,8.34,0,0,1,.55-3,7.35,7.35,0,0,1,1.55-2.4A7.23,7.23,0,0,1,298,60.1a8.31,8.31,0,0,1,6.05,0,7.19,7.19,0,0,1,2.37,1.58,7.51,7.51,0,0,1,1.55,2.4,8.14,8.14,0,0,1,.56,3,8,8,0,0,1-.56,3,7.3,7.3,0,0,1-1.55,2.4A7.21,7.21,0,0,1,304,74.14,7.86,7.86,0,0,1,301,74.71Zm0-2.29a4.69,4.69,0,0,0,2-.41,4.64,4.64,0,0,0,1.54-1.11,5,5,0,0,0,1-1.68,6.69,6.69,0,0,0,0-4.21,5,5,0,0,0-1-1.68A4.94,4.94,0,0,0,303,62.22a5.25,5.25,0,0,0-4,0A4.65,4.65,0,0,0,296.46,65a6.69,6.69,0,0,0,0,4.21,5,5,0,0,0,1,1.68A4.66,4.66,0,0,0,301,72.42Z" fill="#e52823"/><path d="M315.73,74.71a5.7,5.7,0,0,1-2.22-.42,5.15,5.15,0,0,1-1.72-1.17,5.24,5.24,0,0,1-1.14-1.77,6,6,0,0,1-.4-2.23,5.89,5.89,0,0,1,.4-2.22,5.4,5.4,0,0,1,1.14-1.76A5.15,5.15,0,0,1,313.51,64a5.7,5.7,0,0,1,2.22-.42,6,6,0,0,1,1.41.16,4.57,4.57,0,0,1,1.13.42,3.94,3.94,0,0,1,.87.6,6.22,6.22,0,0,1,.65.72l-1.51,1.38a2.84,2.84,0,0,0-2.45-1.23,3,3,0,0,0-2.33,1,3.68,3.68,0,0,0-.88,2.54,4.31,4.31,0,0,0,.23,1.42,3.46,3.46,0,0,0,.66,1.12,3.11,3.11,0,0,0,1,.74,3.18,3.18,0,0,0,1.3.26,2.84,2.84,0,0,0,2.45-1.27l1.51,1.43a5.41,5.41,0,0,1-1.53,1.32A5,5,0,0,1,315.73,74.71Z" fill="#e52823"/><path d="M325.05,74.71a2.7,2.7,0,0,1-2-.71,2.78,2.78,0,0,1-.69-2V65.82h-1.76v-2h1.76V60.91h2.31v2.91h2.16v2h-2.16v5.57a1.55,1.55,0,0,0,.26.91.87.87,0,0,0,.76.36,1.46,1.46,0,0,0,.6-.12,1.12,1.12,0,0,0,.41-.27l.55,1.76a2.58,2.58,0,0,1-.84.48A3.82,3.82,0,0,1,325.05,74.71Z" fill="#e52823"/><path d="M337.26,74.44V63.09l-2.4,2.51L333.37,64l4.22-4.27h2.25V74.44Z" fill="#e52823"/><path d="M344.06,74.44l5.54-12.38H342V59.77h10.58v1.78L346.9,74.44Z" fill="#e52823"/><path d="M353.76,70.11v-2H359v2Z" fill="#e52823"/><path d="M363.93,74.44V63.09l-2.4,2.51L360,64l4.23-4.27h2.24V74.44Z" fill="#e52823"/><path d="M374.62,74.71a8.39,8.39,0,0,1-2.15-.27,5.86,5.86,0,0,1-1.8-.77,3.7,3.7,0,0,1-1.23-1.26,3.38,3.38,0,0,1-.45-1.75,3.17,3.17,0,0,1,.26-1.29,3.89,3.89,0,0,1,.71-1.08,5.48,5.48,0,0,1,1.06-.83,6.06,6.06,0,0,1,1.27-.58,6.57,6.57,0,0,1-1.18-.51,3.83,3.83,0,0,1-1-.74,3.13,3.13,0,0,1-.66-1,3.06,3.06,0,0,1-.24-1.25,3.14,3.14,0,0,1,.47-1.75,3.84,3.84,0,0,1,1.24-1.2,6.07,6.07,0,0,1,1.74-.68,8.55,8.55,0,0,1,1.94-.22,8.47,8.47,0,0,1,1.93.22,5.85,5.85,0,0,1,1.74.68,3.75,3.75,0,0,1,1.24,1.2A3.14,3.14,0,0,1,380,63.4a3.06,3.06,0,0,1-.24,1.25,3.52,3.52,0,0,1-.66,1,4,4,0,0,1-1,.74,7.25,7.25,0,0,1-1.18.51,6,6,0,0,1,1.26.58,4.93,4.93,0,0,1,1.06.83,3.92,3.92,0,0,1,.72,1.08,3.34,3.34,0,0,1,.26,1.29,3.29,3.29,0,0,1-.46,1.75,3.89,3.89,0,0,1-1.23,1.26,5.86,5.86,0,0,1-1.8.77A8.31,8.31,0,0,1,374.62,74.71Zm0-2.29a4.71,4.71,0,0,0,1.15-.14,3.49,3.49,0,0,0,1-.42,2.08,2.08,0,0,0,.66-.66,1.63,1.63,0,0,0,.24-.87,1.46,1.46,0,0,0-.34-1,3.23,3.23,0,0,0-.82-.69,4.49,4.49,0,0,0-1-.44,6.09,6.09,0,0,0-.84-.2,5.75,5.75,0,0,0-.87.2,4,4,0,0,0-1,.44,3.23,3.23,0,0,0-.82.69,1.52,1.52,0,0,0-.34,1,1.71,1.71,0,0,0,.23.87,2,2,0,0,0,.65.66,3.49,3.49,0,0,0,1,.42A4.83,4.83,0,0,0,374.62,72.42Zm0-6.58c.22,0,.49-.11.81-.2a3.62,3.62,0,0,0,.91-.37,2.57,2.57,0,0,0,.74-.6,1.31,1.31,0,0,0,.31-.87,1.63,1.63,0,0,0-.79-1.46,4.17,4.17,0,0,0-4,0,1.63,1.63,0,0,0-.79,1.46,1.35,1.35,0,0,0,.3.87,2.76,2.76,0,0,0,.75.6,4,4,0,0,0,.91.37C374.13,65.73,374.4,65.8,374.62,65.84Z" fill="#e52823"/></g></g></svg>